<svg
  xmlns="http://www.w3.org/2000/svg"
  width="24"
  height="24"
  viewBox="0 0 24 24"
  fill="none"
  stroke="currentColor"
  stroke-width="2"
  stroke-linecap="round"
  stroke-linejoin="round"
>
  <path d="M22 4C22.5523 4 23 4.44772 23 5C23 5.55228 22.5523 6 22 6V15.7998C22 16.3434 22.0011 16.8116 21.9697 17.1953C21.9415 17.5412 21.8835 17.8856 21.7402 18.2197L21.6729 18.3623C21.4211 18.8562 21.0383 19.2694 20.5684 19.5576L20.3623 19.6729C19.984 19.8656 19.5906 19.9374 19.1953 19.9697C18.8116 20.0011 18.3434 20 17.7998 20H16.2002C15.6566 20 15.1884 20.0011 14.8047 19.9697C14.4588 19.9415 14.1144 19.8835 13.7803 19.7402L13.6377 19.6729C13.1438 19.4211 12.7306 19.0383 12.4424 18.5684L12.3271 18.3623C12.1344 17.984 12.0626 17.5906 12.0303 17.1953C11.9989 16.8116 12 16.3434 12 15.7998V10H4V19C4 19.5523 3.55228 20 3 20C2.44772 20 2 19.5523 2 19V6C1.44772 6 1 5.55228 1 5C1 4.44772 1.44772 4 2 4H22ZM16 12C15.4477 12 15 12.4477 15 13C15 13.5523 15.4477 14 16 14H18C18.5523 14 19 13.5523 19 13C19 12.4477 18.5523 12 18 12H16ZM16 8C15.4477 8 15 8.44772 15 9C15 9.55228 15.4477 10 16 10H18C18.5523 10 19 9.55228 19 9C19 8.44772 18.5523 8 18 8H16ZM4 8H12V6H4V8Z" fill="currentColor" fill-rule="evenodd" clip-rule="evenodd"/ stroke="none">
</svg>