<svg width="24" height="24" viewBox="0 0 24 24" fill="none" xmlns="http://www.w3.org/2000/svg">
<path opacity="0.28" fill-rule="evenodd" clip-rule="evenodd" d="M11.1089 10.5632C10.9993 10.454 10.8658 10.3718 10.7189 10.3232C9.54326 9.92783 8.26846 9.94148 7.10152 10.3619C5.93458 10.7824 4.94402 11.5849 4.29067 12.6393C3.63732 13.6936 3.35955 14.9378 3.50245 16.17C3.64535 17.4021 4.20054 18.5497 5.07787 19.4265C5.95519 20.3033 7.10315 20.8579 8.33534 21.0001C9.56754 21.1422 10.8116 20.8638 11.8656 20.2098C12.9196 19.5558 13.7215 18.5648 14.1413 17.3976C14.5611 16.2304 14.574 14.9556 14.1779 13.7802C14.1287 13.6339 14.0462 13.5011 13.9369 13.3922L15.6819 11.6472V10.0252C15.6819 9.89259 15.7346 9.76541 15.8284 9.67164C15.9221 9.57787 16.0493 9.5252 16.1819 9.5252H17.8029L19.9239 7.4052V4.5752H17.0959L11.1089 10.5632Z" fill="#111111"/>
<path d="M8.96378 16.9501L7.54978 15.5371C7.52221 15.7293 7.53977 15.9252 7.60106 16.1094C7.66236 16.2935 7.7657 16.4609 7.90291 16.5982C8.04012 16.7355 8.20743 16.839 8.39157 16.9004C8.5757 16.9619 8.77162 16.9795 8.96378 16.9521V16.9501Z" stroke="#111111" stroke-width="2.2" stroke-linecap="round" stroke-linejoin="round"/>
<path d="M10.7319 10.9402L17.0959 4.57617H19.9239V7.40417L17.8039 9.52517H16.1819C16.0493 9.52517 15.9221 9.57785 15.8284 9.67162C15.7346 9.76539 15.6819 9.89256 15.6819 10.0252V11.6472L13.5599 13.7682" stroke="#111111" stroke-width="2" stroke-linecap="round" stroke-linejoin="round"/>
</svg>
