<svg
  xmlns="http://www.w3.org/2000/svg"
  width="24"
  height="24"
  viewBox="0 0 24 24"
  fill="none"
  stroke="currentColor"
  stroke-width="2"
  stroke-linecap="round"
  stroke-linejoin="round"
>
  <path d="M10.286 13.2139C9.45369 13.8177 8.70516 14.5292 8.05999 15.3299C8.02102 15.378 7.99976 15.438 7.99976 15.4999C7.99976 15.5618 8.02102 15.6218 8.05999 15.6699C8.70519 16.4705 9.45372 17.182 10.286 17.7859M13.714 17.7859C14.5463 17.182 15.2948 16.4705 15.94 15.6699C15.979 15.6218 16.0002 15.5618 16.0002 15.4999C16.0002 15.438 15.979 15.378 15.94 15.3299C15.2948 14.5292 14.5463 13.8177 13.714 13.2139" stroke="currentColor" stroke-width="2"/>
  <path d="M3 2C2.46957 2 1.96086 2.21071 1.58579 2.58579C1.21071 2.96086 1 3.46957 1 4V5C1 5.53043 1.21071 6.03914 1.58579 6.41421C1.96086 6.78929 2.46957 7 3 7H21C21.5304 7 22.0391 6.78929 22.4142 6.41421C22.7893 6.03914 23 5.53043 23 5V4C23 3.46957 22.7893 2.96086 22.4142 2.58579C22.0391 2.21071 21.5304 2 21 2H3Z" fill="currentColor" fill-rule="evenodd" clip-rule="evenodd"/>
  <path d="M4 9C3.73478 9 3.48043 9.10536 3.29289 9.29289C3.10536 9.48043 3 9.73478 3 10V17C3 18.3261 3.52678 19.5979 4.46447 20.5355C5.40215 21.4732 6.67392 22 8 22H16C17.3261 22 18.5979 21.4732 19.5355 20.5355C20.4732 19.5979 21 18.3261 21 17V10C21 9.73478 20.8946 9.48043 20.7071 9.29289C20.5196 9.10536 20.2652 9 20 9H4Z" fill="currentColor" opacity="0.28" fill-rule="evenodd" clip-rule="evenodd"/>
</svg>