<svg
  xmlns="http://www.w3.org/2000/svg"
  width="24"
  height="24"
  viewBox="0 0 24 24"
  fill="none"
  stroke="currentColor"
  stroke-width="2"
  stroke-linecap="round"
  stroke-linejoin="round"
>
  <path d="M11.41 18.5707C10.5646 17.9369 9.80048 17.2014 9.135 16.3807C9.04751 16.273 8.99983 16.1385 9 15.9997M9 15.9997C8.99983 15.861 9.04751 15.7264 9.135 15.6187C9.8 14.7987 10.564 14.0627 11.41 13.4287M9 15.9997H15" stroke="currentColor" stroke-width="2"/>
  <path d="M3 2.5C2.46957 2.5 1.96086 2.71071 1.58579 3.08579C1.21071 3.46086 1 3.96957 1 4.5V5.5C1 6.03043 1.21071 6.53914 1.58579 6.91421C1.96086 7.28929 2.46957 7.5 3 7.5H21C21.5304 7.5 22.0391 7.28929 22.4142 6.91421C22.7893 6.53914 23 6.03043 23 5.5V4.5C23 3.96957 22.7893 3.46086 22.4142 3.08579C22.0391 2.71071 21.5304 2.5 21 2.5H3Z" fill="currentColor" fill-rule="evenodd" clip-rule="evenodd"/>
  <path d="M4 9.5C3.73478 9.5 3.48043 9.60536 3.29289 9.79289C3.10536 9.98043 3 10.2348 3 10.5V17.5C3 18.8261 3.52678 20.0979 4.46447 21.0355C5.40215 21.9732 6.67392 22.5 8 22.5H16C17.3261 22.5 18.5979 21.9732 19.5355 21.0355C20.4732 20.0979 21 18.8261 21 17.5V10.5C21 10.2348 20.8946 9.98043 20.7071 9.79289C20.5196 9.60536 20.2652 9.5 20 9.5H4Z" fill="currentColor" opacity="0.28" fill-rule="evenodd" clip-rule="evenodd"/>
</svg>