<svg
  xmlns="http://www.w3.org/2000/svg"
  width="24"
  height="24"
  viewBox="0 0 24 24"
  fill="none"
  stroke="currentColor"
  stroke-width="2"
  stroke-linecap="round"
  stroke-linejoin="round"
>
  <path d="M14.2682 17.2924L13.3609 18.1996C12.0906 19.4699 11.4555 20.105 10.7231 20.343C10.0788 20.5523 9.38487 20.5523 8.74063 20.343C8.00823 20.105 7.37309 19.4699 6.10281 18.1996L5.80039 17.8972C4.53011 16.6269 3.89496 15.9918 3.65699 15.2594C3.44767 14.6151 3.44767 13.9212 3.65699 13.2769C3.89496 12.5445 4.53011 11.9094 5.80039 10.6391L6.70765 9.73185M14.2682 17.2924L18.1996 13.3609C19.4699 12.0906 20.105 11.4555 20.343 10.7231C20.5523 10.0788 20.5523 9.38487 20.343 8.74063C20.105 8.00823 19.4699 7.37309 18.1996 6.10281L17.8972 5.80039C16.6269 4.53011 15.9918 3.89496 15.2594 3.65699C14.6151 3.44767 13.9212 3.44767 13.2769 3.65699C12.5445 3.89496 11.9094 4.53011 10.6391 5.80039L6.70765 9.73185M14.2682 17.2924L6.70765 9.73185" stroke="currentColor" stroke-width="2"/>
  <path d="M17.8975 5.80039L18.1999 6.10281C19.4702 7.37309 20.1053 8.00823 20.3433 8.74063C20.5526 9.38487 20.5526 10.0788 20.3433 10.7231C20.1053 11.4555 19.4702 12.0906 18.1999 13.3609L14.9755 16.5852L7.41504 9.02474L10.6394 5.80039C11.9097 4.53011 12.5448 3.89496 13.2772 3.65699C13.9215 3.44767 14.6154 3.44767 15.2597 3.65699C15.992 3.89496 16.6272 4.53011 17.8975 5.80039Z" fill="currentColor" opacity="0.28"/>
</svg>