<svg width="24" height="24" viewBox="0 0 24 24" fill="none" xmlns="http://www.w3.org/2000/svg">
<path opacity="0.28" d="M12.9012 14.8027L16 21.0003M8 21.0003L11.0988 14.8027" stroke="#111111" stroke-width="2" stroke-linecap="round" stroke-linejoin="round"/>
<path d="M16.5249 6.26205C16.2391 5.19512 16.8722 4.09844 17.9392 3.81256L19.871 3.29492L22.3191 12.4314L20.3873 12.949C19.3203 13.2349 18.2237 12.6017 17.9378 11.5348L16.5249 6.26205Z" stroke="#111111" stroke-width="2" stroke-linecap="round" stroke-linejoin="round"/>
<path d="M4.51306 10.0503L2.77216 10.6405C2.27301 10.8097 1.99088 11.3372 2.12729 11.8463L2.67755 13.8999C2.81396 14.409 3.32208 14.7248 3.83896 14.6218L9.99324 13.3951M4.51306 10.0503L16.4549 6.00195M4.51306 10.0503L4.0979 8.50057M18.0078 11.7975L14.0005 12.5963" stroke="#111111" stroke-width="2" stroke-linecap="round" stroke-linejoin="round"/>
<path d="M14 13C14 14.1046 13.1046 15 12 15C10.8954 15 10 14.1046 10 13C10 11.8954 10.8954 11 12 11C13.1046 11 14 11.8954 14 13Z" stroke="#111111" stroke-width="2" stroke-linecap="round" stroke-linejoin="round"/>
</svg>
