<svg
  xmlns="http://www.w3.org/2000/svg"
  width="24"
  height="24"
  viewBox="0 0 24 24"
  fill="none"
  stroke="currentColor"
  stroke-width="2"
  stroke-linecap="round"
  stroke-linejoin="round"
>
  <path d="M5 6.6665V9.33317C5 10.8059 3.65685 11.9998 2 11.9998C3.65685 11.9998 5 13.1937 5 14.6665V17.3332M19 6.6665V9.33317C19 10.8059 20.3431 11.9998 22 11.9998C20.3431 11.9998 19 13.1937 19 14.6665V17.3332" stroke="currentColor" stroke-width="2"/ fill="none">
  <path d="M8 4C6.34315 4 5 5.19391 5 6.66667V9.33333C5 10.8061 3.65685 12 2 12C3.65685 12 5 13.1939 5 14.6667V17.3333C5 18.8061 6.34315 20 8 20M16 4C17.6569 4 19 5.19391 19 6.66667V9.33333C19 10.8061 20.3431 12 22 12C20.3431 12 19 13.1939 19 14.6667V17.3333C19 18.8061 17.6569 20 16 20" stroke="#111111" stroke-width="2" opacity="0.28"/ fill="none">
</svg>