<svg
  xmlns="http://www.w3.org/2000/svg"
  width="24"
  height="24"
  viewBox="0 0 24 24"
  fill="none"
  stroke="currentColor"
  stroke-width="2"
  stroke-linecap="round"
  stroke-linejoin="round"
>
  <path d="M16 21.3L18.4 18.9M18.4 18.9L20.8 16.5M18.4 18.9L16 16.5M18.4 18.9L20.8 21.3M6 15.5C4.34315 15.5 3 16.8431 3 18.5C3 20.1569 4.34315 21.5 6 21.5C7.65685 21.5 9 20.1569 9 18.5C9 16.8431 7.65685 15.5 6 15.5ZM21 5.5C21 7.15685 19.6569 8.5 18 8.5C16.3431 8.5 15 7.15685 15 5.5C15 3.84315 16.3431 2.5 18 2.5C19.6569 2.5 21 3.84315 21 5.5Z" stroke="currentColor" stroke-width="2"/ fill="none">
  <path d="M6 15.5V14.5M6 14.5V3M6 14.5C6 9.52944 10.0294 5.5 15 5.5" stroke="#111111" stroke-width="2" opacity="0.28"/ fill="none">
</svg>