<svg
  xmlns="http://www.w3.org/2000/svg"
  width="24"
  height="24"
  viewBox="0 0 24 24"
  fill="none"
  stroke="currentColor"
  stroke-width="2"
  stroke-linecap="round"
  stroke-linejoin="round"
>
  <path d="M1.8501 12.0001C1.8501 6.3941 6.3941 1.8501 12.0001 1.8501C17.6061 1.8501 22.1501 6.3941 22.1501 12.0001C22.1501 17.6051 17.6061 22.1501 12.0001 22.1501C6.3941 22.1501 1.8501 17.6051 1.8501 12.0001ZM15.4041 16.8041C15.5967 16.9485 15.8349 17.0186 16.075 17.0016C16.3151 16.9845 16.541 16.8814 16.7112 16.7112C16.8814 16.541 16.9845 16.3151 17.0016 16.075C17.0186 15.8349 16.9485 15.5967 16.8041 15.4041L13.3351 10.7811C13.1785 10.5712 12.9786 10.3974 12.7489 10.2716C12.5193 10.1457 12.2652 10.0708 12.004 10.0519C11.7428 10.033 11.4806 10.0705 11.2351 10.1619C10.9897 10.2533 10.7668 10.3965 10.5817 10.5817C10.3965 10.7668 10.2533 10.9897 10.1619 11.2351C10.0705 11.4806 10.033 11.7428 10.0519 12.004C10.0708 12.2652 10.1457 12.5193 10.2716 12.7489C10.3974 12.9786 10.5712 13.1785 10.7811 13.3351L15.4041 16.8041Z" fill="currentColor" fill-rule="evenodd" clip-rule="evenodd"/ stroke="none">
</svg>