<svg width="24" height="24" viewBox="0 0 24 24" fill="none" xmlns="http://www.w3.org/2000/svg">
<path d="M6.83691 8.63477L10.3671 14.7492C10.9194 15.7058 12.1425 16.0335 13.0991 15.4812L15.5933 14.0412C16.0221 13.7936 16.5676 13.8971 16.8758 14.2846L20.303 18.5918" stroke="#111111" stroke-width="2" stroke-linecap="round" stroke-linejoin="round"/>
<path d="M7.83691 4.64697C7.83691 5.19926 7.3892 5.64697 6.83691 5.64697C6.28463 5.64697 5.83691 5.19926 5.83691 4.64697C5.83691 4.09469 6.28463 3.64697 6.83691 3.64697C7.3892 3.64697 7.83691 4.09469 7.83691 4.64697Z" stroke="#111111" stroke-width="2" stroke-linecap="round" stroke-linejoin="round"/>
<path opacity="0.28" d="M14.9822 18.4745L14.1439 18.9075C11.7712 20.1329 8.85442 19.2776 7.51926 16.9649L4.07568 11.0002" stroke="#111111" stroke-width="2" stroke-linecap="round" stroke-linejoin="round"/>
</svg>
