<svg
  xmlns="http://www.w3.org/2000/svg"
  width="24"
  height="24"
  viewBox="0 0 24 24"
  fill="none"
  stroke="currentColor"
  stroke-width="2"
  stroke-linecap="round"
  stroke-linejoin="round"
>
  <path d="M11.2112 2C11.8717 3.98845 13.747 5.42254 15.9572 5.42254C15.9813 5.42254 16.0054 5.42237 16.0295 5.42203C16.2346 6.87906 17.4864 8 19 8V19.5C19 20.8807 17.8807 22 16.5 22H7.5C6.11929 22 5 20.8807 5 19.5V4.5C5 3.11929 6.11929 2 7.5 2H11.2112Z" fill="currentColor" opacity="0.28"/>
  <path d="M19 15V8C17.4864 8 16.2346 6.87906 16.0295 5.42203C16.0054 5.42237 15.9813 5.42254 15.9572 5.42254C13.747 5.42254 11.8717 3.98845 11.2112 2H7.5C6.11929 2 5 3.11929 5 4.5V15M19 15V19.5C19 20.8807 17.8807 22 16.5 22H12M19 15H5M12 22H7.5C6.11929 22 5 20.8807 5 19.5V15M12 22V3.47913M5 9H19" stroke="currentColor" stroke-width="2"/>
</svg>