<svg
  xmlns="http://www.w3.org/2000/svg"
  width="24"
  height="24"
  viewBox="0 0 24 24"
  fill="none"
  stroke="currentColor"
  stroke-width="2"
  stroke-linecap="round"
  stroke-linejoin="round"
>
  <path d="M5.50537 9.03901C6.33889 7.18143 6.6607 7.00019 7.79337 5.4371C7.79337 4.14585 7.73092 3.3062 8.3597 3.0585C9.10726 2.764 10.6024 3.64749 10.9648 4.23647C13.1849 4.05524 14.799 4.07641 15.8353 5.0973C17.3531 6.59242 19.324 7.58917 20.4113 7.7704C21.1589 7.89499 21.8013 7.52121 21.4987 9.40145C21.3456 10.3529 20.5019 11.6951 18.8256 12.3237C17.557 12.7995 14.1487 12.2637 14.7253 14.6344" stroke="currentColor" stroke-width="2"/>
  <path d="M8.15813 2.07218C8.5432 1.96313 8.92714 1.99461 9.22941 2.05558C9.58993 2.12836 9.94366 2.26586 10.2558 2.42276C10.5708 2.58116 10.8734 2.77429 11.1318 2.97941C11.2171 3.0472 11.3034 3.12353 11.3886 3.20401C12.3159 3.14021 13.1931 3.11854 13.9794 3.2255C14.9285 3.35468 15.8186 3.67708 16.537 4.38468L16.7997 4.6337C17.4234 5.20251 18.1174 5.68634 18.7743 6.0546C19.54 6.4837 20.1907 6.71986 20.5761 6.78409L20.746 6.80069C20.8067 6.80364 20.8837 6.80681 21.0126 6.81632C21.1859 6.82911 21.5825 6.86105 21.9374 7.11905C22.3447 7.41547 22.5036 7.85106 22.5536 8.24503C22.5891 8.5252 22.5785 8.8435 22.537 9.1962L22.4862 9.56046C22.2882 10.7902 21.317 12.3048 19.5429 13.1093L19.1767 13.2597C18.7186 13.4314 18.1312 13.496 17.6777 13.5458C17.1628 13.6024 16.7085 13.6477 16.3134 13.7411C15.9012 13.8386 15.741 13.95 15.6923 14.0048C15.6809 14.0176 15.673 14.0287 15.6669 14.0605C15.6591 14.102 15.6504 14.2058 15.6972 14.3984L15.8456 14.9599C16.2032 16.2145 16.6426 17.0929 17.0937 17.8485C17.3623 18.2985 17.6246 18.6885 17.9101 19.1357C18.1877 19.5704 18.4704 20.0347 18.7275 20.5614C18.8785 20.8713 18.8593 21.2378 18.6767 21.5302C18.4939 21.8222 18.1736 21.9999 17.829 21.9999H2.42473C2.13971 21.9999 1.86836 21.8776 1.67863 21.665C1.48902 21.4522 1.39909 21.1688 1.43156 20.8857C2.16954 14.4745 3.40827 11.2716 4.59367 8.6298L4.90617 7.95987C5.54828 6.65232 5.97104 6.21987 6.79387 5.10734C6.79132 4.61975 6.78945 4.1113 6.85344 3.70206C6.93921 3.15427 7.19309 2.44313 7.99309 2.12784L8.15813 2.07218Z" fill="currentColor" opacity="0.28"/>
</svg>