<svg
  xmlns="http://www.w3.org/2000/svg"
  width="24"
  height="24"
  viewBox="0 0 24 24"
  fill="none"
  stroke="currentColor"
  stroke-width="2"
  stroke-linecap="round"
  stroke-linejoin="round"
>
  <path d="M10 14.9993C9.34732 15.6987 8.98919 16.6227 9 17.5793L9 19.0493M9 19.0493L9 20.9993M9 19.0493C8.10549 19.4055 7.13532 19.5294 6.18 19.4093C4.66 18.8893 5.06 17.5093 4.28 16.9393C3.90518 16.6713 3.46037 16.5184 3 16.4993M14 14.9993C14.6527 15.6987 15.0108 16.6227 15 17.5793V20.9993" stroke="currentColor" stroke-width="2" opacity="0.28"/>
  <path d="M18.247 2.19486C17.8395 1.99109 17.396 1.98088 17.0489 2.01503C16.6827 2.05106 16.3 2.14941 15.9319 2.27665C15.3103 2.4915 14.6469 2.81791 14.0383 3.1932C13.3618 3.09828 12.679 3.0535 11.9955 3.05928C11.3136 3.05946 10.6328 3.10996 9.95867 3.21029C9.36401 2.83965 8.71833 2.5078 8.10295 2.28854C7.73627 2.15789 7.35039 2.05638 6.97385 2.02176C6.60673 1.98802 6.16719 2.01039 5.75753 2.21241C5.28624 2.44483 5.01091 2.85736 4.85094 3.21266C4.68632 3.57831 4.59369 3.99148 4.54561 4.39461C4.4626 5.09061 4.4979 5.88226 4.63284 6.62239C4.19275 7.60756 3.97592 8.67949 3.99983 9.76112C4.00243 11.4839 4.5737 13.1009 5.96378 14.2657C7.32924 15.41 9.3448 15.9993 11.9998 15.9993C14.6548 15.9993 16.6704 15.41 18.0359 14.2657C19.4255 13.1012 19.9969 11.4849 19.9998 9.76263C20.027 8.67317 19.8098 7.59296 19.3661 6.60075C19.4994 5.8471 19.5175 5.04573 19.4263 4.35152C19.3735 3.94995 19.2791 3.5439 19.1229 3.18835C18.9766 2.85538 18.7155 2.42907 18.247 2.19486Z" fill="currentColor"/>
</svg>