<svg width="24" height="24" viewBox="0 0 24 24" fill="none" xmlns="http://www.w3.org/2000/svg">
<path fill-rule="evenodd" clip-rule="evenodd" d="M19.5743 3.38078C19.7847 2.87015 19.5414 2.28563 19.0308 2.0752C18.5201 1.86478 17.9356 2.10814 17.7252 2.61877L15.0161 9.19286C13.957 9.03574 13.0854 9.15182 12.2877 9.59788C11.5063 10.0349 10.8669 10.7721 10.2296 11.507C10.1434 11.6065 10.0566 11.7064 9.97003 11.8051C7.9351 14.1243 5.54463 16.0938 2.89555 17.7638C2.59287 17.9546 2.21073 18.2617 2.06069 18.7434C1.87717 19.3327 2.13396 19.8206 2.39972 20.1045C2.64076 20.3621 2.95319 20.5367 3.21241 20.657C3.4887 20.7852 3.79711 20.893 4.1009 20.9839C5.20824 21.3151 6.56962 21.51 6.9269 21.5611L6.99213 21.5705C8.81193 21.8413 10.6488 21.9826 12.4887 21.9935C12.5814 21.9941 12.6808 21.995 12.7858 21.9961C13.5687 22.0037 14.6656 22.0143 15.6663 21.8784C16.2369 21.8009 16.8367 21.6691 17.3641 21.4297C17.8918 21.1903 18.4326 20.803 18.734 20.1708C19.5788 18.3986 20.03 16.5332 19.9985 14.5931C19.9874 13.91 19.9164 13.221 19.7834 12.527C19.566 11.3934 18.8627 10.666 18.0949 10.2041C17.7357 9.98792 17.3497 9.82186 16.9745 9.68973L19.5743 3.38078ZM11.0604 13.5854L17.9817 15.3789C17.8994 16.7156 17.5408 18.026 16.9286 19.3102C16.9015 19.3671 16.816 19.4822 16.5377 19.6084C16.2593 19.7348 15.8735 19.8319 15.3971 19.8966C15.1533 19.9297 14.9015 19.9526 14.6475 19.9682C15.1701 19.2812 15.7063 18.5014 16.0983 17.7609C16.3567 17.2728 16.1705 16.6677 15.6824 16.4093C15.1943 16.1508 14.5891 16.337 14.3307 16.8252C13.7429 17.9354 12.7188 19.226 12.053 19.9882C11.3031 19.9746 10.5539 19.9383 9.80645 19.8791C10.7479 19.0487 11.7348 18.0002 12.5518 16.8541C12.8723 16.4044 12.7677 15.78 12.318 15.4594C11.8682 15.1388 11.2438 15.2435 10.9232 15.6932C9.66015 17.4649 7.96977 18.9242 6.94763 19.5425C6.42443 19.4633 5.46069 19.3031 4.67404 19.0678C4.64881 19.0602 4.624 19.0527 4.59962 19.0451C6.96801 17.4871 9.1469 15.6798 11.0604 13.5854Z" fill="#111111"/>
</svg>
