<svg width="24" height="24" viewBox="0 0 24 24" fill="none" xmlns="http://www.w3.org/2000/svg">
<path fill-rule="evenodd" clip-rule="evenodd" d="M14.3058 3.17157C15.8679 1.60948 18.4006 1.60948 19.9627 3.17157C21.5248 4.73367 21.5248 7.26633 19.9627 8.82843L19.2556 9.53553L19.3726 9.65258C20.4795 10.7595 20.4795 12.5542 19.3726 13.6611L18.0982 14.9355C17.5268 15.5069 16.579 15.4285 16.1093 14.7709C15.8101 14.3519 15.5014 13.9403 15.1836 13.5363L9.42694 19.2931C9.12225 19.5984 8.85468 19.8664 8.53511 20.0583C8.1101 20.3134 7.62857 20.459 7.1338 20.4826C6.76167 20.5003 6.39034 20.4257 5.96815 20.3408L5.9451 20.3362L4.49905 20.8182C4.2843 20.8898 4.06315 20.9636 3.87564 21.0077C3.69314 21.0505 3.35144 21.1169 2.98569 20.9864C2.56172 20.8353 2.22793 20.5017 2.07664 20.0775C1.94626 19.7118 2.0125 19.37 2.0554 19.1875C2.09955 18.9996 2.17342 18.7782 2.24519 18.563L2.72686 17.118L2.72241 17.0958C2.63744 16.6732 2.56276 16.3016 2.58046 15.9293C2.604 15.4343 2.74985 14.9528 3.00477 14.528C3.19657 14.2084 3.46473 13.9408 3.76998 13.6361L9.51815 7.88809C9.13979 7.5923 8.75478 7.30449 8.36336 7.02491C7.70576 6.55519 7.62732 5.60742 8.19875 5.03599L9.47311 3.76164C10.58 2.6547 12.3747 2.6547 13.4817 3.76164L13.5987 3.87868L14.3058 3.17157ZM11.0624 9.17222L7.23443 13.0002H12.8913L13.8951 11.9964C13.0083 10.9991 12.0624 10.056 11.0624 9.17222Z" fill="#111111"/>
</svg>
