<svg width="24" height="24" viewBox="0 0 24 24" fill="none" xmlns="http://www.w3.org/2000/svg">
<path fill-rule="evenodd" clip-rule="evenodd" d="M7.8 3H7.759C6.954 3 6.289 3 5.749 3.044C5.186 3.09 4.669 3.189 4.184 3.436C3.43139 3.81949 2.81949 4.43139 2.436 5.184C2.189 5.669 2.09 6.186 2.044 6.748C2 7.29 2 7.954 2 8.758V15.242C2 16.047 2 16.712 2.044 17.252C2.09 17.815 2.189 18.332 2.436 18.817C2.81949 19.5696 3.43139 20.1815 4.184 20.565C4.669 20.812 5.186 20.911 5.748 20.957C6.29 21 6.954 21 7.758 21H13.125C13.3902 21 13.6446 20.8946 13.8321 20.7071C14.0196 20.5196 14.125 20.2652 14.125 20C14.125 19.7348 14.0196 19.4804 13.8321 19.2929C13.6446 19.1054 13.3902 19 13.125 19H7.8C6.943 19 6.361 19 5.911 18.962C5.473 18.927 5.248 18.862 5.092 18.782C4.71569 18.5903 4.40974 18.2843 4.218 17.908C4.138 17.752 4.073 17.528 4.038 17.089C4 16.639 4 16.057 4 15.2V9H20V12.125C20 12.3902 20.1054 12.6446 20.2929 12.8321C20.4804 13.0196 20.7348 13.125 21 13.125C21.2652 13.125 21.5196 13.0196 21.7071 12.8321C21.8946 12.6446 22 12.3902 22 12.125V8.759C22 7.954 22 7.289 21.956 6.749C21.91 6.186 21.811 5.669 21.564 5.184C21.1805 4.43139 20.5686 3.81949 19.816 3.436C19.331 3.189 18.814 3.09 18.252 3.044C17.71 3 17.046 3 16.242 3H7.8ZM7 11C6.73478 11 6.48043 11.1054 6.29289 11.2929C6.10536 11.4804 6 11.7348 6 12C6 12.2652 6.10536 12.5196 6.29289 12.7071C6.48043 12.8946 6.73478 13 7 13H17C17.2652 13 17.5196 12.8946 17.7071 12.7071C17.8946 12.5196 18 12.2652 18 12C18 11.7348 17.8946 11.4804 17.7071 11.2929C17.5196 11.1054 17.2652 11 17 11H7ZM6 16C6 15.7348 6.10536 15.4804 6.29289 15.2929C6.48043 15.1054 6.73478 15 7 15H14C14.2652 15 14.5196 15.1054 14.7071 15.2929C14.8946 15.4804 15 15.7348 15 16C15 16.2652 14.8946 16.5196 14.7071 16.7071C14.5196 16.8946 14.2652 17 14 17H7C6.73478 17 6.48043 16.8946 6.29289 16.7071C6.10536 16.5196 6 16.2652 6 16ZM21 16C21 15.7348 20.8946 15.4804 20.7071 15.2929C20.5196 15.1054 20.2652 15 20 15C19.7348 15 19.4804 15.1054 19.2929 15.2929C19.1054 15.4804 19 15.7348 19 16V18H17C16.7348 18 16.4804 18.1054 16.2929 18.2929C16.1054 18.4804 16 18.7348 16 19C16 19.2652 16.1054 19.5196 16.2929 19.7071C16.4804 19.8946 16.7348 20 17 20H19V22C19 22.2652 19.1054 22.5196 19.2929 22.7071C19.4804 22.8946 19.7348 23 20 23C20.2652 23 20.5196 22.8946 20.7071 22.7071C20.8946 22.5196 21 22.2652 21 22V20H23C23.2652 20 23.5196 19.8946 23.7071 19.7071C23.8946 19.5196 24 19.2652 24 19C24 18.7348 23.8946 18.4804 23.7071 18.2929C23.5196 18.1054 23.2652 18 23 18H21V16Z" fill="#111111"/>
</svg>
