<svg width="24" height="24" viewBox="0 0 24 24" fill="none" xmlns="http://www.w3.org/2000/svg">
<path d="M9.875 13.9999C10.1512 13.5217 10.763 13.3576 11.2412 13.6337C11.7191 13.91 11.8834 14.5218 11.6074 14.9999L8.7207 19.9999H21C21.5522 19.9999 21.9999 20.4477 22 20.9999C22 21.5522 21.5523 21.9999 21 21.9999H3C2.44772 21.9999 2 21.5522 2 20.9999C2.00009 20.4477 2.44777 19.9999 3 19.9999H6.41113L9.875 13.9999Z" fill="#111111"/>
<path d="M19.6152 5.24016C22.2706 8.26895 22.8177 12.7988 20.6758 16.5087C20.5122 16.792 20.3361 17.0642 20.1494 17.3251C19.9718 17.5732 19.6904 17.7269 19.3857 17.7421C19.0811 17.7571 18.7852 17.6325 18.584 17.4032L18.3174 17.0995C17.642 16.3289 16.7797 15.7553 15.8184 15.4296C15.9515 15.2102 16.0845 14.9883 16.2148 14.7626C17.8348 11.9568 18.939 9.1581 19.3945 6.88078C19.5083 6.31175 19.5846 5.76051 19.6152 5.24016Z" fill="#111111"/>
<path d="M16.3281 3.36906C16.8804 3.15325 17.129 3.22662 17.2188 3.27824C17.3083 3.33001 17.4967 3.50895 17.5859 4.09563C17.6733 4.67038 17.6358 5.47847 17.4336 6.48918C17.0312 8.50068 16.0244 11.0935 14.4834 13.7626C14.3897 13.9249 14.2944 14.0854 14.1992 14.2441L13.9473 14.6552L12.8955 13.6288C12.2885 13.0366 11.5601 12.5866 10.7627 12.3075L10.417 12.1982L9.00098 11.8007L9.23242 11.3759C9.32214 11.2143 9.41424 11.0526 9.50781 10.8905C11.0489 8.22135 12.7902 6.05248 14.3311 4.69817C15.1054 4.01763 15.7867 3.58076 16.3281 3.36906Z" fill="#111111"/>
<path d="M4.0332 6.89934C6.17522 3.18976 10.371 1.39847 14.3213 2.18352C13.8858 2.47005 13.4466 2.81215 13.0107 3.19524C11.2663 4.72844 9.39532 7.08475 7.77539 9.89055C7.6761 10.0625 7.57868 10.2346 7.4834 10.4062L7.39551 10.5663C6.69218 9.94897 5.84832 9.5091 4.93359 9.28801L4.7002 9.23723L4.30469 9.15813C4.00558 9.09871 3.7499 8.9058 3.61035 8.63469C3.47091 8.36313 3.46178 8.04158 3.58789 7.7636C3.72054 7.47133 3.86962 7.18269 4.0332 6.89934Z" fill="#111111"/>
</svg>
