<svg
  xmlns="http://www.w3.org/2000/svg"
  width="24"
  height="24"
  viewBox="0 0 24 24"
  fill="none"
  stroke="currentColor"
  stroke-width="2"
  stroke-linecap="round"
  stroke-linejoin="round"
>
  <path d="M2.8501 12.0001H21.1501M2.8501 12.0001C2.8501 17.0535 6.94669 21.1501 12.0001 21.1501M2.8501 12.0001C2.8501 6.94669 6.94669 2.8501 12.0001 2.8501M21.1501 12.0001C21.1501 17.0535 17.0535 21.1501 12.0001 21.1501M21.1501 12.0001C21.1501 6.94669 17.0535 2.8501 12.0001 2.8501M12.0001 2.8501C14.2888 5.35569 15.5894 8.60731 15.6601 12.0001C15.5894 15.3929 14.2888 18.6445 12.0001 21.1501M12.0001 2.8501C9.71143 5.35569 8.41078 8.60731 8.3401 12.0001C8.41078 15.3929 9.71143 18.6445 12.0001 21.1501" stroke="currentColor" stroke-width="2"/ fill="none">
</svg>