<svg
  xmlns="http://www.w3.org/2000/svg"
  width="24"
  height="24"
  viewBox="0 0 24 24"
  fill="none"
  stroke="currentColor"
  stroke-width="2"
  stroke-linecap="round"
  stroke-linejoin="round"
>
  <path d="M22 8.8V8.759C22 7.954 22 7.289 21.956 6.749C21.91 6.186 21.811 5.669 21.564 5.184C21.1805 4.43139 20.5686 3.81949 19.816 3.436C19.331 3.189 18.814 3.09 18.252 3.044C17.71 3 17.046 3 16.242 3H7.758C6.953 3 6.288 3 5.748 3.044C5.185 3.09 4.668 3.189 4.183 3.436C3.43039 3.81949 2.81849 4.43139 2.435 5.184C2.188 5.669 2.089 6.186 2.043 6.748C2 7.29 2 7.954 2 8.758V15.242C2 16.047 2 16.712 2.044 17.252C2.09 17.815 2.189 18.332 2.436 18.817C2.81949 19.5696 3.43139 20.1815 4.184 20.565C4.669 20.812 5.186 20.911 5.748 20.957C6.29 21 6.954 21 7.758 21H16.241C17.046 21 17.711 21 18.251 20.956C18.814 20.91 19.331 20.811 19.816 20.564C20.5686 20.1805 21.1805 19.5686 21.564 18.816C21.811 18.331 21.91 17.814 21.956 17.252C22 16.711 22 16.046 22 15.242V8.8ZM5 15.333C5 14.7143 5.2458 14.1208 5.68332 13.6833C6.12084 13.2458 6.71425 13 7.333 13H9.667C10.2857 13 10.8792 13.2458 11.3167 13.6833C11.7542 14.1208 12 14.7143 12 15.333C12 16.253 11.254 17 10.333 17H6.667C5.747 17 5 16.254 5 15.333ZM8.5 8C7.96957 8 7.46086 8.21071 7.08579 8.58579C6.71071 8.96086 6.5 9.46957 6.5 10C6.5 10.5304 6.71071 11.0391 7.08579 11.4142C7.46086 11.7893 7.96957 12 8.5 12C9.03043 12 9.53914 11.7893 9.91421 11.4142C10.2893 11.0391 10.5 10.5304 10.5 10C10.5 9.46957 10.2893 8.96086 9.91421 8.58579C9.53914 8.21071 9.03043 8 8.5 8ZM12 10C12 9.73478 12.1054 9.48043 12.2929 9.29289C12.4804 9.10536 12.7348 9 13 9H18C18.2652 9 18.5196 9.10536 18.7071 9.29289C18.8946 9.48043 19 9.73478 19 10C19 10.2652 18.8946 10.5196 18.7071 10.7071C18.5196 10.8946 18.2652 11 18 11H13C12.7348 11 12.4804 10.8946 12.2929 10.7071C12.1054 10.5196 12 10.2652 12 10ZM15 13C14.7348 13 14.4804 13.1054 14.2929 13.2929C14.1054 13.4804 14 13.7348 14 14C14 14.2652 14.1054 14.5196 14.2929 14.7071C14.4804 14.8946 14.7348 15 15 15H18C18.2652 15 18.5196 14.8946 18.7071 14.7071C18.8946 14.5196 19 14.2652 19 14C19 13.7348 18.8946 13.4804 18.7071 13.2929C18.5196 13.1054 18.2652 13 18 13H15Z" fill="currentColor" fill-rule="evenodd" clip-rule="evenodd"/ stroke="none">
</svg>