<svg
  xmlns="http://www.w3.org/2000/svg"
  width="24"
  height="24"
  viewBox="0 0 24 24"
  fill="none"
  stroke="currentColor"
  stroke-width="2"
  stroke-linecap="round"
  stroke-linejoin="round"
>
  <path d="M6.00034 2C5.20469 2 4.44163 2.31607 3.87902 2.87868C3.31641 3.44129 3.00034 4.20435 3.00034 5C3.00034 5.79565 3.31641 6.55871 3.87902 7.12132C4.44163 7.68393 5.20469 8 6.00034 8C6.79599 8 7.55906 7.68393 8.12167 7.12132C8.68427 6.55871 9.00034 5.79565 9.00034 5C9.00034 4.20435 8.68427 3.44129 8.12167 2.87868C7.55906 2.31607 6.79599 2 6.00034 2ZM5.26034 9C4.25698 9.00005 3.29029 9.37718 2.55196 10.0566C1.81364 10.736 1.35762 11.6681 1.27434 12.668L1.00434 15.918C0.993014 16.0557 1.01035 16.1943 1.05525 16.325C1.10015 16.4556 1.17165 16.5756 1.26524 16.6773C1.35882 16.7789 1.47246 16.8601 1.59898 16.9156C1.7255 16.9712 1.86216 16.9999 2.00034 17H3.06534L3.29734 20.47C3.34146 21.1574 3.64572 21.8023 4.14827 22.2734C4.65081 22.7446 5.31392 23.0067 6.00278 23.0064C6.69165 23.0062 7.35456 22.7436 7.85676 22.2721C8.35895 21.8006 8.66273 21.1555 8.70634 20.468L8.93434 17.022L9.97634 17.047C10.1165 17.0503 10.2558 17.024 10.3852 16.97C10.5146 16.9159 10.6312 16.8353 10.7274 16.7332C10.8236 16.6312 10.8972 16.5101 10.9436 16.3777C10.9899 16.2454 11.0079 16.1048 10.9963 15.965L10.7243 12.67C10.6415 11.6697 10.1857 10.7372 9.44736 10.0573C8.70899 9.3775 7.74202 9.00009 6.73834 9H5.26034ZM14.9963 5C14.9963 4.20435 15.3124 3.44129 15.875 2.87868C16.4376 2.31607 17.2007 2 17.9963 2C18.792 2 19.5551 2.31607 20.1177 2.87868C20.6803 3.44129 20.9963 4.20435 20.9963 5C20.9963 5.79565 20.6803 6.55871 20.1177 7.12132C19.5551 7.68393 18.792 8 17.9963 8C17.2007 8 16.4376 7.68393 15.875 7.12132C15.3124 6.55871 14.9963 5.79565 14.9963 5ZM18.0043 9C17.0962 9.00007 16.2171 9.31974 15.521 9.903C14.8249 10.4863 14.3563 11.2959 14.1973 12.19L13.0163 18.825C12.9908 18.9688 12.997 19.1165 13.0347 19.2577C13.0723 19.3988 13.1404 19.53 13.2342 19.642C13.328 19.754 13.4452 19.8441 13.5776 19.906C13.71 19.9678 13.8543 19.9999 14.0003 20H15.2333L15.5283 21.1C15.6745 21.6459 15.9969 22.1281 16.4455 22.4718C16.8941 22.8154 17.4437 23.0012 18.0088 23.0002C18.5739 22.9991 19.1228 22.8114 19.5701 22.4661C20.0175 22.1208 20.3382 21.6374 20.4823 21.091L20.7703 20H22.0003C22.1464 20 22.2907 19.9681 22.4231 19.9064C22.5555 19.8446 22.6728 19.7547 22.7667 19.6427C22.8606 19.5308 22.9288 19.3997 22.9666 19.2586C23.0044 19.1175 23.0108 18.9698 22.9853 18.826L21.8133 12.194C21.6551 11.2988 21.1866 10.488 20.49 9.90389C19.7935 9.31979 18.9134 8.99976 18.0043 9Z" fill="currentColor" fill-rule="evenodd" clip-rule="evenodd"/ stroke="none">
</svg>