<svg width="24" height="24" viewBox="0 0 24 24" fill="none" xmlns="http://www.w3.org/2000/svg">
<path opacity="0.28" fill-rule="evenodd" clip-rule="evenodd" d="M12.0001 1.8501C6.3941 1.8501 1.8501 6.3941 1.8501 12.0001C1.8501 17.6051 6.3941 22.1501 12.0001 22.1501C17.6061 22.1501 22.1501 17.6051 22.1501 12.0001C22.1501 6.3941 17.6061 1.8501 12.0001 1.8501Z" fill="#111111"/>
<path d="M12.0002 6.00049C12.4809 6.00059 12.8935 6.34263 12.9827 6.81494L13.9055 11.7017L13.9348 11.9243C14.0155 13.0294 13.1393 14.0004 12.0002 14.0005C10.7852 14.0005 9.86955 12.8956 10.095 11.7017L11.0178 6.81494L11.0374 6.72803C11.1579 6.30111 11.5495 6.00049 12.0002 6.00049Z" fill="#111111"/>
</svg>
