<svg
  xmlns="http://www.w3.org/2000/svg"
  width="24"
  height="24"
  viewBox="0 0 24 24"
  fill="none"
  stroke="currentColor"
  stroke-width="2"
  stroke-linecap="round"
  stroke-linejoin="round"
>
  <path d="M12 17.5628C12.35 17.5628 15.5 15.8608 15.5 13.4788C15.5 12.2888 14.45 11.4528 13.4 11.4378C12.875 11.4298 12.35 11.6078 12 12.1178C11.65 11.6078 11.116 11.4378 10.6 11.4378C9.55 11.4378 8.5 12.2878 8.5 13.4788C8.5 15.8608 11.65 17.5628 12 17.5628Z" stroke="currentColor" stroke-width="2"/ fill="none">
  <path d="M4 8H20M4 8V17C4 18.0609 4.42143 19.0783 5.17157 19.8284C5.92172 20.5786 6.93913 21 8 21H16C17.0609 21 18.0783 20.5786 18.8284 19.8284C19.5786 19.0783 20 18.0609 20 17V8M4 8C3.46957 8 2.96086 7.78929 2.58579 7.41421C2.21071 7.03914 2 6.53043 2 6V5C2 4.46957 2.21071 3.96086 2.58579 3.58579C2.96086 3.21071 3.46957 3 4 3H20C20.5304 3 21.0391 3.21071 21.4142 3.58579C21.7893 3.96086 22 4.46957 22 5V6C22 6.53043 21.7893 7.03914 21.4142 7.41421C21.0391 7.78929 20.5304 8 20 8" stroke="currentColor" stroke-width="2"/ fill="none">
</svg>