<svg width="24" height="24" viewBox="0 0 24 24" fill="none" xmlns="http://www.w3.org/2000/svg">
<path opacity="0.28" fill-rule="evenodd" clip-rule="evenodd" d="M12 2C6.47715 2 2 6.47715 2 12C2 12.4787 2.0337 12.95 2.09901 13.4118C2.18426 14.0145 2.24776 14.4636 2.29152 14.7819C2.31341 14.9411 2.32996 15.0647 2.34165 15.157C2.34749 15.2031 2.35187 15.2394 2.35501 15.2672L2.35852 15.2999L2.35941 15.3093L2.35958 15.3112L2.3597 15.3126L2.3707 15.4518C2.3723 15.4723 2.37285 15.4816 2.37285 15.4816C2.37285 15.4816 2.37295 15.4909 2.37277 15.5115L2.37142 15.6512C2.37049 15.7705 2.36081 15.9129 2.33392 16.2895L2.17739 18.4809C2.14908 18.8769 2.12345 19.2353 2.12777 19.5332C2.13237 19.8505 2.1697 20.2024 2.33411 20.5492C2.56638 21.0391 2.96091 21.4336 3.45082 21.6659C3.7976 21.8303 4.14953 21.8676 4.46679 21.8722C4.76476 21.8765 5.12316 21.8509 5.51918 21.8226L7.71053 21.6661C8.08696 21.6392 8.22957 21.6295 8.34881 21.6286L8.48845 21.6272C8.5176 21.627 8.52038 21.6272 8.51836 21.6271C8.51635 21.6271 8.51913 21.627 8.54819 21.6293L8.6874 21.6403L8.69071 21.6406L8.70005 21.6415L8.73278 21.645C8.76059 21.6481 8.7969 21.6525 8.843 21.6584C8.93528 21.67 9.05889 21.6866 9.21813 21.7085C9.53616 21.7522 9.98465 21.8156 10.5866 21.9008L10.5882 21.901C11.05 21.9663 11.5213 22 12 22C17.5228 22 22 17.5228 22 12C22 6.47715 17.5228 2 12 2Z" fill="#111111"/>
<path d="M8 12H8.01M12 12H12.01M16 12H16.01" stroke="#111111" stroke-width="2" stroke-linecap="round" stroke-linejoin="round"/>
</svg>
