<svg width="24" height="24" viewBox="0 0 24 24" fill="none" xmlns="http://www.w3.org/2000/svg">
<path opacity="0.28" d="M10.9562 1C9.5932 0.999992 8.50917 0.999986 7.63458 1.07144C6.73898 1.14462 5.9753 1.29768 5.27606 1.65396C4.14708 2.2292 3.2292 3.14708 2.65396 4.27606C2.29768 4.9753 2.14462 5.73898 2.07144 6.63458C2.06181 6.75252 2.05347 6.87427 2.04626 7H2C1.44772 7 1 7.44772 1 8C1 8.55229 1.44772 9 2 9H2.00106C2 9.30254 2 9.62093 2 9.9562V14.0438C2 14.379 2 14.6975 2.00106 15H2C1.44772 15 1 15.4477 1 16C1 16.5523 1.44772 17 2 17H2.04626C2.05347 17.1257 2.06181 17.2475 2.07144 17.3654C2.14462 18.261 2.29768 19.0247 2.65396 19.7239C3.2292 20.8529 4.14708 21.7708 5.27606 22.346C5.9753 22.7023 6.73898 22.8554 7.63458 22.9286C8.50914 23 9.59313 23 10.9561 23H13.0438C14.4068 23 15.4909 23 16.3654 22.9286C17.261 22.8554 18.0247 22.7023 18.7239 22.346C19.8529 21.7708 20.7708 20.8529 21.346 19.7239C21.7023 19.0247 21.8554 18.261 21.9286 17.3654C22 16.4909 22 15.4069 22 14.0439V9.95622C22 8.59322 22 7.50914 21.9286 6.63458C21.8554 5.73898 21.7023 4.9753 21.346 4.27606C20.7708 3.14709 19.8529 2.2292 18.7239 1.65396C18.0247 1.29768 17.261 1.14462 16.3654 1.07144C15.4908 0.999986 14.4068 0.999992 13.0438 1H10.9562Z" fill="#111111"/>
<path d="M12.0001 5.79688C10.3586 5.79688 9.02789 7.12758 9.02789 8.7691C9.02789 10.4106 10.3586 11.7413 12.0001 11.7413C13.6416 11.7413 14.9723 10.4106 14.9723 8.7691C14.9723 7.12758 13.6416 5.79688 12.0001 5.79688Z" fill="#111111"/>
<path d="M9.77789 12.9169C8.13637 12.9169 6.80566 14.2476 6.80566 15.8891C6.80566 16.917 7.63891 17.7502 8.66678 17.7502H15.3334C16.3613 17.7502 17.1946 16.917 17.1946 15.8891C17.1946 14.2476 15.8638 12.9169 14.2223 12.9169H9.77789Z" fill="#111111"/>
</svg>
