<svg width="24" height="24" viewBox="0 0 24 24" fill="none" xmlns="http://www.w3.org/2000/svg">
<path opacity="0.28" d="M22.3401 8.60527C22.5947 8.44323 22.9286 8.60395 22.9477 8.90516C23.0001 9.72887 23.0001 10.7019 23 11.872L23 12.0439C23 13.4069 23 14.4909 22.9286 15.3655C22.8777 15.9878 22.7883 16.5464 22.6189 17.064C22.4192 17.0221 22.2122 17.0001 22 17.0001C22 15.3432 20.6569 14.0001 19 14.0001C17.3431 14.0001 16 15.3432 16 17.0001C14.3431 17.0001 13 18.3432 13 20.0001C13 20.3507 13.0602 20.6873 13.1707 21H9.95614C8.59314 21 7.50915 21 6.63459 20.9286C5.73899 20.8554 4.97531 20.7024 4.27607 20.3461C3.14709 19.7708 2.22921 18.8529 1.65397 17.724C1.29769 17.0247 1.14463 16.2611 1.07145 15.3655C0.999995 14.4909 1 13.4068 1.00001 12.0438L1 11.8721C0.999937 10.7019 0.99988 9.72889 1.05229 8.90514C1.07145 8.60395 1.40528 8.44324 1.6599 8.60527L7.32767 12.2121C8.72998 13.105 9.64539 13.6879 10.6515 13.92C11.5388 14.1246 12.4612 14.1246 13.3485 13.92C14.3546 13.6879 15.27 13.105 16.6723 12.2121L22.3401 8.60527Z" fill="#111111"/>
<path d="M9.95639 3H14.0439C15.4069 2.99999 16.491 2.99999 17.3656 3.07144C18.2612 3.14462 19.0248 3.29768 19.7241 3.65396C20.7054 4.15397 21.5272 4.91285 22.1032 5.84422C22.2394 6.06441 22.1613 6.3485 21.9429 6.48749L15.7583 10.4231C14.1386 11.4538 13.5282 11.826 12.8991 11.9711C12.3076 12.1076 11.6927 12.1076 11.1011 11.9711C10.472 11.826 9.86162 11.4538 8.242 10.4231L2.05743 6.48751C1.839 6.34851 1.76092 6.06443 1.89709 5.84423C2.47304 4.91286 3.29488 4.15397 4.2762 3.65396C4.97545 3.29768 5.73912 3.14462 6.63472 3.07144C7.50931 2.99999 8.59335 2.99999 9.95639 3Z" fill="#111111"/>
<path d="M20.0001 17C20.0001 16.4477 19.5524 16 19.0001 16C18.4478 16 18.0001 16.4477 18.0001 17V19H16.0001C15.4478 19 15.0001 19.4477 15.0001 20C15.0001 20.5523 15.4478 21 16.0001 21H18.0001V23C18.0001 23.5523 18.4478 24 19.0001 24C19.5524 24 20.0001 23.5523 20.0001 23V21H22.0001C22.5524 21 23.0001 20.5523 23.0001 20C23.0001 19.4477 22.5524 19 22.0001 19H20.0001V17Z" fill="#111111"/>
</svg>
