<svg width="24" height="24" viewBox="0 0 24 24" fill="none" xmlns="http://www.w3.org/2000/svg">
<path opacity="0.28" d="M21.8696 10.8202C21.8142 10.6744 21.7356 10.5369 21.5786 10.2622L19.8429 7.22471C19.1718 6.05024 18.8362 5.463 18.3647 5.03578C17.9475 4.65778 17.4553 4.37211 16.9201 4.19743C16.3152 4 15.6389 4 14.2862 4H9.71431C8.36161 4 7.68526 4 7.08039 4.19743C6.54522 4.37211 6.05294 4.65778 5.63576 5.03578C5.16424 5.463 4.82868 6.05024 4.15755 7.22471L2.42187 10.2622C2.26485 10.5369 2.18633 10.6743 2.13086 10.8202" stroke="#111111" stroke-width="2" stroke-linecap="round" stroke-linejoin="round"/>
<path d="M2.07186 10C1.62185 10 1.22727 10.3006 1.10776 10.7344C1.07775 10.8434 1.05391 10.954 1.03635 11.0658C0.999717 11.2991 0.99986 11.5323 1.00002 11.7964L1.00004 12.0438C1.00003 13.4068 1.00003 14.4908 1.07148 15.3654C1.14466 16.261 1.29772 17.0247 1.654 17.7239C2.22924 18.8529 3.14713 19.7708 4.2761 20.346C4.97535 20.7023 5.73902 20.8554 6.63462 20.9286C7.50922 21 8.59325 21 9.95631 21H14.0438C15.4068 21 16.4909 21 17.3655 20.9286C18.2611 20.8554 19.0247 20.7023 19.724 20.346C20.853 19.7708 21.7708 18.8529 22.3461 17.7239C22.7024 17.0247 22.8554 16.261 22.9286 15.3654C23.0001 14.4909 23 13.4069 23 12.0439L23.0001 11.7964C23.0002 11.5323 23.0004 11.2991 22.9637 11.0658C22.9462 10.954 22.9223 10.8434 22.8923 10.7344C22.7728 10.3006 22.3782 10 21.9282 10H16.9231C15.861 10 15 10.861 15 11.9231C15 13.0701 14.0702 14 12.9231 14H11.077C9.92991 14 9.00004 13.0701 9.00004 11.9231C9.00004 10.861 8.13905 10 7.07697 10H2.07186Z" fill="#111111"/>
</svg>
