<svg width="24" height="24" viewBox="0 0 24 24" fill="none" xmlns="http://www.w3.org/2000/svg">
<path opacity="0.28" fill-rule="evenodd" clip-rule="evenodd" d="M6.2 2H6.16146C5.63434 1.99998 5.17953 1.99997 4.80497 2.03057C4.40963 2.06287 4.01641 2.13419 3.63803 2.32698C3.07354 2.6146 2.6146 3.07354 2.32698 3.63803C2.13419 4.01641 2.06287 4.40963 2.03057 4.80497C1.99997 5.17953 1.99998 5.63426 2 6.16138V6.2V6.8V6.83855C1.99998 7.36566 1.99997 7.82048 2.03057 8.19503C2.06287 8.59038 2.13419 8.98359 2.32698 9.36197C2.6146 9.92646 3.07354 10.3854 3.63803 10.673C4.01641 10.8658 4.40963 10.9371 4.80497 10.9694C5.17954 11 5.63431 11 6.16145 11H6.2H6.8H6.83852C7.36567 11 7.82046 11 8.19503 10.9694C8.59038 10.9371 8.98359 10.8658 9.36197 10.673C9.92646 10.3854 10.3854 9.92646 10.673 9.36197C10.8658 8.98359 10.9371 8.59038 10.9694 8.19503C11 7.82046 11 7.3657 11 6.83855V6.8V6.2V6.16148C11 5.63434 11 5.17954 10.9694 4.80497C10.9371 4.40963 10.8658 4.01641 10.673 3.63803C10.3854 3.07354 9.92646 2.6146 9.36197 2.32698C8.98359 2.13419 8.59038 2.06287 8.19503 2.03057C7.82048 1.99997 7.36574 1.99998 6.83863 2H6.8H6.2ZM6.2 13H6.16146C5.63433 13 5.17954 13 4.80497 13.0306C4.40963 13.0629 4.01641 13.1342 3.63803 13.327C3.07354 13.6146 2.6146 14.0735 2.32698 14.638C2.13419 15.0164 2.06287 15.4096 2.03057 15.805C1.99997 16.1795 1.99998 16.6343 2 17.1614V17.2V17.8V17.8385C1.99998 18.3656 1.99997 18.8205 2.03057 19.195C2.06287 19.5904 2.13419 19.9836 2.32698 20.362C2.6146 20.9265 3.07354 21.3854 3.63803 21.673C4.01641 21.8658 4.40963 21.9371 4.80497 21.9694C5.17954 22 5.63431 22 6.16145 22H6.2H6.8H6.83852C7.36567 22 7.82046 22 8.19503 21.9694C8.59038 21.9371 8.98359 21.8658 9.36197 21.673C9.92646 21.3854 10.3854 20.9265 10.673 20.362C10.8658 19.9836 10.9371 19.5904 10.9694 19.195C11 18.8205 11 18.3657 11 17.8386V17.8V17.2V17.1615C11 16.6343 11 16.1795 10.9694 15.805C10.9371 15.4096 10.8658 15.0164 10.673 14.638C10.3854 14.0735 9.92646 13.6146 9.36197 13.327C8.98359 13.1342 8.59038 13.0629 8.19503 13.0306C7.82047 13 7.36572 13 6.83859 13H6.8H6.2ZM17.1615 2H17.2H17.8H17.8385C18.3656 1.99998 18.8205 1.99997 19.195 2.03057C19.5904 2.06287 19.9836 2.13419 20.362 2.32698C20.9265 2.6146 21.3854 3.07354 21.673 3.63803C21.8658 4.01641 21.9371 4.40963 21.9694 4.80497C22 5.17954 22 5.63431 22 6.16145V6.2V6.8V6.83852C22 7.36567 22 7.82046 21.9694 8.19503C21.9371 8.59038 21.8658 8.98359 21.673 9.36197C21.3854 9.92646 20.9265 10.3854 20.362 10.673C19.9836 10.8658 19.5904 10.9371 19.195 10.9694C18.8205 11 18.3657 11 17.8386 11H17.8H17.2H17.1615C16.6343 11 16.1795 11 15.805 10.9694C15.4096 10.9371 15.0164 10.8658 14.638 10.673C14.0735 10.3854 13.6146 9.92646 13.327 9.36197C13.1342 8.98359 13.0629 8.59038 13.0306 8.19503C13 7.82047 13 7.36572 13 6.83859V6.8V6.2V6.16146C13 5.63433 13 5.17954 13.0306 4.80497C13.0629 4.40963 13.1342 4.01641 13.327 3.63803C13.6146 3.07354 14.0735 2.6146 14.638 2.32698C15.0164 2.13419 15.4096 2.06287 15.805 2.03057C16.1795 1.99997 16.6344 1.99998 17.1615 2Z" fill="#111111"/>
<path d="M7 7H6V6H7V7Z" stroke="#111111" stroke-width="2" stroke-linecap="round" stroke-linejoin="round"/>
<path d="M7 18H6V17H7V18Z" stroke="#111111" stroke-width="2" stroke-linecap="round" stroke-linejoin="round"/>
<path d="M18 7H17V6H18V7Z" stroke="#111111" stroke-width="2" stroke-linecap="round" stroke-linejoin="round"/>
<path d="M21 14H18.5C17.6716 14 17 14.6716 17 15.5V21" stroke="#111111" stroke-width="2" stroke-linecap="round" stroke-linejoin="round"/>
<path d="M14 20V21" stroke="#111111" stroke-width="2" stroke-linecap="round" stroke-linejoin="round"/>
<path opacity="0.28" d="M14 14V17" stroke="#111111" stroke-width="2" stroke-linecap="round" stroke-linejoin="round"/>
<path opacity="0.28" d="M20 20V21" stroke="#111111" stroke-width="2" stroke-linecap="round" stroke-linejoin="round"/>
<path d="M20 17V17.1" stroke="#111111" stroke-width="2" stroke-linecap="round" stroke-linejoin="round"/>
</svg>
