<svg width="24" height="24" viewBox="0 0 24 24" fill="none" xmlns="http://www.w3.org/2000/svg">
<path opacity="0.28" d="M2.13028 6.01488C1.42688 3.62384 3.66757 1.38349 6.06058 2.15175C10.5949 3.60745 14.9224 5.64907 18.9349 8.22541C19.0467 8.29723 19.1784 8.37717 19.3221 8.46438C19.7715 8.73719 20.3382 9.08116 20.7812 9.47017C21.4292 10.0392 21.9998 10.8436 21.9998 12.0003C21.9998 13.1569 21.4292 13.9613 20.7812 14.5304C20.3382 14.9194 19.7715 15.2633 19.3221 15.5361C19.1784 15.6234 19.0467 15.7033 18.9349 15.7751C14.9224 18.3515 10.5949 20.3931 6.06058 21.8488C3.66757 22.617 1.42688 20.3767 2.13028 17.9857L3.38573 13.718C3.51092 13.2925 3.90149 13.0002 4.34508 13.0002H9.83467C10.387 13.0002 10.8347 12.5525 10.8347 12.0002C10.8347 11.448 10.387 11.0002 9.83467 11.0002H4.34507C3.90148 11.0002 3.51091 10.708 3.38572 10.2825L2.13028 6.01488Z" fill="#111111"/>
<path d="M13 17.9747C14.8525 17.0663 16.6539 16.051 18.3948 14.9332C19.526 14.2069 21 13.5581 21 11.9998C21 10.4415 19.526 9.79274 18.3948 9.06644C16.6539 7.9486 14.8525 6.93331 13 6.0249" stroke="#111111" stroke-width="2" stroke-linecap="round" stroke-linejoin="round"/>
</svg>
