<svg
  xmlns="http://www.w3.org/2000/svg"
  width="24"
  height="24"
  viewBox="0 0 24 24"
  fill="none"
  stroke="currentColor"
  stroke-width="2"
  stroke-linecap="round"
  stroke-linejoin="round"
>
  <g opacity="0.28"><path d="M11.7028 9.88077C10.6864 8.95469 9.77778 7.88025 9 6.68396C10.9952 6.8808 13.0048 6.8808 15 6.68396C14.2222 7.88024 13.3136 8.95469 12.2972 9.88077C12.21 9.96022 12.105 9.99994 12 9.99994C11.895 9.99994 11.79 9.96022 11.7028 9.88077Z" fill="currentColor"/><path d="M12.2972 14.1191C13.3136 15.0452 14.2222 16.1196 15 17.3159C13.0048 17.1191 10.9952 17.1191 9 17.3159C9.77778 16.1196 10.6864 15.0452 11.7028 14.1191C11.79 14.0397 11.895 13.9999 12 13.9999C12.105 13.9999 12.21 14.0397 12.2972 14.1191Z" fill="currentColor"/></g>
  <path d="M12 6.83165V3M12 6.83165C10.9988 6.83165 9.99758 6.78245 9 6.68403C9.77778 7.88031 10.6864 8.95475 11.7028 9.88084C11.79 9.96028 11.895 10 12 10C12.105 10 12.21 9.96028 12.2972 9.88084C13.3136 8.95475 14.2222 7.88031 15 6.68402C14.0024 6.78244 13.0012 6.83165 12 6.83165ZM12 17.1683V21M12 17.1683C13.0012 17.1683 14.0024 17.2176 15 17.316C14.2222 16.1197 13.3136 15.0452 12.2972 14.1192C12.21 14.0397 12.105 14 12 14C11.895 14 11.79 14.0397 11.7028 14.1192C10.6864 15.0452 9.77778 16.1197 9 17.316C9.99758 17.2176 10.9988 17.1683 12 17.1683ZM5 12H19" stroke="currentColor" stroke-width="2"/>
</svg>