<svg
  xmlns="http://www.w3.org/2000/svg"
  width="24"
  height="24"
  viewBox="0 0 24 24"
  fill="none"
  stroke="currentColor"
  stroke-width="2"
  stroke-linecap="round"
  stroke-linejoin="round"
>
  <g opacity="0.28"><path d="M14.1192 11.7028C15.0453 10.6864 16.1197 9.77778 17.316 9C17.1192 10.9952 17.1192 13.0048 17.316 15C16.1197 14.2222 15.0453 13.3136 14.1192 12.2972C14.0398 12.21 14.0001 12.105 14.0001 12C14.0001 11.895 14.0398 11.79 14.1192 11.7028Z" fill="currentColor"/><path d="M9.88089 12.2972C8.95481 13.3136 7.88037 14.2222 6.68408 15C6.88092 13.0048 6.88092 10.9952 6.68408 9C7.88037 9.77778 8.95481 10.6864 9.88089 11.7028C9.96034 11.79 10.0001 11.895 10.0001 12C10.0001 12.105 9.96034 12.21 9.88089 12.2972Z" fill="currentColor"/></g>
  <path d="M17.1683 12L21 12M17.1683 12C17.1683 10.9988 17.2176 9.99758 17.316 9C16.1197 9.77778 15.0452 10.6864 14.1192 11.7028C14.0397 11.79 14 11.895 14 12C14 12.105 14.0397 12.21 14.1192 12.2972C15.0452 13.3136 16.1197 14.2222 17.316 15C17.2176 14.0024 17.1683 13.0012 17.1683 12ZM6.83165 12L3 12M6.83165 12C6.83165 13.0012 6.78244 14.0024 6.68403 15C7.88031 14.2222 8.95475 13.3136 9.88084 12.2972C9.96028 12.21 10 12.105 10 12C10 11.895 9.96028 11.79 9.88084 11.7028C8.95475 10.6864 7.88031 9.77778 6.68403 9C6.78244 9.99758 6.83165 10.9988 6.83165 12ZM12 5V19" stroke="currentColor" stroke-width="2"/>
</svg>