<svg
  xmlns="http://www.w3.org/2000/svg"
  width="24"
  height="24"
  viewBox="0 0 24 24"
  fill="none"
  stroke="currentColor"
  stroke-width="2"
  stroke-linecap="round"
  stroke-linejoin="round"
>
  <path d="M14.2266 9.77353L18.2568 14.2286C18.6442 11.6413 18.695 9.0205 18.409 6.43163C18.3844 6.20955 18.2853 6.0117 18.1369 5.86323C17.9884 5.71476 17.7905 5.61568 17.5685 5.59114C14.9796 5.30505 12.3588 5.35593 9.7715 5.74331L14.2266 9.77353ZM14.2266 9.77353L5.40894 18.5912" stroke="currentColor" stroke-width="2"/>
  <path d="M18.4089 6.43163C18.695 9.0205 18.6441 11.6413 18.2568 14.2286L14.2265 9.77353L9.77148 5.74331C12.3588 5.35593 14.9796 5.30505 17.5684 5.59114C17.7905 5.61568 17.9884 5.71476 18.1368 5.86323C18.2853 6.0117 18.3844 6.20955 18.4089 6.43163Z" fill="currentColor" opacity="0.28"/>
</svg>