<svg
  xmlns="http://www.w3.org/2000/svg"
  width="24"
  height="24"
  viewBox="0 0 24 24"
  fill="none"
  stroke="currentColor"
  stroke-width="2"
  stroke-linecap="round"
  stroke-linejoin="round"
>
  <path d="M15.1414 4C16.8942 5.2963 18.4685 6.81065 19.8254 8.50473C19.9418 8.65006 20 8.82503 20 9C20 9.17497 19.9418 9.34994 19.8254 9.49526C18.4685 11.1893 16.8942 12.7037 15.1414 14C15.3019 13.0651 15.3822 12.5977 15.4437 12.1304C15.5803 11.0914 15.6487 10.0457 15.6487 9C15.6487 7.95428 15.5803 6.90857 15.4437 5.86956C15.3822 5.40233 15.3019 4.93489 15.1414 4Z" fill="currentColor" opacity="0.28"/>
  <path d="M15.6487 9L12 9C9.19974 9 7.79961 9 6.73005 9.54497C5.78924 10.0243 5.02433 10.7892 4.54497 11.73C4 12.7996 4 14.1997 4 17L4 20M15.6487 9C15.6487 7.95428 15.5803 6.90857 15.4436 5.86957C15.3822 5.40233 15.3019 4.93489 15.1413 4C16.8942 5.2963 18.4685 6.81065 19.8254 8.50473C19.9418 8.65006 20 8.82503 20 9C20 9.17497 19.9418 9.34994 19.8254 9.49527C18.4685 11.1893 16.8942 12.7037 15.1413 14C15.3019 13.0651 15.3822 12.5977 15.4436 12.1304C15.5803 11.0914 15.6487 10.0457 15.6487 9Z" stroke="currentColor" stroke-width="2"/>
</svg>