<svg
  xmlns="http://www.w3.org/2000/svg"
  width="24"
  height="24"
  viewBox="0 0 24 24"
  fill="none"
  stroke="currentColor"
  stroke-width="2"
  stroke-linecap="round"
  stroke-linejoin="round"
>
  <path d="M14.2266 14.2266L18.2568 9.7715C18.6442 12.3588 18.695 14.9796 18.409 17.5685C18.3844 17.7905 18.2853 17.9884 18.1369 18.1369C17.9884 18.2853 17.7905 18.3844 17.5685 18.4089C14.9796 18.695 12.3588 18.6442 9.7715 18.2568L14.2266 14.2266ZM14.2266 14.2266L5.40894 5.40894" stroke="currentColor" stroke-width="2"/>
  <path d="M18.4089 17.5684C18.695 14.9796 18.6441 12.3588 18.2568 9.77148L14.2265 14.2265L9.77148 18.2568C12.3588 18.6441 14.9796 18.695 17.5684 18.4089C17.7905 18.3844 17.9884 18.2853 18.1368 18.1368C18.2853 17.9884 18.3844 17.7905 18.4089 17.5684Z" fill="currentColor" opacity="0.28"/>
</svg>