<svg
  xmlns="http://www.w3.org/2000/svg"
  width="24"
  height="24"
  viewBox="0 0 24 24"
  fill="none"
  stroke="currentColor"
  stroke-width="2"
  stroke-linecap="round"
  stroke-linejoin="round"
>
  <path d="M20.7589 11.3066C18.8592 8.93491 16.6551 6.81482 14.2012 5C14.3554 6.33024 14.4656 7.6643 14.5316 9C6.99658 9 2.99658 12 2.99658 19C5.99658 15 9.99658 15 14.5316 15C14.4656 16.3357 14.3554 17.6698 14.2012 19C16.6551 17.1852 18.8592 15.0651 20.7589 12.6934C20.9218 12.4899 21.0033 12.245 21.0033 12C21.0033 11.755 20.9218 11.5101 20.7589 11.3066Z" stroke="currentColor" stroke-width="2"/>
  <path d="M20.7591 11.307C18.8549 8.9304 16.6509 6.81044 14.2021 5C14.356 6.32935 14.466 7.6634 14.5321 9C6.99707 9 2.99707 12 2.99707 19C5.99707 15 9.99707 15 14.5321 15C14.4661 16.3366 14.3561 17.6707 14.2021 19C16.6509 17.1896 18.8549 15.0696 20.7591 12.693C20.9168 12.4965 21.0028 12.252 21.0028 12C21.0028 11.748 20.9168 11.5035 20.7591 11.307Z" fill="currentColor" opacity="0.28"/>
</svg>