<svg
  xmlns="http://www.w3.org/2000/svg"
  width="24"
  height="24"
  viewBox="0 0 24 24"
  fill="none"
  stroke="currentColor"
  stroke-width="2"
  stroke-linecap="round"
  stroke-linejoin="round"
>
  <path d="M11.9999 2.84985C6.94645 2.84985 2.84985 6.94645 2.84985 11.9999C2.84985 17.0533 6.94645 21.1499 11.9999 21.1499C17.0533 21.1499 21.1499 17.0533 21.1499 11.9999C21.1499 6.94645 17.0533 2.84985 11.9999 2.84985Z" fill="currentColor" opacity="0.28"/>
  <path d="M15.9999 12.0511C14.9628 13.4757 13.7514 14.7551 12.3961 15.8579C12.2798 15.9525 12.1399 15.9998 11.9999 15.9998M7.99989 12.0511C9.03693 13.4757 10.2484 14.7551 11.6037 15.8579C11.7199 15.9525 11.8599 15.9998 11.9999 15.9998M11.9999 15.9998L11.9999 7.99977M2.84985 11.9999C2.84985 6.94645 6.94645 2.84985 11.9999 2.84985C17.0533 2.84985 21.1499 6.94645 21.1499 11.9999C21.1499 17.0533 17.0533 21.1499 11.9999 21.1499C6.94645 21.1499 2.84985 17.0533 2.84985 11.9999Z" stroke="currentColor" stroke-width="2"/>
</svg>