<svg
  xmlns="http://www.w3.org/2000/svg"
  width="24"
  height="24"
  viewBox="0 0 24 24"
  fill="none"
  stroke="currentColor"
  stroke-width="2"
  stroke-linecap="round"
  stroke-linejoin="round"
>
  <g opacity="0.28"><path d="M18.8942 12.2979C17.7713 13.6929 16.4619 14.9379 15 16C15.1997 13.3371 15.1997 10.6629 15 8C16.4619 9.06206 17.7713 10.3071 18.8942 11.7021C19.0353 11.8774 19.0353 12.1226 18.8942 12.2979Z" fill="currentColor"/><path d="M5.1058 11.7021C6.22872 10.3071 7.53812 9.06206 9 8C8.80028 10.6629 8.80028 13.3371 9 16C7.53812 14.9379 6.22872 13.6929 5.1058 12.2979C4.96473 12.1226 4.96473 11.8774 5.1058 11.7021Z" fill="currentColor"/></g>
  <path d="M18.8942 12.2979C17.7713 13.6929 16.4619 14.9379 15 16C15.1997 13.3371 15.1997 10.6629 15 8C16.4619 9.06206 17.7713 10.3071 18.8942 11.7021C19.0353 11.8774 19.0353 12.1226 18.8942 12.2979Z" stroke="currentColor" stroke-width="2"/>
  <path d="M5.1058 11.7021C6.22872 10.3071 7.53812 9.06206 9 8C8.80028 10.6629 8.80028 13.3371 9 16C7.53812 14.9379 6.22872 13.6929 5.1058 12.2979C4.96473 12.1226 4.96473 11.8774 5.1058 11.7021Z" stroke="currentColor" stroke-width="2"/>
</svg>