<svg
  xmlns="http://www.w3.org/2000/svg"
  width="24"
  height="24"
  viewBox="0 0 24 24"
  fill="none"
  stroke="currentColor"
  stroke-width="2"
  stroke-linecap="round"
  stroke-linejoin="round"
>
  <g opacity="0.28"><path d="M12.2979 5.1058C13.6929 6.22872 14.9379 7.53812 16 9C13.3371 8.80028 10.6629 8.80028 8 9C9.06206 7.53812 10.3071 6.22872 11.7021 5.1058C11.8774 4.96473 12.1226 4.96473 12.2979 5.1058Z" fill="currentColor"/><path d="M11.7021 18.8942C10.3071 17.7713 9.06206 16.4619 8 15C10.6629 15.1997 13.3371 15.1997 16 15C14.9379 16.4619 13.6929 17.7713 12.2979 18.8942C12.1226 19.0353 11.8774 19.0353 11.7021 18.8942Z" fill="currentColor"/></g>
  <path d="M11.7021 18.8942C10.3071 17.7713 9.06206 16.4619 8 15C10.6629 15.1997 13.3371 15.1997 16 15C14.9379 16.4619 13.6929 17.7713 12.2979 18.8942C12.1226 19.0353 11.8774 19.0353 11.7021 18.8942Z" stroke="currentColor" stroke-width="2"/>
  <path d="M12.2979 5.1058C13.6929 6.22872 14.9379 7.53812 16 9C13.3371 8.80028 10.6629 8.80028 8 9C9.06206 7.53812 10.3071 6.22872 11.7021 5.1058C11.8774 4.96473 12.1226 4.96473 12.2979 5.1058Z" stroke="currentColor" stroke-width="2"/>
</svg>