<svg
  xmlns="http://www.w3.org/2000/svg"
  width="24"
  height="24"
  viewBox="0 0 24 24"
  fill="none"
  stroke="currentColor"
  stroke-width="2"
  stroke-linecap="round"
  stroke-linejoin="round"
>
  <path d="M2 9L8.8787 15.8787C10.0503 17.0503 11.9497 17.0503 13.1213 15.8787L18.0681 10.9319M18.0681 10.9319C17.4452 10.3091 16.7881 9.72052 16.0995 9.16909L15 8.28858C16.7786 7.99076 18.5759 7.92321 20.3472 8.08707C20.4991 8.10113 20.6335 8.16659 20.7335 8.26652C20.8334 8.36646 20.8989 8.50086 20.9129 8.65281C21.0768 10.4241 21.0092 12.2214 20.7114 14L19.8309 12.9005C19.2795 12.2119 18.6909 11.5548 18.0681 10.9319Z" stroke="currentColor" stroke-width="2"/>
  <path d="M20.3472 8.08707C18.5759 7.92321 16.7786 7.99076 15 8.28858L16.0995 9.16909C17.4767 10.272 18.7281 11.5233 19.8309 12.9005L20.7114 14C21.0092 12.2214 21.0768 10.4241 20.9129 8.65281C20.8989 8.50086 20.8334 8.36646 20.7335 8.26652C20.6335 8.16659 20.4991 8.10113 20.3472 8.08707Z" fill="currentColor" opacity="0.28"/>
</svg>