<svg
  xmlns="http://www.w3.org/2000/svg"
  width="24"
  height="24"
  viewBox="0 0 24 24"
  fill="none"
  stroke="currentColor"
  stroke-width="2"
  stroke-linecap="round"
  stroke-linejoin="round"
>
  <path d="M22 9L15.1213 15.8787C13.9497 17.0503 12.0503 17.0503 10.8787 15.8787L5.93192 10.9319M5.93192 10.9319C6.55477 10.3091 7.2119 9.72052 7.90049 9.16909L9 8.28858C7.22143 7.99076 5.42407 7.92321 3.65281 8.08707C3.50086 8.10113 3.36646 8.16659 3.26652 8.26652C3.16659 8.36646 3.10113 8.50086 3.08707 8.65281C2.92321 10.4241 2.99076 12.2214 3.28858 14L4.16909 12.9005C4.72052 12.2119 5.30908 11.5548 5.93192 10.9319Z" stroke="currentColor" stroke-width="2"/>
  <path d="M3.65281 8.08707C5.42407 7.92321 7.22143 7.99076 9 8.28858L7.90049 9.16909C6.52332 10.272 5.27195 11.5233 4.16909 12.9005L3.28858 14C2.99076 12.2214 2.92321 10.4241 3.08707 8.65281C3.10113 8.50086 3.16659 8.36646 3.26652 8.26652C3.36646 8.16659 3.50086 8.10113 3.65281 8.08707Z" fill="currentColor" opacity="0.28"/>
</svg>