<svg
  xmlns="http://www.w3.org/2000/svg"
  width="24"
  height="24"
  viewBox="0 0 24 24"
  fill="none"
  stroke="currentColor"
  stroke-width="2"
  stroke-linecap="round"
  stroke-linejoin="round"
>
  <g opacity="0.28"><path d="M11.7021 16.8942C10.3071 15.7713 9.06206 14.4619 8 13L10.205 13.1654C11.4 13.255 12.6 13.255 13.795 13.1654L16 13C14.9379 14.4619 13.6929 15.7713 12.2979 16.8942C12.1226 17.0353 11.8774 17.0353 11.7021 16.8942Z" fill="currentColor"/><path d="M11.7021 10.8942C10.3071 9.77128 9.06206 8.46188 8 7L10.205 7.16538C11.4 7.255 12.6 7.255 13.795 7.16538L16 7C14.9379 8.46188 13.6929 9.77128 12.2979 10.8942C12.1226 11.0353 11.8774 11.0353 11.7021 10.8942Z" fill="currentColor"/></g>
  <path d="M11.7021 10.8942C10.3071 9.77128 9.06206 8.46188 8 7L10.205 7.16538C11.4 7.255 12.6 7.255 13.795 7.16538L16 7C14.9379 8.46188 13.6929 9.77128 12.2979 10.8942C12.1226 11.0353 11.8774 11.0353 11.7021 10.8942Z" stroke="currentColor" stroke-width="2"/>
  <path d="M11.7021 16.8942C10.3071 15.7713 9.06206 14.4619 8 13L10.205 13.1654C11.4 13.255 12.6 13.255 13.795 13.1654L16 13C14.9379 14.4619 13.6929 15.7713 12.2979 16.8942C12.1226 17.0353 11.8774 17.0353 11.7021 16.8942Z" stroke="currentColor" stroke-width="2"/>
</svg>