<svg
  xmlns="http://www.w3.org/2000/svg"
  width="24"
  height="24"
  viewBox="0 0 24 24"
  fill="none"
  stroke="currentColor"
  stroke-width="2"
  stroke-linecap="round"
  stroke-linejoin="round"
>
  <g opacity="0.28"><path d="M3.07256 3.54401C2.93601 5.02006 2.9923 6.51786 3.24048 8L4.03722 7.04751C4.9495 5.95689 5.95689 4.9495 7.04751 4.03722L8 3.24048C6.51786 2.9923 5.02006 2.93601 3.54401 3.07256C3.41739 3.08427 3.30538 3.13883 3.2221 3.2221C3.13883 3.30538 3.08427 3.41739 3.07256 3.54401Z" fill="currentColor"/><path d="M20.7595 8C21.0077 6.51786 21.064 5.02006 20.9274 3.54401C20.9157 3.41739 20.8612 3.30538 20.7779 3.2221C20.6946 3.13883 20.5826 3.08427 20.456 3.07256C18.9799 2.93601 17.4821 2.9923 16 3.24048L16.9525 4.03722C18.0431 4.9495 19.0505 5.95689 19.9628 7.04751L20.7595 8Z" fill="currentColor"/><path d="M16 20.7595C17.4821 21.0077 18.9799 21.064 20.456 20.9274C20.5826 20.9157 20.6946 20.8612 20.7779 20.7779C20.8612 20.6946 20.9157 20.5826 20.9274 20.456C21.064 18.9799 21.0077 17.4821 20.7595 16L19.9628 16.9525C19.0505 18.0431 18.0431 19.0505 16.9525 19.9628L16 20.7595Z" fill="currentColor"/><path d="M3.24048 16C2.9923 17.4821 2.93601 18.9799 3.07256 20.456C3.08427 20.5826 3.13883 20.6946 3.2221 20.7779C3.30538 20.8612 3.41739 20.9157 3.54401 20.9274C5.02006 21.064 6.51786 21.0077 8 20.7595L7.04751 19.9628C5.95689 19.0505 4.9495 18.0431 4.03722 16.9525L3.24048 16Z" fill="currentColor"/></g>
  <path d="M15 15L18.5245 18.5245M9 9L5.47549 5.47549M9 15L5.47549 18.5245M15 9L18.5245 5.47549M18.5245 18.5245C18.0223 19.0267 17.4978 19.5066 16.9525 19.9628L16 20.7595C17.4821 21.0077 18.9799 21.064 20.456 20.9274C20.5826 20.9157 20.6946 20.8612 20.7779 20.7779C20.8612 20.6946 20.9157 20.5826 20.9274 20.456C21.064 18.9799 21.0077 17.4821 20.7595 16L19.9628 16.9525C19.5066 17.4978 19.0267 18.0223 18.5245 18.5245ZM18.5245 5.47549C19.0267 5.9777 19.5066 6.5022 19.9628 7.04751L20.7595 8C21.0077 6.51786 21.064 5.02006 20.9274 3.54401C20.9157 3.41739 20.8612 3.30538 20.7779 3.2221C20.6946 3.13883 20.5826 3.08427 20.456 3.07256C18.9799 2.93601 17.4821 2.9923 16 3.24048L16.9525 4.03722C17.4978 4.49336 18.0223 4.97328 18.5245 5.47549ZM5.47549 5.47549C4.97328 5.9777 4.49336 6.5022 4.03722 7.04751L3.24048 8C2.9923 6.51786 2.93601 5.02006 3.07256 3.54401C3.08427 3.41739 3.13883 3.30538 3.2221 3.2221C3.30538 3.13883 3.41739 3.08427 3.54401 3.07256C5.02006 2.93601 6.51786 2.9923 8 3.24048L7.04751 4.03722C6.5022 4.49336 5.9777 4.97328 5.47549 5.47549ZM5.47549 18.5245C4.97328 18.0223 4.49336 17.4978 4.03722 16.9525L3.24048 16C2.9923 17.4821 2.93601 18.9799 3.07256 20.456C3.08427 20.5826 3.13883 20.6946 3.2221 20.7779C3.30538 20.8612 3.41739 20.9157 3.54401 20.9274C5.02006 21.064 6.51786 21.0077 8 20.7595L7.04751 19.9628C6.5022 19.5066 5.9777 19.0267 5.47549 18.5245Z" stroke="currentColor" stroke-width="2"/>
</svg>