<svg
  xmlns="http://www.w3.org/2000/svg"
  width="24"
  height="24"
  viewBox="0 0 24 24"
  fill="none"
  stroke="currentColor"
  stroke-width="2"
  stroke-linecap="round"
  stroke-linejoin="round"
>
  <g opacity="0.28"><path d="M19.9164 4.64657C20.0787 6.40091 20.0118 8.1811 19.7169 9.94268L18.2887 8.28018C17.4993 7.36124 16.6414 6.50338 15.7225 5.71397L14.06 4.28582C15.8216 3.99085 17.6018 3.92395 19.3561 4.08624C19.5066 4.10016 19.6397 4.165 19.7387 4.26398C19.8377 4.36296 19.9025 4.49608 19.9164 4.64657Z" fill="currentColor"/><path d="M4.08624 19.3534C3.92395 17.5991 3.99085 15.8189 4.28582 14.0573L5.71397 15.7198C6.50338 16.6388 7.36124 17.4966 8.28018 18.286L9.94268 19.7142C8.1811 20.0092 6.40091 20.0761 4.64657 19.9138C4.49608 19.8998 4.36296 19.835 4.26398 19.736C4.165 19.637 4.10016 19.5039 4.08624 19.3534Z" fill="currentColor"/></g>
  <path d="M6.94851 17.0515C6.5205 16.6235 6.10868 16.1793 5.71397 15.7198L4.28582 14.0573C3.99085 15.8189 3.92395 17.5991 4.08624 19.3534C4.10016 19.5039 4.165 19.637 4.26398 19.736C4.36296 19.835 4.49608 19.8998 4.64657 19.9138C6.40091 20.0761 8.1811 20.0092 9.94268 19.7142L8.28018 18.286C7.82071 17.8913 7.37651 17.4795 6.94851 17.0515ZM6.94851 17.0515L17.0528 6.94716M17.0528 6.94716C17.4813 7.37558 17.8936 7.82023 18.2887 8.28018L19.7169 9.94268C20.0118 8.1811 20.0787 6.40091 19.9164 4.64657C19.9025 4.49608 19.8377 4.36296 19.7387 4.26398C19.6397 4.165 19.5066 4.10016 19.3561 4.08624C17.6018 3.92395 15.8216 3.99085 14.06 4.28582L15.7225 5.71397C16.1815 6.10826 16.6252 6.51963 17.0528 6.94716Z" stroke="currentColor" stroke-width="2"/>
</svg>