<svg
  xmlns="http://www.w3.org/2000/svg"
  width="24"
  height="24"
  viewBox="0 0 24 24"
  fill="none"
  stroke="currentColor"
  stroke-width="2"
  stroke-linecap="round"
  stroke-linejoin="round"
>
  <path d="M11.47 13.09C11.628 14.8487 11.5561 16.6339 11.2555 18.4011L8.6421 15.3576L5.59863 12.7442C7.36581 12.4437 9.15104 12.3717 10.9097 12.5297C11.0606 12.5432 11.1939 12.6079 11.2929 12.7069C11.3918 12.8058 11.4565 12.9392 11.47 13.09Z" fill="currentColor" opacity="0.28"/>
  <path d="M11.47 13.09C11.628 14.8487 11.5561 16.6339 11.2555 18.4011L8.6421 15.3576L5.59863 12.7442C7.36581 12.4437 9.15104 12.3717 10.9097 12.5297C11.0606 12.5432 11.1939 12.6079 11.2929 12.7069C11.3918 12.8058 11.4565 12.9392 11.47 13.09Z" stroke="currentColor" stroke-width="2"/>
  <path d="M12.5299 10.9097C12.372 9.15103 12.4439 7.36581 12.7445 5.59863L14.1692 7.25777C14.9605 8.17932 15.8207 9.03948 16.7422 9.83081L18.4013 11.2555C16.6342 11.5561 14.8489 11.628 13.0903 11.47C12.9394 11.4565 12.8061 11.3918 12.7071 11.2929C12.6081 11.1939 12.5435 11.0606 12.5299 10.9097Z" fill="currentColor" opacity="0.28"/>
  <path d="M12.5299 10.9097C12.372 9.15103 12.4439 7.36581 12.7445 5.59863L14.1692 7.25777C14.9605 8.17932 15.8207 9.03948 16.7422 9.83081L18.4013 11.2555C16.6342 11.5561 14.8489 11.628 13.0903 11.47C12.9394 11.4565 12.8061 11.3918 12.7071 11.2929C12.6081 11.1939 12.5435 11.0606 12.5299 10.9097Z" stroke="currentColor" stroke-width="2"/>
  <path d="M15.573 8.42702L20 4M8.42716 15.5728L4 20" stroke="currentColor" stroke-width="2"/>
</svg>