<svg
  xmlns="http://www.w3.org/2000/svg"
  width="24"
  height="24"
  viewBox="0 0 24 24"
  fill="none"
  stroke="currentColor"
  stroke-width="2"
  stroke-linecap="round"
  stroke-linejoin="round"
>
  <g opacity="0.28"><path d="M18 2C19.0964 2.79655 20.0785 3.73031 20.9207 4.77659C21.0264 4.90803 21.0264 5.09197 20.9207 5.22341C20.0785 6.26969 19.0964 7.20345 18 8L18.0612 7.38809C18.22 5.79999 18.22 4.20001 18.0612 2.61191L18 2Z" fill="currentColor"/><path d="M6 16C4.90359 16.7965 3.92154 17.7303 3.07935 18.7766C2.97355 18.908 2.97355 19.092 3.07935 19.2234C3.92154 20.2697 4.90359 21.2035 6 22L5.93881 21.3881C5.78 19.8 5.78 18.2 5.93881 16.6119L6 16Z" fill="currentColor"/></g>
  <path d="M18.1803 5H11C8.19974 5 6.79961 5 5.73005 5.54497C4.78924 6.02433 4.02433 6.78924 3.54497 7.73005C3.06911 8.66397 3.00876 9.84993 3.00111 12M18.1803 5C18.1803 4.20298 18.1406 3.40596 18.0612 2.61191L18 2C19.0964 2.79655 20.0785 3.73031 20.9207 4.77659C20.9736 4.84231 21 4.92116 21 5C21 5.07884 20.9736 5.15769 20.9207 5.22341C20.0785 6.26969 19.0964 7.20345 18 8L18.0612 7.38809C18.1406 6.59404 18.1803 5.79702 18.1803 5ZM5.8197 19H13C15.8003 19 17.2004 19 18.27 18.455C19.2108 17.9757 19.9757 17.2108 20.455 16.27C20.9309 15.336 20.9912 14.1501 20.9989 12M5.8197 19C5.8197 18.203 5.8594 17.406 5.93881 16.6119L6 16C4.90359 16.7965 3.92154 17.7303 3.07935 18.7766C3.02645 18.8423 3 18.9212 3 19C3 19.0788 3.02645 19.1577 3.07935 19.2234C3.92154 20.2697 4.90359 21.2035 6 22L5.93881 21.3881C5.8594 20.594 5.8197 19.797 5.8197 19Z" stroke="currentColor" stroke-width="2"/>
</svg>