<svg
  xmlns="http://www.w3.org/2000/svg"
  width="24"
  height="24"
  viewBox="0 0 24 24"
  fill="none"
  stroke="currentColor"
  stroke-width="2"
  stroke-linecap="round"
  stroke-linejoin="round"
>
  <g opacity="0.28"><path d="M18.1917 10C19.1786 9.25975 20.07 8.40101 20.8458 7.44357C20.9507 7.31408 21.0032 7.15704 21.0032 7C21.0032 6.84296 20.9507 6.68592 20.8458 6.55643C20.07 5.59899 19.1786 4.74024 18.1917 4L18.2553 4.64532C18.4097 6.21131 18.4097 7.78869 18.2553 9.35468L18.1917 10Z" fill="currentColor"/><path d="M18.1917 20C19.1786 19.2598 20.07 18.401 20.8458 17.4436C20.9507 17.3141 21.0032 17.157 21.0032 17C21.0032 16.843 20.9507 16.6859 20.8458 16.5564C20.07 15.599 19.1786 14.7402 18.1917 14L18.2553 14.6453C18.4097 16.2113 18.4097 17.7887 18.2553 19.3547L18.1917 20Z" fill="currentColor"/></g>
  <path d="M2 17H3.87607C5.83395 17 7.66869 16.0447 8.79146 14.4408L12.2085 9.55923C13.3313 7.95527 15.166 7 17.1239 7H18.3711M2 7H3.87607C5.35342 7 6.76066 7.54391 7.84481 8.5M13.3162 15.637C14.3768 16.5079 15.7187 17 17.1239 17H18.3711M18.3711 17C18.3711 17.7858 18.3325 18.5717 18.2553 19.3547L18.1917 20C19.1787 19.2598 20.07 18.401 20.8459 17.4436C20.9508 17.3141 21.0032 17.157 21.0032 17C21.0032 16.843 20.9508 16.6859 20.8459 16.5564C20.07 15.599 19.1787 14.7402 18.1917 14L18.2553 14.6453C18.3325 15.4283 18.3711 16.2142 18.3711 17ZM18.3711 7C18.3711 7.78584 18.3325 8.57168 18.2553 9.35468L18.1917 10C19.1787 9.25975 20.07 8.40101 20.8459 7.44357C20.9508 7.31408 21.0032 7.15704 21.0032 7C21.0032 6.84296 20.9508 6.68592 20.8459 6.55643C20.07 5.59899 19.1787 4.74024 18.1917 4L18.2553 4.64532C18.3325 5.42831 18.3711 6.21416 18.3711 7Z" stroke="currentColor" stroke-width="2"/>
</svg>