<svg width="24" height="24" viewBox="0 0 24 24" fill="none" xmlns="http://www.w3.org/2000/svg">
<path opacity="0.28" d="M20 10C20 5.58172 16.4183 2 12 2H8C5.79086 2 4 3.79086 4 6V10" stroke="#111111" stroke-width="2" stroke-linecap="round" stroke-linejoin="round"/>
<path d="M21.2496 15C20.7987 14.3814 20.1812 14 19.5 14C18.1193 14 17 15.567 17 17.5C17 19.433 18.1193 21 19.5 21C20.1812 21 20.7987 20.6186 21.2496 20V18H20.5M7 14H4.75C3.7835 14 3 14.7835 3 15.75C3 16.7165 3.7835 17.5 4.75 17.5H6.25C7.2165 17.5 8 18.2835 8 19.25C8 20.2165 7.2165 21 6.25 21H3M10 14L11.5508 21H13.1016L14.6523 14M20 10C20 5.58172 16.4183 2 12 2H11C12.6569 2 14 3.34315 14 5V5.6C14 5.9716 14 6.1574 14.0246 6.31287C14.1602 7.16865 14.8313 7.83983 15.6871 7.97538C15.8426 8 16.0284 8 16.4 8L17 8C18.3062 8 19.4175 8.83481 19.8293 10H20Z" stroke="#111111" stroke-width="2" stroke-linecap="round" stroke-linejoin="round"/>
</svg>
