<svg
  xmlns="http://www.w3.org/2000/svg"
  width="24"
  height="24"
  viewBox="0 0 24 24"
  fill="none"
  stroke="currentColor"
  stroke-width="2"
  stroke-linecap="round"
  stroke-linejoin="round"
>
  <path d="M12.4683 10C12.4684 9.84554 12.5043 9.6932 12.5733 9.55501C13.1247 8.44392 14.0355 7.55185 15.1578 7.02363C16.2801 6.49542 17.548 6.36207 18.7557 6.64526C19.9633 6.92844 21.0397 7.61152 21.8102 8.58358C22.5807 9.55565 23 10.7596 23 12C23 13.2404 22.5807 14.4444 21.8102 15.4164C21.0397 16.3885 19.9633 17.0716 18.7557 17.3548C17.548 17.6379 16.2801 17.5046 15.1578 16.9764C14.0355 16.4482 13.1247 15.5561 12.5733 14.445C12.5047 14.3067 12.4691 14.1544 12.4693 14H10.0013L8.85534 12.854C8.8089 12.8074 8.75372 12.7705 8.69297 12.7453C8.63223 12.7201 8.56711 12.7071 8.50134 12.7071C8.43557 12.7071 8.37045 12.7201 8.30971 12.7453C8.24896 12.7705 8.19379 12.8074 8.14734 12.854L7.00134 14H4.00134L2.00134 12L4.00134 10H12.4683Z" fill="currentColor" opacity="0.28" fill-rule="evenodd" clip-rule="evenodd"/>
  <path d="M13.001 10H4.00098L2.00098 12L4.00098 14H7.00098L8.14698 12.854C8.19342 12.8074 8.2486 12.7705 8.30934 12.7453C8.37009 12.7201 8.43521 12.7071 8.50098 12.7071C8.56674 12.7071 8.63186 12.7201 8.69261 12.7453C8.75335 12.7705 8.80853 12.8074 8.85498 12.854L10.001 14H13.001" stroke="currentColor" stroke-width="2"/>
  <path d="M18.501 13V11C18.6562 11.1164 18.7822 11.2674 18.869 11.441C18.9558 11.6146 19.001 11.8059 19.001 12C19.001 12.1941 18.9558 12.3854 18.869 12.559C18.7822 12.7326 18.6562 12.8836 18.501 13Z" stroke="currentColor" stroke-width="2.2"/>
</svg>