<svg
  xmlns="http://www.w3.org/2000/svg"
  width="24"
  height="24"
  viewBox="0 0 24 24"
  fill="none"
  stroke="currentColor"
  stroke-width="2"
  stroke-linecap="round"
  stroke-linejoin="round"
>
  <path d="M12 10H21L23 12L21 14H18L16.854 12.854C16.8076 12.8074 16.7524 12.7705 16.6916 12.7453C16.6309 12.7201 16.5658 12.7071 16.5 12.7071C16.4342 12.7071 16.3691 12.7201 16.3084 12.7453C16.2476 12.7705 16.1924 12.8074 16.146 12.854L15 14H12" stroke="currentColor" stroke-width="2"/>
  <path d="M12.5326 10C12.5326 9.84554 12.4966 9.6932 12.4276 9.55501C11.8762 8.44392 10.9654 7.55185 9.84314 7.02363C8.72084 6.49542 7.45294 6.36207 6.24532 6.64526C5.03769 6.92844 3.96124 7.61152 3.19075 8.58358C2.42026 9.55565 2.00098 10.7596 2.00098 12C2.00098 13.2404 2.42026 14.4444 3.19075 15.4164C3.96124 16.3885 5.03769 17.0716 6.24532 17.3548C7.45294 17.6379 8.72084 17.5046 9.84314 16.9764C10.9654 16.4482 11.8762 15.5561 12.4276 14.445C12.4963 14.3067 12.5319 14.1544 12.5316 14H14.9996L16.1456 12.854C16.1921 12.8074 16.2473 12.7705 16.308 12.7453C16.3687 12.7201 16.4339 12.7071 16.4996 12.7071C16.5654 12.7071 16.6305 12.7201 16.6913 12.7453C16.752 12.7705 16.8072 12.8074 16.8536 12.854L17.9996 14H20.9996L22.9996 12L20.9996 10H12.5326Z" fill="currentColor" opacity="0.28" fill-rule="evenodd" clip-rule="evenodd"/>
  <path d="M6.5 13V11C6.34475 11.1164 6.21875 11.2674 6.13197 11.441C6.04518 11.6146 6 11.8059 6 12C6 12.1941 6.04518 12.3854 6.13197 12.559C6.21875 12.7326 6.34475 12.8836 6.5 13Z" stroke="currentColor" stroke-width="2.2"/>
</svg>