<svg
  xmlns="http://www.w3.org/2000/svg"
  width="24"
  height="24"
  viewBox="0 0 24 24"
  fill="none"
  stroke="currentColor"
  stroke-width="2"
  stroke-linecap="round"
  stroke-linejoin="round"
>
  <path d="M11.0632 10.6091C10.9541 10.4998 10.8719 10.3666 10.8232 10.2201C10.4276 9.04444 10.4409 7.76961 10.8612 6.60255C11.2814 5.4355 12.0838 4.44476 13.138 3.7912C14.1923 3.13764 15.4365 2.85964 16.6687 3.00235C17.9009 3.14505 19.0486 3.70008 19.9256 4.5773C20.8026 5.45453 21.3573 6.60244 21.4996 7.83465C21.6419 9.06686 21.3636 10.311 20.7097 11.3651C20.0559 12.4192 19.0649 13.2212 17.8977 13.6411C16.7305 14.061 15.4557 14.074 14.2802 13.6781C14.1337 13.6293 14.0005 13.5471 13.8912 13.4381L12.1462 15.1821H10.5262C10.3936 15.1821 10.2664 15.2347 10.1726 15.3285C10.0789 15.4223 10.0262 15.5495 10.0262 15.6821V17.3031L7.9042 19.4251H5.0752V16.5961L11.0632 10.6091Z" fill="currentColor" opacity="0.28" fill-rule="evenodd" clip-rule="evenodd"/>
  <path d="M11.4402 10.2319L5.0752 16.5959V19.4249H7.9042L10.0252 17.3029V15.6819C10.0252 15.5493 10.0779 15.4221 10.1716 15.3284C10.2654 15.2346 10.3926 15.1819 10.5252 15.1819H12.1462L14.2682 13.0609" stroke="currentColor" stroke-width="2"/>
  <path d="M17.4501 8.46413L16.0361 7.05013C16.2282 7.02273 16.424 7.04041 16.6081 7.10178C16.7921 7.16315 16.9594 7.26653 17.0965 7.40371C17.2337 7.5409 17.3371 7.70814 17.3985 7.89219C17.4598 8.07625 17.4775 8.27206 17.4501 8.46413Z" stroke="currentColor" stroke-width="2.2"/>
</svg>