<svg width="24" height="24" viewBox="0 0 24 24" fill="none" xmlns="http://www.w3.org/2000/svg">
<path opacity="0.28" d="M8.14485 12.4044C9.2706 13.7879 10.5767 15.0246 12.0309 16.0833C11.8107 13.3655 11.8107 10.6344 12.0309 7.91663C10.5767 8.97527 9.2706 10.212 8.14485 11.5955C8.04828 11.7142 8 11.8571 8 12C8 12.1429 8.04828 12.2857 8.14485 12.4044Z" fill="#111111"/>
<path d="M11.8657 12H20M11.8657 12C11.8657 13.3622 11.9208 14.7245 12.0309 16.0833C10.5767 15.0247 9.2706 13.788 8.14485 12.4045C8.04828 12.2858 8 12.1429 8 12C8 11.8571 8.04828 11.7142 8.14485 11.5955C9.2706 10.212 10.5767 8.97531 12.0309 7.91667C11.9208 9.27555 11.8657 10.6378 11.8657 12ZM4 19V5" stroke="#111111" stroke-width="2" stroke-linecap="round" stroke-linejoin="round"/>
</svg>
