<svg width="24" height="24" viewBox="0 0 24 24" fill="none" xmlns="http://www.w3.org/2000/svg">
<path opacity="0.28" d="M10.6 3.00293H13.4C13.96 3.00293 14.24 3.00293 14.454 3.11193C14.6422 3.2078 14.7951 3.36078 14.891 3.54893C15 3.76193 15 4.04293 15 4.60293V14.5259C16.3366 14.4599 17.6707 14.3499 19 14.1959C17.1896 16.6447 15.0696 18.8487 12.693 20.7529C12.4965 20.9107 12.252 20.9967 12 20.9967C11.748 20.9967 11.5035 20.9107 11.307 20.7529C8.93035 18.8484 6.81039 16.6441 5 14.1949C6.33 14.3499 7.664 14.4599 9 14.5249V4.60393C9 4.04393 9 3.76393 9.109 3.54993C9.20487 3.36178 9.35785 3.2088 9.546 3.11293C9.76 3.00293 10.04 3.00293 10.6 3.00293Z" fill="#111111"/>
<path d="M13.4 3.00195L10.6 3.00195C10.0399 3.00195 9.75992 3.00195 9.54601 3.11095C9.35784 3.20682 9.20486 3.3598 9.10899 3.54796C9 3.76187 9 4.0419 9 4.60195L9 14.5253C7.6643 14.4592 6.33024 14.3491 5 14.1948C6.81482 16.6488 8.93491 18.8528 11.3066 20.7525C11.5101 20.9155 11.755 20.997 12 20.997C12.245 20.997 12.4899 20.9155 12.6934 20.7525C15.0651 18.8528 17.1852 16.6488 19 14.1948C17.6698 14.3491 16.3357 14.4592 15 14.5253L15 4.60195C15 4.0419 15 3.76187 14.891 3.54796C14.7951 3.3598 14.6421 3.20682 14.454 3.11095C14.2401 3.00195 13.96 3.00195 13.4 3.00195Z" stroke="#111111" stroke-width="2" stroke-linecap="round" stroke-linejoin="round"/>
</svg>
