<svg width="24" height="24" viewBox="0 0 24 24" fill="none" xmlns="http://www.w3.org/2000/svg">
<path opacity="0.28" d="M4 15.1416C5.2963 16.8944 6.81065 18.4687 8.50473 19.8257C8.65006 19.9421 8.82503 20.0003 9 20.0003C9.17497 20.0003 9.34994 19.9421 9.49526 19.8257C11.1893 18.4687 12.7037 16.8944 14 15.1416C13.0651 15.3022 12.5977 15.3824 12.1304 15.4439C11.0914 15.5806 10.0457 15.6489 9 15.6489C7.95428 15.6489 6.90857 15.5806 5.86956 15.4439C5.40233 15.3824 4.93489 15.3022 4 15.1416Z" fill="#111111"/>
<path d="M9 15.6487L9 12C9 9.19974 9 7.79961 9.54497 6.73005C10.0243 5.78924 10.7892 5.02433 11.73 4.54497C12.7996 4 14.1997 4 17 4L20 4M9 15.6487C7.95428 15.6487 6.90857 15.5803 5.86957 15.4436C5.40233 15.3822 4.93489 15.3019 4 15.1413C5.2963 16.8942 6.81065 18.4685 8.50473 19.8254C8.65006 19.9418 8.82503 20 9 20C9.17497 20 9.34994 19.9418 9.49527 19.8254C11.1893 18.4685 12.7037 16.8942 14 15.1413C13.0651 15.3019 12.5977 15.3822 12.1304 15.4436C11.0914 15.5803 10.0457 15.6487 9 15.6487Z" stroke="#111111" stroke-width="2" stroke-linecap="round" stroke-linejoin="round"/>
</svg>
