<svg width="24" height="24" viewBox="0 0 24 24" fill="none" xmlns="http://www.w3.org/2000/svg">
<path opacity="0.28" d="M12.0001 21.1501C17.0535 21.1501 21.1501 17.0535 21.1501 12.0001C21.1501 6.94669 17.0535 2.8501 12.0001 2.8501C6.94669 2.8501 2.8501 6.94669 2.8501 12.0001C2.8501 17.0535 6.94669 21.1501 12.0001 21.1501Z" fill="#111111"/>
<path d="M8.00006 11.9488C9.03711 10.5243 10.2486 9.24485 11.6039 8.14208C11.7201 8.04748 11.8601 8.00018 12.0001 8.00018M16.0001 11.9488C14.963 10.5243 13.7515 9.24485 12.3963 8.14208C12.28 8.04748 12.14 8.00018 12.0001 8.00018M12.0001 8.00018L12.0001 16.0002M21.1501 12.0001C21.1501 17.0535 17.0535 21.1501 12.0001 21.1501C6.94669 21.1501 2.8501 17.0535 2.8501 12.0001C2.8501 6.94669 6.94669 2.8501 12.0001 2.8501C17.0535 2.8501 21.1501 6.94669 21.1501 12.0001Z" stroke="#111111" stroke-width="2" stroke-linecap="round" stroke-linejoin="round"/>
</svg>
