<svg width="24" height="24" viewBox="0 0 24 24" fill="none" xmlns="http://www.w3.org/2000/svg">
<path opacity="0.28" d="M21.1501 11.9999C21.1501 6.94645 17.0535 2.84985 12.0001 2.84985C6.94669 2.84985 2.8501 6.94645 2.8501 11.9999C2.8501 17.0533 6.94669 21.1499 12.0001 21.1499C17.0535 21.1499 21.1501 17.0533 21.1501 11.9999Z" fill="#111111"/>
<path d="M11.9488 15.9999C10.5243 14.9628 9.24485 13.7514 8.14208 12.3961C8.04748 12.2798 8.00018 12.1399 8.00018 11.9999M11.9488 7.99989C10.5243 9.03693 9.24485 10.2484 8.14208 11.6037C8.04748 11.7199 8.00018 11.8599 8.00018 11.9999M8.00018 11.9999L16.0002 11.9999M12.0001 2.84985C17.0535 2.84985 21.1501 6.94645 21.1501 11.9999C21.1501 17.0533 17.0535 21.1499 12.0001 21.1499C6.94669 21.1499 2.8501 17.0533 2.8501 11.9999C2.8501 6.94645 6.94669 2.84985 12.0001 2.84985Z" stroke="#111111" stroke-width="2" stroke-linecap="round" stroke-linejoin="round"/>
</svg>
