<svg width="24" height="24" viewBox="0 0 24 24" fill="none" xmlns="http://www.w3.org/2000/svg">
<g opacity="0.28">
<path d="M4.64657 4.08624C6.40091 3.92395 8.1811 3.99085 9.94268 4.28582C8.92995 5.15603 7.95084 6.06388 7.00736 7.00736C6.06388 7.95084 5.15602 8.92996 4.28582 9.94268C3.99085 8.1811 3.92395 6.40091 4.08624 4.64657C4.10016 4.49608 4.165 4.36296 4.26398 4.26398C4.36296 4.165 4.49608 4.10016 4.64657 4.08624Z" fill="#111111"/>
<path d="M14.0573 4.28582C15.8189 3.99085 17.5991 3.92395 19.3534 4.08624C19.5039 4.10016 19.637 4.165 19.736 4.26398C19.835 4.36296 19.8998 4.49608 19.9138 4.64657C20.0761 6.40091 20.0092 8.1811 19.7142 9.94268C18.844 8.92995 17.9361 7.95084 16.9926 7.00736C16.0492 6.06388 15.07 5.15603 14.0573 4.28582Z" fill="#111111"/>
</g>
<path d="M7.00736 7.00736L12 12L12 20M7.00736 7.00736C7.95084 6.06388 8.92995 5.15603 9.94268 4.28582C8.1811 3.99085 6.40091 3.92395 4.64657 4.08624C4.49608 4.10016 4.36296 4.165 4.26398 4.26398C4.165 4.36296 4.10016 4.49608 4.08624 4.64657C3.92395 6.40091 3.99085 8.1811 4.28582 9.94268C5.15602 8.92996 6.06388 7.95084 7.00736 7.00736ZM16.9926 7.00736L15 9M16.9926 7.00736C16.0492 6.06388 15.07 5.15603 14.0573 4.28582C15.8189 3.99085 17.5991 3.92395 19.3534 4.08624C19.5039 4.10016 19.637 4.165 19.736 4.26398C19.835 4.36296 19.8998 4.49608 19.9138 4.64657C20.0761 6.40091 20.0092 8.1811 19.7142 9.94268C18.844 8.92995 17.9361 7.95084 16.9926 7.00736Z" stroke="#111111" stroke-width="2" stroke-linecap="round" stroke-linejoin="round"/>
</svg>
