<svg width="24" height="24" viewBox="0 0 24 24" fill="none" xmlns="http://www.w3.org/2000/svg">
<g opacity="0.28">
<path d="M15.544 15.0729C17.0201 14.9364 18.5179 14.9927 20 15.2409L19.0514 16.034C18.5047 16.4911 17.9789 16.9721 17.4755 17.4755C16.9719 17.979 16.4908 18.5049 16.0336 19.0518L15.2405 20.0004C14.9923 18.5182 14.936 17.0204 15.0726 15.5444C15.0843 15.4178 15.1388 15.3054 15.2221 15.2221C15.3054 15.1388 15.4174 15.0847 15.544 15.0729Z" fill="#111111"/>
<path d="M15.0726 8.45599C14.936 6.97994 14.9923 5.48214 15.2405 4L16.0336 4.94859C16.4908 5.49537 16.9718 6.02124 17.4753 6.52471C17.9788 7.02818 18.5046 7.50924 19.0514 7.9664L20 8.75952C18.5179 9.0077 17.0201 9.06399 15.544 8.92744C15.4174 8.91573 15.3054 8.86118 15.2221 8.7779C15.1388 8.69462 15.0843 8.58261 15.0726 8.45599Z" fill="#111111"/>
<path d="M8.92744 8.45599C9.06399 6.97994 9.0077 5.48214 8.75952 4L7.9664 4.94859C7.50924 5.49537 7.02818 6.02124 6.52471 6.52471C6.02124 7.02818 5.49537 7.50924 4.94859 7.9664L4 8.75952C5.48214 9.0077 6.97994 9.06399 8.45599 8.92744C8.58261 8.91573 8.69462 8.86118 8.7779 8.7779C8.86117 8.69462 8.91573 8.58261 8.92744 8.45599Z" fill="#111111"/>
<path d="M8.92744 15.544C9.06399 17.0201 9.0077 18.5179 8.75952 20L7.9664 19.0514C7.50924 18.5046 7.02818 17.9788 6.52471 17.4753C6.02124 16.9718 5.49537 16.4908 4.94859 16.0336L4 15.2405C5.48214 14.9923 6.97994 14.936 8.45599 15.0726C8.58261 15.0843 8.69462 15.1388 8.7779 15.2221C8.86117 15.3054 8.91573 15.4174 8.92744 15.544Z" fill="#111111"/>
</g>
<path d="M21 21L17.4755 17.4755M3 3L6.52471 6.52471M3 21L6.52471 17.4753M21 3L17.4753 6.52471M17.4753 6.52471C16.9718 6.02124 16.4908 5.49537 16.0336 4.94859L15.2405 4C14.9923 5.48214 14.936 6.97994 15.0726 8.45599C15.0843 8.58261 15.1388 8.69462 15.2221 8.7779C15.3054 8.86118 15.4174 8.91573 15.544 8.92744C17.0201 9.06399 18.5179 9.0077 20 8.75951L19.0514 7.9664C18.5046 7.50924 17.9788 7.02818 17.4753 6.52471ZM6.52471 6.52471C7.02818 6.02124 7.50924 5.49537 7.9664 4.94859L8.75952 4C9.0077 5.48214 9.06399 6.97994 8.92744 8.45599C8.91573 8.58261 8.86117 8.69462 8.7779 8.7779C8.69462 8.86118 8.58261 8.91573 8.45599 8.92744C6.97994 9.06399 5.48214 9.0077 4 8.75951L4.94859 7.9664C5.49537 7.50924 6.02124 7.02818 6.52471 6.52471ZM6.52471 17.4753C7.02818 17.9788 7.50924 18.5046 7.9664 19.0514L8.75952 20C9.0077 18.5179 9.06399 17.0201 8.92744 15.544C8.91573 15.4174 8.86117 15.3054 8.7779 15.2221C8.69462 15.1388 8.58261 15.0843 8.45599 15.0726C6.97994 14.936 5.48214 14.9923 4 15.2405L4.94859 16.0336C5.49537 16.4908 6.02124 16.9718 6.52471 17.4753ZM17.4755 17.4755C17.9789 16.9721 18.5047 16.4911 19.0514 16.034L20 15.2409C18.5179 14.9927 17.0201 14.9364 15.544 15.0729C15.4174 15.0847 15.3054 15.1388 15.2221 15.2221C15.1388 15.3054 15.0843 15.4178 15.0726 15.5444C14.936 17.0204 14.9923 18.5182 15.2405 20.0004L16.0336 19.0518C16.4908 18.5049 16.9719 17.979 17.4755 17.4755Z" stroke="#111111" stroke-width="2" stroke-linecap="round" stroke-linejoin="round"/>
</svg>
