<svg width="24" height="24" viewBox="0 0 24 24" fill="none" xmlns="http://www.w3.org/2000/svg">
<path opacity="0.28" d="M7.59561 19.8548C6.21211 18.729 4.9754 17.423 3.91675 15.9688L6.23634 16.1397C6.82346 16.1829 7.41177 16.2046 8.00008 16.2046C8.58839 16.2046 9.17671 16.1829 9.76382 16.1397L12.0834 15.9688C11.0248 17.423 9.78805 18.729 8.40455 19.8548C8.28587 19.9514 8.14297 19.9996 8.00008 19.9996C7.85719 19.9996 7.7143 19.9514 7.59561 19.8548Z" fill="#111111"/>
<path d="M8.00008 16.2049L8.00008 9C8.00008 6.23858 10.2387 4 13.0001 4C15.7615 4 18.0001 6.23858 18.0001 9V12M8.00008 16.2049C7.41177 16.2049 6.82346 16.1833 6.23634 16.14L3.91675 15.9691C4.9754 17.4233 6.21211 18.7294 7.59561 19.8551C7.7143 19.9517 7.85719 20 8.00008 20C8.14297 20 8.28587 19.9517 8.40455 19.8551C9.78805 18.7294 11.0248 17.4233 12.0834 15.9691L9.76382 16.14C9.17671 16.1833 8.58839 16.2049 8.00008 16.2049Z" stroke="#111111" stroke-width="2" stroke-linecap="round" stroke-linejoin="round"/>
</svg>
