<svg width="24" height="24" viewBox="0 0 24 24" fill="none" xmlns="http://www.w3.org/2000/svg">
<path opacity="0.28" d="M11.9999 6V12M11.9999 12V18M11.9999 12L17.196 9M11.9999 12L6.80371 15M11.9999 12L6.80371 9.00005M11.9999 12L17.196 15.0001" stroke="#111111" stroke-width="2" stroke-linecap="round" stroke-linejoin="round"/>
<path d="M9.00028 3L12.0003 6L15.0003 3M15.0003 21L12.0003 18L9.00028 21M18.2945 4.90192L17.1964 9L21.2945 10.0981M5.70605 19.0981L6.80413 15L2.70605 13.9019M2.70605 10.0981L6.80413 9.00005L5.70605 4.90198M21.2945 13.902L17.1964 15.0001L18.2945 19.0981" stroke="#111111" stroke-width="2" stroke-linecap="round" stroke-linejoin="round"/>
</svg>
