<svg
  xmlns="http://www.w3.org/2000/svg"
  width="24"
  height="24"
  viewBox="0 0 24 24"
  fill="none"
  stroke="currentColor"
  stroke-width="2"
  stroke-linecap="round"
  stroke-linejoin="round"
>
  <path d="M3 2C2.46957 2 1.96086 2.21071 1.58579 2.58579C1.21071 2.96086 1 3.46957 1 4V5C1 5.53043 1.21071 6.03914 1.58579 6.41421C1.96086 6.78929 2.46957 7 3 7H21C21.5304 7 22.0391 6.78929 22.4142 6.41421C22.7893 6.03914 23 5.53043 23 5V4C23 3.46957 22.7893 2.96086 22.4142 2.58579C22.0391 2.21071 21.5304 2 21 2H3ZM3 10C3 9.73478 3.10536 9.48043 3.29289 9.29289C3.48043 9.10536 3.73478 9 4 9H20C20.2652 9 20.5196 9.10536 20.7071 9.29289C20.8946 9.48043 21 9.73478 21 10V17C21 18.3261 20.4732 19.5979 19.5355 20.5355C18.5979 21.4732 17.3261 22 16 22H8C6.67392 22 5.40215 21.4732 4.46447 20.5355C3.52678 19.5979 3 18.3261 3 17V10ZM13 12.546C13 12.2808 12.8946 12.0264 12.7071 11.8389C12.5196 11.6514 12.2652 11.546 12 11.546C11.7348 11.546 11.4804 11.6514 11.2929 11.8389C11.1054 12.0264 11 12.2808 11 12.546L10.994 12.711C10.9623 13.1952 10.7556 13.6514 10.4125 13.9945C10.0694 14.3376 9.61321 14.5443 9.129 14.576C9.0737 14.579 9.01836 14.5814 8.963 14.583C8.70578 14.5945 8.46291 14.7048 8.28497 14.8909C8.10702 15.077 8.00771 15.3245 8.00771 15.582C8.00771 15.8395 8.10702 16.087 8.28497 16.2731C8.46291 16.4592 8.70578 16.5695 8.963 16.581L9.129 16.588C9.61321 16.6197 10.0694 16.8264 10.4125 17.1695C10.7556 17.5126 10.9623 17.9688 10.994 18.453L11.001 18.619C11.0125 18.8762 11.1228 19.1191 11.3089 19.297C11.495 19.475 11.7425 19.5743 12 19.5743C12.2575 19.5743 12.505 19.475 12.6911 19.297C12.8772 19.1191 12.9875 18.8762 12.999 18.619L13.006 18.453C13.0377 17.9688 13.2444 17.5126 13.5875 17.1695C13.9306 16.8264 14.3868 16.6197 14.871 16.588L15.037 16.581C15.2942 16.5695 15.5371 16.4592 15.715 16.2731C15.893 16.087 15.9923 15.8395 15.9923 15.582C15.9923 15.3245 15.893 15.077 15.715 14.8909C15.5371 14.7048 15.2942 14.5945 15.037 14.583C14.9816 14.5814 14.9263 14.579 14.871 14.576C14.3868 14.5443 13.9306 14.3376 13.5875 13.9945C13.2444 13.6514 13.0377 13.1952 13.006 12.711C13.003 12.656 13.0007 12.601 12.999 12.546H13ZM11.642 15.582C11.769 15.47 11.888 15.351 12 15.224C12.112 15.351 12.232 15.47 12.358 15.582C12.2313 15.6937 12.1117 15.8133 12 15.94C11.8883 15.8133 11.7687 15.6937 11.642 15.582Z" fill="currentColor" fill-rule="evenodd" clip-rule="evenodd"/ stroke="none">
</svg>