<svg
  xmlns="http://www.w3.org/2000/svg"
  width="24"
  height="24"
  viewBox="0 0 24 24"
  fill="none"
  stroke="currentColor"
  stroke-width="2"
  stroke-linecap="round"
  stroke-linejoin="round"
>
  <path d="M14 21H14.001M18 14C17.363 15.617 16.66 16.345 15 17C16.66 17.655 17.363 18.384 18 20C18.637 18.384 19.34 17.655 21 17C19.34 16.345 18.637 15.617 18 14Z" stroke="currentColor" stroke-width="2"/ fill="none">
  <path d="M9 9L9 15M9 9H3.0001M9 9H20.9999C20.9984 7.0233 20.9732 5.98717 20.564 5.18404C20.1805 4.43139 19.5686 3.81947 18.816 3.43597C17.9603 3 16.8402 3 14.6 3H9.4C7.15979 3 6.03968 3 5.18404 3.43597C4.43139 3.81947 3.81947 4.43139 3.43597 5.18404C3.02676 5.98717 3.00164 7.0233 3.0001 9M9 15L9 20.9999C7.0233 20.9984 5.98717 20.9732 5.18404 20.564C4.43139 20.1805 3.81947 19.5686 3.43597 18.816C3.02676 18.0128 3.00164 16.9767 3.0001 15M9 15H3.0001M3.0001 15C3 14.8708 3 14.7375 3 14.6V9.4C3 9.26251 3 9.12925 3.0001 9" stroke="currentColor" stroke-width="2"/ fill="none">
</svg>