<svg
  xmlns="http://www.w3.org/2000/svg"
  width="24"
  height="24"
  viewBox="0 0 24 24"
  fill="none"
  stroke="currentColor"
  stroke-width="2"
  stroke-linecap="round"
  stroke-linejoin="round"
>
  <path d="M10.9649 4.23647C10.6024 3.64749 9.10732 2.764 8.35976 3.0585C7.73097 3.3062 7.79342 4.14585 7.79342 5.4371C6.66075 7.00019 6.33894 7.18143 5.50543 9.03901C4.3568 11.5989 3.14947 14.7024 2.42456 21H10.1267H17.8289C16.9001 19.0971 15.5409 17.9871 14.7254 14.6344C14.1487 12.2637 17.557 12.7995 18.8256 12.3237C20.502 11.6951 21.3456 10.3529 21.4987 9.40145C21.8013 7.52121 21.1589 7.89499 20.4114 7.7704C19.324 7.58917 17.3532 6.59242 15.8354 5.0973C14.799 4.07641 13.1849 4.05524 10.9649 4.23647Z" stroke="#111111" stroke-width="2" opacity="0.28"/ fill="none">
  <path d="M5.50537 9.03901C6.33889 7.18143 6.6607 7.00019 7.79337 5.4371C7.79337 4.14585 7.73092 3.3062 8.3597 3.0585C9.10726 2.764 10.6024 3.64749 10.9648 4.23647C13.1849 4.05524 14.799 4.07641 15.8353 5.0973C17.3531 6.59242 19.324 7.58917 20.4113 7.7704C21.1589 7.89499 21.8013 7.52121 21.4987 9.40145C21.3456 10.3529 20.5019 11.6951 18.8256 12.3237C17.557 12.7995 14.1487 12.2637 14.7253 14.6344" stroke="currentColor" stroke-width="2"/ fill="none">
</svg>