<svg
  xmlns="http://www.w3.org/2000/svg"
  width="24"
  height="24"
  viewBox="0 0 24 24"
  fill="none"
  stroke="currentColor"
  stroke-width="2"
  stroke-linecap="round"
  stroke-linejoin="round"
>
  <path d="M12 2.10425C12.9926 2.10425 13.7203 3.69711 14.6159 3.98662C15.5441 4.28675 17.0714 3.43423 17.8441 3.99398C18.6246 4.55938 18.2791 6.27242 18.8468 7.04914C19.4092 7.8183 21.1558 8.0175 21.4572 8.94148C21.7479 9.83298 20.4621 11.012 20.4621 12.0001C20.4621 12.9882 21.7479 14.1672 21.4571 15.0588C21.1558 15.9827 19.4092 16.1819 18.8467 16.9511C18.2787 17.7278 18.6243 19.4412 17.8438 20.0062C17.0712 20.566 15.5438 19.7135 14.6156 20.0135C13.7203 20.3031 12.9926 21.8959 12 21.8959C11.0074 21.8959 10.2798 20.3031 9.38418 20.0135C8.45597 19.7135 6.92867 20.566 6.156 20.0062C5.37548 19.4409 5.72092 17.7278 5.15316 16.9511C4.59085 16.1819 2.84427 15.9827 2.54276 15.0588C2.25214 14.1672 3.53798 12.9882 3.53798 12.0001C3.53798 11.012 2.25214 9.83298 2.54298 8.94148C2.84427 8.0175 4.59085 7.8183 5.15338 7.04914C5.72137 6.27242 5.3757 4.55894 6.1562 3.99398C6.92889 3.43423 8.45619 4.28675 9.3844 3.98662C10.2798 3.69711 11.0074 2.10425 12 2.10425Z" stroke="#111111" stroke-width="2" opacity="0.29"/ fill="none">
  <path d="M9.21502 12.4761L11.8926 7.38859C12.0702 7.05115 12.5765 7.17856 12.5759 7.56102V10.6644C12.5759 10.7617 12.6142 10.8549 12.6822 10.9237C12.7502 10.9925 12.8424 11.0312 12.9387 11.0314L14.4645 11.0331C14.5912 11.0332 14.7136 11.1043 14.7776 11.2147C14.8415 11.3252 14.8429 11.4678 14.7811 11.5795L11.9856 16.6183C11.8026 16.9481 11.3056 16.8168 11.3056 16.4388V13.3825C11.3056 13.2861 11.2666 13.1911 11.1991 13.123C11.1316 13.0548 11.0376 13.0155 10.9422 13.0155H9.53469C9.4095 13.0151 9.28849 12.9455 9.22419 12.837C9.15986 12.7285 9.1563 12.5879 9.21502 12.4761Z" stroke="currentColor" stroke-width="2"/ fill="none">
</svg>