<svg width="24" height="24" viewBox="0 0 24 24" fill="none" xmlns="http://www.w3.org/2000/svg">
<path opacity="0.28" fill-rule="evenodd" clip-rule="evenodd" d="M22.0001 10.6601L22.0002 10.489C22.0009 9.49976 22.0014 8.7639 21.7902 8.13803C21.391 6.95494 20.4622 6.02614 19.2791 5.62691C18.6532 5.41571 17.9173 5.41621 16.9281 5.41687C16.799 5.41693 16.6694 5.42011 16.5404 5.41512L16.5364 5.41495L16.534 5.41167C16.5089 5.3771 16.4763 5.32846 16.4123 5.23245L15.2708 3.5202C15.1374 3.31864 14.9696 3.06505 14.7349 2.87216C14.5317 2.70523 14.2977 2.57999 14.0461 2.50359C13.7554 2.41532 13.4513 2.41634 13.2096 2.41715L13.1439 2.4173H10.8564L10.7907 2.41715C10.549 2.41634 10.2448 2.41532 9.95416 2.50359C9.70259 2.57999 9.46855 2.70523 9.26544 2.87216C9.03073 3.06505 8.86288 3.31864 8.72946 3.52021L7.5867 5.23442C7.52336 5.32941 7.49108 5.37753 7.46632 5.41174L7.46395 5.41499L7.45993 5.41516C7.33226 5.42006 7.2041 5.41693 7.07636 5.41687C6.09774 5.41622 5.36982 5.41574 4.75001 5.6225C3.55628 6.0207 2.61953 6.95746 2.22132 8.15119C2.01457 8.77099 2.01505 9.49891 2.0157 10.4775L2.01577 10.6468V15.617V15.6583C2.01576 16.4632 2.01575 17.1276 2.05996 17.6688C2.10589 18.2309 2.20445 18.7476 2.45174 19.2329C2.83524 19.9856 3.44716 20.5975 4.19981 20.981C4.68514 21.2283 5.20185 21.3268 5.76394 21.3728C6.30517 21.417 6.96959 21.417 7.77463 21.417H7.81577H16.2001H16.2416C17.0465 21.417 17.7108 21.417 18.252 21.3728C18.8141 21.3268 19.3308 21.2283 19.8161 20.981C20.5688 20.5975 21.1807 19.9856 21.5642 19.2329C21.8115 18.7476 21.91 18.2309 21.956 17.6688C22.0002 17.1276 22.0002 16.4632 22.0001 15.6583V15.617V10.6601Z" fill="#111111"/>
<path d="M8.46631 16.6035H8.47631M12.4663 9.60352C11.8288 11.22 11.1272 11.9485 9.46631 12.6035C11.1272 13.2585 11.8288 13.987 12.4663 15.6035C13.1038 13.987 13.8054 13.2585 15.4663 12.6035C13.8054 11.9485 13.1038 11.22 12.4663 9.60352Z" stroke="#111111" stroke-width="2" stroke-linecap="round" stroke-linejoin="round"/>
</svg>
