<svg width="24" height="24" viewBox="0 0 24 24" fill="none" xmlns="http://www.w3.org/2000/svg">
<path opacity="0.28" d="M21 11.53V8.8C21 8.50929 21 8.24373 20.9983 8M11.9947 20H7.8C6.11984 20 5.27976 20 4.63803 19.673C4.07354 19.3854 3.6146 18.9265 3.32698 18.362C3 17.7202 3 16.8802 3 15.2V8.8C3 8.50929 3 8.24373 3.00169 8" stroke="#111111" stroke-width="2" stroke-linecap="round" stroke-linejoin="round"/>
<path fill-rule="evenodd" clip-rule="evenodd" d="M7.75898 3H16.24C17.045 3 17.71 3 18.25 3.044C18.813 3.09 19.33 3.189 19.815 3.436C20.5676 3.81949 21.1795 4.43139 21.563 5.184C21.959 5.96 21.99 6.872 21.997 7.993C21.9979 8.12491 21.9727 8.2557 21.9229 8.37783C21.873 8.49997 21.7995 8.61103 21.7066 8.70464C21.6136 8.79824 21.5031 8.87252 21.3813 8.92322C21.2595 8.97391 21.1289 9 20.997 9H3.00198C2.87006 9 2.73945 8.97391 2.61767 8.92322C2.49589 8.87252 2.38534 8.79824 2.29238 8.70464C2.19943 8.61103 2.12592 8.49997 2.07608 8.37783C2.02624 8.2557 2.00105 8.12491 2.00198 7.993C2.00998 6.872 2.03998 5.96 2.43598 5.184C2.81947 4.43139 3.43136 3.81949 4.18398 3.436C4.66898 3.189 5.18598 3.09 5.74798 3.044C6.28998 3 6.95498 3 7.75898 3ZM19 14C19.2006 14 19.3966 14.0604 19.5624 14.1733C19.7283 14.2862 19.8563 14.4464 19.93 14.633C20.223 15.376 20.496 15.823 20.826 16.156C21.156 16.488 21.607 16.77 22.366 17.07C22.5525 17.1437 22.7125 17.2718 22.8253 17.4377C22.9381 17.6035 22.9984 17.7994 22.9984 18C22.9984 18.2006 22.9381 18.3965 22.8253 18.5623C22.7125 18.7282 22.5525 18.8563 22.366 18.93C21.607 19.23 21.156 19.512 20.826 19.844C20.496 20.176 20.223 20.624 19.93 21.367C19.8563 21.5535 19.7282 21.7136 19.5623 21.8264C19.3965 21.9391 19.2005 21.9994 19 21.9994C18.7994 21.9994 18.6035 21.9391 18.4376 21.8264C18.2718 21.7136 18.1437 21.5535 18.07 21.367C17.777 20.624 17.504 20.177 17.174 19.844C16.844 19.512 16.393 19.23 15.634 18.93C15.4475 18.8563 15.2874 18.7282 15.1746 18.5623C15.0618 18.3965 15.0015 18.2006 15.0015 18C15.0015 17.7994 15.0618 17.6035 15.1746 17.4377C15.2874 17.2718 15.4475 17.1437 15.634 17.07C16.393 16.77 16.844 16.488 17.174 16.156C17.504 15.824 17.777 15.376 18.07 14.633C18.1436 14.4464 18.2717 14.2862 18.4375 14.1733C18.6034 14.0604 18.7994 14 19 14ZM14 22C14 21.7348 14.1053 21.4804 14.2929 21.2929C14.4804 21.1054 14.7348 21 15 21H15.001C15.2662 21 15.5205 21.1054 15.7081 21.2929C15.8956 21.4804 16.001 21.7348 16.001 22C16.001 22.2652 15.8956 22.5196 15.7081 22.7071C15.5205 22.8946 15.2662 23 15.001 23H15C14.7348 23 14.4804 22.8946 14.2929 22.7071C14.1053 22.5196 14 22.2652 14 22Z" fill="#111111"/>
</svg>
