<svg
  xmlns="http://www.w3.org/2000/svg"
  width="24"
  height="24"
  viewBox="0 0 24 24"
  fill="none"
  stroke="currentColor"
  stroke-width="2"
  stroke-linecap="round"
  stroke-linejoin="round"
>
  <path d="M16.0036 20.9957C16.6293 20.1607 17 19.1237 17 18C17 15.2386 14.7614 13 12 13C9.23858 13 7 15.2386 7 18C7 19.1205 7.36861 20.155 7.99118 20.9887M16.0036 20.9957L7.99118 20.9887M16.0036 20.9957L21 21M7.99118 20.9887L2.99973 20.9844M9.55664 5.28986C10.1595 4.486 10.8589 3.76006 11.6387 3.12819C11.7442 3.04273 11.8721 3 12 3M14.4434 5.28986C13.8405 4.48601 13.1411 3.76007 12.3613 3.12819C12.2558 3.04273 12.1279 3 12 3M12 3V9.00022M2 17H3M21 17H22M4.47234 10.4221L5.22544 11.08M19.5343 10.4219L18.7812 11.0798" stroke="currentColor" stroke-width="2"/ fill="none">
</svg>