<svg width="24" height="24" viewBox="0 0 24 24" fill="none" xmlns="http://www.w3.org/2000/svg">
<path opacity="0.28" d="M8 2H16M9 2V4.789C8.99998 5.57879 8.76616 6.3509 8.328 7.008L7.672 7.992C7.23366 8.64939 6.99982 9.42187 7 10.212V20C7 20.5304 7.21071 21.0391 7.58579 21.4142C7.96086 21.7893 8.46957 22 9 22H15C15.5304 22 16.0391 21.7893 16.4142 21.4142C16.7893 21.0391 17 20.5304 17 20V10.211C17 9.42121 16.7662 8.6491 16.328 7.992L15.672 7.008C15.2337 6.35061 14.9998 5.57813 15 4.788V2" stroke="#111111" stroke-width="2" stroke-linecap="round" stroke-linejoin="round"/>
<path d="M8 2H16" stroke="#111111" stroke-width="2" stroke-linecap="round" stroke-linejoin="round"/>
<path d="M9.87109 13.5059C10.7354 13.5488 11.5869 13.7421 12.3867 14.0771C13.056 14.3575 13.7743 14.502 14.5 14.502L14.7715 14.4951C15.4043 14.4637 16.0276 14.3225 16.6133 14.0771L16.7314 14.0361C17.0095 13.9586 17.31 14.0049 17.5537 14.167C17.8324 14.3524 18 14.6653 18 15V20C18 21.6569 16.6569 23 15 23H9C7.34315 23 6 21.6569 6 20V15L6.01074 14.8506C6.06211 14.509 6.28817 14.2134 6.61328 14.0771L6.95898 13.9424C7.77284 13.648 8.63265 13.4971 9.5 13.4971L9.87109 13.5059Z" fill="#111111"/>
</svg>
