<svg
  xmlns="http://www.w3.org/2000/svg"
  width="24"
  height="24"
  viewBox="0 0 24 24"
  fill="none"
  stroke="currentColor"
  stroke-width="2"
  stroke-linecap="round"
  stroke-linejoin="round"
>
  <path d="M3 2C2.46957 2 1.96086 2.21071 1.58579 2.58579C1.21071 2.96086 1 3.46957 1 4V5C1 5.53043 1.21071 6.03914 1.58579 6.41421C1.96086 6.78929 2.46957 7 3 7H21C21.5304 7 22.0391 6.78929 22.4142 6.41421C22.7893 6.03914 23 5.53043 23 5V4C23 3.46957 22.7893 2.96086 22.4142 2.58579C22.0391 2.21071 21.5304 2 21 2H3ZM3 10C3 9.73478 3.10536 9.48043 3.29289 9.29289C3.48043 9.10536 3.73478 9 4 9H20C20.2652 9 20.5196 9.10536 20.7071 9.29289C20.8946 9.48043 21 9.73478 21 10V17C21 18.3261 20.4732 19.5979 19.5355 20.5355C18.5979 21.4732 17.3261 22 16 22H8C6.67392 22 5.40215 21.4732 4.46447 20.5355C3.52678 19.5979 3 18.3261 3 17V10ZM10.232 12.293C10.0434 12.1108 9.7908 12.01 9.5286 12.0123C9.2664 12.0146 9.01559 12.1198 8.83018 12.3052C8.64477 12.4906 8.5396 12.7414 8.53733 13.0036C8.53505 13.2658 8.63584 13.5184 8.818 13.707L10.586 15.475L8.818 17.243C8.63584 17.4316 8.53505 17.6842 8.53733 17.9464C8.5396 18.2086 8.64477 18.4594 8.83018 18.6448C9.01559 18.8302 9.2664 18.9354 9.5286 18.9377C9.7908 18.94 10.0434 18.8392 10.232 18.657L12 16.889L13.768 18.657C13.9566 18.8392 14.2092 18.94 14.4714 18.9377C14.7336 18.9354 14.9844 18.8302 15.1698 18.6448C15.3552 18.4594 15.4604 18.2086 15.4627 17.9464C15.465 17.6842 15.3642 17.4316 15.182 17.243L13.414 15.475L15.182 13.707C15.3642 13.5184 15.465 13.2658 15.4627 13.0036C15.4604 12.7414 15.3552 12.4906 15.1698 12.3052C14.9844 12.1198 14.7336 12.0146 14.4714 12.0123C14.2092 12.01 13.9566 12.1108 13.768 12.293L12 14.06L10.232 12.292V12.293Z" fill="currentColor" fill-rule="evenodd" clip-rule="evenodd"/ stroke="none">
</svg>