<svg width="24" height="24" viewBox="0 0 24 24" fill="none" xmlns="http://www.w3.org/2000/svg">
<path d="M15 22H15.001M19 15C18.3625 16.6165 17.6609 17.345 16 18C17.6609 18.655 18.3625 19.3835 19 21C19.6375 19.3835 20.3391 18.655 22 18C20.3391 17.345 19.6375 16.6165 19 15ZM7.80002 4H16.2C17.8802 4 18.7203 4 19.362 4.32698C19.9265 4.6146 20.3854 5.07354 20.673 5.63803C20.9434 6.16873 20.9902 6.83507 20.9983 8H3.00171C3.0098 6.83507 3.05659 6.16873 3.327 5.63803C3.61462 5.07354 4.07356 4.6146 4.63804 4.32698C5.27978 4 6.11986 4 7.80002 4Z" stroke="#111111" stroke-width="2" stroke-linecap="round" stroke-linejoin="round"/>
<path opacity="0.28" d="M21 11.53V8.8C21 8.50929 21 8.24373 20.9983 8M11.9947 20H7.8C6.11984 20 5.27976 20 4.63803 19.673C4.07354 19.3854 3.6146 18.9265 3.32698 18.362C3 17.7202 3 16.8802 3 15.2V8.8C3 8.50929 3 8.24373 3.00169 8" stroke="#111111" stroke-width="2" stroke-linecap="round" stroke-linejoin="round"/>
</svg>
