<svg
  xmlns="http://www.w3.org/2000/svg"
  width="24"
  height="24"
  viewBox="0 0 24 24"
  fill="none"
  stroke="currentColor"
  stroke-width="2"
  stroke-linecap="round"
  stroke-linejoin="round"
>
  <path d="M6.16146 2H6.2H11.8H11.8385C12.3656 1.99999 12.8205 1.99997 13.195 2.03057C13.5904 2.06287 13.9836 2.13419 14.362 2.32698C14.9265 2.6146 15.3854 3.07355 15.673 3.63803C15.8658 4.01641 15.9371 4.40963 15.9694 4.80498C16 5.17955 16 5.63431 16 6.16145V6.2V14.0354C17.6962 14.2781 19 15.7368 19 17.5V18.5C19 18.7761 19.2239 19 19.5 19C19.7761 19 20 18.7761 20 18.5V10.95C19.8384 10.9828 19.6712 11 19.5 11C18.1193 11 17 9.88071 17 8.5C17 7.39448 17.7176 6.45656 18.7124 6.1266L17.2929 4.70711C16.9024 4.31659 16.9024 3.68342 17.2929 3.2929C17.6834 2.90237 18.3166 2.90237 18.7071 3.2929L21.1213 5.70711C21.6839 6.26972 22 7.03278 22 7.82843V8.5V18.5C22 19.8807 20.8807 21 19.5 21C18.1193 21 17 19.8807 17 18.5V17.5C17 16.8469 16.5826 16.2913 16 16.0854V17.8V17.8385C16 18.3656 16 18.8205 15.9694 19.195C15.9371 19.5904 15.8658 19.9836 15.673 20.362C15.3854 20.9265 14.9265 21.3854 14.362 21.673C13.9836 21.8658 13.5904 21.9371 13.195 21.9694C12.8205 22 12.3657 22 11.8386 22H11.8H6.2H6.16144C5.6343 22 5.17954 22 4.80498 21.9694C4.40963 21.9371 4.01641 21.8658 3.63803 21.673C3.07355 21.3854 2.6146 20.9265 2.32698 20.362C2.13419 19.9836 2.06287 19.5904 2.03057 19.195C1.99997 18.8205 1.99999 18.3658 2 17.8387V17.8V6.2V6.16146C1.99999 5.63436 1.99997 5.17952 2.03057 4.80498C2.06287 4.40963 2.13419 4.01641 2.32698 3.63803C2.6146 3.07355 3.07355 2.6146 3.63803 2.32698C4.01641 2.13419 4.40963 2.06287 4.80498 2.03057C5.17952 1.99997 5.63436 1.99999 6.16146 2ZM20 8.5C20 8.22386 19.7761 8 19.5 8C19.2239 8 19 8.22386 19 8.5C19 8.77614 19.2239 9 19.5 9C19.7761 9 20 8.77614 20 8.5ZM6.77599 4.90001L6.80002 4.90002H11.2L11.224 4.90001C11.3421 4.89996 11.4884 4.8999 11.618 4.91049C11.7694 4.92286 11.992 4.95498 12.2264 5.07441C12.5275 5.22781 12.7722 5.47258 12.9256 5.77363C13.0451 6.00803 13.0772 6.23064 13.0896 6.38205C13.1001 6.51165 13.1001 6.65787 13.1 6.77596V6.80002V9.20002V9.22405C13.1001 9.34214 13.1001 9.48839 13.0896 9.61799C13.0772 9.7694 13.0451 9.99201 12.9256 10.2264C12.7722 10.5275 12.5275 10.7722 12.2264 10.9256C11.992 11.0451 11.7694 11.0772 11.618 11.0896C11.4884 11.1001 11.3422 11.1001 11.2241 11.1H11.2H6.80002H6.77599C6.6579 11.1001 6.51166 11.1001 6.38205 11.0896C6.23064 11.0772 6.00803 11.0451 5.77363 10.9256C5.47258 10.7722 5.22781 10.5275 5.07441 10.2264C4.95498 9.99201 4.92286 9.7694 4.91049 9.61799C4.8999 9.48838 4.89996 9.34214 4.90001 9.22405L4.90002 9.20002V6.80002L4.90001 6.77599C4.89996 6.6579 4.8999 6.51166 4.91049 6.38205C4.92286 6.23064 4.95498 6.00803 5.07441 5.77363C5.22781 5.47258 5.47258 5.22781 5.77363 5.07441C6.00803 4.95498 6.23064 4.92286 6.38205 4.91049C6.51166 4.8999 6.6579 4.89996 6.77599 4.90001Z" fill="currentColor" fill-rule="evenodd" clip-rule="evenodd"/ stroke="none">
</svg>