<svg
  xmlns="http://www.w3.org/2000/svg"
  width="24"
  height="24"
  viewBox="0 0 24 24"
  fill="none"
  stroke="currentColor"
  stroke-width="2"
  stroke-linecap="round"
  stroke-linejoin="round"
>
  <path d="M17.3036 8.10994L15.8896 6.69594C16.0817 6.66876 16.2774 6.68659 16.4614 6.74804C16.6453 6.80949 16.8125 6.91286 16.9496 7.05C17.0867 7.18714 17.1901 7.35429 17.2515 7.53824C17.313 7.72219 17.3308 7.91791 17.3036 8.10994Z" stroke="currentColor" stroke-width="2"/ fill="none">
  <path d="M4.92971 16.2429V19.0709H7.75671L9.87971 16.9499V15.3279C9.87971 15.1953 9.93239 15.0681 10.0262 14.9743C10.1199 14.8806 10.2471 14.8279 10.3797 14.8279H11.9997L14.4517 12.3759C15.4135 12.6999 16.4567 12.6892 17.4117 12.3456C18.3667 12.002 19.1775 11.3457 19.7124 10.4832C20.2474 9.62068 20.4751 8.60266 20.3585 7.59444C20.2419 6.58622 19.7879 5.64702 19.0702 4.92935C18.3526 4.21169 17.4134 3.7577 16.4052 3.64112C15.3969 3.52454 14.3789 3.75221 13.5164 4.28716C12.6539 4.82211 11.9976 5.63292 11.654 6.58793C11.3104 7.54294 11.2997 8.58605 11.6237 9.54788L4.92971 16.2429Z" stroke="currentColor" stroke-width="2"/ fill="none">
</svg>