<svg width="24" height="24" viewBox="0 0 24 24" fill="none" xmlns="http://www.w3.org/2000/svg">
<path opacity="0.28" d="M7 22C8.49 21.702 11.52 21.526 11.95 21.503C11.9833 21.5011 12.0167 21.5011 12.05 21.503C12.48 21.526 15.51 21.703 17 22V21.468C16.9999 21.3214 16.9677 21.1767 16.9055 21.0439C16.8432 20.9112 16.7526 20.7938 16.64 20.7L14 18.5L14.5 15L22 17V16.5C22 16.0343 21.8916 15.5749 21.6833 15.1584C21.475 14.7418 21.1726 14.3794 20.8 14.1L14 9V4C14 2.895 12.5 2 12 2C11.5 2 10 2.895 10 4V9L3.2 14.1C2.82741 14.3794 2.525 14.7418 2.31672 15.1584C2.10844 15.5749 2 16.0343 2 16.5V17L9.5 15L10 18.5L7.36 20.7C7.24738 20.7938 7.15675 20.9112 7.09454 21.0439C7.03233 21.1767 7.00005 21.3214 7 21.468V22Z" fill="#111111"/>
<path d="M7.00018 22C8.47943 21.7041 11.4802 21.502 11.9403 21.4722C11.9815 21.4695 12.0185 21.4695 12.0597 21.4722C12.5198 21.502 15.5206 21.7041 16.9998 22V21.4684C16.9998 21.1716 16.868 20.8901 16.64 20.7002L13.9998 18.5L14.4996 15L22 17V16.5C22 15.5557 21.5554 14.6666 20.8 14.1L13.9998 9V3.99982C13.9998 2.89535 12.5 2 12 2C11.5 2 10.0002 2.89535 10.0002 3.99982L10.0002 9L3.20003 14.1C2.44459 14.6666 2 15.5557 2 16.5V17L9.50037 15L10.0002 18.5L7.36 20.7002C7.13201 20.8901 7.00018 21.1716 7.00018 21.4684L7.00018 22Z" stroke="#111111" stroke-width="2" stroke-linecap="round" stroke-linejoin="round"/>
</svg>
