<svg width="24" height="24" viewBox="0 0 24 24" fill="none" xmlns="http://www.w3.org/2000/svg">
<path opacity="0.28" d="M12 5V19" stroke="#111111" stroke-width="2" stroke-linecap="round" stroke-linejoin="round"/>
<path d="M7.22911 8.16162C6.90682 7.95208 6.49294 7.94583 6.16448 8.14556C5.83601 8.34528 5.65111 8.71562 5.68886 9.09818C5.75128 9.73094 5.79324 10.3652 5.81473 11L3 11C2.44772 11 2 11.4477 2 12C2 12.5523 2.44772 13 3 13L5.81473 13C5.79324 13.6348 5.75128 14.2691 5.68886 14.9018C5.65111 15.2844 5.83601 15.6547 6.16448 15.8544C6.49294 16.0542 6.90682 16.0479 7.22911 15.8384C8.49425 15.0158 9.63448 14.0524 10.62 12.9706C10.8607 12.7065 11 12.3638 11 12C11 11.6362 10.8607 11.2935 10.62 11.0294C9.63448 9.94763 8.49425 8.98417 7.22911 8.16162Z" fill="#111111"/>
<path d="M18.3111 9.09818C18.3489 8.71562 18.164 8.34528 17.8355 8.14556C17.5071 7.94583 17.0932 7.95208 16.7709 8.16162C15.5057 8.98417 14.3655 9.94763 13.38 11.0294C13.1393 11.2935 13 11.6362 13 12C13 12.3638 13.1393 12.7065 13.38 12.9706C14.3655 14.0524 15.5057 15.0158 16.7709 15.8384C17.0932 16.0479 17.5071 16.0542 17.8355 15.8544C18.164 15.6547 18.3489 15.2844 18.3111 14.9018C18.2487 14.2691 18.2068 13.6348 18.1853 13L21 13C21.5523 13 22 12.5523 22 12C22 11.4477 21.5523 11 21 11L18.1853 11C18.2068 10.3652 18.2487 9.73094 18.3111 9.09818Z" fill="#111111"/>
</svg>
