<svg width="24" height="24" viewBox="0 0 24 24" fill="none" xmlns="http://www.w3.org/2000/svg">
<path opacity="0.28" d="M21 5V19" stroke="#111111" stroke-width="2" stroke-linecap="round" stroke-linejoin="round"/>
<path d="M5 13C4.44772 13 4 12.5523 4 12C4 11.4477 4.44772 11 5 11L12.1242 11C12.104 9.99824 12.0534 8.99692 11.9724 7.99745C11.9278 7.44697 12.3379 6.96455 12.8883 6.91995C13.1386 6.89967 13.3748 6.97336 13.5621 7.11148C15.0838 8.21982 16.4514 9.5149 17.6308 10.9644C17.8745 11.2639 18 11.6305 18 12C18 12.3696 17.8745 12.7361 17.6308 13.0356C16.4514 14.4851 15.0838 15.7802 13.5621 16.8885C13.3748 17.0267 13.1386 17.1004 12.8883 17.0801C12.3379 17.0355 11.9278 16.5531 11.9724 16.0026C12.0534 15.0031 12.104 14.0018 12.1242 13L5 13Z" fill="#111111"/>
</svg>
