<svg width="24" height="24" viewBox="0 0 24 24" fill="none" xmlns="http://www.w3.org/2000/svg">
<path opacity="0.28" d="M5 20H19" stroke="#111111" stroke-width="2" stroke-linecap="round" stroke-linejoin="round"/>
<path d="M12.9999 4C12.9999 3.44772 12.5522 3 11.9999 3C11.4476 3 10.9999 3.44772 10.9999 4V11.1242C9.99811 11.104 8.9968 11.0534 7.99733 10.9724C7.44685 10.9278 6.96443 11.3379 6.91982 11.8883C6.89955 12.1386 6.97323 12.3748 7.11136 12.5621C8.2197 14.0838 9.51478 15.4514 10.9643 16.6308C11.2638 16.8745 11.6303 17 11.9999 17C12.3694 17 12.736 16.8745 13.0355 16.6308C14.485 15.4514 15.7801 14.0838 16.8884 12.5621C17.0265 12.3748 17.1002 12.1386 17.08 11.8883C17.0353 11.3379 16.5529 10.9278 16.0025 10.9724C15.003 11.0534 14.0017 11.104 12.9999 11.1242V4Z" fill="#111111"/>
</svg>
