<svg width="24" height="24" viewBox="0 0 24 24" fill="none" xmlns="http://www.w3.org/2000/svg">
<path opacity="0.28" d="M12.0001 1.8501C6.39441 1.8501 1.8501 6.39441 1.8501 12.0001C1.8501 17.6058 6.39441 22.1501 12.0001 22.1501C17.6058 22.1501 22.1501 17.6058 22.1501 12.0001C22.1501 6.39441 17.6058 1.8501 12.0001 1.8501Z" fill="#111111"/>
<path d="M8 11.9486C9.03704 10.5241 10.2485 9.24467 11.6038 8.1419C11.72 8.0473 11.86 8 12 8M16 11.9486C14.963 10.5241 13.7515 9.24467 12.3962 8.1419C12.28 8.0473 12.14 8 12 8M12 8L12 16" stroke="#111111" stroke-width="2" stroke-linecap="round" stroke-linejoin="round"/>
</svg>
