<svg width="24" height="24" viewBox="0 0 24 24" fill="none" xmlns="http://www.w3.org/2000/svg">
<path opacity="0.28" d="M14 9.35156V13.0002C14 15.8005 14 17.2006 13.455 18.2702C12.9757 19.211 12.2108 19.9759 11.27 20.4553C10.2004 21.0002 8.80026 21.0002 6 21.0002H3" stroke="#111111" stroke-width="2" stroke-linecap="round" stroke-linejoin="round"/>
<path d="M9.16926 10.8442C8.76678 10.9134 8.36271 10.7308 8.14855 10.3831C7.93439 10.0354 7.95317 9.59239 8.19599 9.26406C9.54347 7.44203 11.1179 5.80519 12.8796 4.39411C13.206 4.13266 13.6025 4 14 4C14.3975 4 14.794 4.13266 15.1204 4.39411C16.8821 5.80519 18.4565 7.44203 19.804 9.26406C20.0468 9.59239 20.0656 10.0354 19.8515 10.3831C19.6373 10.7308 19.2332 10.9134 18.8307 10.8442C17.8885 10.6824 17.4433 10.6062 17 10.5478C16.0043 10.4168 15.0021 10.3513 14 10.3513C12.9979 10.3513 11.9957 10.4168 11 10.5478C10.5567 10.6062 10.1114 10.6824 9.16926 10.8442Z" fill="#111111"/>
</svg>
