<svg width="24" height="24" viewBox="0 0 24 24" fill="none" xmlns="http://www.w3.org/2000/svg">
<path opacity="0.28" d="M18 17.5317V7C18 5.34315 16.6569 4 15 4C13.3431 4 12 5.34315 12 7V17C12 18.6569 10.6569 20 9 20C7.34315 20 6 18.6569 6 17V6.46831" stroke="#111111" stroke-width="2" stroke-linecap="round" stroke-linejoin="round"/>
<path d="M6.00001 3C5.57652 3 5.15255 3.14023 4.80267 3.41896C3.83686 4.18836 2.96695 5.06546 2.21174 6.03292C1.96549 6.34838 1.93102 6.78027 2.12413 7.13078C2.31723 7.4813 2.70071 7.68294 3.09894 7.64335L3.72462 7.58114C4.48121 7.50592 5.24061 7.46832 6.00001 7.46832C6.7594 7.46832 7.5188 7.50592 8.2754 7.58114L8.90108 7.64335C9.2993 7.68294 9.68278 7.4813 9.87589 7.13078C10.069 6.78027 10.0345 6.34838 9.78827 6.03292C9.03306 5.06546 8.16316 4.18836 7.19734 3.41896C6.84746 3.14023 6.42349 3 6.00001 3Z" fill="#111111"/>
<path d="M15.0989 16.3567C14.7007 16.3171 14.3172 16.5187 14.1241 16.8692C13.931 17.2197 13.9655 17.6516 14.2117 17.9671C14.967 18.9345 15.8369 19.8116 16.8027 20.581C17.1526 20.8598 17.5765 21 18 21C18.4235 21 18.8475 20.8598 19.1973 20.581C20.1632 19.8116 21.0331 18.9345 21.7883 17.9671C22.0345 17.6516 22.069 17.2197 21.8759 16.8692C21.6828 16.5187 21.2993 16.3171 20.9011 16.3567L20.2754 16.4189C19.5188 16.4941 18.7594 16.5317 18 16.5317C17.2406 16.5317 16.4812 16.4941 15.7246 16.4189L15.0989 16.3567Z" fill="#111111"/>
</svg>
