<svg width="24" height="24" viewBox="0 0 24 24" fill="none" xmlns="http://www.w3.org/2000/svg">
<path opacity="0.28" d="M2 17H3.87607C5.83395 17 7.66869 16.0447 8.79146 14.4408L12.2085 9.55923C13.3313 7.95527 15.166 7 17.1239 7H18.3711M2 7H3.87607C5.35342 7 6.76066 7.54391 7.84481 8.5M13.3162 15.637C14.3768 16.5079 15.7187 17 17.1239 17H18.3711" stroke="#111111" stroke-width="2" stroke-linecap="round" stroke-linejoin="round"/>
<path d="M18.7917 3.2C18.4744 2.96208 18.0466 2.93408 17.7011 3.12862C17.3555 3.32316 17.1576 3.70349 17.1965 4.09811L17.2601 4.74343C17.3341 5.4938 17.3711 6.2469 17.3711 7C17.3711 7.7531 17.3341 8.5062 17.2601 9.25657L17.1965 9.90189C17.1576 10.2965 17.3555 10.6768 17.7011 10.8714C18.0466 11.0659 18.4744 11.0379 18.7917 10.8C19.8445 10.0104 20.7952 9.09441 21.6228 8.07314C21.8759 7.7608 22.0032 7.38005 22.0032 7C22.0032 6.61994 21.8758 6.2392 21.6228 5.92686C20.7952 4.9056 19.8445 3.9896 18.7917 3.2Z" fill="#111111"/>
<path d="M17.7011 13.1286C17.3555 13.3232 17.1576 13.7035 17.1965 14.0981L17.2601 14.7434C17.3341 15.4938 17.3711 16.2469 17.3711 17C17.3711 17.7531 17.3341 18.5062 17.2601 19.2566L17.1965 19.9019C17.1576 20.2965 17.3555 20.6768 17.7011 20.8714C18.0466 21.0659 18.4744 21.0379 18.7917 20.8C19.8445 20.0104 20.7952 19.0944 21.6228 18.0731C21.8759 17.7608 22.0032 17.3801 22.0032 17C22.0032 16.6199 21.8758 16.2392 21.6228 15.9269C20.7952 14.9056 19.8445 13.9896 18.7917 13.2C18.4744 12.9621 18.0466 12.9341 17.7011 13.1286Z" fill="#111111"/>
</svg>
