<svg width="24" height="24" viewBox="0 0 24 24" fill="none" xmlns="http://www.w3.org/2000/svg">
<path opacity="0.28" d="M15 5.08748C15 2.56319 12.1467 1.09485 10.0926 2.56206L7.27968 4.57131C6.82732 4.89443 6.31155 5.11788 5.76644 5.2269C2.99496 5.7812 1 8.21465 1 11.041V12.959C1 15.7853 2.99496 18.2188 5.76644 18.7731C6.31155 18.8821 6.82732 19.1056 7.27968 19.4287L10.0926 21.4379C12.1467 22.9051 15 21.4368 15 18.9125V5.08748Z" fill="#111111"/>
<path d="M18 14C18.317 13.7374 18.5685 13.4256 18.7401 13.0824C18.9117 12.7392 19 12.3714 19 12C19 11.6286 18.9117 11.2608 18.7401 10.9176C18.5685 10.5744 18.317 10.2626 18 10" stroke="#111111" stroke-width="2" stroke-linecap="round" stroke-linejoin="round"/>
</svg>
