<svg
  xmlns="http://www.w3.org/2000/svg"
  width="24"
  height="24"
  viewBox="0 0 24 24"
  fill="none"
  stroke="currentColor"
  stroke-width="2"
  stroke-linecap="round"
  stroke-linejoin="round"
>
  <path d="M18.501 13V11C18.6562 11.1164 18.7822 11.2674 18.869 11.441C18.9558 11.6146 19.001 11.8059 19.001 12C19.001 12.1941 18.9558 12.3854 18.869 12.559C18.7822 12.7326 18.6562 12.8836 18.501 13Z" stroke="currentColor" stroke-width="2"/>
  <path d="M4 10L2 12L4 14H7L8.146 12.854C8.19245 12.8074 8.24762 12.7705 8.30837 12.7453C8.36911 12.7201 8.43423 12.7071 8.5 12.7071C8.56577 12.7071 8.63089 12.7201 8.69163 12.7453C8.75238 12.7705 8.80755 12.8074 8.854 12.854L10 14H13.468C13.9191 14.9092 14.6642 15.6391 15.5825 16.0714C16.5007 16.5037 17.5381 16.6129 18.5262 16.3812C19.5144 16.1496 20.3952 15.5907 21.0256 14.7954C21.656 14 21.9991 13.0149 21.9991 12C21.9991 10.9851 21.656 9.99999 21.0256 9.20465C20.3952 8.40931 19.5144 7.85044 18.5262 7.61879C17.5381 7.38714 16.5007 7.49632 15.5825 7.92859C14.6642 8.36086 13.9191 9.09084 13.468 10H4Z" fill="currentColor" opacity="0.28"/>
  <path d="M4.00098 10L2.00098 12L4.00098 14H7.00098L8.14698 12.854C8.19342 12.8074 8.2486 12.7705 8.30934 12.7453C8.37009 12.7201 8.43521 12.7071 8.50098 12.7071C8.56674 12.7071 8.63186 12.7201 8.69261 12.7453C8.75335 12.7705 8.80853 12.8074 8.85498 12.854L10.001 14H13.469C13.92 14.9092 14.6652 15.6391 15.5834 16.0714C16.5017 16.5037 17.5391 16.6129 18.5272 16.3812C19.5153 16.1496 20.3961 15.5907 21.0266 14.7954C21.657 14 22.0001 13.0149 22.0001 12C22.0001 10.9851 21.657 9.99999 21.0266 9.20465C20.3961 8.40931 19.5153 7.85044 18.5272 7.61879C17.5391 7.38714 16.5017 7.49632 15.5834 7.92859C14.6652 8.36086 13.92 9.09084 13.469 10H4.00098Z" stroke="currentColor" stroke-width="2"/>
</svg>