<svg
  xmlns="http://www.w3.org/2000/svg"
  width="24"
  height="24"
  viewBox="0 0 24 24"
  fill="none"
  stroke="currentColor"
  stroke-width="2"
  stroke-linecap="round"
  stroke-linejoin="round"
>
  <path d="M16.1084 4.09269C15.7114 3.9995 15.3221 3.99974 14.8433 4.00003L6.95985 4.00007C6.29397 4.00005 5.73445 4.00004 5.27657 4.03745C4.79785 4.07656 4.34289 4.1615 3.91103 4.38154C3.25247 4.7171 2.71703 5.25253 2.38148 5.9111C2.16144 6.34296 2.0765 6.79792 2.03738 7.27664C1.99997 7.73451 1.99999 8.29404 2 8.95991V15.0402C1.99999 15.7061 1.99997 16.2656 2.03738 16.7235C2.0765 17.2022 2.16144 17.6572 2.38148 18.089C2.71703 18.7476 3.25247 19.283 3.91103 19.6186C4.34289 19.8386 4.79785 19.9236 5.27657 19.9627C5.73445 20.0001 6.29399 20.0001 6.95987 20.0001L14.8433 20.0001C15.3221 20.0004 15.7114 20.0006 16.1084 19.9074C16.4425 19.829 16.8073 19.6815 17.102 19.5056C17.4517 19.2969 17.7087 19.0481 18.0213 18.7456L18.07 18.6985C19.7496 17.0745 21.2754 15.2489 22.6228 13.2529C22.881 12.8705 23 12.4272 23 12.0001C23 11.5729 22.881 11.1296 22.6228 10.7472C21.2754 8.75121 19.7496 6.92562 18.07 5.30165L18.0213 5.25456C17.7088 4.95199 17.4517 4.70322 17.102 4.49449C16.8073 4.31864 16.4425 4.17112 16.1084 4.09269Z" fill="currentColor" opacity="0.28"/>
  <path d="M8 15L11 12M11 12L14 9M11 12L8 9M11 12L14 15" stroke="currentColor" stroke-width="2"/>
</svg>