<svg
  xmlns="http://www.w3.org/2000/svg"
  width="24"
  height="24"
  viewBox="0 0 24 24"
  fill="none"
  stroke="currentColor"
  stroke-width="2"
  stroke-linecap="round"
  stroke-linejoin="round"
>
  <path d="M16 15L13 12M13 12L10 9M13 12L16 9M13 12L10 15" stroke="currentColor" stroke-width="2"/>
  <path d="M7.89165 4.09269C8.28862 3.9995 8.67794 3.99974 9.1567 4.00003L17.0402 4.00007C17.706 4.00005 18.2656 4.00004 18.7234 4.03745C19.2021 4.07656 19.6571 4.1615 20.089 4.38154C20.7475 4.7171 21.283 5.25253 21.6185 5.9111C21.8386 6.34296 21.9235 6.79792 21.9626 7.27664C22 7.73451 22 8.29404 22 8.95991V15.0402C22 15.7061 22 16.2656 21.9626 16.7235C21.9235 17.2022 21.8386 17.6572 21.6185 18.089C21.283 18.7476 20.7475 19.283 20.089 19.6186C19.6571 19.8386 19.2021 19.9236 18.7234 19.9627C18.2655 20.0001 17.706 20.0001 17.0401 20.0001L9.15671 20.0001C8.67795 20.0004 8.28862 20.0006 7.89165 19.9074C7.55755 19.829 7.19275 19.6815 6.89805 19.5056C6.54825 19.2969 6.29125 19.0481 5.97868 18.7456L5.93001 18.6985C4.25044 17.0745 2.72456 15.2489 1.37718 13.2529C1.11901 12.8705 1 12.4272 1 12.0001C1 11.5729 1.11901 11.1296 1.37718 10.7472C2.72456 8.75121 4.25044 6.92562 5.93001 5.30165L5.97867 5.25456C6.29125 4.95199 6.54825 4.70322 6.89805 4.49449C7.19275 4.31864 7.55755 4.17112 7.89165 4.09269Z" fill="currentColor" opacity="0.28"/>
</svg>