<svg
  xmlns="http://www.w3.org/2000/svg"
  width="24"
  height="24"
  viewBox="0 0 24 24"
  fill="none"
  stroke="currentColor"
  stroke-width="2"
  stroke-linecap="round"
  stroke-linejoin="round"
>
  <path d="M2.5 21.5C2.5 20.2738 2.68075 18.5349 3.18042 16.6089C4.7164 10.6885 9.26594 3 20.8424 3C20.963 6.0602 19.8207 10.291 15.8483 12.1101C14.6284 12.6688 13.1415 13 11.3424 13" stroke="currentColor" stroke-width="2"/>
  <path d="M21.8418 2.96094L21.8496 3.27051C21.8893 6.36313 20.7351 10.6108 16.8408 12.7275C16.7562 14.1441 16.1624 15.7675 14.2598 16.8516C12.2916 17.9729 9.07444 18.4152 3.94434 17.7275C3.62158 19.2217 3.5 20.5429 3.5 21.5C3.5 22.0523 3.05228 22.5 2.5 22.5C1.94772 22.5 1.5 22.0523 1.5 21.5C1.5 20.1861 1.69271 18.3625 2.21289 16.3574L2.37207 15.7754C3.21589 12.8345 4.78834 9.51393 7.55371 6.8623C10.5258 4.01255 14.81 2 20.8428 2H21.8037L21.8418 2.96094Z" fill="currentColor" opacity="0.28"/>
</svg>