<svg
  xmlns="http://www.w3.org/2000/svg"
  width="24"
  height="24"
  viewBox="0 0 24 24"
  fill="none"
  stroke="currentColor"
  stroke-width="2"
  stroke-linecap="round"
  stroke-linejoin="round"
>
  <path d="M14 13.9985C14 10.8159 15.5807 8.00242 17.9999 6.30041M4 13.9985C4 10.8159 5.58071 8.00242 7.99988 6.30041" stroke="currentColor" stroke-width="2" opacity="0.28"/>
  <path d="M17 17.9985C19.2091 17.9985 21 16.2077 21 13.9985C21 11.7894 19.2091 9.99854 17 9.99854C14.7907 9.99854 13 11.7898 13 13.9988C13 16.2081 14.791 17.9985 17 17.9985ZM7 17.9985C9.2091 17.9985 11 16.2077 11 13.9985C11 11.7894 9.2091 9.99854 7 9.99854C4.7907 9.99854 3 11.7898 3 13.9988C3 16.2081 4.791 17.9985 7 17.9985Z" fill="currentColor" fill-rule="evenodd" clip-rule="evenodd"/>
</svg>