<svg
  xmlns="http://www.w3.org/2000/svg"
  width="24"
  height="24"
  viewBox="0 0 24 24"
  fill="none"
  stroke="currentColor"
  stroke-width="2"
  stroke-linecap="round"
  stroke-linejoin="round"
>
  <path d="M10 10C10 13.1827 8.41929 15.9961 6.00012 17.6981M20 10C20 13.1827 18.4193 15.9961 16.0001 17.6981" stroke="currentColor" stroke-width="2" opacity="0.28"/>
  <path d="M7 6C4.79086 6 3 7.79086 3 10C3 12.2091 4.79086 14 7 14C9.20927 14 11 12.2087 11 9.99969C11 7.79042 9.20901 6 7 6ZM17 6C14.7909 6 13 7.79086 13 10C13 12.2091 14.7909 14 17 14C19.2093 14 21 12.2087 21 9.99969C21 7.79042 19.209 6 17 6Z" fill="currentColor" fill-rule="evenodd" clip-rule="evenodd"/>
</svg>