<svg width="24" height="24" viewBox="0 0 24 24" fill="none" xmlns="http://www.w3.org/2000/svg">
<path d="M14.1508 2.00447C14.6058 2.05664 15.0061 2.35186 15.2167 2.79046C15.46 3.29717 15.2133 4.29129 14.7199 6.27951L14.3065 7.94539C14.109 8.74138 14.0102 9.13937 14.0782 9.48491C14.138 9.78885 14.2855 10.0645 14.4993 10.2725C14.7424 10.5088 15.111 10.6155 15.8482 10.8287L16.3265 10.9671C17.7442 11.3773 18.453 11.5824 18.7364 11.9998C18.9828 12.3629 19.0618 12.8277 18.9508 13.2615C18.503 15.0115 10.6569 21.2057 8.92678 20.9947C8.47396 20.9395 8.07667 20.6436 7.8681 20.2061C7.62719 19.7008 7.87067 18.7196 8.35763 16.7573L8.72722 15.268C8.92475 14.472 9.02352 14.074 8.95549 13.7284C8.89566 13.4245 8.74825 13.1488 8.53439 12.9409C8.29126 12.7045 7.92267 12.5979 7.18548 12.3846L6.65325 12.2306C5.25049 11.8248 4.5491 11.6219 4.26592 11.2071C4.01963 10.8465 3.93898 10.3843 4.04683 9.95158C4.49552 8.15126 12.4366 1.80791 14.1508 2.00447Z" fill="#111111"/>
</svg>
