<svg width="24" height="24" viewBox="0 0 24 24" fill="none" xmlns="http://www.w3.org/2000/svg">
<path d="M12.0004 2C14.4326 2.00018 16.4708 3.78592 16.9106 6.08789C17.2773 6.13984 17.6216 6.22487 17.9555 6.36914L18.2328 6.50098C18.8686 6.8288 19.4186 7.30377 19.8354 7.88867L19.9428 8.04883C20.1815 8.42647 20.3409 8.83749 20.475 9.2959C20.6248 9.80772 20.7602 10.442 20.9262 11.2168L21.3188 13.0498L21.6899 14.8203C21.7942 15.3504 21.8766 15.8231 21.9291 16.2461C22.022 16.9935 22.0338 17.6716 21.8725 18.3154L21.7924 18.5889C21.4347 19.656 20.7286 20.5696 19.7905 21.1836L19.5991 21.3027C18.9408 21.6924 18.1936 21.8516 17.3364 21.9268C16.4873 22.0012 15.4198 22 14.0834 22H9.91644C8.58006 22 7.51251 22.0012 6.66351 21.9268C5.91337 21.861 5.24752 21.731 4.65179 21.4385L4.40082 21.3027C3.43229 20.7293 2.68742 19.8468 2.28363 18.8008L2.20746 18.5889C1.96438 17.8635 1.96564 17.1001 2.07171 16.2461C2.17678 15.4003 2.40107 14.3566 2.68109 13.0498L3.07367 11.2168L3.30511 10.1582C3.37842 9.83873 3.44991 9.55191 3.52484 9.2959C3.67818 8.77201 3.86457 8.30967 4.16449 7.88867L4.35101 7.64551C4.80486 7.09244 5.38493 6.65412 6.04437 6.36914L6.26605 6.28223C6.53029 6.18891 6.80256 6.12844 7.08832 6.08789C7.52807 3.7857 9.56801 2.00002 12.0004 2ZM15.8266 11.4365C15.5153 10.9807 14.893 10.863 14.4369 11.1738C13.0399 12.1279 11.8302 13.3258 10.8627 14.7051L9.70746 13.5508C9.31688 13.1607 8.68373 13.1615 8.29339 13.5518C7.90319 13.9424 7.903 14.5755 8.29339 14.9658L10.3295 17C10.5499 17.22 10.8607 17.3255 11.1694 17.2842C11.478 17.2427 11.7501 17.0594 11.9047 16.7891C12.8087 15.2083 14.06 13.8533 15.5639 12.8262C16.0196 12.5148 16.1375 11.8925 15.8266 11.4365ZM12.0004 4C10.7203 4.00002 9.60716 4.84568 9.18402 6H14.8159C14.3927 4.84582 13.2804 4.00016 12.0004 4Z" fill="#111111"/>
</svg>
