<svg width="24" height="24" viewBox="0 0 24 24" fill="none" xmlns="http://www.w3.org/2000/svg">
<path fill-rule="evenodd" clip-rule="evenodd" d="M1.8501 12.0001C1.8501 6.3941 6.3941 1.8501 12.0001 1.8501C17.6061 1.8501 22.1501 6.3941 22.1501 12.0001C22.1501 17.6051 17.6061 22.1501 12.0001 22.1501C6.3941 22.1501 1.8501 17.6051 1.8501 12.0001ZM12.9901 6.1971C12.9561 5.95873 12.8373 5.74062 12.6554 5.58283C12.4736 5.42504 12.2409 5.33817 12.0001 5.33817C11.7593 5.33817 11.5266 5.42504 11.3448 5.58283C11.1629 5.74062 11.0441 5.95873 11.0101 6.1971L10.1941 11.9181C10.1564 12.1772 10.1749 12.4414 10.2484 12.6928C10.3219 12.9441 10.4486 13.1767 10.6199 13.3748C10.7912 13.5728 11.0031 13.7316 11.2413 13.8405C11.4794 13.9494 11.7382 14.0058 12.0001 14.0058C12.262 14.0058 12.5208 13.9494 12.7589 13.8405C12.9971 13.7316 13.209 13.5728 13.3803 13.3748C13.5516 13.1767 13.6783 12.9441 13.7518 12.6928C13.8253 12.4414 13.8438 12.1772 13.8061 11.9181L12.9901 6.1971Z" fill="#111111"/>
</svg>
