<svg width="24" height="24" viewBox="0 0 24 24" fill="none" xmlns="http://www.w3.org/2000/svg">
<path fill-rule="evenodd" clip-rule="evenodd" d="M11.9999 2.00098C12.0854 2.00098 12.1684 2.01171 12.2476 2.03189C13.0096 2.07791 13.7615 2.33643 14.4098 2.80745L20.6004 7.30518C21.2268 7.76028 21.6944 8.36862 21.9771 9.05006C22.0276 9.12656 22.0683 9.21134 22.097 9.3032C22.1195 9.37501 22.1334 9.44745 22.1394 9.51942C22.3516 10.279 22.3457 11.1016 22.0898 11.8892L19.7252 19.1666C19.4796 19.9226 19.0286 20.5693 18.4461 21.0532C18.3911 21.1202 18.3265 21.1811 18.2525 21.2338C18.1861 21.2811 18.116 21.3191 18.0435 21.3482C17.3974 21.7638 16.6324 21.9997 15.8259 21.9997H8.17386C7.36721 21.9997 6.60223 21.7638 5.95602 21.3481C5.88369 21.319 5.81361 21.2811 5.74733 21.2338C5.67346 21.1812 5.6089 21.1204 5.55399 21.0535C4.9713 20.5696 4.52021 19.9228 4.27453 19.1666L1.90993 11.8892C1.65401 11.1015 1.64813 10.2788 1.86042 9.5191C1.86642 9.44722 1.88034 9.37489 1.90275 9.30318C1.93142 9.21141 1.9721 9.12671 2.02252 9.05027C2.30527 8.36875 2.7729 7.76032 3.39935 7.30518L9.58994 2.80745C10.2383 2.33639 10.9903 2.07786 11.7523 2.03188C11.8315 2.0117 11.9145 2.00098 11.9999 2.00098ZM10.7655 4.42548C10.8411 4.37057 10.9194 4.32129 10.9999 4.27766V8.41733L8.10758 10.1942L4.42445 9.04338C4.4724 9.00136 4.52258 8.96124 4.57492 8.92321L10.7655 4.42548ZM3.81205 11.2711C3.77458 11.1558 3.74758 11.0391 3.73066 10.922L7.54973 12.1152L9.01802 14.9198L6.26742 18.7805C6.23292 18.7057 6.20255 18.6284 6.17664 18.5486L3.81205 11.2711ZM8.17386 19.9997C8.0711 19.9997 7.96965 19.9922 7.87014 19.9777L10.5486 16.2183L14.593 17.8208L16.1297 19.9777C16.0301 19.9922 15.9287 19.9997 15.8259 19.9997H8.17386ZM17.8231 18.5486C17.7972 18.6283 17.7668 18.7057 17.7323 18.7804L16.2655 16.7216L16.6917 12.0397L20.2691 10.922C20.2521 11.0391 20.2251 11.1558 20.1877 11.2711L17.8231 18.5486ZM15.8923 10.1942L19.5753 9.04341C19.5273 9.00137 19.4772 8.96125 19.4248 8.92322L13.2342 4.42548C13.1587 4.37061 13.0804 4.32136 12.9999 4.27775V8.41734L15.8923 10.1942Z" fill="#111111"/>
</svg>
