<svg width="24" height="24" viewBox="0 0 24 24" fill="none" xmlns="http://www.w3.org/2000/svg">
<path fill-rule="evenodd" clip-rule="evenodd" d="M9.357 3.47073H14.643C15.727 3.47073 16.601 3.47073 17.309 3.52873C18.038 3.58873 18.678 3.71373 19.27 4.01573C20.2108 4.49509 20.9756 5.25996 21.455 6.20073C21.757 6.79273 21.883 7.43373 21.942 8.16173C22 8.86973 22 9.74373 22 10.8277V14.1137C22 15.1977 22 16.0717 21.942 16.7797C21.882 17.5087 21.757 18.1487 21.455 18.7407C20.9756 19.6815 20.2108 20.4464 19.27 20.9257C18.678 21.2277 18.038 21.3537 17.309 21.4127C16.601 21.4707 15.727 21.4707 14.643 21.4707H9.357C8.273 21.4707 7.399 21.4707 6.691 21.4127C5.963 21.3527 5.322 21.2277 4.731 20.9257C3.78986 20.4465 3.02462 19.6816 2.545 18.7407C2.243 18.1487 2.117 17.5087 2.058 16.7797C2 16.0717 2 15.1977 2 14.1137V10.8277C2 9.74373 2 8.86973 2.058 8.16173C2.118 7.43373 2.243 6.79273 2.545 6.20173C3.02402 5.26021 3.78893 4.49461 4.73 4.01473C5.322 3.71273 5.963 3.58673 6.691 3.52773C7.399 3.46973 8.273 3.47073 9.357 3.47073ZM13 8.22073H12C11.7348 8.22073 11.4804 8.32608 11.2929 8.51362C11.1054 8.70116 11 8.95551 11 9.22073V15.7207C11 15.9859 11.1054 16.2403 11.2929 16.4278C11.4804 16.6154 11.7348 16.7207 12 16.7207C12.2652 16.7207 12.5196 16.6154 12.7071 16.4278C12.8946 16.2403 13 15.9859 13 15.7207V14.8637C13.7956 14.8637 14.5587 14.5477 15.1213 13.985C15.6839 13.4224 16 12.6594 16 11.8637V11.2207C16 10.4251 15.6839 9.66202 15.1213 9.09941C14.5587 8.5368 13.7956 8.22073 13 8.22073ZM14 11.8637C14 12.1289 13.8946 12.3833 13.7071 12.5708C13.5196 12.7584 13.2652 12.8637 13 12.8637V10.2197C13.2652 10.2197 13.5196 10.3251 13.7071 10.5126C13.8946 10.7002 14 10.9545 14 11.2197V11.8627V11.8637ZM18 8.22073C18.2652 8.22073 18.5196 8.32608 18.7071 8.51362C18.8946 8.70116 19 8.95551 19 9.22073V15.7207C19 15.9859 18.8946 16.2403 18.7071 16.4278C18.5196 16.6154 18.2652 16.7207 18 16.7207C17.7348 16.7207 17.4804 16.6154 17.2929 16.4278C17.1054 16.2403 17 15.9859 17 15.7207V9.22073C17 8.95551 17.1054 8.70116 17.2929 8.51362C17.4804 8.32608 17.7348 8.22073 18 8.22073ZM7 9.22073C7 8.95551 6.89464 8.70116 6.70711 8.51362C6.51957 8.32608 6.26522 8.22073 6 8.22073C5.73478 8.22073 5.48043 8.32608 5.29289 8.51362C5.10536 8.70116 5 8.95551 5 9.22073V15.7207C5 15.9859 5.10536 16.2403 5.29289 16.4278C5.48043 16.6154 5.73478 16.7207 6 16.7207C6.26522 16.7207 6.51957 16.6154 6.70711 16.4278C6.89464 16.2403 7 15.9859 7 15.7207V14.9237L8.24 16.3717C8.41266 16.5733 8.65831 16.698 8.92292 16.7185C9.18754 16.7389 9.44944 16.6534 9.651 16.4807C9.85256 16.3081 9.97729 16.0624 9.99773 15.7978C10.0182 15.5332 9.93266 15.2713 9.76 15.0697L7.362 12.2727L9.707 9.92773C9.88916 9.73912 9.98995 9.48652 9.98767 9.22433C9.9854 8.96213 9.88023 8.71132 9.69482 8.52591C9.50941 8.3405 9.2586 8.23533 8.9964 8.23305C8.7342 8.23077 8.4816 8.33157 8.293 8.51373L7 9.80673V9.22073Z" fill="#111111"/>
</svg>
