<svg
  xmlns="http://www.w3.org/2000/svg"
  width="24"
  height="24"
  viewBox="0 0 24 24"
  fill="none"
  stroke="currentColor"
  stroke-width="2"
  stroke-linecap="round"
  stroke-linejoin="round"
>
  <path d="M11.7051 0.465834C12.0325 0.422283 12.3324 0.481613 12.5732 0.547865C12.8449 0.622641 13.1675 0.744594 13.5127 0.874037L16.7559 2.09083L17.3672 2.3213C17.9459 2.54583 18.4275 2.76548 18.8145 3.10646L18.9697 3.25197C19.3208 3.60158 19.5947 4.02276 19.7715 4.48732L19.8516 4.73244C20.0124 5.31412 20 5.96972 20 6.77247V20.7832L13.4902 23.1563C13.1469 23.2814 12.8262 23.3999 12.5557 23.4717C12.3154 23.5355 12.0167 23.5915 11.6914 23.5459L11.5508 23.5195C11.1087 23.4176 10.7159 23.1692 10.4356 22.8174L10.3232 22.6602C10.1112 22.3337 10.05 21.983 10.0244 21.7002C9.99924 21.4215 10 21.0792 10 20.7139V3.30861C10 2.94007 9.99907 2.59507 10.0244 2.31447C10.0502 2.03025 10.112 1.67661 10.3262 1.34865L10.4404 1.19142C10.7233 0.838951 11.1187 0.590754 11.5635 0.491225L11.7051 0.465834ZM13.0293 10.6182C12.477 10.6182 12.0293 11.0659 12.0293 11.6182C12.0294 12.1704 12.4771 12.6182 13.0293 12.6182H13.9473C14.4993 12.6179 14.9472 12.1702 14.9473 11.6182C14.9473 11.0661 14.4993 10.6184 13.9473 10.6182H13.0293Z" fill="currentColor" fill-rule="evenodd" clip-rule="evenodd"/>
  <path d="M2 20H11M19 20H22" stroke="currentColor" stroke-width="2"/>
  <path d="M5 20V7.98047C5 6.58034 5 5.88027 5.27248 5.34549C5.51217 4.87509 5.89462 4.49264 6.36502 4.25295C6.8998 3.98047 7.59987 3.98047 9 3.98047H11" stroke="currentColor" stroke-width="2"/>
</svg>