<svg width="24" height="24" viewBox="0 0 24 24" fill="none" xmlns="http://www.w3.org/2000/svg">
<path d="M21.7071 3.7071C22.0976 3.31658 22.0976 2.68341 21.7071 2.29289C21.3166 1.90237 20.6834 1.90237 20.2929 2.2929L17.381 5.20484C17.0288 5.1152 16.6581 5.06779 16.2567 5.04041C15.6647 5.00001 14.9374 5.00002 14.0356 5.00003H7.96448C7.06278 5.00002 6.33528 5.00001 5.74331 5.04041C5.13456 5.08194 4.59628 5.1695 4.08659 5.38063C2.86144 5.8881 1.88808 6.86147 1.3806 8.08662C1.16948 8.59631 1.08191 9.13458 1.04038 9.74332C0.999988 10.3353 0.999993 11.0627 1 11.9645V12.0355C0.999993 12.9373 0.999988 13.6647 1.04038 14.2567C1.08191 14.8654 1.16949 15.4037 1.3806 15.9134C1.87638 17.1103 2.81681 18.0669 4.00225 18.5836L2.29289 20.2929C1.90237 20.6834 1.90237 21.3166 2.29289 21.7071C2.68342 22.0977 3.31658 22.0977 3.70711 21.7071L21.7071 3.7071Z" fill="#111111"/>
<path d="M20.6875 9.01401C20.5821 8.89989 20.4496 8.80974 20.298 8.75401C19.9321 8.6196 19.5215 8.70997 19.246 8.98556L10.9386 17.2929C10.6526 17.5789 10.567 18.009 10.7218 18.3827C10.8766 18.7564 11.2412 19 11.6457 19H14.0354C14.9372 19 15.6647 19 16.2567 18.9596C16.8654 18.9181 17.4037 18.8305 17.9134 18.6194C19.1385 18.1119 20.1119 17.1385 20.6194 15.9134C20.7447 15.6108 20.8265 15.2981 20.881 14.9665C20.9731 14.9543 21.0623 14.9376 21.147 14.9149C22.0098 14.6837 22.6837 14.0098 22.9148 13.147C23.0013 12.8243 23.0007 12.4619 23.0001 12.0933L23 12L23.0001 11.907C23.0007 11.5383 23.0013 11.1758 22.9148 10.8531C22.6837 9.99028 22.0098 9.31643 21.147 9.08526C21.0041 9.04696 20.8485 9.02573 20.6875 9.01401Z" fill="#111111"/>
</svg>
