<svg width="24" height="24" viewBox="0 0 24 24" fill="none" xmlns="http://www.w3.org/2000/svg">
<path d="M13 2.06202C16.9463 2.55414 20 5.92052 20 10.0001L15.2 10.0001C14.6235 10.0001 14.2512 9.99933 13.9679 9.97618C13.6962 9.95398 13.5955 9.9163 13.5461 9.89111C13.3579 9.79524 13.2049 9.64226 13.109 9.45409C13.0838 9.40465 13.0462 9.30393 13.024 9.03227C13.0008 8.74893 13 8.37666 13 7.8001V2.06202Z" fill="#111111"/>
<path d="M20 12.0001V14.0001C20 18.4184 16.4183 22.0001 12 22.0001C7.58172 22.0001 4 18.4184 4 14.0001V10.0001C4 5.92049 7.05371 2.55409 11 2.06201V7.83863C11 8.36577 11 8.82056 11.0306 9.19513C11.0629 9.59048 11.1342 9.9837 11.327 10.3621C11.6146 10.9266 12.0736 11.3855 12.6381 11.6731C13.0165 11.8659 13.4097 11.9372 13.805 11.9695C14.1796 12.0001 14.6343 12.0001 15.1614 12.0001L20 12.0001Z" fill="#111111"/>
</svg>
