<svg width="24" height="24" viewBox="0 0 24 24" fill="none" xmlns="http://www.w3.org/2000/svg">
<path fill-rule="evenodd" clip-rule="evenodd" d="M22 15.8705V15.8345C22 15.4445 22 15.0945 21.976 14.8045C21.9585 14.4682 21.8742 14.1388 21.728 13.8355C21.4881 13.3652 21.1055 12.9829 20.635 12.7435C20.3321 12.5967 20.0031 12.5118 19.667 12.4935C19.3241 12.4727 18.9805 12.465 18.637 12.4705H14.364C13.974 12.4705 13.624 12.4705 13.334 12.4945C12.9977 12.5123 12.6683 12.597 12.365 12.7435C11.8949 12.9831 11.5126 13.3653 11.273 13.8355C11.1262 14.1383 11.0412 14.4674 11.023 14.8035C11 15.0955 11 15.4455 11 15.8345V18.1065C11 18.4965 11 18.8465 11.024 19.1365C11.049 19.4495 11.107 19.7805 11.273 20.1065C11.5126 20.5766 11.8949 20.9588 12.365 21.1985C12.69 21.3635 13.021 21.4215 13.333 21.4465C13.625 21.4705 13.975 21.4705 14.363 21.4705H18.636C19.026 21.4705 19.376 21.4705 19.666 21.4465C19.979 21.4215 20.31 21.3635 20.635 21.1985C21.1053 20.9586 21.4875 20.5759 21.727 20.1055C21.8736 19.8025 21.9586 19.4735 21.977 19.1375C22 18.8455 22 18.4955 22 18.1075V15.8695V15.8705Z" fill="#111111"/>
<path d="M21 9.21634V7C21 5.34315 19.6569 4 18 4H6C4.34315 4 3 5.34315 3 7V17C3 18.6569 4.34315 20 6 20H8.22023" stroke="#111111" stroke-width="2" stroke-linecap="round" stroke-linejoin="round"/>
</svg>
