<svg width="24" height="24" viewBox="0 0 24 24" fill="none" xmlns="http://www.w3.org/2000/svg">
<path fill-rule="evenodd" clip-rule="evenodd" d="M22 8.759V15.24C22 16.045 22 16.71 21.956 17.25C21.91 17.813 21.811 18.33 21.564 18.815C21.1805 19.5676 20.5686 20.1795 19.816 20.563C19.331 20.81 18.814 20.909 18.252 20.955C17.711 20.999 17.046 20.999 16.242 20.999H7.758C6.953 20.999 6.288 20.999 5.748 20.955C5.185 20.909 4.668 20.81 4.183 20.563C3.43039 20.1795 2.81849 19.5676 2.435 18.815C2.188 18.33 2.089 17.813 2.043 17.251C2 16.71 2 16.046 2 15.242V8.758C2 7.953 2 7.288 2.044 6.748C2.09 6.185 2.189 5.668 2.436 5.183C2.81949 4.43039 3.43139 3.81849 4.184 3.435C4.669 3.188 5.186 3.089 5.748 3.043C6.29 3 6.954 3 7.758 3H16.241C17.046 3 17.711 3 18.251 3.044C18.814 3.09 19.331 3.189 19.816 3.436C20.5686 3.81949 21.1805 4.43139 21.564 5.184C21.811 5.669 21.91 6.186 21.956 6.748C22 7.29 22 7.955 22 8.759ZM13.777 6H17.223C17.343 6 17.485 6 17.61 6.01C17.755 6.022 17.963 6.052 18.181 6.164C18.463 6.30776 18.6922 6.53703 18.836 6.819C18.948 7.037 18.978 7.245 18.99 7.39C19 7.516 19 7.658 19 7.777V16.223C19 16.343 19 16.485 18.99 16.61C18.9772 16.8086 18.9252 17.0026 18.837 17.181C18.693 17.4631 18.4633 17.6924 18.181 17.836C18.0027 17.9245 17.8086 17.9769 17.61 17.99C17.485 18 17.342 18 17.223 18H13.777C13.657 18 13.516 18 13.39 17.99C13.1914 17.9772 12.9974 17.9252 12.819 17.837C12.5369 17.693 12.3076 17.4633 12.164 17.181C12.0755 17.0027 12.0231 16.8086 12.01 16.61C12 16.485 12 16.342 12 16.223V7.777C12 7.657 12 7.516 12.01 7.39C12.022 7.245 12.052 7.037 12.164 6.819C12.3078 6.53703 12.537 6.30776 12.819 6.164C13.037 6.052 13.245 6.022 13.39 6.01C13.515 6 13.658 6 13.777 6Z" fill="#111111"/>
</svg>
