<svg width="24" height="24" viewBox="0 0 24 24" fill="none" xmlns="http://www.w3.org/2000/svg">
<path opacity="0.28" fill-rule="evenodd" clip-rule="evenodd" d="M12 1C12.5523 1 13 1.44772 13 2V4H14L14.2041 4.01074C15.2128 4.113 16 4.96435 16 6V7.12598C17.7252 7.57002 19 9.13616 19 11V20.5C19 21.8807 17.8807 23 16.5 23H7.5C6.20566 23 5.14082 22.0164 5.0127 20.7559L5 20.5V11C5 9.13616 6.27477 7.57002 8 7.12598V6C8 4.89543 8.89543 4 10 4H11V2C11 1.44772 11.4477 1 12 1ZM9 9C7.89543 9 7 9.89543 7 11V20.5L7.00977 20.6006C7.05629 20.8286 7.25829 21 7.5 21H16.5C16.7761 21 17 20.7761 17 20.5V11C17 9.89543 16.1046 9 15 9H9ZM10 7H14V6H10V7Z" fill="#111111"/>
<path d="M16.4189 1C17.7077 1.00003 18.8611 1.7731 19.3584 2.94434L19.4482 3.18359L19.4766 3.28223C19.5875 3.77672 19.3074 4.2844 18.8164 4.44824C18.3251 4.61201 17.7968 4.37349 17.5889 3.91113L17.5518 3.81641L17.5176 3.72656C17.3317 3.28888 16.9006 3.00003 16.4189 3H9.5C8.94772 3 8.5 2.55228 8.5 2C8.5 1.44772 8.94772 1 9.5 1H16.4189Z" fill="#111111"/>
<path d="M5.95508 13.4503C7.39547 12.9774 8.5803 12.9074 9.63672 13.0997C10.7385 13.3003 11.6245 13.7777 12.3828 14.1885C13.1672 14.6135 13.8255 14.9732 14.6309 15.1622C15.41 15.345 16.3826 15.3768 17.7412 15.0128C18.0413 14.9323 18.3618 14.9956 18.6084 15.1846C18.855 15.3739 19 15.6677 19 15.9786V20.5001C19 21.7944 18.0164 22.8592 16.7559 22.9874L16.5 23.0001H7.5C6.11929 23.0001 5 21.8808 5 20.5001V14.4922L5.01172 14.336C5.06808 13.9791 5.31526 13.6753 5.66309 13.5508L5.95508 13.4503Z" fill="#111111"/>
</svg>
