<svg width="24" height="24" viewBox="0 0 24 24" fill="none" xmlns="http://www.w3.org/2000/svg">
<path opacity="0.28" d="M3 21H5M5 21V7M5 21H19M19 21H21M19 21V7" stroke="#111111" stroke-width="2" stroke-linecap="round" stroke-linejoin="round"/>
<path fill-rule="evenodd" clip-rule="evenodd" d="M4.5 2C3.11929 2 2 3.11929 2 4.5V5.5C2 6.88071 3.11929 8 4.5 8H19.5C20.8807 8 22 6.88071 22 5.5V4.5C22 3.11929 20.8807 2 19.5 2H4.5ZM13.1341 10.1446C12.8573 9.97697 12.5164 9.95367 12.2193 10.0821C11.9222 10.2105 11.7057 10.4748 11.6381 10.7913C11.5064 11.4083 11.3283 12.0161 11.1158 12.4463L11.1149 12.4481C10.9675 12.273 10.8121 12.0773 10.6731 11.8798C10.4871 11.6153 10.1846 11.457 9.86117 11.4551C9.53777 11.4532 9.2334 11.6078 9.04419 11.8701C8.4808 12.6511 8 13.6787 8 14.8401C8 15.7979 8.32183 16.7868 9.00627 17.5483C9.7065 18.3273 10.7325 18.8069 12 18.8069C13.2675 18.8069 14.2934 18.3273 14.9936 17.5483C15.6781 16.7868 15.9999 15.7979 15.9999 14.8401C15.9999 13.6914 15.5294 12.6736 14.9746 11.8964C14.4203 11.12 13.725 10.5025 13.1341 10.1446Z" fill="#111111"/>
</svg>
