<svg width="24" height="24" viewBox="0 0 24 24" fill="none" xmlns="http://www.w3.org/2000/svg">
<path opacity="0.28" d="M5.20023 8.00036C5.32354 8.00035 5.47606 7.99926 5.60941 8.01012C5.7184 8.01903 5.86316 8.03902 6.02054 8.09508L6.18069 8.16344L6.28421 8.22204C6.48555 8.34555 6.65483 8.51483 6.77835 8.71618L6.83694 8.81969L6.9053 8.97985C6.96137 9.13723 6.98136 9.28198 6.99026 9.39098C7.00113 9.52433 7.00003 9.67684 7.00003 9.80016V20.2006C7.00003 20.3239 7.00113 20.4764 6.99026 20.6097C6.98136 20.7187 6.96137 20.8635 6.9053 21.0209L6.83694 21.181C6.71112 21.428 6.51915 21.6346 6.28421 21.7787L6.18069 21.8373C5.96291 21.9481 5.75453 21.9787 5.60941 21.9906C5.47605 22.0015 5.32355 22.0004 5.20023 22.0004H3.79984C3.67651 22.0004 3.524 22.0015 3.39066 21.9906C3.28166 21.9817 3.1369 21.9617 2.97952 21.9056L2.81937 21.8373C2.57244 21.7114 2.36582 21.5195 2.22171 21.2845L2.16312 21.181C2.05226 20.9632 2.02165 20.7548 2.0098 20.6097C1.99893 20.4764 2.00003 20.3239 2.00003 20.2006V9.80016C2.00003 9.67684 1.99893 9.52433 2.0098 9.39098C2.02165 9.24586 2.05225 9.03747 2.16312 8.81969L2.22171 8.71618C2.36583 8.48124 2.57243 8.28926 2.81937 8.16344L2.97952 8.09508C3.13691 8.03902 3.28166 8.01903 3.39066 8.01012C3.524 7.99926 3.67651 8.00035 3.79984 8.00036H5.20023ZM17.4825 5.33727L17.5997 5.36071C17.8295 5.41469 18.0432 5.52194 18.2237 5.67418L18.3126 5.75426L18.4278 5.88414C18.5305 6.01595 18.5941 6.14772 18.6368 6.2484C18.689 6.37151 18.7367 6.51615 18.7755 6.63317L22.8692 19.0004C22.9079 19.1172 22.9568 19.2613 22.9884 19.391C23.0141 19.4972 23.0399 19.6411 23.0362 19.808L23.0216 19.9818C22.9797 20.2558 22.8624 20.5124 22.6846 20.723L22.6055 20.8109C22.4338 20.9845 22.2454 21.0792 22.1114 21.1361C21.9882 21.1883 21.8427 21.235 21.7257 21.2738L20.3966 21.7142C20.2795 21.753 20.1349 21.8018 20.005 21.8334C19.8987 21.8592 19.7549 21.8859 19.588 21.8822L19.4141 21.8675C19.1402 21.8257 18.8835 21.7083 18.6729 21.5306L18.585 21.4506C18.4114 21.2787 18.3167 21.0904 18.2598 20.9564C18.2077 20.8334 18.1609 20.6886 18.1221 20.5716L14.0284 8.20446C13.9896 8.08743 13.9408 7.94276 13.9093 7.81286C13.8749 7.67142 13.8384 7.4643 13.8751 7.22301L13.8985 7.10582C13.9615 6.83765 14.0973 6.59087 14.2921 6.39391L14.4219 6.27868C14.5537 6.17598 14.6855 6.11142 14.7862 6.06871C14.9092 6.01658 15.054 5.96974 15.171 5.93102L16.501 5.49059C16.6181 5.45184 16.7627 5.40303 16.8926 5.37145C16.9989 5.34566 17.1427 5.31886 17.3096 5.32262L17.4825 5.33727Z" fill="#111111"/>
<path d="M12.2003 2.00003C12.3236 2.00003 12.4761 1.99894 12.6094 2.0098C12.7184 2.0187 12.8632 2.03871 13.0206 2.09476L13.1807 2.16312L13.2843 2.22171C13.4856 2.34522 13.6549 2.51452 13.7784 2.71585L13.837 2.81937L13.9053 2.97952C13.9614 3.1369 13.9814 3.28166 13.9903 3.39066C14.0012 3.524 14.0001 3.67651 14.0001 3.79984V20.2002C14.0001 20.3235 14.0012 20.4761 13.9903 20.6094C13.9814 20.7184 13.9614 20.8631 13.9053 21.0205L13.837 21.1807C13.7112 21.4276 13.5192 21.6342 13.2843 21.7784L13.1807 21.8369C12.963 21.9478 12.7546 21.9784 12.6094 21.9903C12.4761 22.0011 12.3236 22 12.2003 22H10.7999C10.6766 22 10.524 22.0011 10.3907 21.9903C10.2817 21.9814 10.1369 21.9614 9.97952 21.9053L9.81937 21.8369C9.57245 21.7111 9.36582 21.5191 9.22171 21.2842L9.16312 21.1807C9.05226 20.9629 9.02165 20.7545 9.0098 20.6094C8.99894 20.4761 9.00003 20.3235 9.00003 20.2002V3.79984C9.00003 3.67651 8.99893 3.524 9.0098 3.39066C9.02165 3.24553 9.05225 3.03715 9.16312 2.81937L9.22171 2.71585C9.36582 2.48092 9.57244 2.28894 9.81937 2.16312L9.97952 2.09476C10.1369 2.0387 10.2817 2.0187 10.3907 2.0098C10.524 1.99893 10.6766 2.00003 10.7999 2.00003H12.2003Z" fill="#111111"/>
</svg>
