<svg width="24" height="24" viewBox="0 0 24 24" fill="none" xmlns="http://www.w3.org/2000/svg">
<path opacity="0.28" fill-rule="evenodd" clip-rule="evenodd" d="M7.58094 2.09199C7.78808 1.99642 8.02166 1.97454 8.24294 2.02999L9.33294 2.30199C11.0843 2.73977 12.9166 2.73977 14.6679 2.30199L15.7579 2.02999C15.9789 1.97478 16.2121 1.99665 16.4189 2.09199L22.9189 5.09199C23.1376 5.19288 23.3126 5.36931 23.4116 5.58885C23.5106 5.80838 23.5271 6.05628 23.4579 6.28699L21.9579 11.287C21.9195 11.4153 21.8558 11.5345 21.7704 11.6377C21.6851 11.7409 21.5798 11.8258 21.461 11.8876C21.3422 11.9493 21.2122 11.9866 21.0787 11.9971C20.9452 12.0077 20.811 11.9913 20.6839 11.949L18.9999 11.387V20C18.9999 20.5304 18.7892 21.0391 18.4142 21.4142C18.0391 21.7893 17.5304 22 16.9999 22H6.99994C6.46951 22 5.9608 21.7893 5.58573 21.4142C5.21066 21.0391 4.99994 20.5304 4.99994 20V11.387L3.31594 11.949C3.1889 11.9913 3.05466 12.0077 2.92117 11.9971C2.78768 11.9866 2.65768 11.9493 2.53886 11.8876C2.42004 11.8258 2.31483 11.7409 2.22947 11.6377C2.14411 11.5345 2.08034 11.4153 2.04194 11.287L0.541944 6.28699C0.472899 6.05616 0.48951 5.80817 0.588722 5.58862C0.687935 5.36906 0.863078 5.19271 1.08194 5.09199L7.58094 2.09199ZM8.57494 4.14399L9.08994 4.27199C11.0006 4.74957 12.9993 4.74957 14.9099 4.27199L15.4249 4.14399C15.6109 4.09699 15.7399 4.30599 15.6049 4.44099C14.6454 5.39059 13.3499 5.92324 11.9999 5.92324C10.65 5.92324 9.35449 5.39059 8.39494 4.44099C8.25994 4.30599 8.38894 4.09699 8.57494 4.14399Z" fill="#111111"/>
<path d="M6 10L3 11L1.5 6L8 3L9.09 3.272C11.0006 3.74958 12.9994 3.74958 14.91 3.272L16 3L22.5 6L21 11L18 10" stroke="#111111" stroke-width="2" stroke-linecap="round" stroke-linejoin="round"/>
</svg>
