<svg
  xmlns="http://www.w3.org/2000/svg"
  width="24"
  height="24"
  viewBox="0 0 24 24"
  fill="none"
  stroke="currentColor"
  stroke-width="2"
  stroke-linecap="round"
  stroke-linejoin="round"
>
  <path d="M12 12H21M12 18H21M12 6L21 6M3 16.1047L4.89736 18C5.80992 16.4043 7.07282 15.0366 8.59087 14M4 10H7C7.55228 10 8 9.55228 8 9V6C8 5.44772 7.55228 5 7 5H4C3.44772 5 3 5.44772 3 6V9C3 9.55228 3.44772 10 4 10Z" stroke="currentColor" stroke-width="2"/>
  <path d="M3 6C3 5.44772 3.44772 5 4 5H7C7.55228 5 8 5.44772 8 6V9C8 9.55228 7.55228 10 7 10H4C3.44772 10 3 9.55228 3 9V6Z" fill="currentColor" opacity="0.28"/>
</svg>