<svg
  xmlns="http://www.w3.org/2000/svg"
  width="24"
  height="24"
  viewBox="0 0 24 24"
  fill="none"
  stroke="currentColor"
  stroke-width="2"
  stroke-linecap="round"
  stroke-linejoin="round"
>
  <path d="M12 21.6777C12.3218 21.6777 12.6437 21.644 12.9602 21.5768C13.5408 21.4534 14.0933 21.1743 14.9999 20.6584M12 21.6777C11.6781 21.6777 11.3562 21.644 11.0396 21.5768C10.4591 21.4534 9.90659 21.1743 8.99995 20.6584M12 21.6777V18.9999M12 2.32214C12.3218 2.32214 12.6437 2.35579 12.9602 2.42308C13.5408 2.54647 14.0933 2.82551 14.9999 3.34142M12 2.32214C11.6781 2.32214 11.3562 2.35579 11.0396 2.42308C10.4591 2.54647 9.90659 2.82551 8.99995 3.34142M12 2.32214L11.9999 4.99988M3.61875 7.16103C3.45781 7.43978 3.32602 7.73534 3.22601 8.04314C3.04261 8.60758 3.008 9.22562 3.00146 10.2687M3.61875 7.16103C3.77968 6.88228 3.96975 6.62036 4.18631 6.37985C4.58343 5.93881 5.10136 5.59981 6.00147 5.07259M3.61875 7.16103L5.9378 8.49993M3.61875 16.8388C3.77969 17.1176 3.96976 17.3795 4.18631 17.62C4.58343 18.061 5.10135 18.4 6.00146 18.9272M3.61875 16.8388C3.45782 16.5601 3.32602 16.2645 3.22601 15.9567C3.04261 15.3923 3.008 14.7742 3.00146 13.7311M3.61875 16.8388L5.93783 15.4999M20.3811 7.16104C20.2202 6.88229 20.0301 6.62036 19.8136 6.37985C19.4165 5.93881 18.8985 5.59981 17.9984 5.07259M20.3811 7.16104C20.5421 7.43978 20.6739 7.73535 20.7739 8.04314C20.9573 8.60758 20.9919 9.22561 20.9984 10.2687M20.3811 7.16104L18.0622 8.49987M20.3811 16.8388C20.5421 16.5601 20.6739 16.2645 20.7739 15.9567C20.9573 15.3923 20.9919 14.7742 20.9984 13.7311M20.3811 16.8388C20.2202 17.1175 20.0301 17.3795 19.8136 17.62C19.4165 18.061 18.8985 18.4 17.9984 18.9272M20.3811 16.8388L17.9992 15.4636M11.9999 14.9999L12 11.9999M14.5985 10.4997L12 11.9999M9.40144 10.4997L12 11.9999" stroke="currentColor" stroke-width="2"/ fill="none">
</svg>