<svg width="24" height="24" viewBox="0 0 24 24" fill="none" xmlns="http://www.w3.org/2000/svg">
<path opacity="0.28" d="M14 18.9127V5.08767C14 3.37675 12.0661 2.38153 10.6739 3.37599L7.86092 5.38524C7.29344 5.79058 6.6464 6.0709 5.96255 6.20767C3.6585 6.66848 2 8.69152 2 11.0412V12.9592C2 15.3088 3.6585 17.3319 5.96255 17.7927C6.6464 17.9295 7.29344 18.2098 7.86092 18.6151L10.6739 20.6244C12.0661 21.6188 14 20.6236 14 18.9127Z" stroke="#111111" stroke-width="2" stroke-linecap="round" stroke-linejoin="round"/>
<path d="M22 10L19.5 12.5M19.5 12.5L17 15M19.5 12.5L22 15M19.5 12.5L17 10" stroke="#111111" stroke-width="2" stroke-linecap="round" stroke-linejoin="round"/>
</svg>
