<svg
  xmlns="http://www.w3.org/2000/svg"
  width="24"
  height="24"
  viewBox="0 0 24 24"
  fill="none"
  stroke="currentColor"
  stroke-width="2"
  stroke-linecap="round"
  stroke-linejoin="round"
>
  <path d="M12 2H11.963C10.597 2 9.52 2 8.649 2.06C7.761 2.12 7.015 2.246 6.321 2.533C4.6062 3.24322 3.24367 4.60539 2.533 6.32C2.246 7.014 2.12 7.76 2.059 8.648C2 9.519 2 10.597 2 11.963V12.037C2 13.403 2 14.48 2.06 15.351C2.12 16.239 2.246 16.985 2.533 17.679C3.24345 19.394 4.60602 20.7565 6.321 21.467C7.015 21.754 7.761 21.88 8.649 21.941C9.519 22 10.597 22 11.963 22H12.037C13.403 22 14.48 22 15.351 21.94C16.239 21.88 16.985 21.754 17.679 21.467C19.394 20.7565 20.7565 19.394 21.467 17.679C21.754 16.985 21.88 16.239 21.941 15.351C22 14.481 22 13.403 22 12.037V11.963C22 10.597 22 9.52 21.94 8.649C21.88 7.761 21.754 7.015 21.467 6.321C20.7565 4.60602 19.394 3.24345 17.679 2.533C16.985 2.246 16.239 2.12 15.351 2.059C14.481 2 13.403 2 12.037 2H12Z" fill="currentColor" opacity="0.2" fill-rule="evenodd" clip-rule="evenodd"/>
  <path d="M17 7C10 7 7 17 7 17" stroke="currentColor" stroke-width="2"/>
</svg>