<svg width="24" height="24" viewBox="0 0 24 24" fill="none" xmlns="http://www.w3.org/2000/svg">
<path opacity="0.28" d="M8.19104 21.7642C10.7206 22.0777 13.2792 22.0777 15.8087 21.7642C23.6216 20.7956 21.0716 9.01835 14.8866 6.98692C14.3006 6.79444 13.6819 6.68945 13.0363 6.68945H10.9634C10.6415 6.68945 10.3262 6.71556 10.0184 6.7656C3.19384 7.87506 0.00710869 20.7496 8.19104 21.7642Z" fill="#111111"/>
<path d="M14.8866 6.98758C14.3006 6.79509 13.6819 6.69011 13.0363 6.69011H10.9634C10.6415 6.69011 10.3262 6.71622 10.0184 6.76626M14.8866 6.98758C21.0716 9.01901 23.6216 20.7963 15.8087 21.7648C13.2792 22.0784 10.7206 22.0784 8.19104 21.7648C0.00710869 20.7503 3.19384 7.87572 10.0184 6.76626M14.8866 6.98758L16.664 2.54428L16.014 2.28428C14.7988 1.79821 13.4222 1.94155 12.3332 2.66753C11.4562 3.25225 10.3828 3.4646 9.34912 3.25787L8.37229 3.06251L10.0184 6.76626" stroke="#111111" stroke-width="2" stroke-linecap="round" stroke-linejoin="round"/>
</svg>
