<svg width="24" height="24" viewBox="0 0 24 24" fill="none" xmlns="http://www.w3.org/2000/svg">
<path opacity="0.28" d="M2.8501 12.0001C2.8501 6.94669 6.94669 2.8501 12.0001 2.8501C17.0535 2.8501 21.1501 6.94669 21.1501 12.0001C21.1501 17.0535 17.0535 21.1501 12.0001 21.1501C6.94669 21.1501 2.8501 17.0535 2.8501 12.0001Z" fill="#111111"/>
<path d="M8.38591 9.14434L9.61464 10.0047M14.3854 10.0047L15.6142 9.14434M15.5707 16C14.6632 15.0743 13.3987 14.5 12 14.5C10.6013 14.5 9.33671 15.0743 8.42925 16M12.0001 21.1501C6.94669 21.1501 2.8501 17.0535 2.8501 12.0001C2.8501 6.94669 6.94669 2.8501 12.0001 2.8501C17.0535 2.8501 21.1501 6.94669 21.1501 12.0001C21.1501 17.0535 17.0535 21.1501 12.0001 21.1501Z" stroke="#111111" stroke-width="2" stroke-linecap="round" stroke-linejoin="round"/>
</svg>
