<svg width="24" height="24" viewBox="0 0 24 24" fill="none" xmlns="http://www.w3.org/2000/svg">
<path opacity="0.28" fill-rule="evenodd" clip-rule="evenodd" d="M12.5997 2.125C12.6626 4.51176 10.0034 8.00003 7.99996 8.00003C7.99996 8.00003 7.28797 7.0946 6.69447 6.01481C5.19887 7.92485 4 10.3659 4 12.9995C4 16.9995 6.66667 20.9995 12 20.9995C17.3333 20.9995 20 16.9995 20 12.9995C20 7.55516 14.8768 2.93415 12.5997 2.125Z" fill="#111111"/>
<path d="M12 20.9995C6.66667 20.9995 4 16.9995 4 12.9995C4 10.3659 5.19887 7.92485 6.69447 6.01481C7.28797 7.0946 7.99996 8.00003 7.99996 8.00003C10.0034 8.00003 12.6626 4.51176 12.5997 2.125C14.8768 2.93415 20 7.55516 20 12.9995C20 16.9995 17.3333 20.9995 12 20.9995ZM12 20.9995C12.8627 20.999 13.7325 20.72 14.4047 20.1509C17.2979 17.7017 15.0263 13.2955 13.4087 12.4868C11.8032 13.2895 7.29753 16.348 8.94572 19.3339C9.55296 20.4339 10.7692 21.0003 12 20.9995Z" stroke="#111111" stroke-width="2" stroke-linecap="round" stroke-linejoin="round"/>
</svg>
