<svg width="24" height="24" viewBox="0 0 24 24" fill="none" xmlns="http://www.w3.org/2000/svg">
<path opacity="0.28" d="M2 20.5664V5.06641C4.99481 3.35509 8.9751 3.96646 12 5.06642C15.0249 3.96646 19.0052 3.3551 22 5.06642V20.5664C18.8032 19.1964 14.9369 20.165 12 21.5C9.06309 20.165 5.19684 19.1964 2 20.5664Z" fill="#111111"/>
<path d="M12 21.5V5.06642M12 21.5C14.9369 20.165 18.8032 19.1964 22 20.5664V5.06642C19.0052 3.3551 15.0249 3.96646 12 5.06642M12 21.5C9.06309 20.165 5.19684 19.1964 2 20.5664V5.06641C4.99481 3.35509 8.9751 3.96646 12 5.06642" stroke="#111111" stroke-width="2" stroke-linecap="round" stroke-linejoin="round"/>
</svg>
