<svg width="24" height="24" viewBox="0 0 24 24" fill="none" xmlns="http://www.w3.org/2000/svg">
<path d="M15.2599 12.0453C15.8416 12.7368 16.3965 13.452 16.923 14.1892C17.0336 14.3439 17.2566 14.3624 17.3911 14.2279L18.6655 12.9535C19.3819 12.2371 19.3819 11.0756 18.6655 10.3592L17.8413 9.53505L19.2555 8.12083C20.4271 6.94926 20.4271 5.04976 19.2555 3.87819C18.084 2.70662 16.1845 2.70662 15.0129 3.87819L13.5987 5.2924L12.7745 4.46825C12.0581 3.75185 10.8966 3.75185 10.1802 4.46825L8.90583 5.74261C8.77135 5.87709 8.78981 6.10014 8.94457 6.21068C9.65427 6.71761 10.3435 7.25078 11.011 7.80887M15.2599 12.0453L8.78282 18.5223C8.41532 18.8898 8.23157 19.0735 8.02052 19.2002C7.73727 19.3702 7.41634 19.4673 7.08638 19.483C6.84052 19.4947 6.5857 19.4438 6.07607 19.3418C5.93656 19.3139 5.82721 19.3207 5.69223 19.3657L4.21689 19.8575C3.72834 20.0204 3.48407 20.1018 3.32163 20.0439C3.18027 19.9934 3.06903 19.8822 3.01862 19.7408C2.96069 19.5784 3.04211 19.3341 3.20496 18.8456L3.69674 17.3702C3.74173 17.2353 3.74854 17.1259 3.72064 16.9864C3.61871 16.4768 3.56775 16.222 3.57944 15.9761C3.59513 15.6461 3.6923 15.3252 3.86228 15.042C3.98893 14.8309 4.17268 14.6472 4.54018 14.2797L11.011 7.80887M15.2599 12.0453C13.97 10.5118 12.5483 9.09427 11.011 7.80887" stroke="#111111" stroke-width="2" stroke-linecap="round" stroke-linejoin="round"/>
</svg>
