<svg width="24" height="24" viewBox="0 0 24 24" fill="none" xmlns="http://www.w3.org/2000/svg">
<path opacity="0.28" d="M12.0001 21.1501C17.0535 21.1501 21.1501 17.0535 21.1501 12.0001C21.1501 6.94669 17.0535 2.8501 12.0001 2.8501C6.94669 2.8501 2.8501 6.94669 2.8501 12.0001C2.8501 17.0535 6.94669 21.1501 12.0001 21.1501Z" fill="#111111"/>
<path d="M12.0001 21.1501C17.0535 21.1501 21.1501 17.0535 21.1501 12.0001C21.1501 6.94669 17.0535 2.8501 12.0001 2.8501C6.94669 2.8501 2.8501 6.94669 2.8501 12.0001C2.8501 17.0535 6.94669 21.1501 12.0001 21.1501Z" stroke="#111111" stroke-width="2" stroke-linecap="round" stroke-linejoin="round"/>
<path d="M15.5353 15.5362L11.4273 12.7331C10.9413 12.4015 10.8766 11.7097 11.2926 11.2936C11.7087 10.8776 12.4005 10.9423 12.7322 11.4283L15.5353 15.5362Z" stroke="#111111" stroke-width="2" stroke-linecap="round" stroke-linejoin="round"/>
</svg>
