<svg width="24" height="24" viewBox="0 0 24 24" fill="none" xmlns="http://www.w3.org/2000/svg">
<path opacity="0.28" d="M12.0001 21.1501C17.0535 21.1501 21.1501 17.0535 21.1501 12.0001C21.1501 6.94669 17.0535 2.8501 12.0001 2.8501C6.94669 2.8501 2.8501 6.94669 2.8501 12.0001C2.8501 17.0535 6.94669 21.1501 12.0001 21.1501Z" fill="#111111"/>
<path d="M12.0001 21.1501C17.0535 21.1501 21.1501 17.0535 21.1501 12.0001C21.1501 6.94669 17.0535 2.8501 12.0001 2.8501C6.94669 2.8501 2.8501 6.94669 2.8501 12.0001C2.8501 17.0535 6.94669 21.1501 12.0001 21.1501Z" stroke="#111111" stroke-width="2" stroke-linecap="round" stroke-linejoin="round"/>
<path d="M8.46509 8.46387L12.5721 11.2679C13.0511 11.5944 13.1171 12.298 12.7071 12.7079C12.297 13.1176 11.5932 13.0512 11.2671 12.5719L8.46509 8.46387Z" stroke="#111111" stroke-width="2" stroke-linecap="round" stroke-linejoin="round"/>
</svg>
