<svg width="24" height="24" viewBox="0 0 24 24" fill="none" xmlns="http://www.w3.org/2000/svg">
<path opacity="0.28" d="M10.685 4.81108C10.8091 4.5692 10.9975 4.36624 11.2295 4.22452C11.4615 4.0828 11.7281 4.00781 12 4.00781C12.2719 4.00781 12.5385 4.0828 12.7705 4.22452C13.0025 4.36624 13.1909 4.5692 13.315 4.81108L20.8 18.6351C21.373 19.6941 20.645 21.0081 19.485 21.0081H4.51501C3.35501 21.0081 2.62701 19.6941 3.20001 18.6351L10.685 4.81108Z" fill="#111111"/>
<path d="M19.3733 16.0688L20.8002 18.7042C21.3733 19.7627 20.645 21.0767 19.4851 21.0767H4.51494C3.35501 21.0767 2.62665 19.7628 3.19979 18.7042L4.62669 16.0688M19.3733 16.0688H4.62669M19.3733 16.0688L16.6661 11.0688M4.62669 16.0688L7.33391 11.0688M16.6661 11.0688L13.3151 4.87994C12.7352 3.8089 11.2648 3.8089 10.6848 4.87994L7.33391 11.0688M16.6661 11.0688H7.33391" stroke="#111111" stroke-width="2" stroke-linecap="round" stroke-linejoin="round"/>
</svg>
