<svg width="24" height="24" viewBox="0 0 24 24" fill="none" xmlns="http://www.w3.org/2000/svg">
<path d="M9 10C9.55228 10 10 9.55228 10 9C10 8.44772 9.55228 8 9 8C8.44772 8 8 8.44772 8 9C8 9.55228 8.44772 10 9 10Z" stroke="#111111" stroke-width="2" stroke-linecap="round" stroke-linejoin="round"/>
<path opacity="0.28" d="M9 4H9.01" stroke="#111111" stroke-width="2" stroke-linecap="round"/>
<path opacity="0.28" d="M9 20H9.01" stroke="#111111" stroke-width="2" stroke-linecap="round"/>
<path opacity="0.28" d="M15 4H15.01" stroke="#111111" stroke-width="2" stroke-linecap="round"/>
<path opacity="0.28" d="M15 20H15.01" stroke="#111111" stroke-width="2" stroke-linecap="round"/>
<path opacity="0.28" d="M20 15H20.01" stroke="#111111" stroke-width="2" stroke-linecap="round"/>
<path opacity="0.28" d="M20 9H20.01" stroke="#111111" stroke-width="2" stroke-linecap="round"/>
<path opacity="0.28" d="M4 9H4.01" stroke="#111111" stroke-width="2" stroke-linecap="round"/>
<path opacity="0.28" d="M4 15H4.01" stroke="#111111" stroke-width="2" stroke-linecap="round"/>
<path d="M9 16C9.55228 16 10 15.5523 10 15C10 14.4477 9.55228 14 9 14C8.44772 14 8 14.4477 8 15C8 15.5523 8.44772 16 9 16Z" stroke="#111111" stroke-width="2" stroke-linecap="round" stroke-linejoin="round"/>
<path d="M15 10C15.5523 10 16 9.55228 16 9C16 8.44772 15.5523 8 15 8C14.4477 8 14 8.44772 14 9C14 9.55228 14.4477 10 15 10Z" stroke="#111111" stroke-width="2" stroke-linecap="round" stroke-linejoin="round"/>
<path d="M15 16C15.5523 16 16 15.5523 16 15C16 14.4477 15.5523 14 15 14C14.4477 14 14 14.4477 14 15C14 15.5523 14.4477 16 15 16Z" stroke="#111111" stroke-width="2" stroke-linecap="round" stroke-linejoin="round"/>
</svg>
