<svg width="24" height="24" viewBox="0 0 24 24" fill="none" xmlns="http://www.w3.org/2000/svg">
<path opacity="0.28" d="M14.268 17.2924L6.70752 9.73193" stroke="#111111" stroke-width="2" stroke-linecap="round" stroke-linejoin="round"/>
<path fill-rule="evenodd" clip-rule="evenodd" d="M12.9679 2.70594C13.813 2.43135 14.7233 2.43135 15.5684 2.70594C16.1101 2.88196 16.5673 3.19176 17.0237 3.57923C17.4642 3.95312 17.9647 4.45369 18.5748 5.0638L18.9362 5.42514C19.5463 6.03525 20.0469 6.53582 20.4208 6.97625C20.8082 7.43267 21.118 7.88986 21.2941 8.43161C21.5686 9.27669 21.5686 10.187 21.2941 11.0321C21.118 11.5738 20.8082 12.031 20.4208 12.4874C20.0469 12.9279 19.5463 13.4284 18.9362 14.0386L14.0385 18.9363C13.4284 19.5463 12.9279 20.0469 12.4874 20.4208C12.031 20.8082 11.5738 21.118 11.0321 21.2941C10.187 21.5686 9.27669 21.5686 8.43161 21.2941C7.88986 21.118 7.43267 20.8082 6.97625 20.4208C6.53582 20.0469 6.03525 19.5463 5.42514 18.9362L5.0638 18.5748C4.45369 17.9647 3.95312 17.4642 3.57923 17.0237C3.19176 16.5673 2.88196 16.1101 2.70594 15.5684C2.43135 14.7233 2.43135 13.813 2.70594 12.9679C2.88196 12.4262 3.19176 11.969 3.57923 11.5126C3.95312 11.0721 4.4537 10.5716 5.0638 9.96148L9.96148 5.0638C10.5716 4.4537 11.0721 3.95312 11.5126 3.57923C11.969 3.19176 12.4262 2.88196 12.9679 2.70594ZM14.9504 4.60805C14.507 4.46398 14.0293 4.46398 13.5859 4.60805C13.3953 4.66999 13.1687 4.79675 12.8069 5.10391C12.4362 5.41865 11.993 5.86069 11.3462 6.5075L6.5075 11.3462C5.86069 11.993 5.41865 12.4362 5.10391 12.8069C4.79675 13.1687 4.66999 13.3953 4.60805 13.5859C4.46398 14.0293 4.46398 14.507 4.60805 14.9504C4.66999 15.141 4.79675 15.3676 5.10391 15.7294C5.41866 16.1001 5.86069 16.5433 6.5075 17.1901L6.80992 17.4925C7.45673 18.1393 7.89986 18.5813 8.2706 18.8961C8.63242 19.2032 8.859 19.33 9.04965 19.3919C9.49304 19.536 9.97066 19.536 10.4141 19.3919C10.6047 19.33 10.8313 19.2032 11.1931 18.8961C11.5638 18.5813 12.007 18.1393 12.6538 17.4925L17.4925 12.6538C18.1393 12.007 18.5813 11.5638 18.8961 11.1931C19.2032 10.8313 19.33 10.6047 19.3919 10.4141C19.536 9.97066 19.536 9.49304 19.3919 9.04965C19.33 8.859 19.2032 8.63242 18.8961 8.2706C18.5813 7.89986 18.1393 7.45673 17.4925 6.80992L17.1901 6.5075C16.5433 5.86069 16.1001 5.41866 15.7294 5.10391C15.3676 4.79675 15.141 4.66999 14.9504 4.60805Z" fill="#111111"/>
</svg>
