<svg width="24" height="24" viewBox="0 0 24 24" fill="none" xmlns="http://www.w3.org/2000/svg">
<path opacity="0.28" d="M20.3442 6.20158L17.7986 3.65599C17.0066 2.86397 16.6106 2.46794 16.1539 2.31957C15.7522 2.18905 15.3195 2.18905 14.9178 2.31957C14.4612 2.46794 14.0652 2.86396 13.2731 3.65599L3.65648 13.2726C2.86445 14.0647 2.46843 14.4607 2.32005 14.9174C2.18954 15.319 2.18954 15.7517 2.32005 16.1534C2.46843 16.6101 2.86446 17.0061 3.65648 17.7981L6.20207 20.3437C6.9941 21.1357 7.39012 21.5318 7.84678 21.6801C8.24846 21.8107 8.68116 21.8107 9.08284 21.6801C9.5395 21.5318 9.93552 21.1357 10.7276 20.3437L20.3442 10.7271C21.1362 9.93503 21.5323 9.53901 21.6806 9.08236C21.8111 8.68067 21.8111 8.24797 21.6806 7.84629C21.5323 7.38963 21.1362 6.99361 20.3442 6.20158Z" stroke="#111111" stroke-width="2" stroke-linecap="round" stroke-linejoin="round"/>
<path d="M3.72168 12.7073L7.25721 16.2428M9.37902 7.05029L12.9146 10.5858M12.2072 4.22192L14.3285 6.34324M6.54988 9.87891L8.6712 12.0002" stroke="#111111" stroke-width="2" stroke-linecap="round" stroke-linejoin="round"/>
</svg>
