<svg width="24" height="24" viewBox="0 0 24 24" fill="none" xmlns="http://www.w3.org/2000/svg">
<path opacity="0.28" d="M19 19C18.4477 19 18 19.4477 18 20C18 20.5523 18.4477 21 19 21V19ZM22 21C22.5523 21 23 20.5523 23 20C23 19.4477 22.5523 19 22 19V21ZM5.27248 5.34549L6.16349 5.79948V5.79948L5.27248 5.34549ZM6.36502 4.25295L5.91103 3.36195L5.91103 3.36195L6.36502 4.25295ZM11 4.98047C11.5523 4.98047 12 4.53275 12 3.98047C12 3.42818 11.5523 2.98047 11 2.98047V4.98047ZM2 19C1.44772 19 1 19.4477 1 20C1 20.5523 1.44772 21 2 21V19ZM11 21C11.5523 21 12 20.5523 12 20C12 19.4477 11.5523 19 11 19V21ZM19 20V21H22V20V19H19V20ZM5 7.98047H6C6 7.2639 6.00078 6.78662 6.03074 6.41991C6.05975 6.06487 6.11105 5.9024 6.16349 5.79948L5.27248 5.34549L4.38148 4.8915C4.16143 5.32336 4.07649 5.77832 4.03738 6.25704C3.99922 6.72409 4 7.2969 4 7.98047H5ZM9 3.98047V2.98047C8.31644 2.98047 7.74362 2.97969 7.27657 3.01785C6.79785 3.05696 6.34289 3.1419 5.91103 3.36195L6.36502 4.25295L6.81901 5.14396C6.92194 5.09152 7.0844 5.04022 7.43944 5.01121C7.80615 4.98125 8.28343 4.98047 9 4.98047V3.98047ZM5.27248 5.34549L6.16349 5.79948C6.3073 5.51724 6.53677 5.28777 6.81901 5.14396L6.36502 4.25295L5.91103 3.36195C5.25247 3.6975 4.71703 4.23293 4.38148 4.8915L5.27248 5.34549ZM9 3.98047V4.98047H11V3.98047V2.98047H9V3.98047ZM5 7.98047H4V20H5H6V7.98047H5ZM2 20V21H5V20V19H2V20ZM5 20V21H11V20V19H5V20Z" fill="#111111"/>
<path d="M11 20.7137V3.30889C11 2.53316 11 2.14529 11.1629 1.89601C11.3054 1.67794 11.5274 1.52409 11.7817 1.46721C12.0723 1.4022 12.4355 1.53839 13.1618 1.81076L16.4045 3.02678C17.3403 3.37768 17.8081 3.55314 18.1529 3.857C18.4575 4.12544 18.6922 4.46402 18.8365 4.84347C19 5.27301 19 5.7727 19 6.77209V17.2842C19 18.2928 19 18.797 18.8341 19.2295C18.6876 19.6114 18.4495 19.9516 18.1409 20.2201C17.7914 20.524 17.3176 20.6968 16.3701 21.0422L13.148 22.2169C12.4254 22.4804 12.0642 22.6121 11.7754 22.5456C11.5228 22.4874 11.3027 22.3333 11.1614 22.1159C11 21.8674 11 21.4829 11 20.7137Z" stroke="#111111" stroke-width="2" stroke-linecap="round" stroke-linejoin="round"/>
<path d="M14.9473 11.6179H14.0293" stroke="#111111" stroke-width="2" stroke-linecap="round" stroke-linejoin="round"/>
</svg>
