<svg width="24" height="24" viewBox="0 0 24 24" fill="none" xmlns="http://www.w3.org/2000/svg">
<path opacity="0.28" d="M12 2C7.61818 2 4 5.42813 4 9.73684C4 12.0938 5.08994 14.1967 6.7906 15.6089C7.33765 16.0632 7.70411 16.5451 7.8356 17.0513L8.11544 18.1286C8.40172 19.2306 9.3965 20 10.5351 20H13.4649C14.6035 20 15.5983 19.2306 15.8846 18.1286L16.1644 17.0513C16.2959 16.5451 16.6623 16.0632 17.2094 15.6089C18.9101 14.1967 20 12.0938 20 9.73684C20 5.42813 16.3818 2 12 2Z" fill="#111111"/>
<path d="M10 22H14M12.3846 6.69922L10.5486 9.39922C10.4279 9.56229 10.5429 9.77307 10.7729 9.81037L13.2271 10.2083C13.4553 10.2453 13.5708 10.4535 13.4535 10.6165L11.3671 13.2992" stroke="#111111" stroke-width="2" stroke-linecap="round" stroke-linejoin="round"/>
</svg>
