<svg width="24" height="24" viewBox="0 0 24 24" fill="none" xmlns="http://www.w3.org/2000/svg">
<path opacity="0.28" d="M7.96449 5C7.06273 4.99999 6.33531 4.99999 5.74331 5.04038C5.13456 5.08191 4.59628 5.16948 4.08658 5.3806C2.86144 5.88807 1.88807 6.86144 1.3806 8.08658C1.16948 8.59628 1.08191 9.13456 1.04038 9.74331C0.999988 10.3353 0.999993 11.0627 1 11.9645V12.0355C0.999993 12.9373 0.999988 13.6647 1.04038 14.2567C1.08191 14.8654 1.16948 15.4037 1.3806 15.9134C1.88807 17.1386 2.86144 18.1119 4.08658 18.6194C4.59628 18.8305 5.13456 18.9181 5.74331 18.9596C6.33531 19 7.06271 19 7.96445 19H14.0355C14.9373 19 15.6647 19 16.2567 18.9596C16.8654 18.9181 17.4037 18.8305 17.9134 18.6194C19.1386 18.1119 20.1119 17.1386 20.6194 15.9134C20.7447 15.611 20.8265 15.2984 20.8809 14.9671C20.972 14.9548 21.0609 14.9379 21.147 14.9148C22.0098 14.6836 22.6836 14.0098 22.9148 13.147C23.0013 12.8242 23.0007 12.4618 23.0001 12.0931L23 12L23.0001 11.9069C23.0007 11.5382 23.0013 11.1758 22.9148 10.853C22.6836 9.99022 22.0098 9.31635 21.147 9.08519C21.0609 9.06211 20.972 9.04524 20.8809 9.03291C20.8265 8.70157 20.7447 8.38904 20.6194 8.08658C20.1119 6.86144 19.1386 5.88807 17.9134 5.3806C17.4037 5.16948 16.8654 5.08191 16.2567 5.04038C15.6647 4.99999 14.9373 4.99999 14.0355 5H7.96449Z" fill="#111111"/>
<path d="M11.9999 6L8.16862 10.9807C7.80165 11.4577 7.61816 11.6963 7.62728 11.88C7.63519 12.0395 7.71879 12.1856 7.85227 12.2732C8.0061 12.3742 8.30471 12.3369 8.90195 12.2622L13.0978 11.7378C13.6951 11.6631 13.9937 11.6258 14.1475 11.7268C14.281 11.8144 14.3646 11.9605 14.3725 12.12C14.3816 12.3037 14.1981 12.5423 13.8312 13.0193L9.9999 18" stroke="#111111" stroke-width="2" stroke-linecap="round" stroke-linejoin="round"/>
</svg>
