<svg width="24" height="24" viewBox="0 0 24 24" fill="none" xmlns="http://www.w3.org/2000/svg">
<path opacity="0.28" d="M8.35719 2C7.27341 1.99999 6.39925 1.99998 5.69138 2.05782C4.96253 2.11737 4.32234 2.24318 3.73005 2.54497C2.78924 3.02434 2.02434 3.78924 1.54497 4.73005C1.24318 5.32234 1.11737 5.96253 1.05782 6.69138C0.999983 7.39926 0.99999 8.27341 1 9.35719V10.6428C0.99999 11.7266 0.999982 12.6007 1.05782 13.3086C1.11737 14.0375 1.24318 14.6777 1.54497 15.27C2.02434 16.2108 2.78924 16.9757 3.73005 17.455C4.32234 17.7568 4.96253 17.8826 5.69138 17.9422C6.39926 18 7.27342 18 8.35722 18H15.6428C16.7266 18 17.6007 18 18.3086 17.9422C19.0375 17.8826 19.6777 17.7568 20.27 17.455C21.2108 16.9757 21.9757 16.2108 22.455 15.27C22.7568 14.6777 22.8826 14.0375 22.9422 13.3086C23 12.6008 23 11.7267 23 10.6429V9.35717C23 8.27344 23 7.39923 22.9422 6.69138C22.8826 5.96253 22.7568 5.32234 22.455 4.73005C21.9757 3.78924 21.2108 3.02434 20.27 2.54497C19.6777 2.24318 19.0375 2.11737 18.3086 2.05782C17.6007 1.99998 16.7266 1.99999 15.6428 2H8.35719Z" fill="#111111"/>
<path d="M16 13H8M6 7H6.01M10 7H10.01M14 7H14.01M18 7H18.01M6 10H6.01M10 10H10.01M14 10H14.01M18 10H18.01" stroke="#111111" stroke-width="2" stroke-linecap="round" stroke-linejoin="round"/>
<path d="M7 20.1658L12 22.1658L17 20.1658" stroke="#111111" stroke-width="2" stroke-linecap="round" stroke-linejoin="round"/>
</svg>
