<svg width="24" height="24" viewBox="0 0 24 24" fill="none" xmlns="http://www.w3.org/2000/svg">
<path opacity="0.28" d="M16.5 1C16.5 0.447715 16.0523 0 15.5 0C14.9477 0 14.5 0.447715 14.5 1C14.5 1.27614 14.2761 1.5 14 1.5H13.75C12.3155 1.5 11.1375 2.59837 11.0112 4L8.35719 4C7.27342 3.99999 6.39925 3.99998 5.69138 4.05782C4.96253 4.11737 4.32234 4.24318 3.73005 4.54497C2.78924 5.02433 2.02433 5.78924 1.54497 6.73005C1.24318 7.32234 1.11737 7.96253 1.05782 8.69138C0.999982 9.39925 0.99999 10.2734 1 11.3572V12.6428C0.99999 13.7266 0.999982 14.6007 1.05782 15.3086C1.11737 16.0375 1.24318 16.6777 1.54497 17.27C2.02433 18.2108 2.78924 18.9757 3.73005 19.455C4.32234 19.7568 4.96253 19.8826 5.69138 19.9422C6.39923 20 7.27334 20 8.35707 20H15.6428C16.7266 20 17.6008 20 18.3086 19.9422C19.0375 19.8826 19.6777 19.7568 20.27 19.455C21.2108 18.9757 21.9757 18.2108 22.455 17.27C22.7568 16.6777 22.8826 16.0375 22.9422 15.3086C23 14.6008 23 13.7267 23 12.6429V11.3572C23 10.2734 23 9.39923 22.9422 8.69138C22.8826 7.96253 22.7568 7.32234 22.455 6.73005C21.9757 5.78924 21.2108 5.02433 20.27 4.54497C19.6777 4.24318 19.0375 4.11737 18.3086 4.05782C17.6008 3.99998 16.7266 3.99999 15.6428 4L13.0427 4C13.1456 3.7087 13.4234 3.5 13.75 3.5H14C15.3807 3.5 16.5 2.38071 16.5 1Z" fill="#111111"/>
<path d="M16 15H8M6 9H6.01M10 9H10.01M14 9H14.01M18 9H18.01M6 12H6.01M10 12H10.01M14 12H14.01M18 12H18.01" stroke="#111111" stroke-width="2" stroke-linecap="round" stroke-linejoin="round"/>
</svg>
