<svg width="24" height="24" viewBox="0 0 24 24" fill="none" xmlns="http://www.w3.org/2000/svg">
<path opacity="0.28" d="M19 3C20.6569 3 22 4.34315 22 6V18C22 19.6569 20.6569 21 19 21H11C10.4477 21 10 20.5523 10 20V4L10.0049 3.89746C10.0562 3.39333 10.4823 3 11 3H19Z" fill="#111111"/>
<path d="M6.5 2C7.88071 2 9 3.11929 9 4.5V19.5C9 20.8807 7.88071 22 6.5 22H4.5C3.11929 22 2 20.8807 2 19.5V4.5C2 3.11929 3.11929 2 4.5 2H6.5Z" fill="#111111"/>
<path d="M14.5 16C15.0523 16 15.5 16.4477 15.5 17C15.5 17.5523 15.0523 18 14.5 18H13C12.4477 18 12 17.5523 12 17C12 16.4477 12.4477 16 13 16H14.5Z" fill="#111111"/>
<path d="M19 16C19.5523 16 20 16.4477 20 17C20 17.5523 19.5523 18 19 18H17.5C16.9477 18 16.5 17.5523 16.5 17C16.5 16.4477 16.9477 16 17.5 16H19Z" fill="#111111"/>
<path d="M14.5 13C15.0523 13 15.5 13.4477 15.5 14C15.5 14.5523 15.0523 15 14.5 15H13C12.4477 15 12 14.5523 12 14C12 13.4477 12.4477 13 13 13H14.5Z" fill="#111111"/>
<path d="M19 13C19.5523 13 20 13.4477 20 14C20 14.5523 19.5523 15 19 15H17.5C16.9477 15 16.5 14.5523 16.5 14C16.5 13.4477 16.9477 13 17.5 13H19Z" fill="#111111"/>
<path d="M19.1025 5.00488C19.6067 5.05621 20 5.48232 20 6V10C20 10.5523 19.5523 11 19 11H13C12.4477 11 12 10.5523 12 10V6L12.0049 5.89746C12.0562 5.39333 12.4823 5 13 5H19L19.1025 5.00488Z" fill="#111111"/>
</svg>
