<svg width="24" height="24" viewBox="0 0 24 24" fill="none" xmlns="http://www.w3.org/2000/svg">
<path opacity="0.28" d="M12 20.875V17M12 20.875C10.25 20.875 8.5 21.25 7 22M12 20.875C13.75 20.875 15.5 21.25 17 22" stroke="#111111" stroke-width="2" stroke-linecap="round" stroke-linejoin="round"/>
<path fill-rule="evenodd" clip-rule="evenodd" d="M22.564 2.82619C22.6724 2.75212 22.7653 2.65742 22.8371 2.54748C22.909 2.43754 22.9585 2.31452 22.9829 2.18545C23.0072 2.05637 23.0058 1.92377 22.9789 1.79521C22.952 1.66666 22.9 1.54466 22.826 1.43619C22.7519 1.32771 22.6572 1.23489 22.5473 1.16302C22.4373 1.09115 22.3143 1.04164 22.1852 1.01731C22.0562 0.992979 21.9236 0.994311 21.795 1.02123C21.6664 1.04815 21.5444 1.10012 21.436 1.17419C20.0416 2.1262 18.8306 3.32203 17.861 4.70419L16.707 3.55119C16.6141 3.45834 16.5038 3.38471 16.3824 3.33448C16.261 3.28426 16.131 3.25844 15.9996 3.25848C15.8683 3.25853 15.7382 3.28445 15.6169 3.33475C15.4956 3.38506 15.3853 3.45878 15.2925 3.55169C15.1996 3.6446 15.126 3.75488 15.0758 3.87625C15.0255 3.99762 14.9997 4.12769 14.9998 4.25904C14.9998 4.39039 15.0257 4.52044 15.076 4.64177C15.1264 4.76311 15.2001 4.87334 15.293 4.96619L17.33 7.00019C17.4386 7.10869 17.5708 7.19071 17.7163 7.2399C17.8618 7.28908 18.0166 7.3041 18.1688 7.28379C18.321 7.26348 18.4665 7.20839 18.594 7.12279C18.7215 7.03719 18.8276 6.92338 18.904 6.79019C19.8082 5.20883 21.0596 3.85343 22.564 2.82619ZM4.36397 1.00019H18.455C18.187 1.24819 17.928 1.50519 17.678 1.77119C17.0593 1.35625 16.3085 1.18622 15.5714 1.29418C14.8344 1.40213 14.1638 1.78035 13.6901 2.35528C13.2165 2.93021 12.9736 3.66075 13.0087 4.40484C13.0437 5.14893 13.3543 5.85338 13.88 6.38119L15.916 8.41519C16.2422 8.74096 16.639 8.98718 17.0758 9.13473C17.5126 9.28228 17.9775 9.32718 18.4344 9.26595C18.8913 9.20473 19.328 9.03902 19.7105 8.78169C20.093 8.52436 20.4111 8.18235 20.64 7.78219C21.2495 6.71661 22.0494 5.77195 23 4.99519V14.6362C23 15.0262 23 15.3762 22.976 15.6662C22.9585 16.0025 22.8742 16.3319 22.728 16.6352C22.4881 17.1055 22.1055 17.4877 21.635 17.7272C21.3321 17.8738 21.003 17.9588 20.667 17.9772C20.375 18.0002 20.025 18.0002 19.637 18.0002H4.36297C3.97297 18.0002 3.62297 18.0002 3.33297 17.9762C2.99672 17.9586 2.66733 17.8743 2.36397 17.7282C1.89333 17.4885 1.5107 17.1058 1.27097 16.6352C1.12498 16.3321 1.04068 16.0031 1.02297 15.6672C1.00223 15.3243 0.994555 14.9807 0.999973 14.6372V4.36319C0.999973 3.97319 0.999973 3.62319 1.02397 3.33319C1.04897 3.02019 1.10697 2.68919 1.27197 2.36419C1.5117 1.89354 1.89433 1.51091 2.36497 1.27119C2.68997 1.10619 3.02097 1.04819 3.33297 1.02319C3.62497 1.00019 3.97597 1.00019 4.36397 1.00019Z" fill="#111111"/>
</svg>
