<svg width="24" height="24" viewBox="0 0 24 24" fill="none" xmlns="http://www.w3.org/2000/svg">
<path fill-rule="evenodd" clip-rule="evenodd" d="M4.36397 1H16.356C15.7216 1.62627 15.1347 2.29879 14.6 3.012C14.2657 3.45771 14.0621 3.9877 14.0121 4.54258C13.9621 5.09747 14.0675 5.65532 14.3167 6.15364C14.5659 6.65196 14.9489 7.07105 15.4228 7.36395C15.8967 7.65686 16.4428 7.812 17 7.812V9C17 9.79565 17.316 10.5587 17.8787 11.1213C18.4413 11.6839 19.2043 12 20 12C20.7956 12 21.5587 11.6839 22.1213 11.1213C22.6839 10.5587 23 9.79565 23 9V14.636C23 15.026 23 15.376 22.976 15.666C22.9585 16.0023 22.8742 16.3317 22.728 16.635C22.4881 17.1053 22.1055 17.4875 21.635 17.727C21.3321 17.8738 21.003 17.9587 20.667 17.977C20.375 18 20.025 18 19.637 18H4.36297C3.97297 18 3.62297 18 3.33297 17.976C2.99671 17.9585 2.6673 17.8742 2.36397 17.728C1.89333 17.4883 1.5107 17.1056 1.27097 16.635C1.12498 16.332 1.04068 16.0029 1.02297 15.667C1.00223 15.3241 0.994554 14.9805 0.999974 14.637V4.363C0.999974 3.973 0.999974 3.623 1.02397 3.333C1.04897 3.02 1.10697 2.689 1.27197 2.364C1.5117 1.89335 1.89433 1.51073 2.36497 1.271C2.68997 1.106 3.02097 1.048 3.33297 1.023C3.62497 1 3.97597 1 4.36397 1ZM20 1C19.62 1 19.24 1.127 18.927 1.38C17.905 2.20831 16.9891 3.15949 16.2 4.212C16.0408 4.42417 15.9725 4.69087 16.01 4.95342C16.0475 5.21597 16.1878 5.45287 16.4 5.612C16.6121 5.77113 16.8788 5.83946 17.1414 5.80195C17.4039 5.76444 17.6408 5.62417 17.8 5.412C18.1688 4.92016 18.5697 4.45315 19 4.014V9C19 9.26522 19.1053 9.51957 19.2929 9.70711C19.4804 9.89464 19.7348 10 20 10C20.2652 10 20.5195 9.89464 20.7071 9.70711C20.8946 9.51957 21 9.26522 21 9V4.014C21.4302 4.45315 21.8311 4.92016 22.2 5.412C22.3591 5.62417 22.596 5.76444 22.8586 5.80195C22.9886 5.82052 23.1209 5.81331 23.2482 5.78071C23.3754 5.74812 23.4949 5.69079 23.6 5.612C23.705 5.53321 23.7935 5.43449 23.8604 5.32149C23.9274 5.20849 23.9714 5.08342 23.9899 4.95342C24.0085 4.82342 24.0013 4.69103 23.9687 4.56382C23.9361 4.43661 23.8788 4.31706 23.8 4.212C23.0108 3.15949 22.0949 2.20831 21.073 1.38C20.7695 1.13401 20.3906 0.999845 20 1Z" fill="#111111"/>
<path opacity="0.28" d="M12 20.875V17M12 20.875C10.25 20.875 8.5 21.25 7 22M12 20.875C13.75 20.875 15.5 21.25 17 22" stroke="#111111" stroke-width="2" stroke-linecap="round" stroke-linejoin="round"/>
</svg>
