<svg width="24" height="24" viewBox="0 0 24 24" fill="none" xmlns="http://www.w3.org/2000/svg">
<path opacity="0.28" d="M12 20.875V17M12 20.875C10.25 20.875 8.5 21.25 7 22M12 20.875C13.75 20.875 15.5 21.25 17 22" stroke="#111111" stroke-width="2" stroke-linecap="round" stroke-linejoin="round"/>
<path fill-rule="evenodd" clip-rule="evenodd" d="M17.74 1.10451C17.6483 1.00683 17.5379 0.928588 17.4153 0.874419C17.2927 0.82025 17.1605 0.791264 17.0266 0.789183C16.8926 0.787102 16.7596 0.811969 16.6354 0.862306C16.5112 0.912643 16.3984 0.987423 16.3037 1.08221C16.209 1.17699 16.1343 1.28984 16.084 1.41406C16.0338 1.53827 16.009 1.67132 16.0112 1.8053C16.0133 1.93928 16.0424 2.07145 16.0967 2.19397C16.1509 2.31649 16.2293 2.42686 16.327 2.51851L18.094 4.28651L16.327 6.05451C16.1448 6.24311 16.044 6.49572 16.0463 6.75791C16.0486 7.02011 16.1538 7.27092 16.3392 7.45633C16.5246 7.64174 16.7754 7.74691 17.0376 7.74919C17.2998 7.75146 17.5524 7.65067 17.741 7.46851L19.509 5.69951L21.276 7.46751C21.3688 7.56042 21.4791 7.63414 21.6004 7.68444C21.7217 7.73475 21.8518 7.76067 21.9831 7.76072C22.1145 7.76076 22.2446 7.73494 22.3659 7.68471C22.4873 7.63449 22.5976 7.56086 22.6905 7.46801C22.7834 7.37517 22.8571 7.26493 22.9074 7.1436C22.9577 7.02227 22.9837 6.89221 22.9837 6.76087C22.9837 6.62952 22.9579 6.49945 22.9077 6.37808C22.8575 6.25671 22.7838 6.14642 22.691 6.05351L20.923 4.28551L22.691 2.51751C22.7838 2.4246 22.8575 2.31432 22.9077 2.19295C22.9579 2.07158 22.9837 1.94151 22.9837 1.81016C22.9837 1.67881 22.9577 1.54876 22.9074 1.42743C22.8571 1.30609 22.7834 1.19586 22.6905 1.10301C22.5976 1.01017 22.4873 0.936533 22.3659 0.886311C22.2446 0.836089 22.1145 0.810264 21.9831 0.81031C21.8518 0.810357 21.7217 0.836274 21.6004 0.886581C21.4791 0.936889 21.3688 1.0106 21.276 1.10351L19.51 2.87251L17.74 1.10451ZM4.365 0.999513H14.146C14.0019 1.51246 13.997 2.05455 14.1318 2.57003C14.2666 3.08551 14.5362 3.55579 14.913 3.93251L15.267 4.28651L14.913 4.63951C14.6344 4.91811 14.4134 5.24886 14.2626 5.61286C14.1118 5.97687 14.0342 6.36701 14.0342 6.76101C14.0342 7.55673 14.3503 8.31986 14.913 8.88251C15.4757 9.44517 16.2388 9.76127 17.0345 9.76127C17.4285 9.76127 17.8186 9.68366 18.1826 9.53289C18.5467 9.38211 18.8774 9.16111 19.156 8.88251L19.51 8.52951L19.863 8.88251C20.2654 9.28507 20.7741 9.56484 21.3295 9.68914C21.885 9.81345 22.4644 9.77716 23 9.58451V14.6355C23 15.0255 23 15.3755 22.976 15.6655C22.9585 16.0018 22.8742 16.3312 22.728 16.6345C22.4881 17.1048 22.1055 17.487 21.635 17.7265C21.3321 17.8733 21.0031 17.9583 20.667 17.9765C20.375 17.9995 20.025 17.9995 19.637 17.9995H4.363C3.973 17.9995 3.623 17.9995 3.333 17.9755C2.99673 17.958 2.66732 17.8737 2.364 17.7275C1.89335 17.4878 1.51073 17.1052 1.271 16.6345C1.125 16.3315 1.0407 16.0024 1.023 15.6665C1 15.3745 1 15.0245 1 14.6365V4.36251C1 3.97251 1 3.62251 1.024 3.33251C1.049 3.01951 1.107 2.68851 1.272 2.36351C1.51173 1.89287 1.89435 1.51024 2.365 1.27051C2.69 1.10551 3.021 1.04751 3.333 1.02251C3.625 0.999513 3.975 0.999513 4.363 0.999513H4.365Z" fill="#111111"/>
</svg>
