<svg width="24" height="24" viewBox="0 0 24 24" fill="none" xmlns="http://www.w3.org/2000/svg">
<path opacity="0.28" d="M11.9998 12C12.3786 12 12.725 12.214 12.8944 12.5527L16.8944 20.5527L16.9354 20.6465C17.1151 21.1204 16.9102 21.663 16.4471 21.8945C15.9841 22.1259 15.4274 21.9642 15.1561 21.5361L15.1053 21.4473L11.9998 15.2363L8.89438 21.4473C8.64735 21.9412 8.04652 22.1415 7.55258 21.8945C7.05883 21.6475 6.85846 21.0466 7.10531 20.5527L11.1053 12.5527L11.1766 12.4316C11.3615 12.1638 11.6685 12.0001 11.9998 12Z" fill="#111111"/>
<path fill-rule="evenodd" clip-rule="evenodd" d="M19.7127 2.30769C20.2129 2.22684 20.7028 2.53717 20.8368 3.03718L23.285 12.1739C23.4278 12.7073 23.1113 13.2556 22.578 13.3985L20.6463 13.9161C19.4673 14.232 18.2662 13.7978 17.5428 12.9083L14.9696 13.421C14.9679 13.433 14.9675 13.4451 14.9657 13.4571C14.7456 14.8971 13.5013 16.0001 11.9998 16.0001C10.902 16 9.94461 15.4084 9.42172 14.5284L4.035 15.6026C3.00126 15.8087 1.98461 15.1764 1.71176 14.1583L1.16098 12.1046C0.888327 11.0865 1.45288 10.0309 2.45102 9.69245L3.30453 9.40339L3.13266 8.75886C2.98975 8.22538 3.30622 7.67716 3.83969 7.53425C4.37302 7.39162 4.92141 7.70797 5.0643 8.24128L5.20297 8.75886L15.4969 5.2696C15.6794 4.13865 16.5023 3.16345 17.6805 2.84772L19.6122 2.33015L19.7127 2.30769ZM3.0936 11.587L3.6434 13.6407L9.0311 12.5655C9.24167 11.1147 10.4907 10.0002 11.9998 10.0001C13.0352 10.0001 13.948 10.5246 14.4872 11.3223C14.5174 11.3671 14.5433 11.4146 14.5711 11.461L16.7655 11.0235L15.7645 7.29011L3.0936 11.587Z" fill="#111111"/>
</svg>
