<svg width="24" height="24" viewBox="0 0 24 24" fill="none" xmlns="http://www.w3.org/2000/svg">
<path opacity="0.28" d="M15.5996 2C16.7032 2 17.5914 1.99903 18.3086 2.05762C19.0373 2.11715 19.6773 2.24326 20.2695 2.54492C21.2103 3.02429 21.9757 3.78966 22.4551 4.73047L22.5605 4.9541C22.7877 5.48344 22.8903 6.05359 22.9424 6.69141C23.001 7.40857 23 8.29681 23 9.40039V14.5996C23 15.7032 23.001 16.5914 22.9424 17.3086C22.8903 17.9464 22.7877 18.5166 22.5605 19.0459L22.4551 19.2695C21.9757 20.2103 21.2103 20.9757 20.2695 21.4551C19.6773 21.7567 19.0373 21.8828 18.3086 21.9424C17.5914 22.001 16.7032 22 15.5996 22H8.40039C7.29681 22 6.40857 22.001 5.69141 21.9424C5.05359 21.8903 4.48344 21.7877 3.9541 21.5605L3.73047 21.4551C2.78966 20.9757 2.02429 20.2103 1.54492 19.2695C1.24326 18.6773 1.11715 18.0373 1.05762 17.3086C0.999027 16.5914 1 15.7032 1 14.5996V9.40039C1 8.29681 0.999026 7.40857 1.05762 6.69141C1.11715 5.9627 1.24326 5.32266 1.54492 4.73047C2.02429 3.78966 2.78966 3.02429 3.73047 2.54492C4.32266 2.24326 4.9627 2.11715 5.69141 2.05762C6.40857 1.99903 7.29681 2 8.40039 2H15.5996Z" fill="#111111"/>
<path d="M2 13H12M12 13H22M12 13V21" stroke="#111111" stroke-width="2" stroke-linecap="square" stroke-linejoin="round"/>
</svg>
