<svg width="24" height="24" viewBox="0 0 24 24" fill="none" xmlns="http://www.w3.org/2000/svg">
<g opacity="0.28">
<path d="M6 4C3.23857 4 1 6.23857 1 9V15C1 15.5069 1.07574 15.9978 1.2172 16.4613C1.31971 16.7971 1.59083 17.0546 1.9315 17.1396C2.27217 17.2246 2.63247 17.1248 2.88075 16.8765L14.0367 5.72049C14.3123 5.44494 14.4027 5.03441 14.2683 4.66861C14.134 4.30281 13.7993 4.04838 13.4109 4.0167C13.2752 4.00563 13.1382 4 13 4H6Z" fill="#111111"/>
<path fill-rule="evenodd" clip-rule="evenodd" d="M23 9.29197C23 6.74294 20.0222 5.35534 18.0704 6.99486L17.7042 7.30249C17.6599 7.17984 17.611 7.05938 17.5576 6.94133C17.33 6.43812 16.7376 6.21469 16.2344 6.44228C15.7312 6.66986 15.5077 7.2623 15.7353 7.76551C15.7882 7.88252 15.8339 8.00361 15.8717 8.12826L5.99992 18C5.76675 18 5.541 17.9736 5.32502 17.924C4.78674 17.8004 4.25019 18.1366 4.1266 18.6749C4.00302 19.2131 4.33919 19.7497 4.87747 19.8733C5.23926 19.9563 5.61515 20 6 20H13C15.1654 20 17.0093 18.6234 17.7044 16.6977L18.0704 17.0051C20.0222 18.6446 23 17.2571 23 14.708V9.29197ZM18.0013 10.0801C18.0156 9.80403 18.1439 9.54512 18.3568 9.36626L19.3568 8.52626C20.0074 7.97976 21 8.4423 21 9.29197V14.708C21 15.5577 20.0074 16.0202 19.3568 15.4737L18.3568 14.6337C18.1425 14.4537 18.014 14.1927 18.0011 13.9145L18.0013 10.0801Z" fill="#111111"/>
</g>
<path d="M2 22L22 2" stroke="#111111" stroke-width="2" stroke-linecap="round" stroke-linejoin="round"/>
</svg>
