<svg width="24" height="24" viewBox="0 0 24 24" fill="none" xmlns="http://www.w3.org/2000/svg">
<path opacity="0.28" fill-rule="evenodd" clip-rule="evenodd" d="M22 8.8V8.759C22 7.954 22 7.289 21.956 6.749C21.91 6.186 21.811 5.669 21.564 5.184C21.1805 4.43139 20.5686 3.81949 19.816 3.436C19.331 3.189 18.814 3.09 18.252 3.044C17.71 3 17.046 3 16.242 3H7.758C6.953 3 6.288 3 5.748 3.044C5.185 3.09 4.668 3.189 4.183 3.436C3.43039 3.81949 2.81849 4.43139 2.435 5.184C2.188 5.669 2.089 6.186 2.043 6.748C2 7.29 2 7.954 2 8.758V15.242C2 16.047 2 16.712 2.044 17.252C2.09 17.815 2.189 18.332 2.436 18.817C2.81949 19.5696 3.43139 20.1815 4.184 20.565C4.669 20.812 5.186 20.911 5.748 20.957C6.29 21 6.954 21 7.758 21H16.241C17.046 21 17.711 21 18.251 20.956C18.814 20.91 19.331 20.811 19.816 20.564C20.5686 20.1805 21.1805 19.5686 21.564 18.816C21.811 18.331 21.91 17.814 21.956 17.252C22 16.711 22 16.046 22 15.242V8.8Z" fill="#111111"/>
<path fill-rule="evenodd" clip-rule="evenodd" d="M13.8 5.99996H13.777C13.657 5.99996 13.516 5.99996 13.39 6.00996C13.1914 6.0231 12.9973 6.07544 12.819 6.16396C12.537 6.30772 12.3078 6.53699 12.164 6.81896C12.0755 6.99728 12.0232 7.19133 12.01 7.38996C12 7.51596 12 7.65796 12 7.77696V16.223C12 16.343 12 16.485 12.01 16.61C12.022 16.755 12.053 16.963 12.164 17.181C12.3078 17.4629 12.537 17.6922 12.819 17.836C13.037 17.948 13.245 17.978 13.39 17.99C13.515 18 13.658 18 13.777 18H17.223C17.343 18 17.485 18 17.61 17.99C17.8086 17.9771 18.0026 17.9251 18.181 17.837C18.4631 17.6929 18.6924 17.4633 18.836 17.181C18.948 16.963 18.978 16.755 18.99 16.61C19 16.485 19 16.342 19 16.223V7.77696C19 7.65696 19 7.51596 18.99 7.38996C18.9772 7.1914 18.9252 6.99733 18.837 6.81896C18.693 6.53684 18.4633 6.30755 18.181 6.16396C18.0027 6.07542 17.8086 6.02307 17.61 6.00996C17.4812 6.00156 17.3521 5.99822 17.223 5.99996H13.8Z" fill="#111111"/>
</svg>
