<svg
  xmlns="http://www.w3.org/2000/svg"
  width="24"
  height="24"
  viewBox="0 0 24 24"
  fill="none"
  stroke="currentColor"
  stroke-width="2"
  stroke-linecap="round"
  stroke-linejoin="round"
>
  <path d="M12.0001 21.1501C17.0535 21.1501 21.1501 17.0535 21.1501 12.0001C21.1501 6.94669 17.0535 2.8501 12.0001 2.8501C6.94669 2.8501 2.8501 6.94669 2.8501 12.0001C2.8501 17.0535 6.94669 21.1501 12.0001 21.1501Z" fill="currentColor" opacity="0.28"/>
  <path d="M12.0001 8.24625C14.0733 8.24625 15.7539 9.92691 15.7539 12.0001C15.7539 14.0733 14.0733 15.7539 12.0001 15.7539C9.92691 15.7539 8.24625 14.0733 8.24625 12.0001C8.24625 9.92691 9.92691 8.24625 12.0001 8.24625ZM12.0001 8.24625H20.3471M8.75297 13.8771L4.57568 6.65099M15.2472 13.877L11.0783 21.1042M11.0783 21.1042C11.3815 21.1346 11.689 21.1501 12.0001 21.1501C17.0535 21.1501 21.1501 17.0535 21.1501 12.0001C21.1501 6.94669 17.0535 2.8501 12.0001 2.8501C8.94375 2.8501 6.2374 4.34861 4.57568 6.65099M11.0783 21.1042C6.45778 20.642 2.8501 16.7424 2.8501 12.0001C2.8501 10.003 3.48989 8.15541 4.57568 6.65099" stroke="currentColor" stroke-width="2"/>
</svg>