<svg width="24" height="24" viewBox="0 0 24 24" fill="none" xmlns="http://www.w3.org/2000/svg">
<g opacity="0.28">
<path d="M16.2932 19.2932C16.6594 18.9273 17.2384 18.9044 17.6311 19.2249L17.7073 19.2922L18.7063 20.2932C19.0968 20.6837 19.0978 21.3168 18.7073 21.7073C18.3168 22.0977 17.6837 22.0975 17.2932 21.7073L16.2932 20.7073C15.9028 20.3168 15.903 19.6837 16.2932 19.2932Z" fill="#111111"/>
<path d="M6.36938 19.2249C6.7622 18.9044 7.34116 18.927 7.70728 19.2932C8.07309 19.6592 8.09656 20.2384 7.77661 20.6311L7.7063 20.7073L6.7063 21.7073C6.31569 22.0972 5.68351 22.0967 5.29321 21.7063C4.90292 21.3158 4.90294 20.6837 5.29321 20.2932L6.29321 19.2932L6.36938 19.2249Z" fill="#111111"/>
<path d="M6.00024 1.00024C8.20938 1.00024 10.0002 2.79111 10.0002 5.00024V6.00024C10.0001 6.55242 9.55245 7.00024 9.00024 7.00024C8.44804 7.00024 8.00038 6.55242 8.00024 6.00024V5.00024C8.00024 3.89567 7.10481 3.00024 6.00024 3.00024C4.89567 3.00024 4.00024 3.89567 4.00024 5.00024V11.0002C4.00011 11.5524 3.55245 12.0002 3.00024 12.0002C2.44804 12.0002 2.00038 11.5524 2.00024 11.0002V5.00024C2.00024 2.79111 3.79111 1.00024 6.00024 1.00024Z" fill="#111111"/>
</g>
<path d="M22 10C22.4044 10 22.7691 10.2436 22.9239 10.6172C23.0786 10.9908 22.993 11.421 22.7071 11.707C22.5655 11.8486 22.4769 11.9379 22.417 12.001L22.2989 12.1377C22.1865 12.2881 22.1033 12.4577 22.0537 12.6377L22.0157 12.8213C22.0027 12.9114 22 13.0137 22 13.4141V15.2002C22 16.0237 22.0011 16.7016 21.9561 17.252C21.9159 17.7438 21.8356 18.2011 21.6504 18.6328L21.5645 18.8164C21.2289 19.4749 20.7183 20.0259 20.0918 20.4102L19.8164 20.5645C19.3312 20.8117 18.814 20.9101 18.252 20.9561C17.7016 21.001 17.0237 21 16.2002 21H7.79984C6.97639 21 6.29844 21.001 5.74808 20.9561C5.25626 20.9159 4.79893 20.8356 4.36722 20.6504L4.18363 20.5645C3.52517 20.2289 2.97417 19.7183 2.58988 19.0918L2.43558 18.8164C2.18831 18.3311 2.08991 17.814 2.04398 17.252C1.99901 16.7016 2.00003 16.0237 2.00003 15.2002V13.4141C2.00003 13.2136 1.99933 13.0879 1.9971 13.001L1.98441 12.8213C1.95752 12.6354 1.89609 12.4563 1.80374 12.2939L1.7012 12.1377C1.67391 12.1012 1.64298 12.0641 1.58304 12.001L1.293 11.707C1.007 11.421 0.921423 10.9909 1.0762 10.6172C1.23102 10.2436 1.59563 10 2.00003 10H22Z" fill="#111111"/>
<path d="M11 5C11.5523 5.00002 12 5.44772 12 6C12 6.55228 11.5523 6.99998 11 7H7.00003C6.44775 7 6.00003 6.55228 6.00003 6C6.00003 5.44772 6.44775 5 7.00003 5H11Z" fill="#111111"/>
</svg>
