<svg
  xmlns="http://www.w3.org/2000/svg"
  width="24"
  height="24"
  viewBox="0 0 24 24"
  fill="none"
  stroke="currentColor"
  stroke-width="2"
  stroke-linecap="round"
  stroke-linejoin="round"
>
  <path d="M2.8501 11.9996C2.8501 7.43165 6.19743 3.64551 10.573 2.96024C11.038 2.88741 11.5147 2.84961 12.0001 2.84961C17.0535 2.84961 21.1501 6.94621 21.1501 11.9996C21.1501 12.1303 21.1474 12.2603 21.1419 12.3896C20.9376 17.2621 16.9228 21.1496 12.0001 21.1496C11.5147 21.1496 11.038 21.1118 10.573 21.039C6.3226 20.3733 3.04245 16.7816 2.85826 12.3897C2.85284 12.2603 2.8501 12.1303 2.8501 11.9996Z" fill="currentColor" opacity="0.28"/>
  <path d="M21.1419 12.3896C21.1474 12.2603 21.1501 12.1303 21.1501 11.9996C21.1501 6.94621 17.0535 2.84961 12.0001 2.84961C11.5147 2.84961 11.038 2.88741 10.573 2.96024M21.1419 12.3896C20.9376 17.2621 16.9228 21.1496 12.0001 21.1496C11.5147 21.1496 11.038 21.1118 10.573 21.039M21.1419 12.3896C17.3392 13.8814 13.1088 14.2738 9.05971 13.8508M9.05971 13.8508C6.78746 13.6133 4.68389 13.1058 2.85826 12.3897M9.05971 13.8508C9.23122 16.4973 9.76595 18.9472 10.573 21.039M9.05971 13.8508C8.82185 10.1804 9.24482 6.40269 10.573 2.96024M2.85826 12.3897C2.85284 12.2603 2.8501 12.1303 2.8501 11.9996C2.8501 7.43165 6.19743 3.64551 10.573 2.96024M2.85826 12.3897C3.04245 16.7816 6.3226 20.3733 10.573 21.039" stroke="currentColor" stroke-width="2"/>
</svg>