<svg width="24" height="24" viewBox="0 0 24 24" fill="none" xmlns="http://www.w3.org/2000/svg">
<path opacity="0.28" fill-rule="evenodd" clip-rule="evenodd" d="M10.4181 1.9721C10.9415 1.8905 11.4704 1.84971 12.0001 1.8501C17.6061 1.8501 22.1501 6.3941 22.1501 12.0001C22.1501 12.1441 22.1471 12.2881 22.1411 12.4311C21.9141 17.8371 17.4611 22.1501 12.0011 22.1501C11.471 22.1502 10.9418 22.1091 10.4181 22.0271C5.7021 21.2881 2.0641 17.3051 1.8591 12.4321C1.85308 12.2882 1.85008 12.1441 1.8501 12.0001C1.8501 6.9311 5.5641 2.7331 10.4181 1.9721ZM12.0001 5.0001C10.1726 5.04379 8.43456 5.80047 7.15746 7.10846C5.88037 8.41646 5.16544 10.172 5.16544 12.0001C5.16544 13.8282 5.88037 15.5837 7.15746 16.8917C8.43456 18.1997 10.1726 18.9564 12.0001 19.0001C13.8566 19.0001 15.6371 18.2626 16.9498 16.9498C18.2626 15.6371 19.0001 13.8566 19.0001 12.0001C19.0001 10.1436 18.2626 8.36311 16.9498 7.05035C15.6371 5.7376 13.8566 5.0001 12.0001 5.0001ZM11.2201 7.0601C11.8688 6.95754 12.5313 6.98374 13.1698 7.13722C13.8083 7.2907 14.4104 7.56844 14.9416 7.9546C15.4728 8.34075 15.9227 8.82775 16.2657 9.38779C16.6087 9.94782 16.838 10.5699 16.9406 11.2186C17.0432 11.8673 17.017 12.5298 16.8635 13.1683C16.71 13.8069 16.4323 14.4089 16.0461 14.9401C15.66 15.4713 15.173 15.9212 14.6129 16.2642C14.0529 16.6072 13.4308 16.8365 12.7821 16.9391C11.4721 17.1464 10.1333 16.8247 9.06045 16.045C7.98755 15.2652 7.26836 14.0911 7.0611 12.7811C6.85383 11.4711 7.17546 10.1323 7.95524 9.05945C8.73502 7.98656 9.90906 7.26737 11.2191 7.0601H11.2201Z" fill="#111111"/>
<path d="M12.0001 21.1501V2.8501M2.8501 12.0001H21.1501" stroke="#111111" stroke-width="2" stroke-linecap="round" stroke-linejoin="round"/>
</svg>
