<svg width="24" height="24" viewBox="0 0 24 24" fill="none" xmlns="http://www.w3.org/2000/svg">
<g opacity="0.28">
<path d="M17.5307 6.30448C16.7956 6 15.8638 6 14 6H8C6.13623 6 5.20435 6 4.46927 6.30448C3.48915 6.71046 2.71046 7.48915 2.30448 8.46927C2 9.20435 2 10.1362 2 12C2 13.8638 2 14.7956 2.30448 15.5307C2.71046 16.5108 3.48915 17.2895 4.46927 17.6955C4.88239 17.8666 5.35767 17.9416 6.02559 17.9744L17.6457 6.35426C17.6077 6.33709 17.5694 6.3205 17.5307 6.30448Z" fill="#111111"/>
<path d="M20.2979 8.75376C20.6638 8.88817 20.9182 9.22287 20.9498 9.61132C21 10.2288 21 10.9942 21 11.956V12.0353C21 12.937 21 13.6646 20.9596 14.2565C20.9181 14.8653 20.8305 15.4035 20.6194 15.9132C20.1119 17.1383 19.1385 18.1117 17.9134 18.6192C17.4037 18.8303 16.8654 18.9179 16.2567 18.9594C15.6647 18.9998 14.9373 18.9998 14.0356 18.9998H11.6457C11.2412 18.9998 10.8766 18.7562 10.7218 18.3825C10.567 18.0088 10.6526 17.5787 10.9386 17.2927L19.246 8.98531C19.5215 8.70972 19.9321 8.61935 20.2979 8.75376Z" fill="#111111"/>
</g>
<path d="M19.9731 14C20.4381 14 20.6975 14 20.8882 13.9489C21.4059 13.8102 21.8102 13.4059 21.9489 12.8882C22 12.6975 22 12.465 22 12C22 11.535 22 11.3025 21.9489 11.1118C21.8102 10.5941 21.4059 10.1898 20.8882 10.0511C20.6975 10 20.4381 10 19.9731 10M21 3L17.6457 6.35428M3 21L6.02559 17.9744M17.6457 6.35428C17.6077 6.33712 17.5694 6.32052 17.5307 6.30451C16.7956 6.00003 15.8638 6.00003 14 6.00003H8C6.13623 6.00003 5.20435 6.00003 4.46927 6.30451C3.48915 6.71049 2.71046 7.48918 2.30448 8.4693C2 9.20438 2 10.1362 2 12C2 13.8638 2 14.7956 2.30448 15.5307C2.71046 16.5108 3.48915 17.2895 4.46927 17.6955C4.88239 17.8667 5.35767 17.9416 6.02559 17.9744M17.6457 6.35428L6.02559 17.9744M19.9531 9.69261C20 10.2694 20 11.0008 20 12C20 13.8638 20 14.7956 19.6955 15.5307C19.2895 16.5108 18.5108 17.2895 17.5307 17.6955C16.7956 18 15.8638 18 14 18H11.6457" stroke="#111111" stroke-width="2" stroke-linecap="round" stroke-linejoin="round"/>
</svg>
