<svg width="24" height="24" viewBox="0 0 24 24" fill="none" xmlns="http://www.w3.org/2000/svg">
<path opacity="0.28" d="M12.6 2H11.4C9.15979 2 8.03968 2 7.18404 2.43597C6.43139 2.81947 5.81947 3.43139 5.43597 4.18404C5 5.03968 5 6.15979 5 8.4V15.6C5 17.8402 5 18.9603 5.43597 19.816C5.81947 20.5686 6.43139 21.1805 7.18404 21.564C8.03968 22 9.15979 22 11.4 22H12.6C14.8402 22 15.9603 22 16.816 21.564C17.5686 21.1805 18.1805 20.5686 18.564 19.816C19 18.9603 19 17.8402 19 15.6V8.4C19 6.15979 19 5.03968 18.564 4.18404C18.1805 3.43139 17.5686 2.81947 16.816 2.43597C15.9603 2 14.8402 2 12.6 2Z" fill="#111111"/>
<path d="M13 2.00004C12.8708 1.99994 12.7375 2.00004 12.6 2.00004H11.4C11.2625 2.00004 11.1292 1.99994 11 2.00004M13 2.00004C14.9767 2.00159 16.0128 2.0268 16.816 2.43602C17.5686 2.81951 18.1805 3.43143 18.564 4.18408C19 5.03973 19 6.15983 19 8.40004V15.6C19 17.8403 19 18.9604 18.564 19.816C18.1805 20.5687 17.5686 21.1806 16.816 21.5641C15.9603 22 14.8402 22 12.6 22H11.4C9.15979 22 8.03968 22 7.18404 21.5641C6.43139 21.1806 5.81947 20.5687 5.43597 19.816C5 18.9604 5 17.8403 5 15.6V8.40004C5 6.15983 5 5.03973 5.43597 4.18408C5.81947 3.43143 6.43139 2.81951 7.18404 2.43602C7.98717 2.0268 9.0233 2.00159 11 2.00004M13 2.00004V3.00004H11V2.00004" stroke="#111111" stroke-width="2" stroke-linecap="round" stroke-linejoin="round"/>
<path d="M10 19H14" stroke="#111111" stroke-width="2" stroke-linecap="round" stroke-linejoin="round"/>
</svg>
