<svg width="24" height="24" viewBox="0 0 24 24" fill="none" xmlns="http://www.w3.org/2000/svg">
<path opacity="0.28" fill-rule="evenodd" clip-rule="evenodd" d="M22 5.933L21.995 5.939H22V5.933ZM21.134 7.003H22V14.6C22 15.44 22 15.86 21.837 16.181C21.693 16.4631 21.4633 16.6924 21.181 16.836C20.861 17 20.441 17 19.6 17H4.4C3.56 17 3.14 17 2.819 16.837C2.53651 16.6931 2.30685 16.4635 2.163 16.181C2 15.861 2 15.441 2 14.6V4.4C2 3.56 2 3.14 2.163 2.819C2.30685 2.53651 2.53651 2.30685 2.819 2.163C3.139 2 3.559 2 4.4 2H13.51V2.585C13.1221 3.16254 12.9469 3.85691 13.0144 4.54934C13.0819 5.24177 13.3879 5.88924 13.88 6.381L15.916 8.415C16.2422 8.74078 16.6391 8.987 17.0758 9.13454C17.5126 9.28209 17.9775 9.32699 18.4344 9.26577C18.8913 9.20454 19.328 9.03883 19.7105 8.7815C20.093 8.52418 20.4111 8.18216 20.64 7.782C20.793 7.515 20.958 7.255 21.134 7.004V7.003Z" fill="#111111"/>
<path d="M12.6936 2.00007H4.4C3.55992 2.00007 3.13988 2.00007 2.81901 2.16356C2.53677 2.30737 2.3073 2.53684 2.16349 2.81908C2 3.13995 2 3.55999 2 4.40007V14.6001C2 15.4401 2 15.8602 2.16349 16.1811C2.3073 16.4633 2.53677 16.6928 2.81901 16.8366C3.13988 17.0001 3.55992 17.0001 4.4 17.0001H12M22 7.51562V14.6001C22 15.4401 22 15.8602 21.8365 16.1811C21.6927 16.4633 21.4632 16.6928 21.181 16.8366C20.8601 17.0001 20.4401 17.0001 19.6 17.0001H12M12 20.8751V17.0001M12 20.8751C10.25 20.8751 8.5 21.2501 7 22.0001M12 20.8751C13.75 20.8751 15.5 21.2501 17 22.0001" stroke="#111111" stroke-width="2" stroke-linecap="round" stroke-linejoin="round"/>
<path d="M16 4.2587L18.0362 6.2927C19.0155 4.5802 20.3709 3.1125 22 2" stroke="#111111" stroke-width="2" stroke-linecap="round" stroke-linejoin="round"/>
</svg>
