<svg width="24" height="24" viewBox="0 0 24 24" fill="none" xmlns="http://www.w3.org/2000/svg">
<path opacity="0.28" d="M13 19C15.2091 19 17 17.2091 17 15V9C17 6.79086 15.2091 5 13 5H6C3.79086 5 2 6.79086 2 9V15C2 17.2091 3.79086 19 6 19H13Z" fill="#111111"/>
<path d="M17.0011 13.9337C17.0197 14.5002 17.278 15.0335 17.7136 15.3994L18.7136 16.2394C20.0148 17.3324 22 16.4074 22 14.708V9.29197C22 7.59262 20.0148 6.66755 18.7136 7.76056L17.7136 8.60056C17.28 8.96481 17.022 9.49498 17.0013 10.0586M17.0011 13.9337L17 15C17 17.2091 15.2091 19 13 19H6C3.79086 19 2 17.2091 2 15V9C2 6.79086 3.79086 5 6 5H13C15.2091 5 17 6.79086 17 9L17.0013 10.0586M17.0011 13.9337L17.0013 10.0586" stroke="#111111" stroke-width="2" stroke-linecap="round" stroke-linejoin="round"/>
<path d="M12.8492 13.3937C13.0237 12.1724 13.0468 10.9349 12.9183 9.70931C12.901 9.54355 12.827 9.39541 12.716 9.28436M8.6066 9.1511C9.82794 8.97662 11.0654 8.95359 12.291 9.08201C12.4568 9.09937 12.6049 9.17332 12.716 9.28436M12.716 9.28436L7 14.9971" stroke="#111111" stroke-width="2" stroke-linecap="round" stroke-linejoin="round"/>
</svg>
