<svg width="24" height="24" viewBox="0 0 24 24" fill="none" xmlns="http://www.w3.org/2000/svg">
<path d="M8 5C8 6.10457 7.10457 7 6 7C4.89543 7 4 6.10457 4 5C4 3.89543 4.89543 3 6 3C7.10457 3 8 3.89543 8 5Z" stroke="#111111" stroke-width="2" stroke-linecap="round" stroke-linejoin="round"/>
<path d="M3.1813 12.3648C3.42489 10.9966 4.61455 10 6.00426 10C7.39532 10 8.58573 10.9985 8.82784 12.3683L10 19H8L7.51506 20.8358C7.3338 21.5219 6.71306 21.9999 6.00335 21.9998C5.29591 21.9997 4.6767 21.5246 4.49354 20.8412L4 19L2 18.9999L3.1813 12.3648Z" stroke="#111111" stroke-width="2" stroke-linecap="round" stroke-linejoin="round"/>
<path d="M20 5C20 6.10457 19.1046 7 18 7C16.8954 7 16 6.10457 16 5C16 3.89543 16.8954 3 18 3C19.1046 3 20 3.89543 20 5Z" stroke="#111111" stroke-width="2" stroke-linecap="round" stroke-linejoin="round"/>
<path d="M15.1813 12.3648C15.4249 10.9966 16.6145 10 18.0043 10C19.3953 10 20.5857 10.9985 20.8278 12.3683L22 19H20L19.5151 20.8358C19.3338 21.5219 18.7131 21.9999 18.0033 21.9998C17.2959 21.9997 16.6767 21.5246 16.4935 20.8412L16 19L14 18.9999L15.1813 12.3648Z" stroke="#111111" stroke-width="2" stroke-linecap="round" stroke-linejoin="round"/>
</svg>
