<svg width="24" height="24" viewBox="0 0 24 24" fill="none" xmlns="http://www.w3.org/2000/svg">
<path d="M8 5C8 6.10457 7.10457 7 6 7C4.89543 7 4 6.10457 4 5C4 3.89543 4.89543 3 6 3C7.10457 3 8 3.89543 8 5Z" stroke="#111111" stroke-width="2" stroke-linecap="round" stroke-linejoin="round"/>
<path d="M2.27077 12.7509C2.40034 11.196 3.70014 10 5.2604 10H6.73781C8.29882 10 9.59898 11.1971 9.72761 12.7528L10 16.0471L8 15.9999L7.7082 20.4024C7.64862 21.3013 6.90211 22 6.00122 22C5.10069 22 4.35435 21.3019 4.29429 20.4034L4 16L2 16.0001L2.27077 12.7509Z" stroke="#111111" stroke-width="2" stroke-linecap="round" stroke-linejoin="round"/>
<path d="M20 5C20 6.10457 19.1046 7 18 7C16.8954 7 16 6.10457 16 5C16 3.89543 16.8954 3 18 3C19.1046 3 20 3.89543 20 5Z" stroke="#111111" stroke-width="2" stroke-linecap="round" stroke-linejoin="round"/>
<path d="M14.2708 12.7509C14.4003 11.196 15.7001 10 17.2604 10H18.7378C20.2988 10 21.599 11.1971 21.7276 12.7528L22 16.0471L20 15.9999L19.7082 20.4024C19.6486 21.3013 18.9021 22 18.0012 22C17.1007 22 16.3543 21.3019 16.2943 20.4034L16 16L14 16.0001L14.2708 12.7509Z" stroke="#111111" stroke-width="2" stroke-linecap="round" stroke-linejoin="round"/>
</svg>
