<svg
  xmlns="http://www.w3.org/2000/svg"
  width="24"
  height="24"
  viewBox="0 0 24 24"
  fill="none"
  stroke="currentColor"
  stroke-width="2"
  stroke-linecap="round"
  stroke-linejoin="round"
>
  <path d="M14.0001 13H10.0001M14.0001 13C15.1047 13 16.0001 13.8954 16.0001 15V20.2313M14.0001 13V9.125L12.6668 8L10.0001 10.25V13M10.0001 13C8.89555 13 8.00012 13.8954 8.00012 15V20.2313M16.0001 20.2313C19.049 18.747 21.1501 15.6187 21.1501 11.9996C21.1501 6.94621 17.0535 2.84961 12.0001 2.84961C6.94669 2.84961 2.8501 6.94621 2.8501 11.9996C2.8501 15.6187 4.9512 18.747 8.00012 20.2313M16.0001 20.2313C14.7917 20.8196 13.4345 21.1496 12.0001 21.1496C10.5658 21.1496 9.2085 20.8196 8.00012 20.2313" stroke="currentColor" stroke-width="2"/>
  <path d="M2.8501 12.0001C2.8501 9.57337 3.81411 7.24603 5.53007 5.53007C7.24603 3.81411 9.57337 2.8501 12.0001 2.8501C14.4268 2.8501 16.7542 3.81411 18.4701 5.53007C20.1861 7.24603 21.1501 9.57337 21.1501 12.0001C21.1501 14.4268 20.1861 16.7542 18.4701 18.4701C16.7542 20.1861 14.4268 21.1501 12.0001 21.1501C9.57337 21.1501 7.24603 20.1861 5.53007 18.4701C3.81411 16.7542 2.8501 14.4268 2.8501 12.0001Z" fill="currentColor" opacity="0.28"/>
</svg>