<svg
  xmlns="http://www.w3.org/2000/svg"
  width="24"
  height="24"
  viewBox="0 0 24 24"
  fill="none"
  stroke="currentColor"
  stroke-width="2"
  stroke-linecap="round"
  stroke-linejoin="round"
>
  <path d="M14.2682 17.2924L13.3609 18.1996C13.0594 18.5011 12.7936 18.7669 12.5539 19M14.2682 17.2924L18.1996 13.3609C19.4699 12.0906 20.105 11.4555 20.343 10.7231C20.5523 10.0788 20.5523 9.38487 20.343 8.74063C20.105 8.00823 19.4699 7.37309 18.1996 6.10281L17.8972 5.80039C16.6269 4.53011 15.9918 3.89496 15.2594 3.65699C14.6151 3.44767 13.9212 3.44767 13.2769 3.65699C12.5445 3.89496 11.9094 4.53011 10.6391 5.80039L6.70765 9.73185M14.2682 17.2924L6.70765 9.73185M6.70765 9.73185L5.80039 10.6391C4.53011 11.9094 3.89496 12.5445 3.65699 13.2769C3.44767 13.9212 3.44767 14.6151 3.65699 15.2594C3.89496 15.9918 4.53011 16.6269 5.80039 17.8972L6.10281 18.1996C6.4043 18.5011 6.67008 18.7669 6.90981 19H12.5539M12.5539 19H21" stroke="currentColor" stroke-width="2"/>
  <path d="M17.8971 5.80039L18.1995 6.10281C19.4698 7.37309 20.105 8.00823 20.3429 8.74063C20.5523 9.38487 20.5523 10.0788 20.3429 10.7231C20.105 11.4555 19.4698 12.0906 18.1995 13.3609L14.2822 17.2783L6.72168 9.71776L10.639 5.80039C11.9093 4.53011 12.5445 3.89496 13.2769 3.65699C13.9211 3.44767 14.6151 3.44767 15.2593 3.65699C15.9917 3.89496 16.6268 4.53011 17.8971 5.80039Z" fill="currentColor" opacity="0.28"/>
</svg>