<svg
  xmlns="http://www.w3.org/2000/svg"
  width="24"
  height="24"
  viewBox="0 0 24 24"
  fill="none"
  stroke="currentColor"
  stroke-width="2"
  stroke-linecap="round"
  stroke-linejoin="round"
>
  <path d="M10.7828 18.5228L11.4899 19.2299L10.7828 18.5228ZM5.20496 18.8461L6.15365 19.1623V19.1623L5.20496 18.8461ZM5.69674 17.3707L6.64543 17.687L6.64543 17.6869L5.69674 17.3707ZM7.69223 19.3662L8.00846 20.3149H8.00846L7.69223 19.3662ZM6.21689 19.858L5.90066 18.9093H5.90066L6.21689 19.858ZM8.07607 19.3423L8.27219 18.3617L8.27219 18.3617L8.07607 19.3423ZM5.72064 16.9869L4.74006 17.183L4.74006 17.183L5.72064 16.9869ZM5.01862 19.7413L5.96052 19.4055L5.96052 19.4055L5.01862 19.7413ZM5.32163 20.0443L5.65751 19.1024H5.65751L5.32163 20.0443ZM5.86228 15.0424L6.71973 15.557L5.86228 15.0424ZM5.57944 15.9766L6.57831 16.0241V16.0241L5.57944 15.9766ZM10.0205 19.2007L10.5351 20.0581L10.0205 19.2007ZM9.08638 19.4835L9.03889 18.4846H9.03888L9.08638 19.4835ZM10.9058 5.7431L10.1987 5.03599L10.9058 5.7431ZM12.1802 4.46874L12.8873 5.17585L12.1802 4.46874ZM14.7745 4.46874L14.0674 5.17585L14.7745 4.46874ZM15.5987 5.29289L14.8916 6C15.2821 6.39052 15.9153 6.39052 16.3058 6L15.5987 5.29289ZM17.0129 3.87868L16.3058 3.17157V3.17157L17.0129 3.87868ZM21.2555 8.12132L21.9626 8.82843L21.9626 8.82843L21.2555 8.12132ZM19.8413 9.53553L19.1342 8.82843C18.9467 9.01596 18.8413 9.27032 18.8413 9.53553C18.8413 9.80075 18.9467 10.0551 19.1342 10.2426L19.8413 9.53553ZM20.6655 10.3597L21.3726 9.65258L21.3726 9.65258L20.6655 10.3597ZM20.6655 12.954L19.9584 12.2469V12.2469L20.6655 12.954ZM19.3911 14.2284L20.0982 14.9355V14.9355L19.3911 14.2284ZM10.9446 6.21117L10.3633 7.02491H10.3633L10.9446 6.21117ZM18.923 14.1896L19.7368 13.6084V13.6084L18.923 14.1896ZM17.2599 12.0457L18.0251 11.402L17.2599 12.0457ZM4 10C4 10.5523 4.44772 11 5 11C5.55228 11 6 10.5523 6 10H4ZM6 4C6 3.44772 5.55228 3 5 3C4.44772 3 4 3.44772 4 4H6ZM2 6C1.44772 6 1 6.44771 1 7C1 7.55228 1.44772 8 2 8V6ZM8 8C8.55228 8 9 7.55228 9 7C9 6.44771 8.55228 6 8 6V8ZM5.20496 18.8461L6.15365 19.1623L6.64543 17.687L5.69674 17.3707L4.74806 17.0545L4.25628 18.5298L5.20496 18.8461ZM7.69223 19.3662L7.376 18.4175L5.90066 18.9093L6.21689 19.858L6.53312 20.8067L8.00846 20.3149L7.69223 19.3662ZM5.20496 18.8461L4.25628 18.5298C4.18116 18.7552 4.10191 18.9898 4.05551 19.1872C4.0126 19.3699 3.94631 19.7115 4.07671 20.0772L5.01862 19.7413L5.96052 19.4055C5.99887 19.513 6.00119 19.5998 5.99967 19.6397C5.99834 19.6747 5.99363 19.6824 6.00248 19.6447C6.01091 19.6089 6.02608 19.5546 6.05287 19.4694C6.07945 19.385 6.11214 19.2868 6.15365 19.1623L5.20496 18.8461ZM6.21689 19.858L5.90066 18.9093C5.77615 18.9508 5.67798 18.9835 5.59353 19.0101C5.5084 19.0369 5.45408 19.052 5.41822 19.0605C5.38053 19.0693 5.38823 19.0646 5.4233 19.0633C5.46314 19.0618 5.54997 19.0641 5.65751 19.1024L5.32163 20.0443L4.98575 20.9862C5.35144 21.1167 5.6931 21.0504 5.87572 21.0074C6.07319 20.961 6.30776 20.8818 6.53312 20.8067L6.21689 19.858ZM5.01862 19.7413L4.07671 20.0772C4.22794 20.5013 4.56166 20.835 4.98575 20.9862L5.32163 20.0443L5.65751 19.1024C5.79887 19.1528 5.91011 19.2641 5.96052 19.4055L5.01862 19.7413ZM6.54018 14.2801L5.83307 13.573C5.50187 13.9042 5.20975 14.1864 5.00482 14.5279L5.86228 15.0424L6.71973 15.557C6.76811 15.4764 6.84349 15.391 7.24728 14.9872L6.54018 14.2801ZM5.72064 16.9869L6.70122 16.7908C6.58923 16.2308 6.57385 16.118 6.57831 16.0241L5.57944 15.9766L4.58057 15.9291C4.56166 16.3269 4.6482 16.7237 4.74006 17.183L5.72064 16.9869ZM5.86228 15.0424L5.00482 14.5279C4.74986 14.9527 4.6041 15.4342 4.58057 15.9291L5.57944 15.9766L6.57831 16.0241C6.58616 15.8591 6.63474 15.6986 6.71973 15.557L5.86228 15.0424ZM10.7828 18.5228L10.0757 17.8157C9.67191 18.2195 9.58657 18.2949 9.50596 18.3432L10.0205 19.2007L10.5351 20.0581C10.8766 19.8532 11.1587 19.5611 11.4899 19.2299L10.7828 18.5228ZM8.07607 19.3423L7.87996 20.3229C8.33925 20.4148 8.73606 20.5013 9.13387 20.4824L9.08638 19.4835L9.03888 18.4846C8.94498 18.4891 8.83216 18.4737 8.27219 18.3617L8.07607 19.3423ZM10.0205 19.2007L9.50596 18.3432C9.36433 18.4282 9.20386 18.4768 9.03889 18.4846L9.08638 19.4835L9.13386 20.4824C9.62881 20.4589 10.1102 20.3131 10.5351 20.0581L10.0205 19.2007ZM10.9058 5.7431L11.6129 6.45021L12.8873 5.17585L12.1802 4.46874L11.4731 3.76164L10.1987 5.03599L10.9058 5.7431ZM14.7745 4.46874L14.0674 5.17585L14.8916 6L15.5987 5.29289L16.3058 4.58579L15.4816 3.76164L14.7745 4.46874ZM15.5987 5.29289L16.3058 6L17.72 4.58579L17.0129 3.87868L16.3058 3.17157L14.8916 4.58579L15.5987 5.29289ZM21.2555 8.12132L20.5484 7.41421L19.1342 8.82843L19.8413 9.53553L20.5484 10.2426L21.9626 8.82843L21.2555 8.12132ZM19.8413 9.53553L19.1342 10.2426L19.9584 11.0668L20.6655 10.3597L21.3726 9.65258L20.5484 8.82843L19.8413 9.53553ZM20.6655 12.954L19.9584 12.2469L18.684 13.5213L19.3911 14.2284L20.0982 14.9355L21.3726 13.6611L20.6655 12.954ZM20.6655 10.3597L19.9584 11.0668C20.2842 11.3927 20.2842 11.921 19.9584 12.2469L20.6655 12.954L21.3726 13.6611C22.4795 12.5542 22.4795 10.7595 21.3726 9.65258L20.6655 10.3597ZM21.2555 3.87868L20.5484 4.58579C21.3295 5.36683 21.3295 6.63317 20.5484 7.41421L21.2555 8.12132L21.9626 8.82843C23.5247 7.26633 23.5247 4.73367 21.9626 3.17157L21.2555 3.87868ZM12.1802 4.46874L12.8873 5.17585C13.2132 4.84997 13.7415 4.84997 14.0674 5.17585L14.7745 4.46874L15.4816 3.76164C14.3747 2.6547 12.58 2.6547 11.4731 3.76164L12.1802 4.46874ZM18.923 14.1896L18.1093 14.7709C18.579 15.4285 19.5268 15.5069 20.0982 14.9355L19.3911 14.2284L18.684 13.5213C18.9865 13.2188 19.4881 13.2603 19.7368 13.6084L18.923 14.1896ZM17.0129 3.87868L17.72 4.58579C18.501 3.80474 19.7674 3.80474 20.5484 4.58579L21.2555 3.87868L21.9626 3.17157C20.4005 1.60948 17.8679 1.60948 16.3058 3.17157L17.0129 3.87868ZM10.9446 6.21117L11.5258 5.39744C11.8739 5.64606 11.9154 6.14773 11.6129 6.45021L10.9058 5.7431L10.1987 5.03599C9.62729 5.60743 9.70574 6.5552 10.3633 7.02491L10.9446 6.21117ZM17.2599 12.0457L16.4946 12.6895C17.0594 13.3609 17.5981 14.0552 18.1093 14.7709L18.923 14.1896L19.7368 13.6084C19.1949 12.8497 18.6238 12.1138 18.0251 11.402L17.2599 12.0457ZM17.2599 12.0457L16.5528 11.3386L10.0757 17.8157L10.7828 18.5228L11.4899 19.2299L17.967 12.7528L17.2599 12.0457ZM10.9446 6.21117L10.3633 7.02491C11.0523 7.51706 11.7215 8.03469 12.3695 8.57652L13.011 7.80935L13.6524 7.04219C12.9655 6.46784 12.2562 5.91913 11.5258 5.39744L10.9446 6.21117ZM13.011 7.80935L12.3695 8.57652C13.862 9.82446 15.2423 11.2007 16.4946 12.6895L17.2599 12.0457L18.0251 11.402C16.6977 9.82393 15.2345 8.36505 13.6524 7.04219L13.011 7.80935ZM6.54018 14.2801L7.24728 14.9872L13.7181 8.51646L13.011 7.80935L12.3039 7.10225L5.83307 13.573L6.54018 14.2801ZM8.07607 19.3423L8.27219 18.3617C7.96203 18.2997 7.67608 18.3175 7.376 18.4175L7.69223 19.3662L8.00846 20.3149C8.01112 20.314 7.98596 20.3224 7.94459 20.325C7.90321 20.3276 7.87721 20.3224 7.87996 20.3229L8.07607 19.3423ZM5.69674 17.3707L6.64543 17.6869C6.74545 17.3869 6.76326 17.1009 6.70122 16.7908L5.72064 16.9869L4.74006 17.183C4.74061 17.1858 4.73538 17.1597 4.73796 17.1184C4.74054 17.077 4.74895 17.0518 4.74806 17.0545L5.69674 17.3707ZM5 10H6V7H5H4V10H5ZM5 7H6V4H5H4V7H5ZM2 7V8H5V7V6H2V7ZM5 7V8H8V7V6H5V7Z" fill="currentColor"/ stroke="none">
  <path d="M12.1802 4.46874L10.9058 5.7431C10.7713 5.87758 10.7898 6.10063 10.9446 6.21117C11.6543 6.7181 12.3435 7.25127 13.011 7.80935C14.5483 9.09476 15.97 10.5123 17.2599 12.0457C17.8416 12.7373 18.3965 13.4524 18.923 14.1896C19.0336 14.3444 19.2566 14.3629 19.3911 14.2284L20.6655 12.954C21.3819 12.2376 21.3819 11.0761 20.6655 10.3597L19.8413 9.53553L21.2555 8.12132C22.4271 6.94975 22.4271 5.05025 21.2555 3.87868C20.084 2.70711 18.1845 2.70711 17.0129 3.87868L15.5987 5.29289L14.7745 4.46874C14.0581 3.75234 12.8966 3.75234 12.1802 4.46874Z" fill="#111111" opacity="0.28"/ stroke="none">
</svg>