<svg
  xmlns="http://www.w3.org/2000/svg"
  width="24"
  height="24"
  viewBox="0 0 24 24"
  fill="none"
  stroke="currentColor"
  stroke-width="2"
  stroke-linecap="round"
  stroke-linejoin="round"
>
  <path d="M2.5 21.5C2.5 20.2738 2.68075 18.5349 3.18042 16.6089M3.18042 16.6089C4.7164 10.6885 9.26594 3 20.8424 3C20.963 6.0602 19.8207 10.291 15.8483 12.1101M3.18042 16.6089C14.3986 18.3287 15.9635 14.7187 15.8483 12.1101M15.8483 12.1101C14.6284 12.6688 13.1415 13 11.3424 13" stroke="currentColor" stroke-width="2"/>
  <path d="M20.8424 3C9.26594 3 4.7164 10.6885 3.18042 16.6089C14.3986 18.3287 15.9635 14.7187 15.8483 12.1101C19.8207 10.291 20.963 6.0602 20.8424 3Z" fill="currentColor" opacity="0.28"/>
</svg>