<svg width="24" height="24" viewBox="0 0 24 24" fill="none" xmlns="http://www.w3.org/2000/svg">
<g opacity="0.28">
<path d="M10.8154 0.999985L10.6886 0.999779C10.1695 0.998514 9.64945 0.997248 9.18754 1.18634C8.78574 1.35082 8.43371 1.6171 8.16609 1.95897C7.85843 2.35199 7.71813 2.85274 7.57808 3.35258L7.54375 3.47471L7.03779 5.26372C6.92704 5.65534 7.06466 6.07501 7.38581 6.32499C7.70697 6.57497 8.14758 6.60538 8.50003 6.4019C8.6128 6.3368 8.7303 6.27875 8.852 6.22835C9.07738 6.13499 9.37259 6.07031 9.8795 6.03573C10.3954 6.00053 11.0545 5.99999 12 5.99999C12.9456 5.99999 13.6047 6.00053 14.1206 6.03573C14.6275 6.07031 14.9227 6.13499 15.1481 6.22835C15.2698 6.27875 15.3873 6.3368 15.5001 6.4019C15.8525 6.60538 16.2931 6.57497 16.6143 6.32499C16.9354 6.07501 17.0731 5.65534 16.9623 5.26372L16.4563 3.47471L16.422 3.35258C16.282 2.85274 16.1417 2.35199 15.834 1.95897C15.5664 1.6171 15.2144 1.35082 14.8126 1.18634C14.3506 0.997248 13.8306 0.998514 13.3115 0.999779L13.1847 0.999985H10.8154Z" fill="#111111"/>
<path d="M8.50003 17.5983C8.14758 17.3948 7.70697 17.4252 7.38581 17.6752C7.06466 17.9252 6.92704 18.3449 7.03779 18.7365L7.54375 20.5255L7.57808 20.6476C7.71813 21.1475 7.85843 21.6482 8.16609 22.0412C8.43371 22.3831 8.78574 22.6494 9.18753 22.8139C9.64945 23.003 10.1695 23.0017 10.6886 23.0004L10.8154 23.0002H13.1847L13.3115 23.0004C13.8306 23.0017 14.3506 23.003 14.8126 22.8139C15.2144 22.6494 15.5664 22.3831 15.834 22.0412C16.1417 21.6482 16.282 21.1475 16.422 20.6476L16.4563 20.5255L16.9623 18.7365C17.0731 18.3449 16.9354 17.9252 16.6143 17.6752C16.2931 17.4252 15.8525 17.3948 15.5001 17.5983C15.3873 17.6634 15.2698 17.7215 15.1481 17.7719C14.9227 17.8652 14.6275 17.9299 14.1206 17.9645C13.6047 17.9997 12.9456 18.0002 12 18.0002C11.0545 18.0002 10.3954 17.9997 9.8795 17.9645C9.37259 17.9299 9.07738 17.8652 8.852 17.7719C8.7303 17.7215 8.61279 17.6634 8.50003 17.5983Z" fill="#111111"/>
</g>
<path d="M18 11V13C18 14.8638 18 15.7956 17.6955 16.5307C17.2895 17.5108 16.5108 18.2895 15.5307 18.6955C14.7956 19 13.8638 19 12 19C10.1362 19 9.20435 19 8.46927 18.6955C7.48915 18.2895 6.71046 17.5108 6.30448 16.5307C6 15.7956 6 14.8638 6 13V11C6 9.13623 6 8.20435 6.30448 7.46927C6.71046 6.48915 7.48915 5.71046 8.46927 5.30448C9.20435 5 10.1362 5 12 5C13.8638 5 14.7956 5 15.5307 5.30448C16.5108 5.71046 17.2895 6.48915 17.6955 7.46927C18 8.20435 18 9.13623 18 11ZM18 11H19V10H18" stroke="#111111" stroke-width="2" stroke-linecap="round" stroke-linejoin="round"/>
</svg>
