<svg width="24" height="24" viewBox="0 0 24 24" fill="none" xmlns="http://www.w3.org/2000/svg">
<path opacity="0.28" d="M20.5014 11.0053C20.3894 11.0002 20.2416 11 20 11C19.4477 11 19 10.5522 19 9.99996C19 9.44768 19.4477 8.99996 20 8.99996C20.0311 8.99996 20.0621 8.99991 20.0931 8.99986C20.4618 8.99925 20.8242 8.99864 21.147 9.08515C22.0098 9.31632 22.6836 9.99019 22.9148 10.8529C23.0013 11.1758 23.0007 11.5382 23.0001 11.9069C23.0001 11.9379 23 11.9689 23 12C23 12.031 23.0001 12.0621 23.0001 12.093C23.0007 12.4618 23.0013 12.8242 22.9148 13.147C22.6836 14.0097 22.0098 14.6836 21.147 14.9148C20.8242 15.0013 20.4618 15.0007 20.0931 15.0001C20.0621 15 20.0311 15 20 15C19.4477 15 19 14.5522 19 14C19 13.4477 19.4477 13 20 13C20.2416 13 20.3894 12.9997 20.5014 12.9946C20.608 12.9897 20.6331 12.9819 20.6294 12.9829C20.802 12.9367 20.9367 12.8019 20.983 12.6294C20.9838 12.6259 20.9904 12.5951 20.9946 12.5014C20.9998 12.3893 21 12.2415 21 12C21 11.7584 20.9998 11.6106 20.9946 11.4986C20.9898 11.3919 20.982 11.3668 20.983 11.3706C20.9367 11.198 20.802 11.0632 20.6294 11.017C20.6259 11.0162 20.5952 11.0096 20.5014 11.0053Z" fill="#111111"/>
<path d="M7.96449 5C7.06273 4.99999 6.33531 4.99999 5.74331 5.04038C5.13456 5.08191 4.59628 5.16948 4.08658 5.3806C2.86144 5.88807 1.88807 6.86144 1.3806 8.08658C1.16948 8.59628 1.08191 9.13456 1.04038 9.74331C0.999988 10.3353 0.999993 11.0627 1 11.9645V12.0355C0.999993 12.9373 0.999988 13.6647 1.04038 14.2567C1.08191 14.8654 1.16948 15.4037 1.3806 15.9134C1.88807 17.1386 2.86144 18.1119 4.08658 18.6194C4.59628 18.8305 5.13456 18.9181 5.74331 18.9596C6.33531 19 7.06272 19 7.96448 19H14.0355C14.9373 19 15.6647 19 16.2567 18.9596C16.8654 18.9181 17.4037 18.8305 17.9134 18.6194C19.1386 18.1119 20.1119 17.1386 20.6194 15.9134C20.8305 15.4037 20.9181 14.8654 20.9596 14.2567C21 13.6647 21 12.9373 21 12.0355V11.9645C21 11.0627 21 10.3353 20.9596 9.74331C20.9181 9.13456 20.8305 8.59628 20.6194 8.08658C20.1119 6.86144 19.1386 5.88807 17.9134 5.3806C17.4037 5.16948 16.8654 5.08191 16.2567 5.04038C15.6647 4.99999 14.9373 4.99999 14.0355 5H7.96449Z" fill="#111111"/>
</svg>
