<svg width="24" height="24" viewBox="0 0 24 24" fill="none" xmlns="http://www.w3.org/2000/svg">
<g opacity="0.28">
<path d="M6.88429 6.00002C6.06668 5.99982 5.50939 5.99968 5.02459 6.09611C3.04113 6.49064 1.49064 8.04113 1.09611 10.0246C0.999677 10.5094 0.999816 11.0667 1.00002 11.8843V12.1158C0.999816 12.9334 0.999677 13.4907 1.09611 13.9755C1.49064 15.9589 3.04113 17.5094 5.02459 17.904C5.50939 18.0004 6.06668 18.0003 6.88428 18.0001L17 18C17.5523 18 18 17.5523 18 17C18 16.4478 17.5523 16 17 16V8.00004C17.5523 8.00004 18 7.55232 18 7.00004C18 6.44775 17.5523 6.00004 17 6.00004L6.88429 6.00002Z" fill="#111111"/>
<path d="M20.5002 6.66978C20.0219 6.39358 19.4103 6.55737 19.1341 7.03563C18.8579 7.51388 19.0217 8.12549 19.4999 8.4017C20.2354 8.82645 20.7709 9.55263 20.9424 10.4148C20.9952 10.6802 21 11.0228 21 12C21 12.9773 20.9952 13.3199 20.9424 13.5853C20.7709 14.4474 20.2354 15.1736 19.4999 15.5984C19.0217 15.8746 18.8579 16.4862 19.1341 16.9644C19.4103 17.4427 20.0219 17.6065 20.5002 17.3303C21.7246 16.6231 22.618 15.4132 22.904 13.9755C23.0004 13.4907 23.0003 12.9334 23.0001 12.1159V11.8843C23.0003 11.0667 23.0004 10.5094 22.904 10.0246C22.618 8.58683 21.7246 7.37696 20.5002 6.66978Z" fill="#111111"/>
</g>
<path d="M17 7V17M17 7C17 6.07003 17 5.60504 16.8978 5.22354C16.6204 4.18827 15.8117 3.37962 14.7765 3.10222C14.395 3 13.93 3 13 3M17 7C17 6.07003 17 5.60504 17.1022 5.22354C17.3796 4.18827 18.1883 3.37962 19.2235 3.10222C19.605 3 20.07 3 21 3M17 17C17 17.93 17 18.395 16.8978 18.7765C16.6204 19.8117 15.8117 20.6204 14.7765 20.8978C14.395 21 13.93 21 13 21M17 17C17 17.93 17 18.395 17.1022 18.7765C17.3796 19.8117 18.1883 20.6204 19.2235 20.8978C19.605 21 20.07 21 21 21M7 13C6.44772 13 6 12.5523 6 12C6 11.4477 6.44772 11 7 11C7.55228 11 8 11.4477 8 12C8 12.5523 7.55228 13 7 13ZM13 13C12.4477 13 12 12.5523 12 12C12 11.4477 12.4477 11 13 11C13.5523 11 14 11.4477 14 12C14 12.5523 13.5523 13 13 13Z" stroke="#111111" stroke-width="2" stroke-linecap="round" stroke-linejoin="round"/>
</svg>
