<svg width="24" height="24" viewBox="0 0 24 24" fill="none" xmlns="http://www.w3.org/2000/svg">
<path opacity="0.28" d="M9.95624 2C8.5932 1.99999 7.50917 1.99999 6.63458 2.07144C5.73898 2.14462 4.9753 2.29768 4.27606 2.65396C3.14708 3.2292 2.2292 4.14708 1.65396 5.27606C1.29768 5.9753 1.14462 6.73898 1.07144 7.63458C0.999986 8.50917 0.999992 9.5932 1 10.9562V13.0438C0.999992 14.4068 0.999986 15.4908 1.07144 16.3654C1.14462 17.261 1.29768 18.0247 1.65396 18.7239C2.2292 19.8529 3.14708 20.7708 4.27606 21.346C4.9753 21.7023 5.73898 21.8554 6.63458 21.9286C7.50914 22 8.59313 22 9.95613 22H14.0438C15.4068 22 16.4909 22 17.3654 21.9286C18.261 21.8554 19.0247 21.7023 19.7239 21.346C20.8529 20.7708 21.7708 19.8529 22.346 18.7239C22.7023 18.0247 22.8554 17.261 22.9286 16.3654C23 15.4909 23 14.4069 23 13.0439V10.9562C23 9.59322 23 8.50914 22.9286 7.63458C22.8554 6.73898 22.7023 5.9753 22.346 5.27606C21.7708 4.14708 20.8529 3.2292 19.7239 2.65396C19.0247 2.29768 18.261 2.14462 17.3654 2.07144C16.4908 1.99999 15.4068 1.99999 14.0438 2H9.95624Z" fill="#111111"/>
<path d="M7 8V9M17 8V9M17 16C16.4138 16.3599 15.793 16.6585 15.1447 16.888M15.1447 16.888C14.1527 17.2391 13.0962 17.4286 12 17.4286C10.1874 17.4286 8.4832 16.9106 7 16M15.1447 16.888C15.253 18.2965 15.4237 19.6694 15.6617 20.9941M15.1447 16.888C15.047 15.618 15 14.3189 15 13H11C11 9.43114 11.779 6.04423 13.1762 3" stroke="#111111" stroke-width="2" stroke-linecap="round" stroke-linejoin="round"/>
</svg>
