<svg width="24" height="24" viewBox="0 0 24 24" fill="none" xmlns="http://www.w3.org/2000/svg">
<path opacity="0.28" d="M21 16V8.8C21 7.11984 21 6.27976 20.673 5.63803C20.3854 5.07354 19.9265 4.6146 19.362 4.32698C18.7202 4 17.8802 4 16.2 4H7.8C6.11984 4 5.27976 4 4.63803 4.32698C4.07354 4.6146 3.6146 5.07354 3.32698 5.63803C3 6.27976 3 7.11984 3 8.8V16M13 4.00688V5H11V4.00688" stroke="#111111" stroke-width="2" stroke-linecap="round" stroke-linejoin="round"/>
<path d="M15 15C14.7348 15 14.4804 15.1054 14.2929 15.2929L13.5858 16H9.91421L9.20711 15.2929C9.01957 15.1054 8.76522 15 8.5 15H3C1.89543 15 1 15.8954 1 17C1 19.2091 2.79086 21 5 21L19 21C21.2091 21 23 19.2091 23 17C23 15.8954 22.1046 15 21 15L15 15Z" fill="#111111"/>
</svg>
