<svg width="24" height="24" viewBox="0 0 24 24" fill="none" xmlns="http://www.w3.org/2000/svg">
<path opacity="0.28" d="M9.35719 1C8.27341 0.99999 7.39925 0.999983 6.69138 1.05782C5.96253 1.11737 5.32234 1.24318 4.73005 1.54497C3.78924 2.02434 3.02434 2.78924 2.54497 3.73005C2.24318 4.32234 2.11737 4.96253 2.05782 5.69138C1.99998 6.39925 1.99999 7.27341 2 8.35719V15.6428C1.99999 16.7266 1.99998 17.6007 2.05782 18.3086C2.11737 19.0375 2.24318 19.6777 2.54497 20.27C3.02434 21.2108 3.78924 21.9757 4.73005 22.455C5.32234 22.7568 5.96253 22.8826 6.69138 22.9422C7.39923 23 8.27334 23 9.35707 23H14.6428C15.7266 23 16.6008 23 17.3086 22.9422C18.0375 22.8826 18.6777 22.7568 19.27 22.455C20.2108 21.9757 20.9757 21.2108 21.455 20.27C21.7568 19.6777 21.8826 19.0375 21.9422 18.3086C22 17.6008 22 16.7267 22 15.6429V8.35717C22 7.27344 22 6.39923 21.9422 5.69138C21.8826 4.96253 21.7568 4.32234 21.455 3.73005C20.9757 2.78924 20.2108 2.02434 19.27 1.54497C18.6777 1.24318 18.0375 1.11737 17.3086 1.05782C16.6007 0.999982 15.7266 0.99999 14.6428 1H9.35719Z" fill="#111111"/>
<path d="M10 19H14" stroke="#111111" stroke-width="2" stroke-linecap="round" stroke-linejoin="round"/>
</svg>
