<svg width="24" height="24" viewBox="0 0 24 24" fill="none" xmlns="http://www.w3.org/2000/svg">
<path opacity="0.28" d="M2 6.4C2 5.55992 2 5.13988 2.16349 4.81901C2.3073 4.53677 2.53677 4.3073 2.81901 4.16349C3.13988 4 3.55992 4 4.4 4H19.6C20.4401 4 20.8601 4 21.181 4.16349C21.4632 4.3073 21.6927 4.53677 21.8365 4.81901C22 5.13988 22 5.55992 22 6.4V15.6C22 16.4401 22 16.8601 21.8365 17.181C21.6927 17.4632 21.4632 17.6927 21.181 17.8365C20.8601 18 20.4401 18 19.6 18H4.4C3.55992 18 3.13988 18 2.81901 17.8365C2.53677 17.6927 2.3073 17.4632 2.16349 17.181C2 16.8601 2 16.4401 2 15.6V6.4Z" stroke="#111111" stroke-width="2" stroke-linecap="round" stroke-linejoin="round"/>
<path d="M4.13171 18.9998L3.16806 20.4452C2.8617 20.9048 2.98588 21.5256 3.44541 21.832C3.90493 22.1383 4.5258 22.0142 4.83216 21.5546L6.53529 18.9999H4.36404C4.28495 18.9999 4.20741 19 4.13171 18.9998Z" fill="#111111"/>
<path d="M17.4649 18.9999L19.1681 21.5546C19.4744 22.0142 20.0953 22.1383 20.5548 21.832C21.0143 21.5256 21.1385 20.9048 20.8322 20.4452L19.8685 18.9998C19.7928 19 19.7153 18.9999 19.6362 18.9999H17.4649Z" fill="#111111"/>
</svg>
