<svg
  xmlns="http://www.w3.org/2000/svg"
  width="24"
  height="24"
  viewBox="0 0 24 24"
  fill="none"
  stroke="currentColor"
  stroke-width="2"
  stroke-linecap="round"
  stroke-linejoin="round"
>
  <path d="M10.8 1H10.759C9.954 1 9.289 1 8.749 1.044C8.186 1.09 7.669 1.189 7.184 1.436C6.43139 1.81949 5.81949 2.43139 5.436 3.184C5.189 3.669 5.09 4.186 5.044 4.748C5 5.29 5 5.954 5 6.758V17.241C5 18.046 5 18.711 5.044 19.251C5.09 19.814 5.189 20.331 5.436 20.816C5.81949 21.5686 6.43139 22.1805 7.184 22.564C7.669 22.811 8.186 22.91 8.748 22.956C9.289 23 9.954 23 10.758 23H13.242C14.047 23 14.712 23 15.252 22.956C15.815 22.91 16.332 22.811 16.817 22.564C17.5696 22.1805 18.1815 21.5686 18.565 20.816C18.812 20.331 18.911 19.814 18.957 19.252C19.001 18.711 19.001 18.046 19.001 17.242V6.758C19.001 5.953 19.001 5.288 18.957 4.748C18.911 4.185 18.812 3.668 18.565 3.183C18.1815 2.43039 17.5696 1.81849 16.817 1.435C16.332 1.188 15.815 1.089 15.253 1.043C14.71 1 14.046 1 13.242 1H10.8Z" fill="#111111" opacity="0.28" fill-rule="evenodd" clip-rule="evenodd"/ stroke="none">
  <path d="M8.8999 6.9999C8.8999 6.5928 8.98009 6.18969 9.13588 5.81358C9.29167 5.43747 9.52001 5.09573 9.80787 4.80787C10.0957 4.52001 10.4375 4.29167 10.8136 4.13588C11.1897 3.98009 11.5928 3.8999 11.9999 3.8999C12.407 3.8999 12.8101 3.98009 13.1862 4.13588C13.5623 4.29167 13.9041 4.52001 14.1919 4.80787C14.4798 5.09573 14.7081 5.43747 14.8639 5.81358C15.0197 6.18969 15.0999 6.5928 15.0999 6.9999C15.0999 7.82207 14.7733 8.61057 14.1919 9.19193C13.6106 9.7733 12.8221 10.0999 11.9999 10.0999C11.1777 10.0999 10.3892 9.7733 9.80787 9.19193C9.22651 8.61057 8.8999 7.82207 8.8999 6.9999ZM15.0999 14.9999C15.0999 14.7082 14.984 14.4284 14.7777 14.2221C14.5714 14.0158 14.2916 13.8999 13.9999 13.8999C13.7082 13.8999 13.4284 14.0158 13.2221 14.2221C13.0158 14.4284 12.8999 14.7082 12.8999 14.9999V17.9999C12.8999 18.2916 13.0158 18.5714 13.2221 18.7777C13.4284 18.984 13.7082 19.0999 13.9999 19.0999C14.2916 19.0999 14.5714 18.984 14.7777 18.7777C14.984 18.5714 15.0999 18.2916 15.0999 17.9999V14.9999ZM13.9999 10.8999C14.2916 10.8999 14.5714 11.0158 14.7777 11.2221C14.984 11.4284 15.0999 11.7082 15.0999 11.9999V12.0099C15.0999 12.3016 14.984 12.5814 14.7777 12.7877C14.5714 12.994 14.2916 13.1099 13.9999 13.1099C13.7082 13.1099 13.4284 12.994 13.2221 12.7877C13.0158 12.5814 12.8999 12.3016 12.8999 12.0099V11.9999C12.8999 11.7082 13.0158 11.4284 13.2221 11.2221C13.4284 11.0158 13.7082 10.8999 13.9999 10.8999ZM11.0999 11.9999C11.0999 11.7082 10.984 11.4284 10.7777 11.2221C10.5714 11.0158 10.2916 10.8999 9.9999 10.8999C9.70816 10.8999 9.42838 11.0158 9.22208 11.2221C9.01579 11.4284 8.8999 11.7082 8.8999 11.9999V12.0099C8.8999 12.3016 9.01579 12.5814 9.22208 12.7877C9.42838 12.994 9.70816 13.1099 9.9999 13.1099C10.2916 13.1099 10.5714 12.994 10.7777 12.7877C10.984 12.5814 11.0999 12.3016 11.0999 12.0099V11.9999ZM9.9999 13.8999C10.2916 13.8999 10.5714 14.0158 10.7777 14.2221C10.984 14.4284 11.0999 14.7082 11.0999 14.9999V15.0099C11.0999 15.3016 10.984 15.5814 10.7777 15.7877C10.5714 15.994 10.2916 16.1099 9.9999 16.1099C9.70816 16.1099 9.42838 15.994 9.22208 15.7877C9.01579 15.5814 8.8999 15.3016 8.8999 15.0099V14.9999C8.8999 14.7082 9.01579 14.4284 9.22208 14.2221C9.42838 14.0158 9.70816 13.8999 9.9999 13.8999ZM11.0999 17.9999C11.0999 17.7082 10.984 17.4284 10.7777 17.2221C10.5714 17.0158 10.2916 16.8999 9.9999 16.8999C9.70816 16.8999 9.42838 17.0158 9.22208 17.2221C9.01579 17.4284 8.8999 17.7082 8.8999 17.9999V18.0099C8.8999 18.3016 9.01579 18.5814 9.22208 18.7877C9.42838 18.994 9.70816 19.1099 9.9999 19.1099C10.2916 19.1099 10.5714 18.994 10.7777 18.7877C10.984 18.5814 11.0999 18.3016 11.0999 18.0099V17.9999Z" fill="currentColor" fill-rule="evenodd" clip-rule="evenodd"/ stroke="none">
</svg>