<svg width="24" height="24" viewBox="0 0 24 24" fill="none" xmlns="http://www.w3.org/2000/svg">
<path opacity="0.28" d="M17 19H18C18 18.4477 17.5523 18 17 18V19ZM7 19V18C6.44772 18 6 18.4477 6 19H7ZM17.7692 3.41251L18.2114 2.51564L17.7692 3.41251ZM19.5875 5.23085L20.4844 4.78856L19.5875 5.23085ZM6.23085 3.41251L5.78856 2.51564L6.23085 3.41251ZM4.41251 5.23085L3.51564 4.78856L4.41251 5.23085ZM4 10C4.55228 10 5 9.55228 5 9C5 8.44772 4.55228 8 4 8V10ZM20 8C19.4477 8 19 8.44772 19 9C19 9.55228 19.4477 10 20 10V8ZM10.3333 4H13.6667V2H10.3333V4ZM19 9.33333V20.5H21V9.33333H19ZM5 20.5V9.33333H3V20.5H5ZM17 18H7V20H17V18ZM6 19V20.5H8V19H6ZM18 20.5V19H16V20.5H18ZM18.5 21C18.2239 21 18 20.7761 18 20.5H16C16 21.8807 17.1193 23 18.5 23V21ZM5.5 23C6.88071 23 8 21.8807 8 20.5H6C6 20.7761 5.77614 21 5.5 21V23ZM3 20.5C3 21.8807 4.11929 23 5.5 23V21C5.22386 21 5 20.7761 5 20.5H3ZM19 20.5C19 20.7761 18.7761 21 18.5 21V23C19.8807 23 21 21.8807 21 20.5H19ZM13.6667 4C14.7714 4 15.5414 4.00074 16.1415 4.04842C16.7304 4.09522 17.0696 4.1825 17.3269 4.30938L18.2114 2.51564C17.6322 2.23 17.0088 2.11104 16.2999 2.05471C15.6022 1.99926 14.7393 2 13.6667 2V4ZM21 9.33333C21 8.26069 21.0007 7.39775 20.9453 6.70006C20.889 5.99117 20.77 5.36776 20.4844 4.78856L18.6906 5.67313C18.8175 5.93041 18.9048 6.26958 18.9516 6.85849C18.9993 7.45858 19 8.22864 19 9.33333H21ZM10.3333 2C9.26069 2 8.39775 1.99926 7.70006 2.05471C6.99117 2.11104 6.36776 2.23 5.78856 2.51564L6.67313 4.30938C6.93042 4.18251 7.26958 4.09522 7.85849 4.04842C8.45858 4.00074 9.22864 4 10.3333 4V2ZM5 9.33333C5 8.22864 5.00074 7.45858 5.04842 6.85848C5.09522 6.26958 5.1825 5.93041 5.30938 5.67313L3.51564 4.78856C3.23 5.36776 3.11104 5.99117 3.05471 6.70006C2.99926 7.39775 3 8.26069 3 9.33333H5ZM1 8V8.5H3V8H1ZM2.5 10H4V8H2.5V10ZM21 8V8.5H23V8H21ZM21.5 8H20V10H21.5V8ZM21 8.5C21 8.22386 21.2239 8 21.5 8V10C22.3284 10 23 9.32843 23 8.5H21ZM1 8.5C1 9.32843 1.67157 10 2.5 10V8C2.77614 8 3 8.22386 3 8.5H1ZM3 8C3 7.00682 3.72492 6.18104 4.67447 6.02621L4.3526 4.05227C2.45113 4.36232 1 6.01074 1 8H3ZM5.78856 2.51564C4.88252 2.96245 4.13504 3.67218 3.64191 4.54906L5.38516 5.52942C5.68103 5.00331 6.12952 4.57746 6.67313 4.30938L5.78856 2.51564ZM3.64191 4.54906C3.59775 4.62758 3.55564 4.70744 3.51564 4.78856L5.30938 5.67313C5.33339 5.62445 5.35866 5.57653 5.38516 5.52942L3.64191 4.54906ZM23 8C23 6.01074 21.5489 4.36232 19.6474 4.05227L19.3255 6.02621C20.2751 6.18104 21 7.00682 21 8H23ZM17.3269 4.30938C17.8705 4.57746 18.319 5.00331 18.6148 5.52942L20.3581 4.54906C19.865 3.67218 19.1175 2.96245 18.2114 2.51564L17.3269 4.30938ZM18.6148 5.52942C18.6413 5.57652 18.6666 5.62444 18.6906 5.67313L20.4844 4.78856C20.4444 4.70744 20.4023 4.62759 20.3581 4.54906L18.6148 5.52942Z" fill="#111111"/>
<path d="M12 8.5L9.84619 12H14.1539L12 15.5" stroke="#111111" stroke-width="2" stroke-linecap="round" stroke-linejoin="round"/>
</svg>
