<svg width="24" height="24" viewBox="0 0 24 24" fill="none" xmlns="http://www.w3.org/2000/svg">
<path opacity="0.28" d="M12 3H10.4C8.15979 3 7.03969 3 6.18404 3.43597C5.43139 3.81947 4.81947 4.43139 4.43597 5.18404C4 6.03969 4 7.15979 4 9.4V13H12M12 3H13.6C15.8402 3 16.9603 3 17.816 3.43597C18.5686 3.81947 19.1805 4.43139 19.564 5.18404C20 6.03969 20 7.15979 20 9.4V13H12M12 3V13" stroke="#111111" stroke-width="2" stroke-linecap="round" stroke-linejoin="round"/>
<path d="M7 16H8" stroke="#111111" stroke-width="2" stroke-linecap="round" stroke-linejoin="round"/>
<path d="M16 16H17" stroke="#111111" stroke-width="2" stroke-linecap="round" stroke-linejoin="round"/>
<path d="M8 19L6 22" stroke="#111111" stroke-width="2" stroke-linecap="round" stroke-linejoin="round"/>
<path d="M16 19L18 22" stroke="#111111" stroke-width="2" stroke-linecap="round" stroke-linejoin="round"/>
<path d="M7.2 19H16.8C17.9201 19 18.4802 19 18.908 18.782C19.2843 18.5903 19.5903 18.2843 19.782 17.908C20 17.4802 20 16.9201 20 15.8V13H4V15.8C4 16.9201 4 17.4802 4.21799 17.908C4.40973 18.2843 4.71569 18.5903 5.09202 18.782C5.51984 19 6.0799 19 7.2 19Z" stroke="#111111" stroke-width="2" stroke-linecap="round" stroke-linejoin="round"/>
</svg>
