<svg
  xmlns="http://www.w3.org/2000/svg"
  width="24"
  height="24"
  viewBox="0 0 24 24"
  fill="none"
  stroke="currentColor"
  stroke-width="2"
  stroke-linecap="round"
  stroke-linejoin="round"
>
  <path d="M10.286 12.2139C9.45369 12.8177 8.70516 13.5292 8.05999 14.3299C8.02102 14.378 7.99976 14.438 7.99976 14.4999C7.99976 14.5618 8.02102 14.6218 8.05999 14.6699C8.70519 15.4705 9.45372 16.182 10.286 16.7859M13.714 16.7859C14.5463 16.182 15.2948 15.4705 15.94 14.6699C15.979 14.6218 16.0002 14.5618 16.0002 14.4999C16.0002 14.438 15.979 14.378 15.94 14.3299C15.2948 13.5292 14.5463 12.8177 13.714 12.2139" stroke="currentColor" stroke-width="2"/>
  <path d="M4 3C3.46957 3 2.96086 3.21071 2.58579 3.58579C2.21071 3.96086 2 4.46957 2 5V6C2 6.53043 2.21071 7.03914 2.58579 7.41421C2.96086 7.78929 3.46957 8 4 8V17C4 18.0609 4.42143 19.0783 5.17157 19.8284C5.92172 20.5786 6.93913 21 8 21H16C17.0609 21 18.0783 20.5786 18.8284 19.8284C19.5786 19.0783 20 18.0609 20 17V8C20.5304 8 21.0391 7.78929 21.4142 7.41421C21.7893 7.03914 22 6.53043 22 6V5C22 4.46957 21.7893 3.96086 21.4142 3.58579C21.0391 3.21071 20.5304 3 20 3H4Z" fill="currentColor" opacity="0.28" fill-rule="evenodd" clip-rule="evenodd"/>
  <path d="M4 8H20M4 8V17C4 18.0609 4.42143 19.0783 5.17157 19.8284C5.92172 20.5786 6.93913 21 8 21H16C17.0609 21 18.0783 20.5786 18.8284 19.8284C19.5786 19.0783 20 18.0609 20 17V8M4 8C3.46957 8 2.96086 7.78929 2.58579 7.41421C2.21071 7.03914 2 6.53043 2 6V5C2 4.46957 2.21071 3.96086 2.58579 3.58579C2.96086 3.21071 3.46957 3 4 3H20C20.5304 3 21.0391 3.21071 21.4142 3.58579C21.7893 3.96086 22 4.46957 22 5V6C22 6.53043 21.7893 7.03914 21.4142 7.41421C21.0391 7.78929 20.5304 8 20 8" stroke="currentColor" stroke-width="2"/>
</svg>