<svg
  xmlns="http://www.w3.org/2000/svg"
  width="24"
  height="24"
  viewBox="0 0 24 24"
  fill="none"
  stroke="currentColor"
  stroke-width="2"
  stroke-linecap="round"
  stroke-linejoin="round"
>
  <path d="M12 11L9.74897 14.002C9.68913 14.0819 9.65458 14.1779 9.64975 14.2776C9.64493 14.3773 9.67006 14.4761 9.7219 14.5614C9.77375 14.6467 9.84994 14.7146 9.94067 14.7562C10.0314 14.7978 10.1325 14.8113 10.231 14.795L13.769 14.205C13.8674 14.1887 13.9686 14.2022 14.0593 14.2438C14.15 14.2854 14.2262 14.3533 14.278 14.4386C14.3299 14.5239 14.355 14.6227 14.3502 14.7224C14.3454 14.8221 14.3108 14.9181 14.251 14.998L12 18" stroke="currentColor" stroke-width="2"/>
  <path d="M4 8H20M4 8V17C4 18.0609 4.42143 19.0783 5.17157 19.8284C5.92172 20.5786 6.93913 21 8 21H16C17.0609 21 18.0783 20.5786 18.8284 19.8284C19.5786 19.0783 20 18.0609 20 17V8M4 8C3.46957 8 2.96086 7.78929 2.58579 7.41421C2.21071 7.03914 2 6.53043 2 6V5C2 4.46957 2.21071 3.96086 2.58579 3.58579C2.96086 3.21071 3.46957 3 4 3H20C20.5304 3 21.0391 3.21071 21.4142 3.58579C21.7893 3.96086 22 4.46957 22 5V6C22 6.53043 21.7893 7.03914 21.4142 7.41421C21.0391 7.78929 20.5304 8 20 8" stroke="currentColor" stroke-width="2"/>
  <path d="M5 8C5 7.48232 4.60667 7.05621 4.10254 7.00488L4 7C3.76791 7 3.54417 6.91927 3.36621 6.77344L3.29297 6.70703C3.10543 6.51949 3 6.26522 3 6V5L3.00488 4.90137C3.02434 4.70504 3.10152 4.5188 3.22656 4.36621L3.29297 4.29297C3.45711 4.12883 3.67237 4.02757 3.90137 4.00488L4 4H20C20.2321 4 20.4558 4.08073 20.6338 4.22656L20.707 4.29297C20.8946 4.48051 21 4.73478 21 5V6C21 6.26522 20.8946 6.51949 20.707 6.70703C20.5195 6.89457 20.2652 7 20 7C19.4477 7 19 7.44772 19 8V17C19 17.7956 18.6837 18.5585 18.1211 19.1211C17.5585 19.6837 16.7956 20 16 20H8C7.20435 20 6.44152 19.6837 5.87891 19.1211C5.3163 18.5585 5 17.7956 5 17V8Z" fill="currentColor" stroke="currentColor" stroke-width="2" opacity="0.28"/>
</svg>