<svg
  xmlns="http://www.w3.org/2000/svg"
  width="24"
  height="24"
  viewBox="0 0 24 24"
  fill="none"
  stroke="currentColor"
  stroke-width="2"
  stroke-linecap="round"
  stroke-linejoin="round"
>
  <path d="M20.9614 9.99711C20.6724 9.97994 20.3143 9.97994 19.8593 9.97994H8.44532C7.5696 9.97994 7.13174 9.97994 6.76517 10.1313C6.44166 10.2648 6.15886 10.4809 5.94502 10.758C5.70272 11.0719 5.58771 11.4944 5.35768 12.3394L4.09996 16.9595C3.72597 18.3333 3.53897 19.0202 3.69803 19.5627C3.83738 20.038 4.14817 20.4447 4.57021 20.704C4.59945 20.722 4.62953 20.7389 4.66058 20.7547M20.9614 9.99711C21.3508 10.0202 21.615 10.0745 21.8223 10.2019C22.1389 10.3964 22.372 10.7014 22.4765 11.0579C22.5958 11.4648 22.4555 11.98 22.175 13.0103L21.2846 16.2811C20.8246 17.971 20.5946 18.816 20.11 19.4439C19.6823 19.998 19.1167 20.4303 18.4697 20.6973C17.7365 21 16.8608 21 15.1094 21H7.1876C5.85022 21 5.14094 21 4.66058 20.7547M20.9614 9.99711C20.9135 9.21421 20.8058 8.65847 20.564 8.18404C20.1805 7.43139 19.5686 6.81947 18.816 6.43597C17.9603 6 16.8402 6 14.6 6H13.2844C12.8148 6 12.58 6 12.3669 5.93527C12.1782 5.87797 12.0027 5.78403 11.8503 5.65882C11.6783 5.51739 11.548 5.32202 11.2875 4.93128L10.7125 4.06872C10.452 3.67798 10.3217 3.48262 10.1497 3.34118C9.99732 3.21597 9.82179 3.12203 9.6331 3.06473C9.41997 3 9.18517 3 8.71556 3H8.4C6.15979 3 5.03968 3 4.18404 3.43597C3.43139 3.81947 2.81947 4.43139 2.43597 5.18404C2 6.03968 2 7.15979 2 9.4V14.6C2 16.8402 2 17.9603 2.43597 18.816C2.81947 19.5686 3.43139 20.1805 4.18404 20.564C4.33332 20.6401 4.49065 20.7029 4.66058 20.7547" stroke="currentColor" stroke-width="2"/>
  <path d="M5.3577 12.3399C5.58773 11.495 5.70274 11.0725 5.94504 10.7585C6.15888 10.4814 6.44168 10.2653 6.76519 10.1318C7.13176 9.98047 7.56962 9.98047 8.44533 9.98047H19.8593C20.3143 9.98047 20.6724 9.98047 20.9615 9.99764C21.3508 10.0208 21.615 10.0751 21.8224 10.2024C22.1389 10.3969 22.372 10.702 22.4765 11.0585C22.5958 11.4654 22.4555 11.9805 22.175 13.0109L21.2846 16.2816C20.8246 17.9716 20.5946 18.8165 20.11 19.4444C19.6823 19.9986 19.1167 20.4308 18.4697 20.6979C17.7365 21.0005 16.8608 21.0005 15.1094 21.0005H7.18761C5.85024 21.0005 5.14096 21.0005 4.66059 20.7552C4.62955 20.7394 4.59946 20.7225 4.57022 20.7046C4.14819 20.4452 3.8374 20.0385 3.69804 19.5632C3.53899 19.0207 3.72599 18.3338 4.09998 16.96L5.3577 12.3399Z" fill="currentColor" opacity="0.28"/>
</svg>