<svg width="24" height="24" viewBox="0 0 24 24" fill="none" xmlns="http://www.w3.org/2000/svg">
<path fill-rule="evenodd" clip-rule="evenodd" d="M3 2C2.46957 2 1.96086 2.21071 1.58579 2.58579C1.21071 2.96086 1 3.46957 1 4V5C1 5.53043 1.21071 6.03914 1.58579 6.41421C1.96086 6.78929 2.46957 7 3 7H21C21.5304 7 22.0391 6.78929 22.4142 6.41421C22.7893 6.03914 23 5.53043 23 5V4C23 3.46957 22.7893 2.96086 22.4142 2.58579C22.0391 2.21071 21.5304 2 21 2H3Z" fill="#111111"/>
<path opacity="0.28" fill-rule="evenodd" clip-rule="evenodd" d="M4 9C3.73478 9 3.48043 9.10536 3.29289 9.29289C3.10536 9.48043 3 9.73478 3 10V17C3 18.3261 3.52678 19.5979 4.46447 20.5355C5.40215 21.4732 6.67392 22 8 22H16C17.3261 22 18.5979 21.4732 19.5355 20.5355C20.4732 19.5979 21 18.3261 21 17V10C21 9.73478 20.8946 9.48043 20.7071 9.29289C20.5196 9.10536 20.2652 9 20 9H4Z" fill="#111111"/>
<path d="M9.73607 12.9268L11.6111 12.2497C11.8411 12.1667 12.0911 12.1667 12.3211 12.2497L14.2231 12.9368C14.6091 13.0768 14.8781 13.4287 14.9101 13.8387L14.9891 14.8658C15.0457 15.6032 14.8875 16.3413 14.5337 16.9908C14.1798 17.6403 13.6454 18.1735 12.9951 18.5257L12.4761 18.8057C12.3201 18.8904 12.1452 18.9339 11.9678 18.9321C11.7904 18.9304 11.6163 18.8834 11.4621 18.7957L10.9321 18.4937C10.3234 18.1468 9.82165 17.6395 9.48135 17.0272C9.14104 16.4148 8.97527 15.7208 9.00207 15.0207L9.04707 13.8688C9.06307 13.4438 9.33607 13.0708 9.73607 12.9268Z" stroke="#111111" stroke-width="2" stroke-linecap="round" stroke-linejoin="round"/>
</svg>
