<svg width="24" height="24" viewBox="0 0 24 24" fill="none" xmlns="http://www.w3.org/2000/svg">
<path d="M3 3H21C21.2321 3 21.4558 3.08073 21.6338 3.22656L21.707 3.29297C21.8946 3.48051 22 3.73478 22 4V5C22 5.26522 21.8946 5.51949 21.707 5.70703C21.5195 5.89457 21.2652 6 21 6H3C2.76791 6 2.54417 5.91927 2.36621 5.77344L2.29297 5.70703C2.10543 5.51949 2 5.26522 2 5V4L2.00488 3.90137C2.02434 3.70504 2.10152 3.5188 2.22656 3.36621L2.29297 3.29297C2.45711 3.12883 2.67237 3.02757 2.90137 3.00488L3 3Z" fill="#111111" stroke="#111111" stroke-width="2" stroke-linecap="round" stroke-linejoin="round"/>
<path opacity="0.28" d="M20 10V17C20 17.9946 19.6293 18.9508 18.9648 19.6846L18.8281 19.8281C18.078 20.5783 17.0609 21 16 21H8C6.93913 21 5.92202 20.5783 5.17188 19.8281C4.42173 19.078 4 18.0609 4 17V10H20Z" fill="#111111" stroke="#111111" stroke-width="2" stroke-linecap="round" stroke-linejoin="round"/>
<path d="M12.59 18.0707C13.4354 17.4369 14.1995 16.7014 14.865 15.8807C14.9525 15.773 15.0002 15.6385 15 15.4997M15 15.4997C15 15.3647 14.955 15.2307 14.865 15.1187C14.2 14.2987 13.436 13.5627 12.59 12.9287M15 15.4997H9" stroke="#111111" stroke-width="2" stroke-linecap="round" stroke-linejoin="round"/>
</svg>
