<svg width="24" height="24" viewBox="0 0 24 24" fill="none" xmlns="http://www.w3.org/2000/svg">
<path d="M3 3H21C21.2321 3 21.4558 3.08073 21.6338 3.22656L21.707 3.29297C21.8946 3.48051 22 3.73478 22 4V5C22 5.26522 21.8946 5.51949 21.707 5.70703C21.5195 5.89457 21.2652 6 21 6H3C2.76791 6 2.54417 5.91927 2.36621 5.77344L2.29297 5.70703C2.10543 5.51949 2 5.26522 2 5V4L2.00488 3.90137C2.02434 3.70504 2.10152 3.5188 2.22656 3.36621L2.29297 3.29297C2.45711 3.12883 2.67237 3.02757 2.90137 3.00488L3 3Z" fill="#111111" stroke="#111111" stroke-width="2" stroke-linecap="round" stroke-linejoin="round"/>
<path opacity="0.28" d="M20 10V17C20 17.9946 19.6293 18.9508 18.9648 19.6846L18.8281 19.8281C18.078 20.5783 17.0609 21 16 21H8C6.93913 21 5.92202 20.5783 5.17188 19.8281C4.42173 19.078 4 18.0609 4 17V10H20Z" fill="#111111" stroke="#111111" stroke-width="2" stroke-linecap="round" stroke-linejoin="round"/>
<path d="M12 12L9.74897 15.002C9.68913 15.0819 9.65458 15.1779 9.64975 15.2776C9.64493 15.3773 9.67006 15.4761 9.7219 15.5614C9.77375 15.6467 9.84994 15.7146 9.94067 15.7562C10.0314 15.7978 10.1325 15.8113 10.231 15.795L13.769 15.205C13.8674 15.1887 13.9686 15.2022 14.0593 15.2438C14.15 15.2854 14.2262 15.3533 14.278 15.4386C14.3299 15.5239 14.355 15.6227 14.3502 15.7224C14.3454 15.8221 14.3108 15.9181 14.251 15.998L12 19" stroke="#111111" stroke-width="2" stroke-linecap="round" stroke-linejoin="round"/>
</svg>
