<svg width="24" height="24" viewBox="0 0 24 24" fill="none" xmlns="http://www.w3.org/2000/svg">
<path fill-rule="evenodd" clip-rule="evenodd" d="M3 2C2.46957 2 1.96086 2.21071 1.58579 2.58579C1.21071 2.96086 1 3.46957 1 4V5C1 5.53043 1.21071 6.03914 1.58579 6.41421C1.96086 6.78929 2.46957 7 3 7H21C21.5304 7 22.0391 6.78929 22.4142 6.41421C22.7893 6.03914 23 5.53043 23 5V4C23 3.46957 22.7893 2.96086 22.4142 2.58579C22.0391 2.21071 21.5304 2 21 2H3Z" fill="#111111"/>
<path opacity="0.28" fill-rule="evenodd" clip-rule="evenodd" d="M4 9C3.73478 9 3.48043 9.10536 3.29289 9.29289C3.10536 9.48043 3 9.73478 3 10V17C3 18.3261 3.52678 19.5979 4.46447 20.5355C5.40215 21.4732 6.67392 22 8 22H16C17.3261 22 18.5979 21.4732 19.5355 20.5355C20.4732 19.5979 21 18.3261 21 17V10C21 9.73478 20.8946 9.48043 20.7071 9.29289C20.5196 9.10536 20.2652 9 20 9H4Z" fill="#111111"/>
<path d="M12 18.5628C12.35 18.5628 15.5 16.8608 15.5 14.4788C15.5 13.2888 14.45 12.4528 13.4 12.4378C12.875 12.4298 12.35 12.6078 12 13.1178C11.65 12.6078 11.116 12.4378 10.6 12.4378C9.55 12.4378 8.5 13.2878 8.5 14.4788C8.5 16.8608 11.65 18.5628 12 18.5628Z" stroke="#111111" stroke-width="2" stroke-linecap="round" stroke-linejoin="round"/>
</svg>
