<svg width="24" height="24" viewBox="0 0 24 24" fill="none" xmlns="http://www.w3.org/2000/svg">
<path opacity="0.28" d="M15.855 12.4044C14.7293 13.7879 13.4232 15.0246 11.969 16.0833C12.1892 13.3655 12.1892 10.6344 11.969 7.91663C13.4232 8.97527 14.7293 10.212 15.855 11.5955C15.9516 11.7142 15.9999 11.8571 15.9999 12C15.9999 12.1429 15.9516 12.2857 15.855 12.4044Z" fill="#111111"/>
<path d="M12.1343 12H4M12.1343 12C12.1343 13.3622 12.0792 14.7245 11.9691 16.0833C13.4233 15.0247 14.7294 13.788 15.8551 12.4045C15.9517 12.2858 16 12.1429 16 12C16 11.8571 15.9517 11.7142 15.8551 11.5955C14.7294 10.212 13.4233 8.97531 11.9691 7.91667C12.0792 9.27555 12.1343 10.6378 12.1343 12ZM20 19V5" stroke="#111111" stroke-width="2" stroke-linecap="round" stroke-linejoin="round"/>
</svg>
