<svg width="24" height="24" viewBox="0 0 24 24" fill="none" xmlns="http://www.w3.org/2000/svg">
<path opacity="0.28" d="M11.5956 8.14485C10.2121 9.2706 8.9754 10.5767 7.91675 12.0309C10.6345 11.8107 13.3657 11.8107 16.0834 12.0309C15.0248 10.5767 13.788 9.2706 12.4045 8.14485C12.2859 8.04828 12.143 8 12.0001 8C11.8572 8 11.7143 8.04828 11.5956 8.14485Z" fill="#111111"/>
<path d="M12 11.8657V20M12 11.8657C10.6378 11.8657 9.27555 11.9208 7.91667 12.0309C8.97531 10.5767 10.212 9.2706 11.5955 8.14486C11.7142 8.04828 11.8571 8 12 8C12.1429 8 12.2858 8.04828 12.4045 8.14486C13.788 9.2706 15.0247 10.5767 16.0833 12.0309C14.7245 11.9208 13.3622 11.8657 12 11.8657ZM5 4L19 4" stroke="#111111" stroke-width="2" stroke-linecap="round" stroke-linejoin="round"/>
</svg>
