<svg width="24" height="24" viewBox="0 0 24 24" fill="none" xmlns="http://www.w3.org/2000/svg">
<path opacity="0.28" d="M3.00293 13.4V10.6C3.00293 10.04 3.00293 9.76 3.11193 9.546C3.2078 9.35785 3.36078 9.20487 3.54893 9.109C3.76193 9 4.04293 9 4.60293 9H14.5259C14.4599 7.6634 14.3499 6.32934 14.1959 5C16.6447 6.81045 18.8487 8.93041 20.7529 11.307C20.9107 11.5035 20.9967 11.748 20.9967 12C20.9967 12.252 20.9107 12.4965 20.7529 12.693C18.8484 15.0696 16.6441 17.1896 14.1949 19C14.3499 17.67 14.4599 16.336 14.5249 15H4.60393C4.04393 15 3.76393 15 3.54993 14.891C3.36177 14.7951 3.2088 14.6422 3.11293 14.454C3.00293 14.24 3.00293 13.96 3.00293 13.4Z" fill="#111111"/>
<path d="M3.00244 10.6V13.4C3.00244 13.9601 3.00244 14.2401 3.11143 14.454C3.20731 14.6422 3.36029 14.7951 3.54845 14.891C3.76236 15 4.04239 15 4.60244 15H14.5257C14.4597 16.3357 14.3496 17.6698 14.1953 19C16.6493 17.1852 18.8533 15.0651 20.753 12.6934C20.916 12.4899 20.9975 12.245 20.9975 12C20.9975 11.755 20.916 11.5101 20.753 11.3066C18.8533 8.93491 16.6493 6.81482 14.1953 5C14.3496 6.33024 14.4597 7.6643 14.5257 9H4.60244C4.04239 9 3.76236 9 3.54845 9.109C3.36029 9.20487 3.20731 9.35785 3.11143 9.54601C3.00244 9.75992 3.00244 10.0399 3.00244 10.6Z" stroke="#111111" stroke-width="2" stroke-linecap="round" stroke-linejoin="round"/>
</svg>
