<svg width="24" height="24" viewBox="0 0 24 24" fill="none" xmlns="http://www.w3.org/2000/svg">
<path opacity="0.28" d="M17.2961 3.45672C16.1935 3 14.7957 3 12 3C9.20435 3 7.80653 3 6.7039 3.45672C5.23373 4.06568 4.06569 5.23373 3.45672 6.7039C3 7.80652 3 9.20435 3 12C3 14.7956 3 16.1935 3.45672 17.2961C4.06568 18.7663 5.23373 19.9343 6.7039 20.5433C7.80652 21 9.20435 21 12 21C14.7956 21 16.1935 21 17.2961 20.5433C18.7663 19.9343 19.9343 18.7663 20.5433 17.2961C21 16.1935 21 14.7957 21 12C21 9.20435 21 7.80653 20.5433 6.7039C19.9343 5.23373 18.7663 4.06569 17.2961 3.45672Z" fill="#111111"/>
<path d="M16 12.0514C14.963 13.4759 13.7515 14.7553 12.3962 15.8581C12.28 15.9527 12.14 16 12 16M8 12.0514C9.03704 13.4759 10.2485 14.7553 11.6038 15.8581C11.72 15.9527 11.86 16 12 16M12 16L12 8M12 3C14.7957 3 16.1935 3 17.2961 3.45672C18.7663 4.06569 19.9343 5.23373 20.5433 6.7039C21 7.80653 21 9.20435 21 12C21 14.7957 21 16.1935 20.5433 17.2961C19.9343 18.7663 18.7663 19.9343 17.2961 20.5433C16.1935 21 14.7956 21 12 21C9.20435 21 7.80652 21 6.7039 20.5433C5.23373 19.9343 4.06569 18.7663 3.45672 17.2961C3 16.1935 3 14.7956 3 12C3 9.20435 3 7.80652 3.45672 6.7039C4.06569 5.23373 5.23373 4.06569 6.7039 3.45672C7.80653 3 9.20435 3 12 3Z" stroke="#111111" stroke-width="2" stroke-linecap="round" stroke-linejoin="round"/>
</svg>
