<svg width="24" height="24" viewBox="0 0 24 24" fill="none" xmlns="http://www.w3.org/2000/svg">
<path opacity="0.28" d="M8.85867 20C7.10583 18.7037 5.53153 17.1893 4.1746 15.4953C4.0582 15.3499 4 15.175 4 15C4 14.825 4.0582 14.6501 4.1746 14.5047C5.53153 12.8107 7.10583 11.2963 8.85867 10C8.69812 10.9349 8.61784 11.4023 8.55637 11.8696C8.41968 12.9086 8.35134 13.9543 8.35134 15C8.35134 16.0457 8.41968 17.0914 8.55637 18.1304C8.61784 18.5977 8.69812 19.0651 8.85867 20Z" fill="#111111"/>
<path d="M8.35134 15L12 15C14.8003 15 16.2004 15 17.27 14.455C18.2108 13.9757 18.9757 13.2108 19.455 12.27C20 11.2004 20 9.80026 20 7L20 4M8.35134 15C8.35134 16.0457 8.41968 17.0914 8.55637 18.1304C8.61784 18.5977 8.69812 19.0651 8.85867 20C7.10583 18.7037 5.53153 17.1893 4.1746 15.4953C4.0582 15.3499 4 15.175 4 15C4 14.825 4.0582 14.6501 4.1746 14.5047C5.53153 12.8107 7.10583 11.2963 8.85867 10C8.69812 10.9349 8.61784 11.4023 8.55637 11.8696C8.41968 12.9086 8.35134 13.9543 8.35134 15Z" stroke="#111111" stroke-width="2" stroke-linecap="round" stroke-linejoin="round"/>
</svg>
