<svg width="24" height="24" viewBox="0 0 24 24" fill="none" xmlns="http://www.w3.org/2000/svg">
<path opacity="0.28" d="M7.21659 5.23647L5.23659 7.21647C4.84059 7.61247 4.64259 7.81047 4.56859 8.03847C4.50334 8.2393 4.50334 8.45564 4.56859 8.65647C4.64259 8.88547 4.84059 9.08347 5.23659 9.47947L12.2536 16.4955C11.2618 17.3939 10.2405 18.2594 9.19159 19.0905C12.2032 19.5422 15.2606 19.6021 18.2876 19.2685C18.5381 19.2411 18.7717 19.129 18.9499 18.9508C19.1281 18.7726 19.2402 18.539 19.2676 18.2885C19.6022 15.2612 19.5427 12.2034 19.0906 9.19147C18.2596 10.2405 17.3941 11.2617 16.4956 12.2535L9.47959 5.23647C9.08359 4.84047 8.88559 4.64247 8.65659 4.56847C8.45576 4.50322 8.23942 4.50322 8.03859 4.56847C7.81059 4.64247 7.61259 4.84047 7.21659 5.23647Z" fill="#111111"/>
<path d="M5.23657 7.21659L7.21646 5.23669C7.61248 4.84067 7.81049 4.64266 8.03882 4.56847C8.23966 4.50322 8.45601 4.50322 8.65685 4.56848C8.88518 4.64266 9.08319 4.84067 9.47921 5.23669L16.496 12.2535C17.3938 11.2624 18.2593 10.2412 19.0908 9.19146C19.5428 12.21 19.6021 15.2676 19.2684 18.2879C19.2397 18.547 19.1241 18.7778 18.9509 18.951C18.7777 19.1243 18.5469 19.2399 18.2878 19.2685C15.2674 19.6023 12.2098 19.5429 9.19133 19.091C10.241 18.2594 11.2622 17.394 12.2534 16.4962L5.23657 9.47933C4.84055 9.08331 4.64254 8.8853 4.56835 8.65698C4.50309 8.45613 4.50309 8.23978 4.56835 8.03894C4.64254 7.81061 4.84055 7.6126 5.23657 7.21659Z" stroke="#111111" stroke-width="2" stroke-linecap="round" stroke-linejoin="round"/>
</svg>
