<svg width="24" height="24" viewBox="0 0 24 24" fill="none" xmlns="http://www.w3.org/2000/svg">
<path opacity="0.28" d="M10.6 20.9967H13.4C13.96 20.9967 14.24 20.9967 14.454 20.8877C14.6422 20.7918 14.7951 20.6388 14.891 20.4507C15 20.2377 15 19.9567 15 19.3967V9.47368C16.3366 9.53967 17.6707 9.64973 19 9.80368C17.1896 7.3549 15.0696 5.1509 12.693 3.24668C12.4965 3.08892 12.252 3.00293 12 3.00293C11.748 3.00293 11.5035 3.08892 11.307 3.24668C8.93035 5.15122 6.81039 7.35555 5 9.80468C6.33 9.64968 7.664 9.53968 9 9.47468V19.3957C9 19.9557 9 20.2357 9.109 20.4497C9.20487 20.6378 9.35785 20.7908 9.546 20.8867C9.76 20.9967 10.04 20.9967 10.6 20.9967Z" fill="#111111"/>
<path d="M13.4 20.997H10.6C10.0399 20.997 9.75992 20.997 9.54601 20.888C9.35784 20.7921 9.20486 20.6391 9.10899 20.451C9 20.2371 9 19.957 9 19.397V9.47368C7.6643 9.5397 6.33024 9.64983 5 9.80409C6.81482 7.35012 8.93491 5.14609 11.3066 3.2464C11.5101 3.08343 11.755 3.00195 12 3.00195C12.245 3.00195 12.4899 3.08343 12.6934 3.2464C15.0651 5.14609 17.1852 7.35012 19 9.80409C17.6698 9.64983 16.3357 9.5397 15 9.47368V19.397C15 19.957 15 20.2371 14.891 20.451C14.7951 20.6391 14.6421 20.7921 14.454 20.888C14.2401 20.997 13.9601 20.997 13.4 20.997Z" stroke="#111111" stroke-width="2" stroke-linecap="round" stroke-linejoin="round"/>
</svg>
