<svg width="24" height="24" viewBox="0 0 24 24" fill="none" xmlns="http://www.w3.org/2000/svg">
<path opacity="0.28" d="M15.1414 20C16.8942 18.7037 18.4685 17.1893 19.8254 15.4953C19.9418 15.3499 20 15.175 20 15C20 14.825 19.9418 14.6501 19.8254 14.5047C18.4685 12.8107 16.8942 11.2963 15.1414 10C15.3019 10.9349 15.3822 11.4023 15.4437 11.8696C15.5803 12.9086 15.6487 13.9543 15.6487 15C15.6487 16.0457 15.5803 17.0914 15.4437 18.1304C15.3822 18.5977 15.3019 19.0651 15.1414 20Z" fill="#111111"/>
<path d="M15.6487 15L12 15C9.19974 15 7.79961 15 6.73005 14.455C5.78924 13.9757 5.02433 13.2108 4.54497 12.27C4 11.2004 4 9.80026 4 7L4 4M15.6487 15C15.6487 16.0457 15.5803 17.0914 15.4436 18.1304C15.3822 18.5977 15.3019 19.0651 15.1413 20C16.8942 18.7037 18.4685 17.1893 19.8254 15.4953C19.9418 15.3499 20 15.175 20 15C20 14.825 19.9418 14.6501 19.8254 14.5047C18.4685 12.8107 16.8942 11.2963 15.1413 10C15.3019 10.9349 15.3822 11.4023 15.4436 11.8696C15.5803 12.9086 15.6487 13.9543 15.6487 15Z" stroke="#111111" stroke-width="2" stroke-linecap="round" stroke-linejoin="round"/>
</svg>
