<svg width="24" height="24" viewBox="0 0 24 24" fill="none" xmlns="http://www.w3.org/2000/svg">
<path opacity="0.28" d="M20 15.1416C18.7037 16.8944 17.1893 18.4687 15.4953 19.8257C15.3499 19.9421 15.175 20.0003 15 20.0003C14.825 20.0003 14.6501 19.9421 14.5047 19.8257C12.8107 18.4687 11.2963 16.8944 10 15.1416C10.9349 15.3022 11.4023 15.3824 11.8696 15.4439C12.9086 15.5806 13.9543 15.6489 15 15.6489C16.0457 15.6489 17.0914 15.5806 18.1304 15.4439C18.5977 15.3824 19.0651 15.3022 20 15.1416Z" fill="#111111"/>
<path d="M15 15.6487V12C15 9.19974 15 7.79961 14.455 6.73005C13.9757 5.78924 13.2108 5.02433 12.27 4.54497C11.2004 4 9.80026 4 7 4L4 4M15 15.6487C16.0457 15.6487 17.0914 15.5803 18.1304 15.4436C18.5977 15.3822 19.0651 15.3019 20 15.1413C18.7037 16.8942 17.1893 18.4685 15.4953 19.8254C15.3499 19.9418 15.175 20 15 20C14.825 20 14.6501 19.9418 14.5047 19.8254C12.8107 18.4685 11.2963 16.8942 10 15.1413C10.9349 15.3019 11.4023 15.3822 11.8696 15.4436C12.9086 15.5803 13.9543 15.6487 15 15.6487Z" stroke="#111111" stroke-width="2" stroke-linecap="round" stroke-linejoin="round"/>
</svg>
