<svg width="24" height="24" viewBox="0 0 24 24" fill="none" xmlns="http://www.w3.org/2000/svg">
<path opacity="0.28" d="M2.84985 12.0001C2.84985 17.0535 6.94645 21.1501 11.9999 21.1501C17.0533 21.1501 21.1499 17.0535 21.1499 12.0001C21.1499 6.94669 17.0533 2.8501 11.9999 2.8501C6.94645 2.8501 2.84985 6.94669 2.84985 12.0001Z" fill="#111111"/>
<path d="M12.0511 8.00006C13.4757 9.03711 14.7551 10.2486 15.8579 11.6039C15.9525 11.7201 15.9998 11.8601 15.9998 12.0001M12.0511 16.0001C13.4757 14.963 14.7551 13.7515 15.8579 12.3963C15.9525 12.28 15.9998 12.14 15.9998 12.0001M15.9998 12.0001L7.99977 12.0001M11.9999 21.1501C6.94645 21.1501 2.84985 17.0535 2.84985 12.0001C2.84985 6.94669 6.94645 2.8501 11.9999 2.8501C17.0533 2.8501 21.1499 6.94669 21.1499 12.0001C21.1499 17.0535 17.0533 21.1501 11.9999 21.1501Z" stroke="#111111" stroke-width="2" stroke-linecap="round" stroke-linejoin="round"/>
</svg>
