<svg width="24" height="24" viewBox="0 0 24 24" fill="none" xmlns="http://www.w3.org/2000/svg">
<path opacity="0.28" d="M5.59114 6.43163C5.30505 9.0205 5.35593 11.6413 5.74331 14.2286L9.77353 9.77353L14.2286 5.74331C11.6413 5.35593 9.0205 5.30505 6.43163 5.59114C6.20955 5.61568 6.0117 5.71476 5.86323 5.86323C5.71476 6.0117 5.61568 6.20955 5.59114 6.43163Z" fill="#111111"/>
<path d="M9.77353 9.77353L5.74331 14.2286C5.35593 11.6413 5.30505 9.0205 5.59114 6.43163C5.61568 6.20955 5.71476 6.0117 5.86323 5.86323C6.0117 5.71476 6.20955 5.61568 6.43163 5.59114C9.0205 5.30505 11.6413 5.35593 14.2286 5.74331L9.77353 9.77353ZM9.77353 9.77353L18.5912 18.5912" stroke="#111111" stroke-width="2" stroke-linecap="round" stroke-linejoin="round"/>
</svg>
