<svg width="24" height="24" viewBox="0 0 24 24" fill="none" xmlns="http://www.w3.org/2000/svg">
<path opacity="0.28" d="M20 8.85867C18.7037 7.10583 17.1893 5.53153 15.4953 4.1746C15.3499 4.0582 15.175 4 15 4C14.825 4 14.6501 4.0582 14.5047 4.1746C12.8107 5.53153 11.2963 7.10583 10 8.85867C10.9349 8.69812 11.4023 8.61784 11.8696 8.55637C12.9086 8.41968 13.9543 8.35134 15 8.35134C16.0457 8.35134 17.0914 8.41968 18.1304 8.55637C18.5977 8.61784 19.0651 8.69812 20 8.85867Z" fill="#111111"/>
<path d="M15 8.35134V12C15 14.8003 15 16.2004 14.455 17.27C13.9757 18.2108 13.2108 18.9757 12.27 19.455C11.2004 20 9.80026 20 7 20H4M15 8.35134C16.0457 8.35134 17.0914 8.41968 18.1304 8.55637C18.5977 8.61784 19.0651 8.69812 20 8.85867C18.7037 7.10583 17.1893 5.53153 15.4953 4.1746C15.3499 4.0582 15.175 4 15 4C14.825 4 14.6501 4.0582 14.5047 4.1746C12.8107 5.53153 11.2963 7.10583 10 8.85867C10.9349 8.69812 11.4023 8.61784 11.8696 8.55637C12.9086 8.41968 13.9543 8.35134 15 8.35134Z" stroke="#111111" stroke-width="2" stroke-linecap="round" stroke-linejoin="round"/>
</svg>
