<svg width="24" height="24" viewBox="0 0 24 24" fill="none" xmlns="http://www.w3.org/2000/svg">
<path opacity="0.28" d="M7.21671 18.7638L5.23671 16.7838C4.84071 16.3878 4.64271 16.1898 4.56871 15.9618C4.50346 15.761 4.50346 15.5446 4.56871 15.3438C4.64271 15.1148 4.84071 14.9168 5.23671 14.5208L12.2537 7.5048C11.2619 6.60633 10.2407 5.74085 9.19171 4.9098C12.2033 4.45803 15.2607 4.3982 18.2877 4.7318C18.5382 4.75921 18.7719 4.87127 18.9501 5.04946C19.1282 5.22765 19.2403 5.4613 19.2677 5.7118C19.6023 8.73903 19.5428 11.7969 19.0907 14.8088C18.2597 13.7598 17.3942 12.7386 16.4957 11.7468L9.47971 18.7638C9.08371 19.1598 8.88571 19.3578 8.65671 19.4318C8.45588 19.497 8.23955 19.497 8.03871 19.4318C7.81071 19.3578 7.61271 19.1598 7.21671 18.7638Z" fill="#111111"/>
<path d="M5.23644 16.784L7.21634 18.7639C7.61236 19.1599 7.81037 19.3579 8.0387 19.4321C8.23954 19.4974 8.45589 19.4974 8.65673 19.4321C8.88506 19.3579 9.08307 19.1599 9.47908 18.7639L16.4959 11.7471C17.3937 12.7382 18.2592 13.7594 19.0907 14.8091C19.5426 11.7906 19.602 8.73302 19.2682 5.71268C19.2396 5.45358 19.124 5.22276 18.9508 5.04954C18.7776 4.87633 18.5468 4.76073 18.2877 4.7321C15.2673 4.39834 12.2097 4.45769 9.19121 4.90963C10.2409 5.74118 11.2621 6.60663 12.2533 7.50443L5.23644 14.5213C4.84043 14.9173 4.64242 15.1153 4.56823 15.3436C4.50297 15.5445 4.50297 15.7608 4.56823 15.9616C4.64242 16.19 4.84043 16.388 5.23644 16.784Z" stroke="#111111" stroke-width="2" stroke-linecap="round" stroke-linejoin="round"/>
</svg>
