<svg width="24" height="24" viewBox="0 0 24 24" fill="none" xmlns="http://www.w3.org/2000/svg">
<path opacity="0.28" d="M20.9969 13.4V10.6C20.9969 10.04 20.9969 9.76 20.8879 9.546C20.7921 9.35785 20.6391 9.20487 20.4509 9.109C20.2379 9 19.9569 9 19.3969 9L9.47392 9C9.53992 7.6634 9.64998 6.32934 9.80392 5C7.35514 6.81045 5.15115 8.93041 3.24692 11.307C3.08916 11.5035 3.00317 11.748 3.00317 12C3.00317 12.252 3.08916 12.4965 3.24692 12.693C5.15146 15.0696 7.3558 17.1896 9.80492 19C9.64992 17.67 9.53992 16.336 9.47492 15H19.3959C19.9559 15 20.2359 15 20.4499 14.891C20.6381 14.7951 20.7911 14.6422 20.8869 14.454C20.9969 14.24 20.9969 13.96 20.9969 13.4Z" fill="#111111"/>
<path d="M20.9975 10.6V13.4C20.9975 13.9601 20.9975 14.2401 20.8885 14.454C20.7926 14.6422 20.6396 14.7951 20.4515 14.891C20.2375 15 19.9575 15 19.3975 15H9.47417C9.54019 16.3357 9.65032 17.6698 9.80457 19C7.35061 17.1852 5.14658 15.0651 3.24688 12.6934C3.08392 12.4899 3.00244 12.245 3.00244 12C3.00244 11.755 3.08392 11.5101 3.24688 11.3066C5.14658 8.93491 7.35061 6.81482 9.80457 5C9.65032 6.33024 9.54019 7.6643 9.47417 9L19.3975 9C19.9575 9 20.2375 9 20.4515 9.109C20.6396 9.20487 20.7926 9.35785 20.8885 9.54601C20.9975 9.75992 20.9975 10.0399 20.9975 10.6Z" stroke="#111111" stroke-width="2" stroke-linecap="round" stroke-linejoin="round"/>
</svg>
