<svg width="24" height="24" viewBox="0 0 24 24" fill="none" xmlns="http://www.w3.org/2000/svg">
<g opacity="0.28">
<path d="M11.7021 7.1058C10.3071 8.22872 9.06206 9.53812 8 11L12 10.7L16 11C14.9379 9.53812 13.6929 8.22872 12.2979 7.1058C12.1226 6.96473 11.8774 6.96473 11.7021 7.1058Z" fill="#111111"/>
<path d="M11.7021 13.1058C10.3071 14.2287 9.06206 15.5381 8 17L12 16.7L16 17C14.9379 15.5381 13.6929 14.2287 12.2979 13.1058C12.1226 12.9647 11.8774 12.9647 11.7021 13.1058Z" fill="#111111"/>
</g>
<path d="M11.7021 7.1058C10.3071 8.22872 9.06206 9.53812 8 11L12 10.7L16 11C14.9379 9.53812 13.6929 8.22872 12.2979 7.1058C12.1226 6.96473 11.8774 6.96473 11.7021 7.1058Z" stroke="#111111" stroke-width="2" stroke-linecap="round" stroke-linejoin="round"/>
<path d="M11.7021 13.1058C10.3071 14.2287 9.06206 15.5381 8 17L12 16.7L16 17C14.9379 15.5381 13.6929 14.2287 12.2979 13.1058C12.1226 12.9647 11.8774 12.9647 11.7021 13.1058Z" stroke="#111111" stroke-width="2" stroke-linecap="round" stroke-linejoin="round"/>
</svg>
