<svg width="24" height="24" viewBox="0 0 24 24" fill="none" xmlns="http://www.w3.org/2000/svg">
<g opacity="0.28">
<path d="M7.1058 11.7021C8.22872 10.3071 9.53812 9.06206 11 8L10.8346 10.205C10.745 11.4 10.745 12.6 10.8346 13.795L11 16C9.53812 14.9379 8.22872 13.6929 7.1058 12.2979C6.96473 12.1226 6.96473 11.8774 7.1058 11.7021Z" fill="#111111"/>
<path d="M13.1058 11.7021C14.2287 10.3071 15.5381 9.06206 17 8L16.8346 10.205C16.745 11.4 16.745 12.6 16.8346 13.795L17 16C15.5381 14.9379 14.2287 13.6929 13.1058 12.2979C12.9647 12.1226 12.9647 11.8774 13.1058 11.7021Z" fill="#111111"/>
</g>
<path d="M7.1058 11.7021C8.22872 10.3071 9.53812 9.06206 11 8L10.8346 10.205C10.745 11.4 10.745 12.6 10.8346 13.795L11 16C9.53812 14.9379 8.22872 13.6929 7.1058 12.2979C6.96473 12.1226 6.96473 11.8774 7.1058 11.7021Z" stroke="#111111" stroke-width="2" stroke-linecap="round" stroke-linejoin="round"/>
<path d="M13.1058 11.7021C14.2287 10.3071 15.5381 9.06206 17 8L16.8346 10.205C16.745 11.4 16.745 12.6 16.8346 13.795L17 16C15.5381 14.9379 14.2287 13.6929 13.1058 12.2979C12.9647 12.1226 12.9647 11.8774 13.1058 11.7021Z" stroke="#111111" stroke-width="2" stroke-linecap="round" stroke-linejoin="round"/>
</svg>
