<svg width="24" height="24" viewBox="0 0 24 24" fill="none" xmlns="http://www.w3.org/2000/svg">
<g opacity="0.28">
<path d="M18.5742 19.7989C19.4793 19.0779 20.2936 18.2567 21 17.3517L20.3743 17.4139C19.5848 17.4924 18.7924 17.5317 18 17.5317C17.2076 17.5317 16.4152 17.4924 15.6257 17.4139L15 17.3517C15.7064 18.2567 16.5207 19.0779 17.4258 19.7989C17.5941 19.933 17.797 20 18 20C18.203 20 18.4059 19.933 18.5742 19.7989Z" fill="#111111"/>
<path d="M5.42576 4.20111C4.52073 4.92208 3.70641 5.74331 3 6.64825L3.62568 6.58605C4.41517 6.50756 5.20759 6.46831 6 6.46831C6.79241 6.46831 7.58483 6.50756 8.37432 6.58605L9 6.64825C8.29359 5.74331 7.47927 4.92208 6.57424 4.20111C6.40595 4.06704 6.20297 4 6 4C5.79703 4 5.59405 4.06704 5.42576 4.20111Z" fill="#111111"/>
</g>
<path d="M18 17.5317V7C18 5.34315 16.6569 4 15 4C13.3431 4 12 5.34315 12 7V17C12 18.6569 10.6569 20 9 20C7.34315 20 6 18.6569 6 17L6 6.46831M18 17.5317C18.7924 17.5317 19.5848 17.4924 20.3743 17.4139L21 17.3517C20.2936 18.2567 19.4793 19.0779 18.5742 19.7989C18.4059 19.933 18.203 20 18 20C17.797 20 17.5941 19.933 17.4258 19.7989C16.5207 19.0779 15.7064 18.2567 15 17.3517L15.6257 17.4139C16.4152 17.4924 17.2076 17.5317 18 17.5317ZM6 6.46831C5.20759 6.46831 4.41517 6.50756 3.62568 6.58605L3 6.64825C3.70641 5.74331 4.52073 4.92208 5.42576 4.20111C5.59405 4.06704 5.79703 4 6 4C6.20297 4 6.40595 4.06704 6.57424 4.20111C7.47927 4.92208 8.29359 5.74331 9 6.64825L8.37432 6.58605C7.58483 6.50756 6.79241 6.46831 6 6.46831Z" stroke="#111111" stroke-width="2" stroke-linecap="round" stroke-linejoin="round"/>
</svg>
