<svg width="24" height="24" viewBox="0 0 24 24" fill="none" xmlns="http://www.w3.org/2000/svg">
<path opacity="0.28" d="M19.9018 4.54285C20.0696 6.17131 20.022 7.82317 19.7596 9.45602L18.6137 8.10956C18.1972 7.6202 17.7614 7.14796 17.3074 6.69394C16.8534 6.23994 16.3812 5.80415 15.8918 5.38768L14.5454 4.24174C16.1782 3.97939 17.8301 3.93172 19.4585 4.09953C19.5766 4.1117 19.6814 4.16348 19.7596 4.24174C19.8379 4.32001 19.8897 4.42475 19.9018 4.54285Z" fill="#111111"/>
<path d="M19.9741 13.5C19.6642 17.1412 16.6103 20 12.8889 20H12C7.58172 20 4 16.4183 4 12V11.1111C4 7.3896 6.85873 4.3358 10.5 4.02588M17.3075 6.69394L10 14.0015M17.3075 6.69394C17.7615 7.14796 18.1973 7.6202 18.6138 8.10956L19.7597 9.45602C20.0221 7.82317 20.0697 6.17131 19.9019 4.54285C19.8898 4.42475 19.838 4.32001 19.7597 4.24174C19.6815 4.16348 19.5767 4.1117 19.4586 4.09953C17.8302 3.93172 16.1783 3.97939 14.5455 4.24174L15.8919 5.38768C16.3813 5.80415 16.8535 6.23994 17.3075 6.69394Z" stroke="#111111" stroke-width="2" stroke-linecap="round" stroke-linejoin="round"/>
</svg>
