<svg width="24" height="24" viewBox="0 0 24 24" fill="none" xmlns="http://www.w3.org/2000/svg">
<g opacity="0.28">
<path d="M12 6.28858C13.7786 5.99076 15.5759 5.92321 17.3472 6.08707C17.4991 6.10113 17.6335 6.16659 17.7335 6.26652C17.8334 6.36646 17.8989 6.50086 17.9129 6.65281C18.0768 8.42407 18.0092 10.2214 17.7114 12L17.6648 11.94C16.036 9.84671 14.1533 7.96401 12.06 6.33524L12 6.28858Z" fill="#111111"/>
<path d="M12 17.7114C10.2214 18.0092 8.42407 18.0768 6.65281 17.9129C6.50086 17.8989 6.36646 17.8334 6.26652 17.7335C6.16659 17.6335 6.10113 17.4991 6.08707 17.3472C5.92321 15.5759 5.99076 13.7786 6.28858 12L6.33524 12.06C7.96401 14.1533 9.84671 16.036 11.94 17.6648L12 17.7114Z" fill="#111111"/>
</g>
<path d="M17.3472 6.08707C15.5759 5.92321 13.7786 5.99076 12 6.28858L15.2121 8.78787L17.7114 12C18.0092 10.2214 18.0768 8.42407 17.9129 6.65281C17.8989 6.50086 17.8334 6.36646 17.7335 6.26652C17.6335 6.16659 17.4991 6.10113 17.3472 6.08707Z" stroke="#111111" stroke-width="2" stroke-linecap="round" stroke-linejoin="round"/>
<path d="M6.65281 17.9129C8.42407 18.0768 10.2214 18.0092 12 17.7114L8.78787 15.2121L6.28858 12C5.99076 13.7786 5.92321 15.5759 6.08707 17.3472C6.10113 17.4991 6.16659 17.6335 6.26652 17.7335C6.36646 17.8334 6.50086 17.8989 6.65281 17.9129Z" stroke="#111111" stroke-width="2" stroke-linecap="round" stroke-linejoin="round"/>
</svg>
