<svg width="24" height="24" viewBox="0 0 24 24" fill="none" xmlns="http://www.w3.org/2000/svg">
<path opacity="0.28" d="M12.3962 4.14485C13.7515 5.2706 14.963 6.57669 16 8.03089L13.9786 7.86368C13.3202 7.80921 12.6601 7.78198 12 7.78198C11.3399 7.78198 10.6798 7.80921 10.0214 7.86368L8 8.03089C9.03704 6.57669 10.2485 5.2706 11.6038 4.14485C11.72 4.04828 11.86 4 12 4C12.14 4 12.28 4.04828 12.3962 4.14485Z" fill="#111111"/>
<path d="M12 7.78198V13L6 20M12 7.78198C12.6601 7.78198 13.3202 7.80921 13.9786 7.86368L16 8.03089C14.963 6.57669 13.7515 5.2706 12.3962 4.14485C12.28 4.04828 12.14 4 12 4C11.86 4 11.72 4.04828 11.6038 4.14485C10.2485 5.2706 9.03704 6.57669 8 8.03089L10.0214 7.86368C10.6798 7.80921 11.3399 7.78198 12 7.78198ZM18 20L14.5714 16" stroke="#111111" stroke-width="2" stroke-linecap="round" stroke-linejoin="round"/>
</svg>
