<svg width="24" height="24" viewBox="0 0 24 24" fill="none" xmlns="http://www.w3.org/2000/svg">
<g opacity="0.28">
<path d="M8.75306 9.25594C7.1786 9.40159 5.58095 9.34155 4 9.07682L5.22918 8.036C6.24069 7.1795 7.1795 6.24069 8.036 5.22918L9.07681 4C9.34155 5.58095 9.40159 7.1786 9.25593 8.75306C9.24344 8.88812 9.18525 9.00759 9.09642 9.09642C9.00759 9.18525 8.88812 9.24344 8.75306 9.25594Z" fill="#111111"/>
<path d="M20.0033 9.07682C18.4223 9.34155 16.8247 9.40159 15.2502 9.25594C15.1152 9.24344 14.9957 9.18525 14.9069 9.09642C14.818 9.00759 14.7599 8.88812 14.7474 8.75306C14.6017 7.1786 14.6617 5.58095 14.9265 4L15.9673 5.22918C16.8238 6.24069 17.7626 7.1795 18.7741 8.036L20.0033 9.07682Z" fill="#111111"/>
<path d="M8.75636 14.7439C7.1819 14.5982 5.58424 14.6583 4.0033 14.923L5.23248 15.9638C6.24398 16.8203 7.1828 17.7591 8.0393 18.7707L9.08011 19.9998C9.34484 18.4189 9.40488 16.8212 9.25923 15.2468C9.24674 15.1117 9.18855 14.9922 9.09972 14.9034C9.01089 14.8146 8.89142 14.7564 8.75636 14.7439Z" fill="#111111"/>
<path d="M15.2469 14.7439C16.8214 14.5982 18.4191 14.6583 20 14.923L18.7708 15.9638C17.7593 16.8203 16.8205 17.7591 15.964 18.7707L14.9232 19.9998C14.6585 18.4189 14.5984 16.8212 14.7441 15.2468C14.7566 15.1117 14.8147 14.9922 14.9036 14.9034C14.9924 14.8146 15.1119 14.7564 15.2469 14.7439Z" fill="#111111"/>
</g>
<path d="M15.2469 14.7439C16.8214 14.5982 18.4191 14.6583 20 14.923L18.7708 15.9638C17.7593 16.8203 16.8205 17.7592 15.964 18.7707L14.9232 19.9998C14.6585 18.4189 14.5984 16.8212 14.7441 15.2468C14.7566 15.1117 14.8147 14.9922 14.9036 14.9034C14.9924 14.8146 15.1119 14.7564 15.2469 14.7439Z" stroke="#111111" stroke-width="2" stroke-linecap="round" stroke-linejoin="round"/>
<path d="M8.75636 14.7439C7.1819 14.5982 5.58424 14.6583 4.0033 14.923L5.23248 15.9638C6.24398 16.8203 7.1828 17.7592 8.0393 18.7707L9.08011 19.9998C9.34484 18.4189 9.40488 16.8212 9.25923 15.2468C9.24674 15.1117 9.18855 14.9922 9.09972 14.9034C9.01089 14.8146 8.89142 14.7564 8.75636 14.7439Z" stroke="#111111" stroke-width="2" stroke-linecap="round" stroke-linejoin="round"/>
<path d="M15.2502 9.25594C16.8247 9.40159 18.4223 9.34155 20.0033 9.07682L18.7741 8.036C17.7626 7.1795 16.8238 6.24069 15.9673 5.22918L14.9265 4C14.6618 5.58095 14.6017 7.1786 14.7474 8.75306C14.7599 8.88812 14.818 9.00759 14.9069 9.09642C14.9957 9.18525 15.1152 9.24344 15.2502 9.25594Z" stroke="#111111" stroke-width="2" stroke-linecap="round" stroke-linejoin="round"/>
<path d="M8.75306 9.25594C7.1786 9.40159 5.58095 9.34155 4 9.07682L5.22918 8.036C6.24069 7.1795 7.1795 6.24069 8.036 5.22918L9.07681 4C9.34155 5.58095 9.40159 7.1786 9.25593 8.75306C9.24344 8.88812 9.18525 9.00759 9.09642 9.09642C9.00759 9.18525 8.88812 9.24344 8.75306 9.25594Z" stroke="#111111" stroke-width="2" stroke-linecap="round" stroke-linejoin="round"/>
</svg>
