<svg width="24" height="24" viewBox="0 0 24 24" fill="none" xmlns="http://www.w3.org/2000/svg">
<g opacity="0.28">
<path d="M17.4999 2.47021C18.0092 3.66231 18.3615 4.9149 18.5485 6.19658C18.5806 6.41647 18.4578 6.62912 18.2514 6.71127C18.191 6.73528 18.1306 6.75889 18.0699 6.7821C16.9214 7.22192 15.7224 7.51908 14.4999 7.66637L14.8575 7.16914C15.7902 5.87192 16.591 4.48481 17.2481 3.02845L17.4999 2.47021Z" fill="#111111"/>
<path d="M6.49993 21.5262C5.99071 20.3341 5.63839 19.0815 5.45136 17.7999C5.41927 17.58 5.54204 17.3673 5.74852 17.2852C5.80884 17.2612 5.86931 17.2376 5.92992 17.2143C7.07847 16.7745 8.27745 16.4774 9.49993 16.3301L9.14241 16.8273C8.2097 18.1245 7.40885 19.5116 6.75178 20.968L6.49993 21.5262Z" fill="#111111"/>
</g>
<path d="M19.9085 10.7925C20.1745 12.5275 19.874 14.3615 18.9281 15.9999C16.7189 19.8263 11.8262 21.1373 7.99987 18.9281C7.94769 18.898 7.89599 18.8674 7.84475 18.8363M4.15789 13.5826C3.78506 11.7389 4.05722 9.75698 5.07167 7.99991C7.28081 4.17357 12.1735 2.86257 15.9999 5.07171C16.0516 5.10157 16.1028 5.13191 16.1536 5.16274M7.84475 18.8363C7.44539 19.5278 7.08056 20.2393 6.75173 20.9681L6.49988 21.5264C5.99066 20.3343 5.63834 19.0817 5.45131 17.8C5.41922 17.5801 5.54199 17.3675 5.74847 17.2853C5.80879 17.2613 5.86926 17.2377 5.92987 17.2145C7.07842 16.7747 8.2774 16.4775 9.49988 16.3302L9.14236 16.8274C8.67642 17.4755 8.24339 18.1459 7.84475 18.8363ZM16.1536 5.16274C16.5535 4.47043 16.9188 3.75813 17.248 3.02845L17.4999 2.47021C18.0091 3.66231 18.3614 4.9149 18.5484 6.19658C18.5805 6.41647 18.4578 6.62912 18.2513 6.71127C18.191 6.73528 18.1305 6.75889 18.0699 6.7821C16.9213 7.22192 15.7224 7.51908 14.4999 7.66637L14.8574 7.16914C15.3228 6.52186 15.7554 5.85221 16.1536 5.16274Z" stroke="#111111" stroke-width="2" stroke-linecap="round" stroke-linejoin="round"/>
</svg>
