<svg width="24" height="24" viewBox="0 0 24 24" fill="none" xmlns="http://www.w3.org/2000/svg">
<g opacity="0.28">
<path d="M17.113 6C18.5153 7.03704 19.7747 8.24852 20.8603 9.60379C20.9534 9.72005 20.9999 9.86002 20.9999 10H17.3439C17.3439 9.40735 17.322 8.81471 17.2781 8.22328L17.113 6Z" fill="#111111"/>
<path d="M6.88693 18C5.48467 16.963 4.22522 15.7515 3.13968 14.3962C3.04656 14.28 3 14.14 3 14H6.65604C6.65604 14.5926 6.67799 15.1853 6.72189 15.7767L6.88693 18Z" fill="#111111"/>
</g>
<path d="M17.344 10H21C21 9.86002 20.9534 9.72005 20.8603 9.60379C19.7748 8.24852 18.5153 7.03704 17.1131 6L17.2781 8.22328C17.322 8.81471 17.344 9.40735 17.344 10ZM17.344 10H6M6.65604 14H3C3 14.14 3.04656 14.28 3.13968 14.3962C4.22522 15.7515 5.48467 16.963 6.88693 18L6.72189 15.7767C6.67799 15.1853 6.65604 14.5926 6.65604 14ZM6.65604 14H18" stroke="#111111" stroke-width="2" stroke-linecap="round" stroke-linejoin="round"/>
</svg>
