<svg width="24" height="24" viewBox="0 0 24 24" fill="none" xmlns="http://www.w3.org/2000/svg">
<g opacity="0.28">
<path d="M15.6038 20.8603C14.2485 19.7748 13.037 18.5153 12 17.1131L14.2233 17.2781C14.8147 17.322 15.4074 17.344 16 17.344C16.5926 17.344 17.1853 17.322 17.7767 17.2781L20 17.1131C18.963 18.5153 17.7515 19.7748 16.3962 20.8603C16.28 20.9534 16.14 21 16 21C15.86 21 15.72 20.9534 15.6038 20.8603Z" fill="#111111"/>
<path d="M4 6.88693C5.03704 5.48467 6.24852 4.22522 7.60379 3.13968C7.72005 3.04656 7.86002 3 8 3C8.13998 3 8.27995 3.04656 8.39621 3.13968C9.75148 4.22522 10.963 5.48467 12 6.88693L9.77672 6.72189C9.18529 6.67799 8.59265 6.65604 8 6.65604C7.40735 6.65604 6.81471 6.67799 6.22328 6.72189L4 6.88693Z" fill="#111111"/>
</g>
<path d="M16 17.344V7M16 17.344C15.4074 17.344 14.8147 17.322 14.2233 17.2781L12 17.1131C13.037 18.5153 14.2485 19.7748 15.6038 20.8603C15.72 20.9534 15.86 21 16 21C16.14 21 16.28 20.9534 16.3962 20.8603C17.7515 19.7748 18.963 18.5153 20 17.1131L17.7767 17.2781C17.1853 17.322 16.5926 17.344 16 17.344ZM8 6.65604V17M8 6.65604C7.40735 6.65604 6.81471 6.67799 6.22328 6.72189L4 6.88693C5.03704 5.48467 6.24852 4.22522 7.60379 3.13968C7.72005 3.04656 7.86002 3 8 3C8.13998 3 8.27995 3.04656 8.39621 3.13968C9.75148 4.22522 10.963 5.48467 12 6.88693L9.77672 6.72189C9.18529 6.67799 8.59265 6.65604 8 6.65604Z" stroke="#111111" stroke-width="2" stroke-linecap="round" stroke-linejoin="round"/>
</svg>
