<svg width="24" height="24" viewBox="0 0 24 24" fill="none" xmlns="http://www.w3.org/2000/svg">
<g opacity="0.28">
<path d="M18 17.113C16.963 18.5153 15.7515 19.7747 14.3962 20.8603C14.28 20.9534 14.14 20.9999 14 20.9999V17.3439C14.5926 17.3439 15.1853 17.322 15.7767 17.2781L18 17.113Z" fill="#111111"/>
<path d="M6 6.88693C7.03704 5.48467 8.24852 4.22522 9.60379 3.13968C9.72005 3.04656 9.86002 3 10 3V6.65604C9.40735 6.65604 8.81471 6.67799 8.22328 6.72189L6 6.88693Z" fill="#111111"/>
</g>
<path d="M14 17.344V21C14.14 21 14.28 20.9534 14.3962 20.8603C15.7515 19.7748 16.963 18.5153 18 17.1131L15.7767 17.2781C15.1853 17.322 14.5926 17.344 14 17.344ZM14 17.344L14 6M10 6.65604V3C9.86002 3 9.72005 3.04656 9.60379 3.13968C8.24852 4.22522 7.03704 5.48467 6 6.88693L8.22328 6.72189C8.81471 6.67799 9.40735 6.65604 10 6.65604ZM10 6.65604L10 18" stroke="#111111" stroke-width="2" stroke-linecap="round" stroke-linejoin="round"/>
</svg>
