<svg width="24" height="24" viewBox="0 0 24 24" fill="none" xmlns="http://www.w3.org/2000/svg">
<path opacity="0.28" d="M16.4043 4.14485C17.7878 5.2706 19.0245 6.57669 20.0832 8.03089L17.7636 7.85997C17.1765 7.8167 16.5881 7.79507 15.9998 7.79507C15.4115 7.79507 14.8232 7.8167 14.2361 7.85997L11.9165 8.03089C12.9752 6.57669 14.2119 5.2706 15.5954 4.14485C15.7141 4.04828 15.8569 4 15.9998 4C16.1427 4 16.2856 4.04828 16.4043 4.14485Z" fill="#111111"/>
<path d="M16 7.79507L16 15C16 17.7614 13.7614 20 11 20C8.23858 20 6 17.7614 6 15V12M16 7.79507C16.5883 7.79507 17.1766 7.8167 17.7637 7.85997L20.0833 8.03089C19.0247 6.57669 17.788 5.2706 16.4045 4.14485C16.2858 4.04828 16.1429 4 16 4C15.8571 4 15.7142 4.04828 15.5955 4.14485C14.212 5.2706 12.9753 6.57669 11.9167 8.03089L14.2363 7.85997C14.8234 7.8167 15.4117 7.79507 16 7.79507Z" stroke="#111111" stroke-width="2" stroke-linecap="round" stroke-linejoin="round"/>
</svg>
