<svg width="24" height="24" viewBox="0 0 24 24" fill="none" xmlns="http://www.w3.org/2000/svg">
<path opacity="0.28" d="M19.8553 7.59488C18.7295 6.21138 17.4234 4.97466 15.9692 3.91602L16.1402 6.23561C16.1834 6.82273 16.2051 7.41104 16.2051 7.99935C16.2051 8.58766 16.1834 9.17597 16.1402 9.76309L15.9692 12.0827C17.4234 11.024 18.7295 9.78732 19.8553 8.40382C19.9518 8.28513 20.0001 8.14224 20.0001 7.99935C20.0001 7.85646 19.9518 7.71356 19.8553 7.59488Z" fill="#111111"/>
<path d="M16.2049 7.99935H9C6.23858 7.99935 4 10.2379 4 12.9993C4 15.7608 6.23858 17.9993 9 17.9993H12M16.2049 7.99935C16.2049 7.41104 16.1833 6.82273 16.14 6.23561L15.9691 3.91602C17.4233 4.97466 18.7294 6.21138 19.8551 7.59488C19.9517 7.71356 20 7.85646 20 7.99935C20 8.14224 19.9517 8.28513 19.8551 8.40382C18.7294 9.78732 17.4233 11.024 15.9691 12.0827L16.14 9.76309C16.1833 9.17597 16.2049 8.58766 16.2049 7.99935Z" stroke="#111111" stroke-width="2" stroke-linecap="round" stroke-linejoin="round"/>
</svg>
