<svg
  xmlns="http://www.w3.org/2000/svg"
  width="24"
  height="24"
  viewBox="0 0 24 24"
  fill="none"
  stroke="currentColor"
  stroke-width="2"
  stroke-linecap="round"
  stroke-linejoin="round"
>
  <path d="M16.0001 14.9995H8.00012M10.0001 9.99951H8.00012M16.0001 9.99951H14.0001M12.0001 21.1496C6.94669 21.1496 2.8501 17.053 2.8501 11.9996C2.8501 6.94621 6.94669 2.84961 12.0001 2.84961C17.0535 2.84961 21.1501 6.94621 21.1501 11.9996C21.1501 17.053 17.0535 21.1496 12.0001 21.1496Z" stroke="currentColor" stroke-width="2"/>
  <path d="M2.8501 11.9996C2.8501 6.94621 6.94669 2.84961 12.0001 2.84961C17.0535 2.84961 21.1501 6.94621 21.1501 11.9996C21.1501 17.053 17.0535 21.1496 12.0001 21.1496C6.94669 21.1496 2.8501 17.053 2.8501 11.9996Z" fill="currentColor" opacity="0.28"/>
</svg>