<svg
  xmlns="http://www.w3.org/2000/svg"
  width="24"
  height="24"
  viewBox="0 0 24 24"
  fill="none"
  stroke="currentColor"
  stroke-width="2"
  stroke-linecap="round"
  stroke-linejoin="round"
>
  <path d="M11 7H7M17 21V17.8C17 16.1198 17 15.2798 16.673 14.638C16.3854 14.0735 15.9265 13.6146 15.362 13.327C14.7202 13 13.8802 13 12.2 13H11.8C10.1198 13 9.27976 13 8.63803 13.327C8.07354 13.6146 7.6146 14.0735 7.32698 14.638C7 15.2798 7 16.1198 7 17.8V21M17 21H7M17 21C19.2091 21 21 19.2091 21 17V9.0534C21 8.03451 20.7832 7.51113 20.0627 6.79066L17.2093 3.93726C16.4889 3.21679 15.9655 3 14.9466 3H9.4C7.15979 3 6.03968 3 5.18404 3.43597C4.43139 3.81947 3.81947 4.43139 3.43597 5.18404C3 6.03968 3 7.15979 3 9.4V17C3 19.2091 4.79086 21 7 21" stroke="currentColor" stroke-width="2"/>
  <path d="M17.188 3.916C16.858 3.586 16.692 3.42 16.49 3.296C16.3113 3.18727 16.1171 3.10635 15.914 3.056C15.684 3.001 15.459 3.001 15.009 3H9.56C8.485 3 7.662 3 7 3.046C6.248 3.098 5.705 3.209 5.239 3.446C4.46711 3.83962 3.83976 4.46767 3.447 5.24C3 6.116 3 7.264 3 9.56V14.44C3 16.736 3 17.884 3.447 18.761C3.8401 19.5326 4.46741 20.1599 5.239 20.553C5.705 20.791 6.249 20.903 7 20.954C7.662 21 8.485 21 9.56 21H14.44C15.515 21 16.338 21 17 20.954C17.752 20.902 18.295 20.791 18.761 20.554C19.5327 20.1606 20.1601 19.533 20.553 18.761C21 17.884 21 16.736 21 14.44V8.99C20.999 8.54 20.999 8.316 20.943 8.086C20.8927 7.88293 20.8118 7.68871 20.703 7.51C20.58 7.308 20.415 7.143 20.083 6.812L17.188 3.916Z" fill="currentColor" opacity="0.28"/>
</svg>