<svg
  xmlns="http://www.w3.org/2000/svg"
  width="24"
  height="24"
  viewBox="0 0 24 24"
  fill="none"
  stroke="currentColor"
  stroke-width="2"
  stroke-linecap="round"
  stroke-linejoin="round"
>
  <path d="M17.6655 21.0003H6.33446C4.30555 21.0003 3.12165 18.7109 4.2944 17.0552L6.7639 13.5689C12.3875 10.9816 13.9218 16.6417 18.0754 14.7538L19.7056 17.0552C20.8783 18.7109 19.6944 21.0003 17.6655 21.0003Z" fill="currentColor" opacity="0.28"/>
  <path d="M9 16H9.01" stroke="currentColor" stroke-width="2"/>
  <path d="M9.99999 3H14M9.99999 3H8.99999M9.99999 3V8.52257C9.99999 8.83318 9.90356 9.13613 9.72402 9.3896L6.7639 13.5686M14 3H15M14 3V8.52257C14 8.83318 14.0964 9.13613 14.2759 9.3896L18.0754 14.7535M18.0754 14.7535L19.7056 17.055C20.8783 18.7106 19.6944 21 17.6655 21H6.33446C4.30555 21 3.12165 18.7106 4.2944 17.055L6.7639 13.5686M18.0754 14.7535C13.9218 16.6414 12.3875 10.9814 6.7639 13.5686" stroke="currentColor" stroke-width="2"/>
</svg>