<svg
  xmlns="http://www.w3.org/2000/svg"
  width="24"
  height="24"
  viewBox="0 0 24 24"
  fill="none"
  stroke="currentColor"
  stroke-width="2"
  stroke-linecap="round"
  stroke-linejoin="round"
>
  <path d="M20.165 13.9368C18.5002 13.658 16.8161 13.5945 15.1547 13.7482C14.7861 13.7823 14.4494 13.9433 14.1964 14.1963C13.9433 14.4493 13.7823 14.786 13.7482 15.1547C13.5945 16.816 13.658 18.5001 13.9368 20.165C14.0011 20.549 14.2825 20.8608 14.6579 20.964C15.0334 21.0673 15.4346 20.9432 15.6862 20.646L16.7271 19.4169C17.5479 18.4475 18.4476 17.5478 19.4169 16.727L20.6461 15.6862C20.9433 15.4346 21.0673 15.0333 20.9641 14.6579C20.8609 14.2824 20.5491 14.0011 20.165 13.9368Z" fill="currentColor"/ stroke="none">
  <path d="M20.1683 10.0631C18.5035 10.3419 16.8194 10.4054 15.158 10.2517C14.7894 10.2176 14.4527 10.0566 14.1997 9.80357C13.9466 9.55055 13.7856 9.21386 13.7515 8.84521C13.5978 7.18387 13.6613 5.49975 13.9401 3.83489C14.0044 3.45085 14.2858 3.13907 14.6612 3.03583C15.0367 2.93259 15.4379 3.05667 15.6895 3.35383L16.7304 4.58301C17.5512 5.55237 18.4509 6.45207 19.4202 7.27288L20.6494 8.3137C20.9466 8.56532 21.0706 8.96655 20.9674 9.342C20.8642 9.71744 20.5524 9.99882 20.1683 10.0631Z" fill="currentColor"/ stroke="none">
  <path d="M3.83147 13.9368C5.49633 13.658 7.18046 13.5945 8.8418 13.7482C9.21044 13.7823 9.54713 13.9433 9.80015 14.1963C10.0532 14.4493 10.2142 14.786 10.2483 15.1547C10.402 16.816 10.3385 18.5001 10.0597 20.165C9.9954 20.549 9.71402 20.8608 9.33857 20.964C8.96313 21.0673 8.5619 20.9432 8.31027 20.646L7.26946 19.4169C6.44865 18.4475 5.54895 17.5478 4.57959 16.727L3.35041 15.6862C3.05325 15.4346 2.92917 15.0333 3.03241 14.6579C3.13565 14.2824 3.44744 14.0011 3.83147 13.9368Z" fill="currentColor"/ stroke="none">
  <path d="M8.84509 10.2517C7.18375 10.4054 5.49963 10.3419 3.83477 10.0631C3.45073 9.99882 3.13895 9.71744 3.03571 9.342C2.93247 8.96655 3.05655 8.56532 3.35371 8.3137L4.58289 7.27288C5.55225 6.45207 6.45195 5.55237 7.27276 4.58301L8.31357 3.35383C8.56519 3.05667 8.96642 2.93259 9.34187 3.03583C9.71731 3.13907 9.99869 3.45085 10.063 3.83489C10.3418 5.49975 10.4053 7.18387 10.2516 8.84521C10.2175 9.21386 10.0565 9.55055 9.80345 9.80357C9.55042 10.0566 9.21373 10.2176 8.84509 10.2517Z" fill="currentColor"/ stroke="none">
</svg>