<svg width="24" height="24" viewBox="0 0 24 24" fill="none" xmlns="http://www.w3.org/2000/svg">
<path opacity="0.28" d="M2.8501 11.9996C2.8501 6.94621 6.94669 2.84961 12.0001 2.84961C17.0535 2.84961 21.1501 6.94621 21.1501 11.9996C21.1501 17.053 17.0535 21.1496 12.0001 21.1496C6.94669 21.1496 2.8501 17.053 2.8501 11.9996Z" fill="#111111"/>
<path d="M8.38591 9.14385L9.61464 10.0042M14.3854 10.0042L15.6142 9.14385M15.5707 14.4995C14.6632 15.4252 13.3987 15.9995 12 15.9995C10.6013 15.9995 9.33671 15.4252 8.42925 14.4995M12.0001 21.1496C6.94669 21.1496 2.8501 17.053 2.8501 11.9996C2.8501 6.94621 6.94669 2.84961 12.0001 2.84961C17.0535 2.84961 21.1501 6.94621 21.1501 11.9996C21.1501 17.053 17.0535 21.1496 12.0001 21.1496Z" stroke="#111111" stroke-width="2" stroke-linecap="round" stroke-linejoin="round"/>
</svg>
