<svg width="24" height="24" viewBox="0 0 24 24" fill="none" xmlns="http://www.w3.org/2000/svg">
<path opacity="0.28" d="M18.04 6.14844C18.2486 6.18036 18.4418 6.2775 18.5918 6.42578C18.7625 6.5946 18.8504 6.86091 19.0264 7.39258L22.6172 18.2393C22.7932 18.7709 22.8809 19.0371 22.8447 19.2744C22.8128 19.4831 22.7159 19.6769 22.5674 19.8271C22.3986 19.9977 22.1328 20.0859 21.6016 20.2617L19.8926 20.8271C19.3609 21.0031 19.0947 21.091 18.8574 21.0547C18.6488 21.0228 18.4558 20.9257 18.3057 20.7773C18.135 20.6085 18.0461 20.3422 17.8701 19.8105L14.2803 8.96387C14.1043 8.43219 14.0155 8.16603 14.0518 7.92871C14.0837 7.72004 14.1816 7.52704 14.3301 7.37695C14.4989 7.20638 14.7645 7.11829 15.2959 6.94238L17.0049 6.37598C17.5363 6.20002 17.8028 6.11219 18.04 6.14844ZM11.4004 3C11.9602 3 12.2403 3.00041 12.4541 3.10938C12.6421 3.20522 12.7948 3.35793 12.8906 3.5459C12.9996 3.75976 13 4.03982 13 4.59961V19.4004C13 19.9602 12.9996 20.2403 12.8906 20.4541C12.7948 20.6421 12.6421 20.7948 12.4541 20.8906C12.2403 20.9996 11.9602 21 11.4004 21H9.59961C9.03982 21 8.75976 20.9996 8.5459 20.8906C8.35793 20.7948 8.20522 20.6421 8.10938 20.4541C8.0276 20.2936 8.00705 20.0958 8.00195 19.7705L8 19.4004C8 19.9602 7.99959 20.2403 7.89062 20.4541C7.79478 20.6421 7.64207 20.7948 7.4541 20.8906C7.24024 20.9996 6.96018 21 6.40039 21H4.59961C4.03982 21 3.75976 20.9996 3.5459 20.8906C3.35793 20.7948 3.20522 20.6421 3.10938 20.4541C3.00041 20.2403 3 19.9602 3 19.4004V10.5996C3 10.0398 3.00041 9.75976 3.10938 9.5459C3.20522 9.35793 3.35793 9.20522 3.5459 9.10938C3.75976 9.00041 4.03982 9 4.59961 9H6.40039C6.96018 9 7.24024 9.00041 7.4541 9.10938C7.64207 9.20522 7.79478 9.35793 7.89062 9.5459C7.99959 9.75976 8 10.0398 8 10.5996V4.59961C8 4.03982 8.00041 3.75976 8.10938 3.5459C8.20522 3.35793 8.35793 3.20522 8.5459 3.10938C8.75976 3.00041 9.03982 3 9.59961 3H11.4004Z" fill="#111111"/>
<path d="M6.4 9H4.6C4.03995 9 3.75992 9 3.54601 9.10899C3.35785 9.20487 3.20487 9.35785 3.10899 9.54601C3 9.75992 3 10.0399 3 10.6V19.4C3 19.9601 3 20.2401 3.10899 20.454C3.20487 20.6422 3.35785 20.7951 3.54601 20.891C3.75992 21 4.03995 21 4.6 21H6.4C6.96005 21 7.24008 21 7.45399 20.891C7.64215 20.7951 7.79513 20.6422 7.89101 20.454C8 20.2401 8 19.9601 8 19.4V10.6C8 10.0399 8 9.75992 7.89101 9.54601C7.79513 9.35785 7.64215 9.20487 7.45399 9.10899C7.24008 9 6.96005 9 6.4 9Z" stroke="#111111" stroke-width="2" stroke-linecap="round" stroke-linejoin="round"/>
<path d="M11.4 3H9.6C9.03995 3 8.75992 3 8.54601 3.10899C8.35785 3.20487 8.20487 3.35785 8.10899 3.54601C8 3.75992 8 4.03995 8 4.6V19.4C8 19.9601 8 20.2401 8.10899 20.454C8.20487 20.6422 8.35785 20.7951 8.54601 20.891C8.75992 21 9.03995 21 9.6 21H11.4C11.9601 21 12.2401 21 12.454 20.891C12.6422 20.7951 12.7951 20.6422 12.891 20.454C13 20.2401 13 19.9601 13 19.4V4.6C13 4.03995 13 3.75992 12.891 3.54601C12.7951 3.35785 12.6422 3.20487 12.454 3.10899C12.2401 3 11.9601 3 11.4 3Z" stroke="#111111" stroke-width="2" stroke-linecap="round" stroke-linejoin="round"/>
<path d="M17.0047 6.37642L15.2959 6.94209C14.7642 7.11809 14.4983 7.20609 14.3295 7.37679C14.181 7.52693 14.0839 7.72024 14.052 7.929C14.0157 8.16632 14.1037 8.43216 14.2797 8.96384L17.8704 19.8109C18.0464 20.3426 18.1344 20.6085 18.3051 20.7773C18.4553 20.9258 18.6486 21.0229 18.8574 21.0548C19.0947 21.0911 19.3605 21.0031 19.8922 20.8271L21.601 20.2614C22.1327 20.0854 22.3985 19.9974 22.5673 19.8267C22.7158 19.6765 22.813 19.4832 22.8449 19.2745C22.8811 19.0372 22.7931 18.7713 22.6171 18.2396L19.0264 7.39255C18.8504 6.86087 18.7624 6.59503 18.5917 6.42621C18.4416 6.27771 18.2483 6.18055 18.0395 6.14867C17.8022 6.11242 17.5363 6.20042 17.0047 6.37642Z" stroke="#111111" stroke-width="2" stroke-linecap="round" stroke-linejoin="round"/>
</svg>
