<svg
  xmlns="http://www.w3.org/2000/svg"
  width="24"
  height="24"
  viewBox="0 0 24 24"
  fill="none"
  stroke="currentColor"
  stroke-width="2"
  stroke-linecap="round"
  stroke-linejoin="round"
>
  <path d="M22 10.0722V15.2412C22 16.0462 22 16.7112 21.956 17.2512C21.91 17.8142 21.811 18.3312 21.564 18.8162C21.1805 19.5688 20.5686 20.1807 19.816 20.5642C19.331 20.8112 18.814 20.9102 18.252 20.9562C17.711 21.0002 17.047 21.0002 16.242 21.0002H7.775C6.97 21.0002 6.305 21.0002 5.764 20.9562C5.202 20.9102 4.685 20.8112 4.2 20.5642C3.44738 20.1807 2.83548 19.5688 2.452 18.8162C2.204 18.3312 2.106 17.8142 2.06 17.2522C2.016 16.7112 2.016 16.0462 2.016 15.2422V10.0602C2.015 9.08221 2.015 8.35421 2.221 7.73421C2.41752 7.14552 2.74834 6.61064 3.18728 6.17188C3.62622 5.73311 4.16123 5.40251 4.75 5.20621C5.37 4.99921 6.098 4.99921 7.076 5.00021H7.246C7.35999 5.00021 7.418 5.00021 7.46 4.99821H7.464L7.466 4.99521C7.491 4.96121 7.52299 4.91221 7.586 4.81721L8.693 3.15821L8.729 3.10321C8.863 2.90221 9.031 2.64821 9.265 2.45521C9.46854 2.28834 9.70302 2.16328 9.955 2.08721C10.245 1.99821 10.549 1.99921 10.791 2.00021H13.21C13.451 2.00021 13.755 1.99821 14.046 2.08721C14.2976 2.1634 14.5317 2.28845 14.735 2.45521C14.97 2.64821 15.137 2.90221 15.271 3.10321L15.307 3.15821L16.412 4.81521C16.476 4.91121 16.509 4.96021 16.534 4.99521L16.536 4.99821H16.54C16.583 5.00021 16.642 5.00021 16.757 5.00021H16.928C17.918 5.00021 18.653 4.99921 19.279 5.21021C19.8625 5.40706 20.3927 5.73599 20.8282 6.17135C21.2638 6.60672 21.5929 7.13677 21.79 7.72021C22.001 8.34621 22 9.08321 22 10.0722ZM11.228 10.6172C11.6082 10.4972 12.0115 10.4699 12.4044 10.5378C12.7972 10.6056 13.1681 10.7666 13.486 11.0072C13.2495 10.9773 13.0102 11.0328 12.811 11.1638C12.6119 11.2947 12.4661 11.4925 12.3998 11.7214C12.3336 11.9504 12.3513 12.1955 12.4498 12.4125C12.5483 12.6296 12.7211 12.8043 12.937 12.9052C13.446 13.1432 13.921 13.3382 14.352 13.4502C14.777 13.5602 15.265 13.6182 15.746 13.4662C16.39 13.2622 16.766 12.7712 16.99 12.2642C17.204 11.7822 17.333 11.1742 17.437 10.5062C17.4768 10.2479 17.4139 9.98418 17.2617 9.77164C17.1095 9.55911 16.8801 9.41463 16.6227 9.36913C16.3653 9.32364 16.1003 9.38075 15.8845 9.52823C15.6686 9.67572 15.5191 9.90186 15.468 10.1582C15.0937 9.69867 14.6323 9.3176 14.1103 9.03689C13.5883 8.75617 13.016 8.58134 12.4262 8.52242C11.8365 8.46351 11.2409 8.52169 10.6737 8.6936C10.1065 8.86552 9.57881 9.14779 9.121 9.52421C8.91742 9.69303 8.78901 9.93562 8.76387 10.1989C8.73873 10.4622 8.81889 10.7247 8.98683 10.929C9.15477 11.1333 9.3968 11.2627 9.65996 11.289C9.92311 11.3153 10.186 11.2363 10.391 11.0692C10.631 10.8722 10.911 10.7162 11.228 10.6172ZM10.995 13.0332C10.485 12.8112 10.011 12.6302 9.581 12.5292C9.157 12.4292 8.675 12.3822 8.203 12.5362C7.554 12.7472 7.183 13.2472 6.966 13.7662C6.761 14.2572 6.646 14.8732 6.56 15.5492C6.52713 15.8049 6.59425 16.0633 6.74734 16.2707C6.90044 16.478 7.12768 16.6183 7.38167 16.6621C7.63567 16.706 7.89678 16.6501 8.11055 16.5061C8.32432 16.3621 8.47422 16.1411 8.529 15.8892C9.29231 16.8011 10.3855 17.3737 11.5698 17.482C12.754 17.5903 13.9329 17.2255 14.849 16.4672C15.051 16.2973 15.1776 16.0545 15.2012 15.7916C15.2249 15.5287 15.1436 15.2672 14.9753 15.064C14.8069 14.8607 14.565 14.7323 14.3023 14.7067C14.0396 14.6811 13.7775 14.7604 13.573 14.9272C13.333 15.1252 13.05 15.2832 12.73 15.3832C12.333 15.5086 11.911 15.5327 11.5023 15.4535C11.0936 15.3742 10.7113 15.1939 10.39 14.9292C10.6326 14.9809 10.8858 14.9405 11.1004 14.8159C11.3149 14.6913 11.4755 14.4915 11.5509 14.2551C11.6263 14.0188 11.6112 13.7628 11.5085 13.537C11.4057 13.3112 11.2227 13.1316 10.995 13.0332Z" fill="currentColor" fill-rule="evenodd" clip-rule="evenodd"/ stroke="none">
</svg>