<svg
  xmlns="http://www.w3.org/2000/svg"
  width="24"
  height="24"
  viewBox="0 0 24 24"
  fill="none"
  stroke="currentColor"
  stroke-width="2"
  stroke-linecap="round"
  stroke-linejoin="round"
>
  <path d="M11.6118 6.0001L11.6628 6.00019L12.3373 6.00019L12.3884 6.0001C12.5783 5.99959 12.8174 5.99895 13.0528 6.05545C13.2568 6.10444 13.4519 6.18525 13.6309 6.29491C13.8372 6.42136 14.0059 6.59091 14.1398 6.72556L14.1758 6.76171L14.3432 6.92912C14.3806 6.96653 14.3993 6.98516 14.4132 6.99854L14.4145 6.99976L14.4162 6.9998C14.4355 7.00015 14.4619 7.00019 14.5148 7.00019L14.5962 7.00015C14.9657 6.99986 15.2838 6.99962 15.5683 7.0545C16.7722 7.28673 17.7135 8.22811 17.9458 9.43194C18.0007 9.71644 18.0004 10.0346 18.0001 10.4041L18.0001 12.8387C18.0001 13.3659 18.0001 13.8206 17.9695 14.1952C17.9372 14.5906 17.8659 14.9838 17.6731 15.3622C17.3855 15.9266 16.9265 16.3856 16.3621 16.6732C15.9837 16.866 15.5905 16.9373 15.1951 16.9696C14.8205 17.0002 14.3658 17.0002 13.8386 17.0002H10.1615C9.63436 17.0002 9.17961 17.0002 8.80505 16.9696C8.40971 16.9373 8.01649 16.866 7.63811 16.6732C7.07362 16.3856 6.61468 15.9266 6.32706 15.3622C6.13427 14.9838 6.06295 14.5906 6.03065 14.1952C6.00005 13.8206 6.00006 13.3659 6.00008 12.8387L6.00004 10.4041C5.99975 10.0346 5.99951 9.71644 6.05439 9.43194C6.28662 8.22811 7.228 7.28673 8.43182 7.0545C8.71633 6.99962 9.03447 6.99986 9.40396 7.00015L9.48536 7.00019C9.53826 7.00019 9.56466 7.00015 9.58393 6.9998L9.58569 6.99976L9.58696 6.99854C9.60084 6.98517 9.61953 6.96653 9.65694 6.92912L9.82435 6.76171L9.86037 6.72556C9.9943 6.59091 10.1629 6.42137 10.3693 6.29491C10.5482 6.18525 10.7433 6.10444 10.9474 6.05545C11.1827 5.99895 11.4219 5.99959 11.6118 6.0001ZM12 10.0002C10.8954 10.0002 10 10.8956 10 12.0002C10 13.1048 10.8954 14.0002 12 14.0002C13.1046 14.0002 14 13.1048 14 12.0002C14 10.8956 13.1046 10.0002 12 10.0002Z" fill="currentColor" fill-rule="evenodd" clip-rule="evenodd"/ stroke="none">
  <path d="M8.00001 4L7.80001 4C6.94343 4 6.36113 4.00078 5.91104 4.03755C5.47262 4.07337 5.24842 4.1383 5.09202 4.21799C4.71569 4.40974 4.40973 4.7157 4.21799 5.09202C4.14336 5.23848 4.08125 5.4455 4.04439 5.83353C4.00643 6.23308 4.00066 6.74935 4.00008 7.50078L4 7.8C4 8.35229 3.55229 8.8 3 8.8C2.44772 8.8 2 8.35229 2 7.8L2.00008 7.49922C2.00065 6.76812 2.00488 6.15458 2.05335 5.64437C2.10292 5.12264 2.20369 4.63993 2.43597 4.18404C2.81947 3.43139 3.43139 2.81947 4.18404 2.43598C4.66937 2.18869 5.18608 2.09012 5.74817 2.0442C6.28937 1.99998 6.95373 1.99999 7.7587 2L7.99999 2C8.55227 1.99999 8.99999 2.4477 9 2.99999C9.00001 3.55227 8.5523 3.99999 8.00001 4ZM15 3C15 2.44771 15.4477 2 16 2L16.2413 2C17.0463 1.99999 17.7106 1.99998 18.2518 2.04419C18.8139 2.09012 19.3306 2.18868 19.816 2.43597C20.5686 2.81947 21.1805 3.43139 21.564 4.18404C21.7963 4.63993 21.8971 5.12264 21.9466 5.64437C21.9951 6.15458 21.9994 6.76812 21.9999 7.49922L22 7.8C22 8.35229 21.5523 8.8 21 8.8C20.4477 8.8 20 8.35229 20 7.8L19.9999 7.50078C19.9993 6.74935 19.9936 6.23308 19.9556 5.83353C19.9187 5.4455 19.8566 5.23848 19.782 5.09202C19.5903 4.7157 19.2843 4.40973 18.908 4.21799C18.7516 4.1383 18.5274 4.07337 18.089 4.03755C17.6389 4.00078 17.0566 4 16.2 4L16 4C15.4477 4 15 3.55228 15 3ZM21 15.2C21.5523 15.2 22 15.6477 22 16.2L21.9999 16.5008C21.9994 17.2319 21.9951 17.8454 21.9466 18.3556C21.8971 18.8774 21.7963 19.3601 21.564 19.816C21.1805 20.5686 20.5686 21.1805 19.816 21.564C19.3306 21.8113 18.8139 21.9099 18.2518 21.9558C17.7106 22 17.0463 22 16.2413 22H16C15.4477 22 15 21.5523 15 21C15 20.4477 15.4477 20 16 20H16.2C17.0566 20 17.6389 19.9992 18.089 19.9624C18.5274 19.9266 18.7516 19.8617 18.908 19.782C19.2843 19.5903 19.5903 19.2843 19.782 18.908C19.8566 18.7615 19.9187 18.5545 19.9556 18.1665C19.9936 17.7669 19.9993 17.2506 19.9999 16.4992L20 16.2C20 15.6477 20.4477 15.2 21 15.2ZM3 15.2C3.55228 15.2 4 15.6477 4 16.2V16.4992C4.00059 17.2506 4.00637 17.7669 4.04434 18.1664C4.08123 18.5545 4.14335 18.7615 4.21799 18.908C4.40973 19.2843 4.7157 19.5903 5.09202 19.782C5.24842 19.8617 5.47262 19.9266 5.91104 19.9624C6.36113 19.9992 6.94342 20 7.8 20H8C8.55229 20 9 20.4477 9 21C9 21.5523 8.55229 22 8 22H7.75868C6.95372 22 6.28936 22 5.74818 21.9558C5.18608 21.9099 4.66937 21.8113 4.18404 21.564C3.43139 21.1805 2.81947 20.5686 2.43597 19.816C2.2037 19.3601 2.10291 18.8774 2.05332 18.3557C2.00482 17.8454 2.00057 17.2319 2 16.5008L2 16.2C2 15.6477 2.44772 15.2 3 15.2Z" fill="currentColor" fill-rule="evenodd" clip-rule="evenodd"/ stroke="none">
</svg>