<svg
  xmlns="http://www.w3.org/2000/svg"
  width="24"
  height="24"
  viewBox="0 0 24 24"
  fill="none"
  stroke="currentColor"
  stroke-width="2"
  stroke-linecap="round"
  stroke-linejoin="round"
>
  <path d="M10.3639 1C9.97487 0.99998 9.62469 0.999961 9.33339 1.02376C9.02142 1.04925 8.68994 1.10694 8.36504 1.27249C7.89464 1.51217 7.51218 1.89462 7.2725 2.36503C7.10696 2.68993 7.04926 3.02141 7.02377 3.33337C6.99997 3.62469 6.99999 3.97483 7.00002 4.36392L7.00002 7.17825C6.87815 7.21748 6.75736 7.26619 6.63805 7.32698C6.07356 7.6146 5.61462 8.07355 5.327 8.63803C5.1342 9.01641 5.06289 9.40963 5.03059 9.80498C4.99999 10.1795 5 10.6342 5.00002 11.1613L5.00001 16.0997C4.9999 16.9332 4.99983 17.471 5.07389 17.9386C5.48052 20.506 7.49406 22.5195 10.0614 22.9261C10.529 23.0002 11.0668 23.0001 11.9003 23H12.0997C12.9332 23.0001 13.471 23.0002 13.9386 22.9261C16.506 22.5195 18.5195 20.506 18.9261 17.9386C19.0002 17.471 19.0001 16.9332 19 16.0997L19 11.1615C19 10.6343 19.0001 10.1795 18.9694 9.80498C18.9371 9.40963 18.8658 9.01641 18.673 8.63803C18.3854 8.07355 17.9265 7.6146 17.362 7.32698C17.2427 7.26619 17.1219 7.21748 17 7.17825L17 4.36394C17 3.97484 17.0001 3.62469 16.9763 3.33337C16.9508 3.02141 16.8931 2.68993 16.7275 2.36503C16.4879 1.89462 16.1054 1.51217 15.635 1.27249C15.3101 1.10694 14.9786 1.04925 14.6666 1.02376C14.3753 0.999961 14.0252 0.99998 13.6362 1H10.3639ZM15 7V4.4C15 3.96346 14.9992 3.6962 14.9829 3.49624C14.9753 3.40309 14.9657 3.34673 14.9577 3.3125C14.9538 3.29622 14.9506 3.28621 14.9487 3.28079C14.9468 3.27559 14.9455 3.27301 14.9455 3.27301C14.8976 3.17893 14.8211 3.10244 14.727 3.0545C14.727 3.0545 14.7244 3.05319 14.7192 3.05133C14.7138 3.0494 14.7038 3.04618 14.6875 3.04235C14.6533 3.03429 14.5969 3.02473 14.5038 3.01712C14.3038 3.00078 14.0366 3 13.6 3H10.4C9.96348 3 9.69621 3.00078 9.49625 3.01712C9.4031 3.02473 9.34674 3.03429 9.31252 3.04235C9.29624 3.04618 9.28622 3.0494 9.28081 3.05133C9.27561 3.05319 9.27302 3.0545 9.27302 3.0545C9.17894 3.10244 9.10245 3.17893 9.05451 3.27301C9.05451 3.27301 9.0532 3.27559 9.05134 3.28079C9.04941 3.28621 9.0462 3.29622 9.04236 3.3125C9.0343 3.34673 9.02474 3.40309 9.01713 3.49624C9.0008 3.6962 9.00002 3.96346 9.00002 4.4V7H15Z" fill="currentColor" fill-rule="evenodd" clip-rule="evenodd"/ stroke="none">
</svg>