<svg
  xmlns="http://www.w3.org/2000/svg"
  width="24"
  height="24"
  viewBox="0 0 24 24"
  fill="none"
  stroke="currentColor"
  stroke-width="2"
  stroke-linecap="round"
  stroke-linejoin="round"
>
  <path d="M2 8.759V15.24C2 16.045 2 16.71 2.044 17.25C2.09 17.813 2.189 18.33 2.436 18.815C2.81949 19.5676 3.43139 20.1795 4.184 20.563C4.669 20.81 5.186 20.909 5.748 20.955C6.289 20.999 6.954 20.999 7.758 20.999H16.242C17.047 20.999 17.712 20.999 18.252 20.955C18.815 20.909 19.332 20.81 19.817 20.563C20.5696 20.1795 21.1815 19.5676 21.565 18.815C21.812 18.33 21.911 17.813 21.957 17.251C22 16.71 22 16.046 22 15.242V8.758C22 7.953 22 7.288 21.956 6.748C21.91 6.185 21.811 5.668 21.564 5.183C21.1805 4.43039 20.5686 3.81849 19.816 3.435C19.331 3.188 18.814 3.089 18.252 3.043C17.71 3 17.046 3 16.242 3H7.759C6.954 3 6.289 3 5.749 3.044C5.186 3.09 4.669 3.189 4.184 3.436C3.43139 3.81949 2.81949 4.43139 2.436 5.184C2.189 5.669 2.09 6.186 2.044 6.748C2 7.29 2 7.955 2 8.759ZM10.223 6H6.777C6.657 6 6.515 6 6.39 6.01C6.245 6.022 6.037 6.052 5.819 6.164C5.53703 6.30776 5.30776 6.53703 5.164 6.819C5.052 7.037 5.022 7.245 5.01 7.39C5 7.516 5 7.658 5 7.777V16.223C5 16.343 5 16.485 5.01 16.61C5.02283 16.8086 5.07483 17.0026 5.163 17.181C5.30702 17.4631 5.53666 17.6924 5.819 17.836C5.9973 17.9245 6.19137 17.9769 6.39 17.99C6.515 18 6.658 18 6.777 18H10.223C10.343 18 10.484 18 10.61 17.99C10.8086 17.9772 11.0026 17.9252 11.181 17.837C11.4631 17.693 11.6924 17.4633 11.836 17.181C11.9245 17.0027 11.9769 16.8086 11.99 16.61C12 16.485 12 16.342 12 16.223V7.777C12 7.657 12 7.516 11.99 7.39C11.978 7.245 11.948 7.037 11.836 6.819C11.6922 6.53703 11.463 6.30776 11.181 6.164C10.963 6.052 10.755 6.022 10.61 6.01C10.485 6 10.342 6 10.223 6Z" fill="currentColor" fill-rule="evenodd" clip-rule="evenodd"/ stroke="none">
</svg>