<svg
  xmlns="http://www.w3.org/2000/svg"
  width="24"
  height="24"
  viewBox="0 0 24 24"
  fill="none"
  stroke="currentColor"
  stroke-width="2"
  stroke-linecap="round"
  stroke-linejoin="round"
>
  <path d="M8.5 11.5124L10.8412 13.8511C11.9672 11.8821 13.5255 10.1945 15.3987 8.91536L15.5 8.84619" stroke="currentColor" stroke-width="2"/>
  <path d="M8.54529 2C7.5174 1.99999 6.68527 1.99998 6.01078 2.05509C5.31533 2.11191 4.69988 2.23227 4.12901 2.52314C3.22589 2.9833 2.49163 3.71756 2.03146 4.62068C1.74059 5.19155 1.62024 5.80701 1.56342 6.50246C1.50831 7.17695 1.50832 8.00907 1.50833 9.03696L1.50831 13.7303C1.50818 14.3483 1.50809 14.7752 1.56738 15.1497C1.89258 17.2037 3.50348 18.8146 5.55745 19.1398C5.93547 19.1996 6.29912 19.1975 6.58777 19.1933C6.83864 19.1895 7.09079 19.1794 7.34099 19.2027C7.5652 19.2235 7.77345 19.3277 7.92462 19.4946C8.11661 19.7065 8.26605 19.9165 8.44648 20.1699C8.54332 20.306 8.64913 20.4546 8.77521 20.6228C9.11351 21.0741 9.44564 21.5345 9.82314 21.9544C10.1337 22.2998 10.4891 22.621 10.9562 22.8027C11.6324 23.0658 12.3827 23.0658 13.0589 22.8027C13.5261 22.621 13.8815 22.2998 14.192 21.9544C14.5695 21.5345 14.9017 21.0741 15.24 20.6228C15.366 20.4546 15.4718 20.306 15.5686 20.17C15.7491 19.9165 15.8986 19.7066 16.0905 19.4946C16.2417 19.3277 16.45 19.2235 16.6742 19.2027C16.9244 19.1794 17.1765 19.1895 17.4274 19.1933C17.716 19.1975 18.0797 19.1996 18.4577 19.1398C20.5117 18.8146 22.1226 17.2037 22.4478 15.1497C22.5071 14.7752 22.507 14.3483 22.5069 13.7303L22.5068 9.03694C22.5069 8.00906 22.5069 7.17694 22.4518 6.50246C22.3949 5.80701 22.2746 5.19155 21.9837 4.62068C21.5235 3.71756 20.7893 2.9833 19.8862 2.52314C19.3153 2.23227 18.6998 2.11191 18.0044 2.05509C17.3299 1.99998 16.4978 1.99999 15.4699 2H8.54529Z" fill="currentColor" opacity="0.28"/>
</svg>