<svg
  xmlns="http://www.w3.org/2000/svg"
  width="24"
  height="24"
  viewBox="0 0 24 24"
  fill="none"
  stroke="currentColor"
  stroke-width="2"
  stroke-linecap="round"
  stroke-linejoin="round"
>
  <path d="M1.10776 10.7344C1.22727 10.3006 1.62185 10 2.07186 10H7.07697C8.13905 10 9.00004 10.861 9.00004 11.9231C9.00004 13.0701 9.92991 14 11.077 14H12.9231C14.0702 14 15 13.0701 15 11.9231C15 10.861 15.861 10 16.9231 10H21.9282C22.3782 10 22.7728 10.3006 22.8923 10.7344C22.9223 10.8434 22.9462 10.954 22.9637 11.0658C23.0004 11.2991 23.0002 11.5323 23.0001 11.7964L23 12.0439C23 13.4069 23.0001 14.4909 22.9286 15.3654C22.8554 16.261 22.7024 17.0247 22.3461 17.7239C21.7708 18.8529 20.853 19.7708 19.724 20.346C19.0247 20.7023 18.2611 20.8554 17.3655 20.9286C16.4909 21 15.4069 21 14.0439 21H9.95631C8.59329 21 7.5092 21 6.63462 20.9286C5.73902 20.8554 4.97535 20.7023 4.2761 20.346C3.14713 19.7708 2.22924 18.8529 1.654 17.7239C1.29772 17.0247 1.14466 16.261 1.07148 15.3654C1.00003 14.4908 1.00003 13.4068 1.00004 12.0438L1.00002 11.7964C0.99986 11.5323 0.999717 11.2991 1.03635 11.0658C1.05391 10.954 1.07775 10.8434 1.10776 10.7344Z" fill="currentColor"/>
  <path d="M12 10C11.6723 10 11.3439 9.89013 11.0747 9.67201C10.3726 9.10307 9.74288 8.44944 9.20003 7.72564C8.86866 7.28382 8.9582 6.65701 9.40003 6.32564C9.84186 5.99427 10.4687 6.08382 10.8 6.52564C10.8652 6.61251 10.9319 6.69814 11 6.7825V4C11 3.44772 11.4477 3 12 3C12.5523 3 13 3.44772 13 4V6.7825C13.0682 6.69814 13.1349 6.61251 13.2 6.52564C13.5314 6.08382 14.1582 5.99427 14.6 6.32564C15.0419 6.65701 15.1314 7.28382 14.8 7.72564C14.2572 8.44944 13.6274 9.10307 12.9253 9.67201C12.6561 9.89013 12.3277 10 12 10Z" fill="currentColor"/>
  <path d="M21.9282 10.9998C21.9114 10.9391 21.8918 10.8791 21.8694 10.8201C21.8139 10.6742 21.7354 10.5368 21.5783 10.262L19.8427 7.22455C19.1715 6.05008 18.836 5.46284 18.3644 5.03561C17.9473 4.65762 17.455 4.37194 16.9198 4.19727M2.07178 10.9998C2.08852 10.9391 2.10814 10.8791 2.13058 10.8201C2.18605 10.6742 2.26456 10.5368 2.42159 10.262L4.15727 7.22455C4.8284 6.05008 5.16396 5.46284 5.63548 5.03561C6.05266 4.65762 6.54493 4.37194 7.08011 4.19727" stroke="currentColor" stroke-width="2" opacity="0.28"/>
</svg>