<svg
  xmlns="http://www.w3.org/2000/svg"
  width="24"
  height="24"
  viewBox="0 0 24 24"
  fill="none"
  stroke="currentColor"
  stroke-width="2"
  stroke-linecap="round"
  stroke-linejoin="round"
>
  <path d="M1.10776 10.7344C1.22727 10.3006 1.62185 10 2.07186 10H7.07697C8.13905 10 9.00004 10.861 9.00004 11.9231C9.00004 13.0701 9.92991 14 11.077 14H12.9231C14.0702 14 15 13.0701 15 11.9231C15 10.861 15.861 10 16.9231 10H21.9282C22.3782 10 22.7728 10.3006 22.8923 10.7344C22.9223 10.8434 22.9462 10.954 22.9637 11.0658C23.0004 11.2991 23.0002 11.5322 23.0001 11.7963L23 12.0438C23 13.4068 23.0001 14.4909 22.9286 15.3654C22.8554 16.261 22.7024 17.0247 22.3461 17.7239C21.7708 18.8529 20.853 19.7708 19.724 20.346C19.0247 20.7023 18.2611 20.8554 17.3655 20.9286C16.4909 21 15.4068 21 14.0438 21H9.95631C8.59325 21 7.50922 21 6.63462 20.9286C5.73902 20.8554 4.97535 20.7023 4.2761 20.346C3.14713 19.7708 2.22924 18.8529 1.654 17.7239C1.29772 17.0247 1.14466 16.261 1.07148 15.3654C1.00003 14.4908 1.00003 13.4068 1.00004 12.0438L1.00002 11.7964C0.99986 11.5323 0.999717 11.2991 1.03635 11.0658C1.05391 10.954 1.07775 10.8434 1.10776 10.7344Z" fill="currentColor"/>
  <path d="M11 9C10.4477 9 10 9.44772 10 10C10 10.5523 10.4477 11 11 11H13C13.5523 11 14 10.5523 14 10C14 9.44772 13.5523 9 13 9H11Z" fill="currentColor"/>
  <path d="M21.8696 10.8202C21.8142 10.6744 21.7356 10.5369 21.5786 10.2622L19.8429 7.22471C19.1718 6.05024 18.8362 5.463 18.3647 5.03578C17.9475 4.65778 17.4553 4.37211 16.9201 4.19743C16.3152 4 15.6389 4 14.2862 4H9.71431C8.36161 4 7.68526 4 7.08039 4.19743C6.54522 4.37211 6.05294 4.65778 5.63576 5.03578C5.16424 5.463 4.82868 6.05024 4.15755 7.22471L2.42187 10.2622C2.26485 10.5369 2.18633 10.6743 2.13086 10.8202" stroke="currentColor" stroke-width="2" opacity="0.28"/>
  <path d="M9.00003 6C8.44775 6 8.00003 6.44772 8.00003 7C8.00003 7.55228 8.44775 8 9.00003 8H15C15.5523 8 16 7.55228 16 7C16 6.44772 15.5523 6 15 6H9.00003Z" fill="currentColor"/>
</svg>