<svg
  xmlns="http://www.w3.org/2000/svg"
  width="24"
  height="24"
  viewBox="0 0 24 24"
  fill="none"
  stroke="currentColor"
  stroke-width="2"
  stroke-linecap="round"
  stroke-linejoin="round"
>
  <path d="M16 12C16 14.2091 14.2091 16 12 16C9.79086 16 8 14.2091 8 12C8 9.79086 9.79086 8 12 8C14.2091 8 16 9.79086 16 12Z" stroke="currentColor" stroke-width="2"/ fill="none">
  <path d="M22 13V11C22 8.19974 22 6.79961 21.455 5.73005C20.9757 4.78924 20.2108 4.02433 19.27 3.54497C18.2004 3 16.8003 3 14 3H10C7.19974 3 5.79961 3 4.73005 3.54497C3.78924 4.02433 3.02433 4.78924 2.54497 5.73005C2 6.79961 2 8.19974 2 11V13C2 15.8003 2 17.2004 2.54497 18.27C3.02433 19.2108 3.78924 19.9757 4.73005 20.455C5.79961 21 7.19974 21 10 21H14C16.8003 21 18.2004 21 19.27 20.455C20.2108 19.9757 20.9757 19.2108 21.455 18.27C22 17.2004 22 15.8003 22 13Z" stroke="#111111" stroke-width="2" opacity="0.28"/ fill="none">
</svg>