<svg
  xmlns="http://www.w3.org/2000/svg"
  width="24"
  height="24"
  viewBox="0 0 24 24"
  fill="none"
  stroke="currentColor"
  stroke-width="2"
  stroke-linecap="round"
  stroke-linejoin="round"
>
  <path d="M12 20.875V17M12 20.875C10.25 20.875 8.5 21.25 7 22M12 20.875C13.75 20.875 15.5 21.25 17 22" stroke="currentColor" stroke-width="2" opacity="0.28"/>
  <path d="M14.1562 2H4.4C3.55992 2 3.13988 2 2.81901 2.16349C2.53677 2.3073 2.3073 2.53677 2.16349 2.81901C2 3.13988 2 3.55992 2 4.4V14.6C2 15.4401 2 15.8601 2.16349 16.181C2.3073 16.4632 2.53677 16.6927 2.81901 16.8365C3.13988 17 3.55992 17 4.4 17H19.6C20.4401 17 20.8601 17 21.181 16.8365C21.4632 16.6927 21.6927 16.4632 21.8365 16.181C22 15.8601 22 15.4401 22 14.6V12.4805" stroke="currentColor" stroke-width="2"/>
  <path d="M23.0337 4.81153C22.2934 3.82454 21.4347 2.93322 20.4773 2.15739C20.3478 2.05246 20.1907 2 20.0337 2M17.0337 4.81153C17.7739 3.82454 18.6327 2.93322 19.5901 2.15739C19.7196 2.05246 19.8767 2 20.0337 2M20.0337 2V9" stroke="currentColor" stroke-width="2"/>
  <rect width="24" height="24" fill="currentColor"/>
</svg>