<svg
  xmlns="http://www.w3.org/2000/svg"
  width="24"
  height="24"
  viewBox="0 0 24 24"
  fill="none"
  stroke="currentColor"
  stroke-width="2"
  stroke-linecap="round"
  stroke-linejoin="round"
>
  <path d="M16 12C16 14.2091 14.2091 16 12 16C9.79086 16 8 14.2091 8 12C8 9.79086 9.79086 8 12 8C14.2091 8 16 9.79086 16 12Z" fill="currentColor" opacity="0.28"/>
  <path d="M19.8917 16.6358C21.8113 13.3687 21.5609 9.1121 18.9649 6.06543C15.6874 2.21898 9.91237 1.75771 6.06592 5.03517C2.21947 8.31262 1.7582 14.0877 5.03566 17.9341C7.63159 20.9808 11.7944 21.9037 15.3247 20.5272M16.0002 12.0002C16.0002 14.2093 14.2093 16.0002 12.0002 16.0002C9.79102 16.0002 8.00016 14.2093 8.00016 12.0002C8.00016 9.79102 9.79102 8.00016 12.0002 8.00016C14.2093 8.00016 16.0002 9.79102 16.0002 12.0002Z" stroke="currentColor" stroke-width="2"/>
</svg>