<svg width="24" height="24" viewBox="0 0 24 24" fill="none" xmlns="http://www.w3.org/2000/svg">
<path d="M4.66667 13.8333H2.83333C1.82081 13.8333 1 14.6541 1 15.6667C1 16.6792 1.82081 17.5 2.83333 17.5C3.84585 17.5 4.66667 16.6792 4.66667 15.6667V13.8333ZM4.66667 13.8333H8.33333M4.66667 13.8333V10.1667M8.33333 13.8333H10.1667C11.1792 13.8333 12 14.6541 12 15.6667C12 16.6792 11.1792 17.5 10.1667 17.5C9.15415 17.5 8.33333 16.6792 8.33333 15.6667V13.8333ZM8.33333 13.8333V10.1667M8.33333 10.1667V8.33333C8.33333 7.32081 9.15415 6.5 10.1667 6.5C11.1792 6.5 12 7.32081 12 8.33333C12 9.34585 11.1792 10.1667 10.1667 10.1667H8.33333ZM8.33333 10.1667H4.66667M4.66667 10.1667H2.83333C1.82081 10.1667 1 9.34585 1 8.33333C1 7.32081 1.82081 6.5 2.83333 6.5C3.84585 6.5 4.66667 7.32081 4.66667 8.33333V10.1667ZM16 6.5V14M16 14V17.5M16 14L18.0413 11.9587M18.0413 11.9587L22.9222 6.5M18.0413 11.9587C20.3098 12.9412 22.0645 14.8271 22.8811 17.1604L23 17.5" stroke="#111111" stroke-width="2" stroke-linecap="round" stroke-linejoin="round"/>
</svg>
