<svg width="24" height="24" viewBox="0 0 24 24" fill="none" xmlns="http://www.w3.org/2000/svg">
<path d="M16 15L13 12M13 12L10 9M13 12L16 9M13 12L10 15M6.62512 6.02049C4.99716 7.59456 3.51576 9.36639 2.20601 11.3066C2.06867 11.5101 2 11.755 2 12C2 12.245 2.06867 12.4899 2.20601 12.6934C3.51576 14.6336 4.99716 16.4054 6.62512 17.9795C6.98295 18.3255 7.16186 18.4985 7.41047 18.6468C7.61699 18.7701 7.88604 18.8789 8.12018 18.9338C8.40202 19 8.68097 19 9.23887 19H17C18.4001 19 19.1002 19 19.635 18.7275C20.1054 18.4878 20.4878 18.1054 20.7275 17.635C21 17.1002 21 16.4001 21 15V9C21 7.59987 21 6.8998 20.7275 6.36502C20.4878 5.89462 20.1054 5.51217 19.635 5.27248C19.1002 5 18.4001 5 17 5H9.23887C8.68097 5 8.40202 5 8.12018 5.06616C7.88604 5.12112 7.61699 5.22993 7.41047 5.35316C7.16186 5.50151 6.98294 5.6745 6.62512 6.02049Z" stroke="#111111" stroke-width="2" stroke-linecap="round" stroke-linejoin="round"/>
</svg>
