<svg width="24" height="24" viewBox="0 0 24 24" fill="none" xmlns="http://www.w3.org/2000/svg">
<path opacity="0.28" d="M11.9999 14.9995H7.12686C4.94108 14.9995 3.84819 14.9995 3.29789 14.5541C2.81952 14.167 2.54605 13.5811 2.55644 12.9658C2.5684 12.2579 3.27022 11.4201 4.67387 9.7446L10.5866 2.68654C11.0222 2.16667 11.2399 1.90674 11.43 1.87991C11.5947 1.85668 11.7601 1.91681 11.8714 2.04035C11.9999 2.18301 11.9999 2.5221 11.9999 3.20028V8.99955M11.9999 14.9995L12.0023 20.7988C12.0023 21.477 12.0023 21.8161 12.1308 21.9587C12.2421 22.0823 12.4075 22.1424 12.5722 22.1192C12.7623 22.0924 12.98 21.8324 13.4155 21.3126L19.3283 14.2545C20.7319 12.579 21.4338 11.7412 21.4457 11.0333C21.4561 10.418 21.1826 9.83214 20.7043 9.44495C20.154 8.99955 19.0611 8.99955 16.8753 8.99955H11.9999" fill="#111111"/>
<path d="M11.9999 14.9995H7.12686C4.94108 14.9995 3.84819 14.9995 3.29789 14.5541C2.81952 14.167 2.54605 13.5811 2.55644 12.9658C2.5684 12.2579 3.27022 11.4201 4.67387 9.7446L10.5866 2.68654C11.0222 2.16667 11.2399 1.90674 11.43 1.87991C11.5947 1.85668 11.7601 1.91681 11.8714 2.04035C11.9999 2.18301 11.9999 2.5221 11.9999 3.20028V8.99955M11.9999 14.9995V8.99955M11.9999 14.9995L12.0023 20.7988C12.0023 21.477 12.0023 21.8161 12.1308 21.9587C12.2421 22.0823 12.4075 22.1424 12.5722 22.1192C12.7623 22.0924 12.98 21.8324 13.4155 21.3126L19.3283 14.2545C20.7319 12.579 21.4338 11.7412 21.4457 11.0333C21.4561 10.418 21.1826 9.83214 20.7043 9.44495C20.154 8.99955 19.0611 8.99955 16.8753 8.99955H11.9999" stroke="#111111" stroke-width="2"/>
</svg>
