<svg
  xmlns="http://www.w3.org/2000/svg"
  width="24"
  height="24"
  viewBox="0 0 24 24"
  fill="none"
  stroke="currentColor"
  stroke-width="2"
  stroke-linecap="round"
  stroke-linejoin="round"
>
  <path d="M16 16H17" stroke="currentColor" stroke-width="2"/>
  <path d="M17.7691 3.41251L18.2114 2.51564V2.51564L17.7691 3.41251ZM19.5875 5.23085L20.4843 4.78856V4.78855L19.5875 5.23085ZM6.23083 3.41251L5.78854 2.51564L5.78854 2.51564L6.23083 3.41251ZM4.41249 5.23085L5.30937 5.67313L4.41249 5.23085ZM4.51352 5.03924L5.38514 5.52942V5.52942L4.51352 5.03924ZM19 13C19 13.5523 19.4477 14 20 14C20.5523 14 21 13.5523 21 13H19ZM2.99998 13C2.99998 13.5523 3.4477 14 3.99998 14C4.55227 14 4.99998 13.5523 4.99998 13H2.99998ZM4 10C4.55228 10 5 9.55231 5 9.00002C5 8.44774 4.55228 8.00002 4 8.00002V10ZM20 8.00002C19.4477 8.00002 19 8.44774 19 9.00002C19 9.55231 19.4477 10 20 10V8.00002ZM19.6655 4.05529C19.1208 3.96391 18.6052 4.33138 18.5138 4.87605C18.4224 5.42072 18.7899 5.93634 19.3345 6.02772L19.6655 4.05529ZM4.66546 6.02772C5.21013 5.93634 5.5776 5.42072 5.48622 4.87605C5.39484 4.33138 4.87922 3.96391 4.33454 4.05529L4.66546 6.02772ZM10.3333 4H13.6667V2H10.3333V4ZM13.6667 4C14.7713 4 15.5414 4.00074 16.1415 4.04842C16.7304 4.09522 17.0696 4.1825 17.3269 4.30938L18.2114 2.51564C17.6322 2.23 17.0088 2.11104 16.2999 2.05471C15.6022 1.99926 14.7393 2 13.6667 2V4ZM21 9.33333C21 8.26069 21.0007 7.39775 20.9453 6.70006C20.8889 5.99117 20.77 5.36776 20.4843 4.78856L18.6906 5.67313C18.8175 5.93042 18.9048 6.26958 18.9516 6.85848C18.9992 7.45858 19 8.22864 19 9.33333H21ZM10.3333 2C9.26068 2 8.39774 1.99926 7.70004 2.05471C6.99115 2.11104 6.36775 2.23 5.78854 2.51564L6.67312 4.30938C6.9304 4.1825 7.26957 4.09522 7.85847 4.04842C8.45856 4.00074 9.22862 4 10.3333 4V2ZM4.99998 9.33333C4.99998 8.22864 5.00072 7.45858 5.04841 6.85848C5.0952 6.26958 5.18249 5.93041 5.30937 5.67313L3.51562 4.78856C3.22999 5.36776 3.11102 5.99117 3.05469 6.70006C2.99925 7.39775 2.99998 8.26069 2.99998 9.33333H4.99998ZM5.78854 2.51564C4.8825 2.96245 4.13503 3.67218 3.64189 4.54907L5.38514 5.52942C5.68101 5.00331 6.12951 4.57746 6.67312 4.30938L5.78854 2.51564ZM3.64189 4.54907C3.59774 4.62759 3.55562 4.70744 3.51562 4.78856L5.30937 5.67313C5.33338 5.62445 5.35865 5.57653 5.38514 5.52942L3.64189 4.54907ZM19 9.33333V13H21V9.33333H19ZM4.99998 13V9.33333H2.99998V13H4.99998ZM17.3268 4.30938C17.9191 4.60147 18.3985 5.08084 18.6906 5.67314L20.4843 4.78855C19.9975 3.8014 19.1986 3.00245 18.2114 2.51564L17.3268 4.30938ZM1 8.00002V8.50002H3V8.00002H1ZM2.5 10H4V8.00002H2.5V10ZM21 8.00002V8.50002H23V8.00002H21ZM21.5 8.00002H20V10H21.5V8.00002ZM21 8.50002C21 8.22388 21.2239 8.00002 21.5 8.00002V10C22.3284 10 23 9.32845 23 8.50002H21ZM1 8.50002C1 9.32845 1.67157 10 2.5 10V8.00002C2.77614 8.00002 3 8.22388 3 8.50002H1ZM23 8.00002C23 6.01703 21.558 4.3728 19.6655 4.05529L19.3345 6.02772C20.2797 6.18629 21 7.01002 21 8.00002H23ZM3 8.00002C3 7.01002 3.72031 6.18629 4.66546 6.02772L4.33454 4.05529C2.44198 4.3728 1 6.01703 1 8.00002H3Z" fill="currentColor" opacity="0.28"/>
  <path d="M7 16H8" stroke="currentColor" stroke-width="2"/>
  <path d="M7 19H17V20.5C17 21.3284 17.6716 22 18.5 22C19.3284 22 20 21.3284 20 20.5V13H4V20.5C4 21.3284 4.67157 22 5.5 22C6.32843 22 7 21.3284 7 20.5V19Z" stroke="currentColor" stroke-width="2"/>
</svg>