<svg width="24" height="24" viewBox="0 0 24 24" fill="none" xmlns="http://www.w3.org/2000/svg">
<path opacity="0.28" d="M5.44981 20.5189L4.99582 21.4099H4.99582L5.44981 20.5189ZM3.48106 18.5502L4.37207 18.0962L3.48106 18.5502ZM20.5189 18.5502L21.4099 19.0042V19.0042L20.5189 18.5502ZM18.5502 20.5189L19.0042 21.4099L18.5502 20.5189ZM18.5502 3.48106L18.0962 4.37207L18.5502 3.48106ZM20.5189 5.44981L21.4099 4.99582V4.99582L20.5189 5.44981ZM5.44981 3.48106L5.9038 4.37207H5.9038L5.44981 3.48106ZM3.48106 5.44981L4.37207 5.9038V5.9038L3.48106 5.44981ZM21.9998 15.6231C22.0104 15.0709 21.5713 14.6147 21.0191 14.6042C20.467 14.5936 20.0108 15.0327 20.0002 15.5848L21.9998 15.6231ZM15.5849 20.0002C15.0327 20.0108 14.5936 20.467 14.6042 21.0191C14.6147 21.5713 15.071 22.0104 15.6231 21.9998L15.5849 20.0002ZM20.0002 8.41516C20.0108 8.96734 20.467 9.40641 21.0191 9.39583C21.5713 9.38526 22.0104 8.92906 21.9998 8.37688L20.0002 8.41516ZM15.6231 2.00018C15.071 1.98961 14.6147 2.42867 14.6042 2.98086C14.5936 3.53304 15.0327 3.98924 15.5849 3.99982L15.6231 2.00018ZM8.41515 3.99982C8.96733 3.98924 9.4064 3.53304 9.39582 2.98086C9.38525 2.42867 8.92905 1.98961 8.37686 2.00018L8.41515 3.99982ZM3.99982 15.5848C3.98925 15.0327 3.53304 14.5936 2.98086 14.6042C2.42867 14.6147 1.98961 15.0709 2.00018 15.6231L3.99982 15.5848ZM2.00018 8.37688C1.98961 8.92906 2.42867 9.38526 2.98086 9.39583C3.53304 9.40641 3.98925 8.96734 3.99982 8.41516L2.00018 8.37688ZM8.37686 21.9998C8.92905 22.0104 9.38525 21.5713 9.39582 21.0191C9.4064 20.467 8.96733 20.0108 8.41515 20.0002L8.37686 21.9998ZM5.44981 20.5189L5.9038 19.6279C5.24429 19.2919 4.7081 18.7557 4.37207 18.0962L3.48106 18.5502L2.59005 19.0042C3.11783 20.04 3.95999 20.8822 4.99582 21.4099L5.44981 20.5189ZM20.5189 18.5502L19.6279 18.0962C19.2919 18.7557 18.7557 19.2919 18.0962 19.6279L18.5502 20.5189L19.0042 21.4099C20.04 20.8822 20.8822 20.04 21.4099 19.0042L20.5189 18.5502ZM18.5502 3.48106L18.0962 4.37207C18.7557 4.7081 19.2919 5.24429 19.6279 5.9038L20.5189 5.44981L21.4099 4.99582C20.8822 3.95999 20.04 3.11783 19.0042 2.59005L18.5502 3.48106ZM5.44981 3.48106L4.99582 2.59005C3.95999 3.11783 3.11783 3.95999 2.59005 4.99582L3.48106 5.44981L4.37207 5.9038C4.7081 5.24429 5.24429 4.7081 5.9038 4.37207L5.44981 3.48106ZM21 15.604L20.0002 15.5848C19.9736 16.9756 19.8699 17.6214 19.6279 18.0962L20.5189 18.5502L21.4099 19.0042C21.8823 18.0772 21.9733 17.006 21.9998 15.6231L21 15.604ZM15.604 21L15.6231 21.9998C17.006 21.9733 18.0772 21.8823 19.0042 21.4099L18.5502 20.5189L18.0962 19.6279C17.6214 19.8699 16.9756 19.9736 15.5849 20.0002L15.604 21ZM21 8.39602L21.9998 8.37688C21.9733 6.99398 21.8823 5.92282 21.4099 4.99582L20.5189 5.44981L19.6279 5.9038C19.8699 6.37861 19.9736 7.02439 20.0002 8.41516L21 8.39602ZM15.604 3L15.5849 3.99982C16.9756 4.02644 17.6214 4.13013 18.0962 4.37207L18.5502 3.48106L19.0042 2.59005C18.0772 2.11772 17.006 2.02666 15.6231 2.00018L15.604 3ZM8.39601 3L8.37686 2.00018C6.99398 2.02666 5.92281 2.11772 4.99582 2.59005L5.44981 3.48106L5.9038 4.37207C6.37861 4.13013 7.02439 4.02644 8.41515 3.99982L8.39601 3ZM3 15.604L2.00018 15.6231C2.02666 17.006 2.11772 18.0772 2.59005 19.0042L3.48106 18.5502L4.37207 18.0962C4.13013 17.6214 4.02644 16.9756 3.99982 15.5848L3 15.604ZM3 8.39602L3.99982 8.41516C4.02644 7.02439 4.13013 6.37861 4.37207 5.9038L3.48106 5.44981L2.59005 4.99582C2.11772 5.92282 2.02666 6.99398 2.00018 8.37688L3 8.39602ZM8.39601 21L8.41515 20.0002C7.02439 19.9736 6.37861 19.8699 5.9038 19.6279L5.44981 20.5189L4.99582 21.4099C5.92281 21.8823 6.99398 21.9733 8.37686 21.9998L8.39601 21Z" fill="#111111"/>
<path d="M12 16.5V15M12 11V11.5M16 11V14.5M8 14.5V13M14 7.53513C13.4117 7.19479 12.7286 7 12 7C10.5194 7 9.22675 7.8044 8.53513 9" stroke="#111111" stroke-width="2" stroke-linecap="round" stroke-linejoin="round"/>
</svg>
