<svg
  xmlns="http://www.w3.org/2000/svg"
  width="24"
  height="24"
  viewBox="0 0 24 24"
  fill="none"
  stroke="currentColor"
  stroke-width="2"
  stroke-linecap="round"
  stroke-linejoin="round"
>
  <path d="M10.3572 1H10.4H13.6H13.6428C14.7266 0.999991 15.6008 0.999983 16.3086 1.05782C17.0375 1.11737 17.6777 1.24318 18.27 1.54497C19.2108 2.02434 19.9757 2.78924 20.455 3.73005C20.7568 4.32234 20.8826 4.96253 20.9422 5.69138C21 6.39923 21 7.27334 21 8.35706V8.4V20.9323V20.9482C21 21.0377 21 21.1358 20.9963 21.2179L20.9962 21.2209C20.9931 21.2873 20.9848 21.471 20.9096 21.6628C20.6273 22.383 19.7856 22.703 19.0961 22.3523C18.9125 22.2589 18.7842 22.1271 18.7379 22.0795L18.7358 22.0773C18.6785 22.0186 18.6134 21.9453 18.554 21.8785L18.5433 21.8664L18.3637 21.6644C18.0772 21.3421 18.0116 21.2732 17.9655 21.2356C17.5975 20.9353 17.0691 20.9353 16.7012 21.2356C16.655 21.2732 16.5895 21.3421 16.303 21.6644L16.2744 21.6966C16.1766 21.807 16.0583 21.9406 15.931 22.0444C15.1951 22.6449 14.1383 22.6449 13.4023 22.0444C13.275 21.9406 13.1567 21.807 13.059 21.6966L13.0304 21.6644C12.7439 21.3421 12.6783 21.2732 12.6322 21.2356C12.2642 20.9353 11.7358 20.9353 11.3678 21.2356C11.3217 21.2732 11.2561 21.3421 10.9696 21.6644L10.9411 21.6966C10.8433 21.807 10.725 21.9406 10.5977 22.0444C9.86173 22.6449 8.80495 22.6449 8.06898 22.0444C7.94168 21.9406 7.82337 21.807 7.72562 21.6966L7.69704 21.6644C7.41054 21.3421 7.34498 21.2732 7.29885 21.2356C6.93087 20.9353 6.40248 20.9353 6.03449 21.2356C5.98836 21.2732 5.9228 21.3421 5.6363 21.6644L5.45673 21.8664L5.44618 21.8783C5.38676 21.9452 5.32152 22.0185 5.26426 22.0773L5.26212 22.0795C5.21579 22.1271 5.08753 22.2589 4.90391 22.3523C4.21439 22.703 3.37273 22.383 3.09038 21.6628C3.01519 21.471 3.00686 21.2873 3.00386 21.2209L3.00372 21.2179C2.99998 21.1359 2.99999 21.0378 3 20.9484L3.00001 20.9323V8.4V8.35719C3 7.27341 2.99999 6.39926 3.05782 5.69138C3.11737 4.96253 3.24319 4.32234 3.54497 3.73005C4.02434 2.78924 4.78924 2.02434 5.73005 1.54497C6.32234 1.24318 6.96253 1.11737 7.69138 1.05782C8.39926 0.999983 9.2734 0.999991 10.3572 1ZM15.9598 8.77782C16.3894 8.34824 16.3894 7.65176 15.9598 7.22218C15.5302 6.79261 14.8337 6.79261 14.4041 7.22218L8.04018 13.5861C7.6106 14.0157 7.6106 14.7122 8.04018 15.1418C8.46975 15.5714 9.16624 15.5714 9.59581 15.1418L15.9598 8.77782ZM9.06799 6.9C8.32241 6.9 7.71799 7.50442 7.71799 8.25C7.71799 8.99558 8.32241 9.6 9.06799 9.6C9.81358 9.6 10.418 8.99558 10.418 8.25C10.418 7.50442 9.81358 6.9 9.06799 6.9ZM13.582 14.1143C13.582 13.3686 14.1864 12.7643 14.932 12.7643C15.6776 12.7643 16.282 13.3686 16.282 14.1143C16.282 14.8599 15.6776 15.4643 14.932 15.4643C14.1864 15.4643 13.582 14.8599 13.582 14.1143Z" fill="currentColor" fill-rule="evenodd" clip-rule="evenodd"/ stroke="none">
</svg>