<svg width="24" height="24" viewBox="0 0 24 24" fill="none" xmlns="http://www.w3.org/2000/svg">
<path opacity="0.28" d="M12.0001 21.1501C17.0535 21.1501 21.1501 17.0535 21.1501 12.0001C21.1501 6.94669 17.0535 2.8501 12.0001 2.8501C6.94669 2.8501 2.8501 6.94669 2.8501 12.0001C2.8501 17.0535 6.94669 21.1501 12.0001 21.1501Z" stroke="#111111" stroke-width="2" stroke-linecap="round" stroke-linejoin="round"/>
<path fill-rule="evenodd" clip-rule="evenodd" d="M20.97 7.24627H11.9953C10.077 7.24627 8.42408 8.38252 7.67283 10.0187L5.43781 6.15249L4.86104 5.1443C4.81756 5.06831 4.76563 5.00018 4.7071 4.94043C4.21453 5.44915 3.77472 6.00924 3.39648 6.61191L3.70294 7.14758L3.70518 7.15149L7.78212 14.204C8.57665 15.7198 10.1652 16.754 11.9953 16.754C12.1454 16.754 12.2939 16.747 12.4404 16.7334L10.2087 20.6023L10.2074 20.6046L9.49541 21.8312C9.49413 21.8334 9.49285 21.8356 9.49158 21.8378C10.178 22.0123 10.8924 22.1168 11.6267 22.1434L11.9384 21.6063L11.9398 21.6039L16.0136 14.5414C16.4795 13.8064 16.7492 12.9347 16.7492 12.0001C16.7492 10.9737 16.4239 10.0233 15.8708 9.24627H21.3424C21.4865 9.24627 21.6235 9.21576 21.7473 9.16086C21.5527 8.49152 21.291 7.85074 20.97 7.24627ZM11.9953 14.754C11.003 14.754 10.1332 14.229 9.64853 13.4417C9.63789 13.4198 9.62638 13.3981 9.61398 13.3766L9.54116 13.2506C9.34956 12.8754 9.2415 12.4504 9.2415 12.0001C9.2415 10.4792 10.4744 9.24627 11.9953 9.24627C13.5163 9.24627 14.7492 10.4792 14.7492 12.0001C14.7492 12.4753 14.6288 12.9224 14.417 13.3125C14.4027 13.3334 14.3891 13.3551 14.3762 13.3774L14.307 13.4973C13.8161 14.2537 12.9642 14.754 11.9953 14.754Z" fill="#111111"/>
</svg>
