<svg width="24" height="24" viewBox="0 0 24 24" fill="none" xmlns="http://www.w3.org/2000/svg">
<path opacity="0.28" d="M18.7791 4.01247L4.77914 5.56803C3.76627 5.68057 3 6.53669 3 7.55579V15.9756C3 16.9947 3.76627 17.8508 4.77913 17.9634L18.7791 19.5189C19.9639 19.6506 21 18.7232 21 17.5312V6.00024C21 4.80821 19.9639 3.88083 18.7791 4.01247Z" stroke="#111111" stroke-width="2" stroke-linecap="round" stroke-linejoin="round"/>
<path d="M2 12.7657V10.7657H10V3.98173L11.9933 3.76025C11.9977 3.79848 12 3.83737 12 3.87679V10.7657L22 10.7657V12.7657H12V19.6546C12 19.694 11.9977 19.7329 11.9933 19.7711L10 19.5496V12.7657H2Z" fill="#111111"/>
</svg>
