<svg width="24" height="24" viewBox="0 0 24 24" fill="none" xmlns="http://www.w3.org/2000/svg">
<path d="M11.0157 3.35644V15L6.76106 14.9999C4.67636 14.9998 3.63401 14.9998 3.08936 14.5704C2.6155 14.1968 2.33565 13.6293 2.32778 13.0259C2.31875 12.3324 2.95335 11.5055 4.22256 9.85167L9.58105 2.86939C10.0191 2.29855 10.2382 2.01313 10.431 1.98C10.5979 1.95133 10.7679 2.00906 10.8829 2.13339C11.0157 2.27709 11.0157 2.63687 11.0157 3.35644Z" stroke="#111111" stroke-width="2"/>
<path opacity="0.28" d="M13.0001 20.6412V9H17.2461C19.3295 9 20.3712 9 20.9158 9.42917C21.3896 9.80256 21.6696 10.3699 21.6777 10.9731C21.687 11.6664 21.0533 12.4931 19.7859 14.1467L14.435 21.1279C13.9969 21.6995 13.7778 21.9853 13.5849 22.0185C13.418 22.0472 13.2479 21.9895 13.133 21.8652C13.0001 21.7215 13.0001 21.3614 13.0001 20.6412Z" stroke="#111111" stroke-width="2"/>
</svg>
