<svg width="24" height="24" viewBox="0 0 24 24" fill="none" xmlns="http://www.w3.org/2000/svg">
<path opacity="0.28" d="M8.46631 4.18799C6.80945 4.18799 5.46631 5.3819 5.46631 6.85466V9.52132C5.46631 10.9941 4.12316 12.188 2.46631 12.188C4.12316 12.188 5.46631 13.3819 5.46631 14.8547V17.5213C5.46631 18.9941 6.80945 20.188 8.46631 20.188M16.4663 4.18799C18.1232 4.18799 19.4663 5.3819 19.4663 6.85466V9.52132C19.4663 10.9941 20.8095 12.188 22.4663 12.188C20.8095 12.188 19.4663 13.3819 19.4663 14.8547V17.5213C19.4663 18.9941 18.1232 20.188 16.4663 20.188" stroke="#111111" stroke-width="2" stroke-linecap="round" stroke-linejoin="round"/>
<path fill-rule="evenodd" clip-rule="evenodd" d="M13.897 8.63298C13.8235 8.44614 13.6954 8.28577 13.5294 8.17274C13.3635 8.05972 13.1673 7.99927 12.9665 7.99927C12.7657 7.99927 12.5696 8.05972 12.4036 8.17274C12.2377 8.28577 12.1096 8.44614 12.036 8.63298C11.743 9.37598 11.47 9.82298 11.14 10.156C10.811 10.488 10.36 10.77 9.60004 11.07C9.41352 11.1437 9.25347 11.2718 9.14069 11.4376C9.02791 11.6035 8.9676 11.7994 8.9676 12C8.9676 12.2005 9.02791 12.3965 9.14069 12.5623C9.25347 12.7282 9.41352 12.8563 9.60004 12.93C10.36 13.23 10.811 13.512 11.14 13.844C11.47 14.176 11.743 14.624 12.036 15.367C12.1098 15.5535 12.2379 15.7135 12.4037 15.8263C12.5696 15.9391 12.7655 15.9994 12.966 15.9994C13.1666 15.9994 13.3625 15.9391 13.5284 15.8263C13.6942 15.7135 13.8223 15.5535 13.896 15.367C14.189 14.624 14.462 14.177 14.792 13.844C15.122 13.512 15.573 13.23 16.333 12.93C16.5196 12.8563 16.6796 12.7282 16.7924 12.5623C16.9052 12.3965 16.9655 12.2005 16.9655 12C16.9655 11.7994 16.9052 11.6035 16.7924 11.4376C16.6796 11.2718 16.5196 11.1437 16.333 11.07C15.573 10.77 15.122 10.488 14.793 10.156C14.463 9.82398 14.19 9.37598 13.897 8.63298ZM8.96704 15C8.70182 15 8.44747 15.1053 8.25993 15.2929C8.0724 15.4804 7.96704 15.7348 7.96704 16C7.96704 16.2652 8.0724 16.5195 8.25993 16.7071C8.44747 16.8946 8.70182 17 8.96704 17C9.23226 17 9.48661 16.8946 9.67415 16.7071C9.86168 16.5195 9.96704 16.2652 9.96704 16C9.96704 15.7348 9.86168 15.4804 9.67415 15.2929C9.48661 15.1053 9.23226 15 8.96704 15Z" fill="#111111"/>
</svg>
