<svg width="24" height="24" viewBox="0 0 24 24" fill="none" xmlns="http://www.w3.org/2000/svg">
<path opacity="0.28" d="M11.3996 11.9999L3 3.60034M11.3996 11.9999L14.8542 15.4545M11.3996 11.9999L14.8542 8.54529M11.3996 11.9999L3 20.3995" stroke="#111111" stroke-width="2" stroke-linecap="round" stroke-linejoin="round"/>
<path d="M14.8543 15.4547C15.5294 14.7796 16.4451 14.4003 17.3999 14.4003C18.3547 14.4003 19.2704 14.7796 19.9456 15.4547C20.6208 16.1299 21.0001 17.0456 21.0001 18.0004C21.0001 18.9552 20.6208 19.8709 19.9456 20.546C19.2704 21.2212 18.3547 21.6005 17.3999 21.6005C16.4451 21.6005 15.5294 21.2212 14.8543 20.546C14.1791 19.8709 13.7998 18.9552 13.7998 18.0004C13.7998 17.0456 14.1791 16.1299 14.8543 15.4547ZM14.8543 8.54545C14.1791 7.8703 13.7998 6.95459 13.7998 5.99978C13.7998 5.04497 14.1791 4.12926 14.8543 3.45411C15.5294 2.77896 16.4451 2.39966 17.3999 2.39966C18.3547 2.39966 19.2704 2.77896 19.9456 3.45411C20.6208 4.12926 21.0001 5.04497 21.0001 5.99978C21.0001 6.95459 20.6208 7.8703 19.9456 8.54545C19.2704 9.22061 18.3547 9.59991 17.3999 9.59991C16.4451 9.59991 15.5294 9.22061 14.8543 8.54545Z" stroke="#111111" stroke-width="2" stroke-linecap="round" stroke-linejoin="round"/>
</svg>
