<svg width="24" height="24" viewBox="0 0 24 24" fill="none" xmlns="http://www.w3.org/2000/svg">
<path fill-rule="evenodd" clip-rule="evenodd" d="M14.7958 2.0005C13.163 4.99323 12.1758 8.38877 12.0213 12H15C15.5523 12 16 12.4477 16 13C16 13.8069 16.0179 14.6049 16.0545 15.3919C16.1972 15.3145 16.3381 15.2332 16.4768 15.148C16.9475 14.859 17.5633 15.0064 17.8522 15.477C18.1412 15.9477 17.9939 16.5635 17.5232 16.8524C17.0997 17.1124 16.6593 17.3436 16.2041 17.5435C16.3474 19.0731 16.5679 20.551 16.8715 21.9607C17.0432 21.952 17.2077 21.9414 17.3654 21.9286C18.261 21.8554 19.0247 21.7023 19.7239 21.346C20.8529 20.7708 21.7708 19.8529 22.346 18.7239C22.7023 18.0247 22.8554 17.261 22.9286 16.3654C23 15.4909 23 14.4069 23 13.0439V10.9562C23 9.59322 23 8.50914 22.9286 7.63458C22.8554 6.73898 22.7023 5.9753 22.346 5.27606C21.7708 4.14708 20.8529 3.2292 19.7239 2.65396C19.0247 2.29768 18.261 2.14462 17.3654 2.07144C16.6581 2.01365 15.8138 2.0026 14.7958 2.0005ZM18 8.00021C18 7.44792 17.5523 7.00021 17 7.00021C16.4477 7.00021 16 7.44792 16 8.00021V9.00021C16 9.55249 16.4477 10.0002 17 10.0002C17.5523 10.0002 18 9.55249 18 9.00021V8.00021Z" fill="#111111"/>
<path fill-rule="evenodd" clip-rule="evenodd" d="M12.5438 2C10.9147 5.3194 10 9.05288 10 13C10 13.5523 10.4477 14 11 14H14.009C14.0221 14.7277 14.0498 15.4498 14.0928 16.1645C13.4193 16.3377 12.7189 16.4288 12 16.4288C10.3821 16.4288 8.85772 15.9673 7.52321 15.148C7.05254 14.859 6.43675 15.0064 6.1478 15.477C5.85885 15.9477 6.00617 16.5635 6.47683 16.8524C8.10871 17.8543 9.99271 18.4288 12 18.4288C12.7732 18.4288 13.5281 18.3435 14.2574 18.1815C14.3931 19.488 14.5845 20.7641 14.8362 21.9994C14.5831 22 14.3192 22 14.0439 22H9.95622C8.59322 22 7.50914 22 6.63458 21.9286C5.73898 21.8554 4.9753 21.7023 4.27606 21.346C3.14708 20.7708 2.2292 19.8529 1.65396 18.7239C1.29768 18.0247 1.14462 17.261 1.07144 16.3654C0.999986 15.4908 0.999992 14.4068 1 13.0438V10.9562C0.999992 9.5932 0.999986 8.50917 1.07144 7.63458C1.14462 6.73898 1.29768 5.9753 1.65396 5.27606C2.2292 4.14708 3.14708 3.2292 4.27606 2.65396C4.9753 2.29768 5.73898 2.14462 6.63458 2.07144C7.50917 1.99999 8.5932 1.99999 9.95624 2H12.5438ZM7.00002 7.00021C7.5523 7.00021 8.00002 7.44792 8.00002 8.00021V9.00021C8.00002 9.55249 7.5523 10.0002 7.00002 10.0002C6.44773 10.0002 6.00002 9.55249 6.00002 9.00021V8.00021C6.00002 7.44792 6.44773 7.00021 7.00002 7.00021Z" fill="#111111"/>
</svg>
