<svg width="24" height="24" viewBox="0 0 24 24" fill="none" xmlns="http://www.w3.org/2000/svg">
<path fill-rule="evenodd" clip-rule="evenodd" d="M4.36402 1H16.17C16.06 1.313 15.999 1.65 15.999 2C15.2034 2 14.4403 2.31607 13.8777 2.87868C13.3151 3.44129 12.999 4.20435 12.999 5C12.999 5.79565 13.3151 6.55871 13.8777 7.12132C14.4403 7.68393 15.2034 8 15.999 8C15.999 8.79565 16.3151 9.55871 16.8777 10.1213C17.4403 10.6839 18.2034 11 18.999 11C19.7947 11 20.5577 10.6839 21.1203 10.1213C21.6829 9.55871 21.999 8.79565 21.999 8C22.349 8 22.686 7.94 22.999 7.83V14.636C22.999 15.026 22.999 15.376 22.975 15.666C22.9575 16.0023 22.8732 16.3317 22.727 16.635C22.4871 17.1053 22.1045 17.4875 21.634 17.727C21.3311 17.8738 21.0021 17.9587 20.666 17.977C20.374 18 20.024 18 19.636 18H13V19.913C14.552 20.031 16.085 20.424 17.447 21.106C17.5686 21.1622 17.6777 21.2422 17.7677 21.3413C17.8578 21.4404 17.927 21.5566 17.9713 21.683C18.0156 21.8094 18.0341 21.9433 18.0257 22.077C18.0172 22.2107 17.982 22.3412 17.9221 22.461C17.8622 22.5808 17.7789 22.6874 17.677 22.7743C17.5752 22.8613 17.4569 22.9269 17.3292 22.9673C17.2015 23.0077 17.067 23.022 16.9337 23.0094C16.8003 22.9968 16.6709 22.9576 16.553 22.894C15.207 22.222 13.613 21.875 12 21.875C10.387 21.875 8.79302 22.222 7.44702 22.895C7.20965 23.0136 6.93491 23.033 6.68323 22.9489C6.43156 22.8649 6.22357 22.6844 6.10502 22.447C5.98647 22.2096 5.96706 21.9349 6.05108 21.6832C6.1351 21.4315 6.31565 21.2236 6.55302 21.105C7.91502 20.425 9.44802 20.031 11 19.913V18H4.36402C3.97402 18 3.62402 18 3.33402 17.976C2.99775 17.9585 2.66834 17.8742 2.36502 17.728C1.89437 17.4883 1.51174 17.1056 1.27202 16.635C1.12602 16.332 1.04172 16.0029 1.02402 15.667C1.00294 15.3241 0.994931 14.9805 1.00002 14.637V4.363C1.00002 3.973 1.00002 3.623 1.02402 3.333C1.04902 3.02 1.10702 2.689 1.27202 2.364C1.51174 1.89335 1.89437 1.51073 2.36502 1.271C2.69002 1.106 3.02102 1.048 3.33302 1.023C3.62502 1 3.97602 1 4.36402 1ZM21.952 1.465C22.177 1.625 22.374 1.823 22.535 2.048C22.3585 2.01613 22.1794 2.00007 22 2C22.0003 1.82062 21.9835 1.64158 21.952 1.465ZM20 2C20 1.73478 19.8947 1.48043 19.7071 1.29289C19.5196 1.10536 19.2652 1 19 1C18.7348 1 18.4804 1.10536 18.2929 1.29289C18.1054 1.48043 18 1.73478 18 2V4H16C15.7348 4 15.4804 4.10536 15.2929 4.29289C15.1054 4.48043 15 4.73478 15 5C15 5.26522 15.1054 5.51957 15.2929 5.70711C15.4804 5.89464 15.7348 6 16 6H18V8C18 8.26522 18.1054 8.51957 18.2929 8.70711C18.4804 8.89464 18.7348 9 19 9C19.2652 9 19.5196 8.89464 19.7071 8.70711C19.8947 8.51957 20 8.26522 20 8V6H22C22.2652 6 22.5196 5.89464 22.7071 5.70711C22.8947 5.51957 23 5.26522 23 5C23 4.73478 22.8947 4.48043 22.7071 4.29289C22.5196 4.10536 22.2652 4 22 4H20V2Z" fill="#111111"/>
</svg>
