<svg width="24" height="24" viewBox="0 0 24 24" fill="none" xmlns="http://www.w3.org/2000/svg">
<path fill-rule="evenodd" clip-rule="evenodd" d="M10.3572 1H13.6428C14.7266 0.999991 15.6008 0.999984 16.3086 1.05782C17.0375 1.11737 17.6777 1.24318 18.27 1.54497C18.865 1.84817 19.3897 2.26559 19.8163 2.76951L21.2929 1.29289C21.6834 0.90237 22.3166 0.90237 22.7071 1.29289C23.0976 1.68342 23.0976 2.31658 22.7071 2.70711L2.70711 22.7071C2.31658 23.0976 1.68342 23.0976 1.29289 22.7071C0.902369 22.3166 0.902369 21.6834 1.29289 21.2929L3.21727 19.3685C3.12625 18.992 3.07647 18.5923 3.04684 18.1627C2.99999 17.4832 2.99999 16.6523 3 15.635L3 8.35719C2.99999 7.27341 2.99998 6.39926 3.05782 5.69138C3.11737 4.96253 3.24318 4.32234 3.54497 3.73005C4.02433 2.78924 4.78924 2.02434 5.73005 1.54497C6.32234 1.24318 6.96253 1.11737 7.69138 1.05782C8.39925 0.999984 9.27343 0.999991 10.3572 1ZM10.5 6.50342C10.5 5.67499 11.1716 5.00342 12 5.00342C12.8284 5.00342 13.5 5.67499 13.5 6.50342C13.5 7.33185 12.8284 8.00342 12 8.00342C11.1716 8.00342 10.5 7.33185 10.5 6.50342ZM8.22456 14.3611C8.1578 14.4279 8.0476 14.3737 8.06446 14.2808C8.36087 12.6482 9.64819 11.3609 11.2808 11.0645C11.3737 11.0476 11.4279 11.1578 11.3611 11.2246L8.22456 14.3611Z" fill="#111111"/>
<path d="M10.224 18.568C10.0145 18.4609 9.75601 18.4857 9.58963 18.652L7.00815 21.2335C6.73338 21.5083 6.64266 21.9173 6.7755 22.2825C6.90834 22.6477 7.24069 22.9028 7.62777 22.9368C8.34776 23 9.24045 23 10.3532 23H13.6428C14.7266 23 15.6008 23 16.3086 22.9422C17.0375 22.8826 17.6777 22.7568 18.27 22.455C19.2108 21.9757 19.9757 21.2108 20.455 20.27C20.7568 19.6777 20.8826 19.0375 20.9422 18.3086C21 17.6008 21 16.7267 21 15.6429V9.65588C21 9.25142 20.7564 8.88678 20.3827 8.732C20.009 8.57722 19.5789 8.66278 19.2929 8.94877L15.652 12.5896C15.4857 12.756 15.4609 13.0145 15.568 13.224C15.8436 13.7627 16 14.3672 16 15C16 17.2091 14.2091 19 12 19C11.3672 19 10.7627 18.8436 10.224 18.568Z" fill="#111111"/>
</svg>
