<svg width="24" height="24" viewBox="0 0 24 24" fill="none" xmlns="http://www.w3.org/2000/svg">
<path fill-rule="evenodd" clip-rule="evenodd" d="M22 9.2707V9.2297C22 8.4247 22 7.7597 21.956 7.2197C21.91 6.6567 21.811 6.1397 21.564 5.6547C21.1805 4.90209 20.5686 4.29019 19.816 3.9067C19.331 3.6597 18.814 3.5607 18.252 3.5147C17.711 3.4707 17.046 3.4707 16.242 3.4707H7.758C6.953 3.4707 6.288 3.4707 5.748 3.5147C5.185 3.5607 4.668 3.6597 4.183 3.9067C3.43039 4.29019 2.81849 4.90209 2.435 5.6547C2.188 6.1397 2.089 6.6567 2.043 7.2187C2 7.7597 2 8.4247 2 9.2297V9.2717C2 9.3817 2.09 9.4717 2.2 9.4717H21.8C21.853 9.4717 21.9039 9.45063 21.9414 9.41313C21.9789 9.37562 22 9.32475 22 9.2717V9.2707ZM2 15.6707V12.2707C2 11.9907 2 11.8507 2.054 11.7437C2.10215 11.6497 2.17881 11.5734 2.273 11.5257C2.38 11.4707 2.52 11.4707 2.8 11.4707H21.2C21.48 11.4707 21.62 11.4707 21.727 11.5257C21.8208 11.5736 21.8971 11.6499 21.945 11.7437C22 11.8507 22 11.9907 22 12.2707V15.7117C22 16.5167 22 17.1817 21.956 17.7217C21.91 18.2847 21.811 18.8017 21.564 19.2867C21.1805 20.0393 20.5686 20.6512 19.816 21.0347C19.331 21.2817 18.814 21.3807 18.252 21.4267C17.711 21.4707 17.046 21.4707 16.242 21.4707H7.758C6.953 21.4707 6.288 21.4707 5.748 21.4267C5.185 21.3807 4.668 21.2817 4.183 21.0347C3.43039 20.6512 2.81849 20.0393 2.435 19.2867C2.188 18.8017 2.089 18.2847 2.043 17.7227C2 17.1817 2 16.5167 2 15.7127V15.6707ZM6 5.3707C5.70826 5.3707 5.42847 5.4866 5.22218 5.69289C5.01589 5.89918 4.9 6.17897 4.9 6.4707C4.9 6.76244 5.01589 7.04223 5.22218 7.24852C5.42847 7.45481 5.70826 7.5707 6 7.5707H6.01C6.30174 7.5707 6.58153 7.45481 6.78782 7.24852C6.99411 7.04223 7.11 6.76244 7.11 6.4707C7.11 6.17897 6.99411 5.89918 6.78782 5.69289C6.58153 5.4866 6.30174 5.3707 6.01 5.3707H6ZM7.9 6.4707C7.9 6.17897 8.01589 5.89918 8.22218 5.69289C8.42847 5.4866 8.70826 5.3707 9 5.3707H9.01C9.30174 5.3707 9.58153 5.4866 9.78782 5.69289C9.99411 5.89918 10.11 6.17897 10.11 6.4707C10.11 6.76244 9.99411 7.04223 9.78782 7.24852C9.58153 7.45481 9.30174 7.5707 9.01 7.5707H9C8.70826 7.5707 8.42847 7.45481 8.22218 7.24852C8.01589 7.04223 7.9 6.76244 7.9 6.4707ZM12 5.3707C11.7083 5.3707 11.4285 5.4866 11.2222 5.69289C11.0159 5.89918 10.9 6.17897 10.9 6.4707C10.9 6.76244 11.0159 7.04223 11.2222 7.24852C11.4285 7.45481 11.7083 7.5707 12 7.5707H12.01C12.3017 7.5707 12.5815 7.45481 12.7878 7.24852C12.9941 7.04223 13.11 6.76244 13.11 6.4707C13.11 6.17897 12.9941 5.89918 12.7878 5.69289C12.5815 5.4866 12.3017 5.3707 12.01 5.3707H12Z" fill="#111111"/>
</svg>
