<svg
  xmlns="http://www.w3.org/2000/svg"
  width="24"
  height="24"
  viewBox="0 0 24 24"
  fill="none"
  stroke="currentColor"
  stroke-width="2"
  stroke-linecap="round"
  stroke-linejoin="round"
>
  <path d="M12 16C13.6569 16 15 14.6569 15 13C15 11.3431 13.6569 10 12 10C10.3431 10 9 11.3431 9 13C9 14.6569 10.3431 16 12 16Z" stroke="currentColor" stroke-width="2"/>
  <path d="M16.7569 6.00013C17.914 6.00013 18.4925 6.00014 18.9592 6.15761C19.8465 6.45703 20.5431 7.15363 20.8425 8.04095C21 8.50762 21 9.08616 21 10.2432V15.2001C21 16.8803 21 17.7204 20.673 18.3621C20.3854 18.9266 19.9265 19.3855 19.362 19.6732C18.7202 20.0001 17.8802 20.0001 16.2 20.0001L7.81563 20.0001C6.13547 20.0001 5.29539 20.0001 4.65365 19.6732C4.08917 19.3855 3.63023 18.9266 3.34261 18.3621C3.01562 17.7204 3.01562 16.8803 3.01563 15.2001L3.01563 10.23C3.01563 9.0853 3.01563 8.51296 3.16979 8.05082C3.46844 7.15552 4.17101 6.45295 5.06631 6.1543C5.52845 6.00014 6.10079 6.00014 7.24547 6.00014C7.4591 6.00014 7.56591 6.00014 7.66493 5.97992C7.85565 5.94097 8.03085 5.84721 8.16906 5.71013C8.24081 5.63896 8.30006 5.55009 8.41857 5.37235L9.52501 3.7129C9.69867 3.45243 9.7855 3.3222 9.90022 3.22792C10.0018 3.14445 10.1188 3.08183 10.2446 3.04363C10.3867 3.00049 10.5432 3.00049 10.8562 3.00049L13.1438 3.00049C13.4568 3.00049 13.6133 3.00049 13.7554 3.04363C13.8812 3.08183 13.9982 3.14445 14.0998 3.22792C14.2145 3.3222 14.3013 3.45243 14.475 3.7129L15.5801 5.37038C15.6999 5.55004 15.7598 5.63988 15.8325 5.71166C15.9699 5.8474 16.1438 5.94042 16.3329 5.97948C16.433 6.00013 16.541 6.00013 16.7569 6.00013Z" stroke="currentColor" stroke-width="2"/>
  <path d="M16.7571 6C17.9141 6 18.4921 6 18.9591 6.157C19.3969 6.30459 19.7948 6.55132 20.1216 6.87794C20.4484 7.20456 20.6953 7.60225 20.8431 8.04C21.0001 8.507 21.0001 9.086 21.0001 10.243V15.2C21.0001 16.88 21.0001 17.72 20.6731 18.362C20.3853 18.9261 19.9264 19.3846 19.3621 19.672C18.7201 20 17.8801 20 16.2001 20H7.81611C6.13611 20 5.29611 20 4.65411 19.673C4.08965 19.3854 3.63073 18.9265 3.34311 18.362C3.01611 17.72 3.01611 16.88 3.01611 15.2V10.23C3.01611 9.085 3.01611 8.512 3.17011 8.05C3.31744 7.60856 3.56543 7.20745 3.8945 6.87839C4.22357 6.54932 4.62468 6.30132 5.06611 6.154C5.52811 6 6.10111 6 7.24611 6C7.45911 6 7.56611 6 7.66511 5.98C7.85581 5.94097 8.03097 5.84713 8.16911 5.71C8.24111 5.638 8.30011 5.55 8.41911 5.372L9.52511 3.712C9.69911 3.452 9.78511 3.322 9.90011 3.227C10.0019 3.14356 10.1191 3.08103 10.2451 3.043C10.3871 3 10.5431 3 10.8561 3H13.1441C13.4571 3 13.6141 3 13.7551 3.043C13.8811 3.08103 13.9983 3.14356 14.1001 3.227C14.2141 3.322 14.3011 3.452 14.4751 3.712L15.5801 5.37C15.7001 5.55 15.7601 5.64 15.8321 5.711C15.9694 5.84673 16.1431 5.93981 16.3321 5.979C16.4331 5.999 16.5411 6 16.7571 6Z" fill="currentColor" opacity="0.28"/>
  <path d="M17 10V10.01" stroke="currentColor" stroke-width="2"/>
</svg>