<svg
  xmlns="http://www.w3.org/2000/svg"
  width="24"
  height="24"
  viewBox="0 0 24 24"
  fill="none"
  stroke="currentColor"
  stroke-width="2"
  stroke-linecap="round"
  stroke-linejoin="round"
>
  <path d="M10 4H19C20.1046 4 21 4.89543 21 6V18C21 19.1046 20.1046 20 19 20H10" stroke="currentColor" stroke-width="2"/>
  <path d="M13 14H14" stroke="currentColor" stroke-width="2"/>
  <path d="M13 17H14" stroke="currentColor" stroke-width="2"/>
  <path d="M13 7H18V11H13V7Z" stroke="currentColor" stroke-width="2"/>
  <path d="M17 14H18" stroke="currentColor" stroke-width="2"/>
  <path d="M17 17H18" stroke="currentColor" stroke-width="2"/>
  <path d="M3 5.5C3 4.11929 4.11929 3 5.5 3H7.5C8.88071 3 10 4.11929 10 5.5V18.5C10 19.8807 8.88071 21 7.5 21H5.5C4.11929 21 3 19.8807 3 18.5V5.5Z" stroke="currentColor" stroke-width="2"/>
  <path d="M7.5 3C8.88071 3 10 4.11929 10 5.5V4H19C20.1046 4 21 4.89543 21 6V18C21 19.1046 20.1046 20 19 20H10V18.5C10 19.8807 8.88071 21 7.5 21H5.5C4.11929 21 3 19.8807 3 18.5V5.5C3 4.11929 4.11929 3 5.5 3H7.5Z" fill="currentColor" opacity="0.28"/>
</svg>