<svg
  xmlns="http://www.w3.org/2000/svg"
  width="24"
  height="24"
  viewBox="0 0 24 24"
  fill="none"
  stroke="currentColor"
  stroke-width="2"
  stroke-linecap="round"
  stroke-linejoin="round"
>
  <path d="M21 16V8.8C21 7.11984 21 6.27976 20.673 5.63803C20.3854 5.07354 19.9265 4.6146 19.362 4.32698C18.7202 4 17.8802 4 16.2 4H7.8C6.11984 4 5.27976 4 4.63803 4.32698C4.07354 4.6146 3.6146 5.07354 3.32698 5.63803C3 6.27976 3 7.11984 3 8.8V16M21 16L15 16L14 17H9.5L8.5 16H3M21 16C21.5523 16 22 16.4477 22 17C22 18.6569 20.6569 20 19 20L5 20C3.34315 20 2 18.6569 2 17C2 16.4477 2.44772 16 3 16M13 4.00688V5H11V4.00688" stroke="currentColor" stroke-width="2"/>
  <path d="M22 17C22 18.6569 20.6569 20 19 20L5 20C3.34315 20 2 18.6569 2 17C2 16.4477 2.44772 16 3 16H8.5L9.5 17H14L15 16L21 16C21.5523 16 22 16.4477 22 17Z" fill="currentColor" opacity="0.28"/>
</svg>