<svg
  xmlns="http://www.w3.org/2000/svg"
  width="24"
  height="24"
  viewBox="0 0 24 24"
  fill="none"
  stroke="currentColor"
  stroke-width="2"
  stroke-linecap="round"
  stroke-linejoin="round"
>
  <path d="M14.1562 2H4.4C3.55992 2 3.13988 2 2.81901 2.16349C2.53677 2.3073 2.3073 2.53677 2.16349 2.81901C2 3.13988 2 3.55992 2 4.4V14.6C2 15.4401 2 15.8601 2.16349 16.181C2.3073 16.4632 2.53677 16.6927 2.81901 16.8365C3.13988 17 3.55992 17 4.4 17H12M22 12.4805V14.6C22 15.4401 22 15.8601 21.8365 16.181C21.6927 16.4632 21.4632 16.6927 21.181 16.8365C20.8601 17 20.4401 17 19.6 17H12M12 20.875V17M12 20.875C10.25 20.875 8.5 21.25 7 22M12 20.875C13.75 20.875 15.5 21.25 17 22" stroke="currentColor" stroke-width="2"/>
  <path d="M23.0337 4.81153C22.2934 3.82454 21.4347 2.93322 20.4773 2.15739C20.3478 2.05246 20.1907 2 20.0337 2M17.0337 4.81153C17.7739 3.82454 18.6327 2.93322 19.5901 2.15739C19.7196 2.05246 19.8767 2 20.0337 2M20.0337 2V9" stroke="currentColor" stroke-width="2"/>
  <path d="M4.4 2H14.91V2.652C14.817 2.771 14.724 2.891 14.634 3.012C14.2997 3.45771 14.0962 3.9877 14.0461 4.54258C13.9961 5.09747 14.1016 5.65532 14.3507 6.15364C14.5999 6.65196 14.9829 7.07105 15.4568 7.36395C15.9307 7.65686 16.4769 7.812 17.034 7.812V9C17.0338 9.52926 17.1736 10.0491 17.4393 10.5069C17.7049 10.9647 18.087 11.344 18.5466 11.6064C19.0062 11.8688 19.5271 12.005 20.0563 12.001C20.5855 11.9971 21.1043 11.8532 21.56 11.584H22V14.6C22 15.44 22 15.86 21.837 16.181C21.693 16.4631 21.4633 16.6924 21.181 16.836C20.861 17 20.441 17 19.6 17H4.4C3.56 17 3.14 17 2.819 16.837C2.53651 16.6931 2.30685 16.4635 2.163 16.181C2 15.861 2 15.441 2 14.6V4.4C2 3.56 2 3.14 2.163 2.819C2.30685 2.53651 2.53651 2.30685 2.819 2.163C3.139 2 3.559 2 4.4 2Z" fill="currentColor" opacity="0.28" fill-rule="evenodd" clip-rule="evenodd"/>
  <rect width="24" height="24" fill="currentColor"/>
</svg>