<svg
  xmlns="http://www.w3.org/2000/svg"
  width="24"
  height="24"
  viewBox="0 0 24 24"
  fill="none"
  stroke="currentColor"
  stroke-width="2"
  stroke-linecap="round"
  stroke-linejoin="round"
>
  <path d="M12 6L12.0006 11" stroke="currentColor" stroke-width="2"/>
  <path d="M3 13.5C3 12.1193 4.11929 11 5.5 11H18.5C19.8807 11 21 12.1193 21 13.5V18H3V13.5Z" fill="currentColor" opacity="0.28"/>
  <path d="M3 18H21" stroke="currentColor" stroke-width="2"/>
  <path d="M3 20V13.5C3 12.1193 4.11929 11 5.5 11H18.5C19.8807 11 21 12.1193 21 13.5V20" stroke="currentColor" stroke-width="2"/>
  <path d="M5 11V8C5 6.89543 5.89543 6 7 6H17C18.1046 6 19 6.89543 19 8V11" stroke="currentColor" stroke-width="2"/>
</svg>