<svg width="24" height="24" viewBox="0 0 24 24" fill="none" xmlns="http://www.w3.org/2000/svg">
<path opacity="0.28" d="M8.643 11.6998L14.3 17.3568C14.358 17.4145 14.4228 17.4649 14.493 17.5068L12.293 19.7068C12.1055 19.8943 11.8512 19.9997 11.586 19.9998H4C3.73478 19.9998 3.48043 19.8944 3.29289 19.7069C3.10536 19.5194 3 19.265 3 18.9998V17.8298C3.00011 17.2994 3.2109 16.7908 3.586 16.4158L8.493 11.5088C8.534 11.5768 8.584 11.6418 8.643 11.7008V11.6998Z" fill="#111111"/>
<path d="M17.164 15.9074L15.7144 17.357C15.383 17.6883 14.877 17.7385 14.4927 17.5076M17.164 15.9074C18.1347 16.5505 19.4554 16.4444 20.3106 15.5892L22.7855 13.1143M17.164 15.9074C17.0266 15.8164 16.8961 15.7103 16.7751 15.5892L10.4111 9.22525C10.29 9.10417 10.184 8.97376 10.0929 8.83634M10.0929 8.83634L8.64334 10.2859C8.31199 10.6173 8.26178 11.1233 8.49271 11.5076M10.0929 8.83634C9.44981 7.86565 9.55587 6.54495 10.4111 5.68972L12.886 3.21484M8.49271 11.5076C8.53395 11.5762 8.58416 11.6409 8.64334 11.7001L14.3002 17.357C14.3594 17.4161 14.4241 17.4663 14.4927 17.5076M8.49271 11.5076L3.58579 16.4145C3.21071 16.7896 3 17.2983 3 17.8287L3 19.0003C3 19.5526 3.44772 20.0003 4 20.0003H11.5858C11.851 20.0003 12.1054 19.8949 12.2929 19.7074L14.4927 17.5076" stroke="#111111" stroke-width="2" stroke-linecap="round" stroke-linejoin="round"/>
</svg>
