<svg width="24" height="24" viewBox="0 0 24 24" fill="none" xmlns="http://www.w3.org/2000/svg">
<path opacity="0.28" d="M2.8501 12.0001C2.8501 7.43211 6.1971 3.64611 10.5731 2.96011C12.4209 2.66837 14.3137 2.94999 15.9965 3.76704C17.6793 4.58409 19.0713 5.8973 19.9848 7.52974C20.8984 9.16218 21.2896 11.0354 21.1058 12.897C20.9221 14.7587 20.1721 16.5192 18.957 17.9415C17.7419 19.3639 16.1201 20.3796 14.31 20.8518C12.4999 21.324 10.5885 21.2301 8.83347 20.5827C7.07839 19.9353 5.56391 18.7655 4.49409 17.231C3.42426 15.6964 2.8505 13.8708 2.8501 12.0001Z" fill="#111111"/>
<path d="M9.01192 13L8.00012 14.693V20.2313M9.01192 13L12.0001 8L14.9883 13M9.01192 13H14.9883M14.9883 13L16.0001 14.693V20.2313M16.0001 20.2313C19.049 18.747 21.1501 15.6187 21.1501 11.9996C21.1501 6.94621 17.0535 2.84961 12.0001 2.84961C6.94669 2.84961 2.8501 6.94621 2.8501 11.9996C2.8501 15.6187 4.9512 18.747 8.00012 20.2313M16.0001 20.2313C14.7917 20.8196 13.4345 21.1496 12.0001 21.1496C10.5658 21.1496 9.2085 20.8196 8.00012 20.2313" stroke="#111111" stroke-width="2" stroke-linecap="round" stroke-linejoin="round"/>
</svg>
