<svg width="24" height="24" viewBox="0 0 24 24" fill="none" xmlns="http://www.w3.org/2000/svg">
<g opacity="0.28">
<path d="M2.99976 3.00449L5.72641 3.00014C6.11584 2.99951 6.31055 2.9992 6.49381 3.04318C6.65629 3.08217 6.81163 3.14665 6.95411 3.23425C7.11481 3.33305 7.25249 3.47134 7.52786 3.74792L10.6756 6.90948L6.97692 10.6082L3.80966 7.42698C3.5442 7.16035 3.41147 7.02704 3.31519 6.87185C3.22982 6.73423 3.16584 6.58435 3.12543 6.42737C3.07987 6.25034 3.07522 6.06187 3.06591 5.68492L2.99976 3.00449Z" fill="#111111"/>
<path d="M20.5012 16.7782L17.0764 13.3384L13.3777 17.0371L16.8624 20.537C17.386 21.0629 18.2037 21.151 18.8265 20.7487C19.6062 20.2449 20.2687 19.5743 20.7592 18.7842C21.1424 18.1667 21.0613 17.3671 20.5619 16.84C20.5484 16.8256 20.5326 16.8098 20.5012 16.7782Z" fill="#111111"/>
<path d="M13.6394 3.94579C14.4377 3.14742 14.8369 2.74823 15.2972 2.59867C15.7021 2.46711 16.1383 2.46711 16.5432 2.59867C17.0035 2.74823 17.4027 3.14742 18.201 3.94579L20.0542 5.79897C20.8526 6.59734 21.2518 6.99652 21.4013 7.45683C21.5329 7.86173 21.5329 8.29789 21.4013 8.70279C21.2518 9.1631 20.8526 9.56228 20.0542 10.3606L17.0764 13.3384L13.3777 17.0371L10.3606 20.0542C9.56228 20.8526 9.16309 21.2518 8.70278 21.4013C8.29788 21.5329 7.86173 21.5329 7.45683 21.4013C6.99652 21.2518 6.59734 20.8526 5.79897 20.0542L3.94579 18.201C3.14742 17.4027 2.74823 17.0035 2.59867 16.5432C2.46711 16.1383 2.46711 15.7021 2.59867 15.2972C2.74823 14.8369 3.14742 14.4377 3.94579 13.6394L6.97692 10.6082L10.6756 6.90948L13.6394 3.94579Z" fill="#111111"/>
</g>
<path d="M4.516 13.0691L7.36705 15.9202M10.2181 7.36704L13.0691 10.2181M13.0691 4.516L15.2074 6.65428M7.36704 10.2181L9.50533 12.3564M17.0765 13.3384L20.0542 10.3606C20.8526 9.56228 21.2518 9.1631 21.4013 8.70279C21.5329 8.29789 21.5329 7.86173 21.4013 7.45683C21.2518 6.99652 20.8526 6.59734 20.0542 5.79897L18.201 3.94579C17.4027 3.14742 17.0035 2.74823 16.5432 2.59867C16.1383 2.46711 15.7021 2.46711 15.2972 2.59867C14.8369 2.74823 14.4377 3.14742 13.6394 3.94579L10.6757 6.90948M17.0765 13.3384L13.3778 17.0371M17.0765 13.3384L20.5012 16.7782C20.5326 16.8098 20.5484 16.8256 20.562 16.84C21.0614 17.3671 21.1425 18.1667 20.7592 18.7842C20.2688 19.5743 19.6062 20.2449 18.8265 20.7487C18.2038 21.151 17.386 21.0629 16.8624 20.537L13.3778 17.0371M10.6757 6.90948L6.97698 10.6082M10.6757 6.90948L7.52792 3.74792C7.25255 3.47134 7.11487 3.33305 6.95417 3.23425C6.81169 3.14665 6.65635 3.08216 6.49387 3.04318C6.31061 2.9992 6.1159 2.99951 5.72647 3.00013L2.99982 3.00449L3.06597 5.68491C3.07528 6.06186 3.07993 6.25034 3.12549 6.42737C3.1659 6.58435 3.22989 6.73423 3.31525 6.87185C3.41153 7.02704 3.54426 7.16035 3.80972 7.42698L6.97698 10.6082M6.97698 10.6082L3.94579 13.6394C3.14742 14.4377 2.74823 14.8369 2.59867 15.2972C2.46711 15.7021 2.46711 16.1383 2.59867 16.5432C2.74823 17.0035 3.14742 17.4027 3.94579 18.201L5.79897 20.0542C6.59734 20.8526 6.99652 21.2518 7.45683 21.4013C7.86173 21.5329 8.29789 21.5329 8.70278 21.4013C9.16309 21.2518 9.56228 20.8526 10.3606 20.0542L13.3778 17.0371" stroke="#111111" stroke-width="2" stroke-linecap="round" stroke-linejoin="round"/>
</svg>
