<svg
  xmlns="http://www.w3.org/2000/svg"
  width="24"
  height="24"
  viewBox="0 0 24 24"
  fill="none"
  stroke="currentColor"
  stroke-width="2"
  stroke-linecap="round"
  stroke-linejoin="round"
>
  <g opacity="0.28" fill="none"><path d="M4.66667 13.8333H2.83333C1.82081 13.8333 1 14.6541 1 15.6667C1 16.6792 1.82081 17.5 2.83333 17.5C3.84585 17.5 4.66667 16.6792 4.66667 15.6667V13.8333Z" stroke="currentColor" stroke-width="2"/ fill="none"><path d="M10.1667 13.8333H8.33333V15.6667C8.33333 16.6792 9.15415 17.5 10.1667 17.5C11.1792 17.5 12 16.6792 12 15.6667C12 14.6541 11.1792 13.8333 10.1667 13.8333Z" stroke="currentColor" stroke-width="2"/ fill="none"><path d="M8.33333 8.33333V10.1667H10.1667C11.1792 10.1667 12 9.34585 12 8.33333C12 7.32081 11.1792 6.5 10.1667 6.5C9.15415 6.5 8.33333 7.32081 8.33333 8.33333Z" stroke="currentColor" stroke-width="2"/ fill="none"><path d="M2.83333 10.1667H4.66667V8.33333C4.66667 7.32081 3.84585 6.5 2.83333 6.5C1.82081 6.5 1 7.32081 1 8.33333C1 9.34585 1.82081 10.1667 2.83333 10.1667Z" stroke="currentColor" stroke-width="2"/ fill="none"></g>
  <path d="M16 6.5V14M16 14V17.5M16 14L18.0413 11.9587M18.0413 11.9587L22.9222 6.5M18.0413 11.9587C20.3098 12.9412 22.0645 14.8271 22.8811 17.1604L23 17.5M4.6665 13.8333H8.33317V10.1666H4.6665V13.8333Z" stroke="currentColor" stroke-width="2"/ fill="none">
</svg>