<svg width="24" height="24" viewBox="0 0 24 24" fill="none" xmlns="http://www.w3.org/2000/svg">
<path d="M10.0867 3.05182C9.61402 3.15235 9.15487 3.28938 8.7123 3.45981M10.0867 3.05182C11.5162 5.20681 12.3865 7.76494 12.4906 10.5192M10.0867 3.05182C10.7157 2.91802 11.37 2.84887 12.0383 2.85164M8.7123 3.45981C6.4727 4.32227 4.65788 6.04018 3.6682 8.21318M8.7123 3.45981C9.42362 5.70566 9.35591 8.17718 8.5195 10.38M12.0383 2.85164C15.2087 2.86478 17.9985 4.49029 19.6303 6.95061M12.0383 2.85164C13.7596 4.76635 15.0653 7.06229 15.8132 9.59738M19.6303 6.95061C18.5472 8.06094 17.2532 8.96474 15.8132 9.59738M19.6303 6.95061C20.6667 8.51314 21.1969 10.3804 21.1462 12.2538M21.1462 12.2538C21.046 15.9534 18.7499 19.105 15.5141 20.4523M21.1462 12.2538C19.7466 13.2697 18.193 14.0864 16.527 14.6622M15.5141 20.4523C16.1598 18.6411 16.516 16.6925 16.527 14.6622M15.5141 20.4523C13.4337 21.3185 11.0515 21.3795 8.92906 20.6236M8.92906 20.6236C6.62462 19.8029 4.74605 18.0845 3.7142 15.8894M8.92906 20.6236C10.1921 19.1737 11.1724 17.471 11.7838 15.6013M3.7142 15.8894C3.41841 15.2601 3.19219 14.5916 3.04547 13.8939M3.7142 15.8894C4.28753 15.576 4.82851 15.211 5.33087 14.8004M3.04547 13.8939C3.78066 14.2466 4.54388 14.5502 5.33087 14.8004M3.04547 13.8939C2.64618 11.995 2.86341 9.98022 3.6682 8.21318M3.6682 8.21318C5.08018 9.26629 6.72864 10.0199 8.5195 10.38M12.4906 10.5192C13.6581 10.3694 14.7737 10.0541 15.8132 9.59738M12.4906 10.5192C11.1713 10.6885 9.82367 10.6422 8.5195 10.38M12.4906 10.5192C12.5556 12.2378 12.3186 13.9662 11.7838 15.6013M15.8132 9.59738C16.2866 11.2019 16.5365 12.9065 16.527 14.6622M8.5195 10.38C7.85824 12.1214 6.74831 13.642 5.33087 14.8004M11.7838 15.6013C13.4357 15.5038 15.0269 15.1807 16.527 14.6622M11.7838 15.6013C9.60742 15.7298 7.40918 15.4613 5.33087 14.8004" stroke="#111111" stroke-width="2" stroke-linejoin="round"/>
</svg>
