<svg width="24" height="24" viewBox="0 0 24 24" fill="none" xmlns="http://www.w3.org/2000/svg">
<path opacity="0.28" d="M11.5312 21H10.7463C9.97316 21 9.41659 21 8.96837 20.9645C8.61657 20.9366 8.33152 20.8869 8.0609 20.7981C7.51647 20.6194 7.01673 20.3274 6.59509 19.9415C6.11848 19.5053 5.78339 18.9062 5.1132 17.7081L3.65882 15.1081C3.02425 13.9737 2.70696 13.4065 2.58257 12.8058C2.47248 12.2742 2.47248 11.7258 2.58257 11.1942C2.70696 10.5935 3.02425 10.0263 3.65881 8.89189L5.1132 6.29189C5.78338 5.0938 6.11848 4.49474 6.59509 4.05853C7.01673 3.67263 7.51647 3.38059 8.0609 3.20194C8.6763 3 9.3663 3 10.7463 3H13.2317C14.6117 3 15.3017 3 15.9171 3.20194C16.4616 3.38059 16.9613 3.67263 17.3829 4.05853C17.8596 4.49474 18.1946 5.09379 18.8648 6.29189L20.3544 8.95471C20.9015 9.93288 21.2082 10.4811 21.3594 11C21.3802 11.0713 21.398 11.142 21.4132 11.2132C21.5241 11.7352 21.5288 12.2739 21.4269 12.7977C21.3378 13.2563 21.1366 13.6968 20.77 14.3946" stroke="#111111" stroke-width="2" stroke-linecap="round" stroke-linejoin="round"/>
<path d="M19.7911 10L18.9732 10C18.0984 9.99998 17.5912 9.99997 17.1535 10.038C12.2939 10.4603 8.43253 14.2885 8.00623 19.1279C7.99125 19.2979 7.98212 19.4784 7.97656 19.6866C8.10408 19.7494 8.23626 19.8034 8.3722 19.848C8.54532 19.9048 8.7472 19.944 9.04687 19.9677C9.29752 19.9876 9.59173 19.9952 9.97107 19.9982C9.97467 19.6934 9.98231 19.4873 9.99852 19.3034C10.3388 15.4407 13.4242 12.3696 17.3266 12.0305C17.6666 12.0009 18.0807 12 19.0367 12H20.4993C20.4967 11.8059 20.4751 11.612 20.4345 11.4212C20.4247 11.3748 20.4129 11.3281 20.3989 11.2799C20.31 10.9749 20.1435 10.6394 19.7911 10Z" fill="#111111"/>
<path fill-rule="evenodd" clip-rule="evenodd" d="M6.96094 9C6.96094 7.88898 7.86593 7 8.96782 7C10.0697 7 10.9747 7.88898 10.9747 9C10.9747 10.111 10.0697 11 8.96782 11C7.86593 11 6.96094 10.111 6.96094 9Z" fill="#111111"/>
<path fill-rule="evenodd" clip-rule="evenodd" d="M17.5236 14.897C17.994 15.1865 18.1406 15.8024 17.8512 16.2728L16.7891 17.9987H18.9995C19.3618 17.9987 19.6957 18.1946 19.8725 18.5109C20.0492 18.8271 20.041 19.2142 19.8512 19.5228L17.8512 22.7728C17.5617 23.2431 16.9458 23.3898 16.4754 23.1003C16.0051 22.8109 15.8584 22.1949 16.1479 21.7246L17.2099 19.9987H14.9995C14.6372 19.9987 14.3033 19.8027 14.1266 19.4865C13.9498 19.1702 13.958 18.7831 14.1479 18.4746L16.1479 15.2246C16.4373 14.7542 17.0533 14.6075 17.5236 14.897Z" fill="#111111"/>
</svg>
