<svg width="24" height="24" viewBox="0 0 24 24" fill="none" xmlns="http://www.w3.org/2000/svg">
<path d="M20 21V13.7423M20 13.7423C19.5663 13.9716 19.0654 14.1026 18.5124 14.1026C16.7143 14.1026 15.2566 12.6449 15.2566 10.8467C15.2566 11.8912 14.7647 12.8208 14 13.4166M20 13.7423C21.1445 13.1369 21.8209 11.8461 21.7495 10.4671L21.435 7.32238C21.1178 4.1497 20.0303 3 16.6589 3H7.33992C3.96849 3 2.88102 4.1497 2.56375 7.32238L2.24927 10.4671C2.18766 11.846 2.8572 13.1369 4.00001 13.7423M4.00001 13.7423C4.43304 13.9716 4.93402 14.1026 5.48892 14.1026C7.28709 14.1026 8.7448 12.6449 8.7448 10.8467C8.7448 12.6449 10.2025 14.1026 12.0007 14.1026C12.7544 14.1026 13.4482 13.8465 14 13.4166M4.00001 13.7423V18.6C4.00001 19.4401 4.00001 19.8601 4.1635 20.181C4.30731 20.4632 4.53678 20.6927 4.81902 20.8365C5.13989 21 5.55993 21 6.40001 21H11.6C12.4401 21 12.8601 21 13.181 20.8365C13.4632 20.6927 13.6927 20.4632 13.8365 20.181C14 19.8601 14 19.4401 14 18.6V13.4166" stroke="#111111" stroke-width="2" stroke-linecap="round" stroke-linejoin="round"/>
</svg>
