<svg
  xmlns="http://www.w3.org/2000/svg"
  width="24"
  height="24"
  viewBox="0 0 24 24"
  fill="none"
  stroke="currentColor"
  stroke-width="2"
  stroke-linecap="round"
  stroke-linejoin="round"
>
  <path d="M11.5022 1.13272C11.8439 0.936566 12.269 0.959373 12.5878 1.19097C13.7551 2.03904 14.8016 3.03386 15.6996 4.14956C15.8991 4.39734 16.0016 4.70096 16 5.00724C15.9984 5.30869 15.8959 5.60665 15.6996 5.85044C14.8016 6.96614 13.7551 7.96096 12.5878 8.80903C12.269 9.04063 11.8439 9.06344 11.5022 8.86728C11.1604 8.67112 10.9658 8.29257 11.005 7.9005L11.0662 7.28859C11.1423 6.52762 11.1803 5.76381 11.1803 5C11.1803 4.23619 11.1423 3.47238 11.0662 2.71142L11.005 2.09951C10.9658 1.70743 11.1604 1.32888 11.5022 1.13272ZM12.4978 15.1327C12.8396 15.3289 13.0342 15.7074 12.995 16.0995L12.9338 16.7114C12.8577 17.4724 12.8197 18.2362 12.8197 19C12.8197 19.7638 12.8577 20.5276 12.9338 21.2886L12.995 21.9005C13.0342 22.2926 12.8396 22.6711 12.4978 22.8673C12.1561 23.0634 11.731 23.0406 11.4122 22.809C10.2449 21.961 9.19842 20.9661 8.30036 19.8504C8.10092 19.6027 7.99838 19.2991 8.00002 18.9928C8.00163 18.6913 8.10411 18.3934 8.30036 18.1496C9.19842 17.0339 10.2449 16.039 11.4122 15.191C11.731 14.9594 12.1561 14.9366 12.4978 15.1327Z" fill="currentColor" fill-rule="evenodd" clip-rule="evenodd"/>
  <path d="M12.1803 5H10C8.13872 5 7.20808 5 6.45492 5.24472C4.93273 5.73931 3.73931 6.93273 3.24472 8.45492C3 9.20808 3 10.1387 3 12C3 13.8613 3 14.7919 3.24472 15.5451C3.56708 16.5372 4.18631 17.3897 4.99995 18M11.8197 19H14C15.8613 19 16.7919 19 17.5451 18.7553C19.0673 18.2607 20.2607 17.0673 20.7553 15.5451C21 14.7919 21 13.8613 21 12C21 10.1387 21 9.20808 20.7553 8.45492C20.4329 7.46279 19.8137 6.61033 19.0001 6" stroke="currentColor" stroke-width="2" opacity="0.28"/>
</svg>