<svg
  xmlns="http://www.w3.org/2000/svg"
  width="24"
  height="24"
  viewBox="0 0 24 24"
  fill="none"
  stroke="currentColor"
  stroke-width="2"
  stroke-linecap="round"
  stroke-linejoin="round"
>
  <path d="M4 8H15C17.7614 8 20 10.2386 20 13C20 15.7614 17.7614 18 15 18H12" stroke="currentColor" stroke-width="2" opacity="0.28"/>
  <path d="M9.02819 3.98951C9.05681 3.60108 8.85731 3.23138 8.51693 3.04208C8.17654 2.85278 7.75722 2.87833 7.44234 3.10756C5.91889 4.21662 4.5498 5.51282 3.36919 6.96374C3.12546 7.26327 3 7.62981 3 7.99935C3 8.36889 3.12546 8.73543 3.36919 9.03497C4.5498 10.4859 5.91889 11.7821 7.44234 12.8911C7.75722 13.1204 8.17654 13.1459 8.51692 12.9566C8.85731 12.7673 9.05681 12.3976 9.02819 12.0092L8.85726 9.68961C8.8158 9.12695 8.79507 8.56315 8.79507 7.99935C8.79507 7.43555 8.8158 6.87175 8.85726 6.3091L9.02819 3.98951Z" fill="currentColor"/>
</svg>