<svg
  xmlns="http://www.w3.org/2000/svg"
  width="24"
  height="24"
  viewBox="0 0 24 24"
  fill="none"
  stroke="currentColor"
  stroke-width="2"
  stroke-linecap="round"
  stroke-linejoin="round"
>
  <path d="M12 3V2M6 22L8 18M18 22L16.03 18M12 21V18.002" stroke="currentColor" stroke-width="2" opacity="0.28"/>
  <path d="M8.4 2H8.357C7.273 2 6.4 2 5.691 2.058C4.963 2.118 4.322 2.243 3.73 2.545C2.78923 3.02436 2.02436 3.78923 1.545 4.73C1.243 5.322 1.117 5.963 1.058 6.691C1 7.4 1 8.273 1 9.357V11.643C1 12.727 1 13.601 1.058 14.309C1.118 15.038 1.243 15.678 1.545 16.27C2.02436 17.2108 2.78923 17.9756 3.73 18.455C4.286 18.739 4.884 18.866 5.557 18.93C6.219 18.993 7.021 19 7.999 19C10.6767 19.0018 13.3543 19.0018 16.032 19C17 18.999 17.796 18.993 18.453 18.93C19.123 18.865 19.717 18.737 20.27 18.455C21.2108 17.9756 21.9756 17.2108 22.455 16.27C22.757 15.678 22.883 15.038 22.942 14.309C23 13.6 23 12.727 23 11.643V9.357C23 8.273 23 7.399 22.942 6.691C22.882 5.963 22.757 5.322 22.455 4.731C21.9758 3.78986 21.2109 3.02462 20.27 2.545C19.678 2.243 19.038 2.117 18.309 2.058C17.6 2 16.727 2 15.643 2H8.4ZM4.638 4.327C4.901 4.193 5.249 4.101 5.854 4.051C6.471 4.001 7.264 4 8.4 4H15.6C16.737 4 17.529 4 18.146 4.051C18.751 4.101 19.099 4.193 19.362 4.327C19.9265 4.61462 20.3854 5.07354 20.673 5.638C20.807 5.901 20.899 6.249 20.949 6.854C20.999 7.471 21 8.264 21 9.4V11.6C21 12.737 21 13.529 20.949 14.146C20.899 14.751 20.807 15.099 20.673 15.362C20.3854 15.9265 19.9265 16.3854 19.362 16.673C19.116 16.798 18.797 16.887 18.262 16.939C17.716 16.991 17.018 16.999 16.03 16.999C13.3533 17.0017 10.6767 17.002 8 17C7.002 17 6.298 16.993 5.747 16.94C5.207 16.89 4.885 16.8 4.638 16.674C4.07354 16.3864 3.61462 15.9275 3.327 15.363C3.193 15.1 3.101 14.752 3.051 14.147C3.001 13.529 3 12.736 3 11.6V9.4C3 8.263 3 7.471 3.051 6.854C3.101 6.249 3.193 5.901 3.327 5.638C3.61462 5.07354 4.07354 4.61462 4.638 4.327ZM8.485 15C7.675 15 7.123 14.994 6.694 14.96C6.218 14.925 6.042 14.863 5.956 14.822C5.63204 14.6702 5.36431 14.42 5.191 14.107C5.147 14.026 5.081 13.861 5.041 13.417C5.002 12.952 5 12.343 5 11.4V9.6C5 8.656 5.001 8.047 5.042 7.584C5.081 7.139 5.147 6.974 5.191 6.894C5.359 6.586 5.626 6.335 5.956 6.178C6.042 6.138 6.218 6.075 6.694 6.039C7.189 6.001 7.84 6 8.85 6H15.15C16.16 6 16.81 6.001 17.306 6.04C17.782 6.075 17.958 6.137 18.044 6.178C18.374 6.335 18.642 6.586 18.809 6.893C18.853 6.974 18.919 7.139 18.959 7.583C18.999 8.047 19 8.656 19 9.6V11.4C19 12.344 18.999 12.953 18.958 13.416C18.919 13.861 18.853 14.026 18.809 14.106C18.6359 14.4193 18.3681 14.6699 18.044 14.822C17.958 14.862 17.782 14.925 17.306 14.961C16.848 14.996 16.388 14.997 15.928 14.998C15.778 14.998 15.63 14.998 15.481 15H8.485Z" fill="currentColor" fill-rule="evenodd" clip-rule="evenodd"/>
</svg>