<svg
  xmlns="http://www.w3.org/2000/svg"
  width="24"
  height="24"
  viewBox="0 0 24 24"
  fill="none"
  stroke="currentColor"
  stroke-width="2"
  stroke-linecap="round"
  stroke-linejoin="round"
>
  <path d="M14.4266 17.0058C12.9877 18.4437 10.873 18.4437 9.57361 17.0058H14.4266Z" stroke="currentColor" stroke-width="2"/>
  <path d="M16.3835 12.4414C16.9081 12.4414 17.3594 12.9629 17.3908 13.6424C17.4221 14.3219 16.9626 14.5983 16.4374 14.5983C15.9121 14.5983 15.5203 14.3513 15.489 13.6718C15.4577 12.9924 15.8588 12.4414 16.3835 12.4414Z" stroke="currentColor" stroke-width="2"/>
  <path d="M17.5331 1C16.6199 1 15.8297 1.52069 15.4412 2.28123C12.8854 2.40839 10.9854 4.57181 10.9184 6.96346C8.9083 7.12463 7.05871 7.73087 5.57019 8.66831C4.98376 8.19753 4.23821 7.91486 3.42648 7.91486C1.74951 7.91486 0.355804 9.11855 0.0584517 10.7088C0.0199789 10.9145 0 11.1261 0 11.3413C0 12.7375 0.834412 13.9377 2.0319 14.4718C2.06328 16.6242 3.28674 18.4826 5.07331 19.7708C6.88472 21.0769 9.33689 21.8537 12 21.8537C14.6631 21.8537 17.1153 21.0769 18.9267 19.7708C20.7132 18.4827 21.9366 16.6243 21.9681 14.472C23.1656 13.9378 24 12.7377 24 11.3415C24 9.44914 22.4659 7.91505 20.5735 7.91505C19.7619 7.91505 19.0164 8.19768 18.4299 8.66839C16.9013 7.70565 14.9918 7.09223 12.9189 6.95141C12.9851 5.63241 14.0158 4.45283 15.3837 4.29466C15.7477 5.11999 16.5732 5.69609 17.5331 5.69609C18.8299 5.69609 19.8812 4.64484 19.8812 3.34805C19.8812 2.05126 18.8299 1 17.5331 1Z" fill="currentColor" opacity="0.28"/>
  <path d="M7.61672 12.4414C7.09207 12.4414 6.64077 12.9629 6.60943 13.6424C6.57808 14.3219 7.03754 14.5983 7.56281 14.5983C8.08808 14.5983 8.47984 14.3513 8.51118 13.6718C8.54252 12.9924 8.14136 12.4414 7.61672 12.4414Z" stroke="currentColor" stroke-width="2"/>
</svg>