<svg width="24" height="24" viewBox="0 0 24 24" fill="none" xmlns="http://www.w3.org/2000/svg">
<path opacity="0.28" d="M10 4H14C16.8003 4 18.2004 4 19.27 4.54497C20.2108 5.02433 20.9757 5.78924 21.455 6.73005C22 7.79961 22 9.19974 22 12L22 12.3633H21.5732C21.0775 12.1227 20.5382 12.0017 19.9999 12.0017C19.1962 12.0017 18.3905 12.2714 17.7309 12.8058C16.7188 13.626 15.811 14.5682 15.0284 15.6116C14.1665 16.7608 14.2538 18.3272 15.1562 19.3714V19.9982C14.7993 20 14.415 20 14 20H10C7.19974 20 5.79961 20 4.73005 19.455C3.78924 18.9757 3.02433 18.2108 2.54497 17.27C2 16.2004 2 14.8003 2 12C2 9.19974 2 7.79961 2.54497 6.73005C3.02433 5.78924 3.78924 5.02433 4.73005 4.54497C5.79961 4 7.19974 4 10 4Z" fill="#111111"/>
<path d="M17.4284 17.4116C18.0629 16.5656 18.799 15.8016 19.6197 15.1366C19.7306 15.0467 19.8653 15.0017 19.9999 15.0017M22.5713 17.4116C21.9368 16.5656 21.2007 15.8016 20.3801 15.1366C20.2691 15.0467 20.1345 15.0017 19.9999 15.0017M19.9999 15.0017V21.0017M21.8032 7.76159L16.295 11.2668C14.7385 12.2573 13.9602 12.7526 13.1238 12.9455C12.3843 13.1161 11.6157 13.1161 10.8762 12.9455C10.0398 12.7526 9.26153 12.2573 7.70499 11.2668L2.19678 7.76159M21.8032 7.76159C21.7237 7.37332 21.6119 7.03798 21.455 6.73005C20.9757 5.78924 20.2108 5.02433 19.27 4.54497C18.2004 4 16.8003 4 14 4H10C7.19974 4 5.79961 4 4.73005 4.54497C3.78924 5.02433 3.02433 5.78924 2.54497 6.73005C2.38807 7.03798 2.27634 7.37332 2.19678 7.76159M21.8032 7.76159C21.9818 8.63311 21.9984 9.7713 22 11.4648M2.19678 7.76159C2 8.72189 2 10.006 2 12C2 14.8003 2 16.2004 2.54497 17.27C3.02433 18.2108 3.78924 18.9757 4.73005 19.455C5.79961 20 7.19974 20 10 20L14.3789 19.9999" stroke="#111111" stroke-width="2" stroke-linecap="round" stroke-linejoin="round"/>
</svg>
