<svg width="24" height="24" viewBox="0 0 24 24" fill="none" xmlns="http://www.w3.org/2000/svg">
<g opacity="0.28">
<path d="M14 4H10C7.19974 4 5.79961 4 4.73005 4.54497C3.78924 5.02433 3.02433 5.78924 2.54497 6.73005C2 7.79961 2 9.19974 2 12C2 14.8003 2 16.2004 2.54497 17.27C3.02433 18.2108 3.78924 18.9757 4.73005 19.455C5.79961 20 7.19974 20 10 20H13C13.0007 18.3438 14.3436 17.0014 16 17.0014H16.6203C16.6895 16.5192 16.8772 16.0471 17.1901 15.6299C18.1781 14.3126 20.0415 14.0392 21.3656 15.0117H21.9513C22 14.2239 22 13.2519 22 12C22 9.19974 22 7.79961 21.455 6.73005C20.9757 5.78924 20.2108 5.02433 19.27 4.54497C18.2004 4 16.8003 4 14 4Z" fill="#111111"/>
<path d="M21.9186 15.4351H21.9076C21.911 15.4378 21.9144 15.4406 21.9178 15.4434C21.918 15.4406 21.9183 15.4378 21.9186 15.4351Z" fill="#111111"/>
</g>
<path d="M19.5901 22.5728C20.4361 21.9383 21.2001 21.2022 21.8651 20.3816C21.955 20.2706 22 20.136 22 20.0014M19.5901 17.4299C20.4361 18.0644 21.2001 18.8005 21.8651 19.6212C21.955 19.7321 22 19.8668 22 20.0014M22 20.0014H16M12 20H10C7.19974 20 5.79961 20 4.73005 19.455C3.78924 18.9757 3.02433 18.2108 2.54497 17.27C2 16.2004 2 14.8003 2 12C2 10.006 2 8.72189 2.19678 7.76159M21.8032 7.76159L16.295 11.2668C14.7385 12.2573 13.9602 12.7526 13.1238 12.9455C12.3843 13.1161 11.6157 13.1161 10.8762 12.9455C10.0398 12.7526 9.26153 12.2573 7.70499 11.2668L2.19678 7.76159M21.8032 7.76159C22 8.72189 22 10.006 22 12C22 12.8618 22 13.5911 21.9841 14.2188M21.8032 7.76159C21.7237 7.37332 21.6119 7.03798 21.455 6.73005C20.9757 5.78924 20.2108 5.02433 19.27 4.54497C18.2004 4 16.8003 4 14 4H10C7.19974 4 5.79961 4 4.73005 4.54497C3.78924 5.02433 3.02433 5.78924 2.54497 6.73005C2.38807 7.03798 2.27634 7.37332 2.19678 7.76159" stroke="#111111" stroke-width="2" stroke-linecap="round" stroke-linejoin="round"/>
</svg>
