<svg
  xmlns="http://www.w3.org/2000/svg"
  width="24"
  height="24"
  viewBox="0 0 24 24"
  fill="none"
  stroke="currentColor"
  stroke-width="2"
  stroke-linecap="round"
  stroke-linejoin="round"
>
  <path d="M10 9H11C11 8.69287 10.8589 8.40278 10.6172 8.21321C10.3756 8.02365 10.0602 7.95563 9.76194 8.02875L10 9ZM9 15C9 15.5523 9.44772 16 10 16C10.5523 16 11 15.5523 11 15H9ZM7.1054 10.2146C6.8586 10.7087 7.05906 11.3092 7.55313 11.556C8.04721 11.8028 8.6478 11.6024 8.8946 11.1083L7.1054 10.2146ZM15 10.5V13.5H17V10.5H15ZM14 13.5V10.5H12V13.5H14ZM14.5 14C14.2239 14 14 13.7761 14 13.5H12C12 14.8807 13.1193 16 14.5 16V14ZM15 13.5C15 13.7761 14.7761 14 14.5 14V16C15.8807 16 17 14.8807 17 13.5H15ZM14.5 10C14.7761 10 15 10.2239 15 10.5H17C17 9.11929 15.8807 8 14.5 8V10ZM14.5 8C13.1193 8 12 9.11929 12 10.5H14C14 10.2239 14.2239 10 14.5 10V8ZM9 9V15H11V9H9ZM8.8946 11.1083C9.19265 10.5116 9.66278 10.1123 10.2381 9.97125L9.76194 8.02875C8.53349 8.32986 7.62531 9.17374 7.1054 10.2146L8.8946 11.1083Z" fill="currentColor"/>
  <path d="M11 1C11.7215 1.51852 12.3696 2.12426 12.9281 2.80189C13.024 2.91815 13.024 3.08185 12.9281 3.19811C12.3696 3.87574 11.7215 4.48148 11 5" stroke="currentColor" stroke-width="2"/>
  <path d="M17.5001 4.68648C19.7169 6.35627 21.1501 9.01057 21.1501 11.9996C21.1501 17.053 17.0535 21.1496 12.0001 21.1496C6.94669 21.1496 2.8501 17.053 2.8501 11.9996C2.8501 6.9462 6.94669 2.84961 12.0001 2.84961C12.2742 2.84961 12.5455 2.86166 12.8134 2.88526" stroke="currentColor" stroke-width="2"/>
</svg>