<svg
  xmlns="http://www.w3.org/2000/svg"
  width="24"
  height="24"
  viewBox="0 0 24 24"
  fill="none"
  stroke="currentColor"
  stroke-width="2"
  stroke-linecap="round"
  stroke-linejoin="round"
>
  <path d="M6.96 9H17.04C17.706 9 18.266 9 18.723 9.037C19.203 9.077 19.657 9.161 20.089 9.382C20.7476 9.71734 21.2832 10.2526 21.619 10.911C21.839 11.343 21.924 11.798 21.963 12.277C22 12.734 22 13.294 22 13.96V18.04C22 18.706 22 19.266 21.963 19.723C21.923 20.203 21.839 20.657 21.618 21.089C21.2827 21.7476 20.7474 22.2832 20.089 22.619C19.657 22.839 19.202 22.924 18.723 22.963C18.266 23 17.706 23 17.04 23H6.96C6.294 23 5.734 23 5.277 22.963C4.797 22.923 4.343 22.839 3.911 22.618C3.25235 22.2827 2.71677 21.7474 2.381 21.089C2.161 20.657 2.076 20.202 2.037 19.723C2 19.266 2 18.706 2 18.041V13.96C2 13.294 2 12.734 2.037 12.277C2.077 11.797 2.161 11.343 2.381 10.911C2.7166 10.2522 3.2522 9.7166 3.911 9.381C4.343 9.161 4.798 9.076 5.277 9.037C5.734 9 6.295 9 6.96 9ZM13.23 12.617C13.1563 12.4305 13.0282 12.2704 12.8623 12.1576C12.6965 12.0449 12.5006 11.9846 12.3 11.9846C12.0994 11.9846 11.9035 12.0449 11.7377 12.1576C11.5718 12.2704 11.4437 12.4305 11.37 12.617C11.077 13.36 10.804 13.808 10.474 14.14C10.144 14.472 9.693 14.754 8.933 15.054C8.74648 15.1277 8.58643 15.2558 8.47365 15.4217C8.36087 15.5875 8.30056 15.7834 8.30056 15.984C8.30056 16.1846 8.36087 16.3805 8.47365 16.5463C8.58643 16.7122 8.74648 16.8403 8.933 16.914C9.693 17.214 10.145 17.497 10.473 17.828C10.803 18.16 11.077 18.608 11.369 19.351C11.4425 19.5378 11.5706 19.6982 11.7366 19.8112C11.9026 19.9243 12.0987 19.9847 12.2995 19.9847C12.5003 19.9847 12.6964 19.9243 12.8624 19.8112C13.0284 19.6982 13.1565 19.5378 13.23 19.351C13.523 18.609 13.796 18.161 14.126 17.828C14.455 17.497 14.906 17.214 15.666 16.915C15.8528 16.8415 16.0132 16.7134 16.1262 16.5474C16.2393 16.3814 16.2997 16.1853 16.2997 15.9845C16.2997 15.7837 16.2393 15.5876 16.1262 15.4216C16.0132 15.2556 15.8528 15.1275 15.666 15.054C14.906 14.754 14.455 14.472 14.126 14.14C13.796 13.808 13.523 13.36 13.23 12.617ZM7.7 19.323C7.7 19.0578 7.80536 18.8034 7.99289 18.6159C8.18043 18.4284 8.43478 18.323 8.7 18.323H8.701C8.96622 18.323 9.22057 18.4284 9.40811 18.6159C9.59564 18.8034 9.701 19.0578 9.701 19.323C9.701 19.5882 9.59564 19.8426 9.40811 20.0301C9.22057 20.2176 8.96622 20.323 8.701 20.323C8.43578 20.323 8.18143 20.2176 7.99389 20.0301C7.80636 19.8426 7.701 19.5882 7.701 19.323H7.7Z" fill="currentColor" fill-rule="evenodd" clip-rule="evenodd"/ stroke="none">
  <path d="M7 3.001L17 3C17.2652 3 17.5196 2.89464 17.7071 2.70711C17.8946 2.51957 18 2.26522 18 2C18 1.73478 17.8946 1.48043 17.7071 1.29289C17.5196 1.10536 17.2652 1 17 1L7 1.001C6.73478 1.001 6.48043 1.10636 6.29289 1.29389C6.10536 1.48143 6 1.73578 6 2.001C6 2.26622 6.10536 2.52057 6.29289 2.70811C6.48043 2.89564 6.73478 3.001 7 3.001ZM5 5C4.73478 5 4.48043 5.10536 4.29289 5.29289C4.10536 5.48043 4 5.73478 4 6C4 6.26522 4.10536 6.51957 4.29289 6.70711C4.48043 6.89464 4.73478 7 5 7H19C19.2652 7 19.5196 6.89464 19.7071 6.70711C19.8946 6.51957 20 6.26522 20 6C20 5.73478 19.8946 5.48043 19.7071 5.29289C19.5196 5.10536 19.2652 5 19 5H5Z" fill="#111111" opacity="0.28"/ stroke="none">
</svg>