<svg width="24" height="24" viewBox="0 0 24 24" fill="none" xmlns="http://www.w3.org/2000/svg">
<path d="M4 8H20M4 8V17C4 18.0609 4.42143 19.0783 5.17157 19.8284C5.92172 20.5786 6.93913 21 8 21H16C17.0609 21 18.0783 20.5786 18.8284 19.8284C19.5786 19.0783 20 18.0609 20 17V8M4 8C3.46957 8 2.96086 7.78929 2.58579 7.41421C2.21071 7.03914 2 6.53043 2 6V5C2 4.46957 2.21071 3.96086 2.58579 3.58579C2.96086 3.21071 3.46957 3 4 3H20C20.5304 3 21.0391 3.21071 21.4142 3.58579C21.7893 3.96086 22 4.46957 22 5V6C22 6.53043 21.7893 7.03914 21.4142 7.41421C21.0391 7.78929 20.5304 8 20 8" stroke="#111111" stroke-width="2" stroke-linecap="round" stroke-linejoin="round"/>
<path d="M12 11.582C12.004 11.683 12.005 11.733 12.008 11.777C12.0557 12.5032 12.3657 13.1872 12.8802 13.7018C13.3948 14.2164 14.0789 14.5264 14.805 14.574L15 14.582L14.805 14.59C14.0789 14.6377 13.3948 14.9477 12.8802 15.4623C12.3657 15.9768 12.0557 16.6609 12.008 17.387L12 17.582C11.996 17.482 11.995 17.431 11.992 17.387C11.9425 16.627 11.6058 15.9143 11.0502 15.3934C10.4945 14.8725 9.76161 14.5825 9 14.582L9.195 14.574C9.92114 14.5264 10.6052 14.2164 11.1198 13.7018C11.6343 13.1872 11.9443 12.5032 11.992 11.777L12 11.582Z" stroke="#111111" stroke-width="2" stroke-linecap="round" stroke-linejoin="round"/>
</svg>
