<svg
  xmlns="http://www.w3.org/2000/svg"
  width="24"
  height="24"
  viewBox="0 0 24 24"
  fill="none"
  stroke="currentColor"
  stroke-width="2"
  stroke-linecap="round"
  stroke-linejoin="round"
>
  <path d="M12 19H12.01" stroke="currentColor" stroke-width="2"/ fill="none">
  <path d="M7.72803 9.27218C7.72817 8.53161 7.92082 7.8038 8.28709 7.16015C8.65335 6.5165 9.18065 5.97912 9.81725 5.60072C10.4538 5.22233 11.1779 5.01593 11.9183 5.00176C12.6587 4.98759 13.3901 5.16615 14.0407 5.51991C14.6913 5.87368 15.2388 6.3905 15.6294 7.01967C16.0201 7.64884 16.2404 8.36874 16.2689 9.10876C16.2973 9.84878 16.1329 10.5835 15.7918 11.2408C15.4507 11.8981 14.9445 12.4555 14.323 12.8582C13.185 13.5962 12 14.6442 12 16.0002" stroke="#111111" stroke-width="2" opacity="0.28"/ fill="none">
</svg>