<svg width="24" height="24" viewBox="0 0 24 24" fill="none" xmlns="http://www.w3.org/2000/svg">
<g opacity="0.28">
<path d="M18 15.9783C12 17.5862 11.7518 12.4367 6 14.4923V20.5C6 21.3284 6.67157 22 7.5 22L16.5 22C17.3284 22 18 21.3284 18 20.5V15.9783Z" fill="#111111"/>
<path d="M15 7V6C15 5.44772 14.5523 5 14 5H10C9.44772 5 9 5.44772 9 6V7C9 7.55228 9.44772 8 10 8H14C14.5523 8 15 7.55228 15 7Z" fill="#111111"/>
</g>
<path d="M6 11C6 9.34315 7.34315 8 9 8H15C16.6569 8 18 9.34315 18 11V20.5C18 21.3284 17.3284 22 16.5 22H7.5C6.67157 22 6 21.3284 6 20.5V11Z" stroke="#111111" stroke-width="2" stroke-linecap="round" stroke-linejoin="round"/>
<path d="M15 8V6C15 5.44772 14.5523 5 14 5H10C9.44772 5 9 5.44772 9 6V8" stroke="#111111" stroke-width="2" stroke-linecap="round" stroke-linejoin="round"/>
<path d="M12 5V2" stroke="#111111" stroke-width="2" stroke-linecap="round" stroke-linejoin="round"/>
<path d="M9.5 2H16.4189C17.3631 2 18.2014 2.60421 18.5 3.5" stroke="#111111" stroke-width="2" stroke-linecap="round" stroke-linejoin="round"/>
<path d="M18 15.9783C12 17.5862 11.7518 12.4367 6 14.4923V20.5C6 21.3284 6.67157 22 7.5 22L16.5 22C17.3284 22 18 21.3284 18 20.5V15.9783Z" stroke="#111111" stroke-width="2" stroke-linecap="round" stroke-linejoin="round"/>
</svg>
