<svg
  xmlns="http://www.w3.org/2000/svg"
  width="24"
  height="24"
  viewBox="0 0 24 24"
  fill="none"
  stroke="currentColor"
  stroke-width="2"
  stroke-linecap="round"
  stroke-linejoin="round"
>
  <path d="M12.0038 19.5457C11.1028 19.0297 10.22 18.4681 9.28419 18.0179C8.35076 17.5688 7.36394 17.2294 6.40128 16.8476C6.22875 15.7299 6.11719 14.5931 5.83361 13.4958C5.59784 12.5835 5.29203 11.6863 5.01758 10.7852C5.7201 10.0227 6.46292 9.28792 7.10954 8.47713C7.75628 7.66619 8.30742 6.77833 8.89462 5.92358C9.92896 5.99741 10.9667 6.12008 12.0039 6.12006C13.041 6.12005 14.0787 5.9974 15.1129 5.92358C15.6991 6.77688 16.2495 7.66311 16.8947 8.47302C17.542 9.28552 18.2863 10.0214 18.99 10.7852C18.6878 11.7772 18.3373 12.7616 18.1065 13.7729C17.8758 14.784 17.7644 15.8229 17.6063 16.8476C16.7307 17.1949 15.8385 17.5152 14.9783 17.8996C13.9436 18.3621 12.9852 18.9836 12.0038 19.5457Z" stroke="currentColor" stroke-width="2"/ fill="none">
  <path d="M12.004 2.25293C9.50399 2.25293 8.89471 5.92354 8.89471 5.92354C8.89471 5.92354 5.6381 4.11461 4.08361 6.06374C2.52911 8.01288 5.01767 10.7852 5.01767 10.7852C5.01767 10.7852 1.57117 12.188 2.12678 14.6309C2.6824 17.0738 6.40137 16.8476 6.40137 16.8476C6.40137 16.8476 5.35881 20.4248 7.61091 21.5102C9.86301 22.5955 12.0039 19.5456 12.0039 19.5456C12.0039 19.5456 14.1276 22.5949 16.3831 21.5167C18.6387 20.4386 17.6064 16.8476 17.6064 16.8476C17.6064 16.8476 21.3147 17.072 21.8726 14.6351C22.4306 12.1981 18.9901 10.7852 18.9901 10.7852C18.9901 10.7852 21.4758 8.01156 19.9164 6.05936C18.357 4.10716 15.113 5.92354 15.113 5.92354C15.113 5.92354 14.504 2.25293 12.004 2.25293Z" stroke="#111111" stroke-width="2" opacity="0.28"/ fill="none">
</svg>