<svg
  xmlns="http://www.w3.org/2000/svg"
  width="24"
  height="24"
  viewBox="0 0 24 24"
  fill="none"
  stroke="currentColor"
  stroke-width="2"
  stroke-linecap="round"
  stroke-linejoin="round"
>
  <path d="M8.46631 4.18799C6.80945 4.18799 5.46631 5.3819 5.46631 6.85466V9.52132C5.46631 10.9941 4.12316 12.188 2.46631 12.188C4.12316 12.188 5.46631 13.3819 5.46631 14.8547V17.5213C5.46631 18.9941 6.80945 20.188 8.46631 20.188M16.4663 4.18799C18.1232 4.18799 19.4663 5.3819 19.4663 6.85466V9.52132C19.4663 10.9941 20.8095 12.188 22.4663 12.188C20.8095 12.188 19.4663 13.3819 19.4663 14.8547V17.5213C19.4663 18.9941 18.1232 20.188 16.4663 20.188" stroke="#111111" stroke-width="2" opacity="0.28"/ fill="none">
  <path d="M8.96631 16H8.96731M12.9663 9C12.3288 10.6165 11.6272 11.345 9.96631 12C11.6272 12.655 12.3288 13.3835 12.9663 15C13.6038 13.3835 14.3054 12.655 15.9663 12C14.3054 11.345 13.6038 10.6165 12.9663 9Z" stroke="currentColor" stroke-width="2"/ fill="none">
</svg>