<svg
  xmlns="http://www.w3.org/2000/svg"
  width="24"
  height="24"
  viewBox="0 0 24 24"
  fill="none"
  stroke="currentColor"
  stroke-width="2"
  stroke-linecap="round"
  stroke-linejoin="round"
>
  <path d="M5.4961 4.31356L10.8837 2.36804C11.5422 2.13025 12.2631 2.13025 12.9216 2.36804L18.3868 4.34159C19.4967 4.74238 20.2685 5.7566 20.359 6.93316L20.586 9.88366C20.9189 14.2123 18.6748 18.3318 14.8575 20.3995L13.3689 21.2059C12.4571 21.6998 11.3549 21.6878 10.454 21.1741L8.93337 20.3071C5.36929 18.2749 3.23232 14.4282 3.39 10.3285L3.51725 7.01992C3.56421 5.799 4.34691 4.72854 5.4961 4.31356Z" stroke="#111111" stroke-width="2" opacity="0.28"/ fill="none">
  <path d="M8.5 15H8.501M12.5 8C11.8625 9.61646 11.1609 10.345 9.5 11C11.1609 11.655 11.8625 12.3835 12.5 14C13.1375 12.3835 13.8391 11.655 15.5 11C13.8391 10.345 13.1375 9.61646 12.5 8Z" stroke="currentColor" stroke-width="2"/ fill="none">
</svg>