<svg width="24" height="24" viewBox="0 0 24 24" fill="none" xmlns="http://www.w3.org/2000/svg">
<path opacity="0.28" d="M2.8501 12.0001C2.8501 17.0535 6.94669 21.1501 12.0001 21.1501C17.0535 21.1501 21.1501 17.0535 21.1501 12.0001C21.1501 6.94669 17.0535 2.8501 12.0001 2.8501C6.94669 2.8501 2.8501 6.94669 2.8501 12.0001Z" fill="#111111"/>
<path d="M15.0495 15.8756C13.7989 15.3131 12.4117 15.0001 10.9515 15.0001C9.92416 15.0001 8.93299 15.155 8.00009 15.4428M16.2462 13.1237C14.6289 12.4016 12.8371 12.0001 10.9515 12.0001C9.75652 12.0001 8.59919 12.1614 7.50009 12.4633M17.5001 10.3973C15.5013 9.49953 13.2847 9.00012 10.9515 9.00012C9.58779 9.00012 8.26393 9.17073 7.00009 9.49177M12.0001 21.1501C6.94669 21.1501 2.8501 17.0535 2.8501 12.0001C2.8501 6.94669 6.94669 2.8501 12.0001 2.8501C17.0535 2.8501 21.1501 6.94669 21.1501 12.0001C21.1501 17.0535 17.0535 21.1501 12.0001 21.1501Z" stroke="#111111" stroke-width="2" stroke-linecap="round" stroke-linejoin="round"/>
</svg>
