<svg
  xmlns="http://www.w3.org/2000/svg"
  width="24"
  height="24"
  viewBox="0 0 24 24"
  fill="none"
  stroke="currentColor"
  stroke-width="2"
  stroke-linecap="round"
  stroke-linejoin="round"
>
  <path d="M7 2.5H17C17.8701 2.5 18.7066 2.82412 19.3486 3.40527L19.4746 3.52539C20.131 4.18177 20.5 5.07174 20.5 6V18C20.5 18.9283 20.131 19.8182 19.4746 20.4746C18.8182 21.131 17.9283 21.5 17 21.5H7C6.12992 21.5 5.29336 21.1759 4.65137 20.5947L4.52539 20.4746C3.86901 19.8182 3.5 18.9283 3.5 18V6L3.50391 5.82617C3.54401 5.01902 3.86293 4.25049 4.40527 3.65137L4.52539 3.52539C5.18177 2.86901 6.07174 2.5 7 2.5Z" fill="currentColor" stroke="currentColor" opacity="0.28"/>
  <path d="M7 6H13M7 10H10M15.667 16H12.333C11.597 16 11 16.597 11 17.333C11 17.702 11.299 18 11.667 18H16.333C16.4206 18 16.5073 17.9827 16.5882 17.9492C16.6692 17.9157 16.7427 17.8666 16.8046 17.8046C16.8666 17.7427 16.9157 17.6692 16.9492 17.5882C16.9827 17.5073 17 17.4206 17 17.333C17 16.597 16.403 16 15.667 16ZM15 12C15 12.2652 14.8946 12.5196 14.7071 12.7071C14.5196 12.8946 14.2652 13 14 13C13.7348 13 13.4804 12.8946 13.2929 12.7071C13.1054 12.5196 13 12.2652 13 12C13 11.7348 13.1054 11.4804 13.2929 11.2929C13.4804 11.1054 13.7348 11 14 11C14.2652 11 14.5196 11.1054 14.7071 11.2929C14.8946 11.4804 15 11.7348 15 12Z" stroke="currentColor" stroke-width="2"/>
</svg>