<svg
  xmlns="http://www.w3.org/2000/svg"
  width="24"
  height="24"
  viewBox="0 0 24 24"
  fill="none"
  stroke="currentColor"
  stroke-width="2"
  stroke-linecap="round"
  stroke-linejoin="round"
>
  <path d="M11.2 2H11.157C9.933 2 8.954 2 8.163 2.065C7.351 2.131 6.649 2.27 6.003 2.599C4.96789 3.12634 4.12634 3.96789 3.599 5.003C3.27 5.649 3.131 6.351 3.065 7.163C3 7.954 3 8.933 3 10.157V13.843C3 15.067 3 16.046 3.065 16.837C3.131 17.649 3.27 18.351 3.599 18.997C4.12651 20.0317 4.96804 20.8729 6.003 21.4C6.649 21.729 7.351 21.868 8.163 21.934C8.954 21.999 9.933 21.999 11.157 21.999H12.843C14.067 21.999 15.046 21.999 15.837 21.934C16.649 21.868 17.351 21.729 17.997 21.4C19.0321 20.8727 19.8737 20.0311 20.401 18.996C20.73 18.35 20.869 17.648 20.935 16.836C21 16.045 21 15.066 21 13.842V10.157C21 8.933 21 7.954 20.935 7.163C20.869 6.351 20.73 5.649 20.401 5.003C19.8737 3.96789 19.0321 3.12634 17.997 2.599C17.351 2.27 16.649 2.131 15.837 2.065C15.046 2 14.067 2 12.843 2H11.2Z" fill="#111111" opacity="0.28" fill-rule="evenodd" clip-rule="evenodd"/ stroke="none">
  <path d="M5.0498 16.576L5.0578 16.674C5.1138 17.363 5.2198 17.772 5.3818 18.089C5.7174 18.7478 6.253 19.2834 6.9118 19.619C7.2278 19.78 7.6368 19.886 8.3258 19.942C9.0258 19.999 9.9238 20 11.1998 20H12.7998C14.0768 20 14.9738 20 15.6738 19.942C16.3628 19.886 16.7718 19.78 17.0888 19.619C17.7476 19.2834 18.2832 18.7478 18.6188 18.089C18.7798 17.772 18.8858 17.363 18.9418 16.674L18.9518 16.552C18.5431 16.0651 18.0325 15.6738 17.4561 15.4056C16.8797 15.1375 16.2515 14.999 15.6158 15H8.3828C7.74605 15.0036 7.11779 15.1465 6.54216 15.4188C5.96653 15.691 5.4565 16.086 5.0498 16.576ZM11.9998 6C10.9389 6 9.92152 6.42143 9.17138 7.17157C8.42123 7.92172 7.9998 8.93913 7.9998 10C7.9998 11.0609 8.42123 12.0783 9.17138 12.8284C9.92152 13.5786 10.9389 14 11.9998 14C13.0607 14 14.0781 13.5786 14.8282 12.8284C15.5784 12.0783 15.9998 11.0609 15.9998 10C15.9998 8.93913 15.5784 7.92172 14.8282 7.17157C14.0781 6.42143 13.0607 6 11.9998 6Z" fill="currentColor" fill-rule="evenodd" clip-rule="evenodd"/ stroke="none">
</svg>