<svg width="24" height="24" viewBox="0 0 24 24" fill="none" xmlns="http://www.w3.org/2000/svg">
<path opacity="0.28" d="M12.0001 1.84961C6.40633 1.84961 1.8501 6.39279 1.8501 11.9996C1.8501 17.6023 6.40626 22.1496 12.0001 22.1496C17.6058 22.1496 22.1501 17.6009 22.1501 11.9996C22.1501 6.39392 17.6058 1.84961 12.0001 1.84961Z" fill="#111111"/>
<path d="M21.1418 12.3901C17.3391 13.8819 13.1086 14.2743 9.0596 13.8512M9.0596 13.8512C6.78735 13.6138 4.68379 13.1063 2.85815 12.3901M9.0596 13.8512C9.23111 16.4977 9.76585 18.9476 10.5729 21.0394M9.0596 13.8512C8.82175 10.1808 9.24471 6.40314 10.5729 2.96069" stroke="#111111" stroke-width="2" stroke-linecap="round" stroke-linejoin="round"/>
</svg>
