<svg
  xmlns="http://www.w3.org/2000/svg"
  width="24"
  height="24"
  viewBox="0 0 24 24"
  fill="none"
  stroke="currentColor"
  stroke-width="2"
  stroke-linecap="round"
  stroke-linejoin="round"
>
  <path d="M22.2103 8.97098C22.3532 8.43752 22.0366 7.88918 21.5032 7.74624C20.9697 7.60329 20.4214 7.91988 20.2784 8.45334L18.9843 13.283C18.8414 13.8164 19.158 14.3648 19.6914 14.5077C20.2249 14.6507 20.7732 14.3341 20.9162 13.8006L22.2103 8.97098Z" fill="currentColor"/>
  <path d="M4.32283 4.93183C4.60872 3.8649 5.70539 3.23174 6.77232 3.51762L17.6767 6.43945C18.2102 6.58239 18.5268 7.13072 18.3838 7.66419L17.061 12.6011C16.918 13.1346 16.3697 13.4512 15.8362 13.3083L4.93183 10.3864C3.8649 10.1005 3.23174 9.00387 3.51762 7.93693L4.32283 4.93183Z" stroke="currentColor" stroke-width="2" opacity="0.28"/>
  <path d="M8.55786 12.3933L10.4953 12.9124L9.13957 16.7734C8.89792 17.4616 8.30077 17.9637 7.5813 18.0836L3.00015 18.8471V21C3.00015 21.5523 2.55243 22 2.00015 22C1.44786 22 1.00015 21.5523 1.00015 21V18.016C0.99995 18.0045 0.999951 17.993 1.00015 17.9815V15C1.00015 14.4477 1.44786 14 2.00015 14C2.55243 14 3.00015 14.4477 3.00015 15V16.8195L7.25251 16.1108L8.55786 12.3933Z" fill="currentColor"/>
</svg>