<svg
  xmlns="http://www.w3.org/2000/svg"
  width="24"
  height="24"
  viewBox="0 0 24 24"
  fill="none"
  stroke="currentColor"
  stroke-width="2"
  stroke-linecap="round"
  stroke-linejoin="round"
>
  <path d="M13 4C13 3.44772 12.5522 3 12 3C11.4477 3 11 3.44772 11 4V6.04938C11.3289 6.01672 11.6625 6 12 6C12.3375 6 12.6711 6.01672 13 6.04938V4Z" fill="currentColor"/>
  <path d="M15 16L9 16M3 16C3 11.0294 7.02944 7 12 7C16.9706 7 21 11.0294 21 16H3Z" stroke="currentColor" stroke-width="2" opacity="0.28"/>
  <path d="M8.12598 17C8.57002 18.7252 10.1361 20 12 20C13.8638 20 15.4299 18.7252 15.8739 17H13.7324C13.3866 17.5978 12.7402 18 12 18C11.2597 18 10.6133 17.5978 10.2675 17L8.12598 17Z" fill="currentColor"/>
</svg>