<svg width="24" height="24" viewBox="0 0 24 24" fill="none" xmlns="http://www.w3.org/2000/svg">
<path d="M21.8899 6.31972C22.0568 5.66067 21.687 4.97887 21.4769 4.36972C21.35 4.00204 21.0851 3.69806 20.7383 3.52193C20.3914 3.34581 19.9897 3.31131 19.6179 3.42572L14.7159 4.93372C14.573 4.97757 14.4244 4.99982 14.2749 4.99972H9.44893C9.29279 4.99981 9.13758 4.97552 8.98893 4.92772L4.38993 3.44972C4.0159 3.32952 3.60964 3.36086 3.25846 3.53701C2.90729 3.71315 2.63924 4.02005 2.51193 4.39172C2.30616 4.99391 1.94614 5.66518 2.10893 6.31572L3.24793 10.8577C3.4327 11.5938 3.40426 12.3672 3.16593 13.0877L2.31493 15.6607C2.21785 15.954 2.21366 16.27 2.30293 16.5657L3.01693 18.9317C3.12943 19.3046 3.38255 19.6191 3.72277 19.8087C4.06299 19.9983 4.46363 20.0482 4.83993 19.9477L7.19993 19.3167C7.41369 19.2597 7.63741 19.2506 7.85508 19.2902C8.07274 19.3298 8.27895 19.4171 8.45893 19.5457L10.1039 20.7207C10.3579 20.9017 10.6639 20.9997 10.9759 20.9997H13.0189C13.3308 20.9997 13.6349 20.9026 13.8889 20.7217L15.5439 19.5437C15.7238 19.4157 15.9298 19.329 16.1471 19.2897C16.3643 19.2505 16.5876 19.2597 16.8009 19.3167L19.1649 19.9477C19.5407 20.048 19.9407 19.9985 20.2807 19.8095C20.6206 19.6205 20.8738 19.3068 20.9869 18.9347L21.7049 16.5697C21.7954 16.2717 21.7908 15.953 21.6919 15.6577L20.8349 13.0947C20.5925 12.3696 20.563 11.5901 20.7499 10.8487L21.8919 6.31872L21.8899 6.31972Z" stroke="#111111" stroke-width="2" stroke-linecap="round" stroke-linejoin="round"/>
<path d="M9.49993 11.9997C9.49993 12.5444 9.0446 12.9997 8.49993 12.9997C7.95527 12.9997 7.49993 12.5444 7.49993 11.9997C7.49993 11.4551 7.95527 10.9997 8.49993 10.9997C9.0446 10.9997 9.49993 11.4551 9.49993 11.9997ZM16.4999 11.9997C16.4999 12.5444 16.0446 12.9997 15.4999 12.9997C14.9553 12.9997 14.4999 12.5444 14.4999 11.9997C14.4999 11.4551 14.9553 10.9997 15.4999 10.9997C16.0446 10.9997 16.4999 11.4551 16.4999 11.9997Z" stroke="#111111" stroke-width="2" stroke-linecap="round" stroke-linejoin="round"/>
</svg>
