<svg width="24" height="24" viewBox="0 0 24 24" fill="none" xmlns="http://www.w3.org/2000/svg">
<path d="M11.9989 7.64502L13.528 3.74379C13.8036 3.10087 14.4869 2.73374 15.1751 2.85886L18.6651 3.49342M11.9989 7.64502C9.41842 7.64502 7.09156 8.48972 5.4505 9.84302M11.9989 7.64502C14.5805 7.64502 16.9081 8.49038 18.5493 9.84461M15.5888 17.0425C14.8717 17.7246 13.5315 18.1836 11.9965 18.1836C10.4615 18.1836 9.12127 17.7246 8.40422 17.0425M15.4989 13.145H15.5089M8.49895 13.145H8.50895M18.6651 3.49342C18.6495 3.57725 18.6413 3.6637 18.6413 3.75208C18.6413 4.52448 19.2674 5.15063 20.0398 5.15063C20.8122 5.15063 21.4384 4.52448 21.4384 3.75208C21.4384 2.97967 20.8122 2.35352 20.0398 2.35352C19.3558 2.35352 18.7865 2.84459 18.6651 3.49342ZM5.4505 9.84302C5.23653 8.87173 4.37067 8.14502 3.33508 8.14502C2.13876 8.14502 1.16895 9.11483 1.16895 10.3112C1.16895 11.5075 2.13876 12.4773 3.33508 12.4773C3.37021 12.4773 3.40513 12.4765 3.43985 12.4748M5.4505 9.84302C4.54996 10.5856 3.85594 11.4814 3.43985 12.4748M3.43985 12.4748C3.15366 13.1581 2.99895 13.8875 2.99895 14.645C2.99895 18.511 7.02838 21.645 11.9989 21.645C16.9695 21.645 20.9989 18.511 20.9989 14.645C20.9989 13.8874 20.8442 13.158 20.558 12.4747M18.5493 9.84461C18.7627 8.87253 19.6289 8.14502 20.6651 8.14502C21.8614 8.14502 22.8312 9.11483 22.8312 10.3112C22.8312 11.5075 21.8614 12.4773 20.6651 12.4773C20.6292 12.4773 20.5935 12.4764 20.558 12.4747M18.5493 9.84461C19.4489 10.5869 20.1422 11.4821 20.558 12.4747M8.99895 13.145C8.99895 13.4212 8.77509 13.645 8.49895 13.645C8.2228 13.645 7.99895 13.4212 7.99895 13.145C7.99895 12.8689 8.2228 12.645 8.49895 12.645C8.77509 12.645 8.99895 12.8689 8.99895 13.145ZM15.9989 13.145C15.9989 13.4212 15.7751 13.645 15.4989 13.645C15.2228 13.645 14.9989 13.4212 14.9989 13.145C14.9989 12.8689 15.2228 12.645 15.4989 12.645C15.7751 12.645 15.9989 12.8689 15.9989 13.145Z" stroke="#111111" stroke-width="2" stroke-linecap="round" stroke-linejoin="round"/>
</svg>
