<svg
  xmlns="http://www.w3.org/2000/svg"
  width="24"
  height="24"
  viewBox="0 0 24 24"
  fill="none"
  stroke="currentColor"
  stroke-width="2"
  stroke-linecap="round"
  stroke-linejoin="round"
>
  <path d="M13.182 14.0171C12.8085 13.857 12.4064 13.7744 12 13.7744C11.5937 13.7744 11.1915 13.857 10.818 14.0171C10.29 14.2431 9.90505 14.6521 9.57405 15.0871C9.25005 15.5141 8.89205 16.0871 8.46405 16.7721L8.43805 16.8121L7.68205 18.0221L7.65905 18.0591C7.42905 18.4271 7.22105 18.7601 7.07905 19.0431C6.93505 19.3271 6.77505 19.7141 6.81105 20.1611C6.8338 20.445 6.91695 20.7208 7.05491 20.97C7.19288 21.2192 7.38249 21.4361 7.61105 21.6061C7.97105 21.8741 8.38504 21.9431 8.70204 21.9721C9.01705 22.0011 9.41005 22.0011 9.84405 22.0011H14.156C14.59 22.0011 14.983 22.0011 15.298 21.9721C15.615 21.9421 16.028 21.8741 16.388 21.6061C16.6168 21.4362 16.8066 21.2194 16.9447 20.9702C17.0829 20.7209 17.1662 20.4451 17.189 20.1611C17.225 19.7141 17.065 19.3271 16.921 19.0431C16.779 18.7601 16.571 18.4271 16.341 18.0591L16.318 18.0231L15.562 16.8131L15.536 16.7731C15.108 16.0871 14.75 15.5141 14.426 15.0871C14.095 14.6521 13.71 14.2431 13.182 14.0171Z" fill="currentColor" fill-rule="evenodd" clip-rule="evenodd"/>
  <path d="M8 14C7.44287 13.2572 7.1036 12.3738 7.02021 11.449C6.93682 10.5242 7.1126 9.59446 7.52787 8.76393C7.94313 7.9334 8.58147 7.23492 9.37135 6.74675C10.1612 6.25857 11.0714 6 12 6C12.9286 6 13.8388 6.25857 14.6287 6.74675C15.4185 7.23492 16.0569 7.9334 16.4721 8.76393C16.8874 9.59446 17.0632 10.5242 16.9798 11.449C16.8964 12.3738 16.5571 13.2572 16 14M18.2326 17.4927C19.2323 16.5331 20.0022 15.3502 20.4739 14.0321C21.1244 12.2142 21.173 10.2352 20.6125 8.38751C20.052 6.53982 18.9122 4.92136 17.3613 3.77116C15.8105 2.62095 13.9308 2 12 2C10.0692 2 8.18953 2.62095 6.63867 3.77116C5.08782 4.92136 3.94799 6.53982 3.38751 8.38751C2.82704 10.2352 2.87564 12.2142 3.52614 14.0321C3.9978 15.3503 4.76775 16.5331 5.76744 17.4927M12 12C11.4477 12 11 11.5523 11 11C11 10.4477 11.4477 10 12 10C12.5523 10 13 10.4477 13 11C13 11.5523 12.5523 12 12 12Z" stroke="currentColor" stroke-width="2" opacity="0.28"/>
</svg>