<svg
  xmlns="http://www.w3.org/2000/svg"
  width="24"
  height="24"
  viewBox="0 0 24 24"
  fill="none"
  stroke="currentColor"
  stroke-width="2"
  stroke-linecap="round"
  stroke-linejoin="round"
>
  <g opacity="0.28"><path d="M14.0355 4.99998C14.9373 4.99997 15.6647 4.99997 16.2567 5.04036C16.8654 5.08189 17.4037 5.16946 17.9134 5.38058C17.9617 5.40059 18.0096 5.42134 18.0571 5.44279C18.3565 5.57792 18.5704 5.85143 18.6294 6.17453C18.6885 6.49762 18.5851 6.8291 18.3528 7.06134L6.73267 18.6815C6.53307 18.8811 6.25841 18.987 5.97647 18.9732C5.2685 18.9384 4.65785 18.856 4.08655 18.6194C2.86141 18.1119 1.88806 17.1385 1.38058 15.9134C1.16947 15.4037 1.08189 14.8654 1.04036 14.2567C0.989157 13.5062 0.999979 12.7516 0.999979 12C0.999979 11.2483 0.989157 10.4937 1.04036 9.74327C1.08189 9.13453 1.16946 8.59626 1.38058 8.08657C1.88805 6.86142 2.86142 5.88805 4.08657 5.38058C4.59626 5.16946 5.13454 5.08189 5.74328 5.04036C6.49372 4.98916 7.24832 4.99998 8 4.99998H14.0355Z" fill="currentColor"/><path d="M20.2979 8.75392C20.4496 8.80964 20.5821 8.89979 20.6875 9.01392C20.7948 9.02172 20.8997 9.03375 21 9.05224C21.9178 9.2214 22.6752 9.95857 22.9148 10.853C23.0086 11.2029 23 11.5994 23 12C23 12.4006 23.0086 12.797 22.9148 13.147C22.6752 14.0414 21.9178 14.7786 21 14.9477C20.961 14.9549 20.9213 14.9611 20.881 14.9665C20.8265 15.298 20.7447 15.6107 20.6193 15.9134C20.1119 17.1385 19.1385 18.1119 17.9134 18.6194C17.4037 18.8305 16.8654 18.9181 16.2567 18.9596C15.6647 19 14.9373 19 14.0355 19H11.6457C11.2412 19 10.8766 18.7563 10.7218 18.3827C10.567 18.009 10.6525 17.5789 10.9385 17.2929L19.2459 8.98546C19.5215 8.70988 19.9321 8.61951 20.2979 8.75392Z" fill="currentColor"/></g>
  <path d="M21 3L3 21" stroke="currentColor" stroke-width="2"/>
</svg>