<svg
  xmlns="http://www.w3.org/2000/svg"
  width="24"
  height="24"
  viewBox="0 0 24 24"
  fill="none"
  stroke="currentColor"
  stroke-width="2"
  stroke-linecap="round"
  stroke-linejoin="round"
>
  <path d="M4.36392 1C3.97485 0.99998 3.62468 0.999961 3.33338 1.02376C3.02141 1.04925 2.68993 1.10694 2.36503 1.27249C1.89462 1.51217 1.51217 1.89462 1.27249 2.36503C1.10694 2.68993 1.04925 3.02141 1.02376 3.33337C0.999961 3.62468 0.99998 3.97479 1 4.36385L1 13C1 13.5523 1.44772 14 2 14H22C22.5523 14 23 13.5523 23 13V4.3639C23 3.97482 23 3.62468 22.9762 3.33337C22.9508 3.02141 22.8931 2.68993 22.7275 2.36503C22.4878 1.89462 22.1054 1.51217 21.635 1.27249C21.3101 1.10694 20.9786 1.04925 20.6666 1.02376C20.3753 0.999961 20.0252 0.99998 19.6362 1H4.36392Z" fill="currentColor"/>
  <path d="M9 22L9.5 17M9 22H15M9 22H8M9.5 17H4.4C3.55992 17 3.13988 17 2.81901 16.8365C2.53677 16.6927 2.3073 16.4632 2.16349 16.181C2 15.8601 2 15.4401 2 14.6V13H22V14.6C22 15.4401 22 15.8601 21.8365 16.181C21.6927 16.4632 21.4632 16.6927 21.181 16.8365C20.8601 17 20.4401 17 19.6 17H14.5M9.5 17H14.5M14.5 17L15 22M15 22H16" stroke="currentColor" stroke-width="2" opacity="0.28"/>
</svg>