<svg
  xmlns="http://www.w3.org/2000/svg"
  width="24"
  height="24"
  viewBox="0 0 24 24"
  fill="none"
  stroke="currentColor"
  stroke-width="2"
  stroke-linecap="round"
  stroke-linejoin="round"
>
  <path d="M14.0001 10H14.0101M18.0001 10H18.0101M8.18187 22H15.8184C16.8985 22 17.4386 22 17.8016 21.7751C18.1196 21.578 18.3525 21.2693 18.4546 20.9094C18.5711 20.4985 18.4228 19.9793 18.126 18.9407L17.6632 17.3209C17.4255 16.489 17.3067 16.073 17.0641 15.7642C16.8499 15.4917 16.5686 15.2795 16.2477 15.1485C15.8842 15 15.4516 15 14.5864 15H9.41388C8.54865 15 8.11604 15 7.75251 15.1485C7.43164 15.2795 7.15034 15.4917 6.93618 15.7642C6.69355 16.073 6.5747 16.489 6.337 17.3209L5.87421 18.9407C5.57747 19.9793 5.42911 20.4985 5.54566 20.9094C5.64776 21.2693 5.88065 21.578 6.19864 21.7751C6.56166 22 7.10173 22 8.18187 22Z" stroke="currentColor" stroke-width="2"/>
  <path d="M9.3597 1C8.87911 0.999985 8.4621 0.999971 8.11632 1.027C7.74953 1.05567 7.38529 1.1189 7.02849 1.28746C6.49255 1.54065 6.04362 1.94692 5.73837 2.455C5.53514 2.79326 5.43598 3.1494 5.37095 3.51152C5.30965 3.85291 5.26818 4.26781 5.22037 4.74603L5.18365 5.11328C4.65782 5.18779 4.17912 5.31615 3.73005 5.54497C2.78924 6.02434 2.02434 6.78924 1.54497 7.73005C1.24318 8.32234 1.11737 8.96253 1.05782 9.69138C0.999984 10.3993 0.999991 11.2734 1 12.3572V13.2413C0.999988 14.0463 0.999978 14.7106 1.0442 15.2518C1.09012 15.8139 1.18868 16.3306 1.43598 16.816C1.81947 17.5686 2.43139 18.1805 3.18404 18.564C3.98713 18.9732 4.94252 18.9939 6.13873 18.9991C6.58683 19.0011 6.98153 18.7047 7.10464 18.2738L7.29841 17.5956C7.56071 16.6776 7.63054 16.4989 7.72233 16.3821C7.82941 16.2459 7.97007 16.1398 8.1305 16.0742C8.26803 16.0181 8.45901 16 9.41377 16H14.5862C15.541 16 15.732 16.0181 15.8695 16.0742C16.0299 16.1398 16.1706 16.2459 16.2777 16.3821C16.3695 16.4989 16.4393 16.6776 16.7016 17.5956L16.8954 18.2738C17.0185 18.7047 17.4132 19.0011 17.8613 18.9991C19.0575 18.9939 20.0129 18.9732 20.816 18.564C21.5686 18.1805 22.1805 17.5686 22.564 16.816C22.8113 16.3306 22.9099 15.8139 22.9558 15.2518C23 14.7106 23 14.0463 23 13.2413V12.3572C23 11.2734 23 10.3993 22.9422 9.69138C22.8826 8.96253 22.7568 8.32234 22.455 7.73005C21.9757 6.78924 21.2108 6.02434 20.27 5.54497C19.8209 5.31614 19.3421 5.18777 18.8163 5.11327L18.7796 4.74601C18.7318 4.26784 18.6903 3.85288 18.629 3.51152C18.5639 3.1494 18.4648 2.79326 18.2616 2.455C17.9563 1.94692 17.5074 1.54065 16.9714 1.28746C16.6146 1.1189 16.2504 1.05567 15.8836 1.027C15.5378 0.999971 15.1209 0.999985 14.6403 1H9.3597ZM16.7953 5.00325L16.7931 4.98109C16.7406 4.45653 16.7063 4.12021 16.6605 3.865C16.6168 3.62197 16.575 3.53132 16.5472 3.485C16.4454 3.31564 16.2958 3.18022 16.1171 3.09582C16.0683 3.07274 15.9739 3.04016 15.7278 3.02092C15.4693 3.00071 15.1312 3 14.604 3H9.39592C8.86875 3 8.53067 3.00071 8.27217 3.02092C8.026 3.04016 7.93164 3.07274 7.88279 3.09582C7.70414 3.18022 7.5545 3.31564 7.45275 3.485C7.42492 3.53132 7.38311 3.62197 7.33947 3.865C7.29364 4.12021 7.2593 4.45653 7.20684 4.98109L7.20463 5.00325C7.54118 5.0002 7.9041 5.00001 8.29535 5C8.32143 5 8.34764 5 8.37398 5H15.6259C15.9842 5 16.3192 5 16.6322 5.002C16.6872 5.00235 16.7416 5.00276 16.7953 5.00325Z" fill="currentColor" opacity="0.28" fill-rule="evenodd" clip-rule="evenodd"/>
</svg>