<svg
  xmlns="http://www.w3.org/2000/svg"
  width="24"
  height="24"
  viewBox="0 0 24 24"
  fill="none"
  stroke="currentColor"
  stroke-width="2"
  stroke-linecap="round"
  stroke-linejoin="round"
>
  <path d="M12 20.875V17M12 20.875C10.25 20.875 8.5 21.25 7 22M12 20.875C13.75 20.875 15.5 21.25 17 22" stroke="currentColor" stroke-width="2" opacity="0.28"/>
  <path d="M4.36397 1H16.17C16.06 1.313 15.999 1.65 15.999 2C15.2033 2 14.4403 2.31607 13.8777 2.87868C13.315 3.44129 12.999 4.20435 12.999 5C12.999 5.79565 13.315 6.55871 13.8777 7.12132C14.4403 7.68393 15.2033 8 15.999 8C15.999 8.79565 16.315 9.55871 16.8777 10.1213C17.4403 10.6839 18.2033 11 18.999 11C19.7946 11 20.5577 10.6839 21.1203 10.1213C21.6829 9.55871 21.999 8.79565 21.999 8C22.349 8 22.686 7.94 22.999 7.83V14.636C22.999 15.026 22.999 15.376 22.975 15.666C22.9575 16.0023 22.8732 16.3317 22.727 16.635C22.4871 17.1053 22.1045 17.4875 21.634 17.727C21.3311 17.8738 21.002 17.9587 20.666 17.977C20.374 18 20.024 18 19.636 18H4.36297C3.97297 18 3.62297 18 3.33297 17.976C2.99671 17.9585 2.6673 17.8742 2.36397 17.728C1.89333 17.4883 1.5107 17.1056 1.27097 16.635C1.12498 16.332 1.04068 16.0029 1.02297 15.667C1.00223 15.3241 0.994554 14.9805 0.999974 14.637V4.363C0.999974 3.973 0.999974 3.623 1.02397 3.333C1.04897 3.02 1.10697 2.689 1.27197 2.364C1.5117 1.89335 1.89433 1.51073 2.36497 1.271C2.68997 1.106 3.02097 1.048 3.33297 1.023C3.62497 1 3.97597 1 4.36397 1ZM21.952 1.465C22.177 1.625 22.374 1.823 22.535 2.048C22.3584 2.01613 22.1794 2.00007 22 2C22.0002 1.82062 21.9835 1.64158 21.952 1.465ZM20 2C20 1.73478 19.8946 1.48043 19.7071 1.29289C19.5195 1.10536 19.2652 1 19 1C18.7348 1 18.4804 1.10536 18.2929 1.29289C18.1053 1.48043 18 1.73478 18 2V4H16C15.7348 4 15.4804 4.10536 15.2929 4.29289C15.1053 4.48043 15 4.73478 15 5C15 5.26522 15.1053 5.51957 15.2929 5.70711C15.4804 5.89464 15.7348 6 16 6H18V8C18 8.26522 18.1053 8.51957 18.2929 8.70711C18.4804 8.89464 18.7348 9 19 9C19.2652 9 19.5195 8.89464 19.7071 8.70711C19.8946 8.51957 20 8.26522 20 8V6H22C22.2652 6 22.5195 5.89464 22.7071 5.70711C22.8946 5.51957 23 5.26522 23 5C23 4.73478 22.8946 4.48043 22.7071 4.29289C22.5195 4.10536 22.2652 4 22 4H20V2Z" fill="currentColor" fill-rule="evenodd" clip-rule="evenodd"/>
</svg>