<svg
  xmlns="http://www.w3.org/2000/svg"
  width="24"
  height="24"
  viewBox="0 0 24 24"
  fill="none"
  stroke="currentColor"
  stroke-width="2"
  stroke-linecap="round"
  stroke-linejoin="round"
>
  <path d="M13 4C15.7614 4 18 6.23857 18 9V15C18 17.7614 15.7614 20 13 20H6C3.23857 20 1 17.7614 1 15V9C1 6.23858 3.23858 4 6 4H13ZM12.707 8.29297C12.3411 7.92702 11.7619 7.90367 11.3691 8.22363L11.293 8.29297L7.00195 12.5811C7.00678 12.1109 7.03374 11.6409 7.08594 11.1729L7.14062 10.7451C7.21873 10.1984 6.83873 9.69139 6.29199 9.61328C5.77956 9.54018 5.30272 9.86953 5.18066 10.3613L5.16113 10.4619C4.97504 11.7645 4.94998 13.0844 5.08691 14.3916L5.10938 14.54C5.17543 14.8803 5.34204 15.1848 5.57715 15.4199C5.84581 15.6885 6.20489 15.8672 6.60449 15.9092L7.0957 15.9531C8.07827 16.0256 9.06589 16.0078 10.0459 15.8984L10.5352 15.8359C11.0817 15.7577 11.4619 15.2507 11.3838 14.7041C11.3104 14.1916 10.86 13.8259 10.3535 13.8467L10.252 13.8564C9.64329 13.9434 9.03026 13.9878 8.41699 13.9941L12.707 9.70703L12.7754 9.63184C13.0962 9.23915 13.0732 8.6593 12.707 8.29297Z" fill="currentColor" fill-rule="evenodd" clip-rule="evenodd"/>
  <path d="M17.7135 15.3994C17.2779 15.0335 17.0196 14.5002 17.001 13.9337L17.0012 10.0586C17.0219 9.49493 17.2799 8.96476 17.7135 8.60051L18.7135 7.76051C20.0147 6.6675 21.9999 7.59257 21.9999 9.29192V14.708C21.9999 16.4074 20.0147 17.3324 18.7135 16.2394L17.7135 15.3994Z" stroke="currentColor" stroke-width="2" opacity="0.28"/>
</svg>