<svg
  xmlns="http://www.w3.org/2000/svg"
  width="24"
  height="24"
  viewBox="0 0 24 24"
  fill="none"
  stroke="currentColor"
  stroke-width="2"
  stroke-linecap="round"
  stroke-linejoin="round"
>
  <path d="M22 9.2707V9.2297C22 8.4247 22 7.7597 21.956 7.2197C21.91 6.6567 21.811 6.1397 21.564 5.6547C21.1805 4.90209 20.5686 4.29019 19.816 3.9067C19.331 3.6597 18.814 3.5607 18.252 3.5147C17.711 3.4707 17.046 3.4707 16.242 3.4707H7.758C6.953 3.4707 6.288 3.4707 5.748 3.5147C5.185 3.5607 4.668 3.6597 4.183 3.9067C3.43039 4.29019 2.81849 4.90209 2.435 5.6547C2.188 6.1397 2.089 6.6567 2.043 7.2187C2 7.7597 2 8.4247 2 9.2297V15.7127C2 16.5177 2 17.1827 2.044 17.7227C2.09 18.2857 2.189 18.8027 2.436 19.2877C2.81949 20.0403 3.43139 20.6522 4.184 21.0357C4.669 21.2827 5.186 21.3817 5.748 21.4277C6.289 21.4717 6.954 21.4717 7.758 21.4717H16.241C17.046 21.4717 17.711 21.4717 18.251 21.4277C18.814 21.3817 19.331 21.2827 19.816 21.0357C20.5686 20.6522 21.1805 20.0403 21.564 19.2877C21.811 18.8027 21.91 18.2857 21.956 17.7237C22 17.1827 22 16.5177 22 15.7137V9.2707Z" fill="currentColor" opacity="0.28" fill-rule="evenodd" clip-rule="evenodd"/>
  <path d="M3 10.4707H21" stroke="currentColor" stroke-width="2"/>
  <path d="M6 6.4707H6.01M9 6.4707H9.01M12 6.4707H12.01" stroke="currentColor" stroke-width="2"/>
</svg>