<svg width="24" height="24" viewBox="0 0 24 24" fill="none" xmlns="http://www.w3.org/2000/svg">
<path opacity="0.28" d="M12 2C6.47715 2 2 6.47715 2 12C2 17.5228 6.47715 22 12 22C17.5228 22 22 17.5228 22 12C22 6.47715 17.5228 2 12 2Z" stroke="#111111" stroke-width="2" stroke-linecap="round" stroke-linejoin="round"/>
<path d="M19.3859 17.1441C18.5974 15.8494 17.1343 15 15.4999 15H8.49992C6.86551 15 5.40249 15.8494 4.61395 17.1441C5.03304 17.7447 5.52353 18.2918 6.07311 18.7731C6.33759 17.7814 7.29346 17 8.49992 17H15.4999C16.7064 17 17.6623 17.7815 17.9267 18.7731C18.4763 18.2918 18.9668 17.7447 19.3859 17.1441Z" fill="#111111"/>
<path d="M4.64508 20.1797C4.52835 20.0747 4.41388 19.9672 4.30176 19.8574L4.3058 19.8613C4.41663 19.9698 4.52975 20.076 4.64508 20.1797Z" fill="#111111"/>
<path fill-rule="evenodd" clip-rule="evenodd" d="M11.9999 6C9.79078 6 7.99992 7.79086 7.99992 10C7.99992 12.2091 9.79078 14 11.9999 14C14.2091 14 15.9999 12.2091 15.9999 10C15.9999 7.79086 14.2091 6 11.9999 6ZM9.99992 10C9.99992 8.89543 10.8953 8 11.9999 8C13.1045 8 13.9999 8.89543 13.9999 10C13.9999 11.1046 13.1045 12 11.9999 12C10.8953 12 9.99992 11.1046 9.99992 10Z" fill="#111111"/>
</svg>
