<svg width="24" height="24" viewBox="0 0 24 24" fill="none" xmlns="http://www.w3.org/2000/svg">
<path opacity="0.28" d="M4 3C2.34315 3 1 4.34315 1 6V12C1 12.5523 1.44772 13 2 13H22C22.5523 13 23 12.5523 23 12V6C23 4.34315 21.6569 3 20 3H4Z" fill="#111111"/>
<path d="M18.0001 8H16.0001M14.8022 22L14.8425 21.8903C15.2848 20.6838 16.0953 19.647 17.1593 18.9265M16.6768 16.0715C15.2046 16.9215 14.6524 18.7213 15.2937 19.832C15.9349 20.9427 17.7697 21.3643 19.2419 20.5144C20.7141 19.6644 22.2785 16.5397 21.9579 15.9844C21.6373 15.429 18.1491 15.2215 16.6768 16.0715Z" stroke="#111111" stroke-width="2" stroke-linecap="round" stroke-linejoin="round"/>
</svg>
