<svg width="24" height="24" viewBox="0 0 24 24" fill="none" xmlns="http://www.w3.org/2000/svg">
<path opacity="0.28" d="M4 3C2.34315 3 1 4.34315 1 6V12C1 12.5523 1.44772 13 2 13H22C22.5523 13 23 12.5523 23 12V6C23 4.34315 21.6569 3 20 3H4Z" fill="#111111"/>
<path d="M18 8H16M19.8 19.2C19.8 20.7464 18.5463 22 17 22C15.4536 22 14.2 20.7464 14.2 19.2C14.2 17.6536 16.3 15 17 15C17.7 15 19.8 17.6536 19.8 19.2Z" stroke="#111111" stroke-width="2" stroke-linecap="round" stroke-linejoin="round"/>
</svg>
