<svg width="24" height="24" viewBox="0 0 24 24" fill="none" xmlns="http://www.w3.org/2000/svg">
<path opacity="0.28" d="M4.36392 3C3.97485 2.99998 3.62468 2.99996 3.33337 3.02376C3.02141 3.04925 2.68993 3.10694 2.36503 3.27249C1.89462 3.51217 1.51217 3.89462 1.27249 4.36503C1.10694 4.68993 1.04925 5.02141 1.02376 5.33337C0.999961 5.62468 0.99998 5.97479 1 6.36385V15.6361C0.99998 16.0252 0.999961 16.3753 1.02376 16.6666C1.04925 16.9786 1.10694 17.3101 1.27249 17.635C1.51217 18.1054 1.89462 18.4878 2.36503 18.7275C2.68993 18.8931 3.02141 18.9508 3.33337 18.9762C3.6247 19 3.97484 19 4.36394 19H19.6361C20.0252 19 20.3753 19 20.6666 18.9762C20.9786 18.9508 21.3101 18.8931 21.635 18.7275C22.1054 18.4878 22.4878 18.1054 22.7275 17.635C22.8931 17.3101 22.9508 16.9786 22.9762 16.6666C23 16.3753 23 16.0252 23 15.6361V6.3639C23 5.97482 23 5.62468 22.9762 5.33337C22.9508 5.02141 22.8931 4.68993 22.7275 4.36503C22.4878 3.89462 22.1054 3.51217 21.635 3.27249C21.3101 3.10694 20.9786 3.04925 20.6666 3.02376C20.3753 2.99996 20.0252 2.99998 19.6362 3H4.36392Z" fill="#111111"/>
<path d="M4.13171 19L3.16806 20.4455C2.8617 20.905 2.98588 21.5259 3.44541 21.8322C3.90493 22.1386 4.5258 22.0144 4.83216 21.5549L6.53529 19.0002H4.36404C4.28495 19.0002 4.20741 19.0002 4.13171 19Z" fill="#111111"/>
<path d="M17.4649 19.0002L19.1681 21.5549C19.4744 22.0144 20.0953 22.1386 20.5548 21.8322C21.0143 21.5259 21.1385 20.905 20.8322 20.4455L19.8685 19C19.7928 19.0002 19.7153 19.0002 19.6362 19.0002H17.4649Z" fill="#111111"/>
</svg>
