<svg width="24" height="24" viewBox="0 0 24 24" fill="none" xmlns="http://www.w3.org/2000/svg">
<path opacity="0.28" d="M7.573 15.5141L20.94 11.9321C21.196 11.8634 21.4143 11.6959 21.5468 11.4664C21.6794 11.2369 21.7154 10.9641 21.647 10.7081C21.441 9.93963 20.9382 9.28449 20.2492 8.88673C19.5602 8.48898 18.7415 8.38118 17.973 8.58705L15.075 9.36305L7.374 4.20505C7.01871 3.96713 6.61665 3.8079 6.1948 3.73805C5.77294 3.6682 5.34102 3.68934 4.928 3.80005L4.311 3.96505L9.279 10.9151L6.381 11.6921L3.253 10.6341C3.06579 10.5705 2.86396 10.5639 2.673 10.6151L2 10.7951L4.293 14.2691C4.6399 14.7945 5.14336 15.1975 5.73204 15.421C6.32072 15.6444 6.96479 15.677 7.573 15.5141Z" fill="#111111"/>
<path d="M3 20H21" stroke="#111111" stroke-width="2" stroke-linecap="round" stroke-linejoin="round"/>
<path d="M7.57237 15.5164L20.9388 11.9349C21.195 11.8663 21.4134 11.6987 21.5461 11.469C21.6787 11.2393 21.7146 10.9663 21.646 10.7102C21.44 9.94161 20.9372 9.28636 20.2482 8.88853C19.5591 8.49071 18.7403 8.3829 17.9717 8.58883L15.0739 9.36529L7.37267 4.20779C7.01766 3.96989 6.61592 3.81058 6.19435 3.74053C5.77279 3.67048 5.34112 3.6913 4.92825 3.80161L4.31006 3.96725L9.27839 10.9182L6.38061 11.6947L3.25209 10.6363C3.06498 10.573 2.86331 10.5665 2.67252 10.6177L1.99927 10.7981L4.2925 14.2719C4.63946 14.7973 5.14292 15.2002 5.73157 15.4235C6.32022 15.6469 6.96422 15.6794 7.57237 15.5164Z" stroke="#111111" stroke-width="2" stroke-linecap="round" stroke-linejoin="round"/>
</svg>
