<svg width="24" height="24" viewBox="0 0 24 24" fill="none" xmlns="http://www.w3.org/2000/svg">
<path opacity="0.28" d="M16 8V4.4C16 3.55992 16 3.13988 15.8365 2.81901C15.6927 2.53677 15.4632 2.3073 15.181 2.16349C14.8601 2 14.4401 2 13.6 2H10.4C9.55992 2 9.13988 2 8.81901 2.16349C8.53677 2.3073 8.3073 2.53677 8.16349 2.81901C8 3.13988 8 3.55992 8 4.4V8" stroke="#111111" stroke-width="2" stroke-linecap="round" stroke-linejoin="round"/>
<path d="M16 8H8M12 22C11.071 22 10.6065 22 10.2178 21.9384C8.07837 21.5996 6.40042 19.9216 6.06156 17.7822C6 17.3935 6 16.929 6 16V11.2C6 10.0799 6 9.51984 6.21799 9.09202C6.40973 8.71569 6.71569 8.40973 7.09202 8.21799C7.51984 8 8.0799 8 9.2 8H14.8C15.9201 8 16.4802 8 16.908 8.21799C17.2843 8.40973 17.5903 8.71569 17.782 9.09202C18 9.51984 18 10.0799 18 11.2V16C18 16.929 18 17.3935 17.9384 17.7822C17.5996 19.9216 15.9216 21.5996 13.7822 21.9384C13.3935 22 12.929 22 12 22Z" stroke="#111111" stroke-width="2" stroke-linecap="round" stroke-linejoin="round"/>
</svg>
