<svg
  xmlns="http://www.w3.org/2000/svg"
  width="24"
  height="24"
  viewBox="0 0 24 24"
  fill="none"
  stroke="currentColor"
  stroke-width="2"
  stroke-linecap="round"
  stroke-linejoin="round"
>
  <path d="M12.0001 21.1496C17.0535 21.1496 21.1501 17.053 21.1501 11.9996M12.0001 21.1496C7.04167 21.1496 2.8501 16.984 2.8501 11.9996M12.0001 21.1496L12.0001 17M2.8501 11.9996C2.8501 6.94621 6.94669 2.84961 12.0001 2.84961M2.8501 11.9996L7.00012 12M21.1501 11.9996C21.1501 6.94621 17.0535 2.84961 12.0001 2.84961M21.1501 11.9996L17.0001 12M12.0001 2.84961L12.0001 7M12.0001 17C14.7615 17 17.0001 14.7614 17.0001 12M12.0001 17C9.2906 17 7.00012 14.7237 7.00012 12M12.0001 17V7M7.00012 12C7.00012 9.23858 9.2387 7 12.0001 7M7.00012 12H17.0001M17.0001 12C17.0001 9.23858 14.7615 7 12.0001 7" stroke="currentColor" stroke-width="2"/>
  <path d="M2.8501 12.0001C2.8501 7.43211 6.1971 3.64611 10.5731 2.96011C12.4209 2.66837 14.3137 2.94999 15.9965 3.76704C17.6793 4.58409 19.0713 5.8973 19.9848 7.52974C20.8984 9.16218 21.2896 11.0354 21.1058 12.897C20.9221 14.7587 20.1721 16.5192 18.957 17.9415C17.7419 19.3639 16.1201 20.3796 14.31 20.8518C12.4999 21.324 10.5885 21.2301 8.83347 20.5827C7.07839 19.9353 5.56391 18.7655 4.49409 17.231C3.42426 15.6964 2.8505 13.8708 2.8501 12.0001Z" fill="currentColor" opacity="0.28"/>
</svg>