<svg
  xmlns="http://www.w3.org/2000/svg"
  width="24"
  height="24"
  viewBox="0 0 24 24"
  fill="none"
  stroke="currentColor"
  stroke-width="2"
  stroke-linecap="round"
  stroke-linejoin="round"
>
  <path d="M15.181 12.365C15.2989 11.702 15.6464 11.1017 16.1626 10.6693C16.6787 10.2369 17.3306 9.99993 18.004 10C19.395 10 20.586 10.998 20.828 12.368L22 19H20L19.515 20.836C19.4269 21.1697 19.2308 21.4649 18.9572 21.6755C18.6837 21.8861 18.3482 22.0002 18.003 22C17.6588 22 17.3242 21.8864 17.0512 21.6769C16.7782 21.4673 16.582 21.1735 16.493 20.841L16 19H14L15.181 12.365Z" stroke="currentColor" stroke-width="2"/ fill="none">
  <path d="M19.9961 5C19.9961 5.53043 19.7854 6.03914 19.4103 6.41421C19.0352 6.78929 18.5265 7 17.9961 7C17.4657 7 16.957 6.78929 16.5819 6.41421C16.2068 6.03914 15.9961 5.53043 15.9961 5C15.9961 4.46957 16.2068 3.96086 16.5819 3.58579C16.957 3.21071 17.4657 3 17.9961 3C18.5265 3 19.0352 3.21071 19.4103 3.58579C19.7854 3.96086 19.9961 4.46957 19.9961 5Z" stroke="#111111" stroke-width="2" opacity="0.28"/ fill="none">
  <path d="M2.27 12.75C2.3327 12.0002 2.67489 11.3013 3.22872 10.7919C3.78254 10.2825 4.50755 9.99989 5.26 10H6.738C7.49092 9.99995 8.21634 10.283 8.77023 10.793C9.32413 11.303 9.66601 12.0026 9.728 12.753L10 16.047L8 16L7.708 20.402C7.67956 20.8353 7.48732 21.2416 7.17031 21.5384C6.8533 21.8351 6.43525 22.0002 6.001 22C5.56691 22.0002 5.149 21.8353 4.83201 21.5387C4.51502 21.2422 4.32269 20.8361 4.294 20.403L4 16H2L2.27 12.75Z" stroke="currentColor" stroke-width="2"/ fill="none">
  <path d="M8 5C8 5.53043 7.78929 6.03914 7.41421 6.41421C7.03914 6.78929 6.53043 7 6 7C5.46957 7 4.96086 6.78929 4.58579 6.41421C4.21071 6.03914 4 5.53043 4 5C4 4.46957 4.21071 3.96086 4.58579 3.58579C4.96086 3.21071 5.46957 3 6 3C6.53043 3 7.03914 3.21071 7.41421 3.58579C7.78929 3.96086 8 4.46957 8 5Z" stroke="#111111" stroke-width="2" opacity="0.28"/ fill="none">
</svg>