<svg
  xmlns="http://www.w3.org/2000/svg"
  width="24"
  height="24"
  viewBox="0 0 24 24"
  fill="none"
  stroke="currentColor"
  stroke-width="2"
  stroke-linecap="round"
  stroke-linejoin="round"
>
  <path d="M3 20H21" stroke="currentColor" stroke-width="2" opacity="0.28"/>
  <path d="M7.93007 3.37409C7.45639 3.0569 6.92038 2.84463 6.35796 2.75149C5.79555 2.65836 5.21972 2.68652 4.66907 2.83409L4.05207 2.99909C3.89604 3.0409 3.75247 3.11989 3.63362 3.2293C3.51478 3.3387 3.42421 3.47527 3.36966 3.62732C3.31511 3.77937 3.29821 3.94237 3.3204 4.10237C3.34259 4.26237 3.40321 4.41462 3.49707 4.54609L7.62707 10.3231L6.41507 10.6481L3.57307 9.68709C3.19928 9.56044 2.79637 9.54722 2.41507 9.64909L1.74107 9.82909C1.58783 9.87 1.44651 9.94678 1.3288 10.0531C1.21108 10.1594 1.12034 10.2922 1.06407 10.4405C1.0078 10.5888 0.98761 10.7483 1.00517 10.906C1.02274 11.0636 1.07754 11.2148 1.16507 11.3471L3.46007 14.8201C3.92259 15.5207 4.59381 16.058 5.37865 16.3559C6.16349 16.6538 7.02217 16.6973 7.83307 16.4801L21.1991 12.8981C21.4529 12.8302 21.6909 12.713 21.8993 12.5531C22.1078 12.3932 22.2828 12.1938 22.4142 11.9663C22.5456 11.7387 22.6309 11.4876 22.6652 11.2271C22.6995 10.9666 22.6821 10.7019 22.6141 10.4481C22.478 9.94072 22.2433 9.46512 21.9234 9.04846C21.6034 8.6318 21.2046 8.28223 20.7496 8.01972C20.2946 7.75721 19.7923 7.58689 19.2715 7.51849C18.7506 7.45009 18.2214 7.48496 17.7141 7.62109L15.2551 8.28009L7.93007 3.37409Z" fill="currentColor" fill-rule="evenodd" clip-rule="evenodd"/>
</svg>