<svg
  xmlns="http://www.w3.org/2000/svg"
  width="24"
  height="24"
  viewBox="0 0 24 24"
  fill="none"
  stroke="currentColor"
  stroke-width="2"
  stroke-linecap="round"
  stroke-linejoin="round"
>
  <path d="M3 20H21" stroke="currentColor" stroke-width="2" opacity="0.28"/>
  <path d="M8.67499 1.03405C8.5189 0.992241 8.355 0.988883 8.19733 1.02426C8.03966 1.05964 7.89291 1.1327 7.76965 1.23719C7.64638 1.34168 7.55028 1.47448 7.48955 1.62423C7.42883 1.77398 7.40531 1.93622 7.42099 2.09705L8.10899 9.16505L6.89699 8.84005L4.91699 6.58705C4.65657 6.29041 4.3132 6.07747 3.93199 5.97505L3.25899 5.79505C3.10601 5.75407 2.94549 5.75001 2.79063 5.78321C2.63578 5.81641 2.49102 5.88591 2.36828 5.98599C2.24554 6.08608 2.14833 6.21388 2.08465 6.35889C2.02097 6.50389 1.99264 6.66195 2.00199 6.82005L2.25199 10.975C2.30226 11.813 2.61489 12.6139 3.14559 13.2643C3.67629 13.9147 4.39817 14.3817 5.20899 14.599L18.575 18.18C18.8287 18.2481 19.0933 18.2655 19.3538 18.2313C19.6142 18.1971 19.8654 18.1119 20.0929 17.9805C20.3204 17.8492 20.5198 17.6744 20.6797 17.466C20.8397 17.2576 20.957 17.0198 21.025 16.766C21.2992 15.7414 21.1553 14.6497 20.6248 13.7312C20.0942 12.8127 19.2206 12.1425 18.196 11.868L15.736 11.208L11.846 3.29805C11.5945 2.78637 11.2365 2.33437 10.796 1.97236C10.3555 1.61034 9.8427 1.34668 9.29199 1.19905L8.67499 1.03405Z" fill="currentColor" fill-rule="evenodd" clip-rule="evenodd"/>
</svg>