<svg
  xmlns="http://www.w3.org/2000/svg"
  width="24"
  height="24"
  viewBox="0 0 24 24"
  fill="none"
  stroke="currentColor"
  stroke-width="2"
  stroke-linecap="round"
  stroke-linejoin="round"
>
  <path d="M14 10H18M15 14H18" stroke="currentColor" stroke-width="2"/ fill="none">
  <path d="M21 17V7C21 5.34315 19.6569 4 18 4L6 4C4.34315 4 3 5.34315 3 7V17C3 18.6569 4.34315 20 6 20H18C19.6569 20 21 18.6569 21 17Z" stroke="#111111" stroke-width="2" opacity="0.28"/ fill="none">
  <path d="M7 15H10C10.5523 15 11 14.5523 11 14V10C11 9.44772 10.5523 9 10 9H7C6.44772 9 6 9.44772 6 10L6 14C6 14.5523 6.44772 15 7 15Z" stroke="currentColor" stroke-width="2"/ fill="none">
</svg>