<svg width="24" height="24" viewBox="0 0 24 24" fill="none" xmlns="http://www.w3.org/2000/svg">
<path fill-rule="evenodd" clip-rule="evenodd" d="M6 3C5.83846 3.00006 5.67934 3.03925 5.53625 3.11423C5.39317 3.1892 5.27037 3.29772 5.17838 3.43051C5.08638 3.56329 5.02792 3.71638 5.008 3.87669C4.98808 4.03699 5.0073 4.19974 5.064 4.351L7.557 11.001L6.303 11L3.807 9.336C3.4783 9.11683 3.09206 8.99991 2.697 9H2C1.84154 8.99996 1.68535 9.03758 1.54429 9.10975C1.40323 9.18192 1.28133 9.28657 1.18865 9.41509C1.09598 9.54361 1.03516 9.69232 1.01123 9.84895C0.987296 10.0056 1.00093 10.1657 1.051 10.316L2.368 14.265C2.63346 15.0613 3.1427 15.7539 3.82361 16.2448C4.50453 16.7356 5.3226 16.9999 6.162 17H20C20.5304 17 21.0391 16.7893 21.4142 16.4142C21.7893 16.0391 22 15.5304 22 15C22 13.9391 21.5786 12.9217 20.8284 12.1716C20.0783 11.4214 19.0609 11 18 11H15.454L9.649 4.366C9.2736 3.93697 8.81082 3.59313 8.2917 3.35754C7.77257 3.12195 7.20908 3.00005 6.639 3H6Z" fill="#111111"/>
<path opacity="0.28" d="M3 20H21" stroke="#111111" stroke-width="2" stroke-linecap="round" stroke-linejoin="round"/>
</svg>
