<svg width="24" height="24" viewBox="0 0 24 24" fill="none" xmlns="http://www.w3.org/2000/svg">
<path opacity="0.28" fill-rule="evenodd" clip-rule="evenodd" d="M10.2917 2H13.7083C14.7616 1.99999 15.6113 1.99998 16.2999 2.05471C17.0088 2.11104 17.6322 2.23001 18.2114 2.51564C18.9782 2.89376 19.6314 3.46021 20.113 4.15689C21.7806 4.639 23 6.17709 23 8V8.5C23 9.32843 22.3284 10 21.5 10H21V20.5C21 21.8807 19.8807 23 18.5 23C17.1193 23 16 21.8807 16 20.5V20H8V20.5C8 21.8807 6.88071 23 5.5 23C4.11929 23 3 21.8807 3 20.5V10H2.5C1.67157 10 1 9.32843 1 8.5V8C1 6.17709 2.2194 4.63899 3.887 4.15689C4.36858 3.4602 5.02179 2.89376 5.78856 2.51564C6.36776 2.23001 6.99117 2.11104 7.70006 2.05471C8.38871 1.99998 9.23837 1.99999 10.2917 2Z" fill="#111111"/>
<path d="M12 8.5L9.84619 12H14.1539L12 15.5" stroke="#111111" stroke-width="2" stroke-linecap="round" stroke-linejoin="round"/>
</svg>
