<svg width="24" height="24" viewBox="0 0 24 24" fill="none" xmlns="http://www.w3.org/2000/svg">
<path opacity="0.28" fill-rule="evenodd" clip-rule="evenodd" d="M9.4 3.4707H9.357C8.273 3.4707 7.399 3.4707 6.691 3.5287C5.963 3.5887 5.322 3.7137 4.731 4.0157C3.78986 4.49489 3.02462 5.25978 2.545 6.2007C2.243 6.7927 2.117 7.4337 2.058 8.1617C2 8.8697 2 9.7437 2 10.8277V14.1137C2 15.1977 2 16.0717 2.058 16.7797C2.118 17.5087 2.243 18.1487 2.545 18.7407C3.02436 19.6815 3.78923 20.4463 4.73 20.9257C5.322 21.2277 5.963 21.3537 6.691 21.4127C7.399 21.4707 8.273 21.4707 9.357 21.4707H14.643C15.727 21.4707 16.601 21.4707 17.309 21.4127C18.038 21.3527 18.678 21.2277 19.27 20.9257C20.2108 20.4463 20.9756 19.6815 21.455 18.7407C21.757 18.1487 21.883 17.5087 21.942 16.7797C22 16.0717 22 15.1977 22 14.1137V10.8277C22 9.7437 22 8.8697 21.942 8.1617C21.882 7.4337 21.757 6.7927 21.455 6.2017C20.9758 5.26056 20.2109 4.49532 19.27 4.0157C18.678 3.7137 18.038 3.5877 17.309 3.5287C16.601 3.4707 15.727 3.4707 14.643 3.4707H9.4Z" fill="#111111"/>
<path d="M12 13.3929V8.75H13C14.1046 8.75 15 9.64543 15 10.75V11.3929C15 12.4974 14.1046 13.3929 13 13.3929H12ZM12 13.3929V15.25M18 8.75V15.25M6 11.75V8.75M6 11.75V15.25M6 11.75L9 8.75M6 11.75L9 15.25" stroke="#111111" stroke-width="2" stroke-linecap="round" stroke-linejoin="round"/>
</svg>
