<svg
  xmlns="http://www.w3.org/2000/svg"
  width="24"
  height="24"
  viewBox="0 0 24 24"
  fill="none"
  stroke="currentColor"
  stroke-width="2"
  stroke-linecap="round"
  stroke-linejoin="round"
>
  <path d="M22 15.24V8.75902C22 7.95402 22 7.28902 21.956 6.74902C21.91 6.18602 21.811 5.66902 21.564 5.18402C21.1805 4.43141 20.5686 3.81951 19.816 3.43602C19.331 3.18902 18.814 3.09002 18.252 3.04402C17.711 3.00002 17.046 3.00002 16.242 3.00002H7.758C6.953 3.00002 6.288 3.00002 5.748 3.04402C5.185 3.09002 4.668 3.18902 4.183 3.43602C3.43039 3.81951 2.81849 4.43141 2.435 5.18402C2.188 5.66902 2.089 6.18602 2.043 6.74802C2 7.28902 2 7.95302 2 8.75702V15.241C2 16.046 2 16.711 2.044 17.251C2.09 17.814 2.189 18.331 2.436 18.816C2.81949 19.5686 3.43139 20.1805 4.184 20.564C4.669 20.811 5.186 20.91 5.748 20.956C6.29 20.999 6.954 20.999 7.758 20.999H16.241C17.046 20.999 17.711 20.999 18.251 20.955C18.814 20.909 19.331 20.81 19.816 20.563C20.5686 20.1795 21.1805 19.5676 21.564 18.815C21.811 18.33 21.91 17.813 21.956 17.251C22 16.709 22 16.044 22 15.24ZM13.777 17.999H17.223C17.343 17.999 17.485 17.999 17.61 17.989C17.755 17.977 17.963 17.947 18.181 17.835C18.463 17.6913 18.6922 17.462 18.836 17.18C18.948 16.962 18.978 16.754 18.99 16.609C19 16.483 19 16.341 19 16.222V12.776C19 12.656 19 12.515 18.99 12.389C18.9772 12.1905 18.9252 11.9964 18.837 11.818C18.693 11.5359 18.4633 11.3066 18.181 11.163C18.0027 11.0745 17.8086 11.0222 17.61 11.009C17.485 10.999 17.342 10.999 17.223 10.999H13.777C13.657 10.999 13.516 10.999 13.39 11.009C13.1914 11.0222 12.9973 11.0745 12.819 11.163C12.537 11.3068 12.3078 11.5361 12.164 11.818C12.0755 11.9963 12.0231 12.1904 12.01 12.389C12 12.514 12 12.657 12 12.776V16.222C12 16.342 12 16.483 12.01 16.609C12.022 16.754 12.052 16.962 12.164 17.18C12.3078 17.462 12.537 17.6913 12.819 17.835C13.037 17.947 13.245 17.977 13.39 17.989C13.515 17.999 13.658 17.999 13.777 17.999Z" fill="currentColor" fill-rule="evenodd" clip-rule="evenodd"/ stroke="none">
</svg>