<svg width="24" height="24" viewBox="0 0 24 24" fill="none" xmlns="http://www.w3.org/2000/svg">
<path d="M3 21H21" stroke="#111111" stroke-width="2" stroke-linecap="round" stroke-linejoin="round"/>
<path d="M10.7404 14.4995L6.99994 20.9782" stroke="#111111" stroke-width="2" stroke-linecap="round" stroke-linejoin="round"/>
<path d="M16.3281 3.36872C16.8804 3.15287 17.129 3.22628 17.2187 3.2779C17.3081 3.32954 17.4966 3.50824 17.5859 4.09529C17.6732 4.67005 17.6357 5.47805 17.4335 6.48884C17.0311 8.50035 16.0244 11.0931 14.4833 13.7623C14.3897 13.9245 14.2943 14.0851 14.1992 14.2437L13.9472 14.6558L12.8954 13.6295C12.2883 13.037 11.5603 12.5863 10.7626 12.3072L10.4169 12.1978L9.00092 11.8004L9.23236 11.3756C9.32209 11.214 9.41417 11.0523 9.50775 10.8902C11.0488 8.22101 12.7902 6.05213 14.331 4.69782C15.1053 4.01728 15.7866 3.58042 16.3281 3.36872Z" fill="#111111"/>
<path opacity="0.28" d="M4.03302 6.90046C6.17495 3.19062 10.3707 1.39876 14.3211 2.18367C13.8856 2.4702 13.4465 2.81229 13.0106 3.19539C11.2662 4.72859 9.39514 7.0849 7.77521 9.8907C7.67591 10.0627 7.5785 10.2347 7.48322 10.4063L7.39533 10.5665C6.69196 9.94935 5.8482 9.51021 4.93341 9.28914L4.70002 9.23738L4.30451 9.15828C4.00534 9.09885 3.7497 8.90604 3.61017 8.63484C3.47074 8.36331 3.46163 8.04172 3.58771 7.76375C3.72031 7.47161 3.86952 7.18369 4.03302 6.90046Z" fill="#111111"/>
<path opacity="0.28" d="M19.615 5.23926C22.2708 8.26805 22.8176 12.7986 20.6755 16.5088C20.512 16.792 20.3359 17.0643 20.1492 17.3252C19.9716 17.5732 19.6902 17.727 19.3855 17.7422C19.0808 17.7571 18.7849 17.6327 18.5837 17.4033L18.3171 17.0996C17.6417 16.3289 16.7795 15.7554 15.8181 15.4297C15.9512 15.2103 16.0843 14.9884 16.2146 14.7627C17.8346 11.9568 18.9387 9.1582 19.3943 6.88086C19.5082 6.31143 19.5844 5.75993 19.615 5.23926Z" fill="#111111"/>
</svg>
