<svg width="24" height="24" viewBox="0 0 24 24" fill="none" xmlns="http://www.w3.org/2000/svg">
<path opacity="0.28" fill-rule="evenodd" clip-rule="evenodd" d="M20.3859 6.28994C20.259 6.19104 20.1303 6.09436 19.9999 5.99994V19.4999C19.9999 20.163 19.7365 20.7989 19.2677 21.2677C18.7989 21.7366 18.163 21.9999 17.4999 21.9999H6.49994C5.8369 21.9999 5.20101 21.7366 4.73217 21.2677C4.26333 20.7989 3.99994 20.163 3.99994 19.4999V5.99994C3.86994 6.09394 3.74094 6.18994 3.61394 6.28994C3.40442 6.45279 3.13879 6.52573 2.87549 6.49272C2.61219 6.45972 2.37278 6.32346 2.20994 6.11394C2.0471 5.90442 1.97416 5.63879 2.00716 5.37549C2.04017 5.11219 2.17642 4.87279 2.38594 4.70994C5.1353 2.57341 8.51802 1.41357 11.9999 1.41357C15.4819 1.41357 18.8646 2.57341 21.6139 4.70994C21.8233 4.87279 21.9595 5.11214 21.9924 5.37535C22.0253 5.63855 21.9523 5.90406 21.7894 6.11344C21.6266 6.32283 21.3872 6.45896 21.124 6.49187C20.8608 6.52478 20.5953 6.45279 20.3859 6.28994Z" fill="#111111"/>
<path d="M9.99994 21V16.5653M13.9999 21V16.5651M14.8285 17.2009C14.5791 16.9515 14.3002 16.7384 13.9999 16.5651M9.17163 17.2009C9.42095 16.9516 9.69979 16.7386 9.99994 16.5653M13.9999 16.5651C13.3971 16.2171 12.7082 16.0293 12.0001 16.0293C11.2918 16.0293 10.6029 16.2172 9.99994 16.5653M8 7V7.01M8 10V10.01M8 13V13.01M12 7V7.01M12 10V10.01M12 13V13.01M16 7V7.01M16 10V10.01M16 13V13.01" stroke="#111111" stroke-width="2" stroke-miterlimit="16" stroke-linecap="round" stroke-linejoin="round"/>
</svg>
