<svg width="24" height="24" viewBox="0 0 24 24" fill="none" xmlns="http://www.w3.org/2000/svg">
<path opacity="0.28" d="M2 21H22" stroke="#111111" stroke-width="2" stroke-linecap="round" stroke-linejoin="round"/>
<path fill-rule="evenodd" clip-rule="evenodd" d="M15.9434 2.00391C16.2302 2.00849 16.4902 2.01804 16.7236 2.03711C17.2023 2.07623 17.6571 2.16183 18.0889 2.38184L18.3301 2.5166C18.8783 2.85287 19.3246 3.33495 19.6182 3.91114L19.6953 4.07422C19.8594 4.45701 19.9287 4.85766 19.9629 5.27637C20.0011 5.74342 20 6.31644 20 7V21C20 21.5523 19.5523 22 19 22H5C4.44772 22 4 21.5523 4 21V7C4 6.31644 3.99895 5.74342 4.03711 5.27637C4.07623 4.79772 4.16183 4.34294 4.38184 3.91114L4.5166 3.66992C4.85287 3.12172 5.33495 2.67544 5.91114 2.38184L6.07422 2.30469C6.45702 2.1406 6.85766 2.07133 7.27637 2.03711C7.74342 1.99895 8.31644 2 9 2H15L15.9434 2.00391ZM8.5 10.5C7.67158 10.5 7 11.1716 7 12C7 12.8284 7.67158 13.5 8.5 13.5C8.94358 13.5 9.34062 13.3061 9.61524 13H10C10.5523 13 11 12.5523 11 12C11 11.4477 10.5523 11 10 11H9.61524C9.34062 10.6939 8.94358 10.5 8.5 10.5Z" fill="#111111"/>
</svg>
