<svg width="24" height="24" viewBox="0 0 24 24" fill="none" xmlns="http://www.w3.org/2000/svg">
<g opacity="0.28">
<path d="M11 2.98047C11.5523 2.98047 12 3.42819 12 3.98047C12 4.53276 11.5523 4.98047 11 4.98047H9C8.28347 4.98047 7.80616 4.98079 7.43945 5.01075C7.1729 5.03252 7.01494 5.06751 6.90918 5.10547L6.81934 5.14356C6.57239 5.26938 6.3658 5.46135 6.22168 5.69629L6.16309 5.79981C6.11072 5.90275 6.05924 6.06537 6.03027 6.41992C6.00032 6.78663 6 7.26394 6 7.98047V19H11C11.5523 19 12 19.4477 12 20C12 20.5523 11.5523 21 11 21H2C1.44772 21 1 20.5523 1 20C1 19.4477 1.44772 19 2 19H4V7.98047C4 7.29691 3.99895 6.72389 4.03711 6.25684C4.07623 5.77819 4.16182 5.32341 4.38184 4.8916L4.5166 4.65039C4.85287 4.10219 5.33495 3.65591 5.91113 3.36231L6.07422 3.28516C6.45701 3.12107 6.85766 3.0518 7.27637 3.01758C7.74341 2.97942 8.31644 2.98047 9 2.98047H11Z" fill="#111111"/>
<path d="M22 19C22.5523 19 23 19.4477 23 20C23 20.5523 22.5523 21 22 21H19C18.4477 21 18 20.5523 18 20C18 19.4477 18.4477 19 19 19H22Z" fill="#111111"/>
</g>
<path fill-rule="evenodd" clip-rule="evenodd" d="M11.7051 0.465585C12.0324 0.422043 12.3324 0.481374 12.5732 0.547616C12.8449 0.622386 13.1676 0.744358 13.5127 0.873788L16.7559 2.09059L17.3672 2.32105C17.9458 2.54556 18.4276 2.7653 18.8145 3.10621L18.9697 3.25172C19.3208 3.60127 19.5947 4.0226 19.7715 4.48707L19.8516 4.73219C20.0123 5.3138 20 5.96959 20 6.77223V17.2839C20 18.0938 20.0118 18.7548 19.8486 19.3406L19.7676 19.5877C19.588 20.0553 19.3101 20.4787 18.9541 20.8289L18.7969 20.9744C18.4048 21.3153 17.9178 21.5335 17.332 21.7546L16.7129 21.9812L13.4902 23.156C13.147 23.2812 12.8262 23.3996 12.5557 23.4714C12.3154 23.5352 12.0167 23.5913 11.6914 23.5457L11.5508 23.5193C11.1088 23.4174 10.7159 23.169 10.4356 22.8171L10.3232 22.6599C10.1113 22.3335 10.05 21.9827 10.0244 21.7C9.99926 21.4213 10 21.0788 10 20.7136V3.30836C10 2.93992 9.99907 2.59476 10.0244 2.31422C10.0502 2.03004 10.112 1.67626 10.3262 1.3484L10.4404 1.19117C10.7233 0.838782 11.1188 0.59049 11.5635 0.490976L11.7051 0.465585ZM13.0293 10.6179C12.477 10.6179 12.0293 11.0657 12.0293 11.6179C12.0293 12.1702 12.477 12.6179 13.0293 12.6179H13.9473C14.4993 12.6177 14.9473 12.1701 14.9473 11.6179C14.9472 11.0658 14.4993 10.6182 13.9473 10.6179H13.0293Z" fill="#111111"/>
</svg>
