<svg width="24" height="24" viewBox="0 0 24 24" fill="none" xmlns="http://www.w3.org/2000/svg">
<path opacity="0.28" d="M20 13.7485V18.6059C20 19.446 20 19.866 19.8365 20.1869C19.6927 20.4691 19.4632 20.6986 19.181 20.8424C18.8601 21.0059 18.4401 21.0059 17.6 21.0059H6.4C5.55992 21.0059 5.13988 21.0059 4.81901 20.8424C4.53677 20.6986 4.3073 20.4691 4.16349 20.1869C4 19.866 4 19.446 4 18.6059V13.7466" stroke="#111111" stroke-width="2" stroke-linecap="round" stroke-linejoin="round"/>
<path fill-rule="evenodd" clip-rule="evenodd" d="M7.34399 2.00627L6.98299 2.00327C6.46999 1.99727 5.85699 1.99127 5.28299 2.06627C4.52799 2.16627 3.70899 2.41627 3.00799 3.06127C2.31799 3.69627 1.99799 4.48127 1.82999 5.21127C1.70299 5.76527 1.64999 6.36327 1.60599 6.86427L1.57299 7.22927C1.53785 7.56275 1.49851 7.89577 1.45499 8.22827C1.34999 9.06127 1.23499 9.97627 1.23499 10.8513C1.23539 11.7238 1.50398 12.5751 2.00435 13.29C2.50473 14.0048 3.21272 14.5485 4.03242 14.8475C4.85213 15.1466 5.74394 15.1864 6.58705 14.9617C7.43016 14.737 8.18384 14.2586 8.74599 13.5913C9.145 14.0665 9.64331 14.4485 10.2058 14.7104C10.7684 14.9723 11.3815 15.1078 12.002 15.1073C12.6224 15.1079 13.2355 14.9726 13.798 14.7108C14.3605 14.4491 14.8589 14.0673 15.258 13.5923C15.6571 14.0673 16.1554 14.4491 16.718 14.7108C17.2805 14.9726 17.8935 15.1079 18.514 15.1073C19.6427 15.1073 20.7253 14.6589 21.5234 13.8607C22.3216 13.0626 22.77 11.98 22.77 10.8513C22.77 9.98127 22.653 9.06927 22.547 8.23827C22.5028 7.90211 22.4628 7.56542 22.427 7.22827C22.4152 7.107 22.4042 6.98567 22.394 6.86427C22.35 6.36427 22.297 5.76427 22.17 5.21127C22.002 4.48127 21.682 3.69627 20.992 3.06127C20.291 2.41627 19.472 2.16627 18.717 2.06627C18.143 1.99127 17.53 1.99727 17.017 2.00327C16.897 2.00492 16.777 2.00592 16.657 2.00627H7.34399Z" fill="#111111"/>
</svg>
