<svg width="24" height="24" viewBox="0 0 24 24" fill="none" xmlns="http://www.w3.org/2000/svg">
<path opacity="0.28" d="M20 21.0004V13.7426M4 13.7426V18.6004C4 19.4405 4 19.8605 4.16349 20.1814C4.3073 20.4636 4.53677 20.6931 4.81901 20.8369C5.13988 21.0004 5.55992 21.0004 6.4 21.0004H11.6C12.4401 21.0004 12.8601 21.0004 13.181 20.8369C13.4632 20.6931 13.6927 20.4636 13.8365 20.1814C14 19.8605 14 19.4405 14 18.6004V13.417" stroke="#111111" stroke-width="2" stroke-linecap="round" stroke-linejoin="round"/>
<path fill-rule="evenodd" clip-rule="evenodd" d="M7.33999 2C5.58199 2 4.14199 2.29 3.12399 3.24C2.11299 4.184 1.73299 5.582 1.56899 7.223L1.25399 10.368C1.25217 10.386 1.25083 10.404 1.24999 10.422C1.14499 12.772 2.78599 15.102 5.48899 15.102C6.10935 15.1028 6.72235 14.9676 7.28487 14.706C7.84739 14.4445 8.34578 14.0628 8.74499 13.588C9.144 14.0629 9.64219 14.4446 10.2045 14.7064C10.7669 14.9681 11.3797 15.1035 12 15.103C12.6204 15.1036 13.2335 14.9683 13.796 14.7066C14.3585 14.4448 14.8569 14.063 15.256 13.588C15.655 14.0629 16.1532 14.4446 16.7155 14.7064C17.2779 14.9681 17.8907 15.1035 18.511 15.103C21.201 15.103 22.87 12.779 22.747 10.415C22.7464 10.3993 22.7454 10.3836 22.744 10.368L22.429 7.223C22.265 5.582 21.885 4.184 20.874 3.24C19.857 2.29 18.417 2 16.659 2H7.33999Z" fill="#111111"/>
</svg>
