<svg
  xmlns="http://www.w3.org/2000/svg"
  width="24"
  height="24"
  viewBox="0 0 24 24"
  fill="none"
  stroke="currentColor"
  stroke-width="2"
  stroke-linecap="round"
  stroke-linejoin="round"
>
  <path d="M6.59985 2H10.198C10.8668 2 11.4912 2.3342 11.8622 2.8906L12.7649 4.24471C13.0293 4.64133 12.977 5.16945 12.6399 5.50652L11.0315 7.11492C10.3278 7.81871 9.21357 7.89789 8.41733 7.30071L8.34159 7.2439C9.9204 9.53318 10.6727 12.2918 10.4745 15.0656L10.2928 17.6098L11.2684 15.1707L11.6335 14.4405C12.3368 13.034 13.5699 11.9645 15.0617 11.4673C16.3921 11.0238 17.8365 11.0663 19.1386 11.5871L20.7429 12.2288C21.5022 12.5325 22.0001 13.268 22.0001 14.0858V18.802C22.0001 19.7973 21.2683 20.6411 20.283 20.7819L18.7141 21.006C14.1001 21.6652 9.41474 21.6488 4.80551 20.9574L3.79613 20.806C2.77745 20.6532 2.04144 19.7517 2.09558 18.723L2.2493 15.8023C2.40748 12.7968 3.01706 9.83209 4.05754 7.00793L5.66151 2.65429C5.80634 2.26117 6.18089 2 6.59985 2Z" fill="currentColor" opacity="0.28"/>
  <path d="M8.34159 7.2439L8.41733 7.30071C9.21357 7.89789 10.3278 7.81871 11.0315 7.11492L12.6399 5.50652C12.977 5.16945 13.0293 4.64133 12.7649 4.24471L11.8622 2.8906C11.4912 2.3342 10.8668 2 10.198 2H6.59985C6.18089 2 5.80634 2.26117 5.66151 2.65429L4.05754 7.00793C3.01706 9.83209 2.40748 12.7968 2.2493 15.8023L2.09558 18.723C2.04144 19.7517 2.77745 20.6532 3.79613 20.806L4.80551 20.9574C9.41474 21.6488 14.1001 21.6652 18.7141 21.006L20.283 20.7819C21.2683 20.6411 22.0001 19.7973 22.0001 18.802V14.0858C22.0001 13.268 21.5022 12.5325 20.7429 12.2288L19.1386 11.5871C17.8365 11.0663 16.3921 11.0238 15.0617 11.4673C13.5699 11.9645 12.3368 13.034 11.6335 14.4405L11.2684 15.1707L10.2928 17.6098L10.4745 15.0656C10.6727 12.2918 9.9204 9.53318 8.34159 7.2439ZM8.34159 7.2439L7.85378 6.87805" stroke="currentColor" stroke-width="2"/>
</svg>