<svg width="24" height="24" viewBox="0 0 24 24" fill="none" xmlns="http://www.w3.org/2000/svg">
<path opacity="0.28" d="M12.004 2.25293C9.50399 2.25293 8.89471 5.92354 8.89471 5.92354C8.89471 5.92354 5.6381 4.11461 4.08361 6.06374C2.52911 8.01288 5.01767 10.7852 5.01767 10.7852C5.01767 10.7852 1.57117 12.188 2.12678 14.6309C2.6824 17.0738 6.40137 16.8476 6.40137 16.8476C6.40137 16.8476 5.35881 20.4248 7.61091 21.5102C9.86301 22.5955 12.0039 19.5456 12.0039 19.5456C12.0039 19.5456 14.1276 22.5949 16.3831 21.5167C18.6387 20.4386 17.6064 16.8476 17.6064 16.8476C17.6064 16.8476 21.3147 17.072 21.8726 14.6351C22.4306 12.1981 18.9901 10.7852 18.9901 10.7852C18.9901 10.7852 21.4758 8.01156 19.9164 6.05936C18.357 4.10716 15.113 5.92354 15.113 5.92354C15.113 5.92354 14.504 2.25293 12.004 2.25293Z" fill="#111111"/>
<path d="M12.0039 19.5456C12.8213 19.0775 13.6279 18.5797 14.4649 18.1469C14.6336 18.0596 14.8049 17.9771 14.9784 17.8996C15.8386 17.5151 16.7307 17.1948 17.6064 16.8476M12.0039 19.5456C12.0039 19.5456 9.86301 22.5955 7.61091 21.5102C5.35881 20.4248 6.40137 16.8476 6.40137 16.8476M12.0039 19.5456C11.1029 19.0297 10.2201 18.4681 9.28428 18.0179C8.35085 17.5688 7.36403 17.2294 6.40137 16.8476M12.0039 19.5456C12.0039 19.5456 14.1276 22.5949 16.3831 21.5167C18.6387 20.4386 17.6064 16.8476 17.6064 16.8476M6.40137 16.8476C6.25768 15.9167 6.14393 14.9756 5.96052 14.0514C5.92354 13.865 5.88124 13.6797 5.8337 13.4957C5.59793 12.5835 5.29212 11.6863 5.01767 10.7852M6.40137 16.8476C6.40137 16.8476 2.6824 17.0738 2.12678 14.6309C1.57117 12.188 5.01767 10.7852 5.01767 10.7852M5.01767 10.7852C5.01767 10.7852 2.52911 8.01288 4.08361 6.06374C5.6381 4.11461 8.89471 5.92354 8.89471 5.92354M5.01767 10.7852C5.72019 10.0227 6.46301 9.28788 7.10963 8.47709C7.75637 7.66615 8.30751 6.77829 8.89471 5.92354M8.89471 5.92354C8.89471 5.92354 9.50399 2.25293 12.004 2.25293C14.504 2.25293 15.113 5.92354 15.113 5.92354M8.89471 5.92354C9.92905 5.99737 10.9668 6.12004 12.004 6.12002C13.0411 6.12001 14.0788 5.99736 15.113 5.92354M15.113 5.92354C15.6992 6.77684 16.2496 7.66307 16.8948 8.47298C17.5421 9.28548 18.2863 10.0214 18.9901 10.7852M15.113 5.92354C15.113 5.92354 18.357 4.10716 19.9164 6.05936C21.4758 8.01156 18.9901 10.7852 18.9901 10.7852M18.9901 10.7852C18.9901 10.7852 22.4306 12.1981 21.8726 14.6351C21.3147 17.072 17.6064 16.8476 17.6064 16.8476M18.9901 10.7852C18.6879 11.7772 18.3374 12.7616 18.1066 13.7728C17.8759 14.7839 17.7645 15.8229 17.6064 16.8476" stroke="#111111" stroke-width="2"/>
</svg>
