<svg width="24" height="24" viewBox="0 0 24 24" fill="none" xmlns="http://www.w3.org/2000/svg">
<path opacity="0.28" fill-rule="evenodd" clip-rule="evenodd" d="M18.9592 6.57411C18.4925 6.41664 17.914 6.41664 16.7569 6.41664C16.541 6.41664 16.433 6.41664 16.3329 6.39598C16.1438 6.35692 15.9699 6.2639 15.8325 6.12816C15.7598 6.05638 15.6999 5.96655 15.5801 5.78688L14.475 4.1294C14.3013 3.86893 14.2145 3.7387 14.0998 3.64442C13.9982 3.56096 13.8812 3.49833 13.7554 3.46014C13.6133 3.41699 13.4568 3.41699 13.1438 3.41699H10.8562C10.5432 3.41699 10.3867 3.41699 10.2446 3.46014C10.1188 3.49833 10.0018 3.56096 9.90022 3.64442C9.7855 3.7387 9.69867 3.86893 9.52501 4.1294L8.41857 5.78885C8.30006 5.9666 8.24081 6.05547 8.16906 6.12663C8.03085 6.26371 7.85566 6.35747 7.66494 6.39642C7.56592 6.41664 7.45911 6.41664 7.24547 6.41664C6.10079 6.41664 5.52846 6.41664 5.06631 6.5708C4.17101 6.86946 3.46845 7.57202 3.1698 8.46732C3.01563 8.92946 3.01562 9.5018 3.01562 10.6465V15.6167C3.01562 17.2968 3.01563 18.1369 3.34261 18.7786C3.63024 19.3431 4.08917 19.8021 4.65365 20.0897C5.29539 20.4167 6.13547 20.4167 7.81563 20.4167L16.2 20.4166C17.8802 20.4166 18.7202 20.4166 19.362 20.0897C19.9265 19.802 20.3854 19.3431 20.673 18.7786C21 18.1369 21 17.2968 21 15.6166V10.6597C21 9.50266 21 8.92412 20.8425 8.45745C20.5431 7.57013 19.8465 6.87353 18.9592 6.57411Z" fill="#111111"/>
<path d="M16.7569 6.41713C17.914 6.41713 18.4925 6.41713 18.9592 6.5746C19.8465 6.87402 20.5431 7.57062 20.8425 8.45794C21 8.92461 21 9.50315 21 10.6602V15.6171C21 17.2973 21 18.1374 20.673 18.7791C20.3854 19.3436 19.9265 19.8025 19.362 20.0901C18.7202 20.4171 17.8802 20.4171 16.2 20.4171L7.81563 20.4171C6.13547 20.4171 5.29539 20.4171 4.65365 20.0902C4.08917 19.8025 3.63023 19.3436 3.34261 18.7791C3.01562 18.1374 3.01562 17.2973 3.01563 15.6171L3.01563 10.647C3.01563 9.50229 3.01563 8.92995 3.16979 8.46781C3.46844 7.57251 4.17101 6.86995 5.06631 6.57129C5.52845 6.41713 6.10079 6.41713 7.24547 6.41713C7.4591 6.41713 7.56591 6.41713 7.66493 6.39691C7.85565 6.35796 8.03085 6.2642 8.16906 6.12712C8.24081 6.05596 8.30006 5.96708 8.41857 5.78934L9.52501 4.12989C9.69867 3.86942 9.7855 3.73919 9.90022 3.64491C10.0018 3.56145 10.1188 3.49882 10.2446 3.46063C10.3867 3.41748 10.5432 3.41748 10.8562 3.41748L13.1438 3.41748C13.4568 3.41748 13.6133 3.41748 13.7554 3.46063C13.8812 3.49882 13.9982 3.56145 14.0998 3.64491C14.2145 3.73919 14.3013 3.86942 14.475 4.12989L15.5801 5.78737C15.6999 5.96704 15.7598 6.05687 15.8325 6.12865C15.9699 6.26439 16.1438 6.35741 16.3329 6.39647C16.433 6.41713 16.541 6.41713 16.7569 6.41713Z" stroke="#111111" stroke-width="2" stroke-linejoin="round"/>
<path d="M8.46631 16.6035H8.47631M12.4663 9.60352C11.8288 11.22 11.1272 11.9485 9.46631 12.6035C11.1272 13.2585 11.8288 13.987 12.4663 15.6035C13.1038 13.987 13.8054 13.2585 15.4663 12.6035C13.8054 11.9485 13.1038 11.22 12.4663 9.60352Z" stroke="#111111" stroke-width="2" stroke-linecap="round" stroke-linejoin="round"/>
</svg>
