<svg width="24" height="24" viewBox="0 0 24 24" fill="none" xmlns="http://www.w3.org/2000/svg">
<path opacity="0.28" d="M16.2 4H7.79995C6.11995 4 5.27995 4 4.63795 4.327C4.07349 4.61462 3.61457 5.07354 3.32695 5.638C3.05695 6.168 3.00995 6.835 3.00195 8H20.998C20.99 6.835 20.943 6.169 20.673 5.638C20.3853 5.07354 19.9264 4.61462 19.362 4.327C18.72 4 17.88 4 16.2 4Z" fill="#111111"/>
<path d="M21 11.53V8.8C21 8.50929 21 8.24373 20.9983 8M11.9947 20H7.8C6.11984 20 5.27976 20 4.63803 19.673C4.07354 19.3854 3.6146 18.9265 3.32698 18.362C3 17.7202 3 16.8802 3 15.2V8.8C3 8.50929 3 8.24373 3.00169 8M20.9983 8C20.9902 6.83507 20.9434 6.16873 20.673 5.63803C20.3854 5.07354 19.9265 4.6146 19.362 4.32698C18.7202 4 17.8802 4 16.2 4H7.8C6.11984 4 5.27976 4 4.63803 4.32698C4.07354 4.6146 3.6146 5.07354 3.32698 5.63803C3.05658 6.16873 3.00979 6.83507 3.00169 8M20.9983 8H3.00169M15 22H15.001M19 15C18.3625 16.6165 17.6609 17.345 16 18C17.6609 18.655 18.3625 19.3835 19 21C19.6375 19.3835 20.3391 18.655 22 18C20.3391 17.345 19.6375 16.6165 19 15Z" stroke="#111111" stroke-width="2" stroke-linecap="round" stroke-linejoin="round"/>
</svg>
