<svg
  xmlns="http://www.w3.org/2000/svg"
  width="24"
  height="24"
  viewBox="0 0 24 24"
  fill="none"
  stroke="currentColor"
  stroke-width="2"
  stroke-linecap="round"
  stroke-linejoin="round"
>
  <path d="M1.5 6L8 3L9.09 3.272C11.0006 3.74958 12.9994 3.74958 14.91 3.272L16 3L22.5 6L21 11L18 10V20C18 20.2652 17.8946 20.5196 17.7071 20.7071C17.5196 20.8946 17.2652 21 17 21H7C6.73478 21 6.48043 20.8946 6.29289 20.7071C6.10536 20.5196 6 20.2652 6 20V10L3 11L1.5 6Z" stroke="#111111" stroke-width="2" opacity="0.28"/ fill="none">
  <path d="M6 10L3 11L1.5 6L8 3L9.09 3.272C11.0006 3.74958 12.9994 3.74958 14.91 3.272L16 3L22.5 6L21 11L18 10" stroke="currentColor" stroke-width="2"/ fill="none">
</svg>