<svg
  xmlns="http://www.w3.org/2000/svg"
  width="24"
  height="24"
  viewBox="0 0 24 24"
  fill="none"
  stroke="currentColor"
  stroke-width="2"
  stroke-linecap="round"
  stroke-linejoin="round"
>
  <path d="M9.2503 10.5077C8.09034 10.2624 6.88216 10.3985 5.80583 10.8957C4.72951 11.3929 3.84266 12.2246 3.27747 13.2668C2.71228 14.309 2.499 15.506 2.66943 16.6793C2.83986 17.8526 3.38487 18.9394 4.22322 19.7778C5.06158 20.6161 6.1484 21.1611 7.3217 21.3316C8.49501 21.502 9.69197 21.2887 10.7342 20.7235C11.7764 20.1583 12.6081 19.2715 13.1053 18.1952C13.6025 17.1188 13.7386 15.9107 13.4933 14.7507L15.5363 12.7067C15.7238 12.5192 15.8292 12.2649 15.8293 11.9997V10.8797H16.9493C17.0808 10.8797 17.2111 10.8537 17.3326 10.8033C17.4541 10.7528 17.5644 10.6789 17.6573 10.5857L19.7783 8.46471C19.9658 8.27722 20.0712 8.02291 20.0713 7.75771V4.92871C20.0713 4.66349 19.9659 4.40914 19.7784 4.2216C19.5909 4.03407 19.3365 3.92871 19.0713 3.92871H16.2433C15.9781 3.92877 15.7238 4.03416 15.5363 4.22171L9.2503 10.5077ZM5.6073 15.7347C5.63604 15.5324 5.72058 15.342 5.85144 15.1851C5.98231 15.0281 6.15431 14.9107 6.34818 14.846C6.54204 14.7813 6.75009 14.7719 6.949 14.8188C7.14791 14.8658 7.3298 14.9672 7.4743 15.1117L8.8883 16.5257C9.03283 16.6702 9.13425 16.8521 9.18119 17.051C9.22813 17.2499 9.21872 17.458 9.15403 17.6518C9.08934 17.8457 8.97193 18.0177 8.81495 18.1486C8.65797 18.2794 8.46764 18.364 8.2653 18.3927C7.9043 18.4439 7.53634 18.4105 7.19049 18.295C6.84464 18.1796 6.53039 17.9853 6.27257 17.7274C6.01475 17.4696 5.82043 17.1554 5.70497 16.8095C5.5895 16.4637 5.55607 16.0957 5.6073 15.7347Z" fill="currentColor" fill-rule="evenodd" clip-rule="evenodd"/ stroke="none">
</svg>