<svg
  xmlns="http://www.w3.org/2000/svg"
  width="24"
  height="24"
  viewBox="0 0 24 24"
  fill="none"
  stroke="currentColor"
  stroke-width="2"
  stroke-linecap="round"
  stroke-linejoin="round"
>
  <path d="M10 20H14C16.8003 20 18.2004 20 19.27 19.455C20.2108 18.9757 20.9757 18.2108 21.455 17.27C22 16.2004 22 14.8003 22 12V11.8498C22 11.5333 22 11.3751 21.9758 11.2209C21.9641 11.1464 21.9482 11.0726 21.9282 11H16.9231C16.4133 11 16 11.4133 16 11.9231C16 13.6224 14.6224 15 12.9231 15H11.0769C9.37759 15 8 13.6224 8 11.9231C8 11.4133 7.58672 11 7.07692 11H2.07181C2.05181 11.0726 2.03591 11.1464 2.02421 11.2209C2 11.3751 2 11.5333 2 11.8498V12C2 14.8003 2 16.2004 2.54497 17.27C3.02433 18.2108 3.78924 18.9757 4.73005 19.455C5.79961 20 7.19974 20 10 20Z" stroke="currentColor" stroke-width="2"/ fill="none">
  <path d="M21.8696 10.8202C21.8142 10.6744 21.7356 10.5369 21.5786 10.2622L19.8429 7.22471C19.1718 6.05024 18.8362 5.463 18.3647 5.03578C17.9475 4.65778 17.4553 4.37211 16.9201 4.19743C16.3152 4 15.6389 4 14.2862 4H9.71431C8.36161 4 7.68526 4 7.08039 4.19743C6.54522 4.37211 6.05294 4.65778 5.63576 5.03578C5.16424 5.463 4.82868 6.05024 4.15755 7.22471L2.42187 10.2622C2.26485 10.5369 2.18633 10.6743 2.13086 10.8202" stroke="#111111" stroke-width="2" opacity="0.28"/ fill="none">
</svg>