<svg
  xmlns="http://www.w3.org/2000/svg"
  width="24"
  height="24"
  viewBox="0 0 24 24"
  fill="none"
  stroke="currentColor"
  stroke-width="2"
  stroke-linecap="round"
  stroke-linejoin="round"
>
  <path d="M5 11C4.44772 11 4 11.4477 4 12C4 12.5523 4.44772 13 5 13H12C11.6362 13 11.2935 13.1393 11.0294 13.38C9.94958 14.3637 8.98765 15.5016 8.16607 16.764C8.04343 16.9491 7.98133 17.176 8.00483 17.4142C8.05906 17.9638 8.54857 18.3654 9.09818 18.3111C9.73094 18.2487 10.3652 18.2068 11 18.1853L11 21C11 21.5523 11.4477 22 12 22C12.5523 22 13 21.5523 13 21V18.1853C13.6348 18.2068 14.2691 18.2487 14.9018 18.3111C15.4514 18.3654 15.9409 17.9638 15.9952 17.4142C16.0187 17.176 15.9566 16.9491 15.8339 16.7641C15.0124 15.5016 14.0504 14.3637 12.9706 13.38C12.7065 13.1393 12.3638 13 12 13H19C19.5523 13 20 12.5523 20 12C20 11.4477 19.5523 11 19 11H12C12.3638 11 12.7065 10.8607 12.9706 10.62C14.0504 9.63627 15.0123 8.49839 15.8339 7.23599C15.9566 7.05092 16.0187 6.82403 15.9952 6.58584C15.9409 6.03623 15.4514 5.63463 14.9018 5.68886C14.2691 5.75128 13.6348 5.79324 13 5.81473V3C13 2.44772 12.5523 2 12 2C11.4477 2 11 2.44772 11 3V5.81473C10.3652 5.79324 9.73094 5.75128 9.09818 5.68886C8.54856 5.63463 8.05906 6.03623 8.00483 6.58584C7.98133 6.82402 8.04343 7.0509 8.16608 7.23597C8.98765 8.49837 9.94958 9.63626 11.0294 10.62C11.2935 10.8607 11.6362 11 12 11H5Z" fill="currentColor"/ stroke="none">
</svg>