<svg
  xmlns="http://www.w3.org/2000/svg"
  width="24"
  height="24"
  viewBox="0 0 24 24"
  fill="none"
  stroke="currentColor"
  stroke-width="2"
  stroke-linecap="round"
  stroke-linejoin="round"
>
  <path d="M4 21C3.44771 21 3 20.5523 3 20C3 19.4477 3.44772 19 4 19H7C8.41663 19 9.41896 18.9992 10.2026 18.9352C10.9745 18.8721 11.4457 18.7527 11.816 18.564C12.5686 18.1805 13.1805 17.5686 13.564 16.816C13.7527 16.4457 13.8721 15.9745 13.9352 15.2026C13.9992 14.419 14 13.4166 14 12L14 9.37309C13.3317 9.40217 12.6644 9.46041 12 9.54783C11.5567 9.60615 11.1114 9.68243 10.1693 9.84424C9.76678 9.91336 9.36271 9.73081 9.14855 9.3831C8.93438 9.03539 8.95316 8.59239 9.19598 8.26406C10.5435 6.44203 12.1179 4.80519 13.8796 3.39411C14.206 3.13266 14.6025 3 15 3C15.3975 3 15.794 3.13266 16.1204 3.39411C17.8821 4.80519 19.4565 6.44203 20.804 8.26406C21.0468 8.59239 21.0656 9.03539 20.8515 9.3831C20.6373 9.73081 20.2332 9.91336 19.8307 9.84424C18.8885 9.68243 18.4433 9.60615 18 9.54783C17.3356 9.46042 16.6683 9.40217 16 9.37309L16 12.0437C16 13.4068 16 14.4908 15.9286 15.3654C15.8554 16.261 15.7023 17.0247 15.346 17.7239C14.7708 18.8529 13.8529 19.7708 12.7239 20.346C12.0247 20.7023 11.261 20.8554 10.3654 20.9286C9.49086 21 8.40687 21 7.04387 21L4 21Z" fill="currentColor"/ stroke="none">
</svg>