<svg width="24" height="24" viewBox="0 0 24 24" fill="none" xmlns="http://www.w3.org/2000/svg">
<path d="M2 21L12 5.16667M12 5.16667L14 2M12 5.16667L22 21M12 5.16667L10 2" stroke="#111111" stroke-width="2" stroke-linecap="round" stroke-linejoin="round"/>
<path fill-rule="evenodd" clip-rule="evenodd" d="M13.134 13.338C12.8572 13.1703 12.5163 13.1471 12.2193 13.2755C11.9222 13.4039 11.7056 13.6682 11.6381 13.9847C11.5209 14.5341 11.3032 15.1314 11.0633 15.5774C10.9272 15.4139 10.7908 15.2405 10.6731 15.0732C10.4871 14.8086 10.1846 14.6504 9.86116 14.6485C9.53775 14.6466 9.23338 14.8012 9.04418 15.0635C8.4808 15.8445 8 16.8721 8 18.0335C8 18.9913 8.32183 19.9802 9.00627 20.7416C9.7065 21.5207 10.7325 22.0003 12 22.0003C13.2675 22.0003 14.2934 21.5207 14.9937 20.7416C15.6781 19.9802 15.9999 18.9913 15.9999 18.0335C15.9999 16.8847 15.5295 15.867 14.9746 15.0898C14.4203 14.3133 13.725 13.6958 13.134 13.338Z" fill="#111111"/>
</svg>
