<svg width="24" height="24" viewBox="0 0 24 24" fill="none" xmlns="http://www.w3.org/2000/svg">
<path fill-rule="evenodd" clip-rule="evenodd" d="M9.357 2H14.947C15.524 2 16.055 2.06 16.573 2.275C17.09 2.489 17.509 2.822 17.916 3.23L20.77 6.084C21.178 6.491 21.511 6.91 21.725 7.427C21.94 7.945 22 8.477 22 9.053V17C21.9999 18.1526 21.6017 19.2697 20.8729 20.1625C20.144 21.0554 19.1292 21.6691 18 21.9V17.759C18 16.954 18 16.289 17.956 15.749C17.91 15.186 17.811 14.669 17.564 14.184C17.1805 13.4314 16.5686 12.8195 15.816 12.436C15.331 12.189 14.814 12.09 14.252 12.044C13.71 12 13.046 12 12.242 12H11.759C10.954 12 10.289 12 9.749 12.044C9.186 12.09 8.669 12.189 8.184 12.436C7.43139 12.8195 6.81949 13.4314 6.436 14.184C6.189 14.669 6.09 15.186 6.044 15.748C6 16.29 6 16.954 6 17.758V21.9C4.87081 21.6691 3.85599 21.0554 3.12714 20.1625C2.3983 19.2697 2.00014 18.1526 2 17V9.357C2 8.273 2 7.399 2.058 6.691C2.118 5.963 2.243 5.322 2.545 4.731C3.02402 3.78949 3.78893 3.02388 4.73 2.544C5.322 2.242 5.963 2.116 6.691 2.057C7.4 2 8.273 2 9.357 2ZM8 22H16V17.8C16 16.943 16 16.361 15.962 15.911C15.927 15.473 15.862 15.248 15.782 15.092C15.5903 14.7157 15.2843 14.4097 14.908 14.218C14.752 14.138 14.528 14.073 14.089 14.038C13.639 14 13.057 14 12.2 14H11.8C10.943 14 10.361 14 9.911 14.038C9.473 14.073 9.248 14.138 9.092 14.218C8.71569 14.4097 8.40974 14.7157 8.218 15.092C8.138 15.248 8.073 15.472 8.038 15.911C8 16.361 8 16.943 8 17.8V22ZM7 6C6.73478 6 6.48043 6.10536 6.29289 6.29289C6.10536 6.48043 6 6.73478 6 7C6 7.26522 6.10536 7.51957 6.29289 7.70711C6.48043 7.89464 6.73478 8 7 8H11C11.2652 8 11.5196 7.89464 11.7071 7.70711C11.8946 7.51957 12 7.26522 12 7C12 6.73478 11.8946 6.48043 11.7071 6.29289C11.5196 6.10536 11.2652 6 11 6H7Z" fill="#111111"/>
</svg>
