<svg width="24" height="24" viewBox="0 0 24 24" fill="none" xmlns="http://www.w3.org/2000/svg">
<path fill-rule="evenodd" clip-rule="evenodd" d="M12 2H9.525C8.963 2 8.456 2 8 2.007V5C8 5.922 8.014 6.127 8.062 6.263C8.11658 6.41899 8.2056 6.56068 8.32246 6.67754C8.43932 6.79439 8.58101 6.88342 8.737 6.938C8.873 6.986 9.078 7 10 7C10.922 7 11.127 6.986 11.263 6.938C11.419 6.88342 11.5607 6.79439 11.6775 6.67754C11.7944 6.56068 11.8834 6.41899 11.938 6.263C11.986 6.127 12 5.922 12 5V2ZM6 2.16C5.57776 2.23164 5.16836 2.36507 4.785 2.556C3.82489 3.0448 3.04423 3.82511 2.555 4.785C2.249 5.388 2.12 6.04 2.059 6.785C2 7.51 2 8.406 2 9.518V14.484C2 15.596 2 16.491 2.06 17.215C2.12 17.961 2.249 18.613 2.556 19.216C3.0448 20.1761 3.82511 20.9568 4.785 21.446C5.165 21.639 5.567 21.762 6 21.842V16.322C6 15.767 6 15.292 6.032 14.9C6.066 14.488 6.14 14.083 6.338 13.694C6.63523 13.1106 7.10957 12.6362 7.693 12.339C8.082 12.141 8.487 12.067 8.899 12.033C9.291 12 9.766 12 10.321 12H13.679C14.234 12 14.709 12 15.101 12.032C15.513 12.066 15.918 12.14 16.307 12.338C16.8904 12.6352 17.3648 13.1096 17.662 13.693C17.86 14.082 17.934 14.487 17.968 14.899C18 15.291 18 15.766 18 16.321V21.84C18.4222 21.7684 18.8316 21.6349 19.215 21.444C20.1751 20.9552 20.9558 20.1749 21.445 19.215C21.751 18.612 21.88 17.96 21.941 17.215C22 16.49 22 15.595 22 14.483V8.916C22 8.536 22 8.199 21.915 7.852C21.8403 7.54699 21.7192 7.25525 21.556 6.987C21.369 6.682 21.123 6.437 20.846 6.16L20.791 6.105L17.895 3.209L17.84 3.154C17.564 2.877 17.318 2.631 17.013 2.444C16.7448 2.28035 16.4531 2.15893 16.148 2.084C15.801 2.001 15.463 2.001 15.084 2H14V5.148C14.001 5.838 14.002 6.422 13.826 6.924C13.6722 7.36353 13.4213 7.76276 13.092 8.09204C12.7628 8.42131 12.3635 8.67218 11.924 8.826C11.422 9.002 10.837 9.001 10.148 9H9.852C9.162 9.001 8.578 9.002 8.076 8.826C7.63647 8.67218 7.23724 8.42131 6.90796 8.09204C6.57868 7.76276 6.32782 7.36353 6.174 6.924C5.998 6.422 5.999 5.837 6 5.148V2.16ZM16 21.993V16.36C16 15.755 16 15.362 15.975 15.062C15.951 14.774 15.911 14.661 15.88 14.601C15.7748 14.394 15.6068 14.2257 15.4 14.12C15.34 14.09 15.226 14.049 14.938 14.025C14.638 14.001 14.245 14 13.64 14H10.36C9.755 14 9.362 14 9.062 14.025C8.774 14.049 8.661 14.089 8.601 14.12C8.39403 14.2252 8.22566 14.3932 8.12 14.6C8.09 14.66 8.049 14.774 8.025 15.062C8.001 15.362 8 15.755 8 16.36V21.993C8.456 22 8.963 22 9.525 22H14.475C15.038 22 15.544 22.001 16 21.993Z" fill="#111111"/>
</svg>
