<svg width="24" height="24" viewBox="0 0 24 24" fill="none" xmlns="http://www.w3.org/2000/svg">
<path fill-rule="evenodd" clip-rule="evenodd" d="M6.691 2.058C7.4 2 8.273 2 9.357 2H14.643C15.727 2 16.601 2 17.309 2.058C18.037 2.118 18.678 2.243 19.269 2.545C20.2101 3.02419 20.9754 3.78908 21.455 4.73C21.757 5.322 21.883 5.963 21.942 6.691C21.955 6.849 21.965 7.015 21.972 7.189V7.191C21.985 7.464 21.992 7.601 21.938 7.713C21.8913 7.81102 21.8146 7.8916 21.719 7.943C21.61 8 21.468 8 21.184 8H2.816C2.532 8 2.39 8 2.281 7.942C2.18516 7.89102 2.10809 7.8108 2.061 7.713C2.009 7.601 2.015 7.464 2.027 7.19C2.035 7.015 2.045 6.849 2.057 6.691C2.117 5.963 2.243 5.322 2.545 4.731C3.02402 3.78949 3.78893 3.02388 4.73 2.544C5.322 2.242 5.962 2.116 6.691 2.057V2.058ZM2 10.8V14.2C2 14.48 2 14.62 2.054 14.727C2.10215 14.821 2.17881 14.8973 2.273 14.945C2.38 15 2.52 15 2.799 15H8.2C8.48 15 8.62 15 8.727 14.945C8.82082 14.8971 8.89711 14.8208 8.945 14.727C9 14.62 9 14.48 9 14.2V10.8C9 10.52 9 10.38 8.945 10.273C8.89711 10.1792 8.82082 10.1029 8.727 10.055C8.62 10 8.48 10 8.2 10H2.8C2.52 10 2.38 10 2.273 10.055C2.17881 10.1027 2.10215 10.179 2.054 10.273C2 10.38 2 10.52 2 10.8ZM9 17.8V21.2C9 21.48 9 21.62 8.944 21.728C8.89542 21.822 8.81844 21.8983 8.724 21.946C8.616 22 8.477 21.999 8.199 21.996C7.65099 21.9968 7.10318 21.9748 6.557 21.93C5.884 21.866 5.287 21.738 4.73 21.455C3.78923 20.9756 3.02436 20.2108 2.545 19.27C2.261 18.714 2.134 18.116 2.07 17.443C2.06512 17.3864 2.07213 17.3294 2.09056 17.2756C2.109 17.2219 2.13846 17.1726 2.17706 17.1309C2.21566 17.0891 2.26254 17.056 2.31471 17.0334C2.36688 17.0109 2.42318 16.9995 2.48 17H8.2C8.48 17 8.62 17 8.727 17.055C8.82082 17.1029 8.89711 17.1792 8.945 17.273C9 17.38 9 17.52 9 17.8ZM19.224 12.274C19.45 12.092 19.724 12.001 19.997 12H20.003C20.277 12 20.55 12.092 20.776 12.274C21.543 12.891 22.226 13.61 22.809 14.412C22.9175 14.5612 22.9825 14.7375 22.997 14.9214C23.0115 15.1053 22.9749 15.2896 22.8912 15.4539C22.8074 15.6183 22.6799 15.7563 22.5226 15.8527C22.3653 15.949 22.1845 16 22 16H21V18C21 18.7956 20.6839 19.5587 20.1213 20.1213C19.5587 20.6839 18.7956 21 18 21H16.4V22C16.3999 22.1773 16.3527 22.3514 16.2633 22.5044C16.1738 22.6574 16.0452 22.7839 15.8908 22.8709C15.7363 22.9579 15.5615 23.0023 15.3842 22.9995C15.207 22.9967 15.0336 22.9468 14.882 22.855C13.9529 22.2968 13.0998 21.6209 12.344 20.844C12.1231 20.6186 11.9995 20.3156 11.9995 20C11.9995 19.6844 12.1231 19.3814 12.344 19.156C13.0998 18.3791 13.9529 17.7032 14.882 17.145C15.0336 17.0532 15.207 17.0033 15.3842 17.0005C15.5615 16.9977 15.7363 17.0421 15.8908 17.1291C16.0452 17.2161 16.1738 17.3426 16.2633 17.4956C16.3527 17.6486 16.3999 17.8227 16.4 18V19H18C18.2652 19 18.5196 18.8946 18.7071 18.7071C18.8946 18.5196 19 18.2652 19 18V16H18C17.8155 16 17.6347 15.949 17.4774 15.8527C17.3201 15.7563 17.1926 15.6183 17.1088 15.4539C17.0251 15.2896 16.9885 15.1053 17.003 14.9214C17.0175 14.7375 17.0825 14.5612 17.191 14.412C17.7712 13.6126 18.4548 12.8937 19.224 12.274Z" fill="#111111"/>
</svg>
