<svg
  xmlns="http://www.w3.org/2000/svg"
  width="24"
  height="24"
  viewBox="0 0 24 24"
  fill="none"
  stroke="currentColor"
  stroke-width="2"
  stroke-linecap="round"
  stroke-linejoin="round"
>
  <path d="M13.5337 1.86965V3.01213C13.5337 4.69229 13.5337 5.53237 13.8607 6.17411C14.1483 6.73859 14.6072 7.19753 15.1717 7.48515C15.8135 7.81213 16.6535 7.81213 18.3337 7.81213L19.4762 7.81213M13.5337 1.86965C13.1402 1.81213 12.6697 1.81213 11.8827 1.81213H9.93369C7.69348 1.81213 6.57338 1.81213 5.71773 2.24811C4.96508 2.6316 4.35316 3.24352 3.96967 3.99617C3.53369 4.85182 3.53369 5.97192 3.53369 8.21213V15.4121C3.53369 17.6523 3.53369 18.7725 3.96967 19.6281C4.35316 20.3807 4.96508 20.9927 5.71773 21.3762C6.57338 21.8121 7.69348 21.8121 9.93369 21.8121H13.1337C15.3739 21.8121 16.494 21.8121 17.3497 21.3762C18.1023 20.9927 18.7142 20.3807 19.0977 19.6281C19.5337 18.7725 19.5337 17.6523 19.5337 15.4121V9.4631C19.5337 8.67613 19.5337 8.20567 19.4762 7.81213M13.5337 1.86965C13.6294 1.88364 13.7206 1.90103 13.8106 1.92265C14.2188 2.02064 14.6089 2.18226 14.9668 2.40157C15.3705 2.64894 15.7164 2.99484 16.4082 3.68665L17.6592 4.93762C18.351 5.62942 18.6969 5.97533 18.9443 6.37899C19.1636 6.73688 19.3252 7.12706 19.4232 7.53521C19.4448 7.62526 19.4622 7.71642 19.4762 7.81213" stroke="currentColor" stroke-width="2"/>
  <path d="M4 15.6C4 17.8402 4 18.9603 4.43597 19.816C4.81947 20.5686 5.43139 21.1805 6.18404 21.564C7.03968 22 8.15979 22 10.4 22H13.6C15.8402 22 16.9603 22 17.816 21.564C18.5686 21.1805 19.1805 20.5686 19.564 19.816C20 18.9603 20 17.8402 20 15.6V9.65097C20 8.864 20 8.39354 19.9425 8C19.9285 7.90429 19.9111 7.81313 19.8895 7.72307C19.7915 7.31493 19.6299 6.92475 19.4106 6.56686C19.1632 6.16319 18.8173 5.81729 18.1255 5.12548L16.8745 3.87451C16.1827 3.18271 15.8368 2.83681 15.4331 2.58944C15.0753 2.37012 14.6851 2.20851 14.2769 2.11052C14.1869 2.0889 14.0957 2.07151 14 2.05752C13.6065 2 13.136 2 12.349 2H10.4C8.15979 2 7.03968 2 6.18404 2.43597C5.43139 2.81947 4.81947 3.43139 4.43597 4.18404C4 5.03968 4 6.15979 4 8.4V15.6Z" fill="currentColor" opacity="0.28"/>
  <path d="M7.53369 16.8121H7.54369M11.5337 9.81213C10.8962 11.4286 10.1946 12.1571 8.53369 12.8121C10.1946 13.4671 10.8962 14.1956 11.5337 15.8121C12.1712 14.1956 12.8728 13.4671 14.5337 12.8121C12.8728 12.1571 12.1712 11.4286 11.5337 9.81213Z" stroke="currentColor" stroke-width="2"/>
</svg>