<svg width="24" height="24" viewBox="0 0 24 24" fill="none" xmlns="http://www.w3.org/2000/svg">
<path opacity="0.28" d="M2.50098 9.07952C2.50098 6.95149 2.50098 5.88748 2.91512 5.07467C3.27941 4.35971 3.86069 3.77843 4.57565 3.41414C5.38845 3 6.45247 3 8.5805 3H15.42C17.548 3 18.612 3 19.4248 3.41414C20.1398 3.77843 20.7211 4.35971 21.0854 5.07467C21.4995 5.88748 21.4995 6.95149 21.4995 9.07952V13.6394C21.4995 14.3452 21.4995 14.698 21.4527 14.9933C21.1953 16.6193 19.92 17.8946 18.294 18.1521C17.7243 18.2423 17.1452 18.1539 16.5742 18.207C16.1009 18.251 15.6612 18.4709 15.342 18.8233C15.0076 19.1925 14.7309 19.6249 14.4325 20.023C13.6074 21.1236 13.1948 21.674 12.689 21.8707C12.246 22.0431 11.7545 22.0431 11.3114 21.8707C10.8056 21.674 10.3931 21.1236 9.568 20.023C9.26961 19.6249 8.9929 19.1925 8.65844 18.8233C8.33928 18.4709 7.89961 18.251 7.42623 18.207C6.85524 18.1539 6.27615 18.2423 5.70648 18.1521C4.08045 17.8946 2.80517 16.6193 2.54772 14.9933C2.50098 14.698 2.50098 14.3452 2.50098 13.6394V9.07952Z" stroke="#111111" stroke-width="2" stroke-linecap="round" stroke-linejoin="round"/>
<path d="M12 8C12.0037 8.10095 12.0055 8.15142 12.0084 8.19485C12.1071 9.69666 13.3033 10.8929 14.8052 10.9916C14.8486 10.9945 14.8991 10.9963 15 11C14.8991 11.0037 14.8486 11.0055 14.8052 11.0084C13.3033 11.1071 12.1071 12.3033 12.0084 13.8052C12.0055 13.8486 12.0037 13.8991 12 14C11.9963 13.8991 11.9945 13.8486 11.9916 13.8052C11.8929 12.3033 10.6967 11.1071 9.19485 11.0084C9.15142 11.0055 9.10095 11.0037 9 11C9.10095 10.9963 9.15142 10.9945 9.19485 10.9916C10.6967 10.8929 11.8929 9.69666 11.9916 8.19485C11.9945 8.15142 11.9963 8.10095 12 8Z" stroke="#111111" stroke-width="2" stroke-linecap="round" stroke-linejoin="round"/>
</svg>
