<svg width="24" height="24" viewBox="0 0 24 24" fill="none" xmlns="http://www.w3.org/2000/svg">
<path opacity="0.28" d="M4.93367 12L3.08987 5.73239C2.60867 4.09667 4.14094 2.58539 5.75514 3.10362C10.2067 4.53274 14.4553 6.53713 18.3948 9.06662C19.5259 9.79292 21 10.4417 21 12C21 13.5583 19.5259 14.2071 18.3948 14.9334C14.4553 17.4629 10.2067 19.4673 5.75514 20.8964C4.14094 21.4146 2.60867 19.9033 3.08987 18.2676L4.93367 12ZM4.93367 12H9.83493" stroke="#111111" stroke-width="2" stroke-linecap="round" stroke-linejoin="round"/>
<path d="M4.93359 12H9.83485M12.9999 17.9747C14.8525 17.0663 16.6538 16.051 18.3947 14.9332C19.5259 14.2069 20.9999 13.5581 20.9999 11.9998C20.9999 10.4415 19.5259 9.79274 18.3947 9.06644C16.6538 7.9486 14.8525 6.93331 12.9999 6.0249" stroke="#111111" stroke-width="2" stroke-linecap="round" stroke-linejoin="round"/>
</svg>
