<svg width="24" height="24" viewBox="0 0 24 24" fill="none" xmlns="http://www.w3.org/2000/svg">
<path opacity="0.28" d="M3.40565 5.8254C3.19748 4.88863 3.91031 4 4.86993 4H19.1301C20.0897 4 20.8025 4.88863 20.5944 5.8254L19.435 11.0423C19.1809 12.1862 18.1663 13 16.9946 13H7.00544C5.83369 13 4.81916 12.1862 4.56497 11.0423L3.40565 5.8254Z" fill="#111111"/>
<path d="M3.40565 5.8254C3.19748 4.88863 3.91031 4 4.86993 4H19.1301C20.0897 4 20.8025 4.88863 20.5944 5.8254L19.435 11.0423C19.1809 12.1862 18.1663 13 16.9946 13H7.00544C5.83369 13 4.81916 12.1862 4.56497 11.0423L3.40565 5.8254Z" stroke="#111111" stroke-width="2" stroke-linecap="round" stroke-linejoin="round"/>
<path d="M4 8H20" stroke="#111111" stroke-width="2" stroke-linecap="round" stroke-linejoin="round"/>
<path d="M9 8L10 13" stroke="#111111" stroke-width="2" stroke-linecap="round" stroke-linejoin="round"/>
<path d="M15 8L14 13" stroke="#111111" stroke-width="2" stroke-linecap="round" stroke-linejoin="round"/>
<path d="M12 4L12 2" stroke="#111111" stroke-width="2" stroke-linecap="round" stroke-linejoin="round"/>
<path d="M7 13L6.5 22M17 13L17.5 22" stroke="#111111" stroke-width="2" stroke-linecap="round" stroke-linejoin="round"/>
</svg>
