<svg width="24" height="24" viewBox="0 0 24 24" fill="none" xmlns="http://www.w3.org/2000/svg">
<path d="M2 20H11M19 20H22" stroke="#111111" stroke-width="2" stroke-linecap="round" stroke-linejoin="round"/>
<path d="M5 20V7.98047C5 6.58034 5 5.88027 5.27248 5.34549C5.51217 4.87509 5.89462 4.49264 6.36502 4.25295C6.8998 3.98047 7.59987 3.98047 9 3.98047H11" stroke="#111111" stroke-width="2" stroke-linecap="round" stroke-linejoin="round"/>
<path d="M11 20.7132V3.3084C11 2.53267 11 2.1448 11.1629 1.89552C11.3054 1.67745 11.5274 1.5236 11.7817 1.46673C12.0723 1.40171 12.4355 1.5379 13.1618 1.81028L16.4045 3.02629C17.3403 3.3772 17.8081 3.55265 18.1529 3.85651C18.4575 4.12495 18.6922 4.46353 18.8365 4.84298C19 5.27252 19 5.77221 19 6.7716V17.2837C19 18.2923 19 18.7966 18.8341 19.229C18.6876 19.6109 18.4495 19.9511 18.1409 20.2196C17.7914 20.5236 17.3176 20.6963 16.3701 21.0417L13.148 22.2165C12.4254 22.4799 12.0642 22.6116 11.7754 22.5451C11.5228 22.4869 11.3027 22.3328 11.1614 22.1154C11 21.8669 11 21.4824 11 20.7132Z" stroke="#111111" stroke-width="2" stroke-linecap="round" stroke-linejoin="round"/>
<path opacity="0.28" d="M11 20.7132V3.3084C11 2.53267 11 2.1448 11.1629 1.89552C11.3054 1.67745 11.5274 1.5236 11.7817 1.46673C12.0723 1.40171 12.4355 1.5379 13.1618 1.81028L16.4045 3.02629C17.3403 3.3772 17.8081 3.55265 18.1529 3.85651C18.4575 4.12495 18.6922 4.46353 18.8365 4.84298C19 5.27252 19 5.77221 19 6.7716V17.2837C19 18.2923 19 18.7966 18.8341 19.229C18.6876 19.6109 18.4495 19.9511 18.1409 20.2196C17.7914 20.5236 17.3177 20.6963 16.3701 21.0417L13.148 22.2165C12.4254 22.4799 12.0642 22.6116 11.7754 22.5451C11.5228 22.4869 11.3027 22.3328 11.1614 22.1154C11 21.8669 11 21.4824 11 20.7132Z" fill="#111111"/>
<path d="M14.9473 11.6182H14.0293" stroke="#111111" stroke-width="2" stroke-linecap="round" stroke-linejoin="round"/>
</svg>
