<svg
  xmlns="http://www.w3.org/2000/svg"
  width="24"
  height="24"
  viewBox="0 0 24 24"
  fill="none"
  stroke="currentColor"
  stroke-width="2"
  stroke-linecap="round"
  stroke-linejoin="round"
>
  <path d="M16.4004 1.00001C16.6638 1.00001 16.9219 0.998905 17.1387 1.01662C17.3672 1.03531 17.637 1.07959 17.9082 1.21779L18.0459 1.29494C18.3144 1.45964 18.5404 1.68561 18.7051 1.95412L18.7823 2.09181L18.8692 2.29494C18.9407 2.49577 18.9694 2.69007 18.9834 2.86134C19.0012 3.07815 19 3.33624 19 3.59962V4.66701L20.8399 7.12013L21.2784 7.71779C21.4047 7.90077 21.5114 8.0744 21.6006 8.2588L21.6915 8.45997C21.7199 8.52817 21.7469 8.59739 21.7715 8.66701L21.8584 8.9463C21.8842 9.04077 21.907 9.13616 21.9258 9.23244L21.9707 9.5381C22.0026 9.84878 22 10.1833 22 10.5996V16.9678C22 17.6567 22.0004 18.2338 21.962 18.7041C21.9275 19.1258 21.8584 19.5293 21.6934 19.9141L21.6163 20.0781C21.3209 20.6577 20.8718 21.1423 20.3204 21.4805L20.0782 21.6162C19.6442 21.8373 19.1862 21.9225 18.7041 21.9619C18.2338 22.0003 17.6568 22 16.9678 22H7.03227C6.34333 22 5.76624 22.0003 5.29594 21.9619C4.87424 21.9275 4.47079 21.8583 4.08598 21.6934L3.92192 21.6162C3.34242 21.3209 2.85775 20.8717 2.51958 20.3203L2.38383 20.0781C2.16271 19.6441 2.07751 19.1862 2.03813 18.7041C1.99973 18.2338 2.00004 17.6567 2.00004 16.9678V10.5996C2.00004 10.0442 1.99569 9.63436 2.07426 9.23244L2.13188 8.98146C2.19739 8.73266 2.28728 8.49078 2.39946 8.2588L2.54594 7.98732C2.70691 7.71945 2.91017 7.45351 3.1602 7.12013L5.00004 4.66701V3.59962C5.00004 3.33624 4.99893 3.07815 5.01665 2.86134C5.03534 2.63284 5.07961 2.36307 5.21782 2.09181L5.29497 1.95412C5.48711 1.64087 5.76262 1.38556 6.09184 1.21779L6.29497 1.13087C6.49579 1.05939 6.6901 1.03063 6.86137 1.01662C7.07817 0.998902 7.33628 1.00001 7.59965 1.00001H16.4004ZM4.75981 8.32033C4.47586 8.69892 4.34496 8.878 4.26567 9.0088L4.19926 9.12892C4.14308 9.2451 4.09825 9.36661 4.06547 9.49123L4.03715 9.61623C4.00429 9.78433 4.00005 9.9683 4.00004 10.5996V16.9678C4.00004 17.6899 4.00106 18.172 4.03129 18.542C4.06058 18.9001 4.11255 19.0649 4.16606 19.1699L4.22465 19.2744C4.37069 19.5126 4.57986 19.7065 4.83012 19.834L4.92192 19.874C5.02938 19.9126 5.18941 19.9468 5.45805 19.9688C5.82809 19.999 6.31013 20 7.03227 20H8.00004V9.33205L6.00004 6.66603L4.75981 8.32033ZM9.49907 8.00001H19L17.5 6.00001H7.99907L9.49907 8.00001ZM7.59965 3.00001C7.3034 3.00001 7.14099 3.00124 7.02446 3.01076C7.02002 3.01112 7.01575 3.01137 7.01176 3.01173C7.01139 3.01573 7.01115 3.01997 7.01079 3.02443C7.00127 3.14096 7.00004 3.30335 7.00004 3.59962V4.00001H17V3.59962C17 3.30335 16.9988 3.14096 16.9893 3.02443C16.9889 3.01994 16.9877 3.01576 16.9873 3.01173C16.9836 3.0114 16.9797 3.01109 16.9756 3.01076C16.8591 3.00124 16.6967 3.00001 16.4004 3.00001H7.59965Z" fill="currentColor" fill-rule="evenodd" clip-rule="evenodd"/ stroke="none">
</svg>