<svg
  xmlns="http://www.w3.org/2000/svg"
  width="24"
  height="24"
  viewBox="0 0 24 24"
  fill="none"
  stroke="currentColor"
  stroke-width="2"
  stroke-linecap="round"
  stroke-linejoin="round"
>
  <path d="M14.8433 4.00003C15.3221 3.99974 15.7114 3.9995 16.1084 4.09269C16.4425 4.17112 16.8073 4.31864 17.102 4.49449C17.4517 4.70322 17.7088 4.95199 18.0213 5.25456L18.07 5.30165C19.7496 6.92562 21.2754 8.75121 22.6228 10.7472C22.881 11.1296 23 11.5729 23 12.0001C23 12.4272 22.881 12.8705 22.6228 13.2529C21.2754 15.2489 19.7496 17.0745 18.07 18.6985L18.0213 18.7456C17.7087 19.0481 17.4517 19.2969 17.102 19.5056C16.8073 19.6815 16.4425 19.829 16.1084 19.9074C15.7114 20.0006 15.3221 20.0004 14.8433 20.0001L6.95987 20.0001C6.29399 20.0001 5.73445 20.0001 5.27657 19.9627C4.79785 19.9236 4.34289 19.8386 3.91103 19.6186C3.25247 19.283 2.71703 18.7476 2.38148 18.089C2.16144 17.6572 2.0765 17.2022 2.03738 16.7235C1.99997 16.2656 1.99999 15.7061 2 15.0402V8.95991C1.99999 8.29404 1.99997 7.73451 2.03738 7.27664C2.0765 6.79792 2.16144 6.34296 2.38148 5.9111C2.71703 5.25253 3.25247 4.7171 3.91103 4.38154C4.34289 4.1615 4.79785 4.07656 5.27657 4.03745C5.73445 4.00004 6.29397 4.00005 6.95985 4.00007L14.8433 4.00003ZM8.70711 8.29296C8.31658 7.90243 7.68342 7.90243 7.29289 8.29296C6.90237 8.68348 6.90237 9.31665 7.29289 9.70717L9.58579 12.0001L7.29289 14.293C6.90237 14.6835 6.90237 15.3166 7.29289 15.7072C7.68342 16.0977 8.31658 16.0977 8.70711 15.7072L11 13.4143L13.2929 15.7072C13.6834 16.0977 14.3166 16.0977 14.7071 15.7072C15.0976 15.3166 15.0976 14.6835 14.7071 14.293L12.4142 12.0001L14.7071 9.70717C15.0976 9.31665 15.0976 8.68348 14.7071 8.29296C14.3166 7.90243 13.6834 7.90243 13.2929 8.29296L11 10.5859L8.70711 8.29296Z" fill="currentColor" fill-rule="evenodd" clip-rule="evenodd"/ stroke="none">
</svg>