<svg
  xmlns="http://www.w3.org/2000/svg"
  width="24"
  height="24"
  viewBox="0 0 24 24"
  fill="none"
  stroke="currentColor"
  stroke-width="2"
  stroke-linecap="round"
  stroke-linejoin="round"
>
  <path d="M1.8501 12.0001C1.8501 6.3941 6.3941 1.8501 12.0001 1.8501C17.6061 1.8501 22.1501 6.3941 22.1501 12.0001C22.1501 17.6051 17.6061 22.1501 12.0001 22.1501C6.3941 22.1501 1.8501 17.6051 1.8501 12.0001ZM12.4451 7.1681C12.6375 7.03982 12.8684 6.98217 13.0984 7.00496C13.3285 7.02775 13.5436 7.12958 13.7071 7.2931L14.7071 8.2931C14.8946 8.48059 15 8.7349 15.0001 9.0001V12.1701C16.1651 12.5831 17.0001 13.6941 17.0001 15.0001V17.9351C17.0001 18.2003 16.8947 18.4547 16.7072 18.6422C16.5197 18.8297 16.2653 18.9351 16.0001 18.9351C15.7349 18.9351 15.4805 18.8297 15.293 18.6422C15.1055 18.4547 15.0001 18.2003 15.0001 17.9351V15.0001C15.0001 14.7349 14.8947 14.4805 14.7072 14.293C14.5197 14.1055 14.2653 14.0001 14.0001 14.0001H10.0001C9.73488 14.0001 9.48053 14.1055 9.29299 14.293C9.10545 14.4805 9.0001 14.7349 9.0001 15.0001V17.9351C9.0001 18.2003 8.89474 18.4547 8.7072 18.6422C8.51967 18.8297 8.26531 18.9351 8.0001 18.9351C7.73488 18.9351 7.48053 18.8297 7.29299 18.6422C7.10545 18.4547 7.0001 18.2003 7.0001 17.9351V15.0001C7.0001 13.6941 7.8351 12.5831 9.0001 12.1701V10.0001C9.00007 9.83551 9.04068 9.67345 9.1183 9.52832C9.19593 9.38318 9.30818 9.25945 9.4451 9.1681L12.4451 7.1681Z" fill="currentColor" fill-rule="evenodd" clip-rule="evenodd"/ stroke="none">
</svg>