<svg
  xmlns="http://www.w3.org/2000/svg"
  width="24"
  height="24"
  viewBox="0 0 24 24"
  fill="none"
  stroke="currentColor"
  stroke-width="2"
  stroke-linecap="round"
  stroke-linejoin="round"
>
  <path d="M21.9627 3.17157C20.4006 1.60948 17.8679 1.60948 16.3058 3.17157L15.5987 3.87868L15.4817 3.76164C14.3747 2.6547 12.58 2.6547 11.4731 3.76164L10.1988 5.03599C9.62732 5.60742 9.70576 6.55519 10.3634 7.02491C10.7546 7.30436 11.1394 7.59202 11.5176 7.88767L5.76971 13.6355C5.46465 13.9399 5.19652 14.2076 5.00475 14.5271C4.74978 14.952 4.60403 15.4334 4.5805 15.9283C4.5628 16.3006 4.63745 16.672 4.72239 17.0945L4.7269 17.117L4.24516 18.5622C4.17345 18.7772 4.09955 18.9988 4.05544 19.1865C4.01253 19.3691 3.94623 19.7108 4.07664 20.0765C4.22786 20.5005 4.56159 20.8343 4.98568 20.9855C5.35137 21.1159 5.69303 21.0496 5.87565 21.0067C6.06239 20.9628 6.28231 20.8895 6.49624 20.8182L6.4999 20.817L6.53305 20.8059L7.94513 20.3352L7.96757 20.3397C8.39012 20.4247 8.76152 20.4993 9.13379 20.4816C9.62874 20.4581 10.1101 20.3123 10.535 20.0574C10.8546 19.8656 11.1222 19.5975 11.4267 19.2924L17.1832 13.5358C17.5011 13.9399 17.8099 14.3517 18.1093 14.7709C18.579 15.4285 19.5268 15.5069 20.0982 14.9355L21.3726 13.6611C22.4795 12.5542 22.4795 10.7595 21.3726 9.65258L21.2556 9.53553L21.9627 8.82843C23.5248 7.26633 23.5248 4.73367 21.9627 3.17157ZM7.24721 14.9865L13.0619 9.17177C14.0619 10.0556 15.0079 10.9986 15.8947 11.9959L10.0756 17.8149C9.67184 18.2187 9.5865 18.2941 9.50588 18.3425C9.36426 18.4275 9.20379 18.476 9.03881 18.4839C8.94491 18.4884 8.83208 18.473 8.27211 18.361C7.96196 18.2989 7.67601 18.3167 7.37593 18.4168L6.28007 18.7821L6.64536 17.6862C6.74537 17.3861 6.76318 17.1002 6.70115 16.79C6.58915 16.23 6.57377 16.1172 6.57824 16.0233C6.58608 15.8583 6.63467 15.6979 6.71966 15.5562C6.76803 15.4756 6.84341 15.3903 7.24721 14.9865Z" fill="currentColor" fill-rule="evenodd" clip-rule="evenodd"/ stroke="none">
  <path d="M6 4C6 3.44772 5.55228 3 5 3C4.44772 3 4 3.44772 4 4V6H2C1.44772 6 1 6.44771 1 7C1 7.55228 1.44772 8 2 8H4V10C4 10.5523 4.44772 11 5 11C5.55228 11 6 10.5523 6 10V8H8C8.55228 8 9 7.55228 9 7C9 6.44771 8.55228 6 8 6H6V4Z" fill="currentColor"/ stroke="none">
</svg>