<svg width="24" height="24" viewBox="0 0 24 24" fill="none" xmlns="http://www.w3.org/2000/svg">
<path opacity="0.28" d="M7.96449 5C7.06273 4.99999 6.33531 4.99999 5.74331 5.04038C5.13456 5.08191 4.59628 5.16948 4.08658 5.3806C2.86144 5.88807 1.88807 6.86144 1.3806 8.08658C1.16948 8.59628 1.08191 9.13456 1.04038 9.74331C0.999988 10.3353 0.999993 11.0627 1 11.9645V12.0355C0.999993 12.9373 0.999988 13.6647 1.04038 14.2567C1.08191 14.8654 1.16948 15.4037 1.3806 15.9134C1.88807 17.1386 2.86144 18.1119 4.08658 18.6194C4.59628 18.8305 5.13456 18.9181 5.74331 18.9596C6.33531 19 7.06271 19 7.96445 19H14.0355C14.9373 19 15.6647 19 16.2567 18.9596C16.8654 18.9181 17.4037 18.8305 17.9134 18.6194C19.1386 18.1119 20.1119 17.1386 20.6194 15.9134C20.8305 15.4037 20.9181 14.8654 20.9596 14.2567C21 13.6647 21 12.9373 21 12.0355V11.9645C21 11.0627 21 10.3353 20.9596 9.74331C20.9181 9.13456 20.8305 8.59628 20.6194 8.08658C20.1119 6.86144 19.1386 5.88807 17.9134 5.3806C17.4037 5.16948 16.8654 5.08191 16.2567 5.04038C15.6647 4.99999 14.9373 4.99999 14.0355 5H7.96449Z" fill="#111111"/>
<path d="M20 14C20.465 14 20.6975 14 20.8882 13.9489C21.4059 13.8102 21.8102 13.4059 21.9489 12.8882C22 12.6975 22 12.465 22 12C22 11.535 22 11.3025 21.9489 11.1118C21.8102 10.5941 21.4059 10.1898 20.8882 10.0511C20.6975 10 20.465 10 20 10M16 6.02687C16.6545 6.06035 17.1229 6.13556 17.5307 6.30448C18.5108 6.71046 19.2895 7.48915 19.6955 8.46927C20 9.20435 20 10.1362 20 12C20 13.8638 20 14.7957 19.6955 15.5307C19.2895 16.5108 18.5108 17.2895 17.5307 17.6955C16.9407 17.9399 16.2238 17.9881 15 17.9977M7 6.00234C5.77617 6.01185 5.05932 6.06008 4.46927 6.30448C3.48915 6.71046 2.71046 7.48915 2.30448 8.46927C2 9.20435 2 10.1362 2 12C2 13.8638 2 14.7957 2.30448 15.5307C2.71046 16.5108 3.48915 17.2895 4.46927 17.6955C4.87709 17.8644 5.34549 17.9397 6 17.9731M12 6L8.16873 10.9807C7.80175 11.4577 7.61827 11.6963 7.62738 11.88C7.63529 12.0395 7.7189 12.1856 7.85238 12.2732C8.0062 12.3742 8.30482 12.3369 8.90206 12.2622L13.0979 11.7378C13.6952 11.6631 13.9938 11.6258 14.1476 11.7268C14.2811 11.8144 14.3647 11.9605 14.3726 12.12C14.3817 12.3037 14.1982 12.5423 13.8313 13.0193L10 18" stroke="#111111" stroke-width="2" stroke-linecap="round" stroke-linejoin="round"/>
</svg>
