<svg width="24" height="24" viewBox="0 0 24 24" fill="none" xmlns="http://www.w3.org/2000/svg">
<path opacity="0.28" d="M19 14V10C19 6.13401 15.866 3 12 3C8.13401 3 5 6.13401 5 10V14C5 17.866 8.13401 21 12 21C15.866 21 19 17.866 19 14Z" fill="#111111"/>
<path d="M14 9.5C13.5065 10.158 12.934 10.7522 12.2957 11.2694C12.2094 11.3394 12.1047 11.3744 12 11.3744C11.8953 11.3744 11.7906 11.3394 11.7043 11.2694C11.066 10.7522 10.4935 10.158 10 9.5M19 10V14C19 17.866 15.866 21 12 21C8.13401 21 5 17.866 5 14V10C5 6.13401 8.13401 3 12 3C15.866 3 19 6.13401 19 10Z" stroke="#111111" stroke-width="2" stroke-linecap="round" stroke-linejoin="round"/>
</svg>
