<svg width="24" height="24" viewBox="0 0 24 24" fill="none" xmlns="http://www.w3.org/2000/svg">
<path opacity="0.28" fill-rule="evenodd" clip-rule="evenodd" d="M15.0078 2.75692V2H4.4C3.55992 2 3.13988 2 2.81901 2.16349C2.53677 2.3073 2.3073 2.53677 2.16349 2.81901C2 3.13988 2 3.55992 2 4.4V14.6C2 15.4401 2 15.8601 2.16349 16.181C2.3073 16.4632 2.53677 16.6927 2.81901 16.8365C3.13988 17 3.55992 17 4.4 17H19.6C20.4401 17 20.8601 17 21.181 16.8365C21.4632 16.6927 21.6927 16.4632 21.8365 16.181C22 15.8601 22 15.4401 22 14.6V10.6152H21.471C21.0363 10.8602 20.5345 11 20 11C18.3431 11 17 9.65685 17 8C15.3431 8 14 6.65685 14 5C14 4.10774 14.3895 3.30645 15.0078 2.75692Z" fill="#111111"/>
<path d="M14.3529 2.00007H4.4C3.55992 2.00007 3.13988 2.00007 2.81901 2.16356C2.53677 2.30737 2.3073 2.53684 2.16349 2.81908C2 3.13995 2 3.55999 2 4.40007V14.6001C2 15.4401 2 15.8602 2.16349 16.1811C2.3073 16.4633 2.53677 16.6928 2.81901 16.8366C3.13988 17.0001 3.55992 17.0001 4.4 17.0001H12M22 11.4648V14.6001C22 15.4401 22 15.8602 21.8365 16.1811C21.6927 16.4633 21.4632 16.6928 21.181 16.8366C20.8601 17.0001 20.4401 17.0001 19.6 17.0001H12M12 20.8751V17.0001M12 20.8751C10.25 20.8751 8.5 21.2501 7 22.0001M12 20.8751C13.75 20.8751 15.5 21.2501 17 22.0001" stroke="#111111" stroke-width="2" stroke-linecap="round" stroke-linejoin="round"/>
<path d="M20 8V5M20 5V2M20 5H17M20 5H23" stroke="#111111" stroke-width="2" stroke-linecap="round" stroke-linejoin="round"/>
</svg>
