<svg width="24" height="24" viewBox="0 0 24 24" fill="none" xmlns="http://www.w3.org/2000/svg">
<g opacity="0.28">
<path d="M19.564 4.18404C19.5926 4.24008 19.6193 4.29725 19.6442 4.3558L4.3558 19.6442C4 18.8088 4 17.6935 4 15.6V8.4C4 6.15979 4 5.03968 4.43597 4.18404C4.81947 3.43139 5.43139 2.81947 6.18404 2.43597C7.03969 2 8.15979 2 10.4 2H13.6C15.8402 2 16.9603 2 17.816 2.43597C18.5686 2.81947 19.1805 3.43139 19.564 4.18404Z" fill="#111111"/>
<path d="M21 9.65579C21 9.25133 20.7563 8.88669 20.3827 8.73191C20.009 8.57713 19.5789 8.66269 19.2929 8.94868L15.119 13.1226C14.8576 13.384 14.7617 13.7683 14.8697 14.1218C14.9542 14.3983 15 14.6929 15 14.9999C15 16.6568 13.6568 17.9999 12 17.9999C11.6929 17.9999 11.3984 17.9541 11.1219 17.8696C10.7684 17.7616 10.3841 17.8575 10.1227 18.1189L7.00813 21.2334C6.73337 21.5082 6.64265 21.9172 6.77549 22.2824C6.90833 22.6476 7.24068 22.9027 7.62776 22.9367C8.34779 22.9999 9.24053 22.9999 10.3534 22.9999H13.6428C14.7266 22.9999 15.6007 22.9999 16.3086 22.9421C17.0375 22.8825 17.6776 22.7567 18.2699 22.4549C19.2108 21.9756 19.9757 21.2107 20.455 20.2699C20.7568 19.6776 20.8826 19.0374 20.9422 18.3085C21 17.6007 21 16.7265 21 15.6427V9.65579Z" fill="#111111"/>
</g>
<path d="M22 2L19.6442 4.3558M2 22L4.3558 19.6442M7.71525 21.9406C8.39136 22 9.24743 22 10.4 22H13.6C15.8402 22 16.9603 22 17.816 21.564C18.5686 21.1805 19.1805 20.5686 19.564 19.816C20 18.9603 20 17.8402 20 15.6V9.65588M10.8298 18.8261C11.1999 18.9392 11.5929 19 12 19C14.2091 19 16 17.2091 16 15C16 14.5929 15.9392 14.1999 15.8261 13.8298M19.6442 4.3558C19.6193 4.29725 19.5926 4.24008 19.564 4.18404C19.1805 3.43139 18.5686 2.81947 17.816 2.43597C16.9603 2 15.8402 2 13.6 2H10.4C8.15979 2 7.03969 2 6.18404 2.43597C5.43139 2.81947 4.81947 3.43139 4.43597 4.18404C4 5.03968 4 6.15979 4 8.4V15.6C4 17.6935 4 18.8088 4.3558 19.6442M19.6442 4.3558L12.8987 11.1013M12.8987 11.1013C12.6098 11.035 12.309 11 12 11C9.79086 11 8 12.7909 8 15C8 15.309 8.03503 15.6098 8.10135 15.8987M12.8987 11.1013L8.10135 15.8987M8.10135 15.8987L4.3558 19.6442M12 6.50098H12.01M12 7.00342C11.7239 7.00342 11.5 6.77956 11.5 6.50342C11.5 6.22728 11.7239 6.00342 12 6.00342C12.2761 6.00342 12.5 6.22728 12.5 6.50342C12.5 6.77956 12.2761 7.00342 12 7.00342Z" stroke="#111111" stroke-width="2" stroke-linecap="round" stroke-linejoin="round"/>
</svg>
