<svg width="24" height="24" viewBox="0 0 24 24" fill="none" xmlns="http://www.w3.org/2000/svg">
<path opacity="0.28" fill-rule="evenodd" clip-rule="evenodd" d="M19.362 4.327C18.72 4 17.88 4 16.2 4H7.8C6.12 4 5.28 4 4.638 4.327C4.07354 4.61462 3.61462 5.07354 3.327 5.638C3 6.28 3 7.12 3 8.8V15.2C3 16.88 3 17.72 3.327 18.362C3.61462 18.9265 4.07354 19.3854 4.638 19.673C5.28 20 6.12 20 7.8 20H9.262C9.1367 19.6211 9.05878 19.2281 9.03 18.83C9 18.454 9 18.027 9 17.669V15.329C9 14.972 9 14.545 9.03 14.169C9.06896 13.5733 9.22529 12.9911 9.49 12.456C9.92147 11.609 10.61 10.9205 11.457 10.489C11.9921 10.2241 12.5742 10.0678 13.17 10.029C13.546 9.999 13.973 9.999 14.33 9.999H18.67C19.027 9.999 19.453 9.999 19.83 10.029C20.142 10.055 20.552 10.109 21 10.261V8.8C21 7.12 21 6.28 20.673 5.638C20.3854 5.07354 19.9265 4.61462 19.362 4.327Z" fill="#111111"/>
<path fill-rule="evenodd" clip-rule="evenodd" d="M21.9658 15.4017V15.3657C21.9658 14.9757 21.9658 14.6257 21.9418 14.3357C21.9243 13.9994 21.84 13.67 21.6938 13.3667C21.4539 12.8964 21.0713 12.5142 20.6008 12.2747C20.2979 12.128 19.9689 12.043 19.6328 12.0247C19.2899 12.0039 18.9463 11.9962 18.6028 12.0017H14.3298C13.9398 12.0017 13.5898 12.0017 13.2998 12.0257C12.9635 12.0436 12.6341 12.1282 12.3308 12.2747C11.8607 12.5143 11.4785 12.8966 11.2388 13.3667C11.0921 13.6696 11.0071 13.9986 10.9888 14.3347C10.9658 14.6267 10.9658 14.9767 10.9658 15.3657V17.6377C10.9658 18.0277 10.9658 18.3777 10.9898 18.6677C11.0148 18.9807 11.0728 19.3117 11.2388 19.6377C11.4785 20.1078 11.8607 20.4901 12.3308 20.7297C12.6558 20.8947 12.9868 20.9527 13.2988 20.9777C13.5908 21.0017 13.9408 21.0017 14.3288 21.0017H18.6018C18.9918 21.0017 19.3418 21.0017 19.6318 20.9777C19.9448 20.9527 20.2758 20.8947 20.6008 20.7297C21.0711 20.4898 21.4534 20.1072 21.6928 19.6367C21.8395 19.3338 21.9244 19.0047 21.9428 18.6687C21.9658 18.3767 21.9658 18.0267 21.9658 17.6387V15.4007V15.4017Z" fill="#111111"/>
<path d="M21 9.21634V7C21 5.34315 19.6569 4 18 4H6C4.34315 4 3 5.34315 3 7V17C3 18.6569 4.34315 20 6 20H8.22023" stroke="#111111" stroke-width="2" stroke-linecap="round" stroke-linejoin="round"/>
</svg>
