<svg width="24" height="24" viewBox="0 0 24 24" fill="none" xmlns="http://www.w3.org/2000/svg">
<path opacity="0.28" d="M16.2 4.4707C17.88 4.4707 18.72 4.4707 19.362 4.7977C19.9265 5.08532 20.3854 5.54424 20.673 6.1087C21 6.7507 21 7.5907 21 9.2707V15.6707C21 17.3507 21 18.1907 20.673 18.8327C20.3854 19.3972 19.9265 19.8561 19.362 20.1437C18.72 20.4707 17.88 20.4707 16.2 20.4707H7.8C6.12 20.4707 5.28 20.4707 4.638 20.1437C4.07354 19.8561 3.61462 19.3972 3.327 18.8327C3 18.1907 3 17.3507 3 15.6707V9.2707C3 7.5907 3 6.7507 3.327 6.1087C3.61462 5.54424 4.07354 5.08532 4.638 4.7977C5.28 4.4707 6.12 4.4707 7.8 4.4707H16.2Z" fill="#111111"/>
<path d="M16.2 4C17.8802 4 18.7202 4 19.362 4.32698C19.9265 4.6146 20.3854 5.07354 20.673 5.63803C21 6.27976 21 7.11984 21 8.8V15.2C21 16.8802 21 17.7202 20.673 18.362C20.3854 18.9265 19.9265 19.3854 19.362 19.673C18.7202 20 17.8802 20 16.2 20H7.8C6.11984 20 5.27976 20 4.63803 19.673C4.07354 19.3854 3.6146 18.9265 3.32698 18.362C3 17.7202 3 16.8802 3 15.2L3 8.8C3 7.11984 3 6.27976 3.32698 5.63803C3.6146 5.07354 4.07354 4.6146 4.63803 4.32698C5.27976 4 6.11984 4 7.8 4L16.2 4Z" stroke="#111111" stroke-width="2" stroke-linecap="round" stroke-linejoin="round"/>
<path d="M7 7H7.01M10 7H10.01M13 7H13.01" stroke="#111111" stroke-width="2" stroke-linecap="round" stroke-linejoin="round"/>
<path d="M21 10L3 10" stroke="#111111" stroke-width="2" stroke-linecap="round" stroke-linejoin="round"/>
</svg>
