<svg width="24" height="24" viewBox="0 0 24 24" fill="none" xmlns="http://www.w3.org/2000/svg">
<path opacity="0.28" d="M14.6 4.4707H9.4C7.16 4.4707 6.04 4.4707 5.184 4.9067C4.43139 5.29019 3.81949 5.90209 3.436 6.6547C3 7.5107 3 8.6307 3 10.8707V14.0707C3 16.3107 3 17.4307 3.436 18.2867C3.81949 19.0393 4.43139 19.6512 5.184 20.0347C6.04 20.4707 7.16 20.4707 9.4 20.4707H14.6C16.84 20.4707 17.96 20.4707 18.816 20.0347C19.5686 19.6512 20.1805 19.0393 20.564 18.2867C21 17.4307 21 16.3107 21 14.0707V10.8707C21 8.6307 21 7.5107 20.564 6.6547C20.1805 5.90209 19.5686 5.29019 18.816 4.9067C17.96 4.4707 16.84 4.4707 14.6 4.4707Z" fill="#111111"/>
<path d="M14.6 4H9.4C7.15979 4 6.03968 4 5.18404 4.43597C4.43139 4.81947 3.81947 5.43139 3.43597 6.18404C3 7.03969 3 8.15979 3 10.4V13.6C3 15.8402 3 16.9603 3.43597 17.816C3.81947 18.5686 4.43139 19.1805 5.18404 19.564C6.03968 20 7.15979 20 9.4 20H14.6C16.8402 20 17.9603 20 18.816 19.564C19.5686 19.1805 20.1805 18.5686 20.564 17.816C21 16.9603 21 15.8402 21 13.6V10.4C21 8.15979 21 7.03969 20.564 6.18404C20.1805 5.43139 19.5686 4.81947 18.816 4.43597C17.9603 4 16.8402 4 14.6 4Z" stroke="#111111" stroke-width="2" stroke-linecap="round" stroke-linejoin="round"/>
<path d="M12 13.3929V8.75H13C14.1046 8.75 15 9.64543 15 10.75V11.3929C15 12.4974 14.1046 13.3929 13 13.3929H12ZM12 13.3929V15.25M18 8.75V15.25M6 11.75V8.75M6 11.75V15.25M6 11.75L9 8.75M6 11.75L9 15.25" stroke="#111111" stroke-width="2" stroke-linecap="round" stroke-linejoin="round"/>
</svg>
