<svg width="24" height="24" viewBox="0 0 24 24" fill="none" xmlns="http://www.w3.org/2000/svg">
<path opacity="0.28" d="M17.21 3.937C16.488 3.217 15.964 3 14.946 3H9.4C7.16 3 6.04 3 5.184 3.436C4.43139 3.81949 3.81949 4.43139 3.436 5.184C3 6.04 3 7.16 3 9.4V17C3 18.0609 3.42143 19.0783 4.17157 19.8284C4.92172 20.5786 5.93913 21 7 21H17C18.0609 21 19.0783 20.5786 19.8284 19.8284C20.5786 19.0783 21 18.0609 21 17V9.053C21 8.035 20.783 7.511 20.063 6.791L17.21 3.937Z" stroke="#111111" stroke-width="2" stroke-linecap="round" stroke-linejoin="round"/>
<path d="M11 7H7M17 21V17.8C17 16.12 17 15.28 16.673 14.638C16.3854 14.0735 15.9265 13.6146 15.362 13.327C14.72 13 13.88 13 12.2 13H11.8C10.12 13 9.28 13 8.638 13.327C8.07354 13.6146 7.61462 14.0735 7.327 14.638C7 15.28 7 16.12 7 17.8V21" stroke="#111111" stroke-width="2" stroke-linecap="round" stroke-linejoin="round"/>
</svg>
