<svg width="24" height="24" viewBox="0 0 24 24" fill="none" xmlns="http://www.w3.org/2000/svg">
<path opacity="0.28" d="M2.8501 11.9996C2.8501 13.8093 3.38674 15.5784 4.39215 17.0831C5.39757 18.5878 6.8266 19.7606 8.49854 20.4531C10.1705 21.1456 12.0102 21.3268 13.7852 20.9738C15.5601 20.6207 17.1905 19.7493 18.4701 18.4696C19.7498 17.19 20.6212 15.5596 20.9743 13.7847C21.3273 12.0098 21.1461 10.17 20.4536 8.49806C19.7611 6.82611 18.5883 5.39708 17.0836 4.39166C15.5789 3.38625 13.8098 2.84961 12.0001 2.84961V5.99961" stroke="#111111" stroke-width="2" stroke-linecap="round" stroke-linejoin="round"/>
<path d="M8.46411 8.46484L12.5721 11.2678C12.6862 11.3456 12.7818 11.4477 12.852 11.5666C12.9222 11.6856 12.9653 11.8186 12.9782 11.9561C12.9911 12.0936 12.9734 12.2323 12.9266 12.3622C12.8797 12.4922 12.8048 12.6102 12.7071 12.7078C12.6095 12.8055 12.4915 12.8805 12.3615 12.9273C12.2316 12.9742 12.0929 12.9918 11.9554 12.9789C11.8178 12.966 11.6849 12.9229 11.5659 12.8527C11.4469 12.7825 11.3449 12.687 11.2671 12.5728L8.46511 8.46484H8.46411Z" stroke="#111111" stroke-width="2" stroke-linecap="round" stroke-linejoin="round"/>
</svg>
