<svg width="24" height="24" viewBox="0 0 24 24" fill="none" xmlns="http://www.w3.org/2000/svg">
<path opacity="0.28" d="M11.0001 7.99967C11.0001 8.55195 11.4478 8.99967 12.0001 8.99967C12.5524 8.99967 13.0001 8.55195 13.0001 7.99967H11.0001ZM13.0001 2C13.0001 1.44772 12.5524 1 12.0001 1C11.4478 1 11.0001 1.44772 11.0001 2H13.0001ZM8.04211 4.87372C8.52465 4.60507 8.69804 3.9961 8.42939 3.51356C8.16074 3.03102 7.55178 2.85763 7.06924 3.12628L8.04211 4.87372ZM16.931 3.12628C16.4484 2.85763 15.8395 3.03102 15.5708 3.51356C15.3022 3.9961 15.4755 4.60507 15.9581 4.87372L16.931 3.12628ZM21.5945 8.68021C21.4139 8.15827 20.8444 7.88155 20.3225 8.06212C19.8005 8.24269 19.5238 8.81218 19.7044 9.33411L21.5945 8.68021ZM9.33421 19.7043C8.81227 19.5237 8.24278 19.8005 8.06221 20.3224C7.88164 20.8443 8.15837 21.4138 8.6803 21.5944L9.33421 19.7043ZM4.82276 19.1769C5.21328 19.5675 5.84644 19.5675 6.23698 19.177C6.62751 18.7865 6.62753 18.1533 6.23702 17.7628L4.82276 19.1769ZM17.7629 6.23692C18.1534 6.62743 18.7866 6.62741 19.1771 6.23688C19.5676 5.84634 19.5676 5.21318 19.177 4.82267L17.7629 6.23692ZM21.1501 12H20.1501C20.1501 16.5011 16.5012 20.15 12.0001 20.15V21.15V22.15C17.6058 22.15 22.1501 17.6057 22.1501 12H21.1501ZM12.0001 7.99967H13.0001V2H12.0001H11.0001V7.99967H12.0001ZM7.55567 4L7.06924 3.12628C3.95828 4.85828 1.8501 8.18226 1.8501 12H2.8501H3.8501C3.8501 8.93691 5.53948 6.26703 8.04211 4.87372L7.55567 4ZM20.6494 9.00716L19.7044 9.33411C19.9929 10.1681 20.1501 11.0647 20.1501 12H21.1501H22.1501C22.1501 10.8391 21.9548 9.72173 21.5945 8.68021L20.6494 9.00716ZM12.0001 21.15V20.15C11.0648 20.15 10.1682 19.9928 9.33421 19.7043L9.00725 20.6493L8.6803 21.5944C9.72183 21.9547 10.8392 22.15 12.0001 22.15V21.15ZM5.52989 18.4698L6.23702 17.7628C4.76116 16.2868 3.8501 14.2508 3.8501 12H2.8501H1.8501C1.8501 14.8025 2.98719 17.3413 4.82276 19.1769L5.52989 18.4698ZM16.4445 4L15.9581 4.87372C16.6219 5.24328 17.2291 5.70317 17.7629 6.23692L18.4699 5.52979L19.177 4.82267C18.5133 4.15901 17.7579 3.58666 16.931 3.12628L16.4445 4Z" fill="#111111"/>
<path d="M2 22L5.5298 18.4702L18.4698 5.53012L22 2" stroke="#111111" stroke-width="2" stroke-linecap="round" stroke-linejoin="round"/>
</svg>
