<svg
  xmlns="http://www.w3.org/2000/svg"
  width="24"
  height="24"
  viewBox="0 0 24 24"
  fill="none"
  stroke="currentColor"
  stroke-width="2"
  stroke-linecap="round"
  stroke-linejoin="round"
>
  <path d="M17.5 2C14.4624 2 12 4.46243 12 7.5V9.00163C12.4755 9.00489 12.891 9.01472 13.2518 9.04419C13.5104 9.06532 13.7593 9.09758 14 9.15032V7.5C14 5.567 15.567 4 17.5 4C19.433 4 21 5.567 21 7.5V10C21 10.5523 21.4477 11 22 11C22.5523 11 23 10.5523 23 10V7.5C23 4.46243 20.5376 2 17.5 2Z" fill="currentColor"/>
  <path d="M3 14.8C3 13.1198 3 12.2798 3.32698 11.638C3.6146 11.0735 4.07354 10.6146 4.63803 10.327C5.27976 10 6.11984 10 7.8 10H11.2C12.8802 10 13.7202 10 14.362 10.327C14.9265 10.6146 15.3854 11.0735 15.673 11.638C16 12.2798 16 13.1198 16 14.8V16.2C16 17.8802 16 18.7202 15.673 19.362C15.3854 19.9265 14.9265 20.3854 14.362 20.673C13.7202 21 12.8802 21 11.2 21H7.8C6.11984 21 5.27976 21 4.63803 20.673C4.07354 20.3854 3.6146 19.9265 3.32698 19.362C3 18.7202 3 17.8802 3 16.2V14.8Z" stroke="currentColor" stroke-width="2" opacity="0.28"/>
</svg>