<svg width="24" height="24" viewBox="0 0 24 24" fill="none" xmlns="http://www.w3.org/2000/svg">
<path opacity="0.28" d="M12.0368 22C13.4035 22 14.4801 22 15.351 21.9406C16.2387 21.88 16.9853 21.7544 17.6788 21.4672C19.394 20.7567 20.7567 19.394 21.4672 17.6788C21.7544 16.9853 21.88 16.2387 21.9406 15.351C22 14.4801 22 13.4035 22 12.0369V11.9632C22 10.5965 22 9.51986 21.9406 8.649C21.88 7.76134 21.7544 7.01469 21.4672 6.32122C20.7567 4.60602 19.394 3.2433 17.6788 2.53284C16.9853 2.2456 16.2387 2.11997 15.351 2.05941C14.4801 1.99999 13.4035 1.99999 12.0369 2L11.9631 2C10.5965 1.99999 9.51986 1.99999 8.649 2.05941C7.76134 2.11997 7.01469 2.2456 6.32122 2.53284C4.60602 3.2433 3.2433 4.60602 2.53284 6.32122C2.2456 7.01469 2.11997 7.76134 2.05941 8.64899C1.99999 9.51985 1.99999 10.5965 2 11.9631L2 12.0369C1.99999 13.4035 1.99999 14.4801 2.05941 15.351C2.11997 16.2387 2.2456 16.9853 2.53284 17.6788C3.2433 19.394 4.60602 20.7567 6.32122 21.4672C7.01469 21.7544 7.76134 21.88 8.64899 21.9406C9.51985 22 10.5965 22 11.9631 22H12.0368Z" fill="#111111"/>
<path d="M8.78149 9.71853C8.78149 8.21713 9.99862 7 11.5 7C13.0014 7 14.2186 8.21713 14.2186 9.71853C14.2186 10.6748 13.7248 11.5157 12.9784 12.0003C12.2544 12.4704 11.5 13.1368 11.5 14M11.5 17H11.501" stroke="#111111" stroke-width="2" stroke-linecap="round" stroke-linejoin="round"/>
</svg>
