<svg
  xmlns="http://www.w3.org/2000/svg"
  width="24"
  height="24"
  viewBox="0 0 24 24"
  fill="none"
  stroke="currentColor"
  stroke-width="2"
  stroke-linecap="round"
  stroke-linejoin="round"
>
  <path d="M15 17C14.4477 17 14 17.4477 14 18C14 18.5523 14.4477 19 15 19C15.5523 19 16 18.5523 16 18C16 17.4477 15.5523 17 15 17ZM15 17V10" stroke="currentColor" stroke-width="2"/ fill="none">
  <path d="M18 5C18 3.34315 16.6569 2 15 2C13.3431 2 12 3.34315 12 5V15.3542C11.3776 16.0593 11 16.9856 11 18C11 20.2091 12.7909 22 15 22C17.2091 22 19 20.2091 19 18C19 16.9856 18.6224 16.0593 18 15.3542V5Z" stroke="currentColor" stroke-width="2"/ fill="none">
  <path d="M7.5723 8.41086C6.9378 7.56487 6.20173 6.80088 5.38107 6.13588C5.27008 6.04594 5.13548 6.00098 5.00087 6.00098M2.42944 8.41086C3.06394 7.56487 3.80001 6.80088 4.62067 6.13589C4.73166 6.04595 4.86627 6.00098 5.00087 6.00098M5.00087 6.00098L5.00087 12.4297" stroke="currentColor" stroke-width="2"/ fill="none">
</svg>