<svg
  xmlns="http://www.w3.org/2000/svg"
  width="24"
  height="24"
  viewBox="0 0 24 24"
  fill="none"
  stroke="currentColor"
  stroke-width="2"
  stroke-linecap="round"
  stroke-linejoin="round"
>
  <g opacity="0.28"><path d="M12 11C14.2091 11 16 9.20914 16 7C16 4.79086 14.2091 3 12 3C9.79086 3 8 4.79086 8 7C8 9.20914 9.79086 11 12 11Z" fill="currentColor"/><path d="M4 19C4 16.7909 5.79086 15 8 15H12C12 16.6569 13.3431 18 15 18H19.874C19.9562 18.3196 20 18.6547 20 19C20 20.1046 19.1046 21 18 21H6C4.89543 21 4 20.1046 4 19Z" fill="currentColor"/></g>
  <path d="M20 19C20 20.1046 19.1046 21 18 21H6C4.89543 21 4 20.1046 4 19C4 16.7909 5.79086 15 8 15H11M15 15H21M16 7C16 9.20914 14.2091 11 12 11C9.79086 11 8 9.20914 8 7C8 4.79086 9.79086 3 12 3C14.2091 3 16 4.79086 16 7Z" stroke="currentColor" stroke-width="2"/>
</svg>