<svg width="24" height="24" viewBox="0 0 24 24" fill="none" xmlns="http://www.w3.org/2000/svg">
<path opacity="0.28" d="M4 9.4C4 7.15979 4 6.03968 4.43597 5.18404C4.81947 4.43139 5.43139 3.81947 6.18404 3.43597C7.03968 3 8.15979 3 10.4 3H13.6C15.8402 3 16.9603 3 17.816 3.43597C18.5686 3.81947 19.1805 4.43139 19.564 5.18404C20 6.03968 20 7.15979 20 9.4V14.6C20 16.8402 20 17.9603 19.564 18.816C19.1805 19.5686 18.5686 20.1805 17.816 20.564C16.9603 21 15.8402 21 13.6 21H10.4C8.15979 21 7.03968 21 6.18404 20.564C5.43139 20.1805 4.81947 19.5686 4.43597 18.816C4 17.9603 4 16.8402 4 14.6V9.4Z" stroke="#111111" stroke-width="2" stroke-linejoin="round"/>
<path d="M13.1137 9.89008C14.313 10.5825 14.9126 10.9287 15.1139 11.3807C15.2894 11.7749 15.2894 12.2251 15.1139 12.6193C14.9126 13.0713 14.313 13.4175 13.1137 14.1099L12.8571 14.2581C11.6579 14.9505 11.0582 15.2967 10.5662 15.2449C10.137 15.1998 9.7471 14.9747 9.49345 14.6256C9.20264 14.2253 9.20264 13.5329 9.20264 12.1481L9.20264 11.8519C9.20264 10.4671 9.20264 9.77466 9.49345 9.3744C9.74711 9.02527 10.137 8.80016 10.5662 8.75506C11.0582 8.70334 11.6579 9.04954 12.8571 9.74194L13.1137 9.89008Z" stroke="#111111" stroke-width="2" stroke-linecap="round" stroke-linejoin="round"/>
</svg>
