<svg width="24" height="24" viewBox="0 0 24 24" fill="none" xmlns="http://www.w3.org/2000/svg">
<path opacity="0.28" d="M5 4C2.79086 4 1 5.79086 1 8V16C1 18.2091 2.79086 20 5 20H19C21.2091 20 23 18.2091 23 16V8C23 5.79086 21.2091 4 19 4H5Z" fill="#111111"/>
<path d="M2 9H4C5.10457 9 6 9.89543 6 11V13C6 14.1046 5.10457 15 4 15H2M22 9H20C18.8954 9 18 9.89543 18 11V13C18 14.1046 18.8954 15 20 15H22M12 15V19M12 15C10.3431 15 9 13.6569 9 12C9 10.3431 10.3431 9 12 9M12 15C13.6569 15 15 13.6569 15 12C15 10.3431 13.6569 9 12 9M12 9V5" stroke="#111111" stroke-width="2" stroke-linecap="round" stroke-linejoin="round"/>
</svg>
