<svg
  xmlns="http://www.w3.org/2000/svg"
  width="24"
  height="24"
  viewBox="0 0 24 24"
  fill="none"
  stroke="currentColor"
  stroke-width="2"
  stroke-linecap="round"
  stroke-linejoin="round"
>
  <path d="M22 10.2432V10.0722C22 9.08221 22.001 8.34721 21.79 7.72121C21.5931 7.1377 21.2642 6.60751 20.8288 6.17197C20.3935 5.73643 19.8634 5.4073 19.28 5.21021C18.653 4.99921 17.917 5.00021 16.928 5.00021H16.757C16.642 5.00021 16.583 5.00021 16.54 4.99821H16.536L16.534 4.99521C16.4923 4.93592 16.4516 4.87591 16.412 4.81521L15.307 3.15821L15.271 3.10321C15.137 2.90221 14.97 2.64821 14.735 2.45521C14.5317 2.28845 14.2976 2.1634 14.046 2.08721C13.756 1.99821 13.451 1.99921 13.21 2.00021H10.79C10.548 2.00021 10.244 1.99821 9.953 2.08721C9.70137 2.1634 9.46724 2.28845 9.264 2.45521C9.02999 2.64821 8.86199 2.90221 8.72799 3.10321L8.692 3.15821L7.586 4.81821C7.54697 4.87787 7.50697 4.93688 7.466 4.99521L7.463 4.99821H7.46C7.418 5.00021 7.35999 5.00021 7.246 5.00021H7.076C6.098 5.00021 5.37 4.99921 4.75 5.20621C4.16123 5.40251 3.62622 5.73311 3.18728 6.17188C2.74834 6.61064 2.41752 7.14552 2.221 7.73421C2.015 8.35421 2.015 9.08221 2.016 10.0602V15.2412C2.016 16.0462 2.016 16.7112 2.06 17.2512C2.106 17.8142 2.204 18.3312 2.452 18.8162C2.83548 19.5688 3.44738 20.1807 4.2 20.5642C4.685 20.8112 5.202 20.9102 5.764 20.9562C6.305 21.0002 6.97 21.0002 7.774 21.0002H16.242C17.047 21.0002 17.711 21.0002 18.252 20.9562C18.814 20.9102 19.331 20.8112 19.816 20.5642C20.5686 20.1807 21.1805 19.5688 21.564 18.8162C21.811 18.3312 21.91 17.8142 21.956 17.2522C22 16.7112 22 16.0462 22 15.2422V10.2432Z" fill="currentColor" opacity="0.28" fill-rule="evenodd" clip-rule="evenodd"/>
  <path d="M9 13.3133L11.3412 15.652C12.4672 13.6831 14.0256 11.9954 15.8987 10.7163" stroke="currentColor" stroke-width="2"/>
</svg>