<svg
  xmlns="http://www.w3.org/2000/svg"
  width="24"
  height="24"
  viewBox="0 0 24 24"
  fill="none"
  stroke="currentColor"
  stroke-width="2"
  stroke-linecap="round"
  stroke-linejoin="round"
>
  <path d="M10.595 13.95C9.61 13.52 8.959 13.34 8.513 13.486M8.513 13.486C7.959 13.667 7.722 14.35 7.552 15.676M8.513 13.486C8.5996 14.1026 8.84915 14.685 9.23591 15.173C9.62266 15.661 10.1326 16.0371 10.7132 16.2623C11.2937 16.4875 11.9238 16.5537 12.5385 16.4542C13.1532 16.3546 13.7302 16.0929 14.21 15.696M16.449 10.353C16.245 11.663 15.993 12.339 15.444 12.513M15.444 12.513C14.994 12.655 14.345 12.459 13.361 11.999M15.444 12.513C15.3573 11.8974 15.1083 11.3151 14.7225 10.8277C14.3366 10.3403 13.828 9.96442 13.2487 9.73876C12.6695 9.5131 12.0407 9.44578 11.4268 9.54371C10.813 9.64163 10.2363 9.90128 9.756 10.296" stroke="currentColor" stroke-width="2"/>
  <path d="M22 10.2432V10.0722C22 9.08221 22.001 8.34721 21.79 7.72121C21.5931 7.1377 21.2642 6.60751 20.8288 6.17197C20.3935 5.73643 19.8634 5.4073 19.28 5.21021C18.653 4.99921 17.917 5.00021 16.928 5.00021H16.757C16.642 5.00021 16.583 5.00021 16.54 4.99821H16.536L16.534 4.99521C16.4923 4.93592 16.4516 4.87591 16.412 4.81521L15.307 3.15821L15.271 3.10321C15.137 2.90221 14.97 2.64821 14.735 2.45521C14.5317 2.28845 14.2976 2.1634 14.046 2.08721C13.756 1.99821 13.451 1.99921 13.21 2.00021H10.79C10.548 2.00021 10.244 1.99821 9.953 2.08721C9.70137 2.1634 9.46724 2.28845 9.264 2.45521C9.02999 2.64821 8.86199 2.90221 8.72799 3.10321L8.692 3.15821L7.586 4.81821C7.54697 4.87787 7.50697 4.93688 7.466 4.99521L7.463 4.99821H7.46C7.418 5.00021 7.35999 5.00021 7.246 5.00021H7.076C6.098 5.00021 5.37 4.99921 4.75 5.20621C4.16123 5.40251 3.62622 5.73311 3.18728 6.17188C2.74834 6.61064 2.41752 7.14552 2.221 7.73421C2.015 8.35421 2.015 9.08221 2.016 10.0602V15.2412C2.016 16.0462 2.016 16.7112 2.06 17.2512C2.106 17.8142 2.204 18.3312 2.452 18.8162C2.83548 19.5688 3.44738 20.1807 4.2 20.5642C4.685 20.8112 5.202 20.9102 5.764 20.9562C6.305 21.0002 6.97 21.0002 7.774 21.0002H16.242C17.047 21.0002 17.711 21.0002 18.252 20.9562C18.814 20.9102 19.331 20.8112 19.816 20.5642C20.5686 20.1807 21.1805 19.5688 21.564 18.8162C21.811 18.3312 21.91 17.8142 21.956 17.2522C22 16.7112 22 16.0462 22 15.2422V10.2432Z" fill="currentColor" opacity="0.28" fill-rule="evenodd" clip-rule="evenodd"/>
</svg>