<svg
  xmlns="http://www.w3.org/2000/svg"
  width="24"
  height="24"
  viewBox="0 0 24 24"
  fill="none"
  stroke="currentColor"
  stroke-width="2"
  stroke-linecap="round"
  stroke-linejoin="round"
>
  <path d="M12 2C7.58172 2 4 5.58172 4 10V14C4 18.4183 7.58172 22 12 22C16.4183 22 20 18.4183 20 14V10C20 5.58172 16.4183 2 12 2Z" fill="currentColor" opacity="0.28"/>
  <path d="M14 14.4998C13.5065 15.1578 12.934 15.7521 12.2957 16.2693C12.2094 16.3392 12.1047 16.3742 12 16.3742C11.8953 16.3742 11.7906 16.3392 11.7043 16.2693C11.066 15.7521 10.4935 15.1578 10 14.4998M14 9.49984C13.5065 8.84185 12.934 8.24764 12.2957 7.73042C12.2094 7.66046 12.1047 7.62549 12 7.62549C11.8953 7.62549 11.7906 7.66046 11.7043 7.73042C11.066 8.24764 10.4935 8.84185 10 9.49984" stroke="currentColor" stroke-width="2"/>
</svg>