<svg
  xmlns="http://www.w3.org/2000/svg"
  width="24"
  height="24"
  viewBox="0 0 24 24"
  fill="none"
  stroke="currentColor"
  stroke-width="2"
  stroke-linecap="round"
  stroke-linejoin="round"
>
  <path d="M16 8V4.4C16 3.55992 16 3.13988 15.8365 2.81901C15.6927 2.53677 15.4632 2.3073 15.181 2.16349C14.8601 2 14.4401 2 13.6 2H10.4C9.55992 2 9.13988 2 8.81901 2.16349C8.53677 2.3073 8.3073 2.53677 8.16349 2.81901C8 3.13988 8 3.55992 8 4.4V8" stroke="currentColor" stroke-width="2" opacity="0.28"/>
  <path d="M8.00002 7C7.90585 7 7.81473 7.01302 7.72834 7.03735C7.35886 7.0726 6.99196 7.14665 6.63805 7.32698C6.07356 7.6146 5.61462 8.07354 5.327 8.63803C5.1342 9.01641 5.06289 9.40963 5.03059 9.80497C4.99999 10.1795 5 10.6342 5.00002 11.1613L5.00001 16.0997C4.9999 16.9332 4.99983 17.471 5.07389 17.9386C5.48052 20.506 7.49406 22.5195 10.0614 22.9261C10.529 23.0002 11.0668 23.0001 11.9003 23H12.0997C12.9332 23.0001 13.471 23.0002 13.9386 22.9261C16.506 22.5195 18.5195 20.506 18.9261 17.9386C19.0002 17.471 19.0001 16.9332 19 16.0997L19 11.1615C19 10.6343 19.0001 10.1795 18.9694 9.80497C18.9371 9.40963 18.8658 9.01641 18.673 8.63803C18.3854 8.07354 17.9265 7.6146 17.362 7.32698C17.0081 7.14665 16.6412 7.0726 16.2717 7.03735C16.1853 7.01302 16.0942 7 16 7H8.00002Z" fill="currentColor"/>
</svg>