<svg
  xmlns="http://www.w3.org/2000/svg"
  width="24"
  height="24"
  viewBox="0 0 24 24"
  fill="none"
  stroke="currentColor"
  stroke-width="2"
  stroke-linecap="round"
  stroke-linejoin="round"
>
  <path d="M13 4C15.1654 4 17.0093 5.37654 17.7044 7.3023L18.0704 6.99486C20.0222 5.35534 23 6.74294 23 9.29197V14.708C23 17.2571 20.0222 18.6446 18.0704 17.0051L17.7044 16.6977C17.0093 18.6234 15.1654 20 13 20H6C3.23857 20 1 17.7614 1 15V9C1 6.23858 3.23858 4 6 4H13ZM18.0011 13.9145L18.0013 10.0801C18.0156 9.80403 18.1439 9.54512 18.3568 9.36626L19.3568 8.52626C20.0074 7.97976 21 8.4423 21 9.29197V14.708C21 15.5577 20.0074 16.0202 19.3568 15.4737L18.3568 14.6337C18.1425 14.4537 18.014 14.1927 18.0011 13.9145Z" fill="currentColor" opacity="0.28" fill-rule="evenodd" clip-rule="evenodd"/>
  <path d="M6.5 12H12.5" stroke="currentColor" stroke-width="2"/>
</svg>