<svg
  xmlns="http://www.w3.org/2000/svg"
  width="24"
  height="24"
  viewBox="0 0 24 24"
  fill="none"
  stroke="currentColor"
  stroke-width="2"
  stroke-linecap="round"
  stroke-linejoin="round"
>
  <path d="M13 4C15.7614 4 18 6.23857 18 9V15C18 17.7614 15.7614 20 13 20H6C3.23857 20 1 17.7614 1 15V9C1 6.23858 3.23858 4 6 4H13ZM11.9043 8.04395C10.9217 7.97151 9.93411 7.98931 8.9541 8.09863L8.46484 8.16113C7.91831 8.23942 7.53812 8.74636 7.61621 9.29297C7.68978 9.80528 8.14013 10.1712 8.64648 10.1504L8.74805 10.1406C9.3567 10.0537 9.96974 10.0093 10.583 10.0029L6.29297 14.29L6.22461 14.3652C5.90402 14.7579 5.92691 15.3378 6.29297 15.7041C6.65887 16.0698 7.23814 16.0932 7.63086 15.7734L7.70703 15.7041L11.998 11.416C11.9932 11.8861 11.9662 12.3563 11.9141 12.8242L11.8594 13.252C11.7815 13.7985 12.1614 14.3057 12.708 14.3838C13.2203 14.4568 13.6971 14.1273 13.8193 13.6357L13.8389 13.5352C14.0249 12.2326 14.05 10.9125 13.9131 9.60547L13.8906 9.45703C13.8246 9.1169 13.6579 8.81224 13.4229 8.57715C13.1542 8.30857 12.7951 8.12984 12.3955 8.08789L11.9043 8.04395Z" fill="currentColor" fill-rule="evenodd" clip-rule="evenodd"/>
  <path d="M17.7135 15.3994C17.2779 15.0335 17.0196 14.5002 17.001 13.9337L17.0012 10.0586C17.0219 9.49493 17.2799 8.96476 17.7135 8.60051L18.7135 7.76051C20.0147 6.6675 21.9999 7.59257 21.9999 9.29192V14.708C21.9999 16.4074 20.0147 17.3324 18.7135 16.2394L17.7135 15.3994Z" stroke="currentColor" stroke-width="2" opacity="0.28"/>
</svg>