<svg
  xmlns="http://www.w3.org/2000/svg"
  width="24"
  height="24"
  viewBox="0 0 24 24"
  fill="none"
  stroke="currentColor"
  stroke-width="2"
  stroke-linecap="round"
  stroke-linejoin="round"
>
  <path d="M10.3333 13.6667H8.66667C7.74619 13.6667 7 14.4129 7 15.3333C7 16.2538 7.74619 17 8.66667 17C9.58714 17 10.3333 16.2538 10.3333 15.3333V13.6667ZM10.3333 13.6667H13.6667M10.3333 13.6667V10.3333M13.6667 13.6667H15.3333C16.2538 13.6667 17 14.4129 17 15.3333C17 16.2538 16.2538 17 15.3333 17C14.4129 17 13.6667 16.2538 13.6667 15.3333V13.6667ZM13.6667 13.6667V10.3333M13.6667 10.3333V8.66667C13.6667 7.74619 14.4129 7 15.3333 7C16.2538 7 17 7.74619 17 8.66667C17 9.58714 16.2538 10.3333 15.3333 10.3333H13.6667ZM13.6667 10.3333H10.3333M10.3333 10.3333H8.66667C7.74619 10.3333 7 9.58714 7 8.66667C7 7.74619 7.74619 7 8.66667 7C9.58714 7 10.3333 7.74619 10.3333 8.66667V10.3333Z" stroke="currentColor" stroke-width="2"/>
  <path d="M12.0001 1.8501C6.39441 1.8501 1.8501 6.39441 1.8501 12.0001C1.8501 17.6058 6.39441 22.1501 12.0001 22.1501C17.6058 22.1501 22.1501 17.6058 22.1501 12.0001C22.1501 6.39441 17.6058 1.8501 12.0001 1.8501Z" fill="currentColor" opacity="0.28"/>
</svg>