<svg
  xmlns="http://www.w3.org/2000/svg"
  width="24"
  height="24"
  viewBox="0 0 24 24"
  fill="none"
  stroke="currentColor"
  stroke-width="2"
  stroke-linecap="round"
  stroke-linejoin="round"
>
  <path d="M20 14C20.465 14 20.6975 14 20.8882 13.9489C21.4059 13.8102 21.8102 13.4059 21.9489 12.8882C22 12.6975 22 12.465 22 12C22 11.535 22 11.3025 21.9489 11.1118C21.8102 10.5941 21.4059 10.1898 20.8882 10.0511C20.6975 10 20.465 10 20 10M8 6H14C15.8638 6 16.7956 6 17.5307 6.30448C18.5108 6.71046 19.2895 7.48915 19.6955 8.46927C20 9.20435 20 10.1362 20 12C20 13.8638 20 14.7956 19.6955 15.5307C19.2895 16.5108 18.5108 17.2895 17.5307 17.6955C16.7956 18 15.8638 18 14 18H8C6.13623 18 5.20435 18 4.46927 17.6955C3.48915 17.2895 2.71046 16.5108 2.30448 15.5307C2 14.7956 2 13.8638 2 12C2 10.1362 2 9.20435 2.30448 8.46927C2.71046 7.48915 3.48915 6.71046 4.46927 6.30448C5.20435 6 6.13623 6 8 6Z" stroke="#111111" stroke-width="2" opacity="0.28"/ fill="none">
  <path d="M6 10V14M11 10V14" stroke="currentColor" stroke-width="2"/ fill="none">
</svg>