<svg
  xmlns="http://www.w3.org/2000/svg"
  width="24"
  height="24"
  viewBox="0 0 24 24"
  fill="none"
  stroke="currentColor"
  stroke-width="2"
  stroke-linecap="round"
  stroke-linejoin="round"
>
  <path d="M19 14V10C19 6.13401 15.866 3 12 3V7.8C12 8.92011 12 9.48016 11.782 9.90798C11.5903 10.2843 11.2843 10.5903 10.908 10.782C10.4802 11 9.9201 11 8.8 11H5V14C5 17.866 8.13401 21 12 21C15.866 21 19 17.866 19 14Z" stroke="#111111" stroke-width="2" opacity="0.28"/ fill="none">
  <path d="M5 10C5 6.13401 8.13401 3 12 3V7.8C12 8.92011 12 9.48016 11.782 9.90798C11.5903 10.2843 11.2843 10.5903 10.908 10.782C10.4802 11 9.9201 11 8.8 11H5V10Z" stroke="currentColor" stroke-width="2"/ fill="none">
</svg>