<svg width="24" height="24" viewBox="0 0 24 24" fill="none" xmlns="http://www.w3.org/2000/svg">
<path d="M8.89111 2.31201H14.1763C14.9946 2.312 15.6779 2.31182 16.2563 2.33545L16.8013 2.36865C17.4118 2.41853 17.9226 2.51413 18.3823 2.71143L18.5767 2.80225C19.3176 3.17979 19.9373 3.75445 20.3696 4.45947L20.5435 4.76904C20.7709 5.21541 20.8894 5.70549 20.9536 6.28857L20.978 6.54443C21.0338 7.22731 21.0337 8.07833 21.0337 9.16943V14.4546C21.0337 15.2729 21.0339 15.9563 21.0103 16.5347L20.978 17.0796C20.9281 17.6902 20.8316 18.2009 20.6343 18.6606L20.5435 18.855C20.166 19.596 19.5913 20.2156 18.8862 20.6479L18.5767 20.8218C18.1303 21.0492 17.6402 21.1677 17.0571 21.2319L16.8013 21.2563C16.1184 21.3121 15.2675 21.312 14.1763 21.312H8.89111C8.07286 21.312 7.38948 21.3122 6.81104 21.2886L6.26611 21.2563C5.65558 21.2064 5.14482 21.1099 4.68506 20.9126L4.49072 20.8218C3.74975 20.4443 3.13012 19.8696 2.69775 19.1646L2.52393 18.855C2.29651 18.4086 2.17798 17.9185 2.11377 17.3354L2.09033 17.0796C2.03455 16.3967 2.03368 15.5458 2.03369 14.4546V9.16943L2.04053 7.70361C2.04406 7.48649 2.04926 7.28211 2.05713 7.08936L2.09033 6.54443C2.14021 5.93392 2.2358 5.42314 2.43311 4.96338L2.52393 4.76904C2.90147 4.02807 3.47613 3.40844 4.18115 2.97607L4.49072 2.80225C4.9371 2.57482 5.42718 2.4563 6.01025 2.39209L6.26611 2.36865C6.60753 2.34076 6.99087 2.32591 7.42529 2.31885L8.89111 2.31201ZM7.53369 8.81201C6.70527 8.81201 6.03369 9.48359 6.03369 10.312V16.812C6.03369 17.6405 6.70528 18.312 7.53369 18.312C8.36212 18.312 9.03369 17.6405 9.03369 16.812V10.312C9.03369 9.48359 8.36213 8.81201 7.53369 8.81201ZM11.5337 8.81201C10.7052 8.81201 10.0337 9.4836 10.0337 10.312V16.812C10.0337 17.6405 10.7052 18.312 11.5337 18.312C12.3621 18.312 13.0337 17.6405 13.0337 16.812V13.312C13.0337 12.7598 13.4814 12.312 14.0337 12.312C14.5859 12.312 15.0337 12.7598 15.0337 13.312V16.812C15.0337 17.6405 15.7052 18.312 16.5337 18.312C17.3621 18.312 18.0337 17.6405 18.0337 16.812V13.312C18.0337 11.1029 16.2428 9.31201 14.0337 9.31201C13.6031 9.31201 13.1879 9.38092 12.7983 9.50732C12.5321 9.08962 12.066 8.81201 11.5337 8.81201ZM7.53369 5.31201C6.70527 5.31201 6.03369 5.98359 6.03369 6.81201V6.82178C6.03369 7.6502 6.70527 8.32178 7.53369 8.32178C8.36213 8.32178 9.03369 7.6502 9.03369 6.82178V6.81201C9.03369 5.98359 8.36213 5.31201 7.53369 5.31201Z" fill="#111111" stroke="#111111" stroke-linecap="round"/>
</svg>
