<svg width="24" height="24" viewBox="0 0 24 24" fill="none" xmlns="http://www.w3.org/2000/svg">
<path opacity="0.28" d="M12 13V22M12 22H16M12 22L8 22M17.9786 7.43776C17.9928 7.25695 18 7.07388 18 6.88889C18 5.15448 17.5131 3.42007 16.6983 2H7.30171C6.48685 3.42007 6 5.15448 6 6.88889C6 7.44309 6.06471 7.98005 6.18882 8.49051" stroke="#111111" stroke-width="2" stroke-linecap="round" stroke-linejoin="round"/>
<path d="M12.0001 13C15.4028 13 17.7334 10.5557 17.9787 7.43774C15.9428 8.31029 14.1915 8.96553 12.0001 7.99999C9.8796 7.06566 8.16627 7.64308 6.18896 8.49049C6.82068 11.0887 8.99128 13 12.0001 13Z" stroke="#111111" stroke-width="2" stroke-linecap="round" stroke-linejoin="round"/>
</svg>
