<svg width="24" height="24" viewBox="0 0 24 24" fill="none" xmlns="http://www.w3.org/2000/svg">
<path d="M22 11C22 6.02944 17.9705 2 13 2C9.01195 2 5.62975 4.59388 4.44846 8.18657C5.62668 7.55766 6.97319 7.2002 8.39997 7.2002C13.0392 7.2002 16.8 10.961 16.8 15.6002C16.8 17.1048 16.4025 18.5201 15.7083 19.7429C15.8313 19.7287 15.9306 19.7175 16.0081 19.7091C16.0579 19.7037 16.0968 19.6997 16.1261 19.6969L16.16 19.6938L16.1703 19.693C16.2309 19.6892 16.2715 19.6864 16.2988 19.6846L16.3082 19.6839L16.3218 19.683L16.3354 19.6833L16.3447 19.6835C16.3721 19.684 16.413 19.6849 16.4739 19.6858C16.5816 19.6873 16.6889 19.6946 16.9787 19.7153L18.7557 19.8422C19.1051 19.8672 19.428 19.8903 19.6978 19.8864C19.9868 19.8822 20.3179 19.8483 20.6468 19.6923C21.1055 19.4749 21.4748 19.1055 21.6923 18.6469C21.8482 18.3179 21.8822 17.9868 21.8864 17.6978C21.8903 17.4281 21.8672 17.1052 21.8422 16.7558L21.7153 14.9787C21.6946 14.689 21.6873 14.5816 21.6857 14.4739C21.6849 14.4141 21.684 14.3737 21.6835 14.3463L21.6834 14.3451L21.6832 14.3355L21.683 14.3218L21.6839 14.3082L21.6846 14.2986C21.6864 14.2713 21.6892 14.2302 21.693 14.1697L21.6938 14.16L21.6969 14.1262C21.6997 14.0969 21.7037 14.058 21.7091 14.0081C21.7199 13.9085 21.7353 13.7728 21.7557 13.5973C21.7964 13.2483 21.8557 12.7511 21.9351 12.0857L21.9362 12.0761C21.9783 11.7229 22 11.3638 22 11Z" fill="#111111"/>
<path d="M8.39988 9.2002C6.76875 9.2002 5.27803 9.81163 4.14818 10.8163C2.83143 11.9871 1.99951 13.6971 1.99951 15.6002C1.99951 15.9444 2.02677 16.2829 2.07944 16.6135C2.12736 16.9144 2.16269 17.1362 2.18713 17.2946C2.19935 17.3738 2.20833 17.4338 2.21458 17.4781C2.21966 17.5141 2.22174 17.5313 2.22233 17.5362L2.22625 17.579L2.22911 17.611L2.22941 17.6146L2.22942 17.6182L2.2292 17.6926C2.22908 17.7423 2.22475 17.8113 2.2076 18.0515L2.1063 19.4695C2.08989 19.6987 2.07337 19.9294 2.07622 20.1259C2.07935 20.3414 2.10454 20.6184 2.23856 20.9011C2.41748 21.2784 2.72137 21.5823 3.09872 21.7612C3.38138 21.8952 3.65838 21.9204 3.87387 21.9235C4.07037 21.9263 4.3011 21.9098 4.53025 21.8934L5.94837 21.7921C6.18858 21.775 6.25759 21.7706 6.30732 21.7705L6.38173 21.7703L6.38531 21.7703L6.3889 21.7706L6.46269 21.7772L6.46378 21.7774C6.46871 21.778 6.48594 21.7801 6.52192 21.7851C6.56617 21.7914 6.6262 21.8004 6.70543 21.8126C6.86386 21.837 7.08571 21.8724 7.38649 21.9203C7.71714 21.9729 8.05568 22.0002 8.39988 22.0002C10.303 22.0002 12.0131 21.1684 13.184 19.8517C14.1887 18.7219 14.8002 17.2313 14.8002 15.6002C14.8002 12.0655 11.9346 9.2002 8.39988 9.2002Z" fill="#111111"/>
</svg>
