<svg width="24" height="24" viewBox="0 0 24 24" fill="none" xmlns="http://www.w3.org/2000/svg">
<path fill-rule="evenodd" clip-rule="evenodd" d="M10.9562 1H13.0438C14.4068 0.999992 15.4908 0.999986 16.3654 1.07144C17.261 1.14462 18.0247 1.29768 18.7239 1.65396C19.8529 2.2292 20.7708 3.14709 21.346 4.27606C21.7023 4.9753 21.8554 5.73898 21.9286 6.63458C22 7.50914 22 8.59313 22 9.95613V14.0438C22 15.4068 22 16.4909 21.9286 17.3654C21.8554 18.261 21.7023 19.0247 21.346 19.7239C20.7708 20.8529 19.8529 21.7708 18.7239 22.346C18.0247 22.7023 17.261 22.8554 16.3654 22.9286C15.4909 23 14.4069 23 13.0439 23H10.9562C9.59322 23 8.50914 23 7.63458 22.9286C6.73898 22.8554 5.9753 22.7023 5.27606 22.346C4.14708 21.7708 3.2292 20.8529 2.65396 19.7239C2.29768 19.0247 2.14462 18.261 2.07144 17.3654C2.06181 17.2475 2.05347 17.1257 2.04626 17H2C1.44772 17 1 16.5523 1 16C1 15.4477 1.44772 15 2 15H2.00106C2 14.6975 2 14.3791 2 14.0438V9.95624C2 9.62097 2 9.30254 2.00106 9H2C1.44772 9 1 8.55229 1 8C1 7.44772 1.44772 7 2 7H2.04626C2.05347 6.87427 2.06181 6.75252 2.07144 6.63458C2.14462 5.73898 2.29768 4.9753 2.65396 4.27606C3.2292 3.14708 4.14708 2.2292 5.27606 1.65396C5.9753 1.29768 6.73898 1.14462 7.63458 1.07144C8.50917 0.999986 9.5932 0.999992 10.9562 1ZM9.02776 8.7691C9.02776 7.12758 10.3585 5.79688 12 5.79688C13.6415 5.79688 14.9722 7.12758 14.9722 8.7691C14.9722 10.4106 13.6415 11.7413 12 11.7413C10.3585 11.7413 9.02776 10.4106 9.02776 8.7691ZM6.80554 15.8891C6.80554 14.2476 8.13625 12.9169 9.77776 12.9169H14.2222C15.8637 12.9169 17.1944 14.2476 17.1944 15.8891C17.1944 16.917 16.3612 17.7502 15.3333 17.7502H8.66665C7.63879 17.7502 6.80554 16.917 6.80554 15.8891Z" fill="#111111"/>
</svg>
