<svg width="24" height="24" viewBox="0 0 24 24" fill="none" xmlns="http://www.w3.org/2000/svg">
<path d="M12 10C11.6723 10 11.3439 9.89013 11.0747 9.67201C10.3726 9.10307 9.74287 8.44944 9.20003 7.72564C8.86866 7.28382 8.9582 6.65701 9.40003 6.32564C9.84186 5.99427 10.4687 6.08382 10.8 6.52564C10.8652 6.61251 10.9319 6.69814 11 6.7825V4C11 3.44772 11.4477 3 12 3C12.5523 3 13 3.44772 13 4V6.7825C13.0682 6.69814 13.1349 6.61251 13.2 6.52564C13.5314 6.08382 14.1582 5.99427 14.6 6.32564C15.0419 6.65701 15.1314 7.28382 14.8 7.72564C14.2572 8.44944 13.6274 9.10307 12.9253 9.67201C12.6561 9.89013 12.3277 10 12 10Z" fill="#111111"/>
<path d="M17.2302 3.24689C16.7052 3.07553 16.1406 3.36222 15.9693 3.88725C15.7979 4.41227 16.0846 4.97681 16.6096 5.14818C17.011 5.27919 17.3802 5.49344 17.6931 5.77694C18.0187 6.07199 18.2697 6.4876 18.9745 7.72096L20.2769 10.0001H16.9231C15.861 10.0001 15 10.8611 15 11.9232C15 13.0702 14.0702 14.0001 12.9231 14.0001H11.077C9.92991 14.0001 9.00004 13.0702 9.00004 11.9232C9.00004 10.8611 8.13905 10.0001 7.07697 10.0001H3.72322L5.02559 7.72096C5.73037 6.4876 5.98136 6.07199 6.307 5.77694C6.61989 5.49344 6.98909 5.27919 7.39047 5.14818C7.9155 4.97681 8.20219 4.41227 8.03083 3.88725C7.85946 3.36222 7.29492 3.07553 6.7699 3.24689C6.10093 3.46524 5.48559 3.82234 4.96411 4.29483C4.37274 4.83066 3.96234 5.5495 3.36856 6.58956L3.28911 6.72868C3.09528 7.06787 2.90153 7.4071 2.70777 7.74633C2.31434 8.43514 1.9209 9.12397 1.52692 9.81247C1.39571 10.0417 1.27992 10.2441 1.19596 10.4649C1.1623 10.5534 1.13288 10.6434 1.10776 10.7345C1.07775 10.8435 1.05391 10.9541 1.03635 11.0659C0.999717 11.2992 0.99986 11.5324 1.00002 11.7965L1.00004 12.0439C1.00003 13.4069 1.00003 14.4909 1.07148 15.3655C1.14466 16.2611 1.29772 17.0248 1.654 17.7241C2.22924 18.853 3.14713 19.7709 4.2761 20.3461C4.97535 20.7024 5.73902 20.8555 6.63462 20.9287C7.50919 21.0001 8.59318 21.0001 9.95617 21.0001H14.0438C15.4068 21.0001 16.4909 21.0001 17.3655 20.9287C18.2611 20.8555 19.0247 20.7024 19.724 20.3461C20.853 19.7709 21.7708 18.853 22.3461 17.7241C22.7024 17.0248 22.8554 16.2611 22.9286 15.3655C23.0001 14.491 23 13.407 23 12.044L23.0001 11.7965C23.0002 11.5324 23.0004 11.2992 22.9637 11.0659C22.9462 10.9541 22.9223 10.8435 22.8923 10.7345C22.8672 10.6434 22.8378 10.5533 22.8041 10.4649C22.7202 10.2441 22.6044 10.0417 22.4731 9.81243C22.0788 9.12322 21.6849 8.43371 21.2911 7.7442C21.0977 7.40568 20.9044 7.06716 20.711 6.72868L20.6315 6.58956C20.0378 5.54951 19.6273 4.83065 19.036 4.29483C18.5145 3.82234 17.8992 3.46524 17.2302 3.24689Z" fill="#111111"/>
</svg>
