<svg width="24" height="24" viewBox="0 0 24 24" fill="none" xmlns="http://www.w3.org/2000/svg">
<path d="M18.5263 2.00948C19.3562 1.95563 20.2989 2.11511 21.0918 2.908C21.8847 3.70089 22.0442 4.64362 21.9903 5.47355C21.9536 6.03967 21.8016 6.66092 21.6823 7.14885C21.6445 7.30352 21.6099 7.44506 21.5833 7.56692C20.613 12.0186 19.0686 16.3218 16.9885 20.3689C15.8748 22.5359 12.8038 22.5355 11.6474 20.4152L9.6593 16.7698C9.44691 16.3803 9.51645 15.8975 9.83011 15.5839L13.5548 11.8592C13.9453 11.4687 13.9453 10.8355 13.5548 10.445C13.1643 10.0545 12.5311 10.0545 12.1406 10.445L8.41589 14.1697C8.10222 14.4833 7.61942 14.5529 7.22998 14.3405L3.5846 12.3524C1.46436 11.196 1.46392 8.12501 3.63093 7.01127C7.67802 4.93125 11.9812 3.38681 16.4329 2.41651C16.5548 2.38994 16.6962 2.35537 16.8509 2.31751C17.3389 2.19817 17.9601 2.04621 18.5263 2.00948Z" fill="#111111"/>
</svg>
