<svg
  xmlns="http://www.w3.org/2000/svg"
  width="24"
  height="24"
  viewBox="0 0 24 24"
  fill="none"
  stroke="currentColor"
  stroke-width="2"
  stroke-linecap="round"
  stroke-linejoin="round"
>
  <path d="M15.4333 0.19695C15.7068 0.278221 15.9325 0.472443 16.0537 0.730733C16.5951 1.88438 17.4402 2.85346 18.3952 3.94848L18.5606 4.13829C18.7009 4.29944 18.8433 4.46357 18.9859 4.63125C19.2677 4.52656 19.5864 4.55628 19.845 4.70882C20.0487 4.8304 20.2362 4.98155 20.4135 5.13833C20.7191 5.4087 21.1104 5.81569 21.496 6.38715C22.2742 7.54014 22.9999 9.31924 22.9999 11.9055L22.9998 11.9202C22.9125 17.8499 17.9721 22.7604 12.042 22.8117L12.0333 22.8118C8.11626 22.8118 4.71816 20.6018 2.7728 17.5727C0.823364 14.5372 0.268029 10.5714 2.19449 7.03919C2.93669 5.67834 4.00941 4.52614 5.31383 3.68873C5.63112 3.48503 6.03601 3.47712 6.36102 3.66827C6.68602 3.85941 6.87588 4.21712 6.85207 4.59341C6.84074 4.77228 6.83802 4.95126 6.84381 5.12977C7.24971 4.82491 7.68106 4.55361 8.13372 4.31912C8.4755 4.14206 8.88856 4.17688 9.19587 4.40867C9.50318 4.64045 9.65017 5.02805 9.57385 5.40532C9.50941 5.72388 9.4757 6.04788 9.47319 6.37287C9.47457 6.7641 9.57053 7.02568 9.72001 7.24146C9.88136 7.47436 10.1453 7.71104 10.5723 7.97749C11.124 8.27961 11.5953 8.52182 11.9289 8.68862C12.098 8.77317 12.2314 8.8382 12.3218 8.88171C12.3663 8.90316 12.4109 8.92454 12.4556 8.94547C12.7001 9.05939 12.8882 9.26724 12.9773 9.52182C13.0663 9.77642 13.0487 10.0562 12.9285 10.2976C12.5682 11.0212 11.9688 11.4869 11.3915 11.8027C10.8198 12.1156 10.1879 12.3245 9.67824 12.4875L9.55098 12.5281C9.1118 12.6683 8.80346 12.7667 8.58391 12.8703C8.59578 12.9116 8.60945 12.9565 8.62508 13.0045C8.71669 13.2857 8.87028 13.6547 9.11577 14.0172C9.58354 14.708 10.4011 15.4159 11.9545 15.4159C12.5228 15.4159 13.3732 15.2519 14.0502 14.7853C14.6728 14.3563 15.21 13.6368 15.21 12.3227V12.31C15.2172 11.7457 15.0699 11.1901 14.784 10.7036C14.4982 10.217 14.0846 9.8179 13.5881 9.54952C13.2056 9.34269 13.0005 8.91231 13.081 8.48491C13.1467 8.13539 13.3911 7.85341 13.714 7.73292C12.9269 6.60105 12.3793 5.32001 12.3823 4.03348C12.3856 2.55778 13.1139 1.239 14.622 0.305286C14.8646 0.155097 15.1598 0.115678 15.4333 0.19695Z" fill="currentColor"/ stroke="none">
</svg>