<svg
  xmlns="http://www.w3.org/2000/svg"
  width="24"
  height="24"
  viewBox="0 0 24 24"
  fill="none"
  stroke="currentColor"
  stroke-width="2"
  stroke-linecap="round"
  stroke-linejoin="round"
>
  <path d="M8.56263 3.0918C8.24716 2.99891 7.9158 2.99951 7.58649 3.00009L7.50826 3.00019L5.95261 3.00018C5.64629 3.00015 5.35756 3.00012 5.12437 3.02145C4.89334 3.04257 4.54669 3.09477 4.24478 3.32721C3.87495 3.61195 3.65046 4.04606 3.63188 4.51244C3.6167 4.89316 3.77448 5.20621 3.89078 5.40694C4.00817 5.60956 4.17508 5.84515 4.35217 6.09509L9.39912 13.2202L3.898 19.5072C3.57069 19.8813 3.60859 20.4498 3.98266 20.7771C4.35673 21.1044 4.9253 21.0665 5.25261 20.6925L10.4691 14.7308L13.9951 19.7086L14.0402 19.7725C14.2301 20.0415 14.4211 20.3123 14.6793 20.516C14.9047 20.6939 15.1622 20.8271 15.4377 20.9082C15.7531 21.0011 16.0845 21.0005 16.4138 20.9999L16.492 20.9998L18.0477 20.9998C18.354 20.9999 18.6427 20.9999 18.8759 20.9786C19.107 20.9574 19.4536 20.9052 19.7555 20.6728C20.1253 20.3881 20.3498 19.9539 20.3684 19.4876C20.3836 19.1068 20.2258 18.7938 20.1095 18.5931C19.9921 18.3904 19.8252 18.1548 19.6481 17.9048L14.2992 10.3535L19.4273 4.49281C19.7546 4.11874 19.7167 3.55017 19.3427 3.22286C18.9686 2.89556 18.4 2.93346 18.0727 3.30753L13.2292 8.84293L10.0052 4.29143L9.9601 4.22753C9.77023 3.95847 9.57919 3.68773 9.32104 3.48399C9.09559 3.30605 8.83815 3.17293 8.56263 3.0918Z" fill="currentColor"/ stroke="none">
</svg>