<svg width="24" height="24" viewBox="0 0 24 24" fill="none" xmlns="http://www.w3.org/2000/svg">
<g opacity="0.35">
<path d="M12.0005 2C7.73203 2 4.17613 5.2719 3.82165 9.52563L3.46665 13.7856C3.43551 14.1593 3.31676 14.5205 3.14641 15.0315C2.62544 16.5944 3.67849 18.2394 5.31544 18.4213C5.66778 18.4604 6.02038 18.4965 6.37321 18.5294C6.66955 18.5571 6.96281 18.4513 7.17327 18.2408L18.6211 6.79303C18.9638 6.45028 19.0114 5.91105 18.734 5.51356C17.2461 3.38195 14.7741 2 12.0005 2Z" fill="#111111"/>
<path fill-rule="evenodd" clip-rule="evenodd" d="M20.195 9.71312C20.1626 9.32508 19.908 8.99111 19.5424 8.85718C19.1768 8.72325 18.7666 8.81372 18.4913 9.08906L8.78748 18.7929C8.47557 19.1048 8.40487 19.5842 8.61347 19.9729C9.25991 21.1774 10.5334 22 12.0005 22C13.9483 22 15.5576 20.5506 15.8086 18.6714C16.7687 18.6109 17.7277 18.5274 18.6848 18.421C20.3205 18.2392 21.3729 16.5965 20.8543 15.0345C20.6844 14.5228 20.5657 14.1618 20.5345 13.788L20.195 9.71312ZM11.6186 18.7902C12.3257 18.7947 13.0328 18.7867 13.7397 18.7664C13.4884 19.4848 12.8046 20 12.0005 20C11.5561 20 11.1479 19.8428 10.829 19.5798L11.6186 18.7902Z" fill="#111111"/>
</g>
<path d="M6.46633 17.5337C6.11934 17.5013 5.77256 17.4659 5.42604 17.4274C4.42166 17.3158 3.77569 16.3065 4.09526 15.3478C4.25729 14.8617 4.42046 14.3836 4.46337 13.8687L4.81837 9.60867C5.12965 5.87324 8.25229 3 12.0007 3C14.4355 3 16.6064 4.21238 17.9141 6.08593M6.46633 17.5337L17.9141 6.08593M6.46633 17.5337L3 21M17.9141 6.08593L21 3M19.1986 9.79616L19.5382 13.8711C19.5811 14.3856 19.7441 14.8637 19.9054 15.3497C20.2236 16.3078 19.5779 17.3156 18.5745 17.4271C17.3333 17.5651 16.0887 17.6639 14.8428 17.7235C13.6321 17.7814 12.4202 17.8023 11.2086 17.7862L9.49476 19.5C9.97396 20.3929 10.9164 21 12.0006 21C13.5703 21 14.8428 19.7275 14.8428 18.1579V17.8125" stroke="#111111" stroke-width="2" stroke-linecap="round" stroke-linejoin="round"/>
</svg>
