<svg
  xmlns="http://www.w3.org/2000/svg"
  width="24"
  height="24"
  viewBox="0 0 24 24"
  fill="none"
  stroke="currentColor"
  stroke-width="2"
  stroke-linecap="round"
  stroke-linejoin="round"
>
  <path d="M16.7835 18.7638L18.7635 16.7838C19.1595 16.3878 19.3575 16.1898 19.4315 15.9618C19.4967 15.761 19.4967 15.5446 19.4315 15.3438C19.3575 15.1148 19.1595 14.9168 18.7635 14.5208L11.7465 7.5048C12.7383 6.60633 13.7595 5.74085 14.8085 4.9098C11.7969 4.45803 8.73946 4.3982 5.71249 4.7318C5.46199 4.75921 5.22834 4.87127 5.05015 5.04946C4.87196 5.22765 4.7599 5.4613 4.73249 5.7118C4.39786 8.73903 4.45735 11.7969 4.90949 14.8088C5.7405 13.7598 6.60598 12.7386 7.50449 11.7468L14.5205 18.7638C14.9165 19.1598 15.1145 19.3578 15.3435 19.4318C15.5443 19.497 15.7607 19.497 15.9615 19.4318C16.1895 19.3578 16.3875 19.1598 16.7835 18.7638Z" fill="currentColor" opacity="0.28"/>
  <path d="M18.7638 16.784L16.7839 18.7639C16.3879 19.1599 16.1898 19.3579 15.9615 19.4321C15.7607 19.4974 15.5443 19.4974 15.3435 19.4321C15.1152 19.3579 14.9171 19.1599 14.5211 18.7639L7.5043 11.7471C6.6065 12.7382 5.74106 13.7594 4.90951 14.8091C4.45757 11.7906 4.39821 8.73302 4.73198 5.71268C4.76061 5.45358 4.87621 5.22276 5.04942 5.04954C5.22263 4.87633 5.45346 4.76073 5.71256 4.7321C8.7329 4.39834 11.7905 4.45769 14.809 4.90963C13.7593 5.74118 12.7381 6.60663 11.7469 7.50443L18.7638 14.5213C19.1598 14.9173 19.3578 15.1153 19.432 15.3436C19.4972 15.5445 19.4972 15.7608 19.432 15.9616C19.3578 16.19 19.1598 16.388 18.7638 16.784Z" stroke="currentColor" stroke-width="2"/>
</svg>