<svg
  xmlns="http://www.w3.org/2000/svg"
  width="24"
  height="24"
  viewBox="0 0 24 24"
  fill="none"
  stroke="currentColor"
  stroke-width="2"
  stroke-linecap="round"
  stroke-linejoin="round"
>
  <g opacity="0.28"><path d="M12.145 8.60379C13.2707 7.24852 14.5768 6.03704 16.031 5L15.8656 7.19972C15.8205 7.79897 15.7979 8.39948 15.7979 9C15.7979 9.60052 15.8205 10.201 15.8656 10.8003L16.031 13C14.5768 11.963 13.2707 10.7515 12.145 9.39621C12.0484 9.27995 12.0001 9.13998 12.0001 9C12.0001 8.86002 12.0484 8.72005 12.145 8.60379Z" fill="currentColor"/><path d="M7.96924 11C9.42344 12.037 10.7295 13.2485 11.8553 14.6038C11.9518 14.72 12.0001 14.86 12.0001 15C12.0001 15.14 11.9518 15.28 11.8553 15.3962C10.7295 16.7515 9.42344 17.963 7.96924 19L8.13471 16.8003C8.17979 16.201 8.20233 15.6005 8.20233 15C8.20233 14.3995 8.17979 13.799 8.13471 13.1997L7.96924 11Z" fill="currentColor"/></g>
  <path d="M15.7978 9L20 9M15.7978 9C15.7978 8.39948 15.8203 7.79897 15.8654 7.19972L16.0309 5C14.5767 6.03704 13.2706 7.24852 12.1449 8.60379C12.0483 8.72005 12 8.86002 12 9C12 9.13998 12.0483 9.27995 12.1449 9.39621C13.2706 10.7515 14.5767 11.963 16.0309 13L15.8654 10.8003C15.8203 10.201 15.7978 9.60052 15.7978 9ZM8.20219 15H4M8.20219 15C8.20219 14.3995 8.17965 13.799 8.13458 13.1997L7.96911 11C9.42331 12.037 10.7294 13.2485 11.8551 14.6038C11.9517 14.72 12 14.86 12 15C12 15.14 11.9517 15.28 11.8551 15.3962C10.7294 16.7515 9.42331 17.963 7.96911 19L8.13458 16.8003C8.17965 16.201 8.20219 15.6005 8.20219 15Z" stroke="currentColor" stroke-width="2"/>
</svg>