<svg
  xmlns="http://www.w3.org/2000/svg"
  width="24"
  height="24"
  viewBox="0 0 24 24"
  fill="none"
  stroke="currentColor"
  stroke-width="2"
  stroke-linecap="round"
  stroke-linejoin="round"
>
  <g opacity="0.28"><path d="M10.3472 13.0871C8.57593 12.9232 6.77857 12.9908 5 13.2886L6.73061 14.7823C7.61936 15.5494 8.45063 16.3806 9.21772 17.2694L10.7114 19C11.0092 17.2214 11.0768 15.4241 10.9129 13.6528C10.8989 13.5009 10.8334 13.3665 10.7335 13.2665C10.6335 13.1666 10.4991 13.1011 10.3472 13.0871Z" fill="currentColor"/><path d="M13.6528 10.9129C15.4241 11.0768 17.2214 11.0092 19 10.7114L17.2694 9.21772C16.3806 8.45063 15.5494 7.61936 14.7823 6.73061L13.2886 5C12.9908 6.77857 12.9232 8.57593 13.0871 10.3472C13.1011 10.4991 13.1666 10.6335 13.2665 10.7335C13.3665 10.8334 13.5009 10.8989 13.6528 10.9129Z" fill="currentColor"/></g>
  <path d="M10.3472 13.0871C8.57593 12.9232 6.77857 12.9908 5 13.2886L6.73061 14.7823C7.61936 15.5494 8.45063 16.3806 9.21772 17.2694L10.7114 19C11.0092 17.2214 11.0768 15.4241 10.9129 13.6528C10.8989 13.5009 10.8334 13.3665 10.7335 13.2665C10.6335 13.1666 10.4991 13.1011 10.3472 13.0871Z" stroke="currentColor" stroke-width="2"/>
  <path d="M13.6528 10.9129C15.4241 11.0768 17.2214 11.0092 19 10.7114L17.2694 9.21772C16.3806 8.45063 15.5494 7.61936 14.7823 6.73061L13.2886 5C12.9908 6.77857 12.9232 8.57593 13.0871 10.3472C13.1011 10.4991 13.1666 10.6335 13.2665 10.7335C13.3665 10.8334 13.5009 10.8989 13.6528 10.9129Z" stroke="currentColor" stroke-width="2"/>
</svg>