<svg
  xmlns="http://www.w3.org/2000/svg"
  width="24"
  height="24"
  viewBox="0 0 24 24"
  fill="none"
  stroke="currentColor"
  stroke-width="2"
  stroke-linecap="round"
  stroke-linejoin="round"
>
  <path d="M4.25 14C5.13809 17.4505 8.27029 20 11.998 20C16.4162 20 19.998 16.4183 19.998 12C19.998 7.58172 16.4162 4 11.998 4C10.3527 4 8.82351 4.49663 7.55201 5.34817M7.55201 5.34817C7.15186 4.65429 6.78644 3.94038 6.45727 3.20904L6.21461 2.66992C5.70539 3.86202 5.35307 5.11461 5.16604 6.39629C5.1172 6.73098 5.38097 6.88085 5.6446 6.9818C6.79315 7.42163 7.99212 7.71879 9.21461 7.86607L8.86905 7.38637C8.39565 6.72919 7.95612 6.0489 7.55201 5.34817Z" stroke="currentColor" stroke-width="2"/>
  <path d="M5.16604 6.39629C5.35307 5.11461 5.70539 3.86202 6.21461 2.66992L7.4522 5.4195L9.21461 7.86607C8.02546 7.72281 6.85855 7.43772 5.73867 7.01746C5.70727 7.00568 5.67592 6.9938 5.6446 6.9818C5.38097 6.88085 5.1172 6.73098 5.16604 6.39629Z" fill="currentColor" opacity="0.28"/>
</svg>