<svg
  xmlns="http://www.w3.org/2000/svg"
  width="24"
  height="24"
  viewBox="0 0 24 24"
  fill="none"
  stroke="currentColor"
  stroke-width="2"
  stroke-linecap="round"
  stroke-linejoin="round"
>
  <path d="M18.832 6.39629C18.645 5.11461 18.2927 3.86202 17.7834 2.66992L17.5408 3.20904C16.8792 4.67894 16.0712 6.07845 15.129 7.38637L14.7834 7.86607C15.9726 7.72281 17.1395 7.43772 18.2594 7.01746C18.2908 7.00568 18.3221 6.9938 18.3535 6.9818C18.6171 6.88085 18.8809 6.73098 18.832 6.39629Z" fill="currentColor" opacity="0.28"/>
  <path d="M19.748 14C18.8599 17.4505 15.7277 20 12 20C7.58172 20 4 16.4183 4 12C4 7.58172 7.58172 4 12 4C13.6452 4 15.1745 4.49663 16.446 5.34817M16.446 5.34817C16.8461 4.65429 17.2115 3.94038 17.5407 3.20904L17.7834 2.66992C18.2926 3.86202 18.6449 5.11461 18.8319 6.39629C18.8808 6.73098 18.617 6.88085 18.3534 6.9818C17.2048 7.42163 16.0058 7.71879 14.7834 7.86607L15.1289 7.38637C15.6023 6.72919 16.0418 6.0489 16.446 5.34817Z" stroke="currentColor" stroke-width="2"/>
</svg>