<svg
  xmlns="http://www.w3.org/2000/svg"
  width="24"
  height="24"
  viewBox="0 0 24 24"
  fill="none"
  stroke="currentColor"
  stroke-width="2"
  stroke-linecap="round"
  stroke-linejoin="round"
>
  <path d="M4.14461 7.59488C5.27036 6.21138 6.57645 4.97466 8.03065 3.91602L7.85972 6.23561C7.81646 6.82273 7.79483 7.41104 7.79483 7.99935C7.79483 8.58766 7.81646 9.17597 7.85972 9.76309L8.03065 12.0827C6.57645 11.024 5.27036 9.78732 4.14461 8.40382C4.04804 8.28513 3.99976 8.14224 3.99976 7.99935C3.99976 7.85646 4.04804 7.71356 4.14461 7.59488Z" fill="currentColor" opacity="0.28"/>
  <path d="M7.79507 7.99935H15C17.7614 7.99935 20 10.2379 20 12.9993C20 15.7608 17.7614 17.9993 15 17.9993H12M7.79507 7.99935C7.79507 7.41104 7.8167 6.82273 7.85997 6.23561L8.03089 3.91602C6.57669 4.97466 5.2706 6.21138 4.14485 7.59488C4.04828 7.71356 4 7.85646 4 7.99935C4 8.14224 4.04828 8.28513 4.14485 8.40382C5.2706 9.78732 6.57669 11.024 8.03089 12.0827L7.85997 9.76309C7.8167 9.17597 7.79507 8.58766 7.79507 7.99935Z" stroke="currentColor" stroke-width="2"/>
</svg>