<svg width="24" height="24" viewBox="0 0 24 24" fill="none" xmlns="http://www.w3.org/2000/svg">
<path opacity="0.28" d="M2.84985 12.0001C2.84985 17.0535 6.94645 21.1501 11.9999 21.1501C17.0533 21.1501 21.1499 17.0535 21.1499 12.0001C21.1499 6.94669 17.0533 2.8501 11.9999 2.8501C6.94645 2.8501 2.84985 6.94669 2.84985 12.0001Z" stroke="#111111" stroke-width="2" stroke-linecap="round" stroke-linejoin="round"/>
<path d="M12.0514 8C13.4759 9.03704 14.7553 10.2485 15.8581 11.6038C15.9527 11.72 16 11.86 16 12M12.0514 16C13.4759 14.963 14.7553 13.7515 15.8581 12.3962C15.9527 12.28 16 12.14 16 12M16 12L8 12" stroke="#111111" stroke-width="2" stroke-linecap="round" stroke-linejoin="round"/>
</svg>
