<svg width="24" height="24" viewBox="0 0 24 24" fill="none" xmlns="http://www.w3.org/2000/svg">
<path opacity="0.28" d="M12 9H20M12 15H4" stroke="#111111" stroke-width="2" stroke-linecap="round" stroke-linejoin="round"/>
<path d="M16.031 5C14.5768 6.03704 13.2707 7.24852 12.145 8.60379C12.0484 8.72005 12.0001 8.86002 12.0001 9C12.0001 9.13998 12.0484 9.27995 12.145 9.39621C13.2707 10.7515 14.5768 11.963 16.031 13M7.96924 11C9.42344 12.037 10.7295 13.2485 11.8553 14.6038C11.9518 14.72 12.0001 14.86 12.0001 15C12.0001 15.14 11.9518 15.28 11.8553 15.3962C10.7295 16.7515 9.42344 17.963 7.96924 19" stroke="#111111" stroke-width="2" stroke-linecap="round" stroke-linejoin="round"/>
</svg>
