<svg
  xmlns="http://www.w3.org/2000/svg"
  width="24"
  height="24"
  viewBox="0 0 24 24"
  fill="none"
  stroke="currentColor"
  stroke-width="2"
  stroke-linecap="round"
  stroke-linejoin="round"
>
  <path d="M11.1499 13.8492L12.3381 15.0373M13.8779 11.1212L15.0661 12.3093M16.4991 8.5L17.6873 9.68814" stroke="currentColor" stroke-width="2"/>
  <path d="M15.1825 3.15998C16.7445 1.59839 19.2767 1.59834 20.8387 3.15998C22.4006 4.72204 22.4006 7.25516 20.8387 8.8172L18.8378 10.8182C18.8346 10.8214 18.8322 10.8257 18.829 10.8289C18.826 10.8318 18.8222 10.8339 18.8192 10.8367L12.4657 17.1912C11.946 17.711 11.5765 18.0865 11.1756 18.3758L11.0008 18.4949C10.7002 18.6881 10.3799 18.8487 10.0458 18.9734L9.70689 19.0857C9.30258 19.2045 8.88236 19.2549 8.34459 19.2977L7.76256 19.3396L5.9442 19.4705L3.70787 21.7078C3.31748 22.0981 2.68335 22.0979 2.29283 21.7078C1.90235 21.3173 1.90243 20.6833 2.29283 20.2928L4.53014 18.0564L4.66002 16.2371C4.71271 15.5037 4.74644 14.978 4.86021 14.4969L4.91393 14.2928C5.01466 13.9501 5.15224 13.6194 5.32311 13.3064L5.50572 12.9998C5.73368 12.6451 6.01857 12.3326 6.39732 11.948L6.80846 11.535L15.1825 3.15998Z" fill="currentColor" opacity="0.28"/>
  <path d="M5.5 18.5006L7.69115 18.3431M5.5 18.5006L5.65746 16.3091C5.72073 15.4284 5.75237 14.988 5.87356 14.5756C5.98104 14.2099 6.14028 13.8613 6.34642 13.5406C6.57882 13.179 6.89098 12.8668 7.51532 12.2425L15.8889 3.86816M5.5 18.5006L3 21.0006" stroke="currentColor" stroke-width="2"/>
</svg>