<svg width="24" height="24" viewBox="0 0 24 24" fill="none" xmlns="http://www.w3.org/2000/svg">
<path fill-rule="evenodd" clip-rule="evenodd" d="M3 2C2.46957 2 1.96086 2.21071 1.58579 2.58579C1.21071 2.96086 1 3.46957 1 4V5C1 5.53043 1.21071 6.03914 1.58579 6.41421C1.96086 6.78929 2.46957 7 3 7H21C21.5304 7 22.0391 6.78929 22.4142 6.41421C22.7893 6.03914 23 5.53043 23 5V4C23 3.46957 22.7893 2.96086 22.4142 2.58579C22.0391 2.21071 21.5304 2 21 2H3ZM3 10C3 9.73478 3.10536 9.48043 3.29289 9.29289C3.48043 9.10536 3.73478 9 4 9H20C20.2652 9 20.5196 9.10536 20.7071 9.29289C20.8946 9.48043 21 9.73478 21 10V17C21 18.3261 20.4732 19.5979 19.5355 20.5355C18.5979 21.4732 17.3261 22 16 22H8C6.67392 22 5.40215 21.4732 4.46447 20.5355C3.52678 19.5979 3 18.3261 3 17V10ZM13 18.5C13 18.7652 12.8946 19.0196 12.7071 19.2071C12.5196 19.3946 12.2652 19.5 12 19.5C11.7348 19.5 11.4804 19.3946 11.2929 19.2071C11.1054 19.0196 11 18.7652 11 18.5V14.584C10.728 14.879 10.47 15.188 10.229 15.51C10.0699 15.7222 9.83297 15.8624 9.57042 15.8999C9.30787 15.9375 9.04117 15.8691 8.829 15.71C8.61683 15.5509 8.47656 15.314 8.43905 15.0514C8.40154 14.7889 8.46987 14.5222 8.629 14.31C9.31223 13.3987 10.1052 12.5752 10.99 11.858C11.2756 11.6263 11.6322 11.4998 12 11.4998C12.3678 11.4998 12.7244 11.6263 13.01 11.858C13.894 12.575 14.688 13.398 15.371 14.31C15.5301 14.5222 15.5985 14.7889 15.5609 15.0514C15.5234 15.314 15.3832 15.5509 15.171 15.71C14.9588 15.8691 14.6921 15.9375 14.4296 15.8999C14.167 15.8624 13.9301 15.7222 13.771 15.51C13.5299 15.1884 13.2726 14.8794 13 14.584V18.5Z" fill="#111111"/>
</svg>
