<svg width="24" height="24" viewBox="0 0 24 24" fill="none" xmlns="http://www.w3.org/2000/svg">
<path fill-rule="evenodd" clip-rule="evenodd" d="M3 2C2.46957 2 1.96086 2.21071 1.58579 2.58579C1.21071 2.96086 1 3.46957 1 4V5C1 5.53043 1.21071 6.03914 1.58579 6.41421C1.96086 6.78929 2.46957 7 3 7H21C21.5304 7 22.0391 6.78929 22.4142 6.41421C22.7893 6.03914 23 5.53043 23 5V4C23 3.46957 22.7893 2.96086 22.4142 2.58579C22.0391 2.21071 21.5304 2 21 2H3ZM3 10C3 9.73478 3.10536 9.48043 3.29289 9.29289C3.48043 9.10536 3.73478 9 4 9H20C20.2652 9 20.5196 9.10536 20.7071 9.29289C20.8946 9.48043 21 9.73478 21 10V17C21 18.3261 20.4732 19.5979 19.5355 20.5355C18.5979 21.4732 17.3261 22 16 22H8C6.67392 22 5.40215 21.4732 4.46447 20.5355C3.52678 19.5979 3 18.3261 3 17V10ZM16.013 13.826C16.2321 13.6764 16.3827 13.4459 16.4319 13.1853C16.481 12.9246 16.4246 12.6551 16.275 12.436C16.1254 12.2169 15.8949 12.0663 15.6343 12.0171C15.3736 11.968 15.1041 12.0244 14.885 12.174C13.2475 13.2924 11.8324 14.7058 10.712 16.342L9.257 14.89C9.16469 14.7946 9.05429 14.7185 8.93225 14.6661C8.81021 14.6138 8.67897 14.5863 8.54619 14.5853C8.41341 14.5842 8.28175 14.6096 8.15889 14.66C8.03603 14.7103 7.92443 14.7847 7.83061 14.8786C7.73678 14.9726 7.66261 15.0843 7.61241 15.2072C7.56222 15.3301 7.53701 15.4618 7.53826 15.5946C7.5395 15.7274 7.56718 15.8586 7.61968 15.9806C7.67217 16.1025 7.74843 16.2128 7.844 16.305L10.185 18.643C10.2937 18.7517 10.4259 18.8339 10.5715 18.8832C10.7171 18.9325 10.8721 18.9476 11.0244 18.9272C11.1767 18.9069 11.3224 18.8518 11.4499 18.7661C11.5775 18.6803 11.6836 18.5664 11.76 18.433C12.8107 16.5952 14.2649 15.02 16.013 13.826Z" fill="#111111"/>
</svg>
