<svg
  xmlns="http://www.w3.org/2000/svg"
  width="24"
  height="24"
  viewBox="0 0 24 24"
  fill="none"
  stroke="currentColor"
  stroke-width="2"
  stroke-linecap="round"
  stroke-linejoin="round"
>
  <path d="M12.0001 22.1499C17.6058 22.1499 22.1501 17.6055 22.1501 11.9999C22.1501 6.39416 17.6058 1.84985 12.0001 1.84985C6.39441 1.84985 1.8501 6.39416 1.8501 11.9999C1.8501 17.6055 6.39441 22.1499 12.0001 22.1499Z" fill="currentColor" opacity="0.28"/>
  <path d="M16 12.0514C14.963 13.4759 13.7515 14.7553 12.3962 15.8581C12.28 15.9527 12.14 16 12 16M8 12.0514C9.03704 13.4759 10.2485 14.7553 11.6038 15.8581C11.72 15.9527 11.86 16 12 16M12 16L12 8" stroke="currentColor" stroke-width="2"/>
</svg>