<svg
  xmlns="http://www.w3.org/2000/svg"
  width="24"
  height="24"
  viewBox="0 0 24 24"
  fill="none"
  stroke="currentColor"
  stroke-width="2"
  stroke-linecap="round"
  stroke-linejoin="round"
>
  <path d="M15.9249 12.5615C16.3439 12.4812 16.768 12.6759 16.9805 13.0459L17.4502 13.8643L17.6876 14.248C17.9365 14.6234 18.2206 14.9728 18.5352 15.292L18.7042 15.458C19.1052 15.8383 19.5518 16.1716 20.0352 16.4492L20.8536 16.9189L20.9844 17.0088C21.2681 17.238 21.4082 17.6081 21.3379 17.9746C21.2575 18.3938 20.9196 18.716 20.4971 18.7764C19.3571 18.9392 18.204 18.9781 17.0577 18.8935L16.5674 18.8496C16.1921 18.8103 15.8523 18.6507 15.5899 18.4092L15.4825 18.3008C15.275 18.0722 15.1287 17.7859 15.0694 17.4697L15.0499 17.332C14.9129 16.0248 14.937 14.705 15.1231 13.4023L15.1573 13.248C15.2651 12.8993 15.5581 12.6319 15.9249 12.5615ZM3.5108 5.21582C4.81356 5.02971 6.13415 5.00462 7.44146 5.1416L7.59966 5.16601C7.91228 5.22874 8.19392 5.37645 8.419 5.58398L8.5274 5.69238L8.61236 5.79394C8.77418 6.00323 8.88785 6.25193 8.93853 6.52246L8.95904 6.65917L9.00201 7.15039C9.08651 8.2966 9.04766 9.44996 8.88482 10.5898C8.82436 11.012 8.50284 11.349 8.08404 11.4297C7.66502 11.5103 7.2411 11.3162 7.02837 10.9463L6.5606 10.1338C6.33448 9.7406 6.07157 9.3719 5.77642 9.03222L5.47076 8.70214C5.0937 8.32072 4.67298 7.9824 4.21587 7.69531L4.01763 7.57519L3.14849 7.06933C2.78095 6.85495 2.58938 6.43129 2.67095 6.01367C2.75256 5.59603 3.08957 5.27609 3.5108 5.21582Z" fill="currentColor"/>
  <path d="M6.18208 7.99965C3.01815 11.7879 2.41078 16.5532 4.92893 19.0713C6.76104 20.9034 9.78264 21.081 12.752 19.8233M17.8231 15.9947C20.9825 12.2074 21.5879 7.44596 19.0711 4.92918C17.239 3.09707 14.2174 2.91944 11.248 4.17715" stroke="currentColor" stroke-width="2" opacity="0.28"/>
</svg>