<svg
  xmlns="http://www.w3.org/2000/svg"
  width="24"
  height="24"
  viewBox="0 0 24 24"
  fill="none"
  stroke="currentColor"
  stroke-width="2"
  stroke-linecap="round"
  stroke-linejoin="round"
>
  <path d="M12.0514 8C13.4759 9.03704 14.7553 10.2485 15.8581 11.6038C15.9527 11.72 16 11.86 16 12M12.0514 16C13.4759 14.963 14.7553 13.7515 15.8581 12.3962C15.9527 12.28 16 12.14 16 12M16 12L8 12" stroke="currentColor" stroke-width="2"/>
  <path d="M22.1499 12.0001C22.1499 6.39441 17.6055 1.8501 11.9999 1.8501C6.39416 1.8501 1.84985 6.39441 1.84985 12.0001C1.84985 17.6058 6.39416 22.1501 11.9999 22.1501C17.6055 22.1501 22.1499 17.6058 22.1499 12.0001Z" fill="currentColor" opacity="0.28"/>
</svg>