<svg
  xmlns="http://www.w3.org/2000/svg"
  width="24"
  height="24"
  viewBox="0 0 24 24"
  fill="none"
  stroke="currentColor"
  stroke-width="2"
  stroke-linecap="round"
  stroke-linejoin="round"
>
  <path d="M13.8307 10.8442C14.2332 10.9134 14.6373 10.7308 14.8515 10.3831C15.0656 10.0354 15.0468 9.59239 14.804 9.26406C13.4565 7.44203 11.8821 5.80519 10.1204 4.39411C9.79402 4.13266 9.39747 4 9 4C8.60253 4 8.20598 4.13266 7.87957 4.39411C6.11788 5.80519 4.54346 7.44203 3.19599 9.26406C2.95317 9.59239 2.93439 10.0354 3.14855 10.3831C3.36271 10.7308 3.76678 10.9134 4.16926 10.8442C5.11146 10.6824 5.55667 10.6062 6 10.5478C6.99571 10.4168 7.99786 10.3513 9 10.3513C10.0021 10.3513 11.0043 10.4168 12 10.5478C12.4433 10.6062 12.8886 10.6824 13.8307 10.8442Z" fill="currentColor"/>
  <path d="M9 9.35156V13.0002C9 15.8005 9 17.2006 9.54497 18.2702C10.0243 19.211 10.7892 19.9759 11.73 20.4553C12.7996 21.0002 14.1997 21.0002 17 21.0002H20" stroke="currentColor" stroke-width="2" opacity="0.28"/>
</svg>