<svg
  xmlns="http://www.w3.org/2000/svg"
  width="24"
  height="24"
  viewBox="0 0 24 24"
  fill="none"
  stroke="currentColor"
  stroke-width="2"
  stroke-linecap="round"
  stroke-linejoin="round"
>
  <path d="M1.8501 11.9999C1.8501 17.6055 6.39441 22.1499 12.0001 22.1499C17.6058 22.1499 22.1501 17.6055 22.1501 11.9999C22.1501 6.39416 17.6058 1.84985 12.0001 1.84985C6.39441 1.84985 1.8501 6.39416 1.8501 11.9999Z" fill="currentColor" opacity="0.28"/>
  <path d="M11.9486 16C10.5241 14.963 9.24467 13.7515 8.1419 12.3962C8.0473 12.28 8 12.14 8 12M11.9486 8C10.5241 9.03704 9.24467 10.2485 8.1419 11.6038C8.0473 11.72 8 11.86 8 12M8 12L16 12" stroke="currentColor" stroke-width="2"/>
</svg>