<svg
  xmlns="http://www.w3.org/2000/svg"
  width="24"
  height="24"
  viewBox="0 0 24 24"
  fill="none"
  stroke="currentColor"
  stroke-width="2"
  stroke-linecap="round"
  stroke-linejoin="round"
>
  <path d="M8.35132 15L12 15C14.8002 15 16.2004 15 17.2699 14.455C18.2107 13.9757 18.9756 13.2108 19.455 12.27C20 11.2004 20 9.80026 20 7L20 4" stroke="currentColor" stroke-width="2" opacity="0.28"/>
  <path d="M9.84424 10.1693C9.91336 9.76678 9.73081 9.36271 9.3831 9.14855C9.03539 8.93439 8.59239 8.95317 8.26406 9.19599C6.44203 10.5435 4.80519 12.1179 3.39411 13.8796C3.13266 14.206 3 14.6025 3 15C3 15.3975 3.13266 15.794 3.39411 16.1204C4.80519 17.8821 6.44203 19.4565 8.26406 20.804C8.5924 21.0468 9.03539 21.0656 9.3831 20.8515C9.73081 20.6373 9.91336 20.2332 9.84424 19.8307C9.68243 18.8885 9.60615 18.4433 9.54783 18C9.41683 17.0043 9.35134 16.0021 9.35134 15C9.35134 13.9979 9.41683 12.9957 9.54783 12C9.60615 11.5567 9.68243 11.1114 9.84424 10.1693Z" fill="currentColor"/>
</svg>