<svg
  xmlns="http://www.w3.org/2000/svg"
  width="24"
  height="24"
  viewBox="0 0 24 24"
  fill="none"
  stroke="currentColor"
  stroke-width="2"
  stroke-linecap="round"
  stroke-linejoin="round"
>
  <path d="M10.1078 3.29956C8.26234 2.99053 6.39568 2.92016 4.55445 3.09049C4.17038 3.12602 3.82004 3.2937 3.55687 3.55687C3.2937 3.82004 3.12602 4.17038 3.09049 4.55445C2.92016 6.39568 2.99053 8.26234 3.29956 10.1078C3.36365 10.4906 3.64339 10.8017 4.01719 10.9059C4.391 11.0102 4.79137 10.8887 5.04428 10.5944C5.89806 9.60078 6.78879 8.64015 7.71447 7.71447C8.64015 6.78879 9.60078 5.89807 10.5944 5.04428C10.8887 4.79137 11.0102 4.391 10.9059 4.01719C10.8017 3.64339 10.4906 3.36365 10.1078 3.29956Z" fill="currentColor"/>
  <path d="M19.4455 3.09049C17.6043 2.92016 15.7377 2.99053 13.8922 3.29956C13.5094 3.36365 13.1983 3.64339 13.0941 4.01719C12.9898 4.391 13.1113 4.79137 13.4056 5.04428C14.3992 5.89807 15.3599 6.78879 16.2855 7.71447C17.2112 8.64015 18.1019 9.60078 18.9557 10.5944C19.2086 10.8887 19.609 11.0102 19.9828 10.9059C20.3566 10.8017 20.6364 10.4906 20.7004 10.1078C21.0095 8.26234 21.0798 6.39568 20.9095 4.55446C20.874 4.17038 20.7063 3.82004 20.4431 3.55687C20.18 3.2937 19.8296 3.12602 19.4455 3.09049Z" fill="currentColor"/>
  <path d="M7.00732 7.00732L12 12V20M16.9926 7.00732L15 8.99996" stroke="currentColor" stroke-width="2" opacity="0.28"/>
</svg>