<svg
  xmlns="http://www.w3.org/2000/svg"
  width="24"
  height="24"
  viewBox="0 0 24 24"
  fill="none"
  stroke="currentColor"
  stroke-width="2"
  stroke-linecap="round"
  stroke-linejoin="round"
>
  <path d="M22 9L15.1213 15.8787C13.9497 17.0503 12.0503 17.0503 10.8787 15.8787L5.5 10.5" stroke="currentColor" stroke-width="2" opacity="0.28"/>
  <path d="M9.16515 7.30231C7.30267 6.99044 5.41884 6.91943 3.56069 7.09132C3.17518 7.127 2.82357 7.29529 2.55945 7.55938C2.29536 7.8235 2.127 8.17516 2.09132 8.56067C1.91943 10.4189 1.99044 12.3026 2.30231 14.1651C2.36744 14.5541 2.65504 14.8684 3.03666 14.9677C3.41828 15.0671 3.82265 14.9329 4.06914 14.6251L4.94964 13.5256C6.00656 12.2058 7.20578 11.0066 8.52557 9.94964L9.62508 9.06914C9.93289 8.82265 10.0671 8.41828 9.96775 8.03666C9.86841 7.65504 9.55407 7.36744 9.16515 7.30231Z" fill="currentColor"/>
</svg>