<svg
  xmlns="http://www.w3.org/2000/svg"
  width="24"
  height="24"
  viewBox="0 0 24 24"
  fill="none"
  stroke="currentColor"
  stroke-width="2"
  stroke-linecap="round"
  stroke-linejoin="round"
>
  <path d="M1 9L7.8787 15.8787C9.0503 17.0503 10.9497 17.0503 12.1213 15.8787L17.5 10.5" stroke="currentColor" stroke-width="2" opacity="0.28"/>
  <path d="M13.8349 7.30231C15.6974 6.99044 17.5812 6.91943 19.4393 7.09132C19.8249 7.127 20.1765 7.29529 20.4406 7.55938C20.7047 7.8235 20.873 8.17516 20.9087 8.56067C21.0806 10.4189 21.0096 12.3026 20.6977 14.1651C20.6326 14.5541 20.345 14.8684 19.9634 14.9677C19.5818 15.0671 19.1774 14.9329 18.9309 14.6251L18.0504 13.5256C16.9935 12.2058 15.7943 11.0066 14.4745 9.94964L13.375 9.06914C13.0672 8.82265 12.933 8.41828 13.0323 8.03666C13.1316 7.65504 13.446 7.36744 13.8349 7.30231Z" fill="currentColor"/>
</svg>