<svg
  xmlns="http://www.w3.org/2000/svg"
  width="24"
  height="24"
  viewBox="0 0 24 24"
  fill="none"
  stroke="currentColor"
  stroke-width="2"
  stroke-linecap="round"
  stroke-linejoin="round"
>
  <path d="M14.3869 3.25294C16.1052 2.97684 17.8449 2.92647 19.5611 3.10333C19.91 3.13928 20.2276 3.29395 20.4667 3.53303C20.7053 3.77172 20.8607 4.08946 20.8966 4.43888C21.0734 6.15492 21.0232 7.89496 20.747 9.61322C20.6851 9.99839 20.4049 10.3124 20.0292 10.4175C19.6535 10.5227 19.251 10.3998 18.9982 10.1027L17.8522 8.75621C17.6694 8.54136 17.4826 8.32994 17.2921 8.12208L10.7071 14.7071C10.3166 15.0976 9.68342 15.0976 9.29289 14.7071C8.90237 14.3166 8.90237 13.6834 9.29289 13.2929L15.8779 6.70785C15.6701 6.51733 15.4587 6.33059 15.2438 6.14774L13.8974 5.0018C13.6003 4.74895 13.4774 4.34642 13.5825 3.97074C13.6877 3.59506 14.0017 3.31482 14.3869 3.25294Z" fill="currentColor"/>
  <path d="M20 13.5001C20 14.8946 20 15.5919 19.8618 16.1673C19.4229 17.9956 17.9955 19.423 16.1672 19.8619C15.5918 20.0001 14.8945 20.0001 13.5 20.0001H12C9.19974 20.0001 7.79961 20.0001 6.73005 19.4551C5.78924 18.9758 5.02433 18.2109 4.54497 17.2701C4 16.2005 4 14.8004 4 12.0001V11.5001C4 9.17035 4 8.0055 4.3806 7.08664C4.88807 5.8615 5.86144 4.88813 7.08658 4.38066C7.86344 4.05888 8.81614 4.00915 10.5 4.00146" stroke="currentColor" stroke-width="2" opacity="0.28"/>
</svg>