<svg
  xmlns="http://www.w3.org/2000/svg"
  width="24"
  height="24"
  viewBox="0 0 24 24"
  fill="none"
  stroke="currentColor"
  stroke-width="2"
  stroke-linecap="round"
  stroke-linejoin="round"
>
  <path d="M14.3869 3.25294C16.1052 2.97684 17.8449 2.92647 19.5611 3.10333C19.91 3.13928 20.2276 3.29395 20.4667 3.53303C20.7053 3.77172 20.8607 4.08946 20.8966 4.43888C21.0734 6.15492 21.0232 7.89496 20.747 9.61322C20.6851 9.99839 20.4049 10.3124 20.0292 10.4175C19.6535 10.5227 19.251 10.3998 18.9982 10.1027L17.8522 8.75621C17.6694 8.54136 17.4826 8.32994 17.2921 8.12208L10.7071 14.7071C10.3166 15.0976 9.68342 15.0976 9.29289 14.7071C8.90237 14.3166 8.90237 13.6834 9.29289 13.2929L15.8779 6.70785C15.6701 6.51733 15.4587 6.33059 15.2438 6.14774L13.8974 5.0018C13.6003 4.74895 13.4774 4.34642 13.5825 3.97074C13.6877 3.59506 14.0017 3.31482 14.3869 3.25294Z" fill="currentColor"/>
  <path d="M19.9741 13.5C19.6642 17.1412 16.6103 20 12.8889 20H12C7.58172 20 4 16.4183 4 12V11.1111C4 7.3896 6.85873 4.3358 10.5 4.02588" stroke="currentColor" stroke-width="2" opacity="0.28"/>
</svg>