<svg
  xmlns="http://www.w3.org/2000/svg"
  width="24"
  height="24"
  viewBox="0 0 24 24"
  fill="none"
  stroke="currentColor"
  stroke-width="2"
  stroke-linecap="round"
  stroke-linejoin="round"
>
  <path d="M15.8348 2.25422C17.4009 1.99198 18.9852 1.93222 20.5481 2.07681C20.9083 2.11013 21.2375 2.26752 21.485 2.515C21.7325 2.76247 21.8899 3.0917 21.9232 3.45189C22.0678 5.01483 22.008 6.5991 21.7458 8.16515C21.6813 8.55026 21.3986 8.86261 21.0218 8.965C20.645 9.0674 20.243 8.94111 19.9925 8.6416L19.1957 7.68911C18.7586 7.16653 18.2987 6.66388 17.8174 6.18259C17.3361 5.70131 16.8335 5.24139 16.3109 4.80426L15.3584 4.00752C15.0589 3.75699 14.9326 3.35505 15.035 2.97825C15.1374 2.60144 15.4497 2.3187 15.8348 2.25422Z" fill="currentColor"/>
  <path d="M18.5246 18.5246L15.0001 15.0001M18.5246 5.47559L15.0001 9.0001M5.47559 5.47559L9.0001 9.0001M5.47559 18.5246L9.0001 15.0001" stroke="currentColor" stroke-width="2" opacity="0.28"/>
  <path d="M2.25422 15.8348C2.3187 15.4497 2.60144 15.1374 2.97825 15.035C3.35505 14.9326 3.75699 15.0589 4.00752 15.3584L4.80426 16.3109C5.24139 16.8335 5.70131 17.3361 6.18259 17.8174C6.66388 18.2987 7.16653 18.7586 7.68911 19.1957L8.64161 19.9925C8.94111 20.243 9.0674 20.6449 8.965 21.0218C8.86261 21.3986 8.55026 21.6813 8.16515 21.7458C6.5991 22.008 5.01483 22.0678 3.45189 21.9232C3.0917 21.8899 2.76247 21.7325 2.51499 21.485C2.26752 21.2375 2.11013 20.9083 2.07681 20.5481C1.93222 18.9852 1.99198 17.4009 2.25422 15.8348Z" fill="currentColor"/>
  <path d="M21.0218 15.035C21.3986 15.1374 21.6813 15.4497 21.7458 15.8348C22.008 17.4009 22.0678 18.9852 21.9232 20.5481C21.8899 20.9083 21.7325 21.2375 21.485 21.485C21.2375 21.7325 20.9083 21.8899 20.5481 21.9232C18.9852 22.0678 17.4009 22.008 15.8349 21.7458C15.4497 21.6813 15.1374 21.3986 15.035 21.0218C14.9326 20.6449 15.0589 20.243 15.3584 19.9925L16.3109 19.1957C16.8335 18.7586 17.3361 18.2987 17.8174 17.8174C18.2987 17.3361 18.7586 16.8335 19.1957 16.3109L19.9925 15.3584C20.243 15.0589 20.6449 14.9326 21.0218 15.035Z" fill="currentColor"/>
  <path d="M3.45189 2.07681C5.01483 1.93222 6.5991 1.99198 8.16515 2.25422C8.55026 2.3187 8.86261 2.60144 8.965 2.97825C9.0674 3.35505 8.94111 3.75699 8.64161 4.00752L7.68911 4.80426C7.16653 5.24139 6.66388 5.70131 6.18259 6.18259C5.70131 6.66388 5.24139 7.16653 4.80426 7.68911L4.00752 8.6416C3.75699 8.94111 3.35505 9.0674 2.97825 8.965C2.60144 8.86261 2.3187 8.55026 2.25422 8.16515C1.99198 6.5991 1.93222 5.01483 2.07681 3.45189C2.11013 3.0917 2.26752 2.76247 2.51499 2.515C2.76247 2.26752 3.0917 2.11013 3.45189 2.07681Z" fill="currentColor"/>
</svg>