<svg
  xmlns="http://www.w3.org/2000/svg"
  width="24"
  height="24"
  viewBox="0 0 24 24"
  fill="none"
  stroke="currentColor"
  stroke-width="2"
  stroke-linecap="round"
  stroke-linejoin="round"
>
  <path d="M19.4482 3.09049C17.607 2.92016 15.7403 2.99053 13.8948 3.29956C13.5121 3.36365 13.201 3.64342 13.0967 4.01726C12.9925 4.39109 13.114 4.79148 13.4084 5.04437L15.0709 6.47252C15.5107 6.85038 15.936 7.24461 16.3458 7.65432C16.7564 8.06489 17.1515 8.49102 17.5302 8.9318L18.9583 10.5943C19.2112 10.8887 19.6116 11.0102 19.9854 10.9059C20.3593 10.8017 20.639 10.4906 20.7031 10.1078C21.0121 8.26234 21.0825 6.39568 20.9122 4.55445C20.8767 4.17038 20.709 3.82004 20.4458 3.55687C20.1826 3.2937 19.8323 3.12602 19.4482 3.09049Z" fill="currentColor"/>
  <path d="M5.04437 13.4057C4.79148 13.1113 4.3911 12.9898 4.01726 13.0941C3.64342 13.1983 3.36365 13.5094 3.29956 13.8922C2.99053 15.7377 2.92016 17.6043 3.09049 19.4455C3.12602 19.8296 3.2937 20.18 3.55687 20.4431C3.82004 20.7063 4.17038 20.874 4.55445 20.9095C6.39568 21.0798 8.26234 21.0095 10.1078 20.7004C10.4906 20.6364 10.8017 20.3566 10.9059 19.9827C11.0102 19.6089 10.8887 19.2085 10.5943 18.9556L8.9318 17.5275C8.49148 17.1492 8.06579 16.7546 7.65561 16.3444C7.24544 15.9342 6.85078 15.5085 6.47252 15.0682L5.04437 13.4057Z" fill="currentColor"/>
  <path d="M6.94849 17.0516L17.0528 6.94727" stroke="currentColor" stroke-width="2" opacity="0.28"/>
</svg>