<svg
  xmlns="http://www.w3.org/2000/svg"
  width="24"
  height="24"
  viewBox="0 0 24 24"
  fill="none"
  stroke="currentColor"
  stroke-width="2"
  stroke-linecap="round"
  stroke-linejoin="round"
>
  <path d="M17.5101 1.47027C17.9069 1.47426 18.2637 1.71248 18.4196 2.07739C18.9628 3.34897 19.3386 4.68506 19.5381 6.05218C19.637 6.73026 19.2578 7.38707 18.6211 7.64042C17.3374 8.15121 15.9924 8.49379 14.6196 8.65919C14.2257 8.70665 13.8409 8.51669 13.6391 8.17506C13.4372 7.83343 13.4564 7.40476 13.6881 7.08259L14.0456 6.58536C14.9395 5.3422 15.7069 4.01288 16.3366 2.6172L16.5885 2.05897C16.7517 1.69727 17.1133 1.46627 17.5101 1.47027Z" fill="currentColor" fill-rule="evenodd" clip-rule="evenodd"/>
  <path d="M7.99987 18.9281C11.8262 21.1372 16.7189 19.8262 18.9281 15.9999C19.874 14.3614 20.1745 12.5275 19.9085 10.7924M15.9999 5.07167C12.1735 2.86253 7.28081 4.17353 5.07167 7.99987C4.05722 9.75694 3.78506 11.7389 4.15789 13.5826" stroke="currentColor" stroke-width="2" opacity="0.28"/>
  <path d="M9.38038 15.3373C9.77433 15.2898 10.1591 15.4798 10.3609 15.8214C10.5628 16.163 10.5436 16.5917 10.3119 16.9139L9.95439 17.4111C9.06053 18.6543 8.29306 19.9836 7.66337 21.3793L7.41151 21.9375C7.24833 22.2992 6.88671 22.5302 6.48993 22.5262C6.09314 22.5222 5.73625 22.284 5.58038 21.9191C5.03721 20.6475 4.6614 19.3114 4.4619 17.9443C4.36295 17.2662 4.74215 16.6094 5.37887 16.356C6.66257 15.8453 8.00758 15.5027 9.38038 15.3373Z" fill="currentColor" fill-rule="evenodd" clip-rule="evenodd"/>
</svg>