<svg
  xmlns="http://www.w3.org/2000/svg"
  width="24"
  height="24"
  viewBox="0 0 24 24"
  fill="none"
  stroke="currentColor"
  stroke-width="2"
  stroke-linecap="round"
  stroke-linejoin="round"
>
  <path d="M17.7931 1.66997C17.3961 1.66615 17.0345 1.89749 16.8716 2.25948L16.6289 2.7986C15.9949 4.20726 15.2205 5.54845 14.3176 6.80187L13.9721 7.28158C13.74 7.60368 13.7205 8.03252 13.9223 8.37438C14.1241 8.71624 14.5089 8.90638 14.9031 8.85889C16.207 8.70179 17.486 8.38482 18.7111 7.91567C18.8661 7.85631 19.1648 7.73365 19.4137 7.48712C19.7163 7.18733 19.8949 6.75464 19.8215 6.25189C19.622 4.88477 19.2462 3.54867 18.7031 2.2771C18.5471 1.91204 18.19 1.67379 17.7931 1.66997Z" fill="currentColor"/>
  <path d="M18.2593 7.01746C16.7936 5.17853 14.5344 4 12 4C7.58172 4 4 7.58172 4 12C4 16.4183 7.58172 20 12 20C15.7277 20 18.8599 17.4505 19.748 14" stroke="currentColor" stroke-width="2" opacity="0.28"/>
</svg>