<svg
  xmlns="http://www.w3.org/2000/svg"
  width="24"
  height="24"
  viewBox="0 0 24 24"
  fill="none"
  stroke="currentColor"
  stroke-width="2"
  stroke-linecap="round"
  stroke-linejoin="round"
>
  <path d="M14 17.344L14 6M10 6.65604V18" stroke="currentColor" stroke-width="2" opacity="0.28"/>
  <path d="M18.8756 16.6303C19.0644 16.9726 19.0365 17.3936 18.804 17.7079C17.7158 19.1794 16.4443 20.5013 15.0214 21.641C14.724 21.8792 14.3625 22.0002 14 22.0002C13.4477 22.0002 13 21.5525 13 21.0002V16.3442H14C14.568 16.3442 15.1359 16.3232 15.7027 16.2811L17.926 16.116C18.3158 16.0871 18.6868 16.288 18.8756 16.6303Z" fill="currentColor"/>
  <path d="M5.12437 7.36992C4.93556 7.0276 4.96353 6.60665 5.19599 6.29233C6.28421 4.82086 7.55575 3.49888 8.97863 2.35919C9.27598 2.12101 9.63753 2 10 2C10.5523 2 11 2.44772 11 3V7.65604H10C9.43205 7.65604 8.8641 7.67707 8.29732 7.71915L6.07403 7.88419C5.68417 7.91313 5.31319 7.71223 5.12437 7.36992Z" fill="currentColor"/>
</svg>