<svg
  xmlns="http://www.w3.org/2000/svg"
  width="24"
  height="24"
  viewBox="0 0 24 24"
  fill="none"
  stroke="currentColor"
  stroke-width="2"
  stroke-linecap="round"
  stroke-linejoin="round"
>
  <path d="M3.99024 14.9715C3.60181 14.9428 3.23211 15.1423 3.04281 15.4827C2.85351 15.8231 2.87906 16.2424 3.10829 16.5573C4.21735 18.0808 5.51355 19.4499 6.96447 20.6305C7.26401 20.8742 7.63054 20.9997 8.00008 20.9997C8.36963 20.9997 8.73616 20.8742 9.0357 20.6305C10.4866 19.4499 11.7828 18.0808 12.8919 16.5573C13.1211 16.2424 13.1467 15.8231 12.9574 15.4827C12.7681 15.1423 12.3984 14.9428 12.0099 14.9715L9.69034 15.1424C9.12768 15.1839 8.56388 15.2046 8.00008 15.2046C7.43629 15.2046 6.87249 15.1839 6.30983 15.1424L3.99024 14.9715Z" fill="currentColor"/>
  <path d="M8 16.2049V9C8 6.23858 10.2386 4 13 4C15.7614 4 18 6.23858 18 9V12" stroke="currentColor" stroke-width="2" opacity="0.28"/>
</svg>