<svg
  xmlns="http://www.w3.org/2000/svg"
  width="24"
  height="24"
  viewBox="0 0 24 24"
  fill="none"
  stroke="currentColor"
  stroke-width="2"
  stroke-linecap="round"
  stroke-linejoin="round"
>
  <path d="M12 8C12.0037 8.10095 12.0055 8.15142 12.0084 8.19485C12.1071 9.69666 13.3033 10.8929 14.8052 10.9916C14.8486 10.9945 14.8991 10.9963 15 11C14.8991 11.0037 14.8486 11.0055 14.8052 11.0084C13.3033 11.1071 12.1071 12.3033 12.0084 13.8052C12.0055 13.8486 12.0037 13.8991 12 14C11.9963 13.8991 11.9945 13.8486 11.9916 13.8052C11.8929 12.3033 10.6967 11.1071 9.19485 11.0084C9.15142 11.0055 9.10095 11.0037 9 11C9.10095 10.9963 9.15142 10.9945 9.19485 10.9916C10.6967 10.8929 11.8929 9.69666 11.9916 8.19485C11.9945 8.15142 11.9963 8.10095 12 8Z" stroke="currentColor" stroke-width="2"/>
  <path d="M8.53748 2C7.50958 1.99999 6.67746 1.99998 6.00297 2.05509C5.30752 2.11191 4.69207 2.23227 4.1212 2.52314C3.21808 2.9833 2.48381 3.71756 2.02365 4.62068C1.73278 5.19155 1.61242 5.80701 1.5556 6.50246C1.50049 7.17695 1.5005 8.00907 1.50051 9.03696L1.5005 13.7303C1.50037 14.3483 1.50027 14.7752 1.55956 15.1497C1.88476 17.2037 3.49567 18.8146 5.54964 19.1398C5.92766 19.1996 6.29131 19.1975 6.57996 19.1933L6.67996 19.1918C6.94196 19.1877 7.13863 19.1846 7.33318 19.2027C7.55739 19.2235 7.76564 19.3277 7.91681 19.4946C8.1088 19.7065 8.25823 19.9165 8.43867 20.1699C8.53551 20.306 8.64132 20.4546 8.76739 20.6228L8.7939 20.6582C9.18379 21.1783 9.51576 21.6212 9.81533 21.9544C10.1259 22.2998 10.4812 22.621 10.9484 22.8027C11.6246 23.0658 12.3749 23.0658 13.0511 22.8027C13.5183 22.621 13.8736 22.2998 14.1842 21.9544C14.4838 21.6212 14.8157 21.1783 15.2056 20.6582L15.2322 20.6228C15.3582 20.4546 15.464 20.306 15.5608 20.17C15.7413 19.9165 15.8907 19.7066 16.0827 19.4946C16.2339 19.3277 16.4422 19.2235 16.6664 19.2027C16.8609 19.1846 17.0576 19.1877 17.3196 19.1918L17.4196 19.1933C17.7082 19.1975 18.0719 19.1996 18.4499 19.1398C20.5039 18.8146 22.1148 17.2037 22.44 15.1497C22.4993 14.7752 22.4992 14.3483 22.499 13.7303L22.499 9.03694C22.499 8.00906 22.499 7.17694 22.4439 6.50246C22.3871 5.80701 22.2668 5.19155 21.9759 4.62068C21.5157 3.71756 20.7815 2.9833 19.8783 2.52314C19.3075 2.23227 18.692 2.11191 17.9966 2.05509C17.3221 1.99998 16.49 1.99999 15.4621 2H8.53748Z" fill="currentColor" opacity="0.28"/>
</svg>