<svg
  xmlns="http://www.w3.org/2000/svg"
  width="24"
  height="24"
  viewBox="0 0 24 24"
  fill="none"
  stroke="currentColor"
  stroke-width="2"
  stroke-linecap="round"
  stroke-linejoin="round"
>
  <path d="M1.10776 10.7344C1.22727 10.3006 1.62185 10 2.07186 10H7.07697C8.13905 10 9.00004 10.861 9.00004 11.9231C9.00004 13.0701 9.92991 14 11.077 14H12.9231C14.0702 14 15 13.0701 15 11.9231C15 10.861 15.861 10 16.9231 10H21.9282C22.3782 10 22.7728 10.3006 22.8923 10.7344C22.9223 10.8434 22.9462 10.954 22.9637 11.0658C23.0004 11.2991 23.0002 11.5323 23.0001 11.7964L23 12.0439C23 13.4069 23.0001 14.4909 22.9286 15.3654C22.8554 16.261 22.7024 17.0247 22.3461 17.7239C21.7708 18.8529 20.853 19.7708 19.724 20.346C19.0247 20.7023 18.2611 20.8554 17.3655 20.9286C16.4909 21 15.4069 21 14.0439 21H9.95631C8.59329 21 7.5092 21 6.63462 20.9286C5.73902 20.8554 4.97535 20.7023 4.2761 20.346C3.14713 19.7708 2.22924 18.8529 1.654 17.7239C1.29772 17.0247 1.14466 16.261 1.07148 15.3654C1.00003 14.4908 1.00003 13.4068 1.00004 12.0438L1.00002 11.7964C0.99986 11.5323 0.999717 11.2991 1.03635 11.0658C1.05391 10.954 1.07775 10.8434 1.10776 10.7344Z" fill="currentColor"/>
  <path d="M12 3C11.6723 3 11.3439 3.10987 11.0747 3.32799C10.3726 3.89693 9.74288 4.55056 9.20003 5.27436C8.86866 5.71618 8.9582 6.34299 9.40003 6.67436C9.84186 7.00573 10.4687 6.91618 10.8 6.47436C10.8652 6.38749 10.9319 6.30186 11 6.2175V9C11 9.55228 11.4477 10 12 10C12.5523 10 13 9.55228 13 9V6.2175C13.0682 6.30186 13.1349 6.38749 13.2 6.47436C13.5314 6.91618 14.1582 7.00573 14.6 6.67436C15.0419 6.34299 15.1314 5.71618 14.8 5.27436C14.2572 4.55056 13.6274 3.89693 12.9253 3.32799C12.6561 3.10987 12.3277 3 12 3Z" fill="currentColor"/>
  <path d="M21.9282 11.0001C21.9114 10.9393 21.8918 10.8793 21.8694 10.8203C21.8139 10.6744 21.7354 10.537 21.5783 10.2622L19.8427 7.22479C19.1715 6.05032 18.836 5.46308 18.3644 5.03586C17.9473 4.65786 17.455 4.37219 16.9198 4.19751M2.07178 11.0001C2.08852 10.9393 2.10814 10.8793 2.13058 10.8203C2.18605 10.6744 2.26456 10.537 2.42159 10.2622L4.15727 7.22479C4.8284 6.05032 5.16396 5.46308 5.63548 5.03586C6.05266 4.65786 6.54493 4.37219 7.08011 4.19751" stroke="currentColor" stroke-width="2" opacity="0.28"/>
</svg>