<svg
  xmlns="http://www.w3.org/2000/svg"
  width="24"
  height="24"
  viewBox="0 0 24 24"
  fill="none"
  stroke="currentColor"
  stroke-width="2"
  stroke-linecap="round"
  stroke-linejoin="round"
>
  <path d="M11.9849 15.4841C13.5426 14.067 15.6954 13.5026 17.7479 13.9733C18.5453 14.1561 19.4954 14.4435 20.2918 14.9792C21.121 15.537 21.8063 16.3839 21.9525 17.6186C22.0115 18.1168 22.0255 18.7127 21.9355 19.2635C21.6259 21.158 19.7857 22.1488 18.1701 21.9581C15.1788 21.605 12.486 20.681 10.1872 19.2543C9.9383 19.0998 9.76965 18.844 9.72581 18.5543C9.68198 18.2646 9.76738 17.9703 9.95946 17.7491C10.1089 17.5769 10.2675 17.3859 10.4342 17.1851C10.8951 16.6298 11.4185 15.9993 11.9849 15.4841Z" fill="currentColor"/>
  <path d="M15.7689 5.10264C16.3698 5.02827 16.9762 4.99431 17.5839 5.00078L14.0328 8.55194C13.6422 8.94246 13.6422 9.57563 14.0328 9.96615C14.4233 10.3567 15.0565 10.3567 15.447 9.96615L18.9981 6.41499C19.0046 7.02274 18.9706 7.6291 18.8963 8.23003C18.8284 8.77813 19.2178 9.27745 19.7659 9.34528C20.314 9.41312 20.8133 9.02378 20.8811 8.47568C21.0407 7.18647 21.0379 5.87807 20.8741 4.58069C20.8266 4.20456 20.657 3.86247 20.3967 3.60219C20.1364 3.34192 19.7944 3.17233 19.4182 3.12483C18.1208 2.96097 16.8124 2.95823 15.5232 3.11779C14.9751 3.18562 14.5858 3.68494 14.6536 4.23304C14.7215 4.78114 15.2208 5.17048 15.7689 5.10264Z" fill="currentColor"/>
  <path d="M4.73589 2.06049C5.2517 1.97614 5.83702 1.99302 6.27746 2.03275C7.44187 2.13777 8.27918 2.7221 8.85271 3.4823C9.40106 4.20911 9.70772 5.09122 9.90462 5.85989C10.4902 8.14596 9.77685 10.5692 8.04598 12.1732C7.57316 12.6113 7.0226 13.0184 6.53247 13.3809C6.3497 13.516 6.17533 13.6449 6.01654 13.767C5.78941 13.9415 5.49836 14.0102 5.21716 13.9558C4.93596 13.9013 4.69161 13.7289 4.54604 13.4822C3.23236 11.2561 2.37804 8.67659 2.04177 5.82633C1.85124 4.21145 2.841 2.37036 4.73589 2.06049Z" fill="currentColor"/>
  <path d="M5.40723 12.9741C6.72398 15.2054 8.52059 17.0432 10.7145 18.4048" stroke="currentColor" stroke-width="2" opacity="0.28"/>
</svg>