<svg
  xmlns="http://www.w3.org/2000/svg"
  width="24"
  height="24"
  viewBox="0 0 24 24"
  fill="none"
  stroke="currentColor"
  stroke-width="2"
  stroke-linecap="round"
  stroke-linejoin="round"
>
  <path d="M21.1501 12.0001C21.1501 17.0535 17.0535 21.1501 12.0001 21.1501C6.94669 21.1501 2.8501 17.0535 2.8501 12.0001C2.8501 6.94669 6.94669 2.8501 12.0001 2.8501C17.0535 2.8501 21.1501 6.94669 21.1501 12.0001Z" fill="currentColor" opacity="0.28"/>
  <path d="M8.00012 12H16.0001M12.0001 8H12.0011M12.0001 16H12.0011M21.1501 12.0001C21.1501 17.0535 17.0535 21.1501 12.0001 21.1501C6.94669 21.1501 2.8501 17.0535 2.8501 12.0001C2.8501 6.94669 6.94669 2.8501 12.0001 2.8501C17.0535 2.8501 21.1501 6.94669 21.1501 12.0001Z" stroke="currentColor" stroke-width="2"/>
</svg>