<svg
  xmlns="http://www.w3.org/2000/svg"
  width="24"
  height="24"
  viewBox="0 0 24 24"
  fill="none"
  stroke="currentColor"
  stroke-width="2"
  stroke-linecap="round"
  stroke-linejoin="round"
>
  <g opacity="0.28" fill="none"><path d="M3 3.00449L5.72665 3.00014C6.11608 2.99951 6.31079 2.9992 6.49406 3.04318C6.65654 3.08217 6.81188 3.14665 6.95435 3.23425C7.11505 3.33305 7.25274 3.47134 7.52811 3.74792L10.6758 6.90948L6.97717 10.6082L3.8099 7.42698C3.54444 7.16035 3.41171 7.02704 3.31544 6.87185C3.23007 6.73423 3.16608 6.58435 3.12568 6.42737C3.08011 6.25034 3.07546 6.06187 3.06616 5.68492L3 3.00449Z" stroke="currentColor" stroke-width="2"/ fill="none"><path d="M20.7123 18.8569L20.6785 18.9085C20.1957 19.6449 19.565 20.2717 18.8267 20.7487C18.204 21.151 17.3862 21.0629 16.8626 20.537L13.378 17.0371L17.0766 13.3384L20.5014 16.7782C20.5328 16.8098 20.5486 16.8256 20.5622 16.84C21.0616 17.3671 21.1427 18.1667 20.7594 18.7842C20.749 18.8009 20.7365 18.8199 20.7123 18.8569Z" stroke="currentColor" stroke-width="2"/ fill="none"></g>
  <path d="M4.516 13.0691L7.36705 15.9202M10.2181 7.36704L13.0691 10.2181M13.0691 4.516L15.2074 6.65428M7.36704 10.2181L9.50533 12.3564M3.94579 18.201L5.79897 20.0542C6.59734 20.8526 6.99652 21.2518 7.45683 21.4013C7.86173 21.5329 8.29789 21.5329 8.70278 21.4013C9.16309 21.2518 9.56228 20.8526 10.3606 20.0542L20.0542 10.3606C20.8526 9.56228 21.2518 9.1631 21.4013 8.70279C21.5329 8.29789 21.5329 7.86173 21.4013 7.45683C21.2518 6.99652 20.8526 6.59734 20.0542 5.79897L18.201 3.94579C17.4027 3.14742 17.0035 2.74823 16.5432 2.59867C16.1383 2.46711 15.7021 2.46711 15.2972 2.59867C14.8369 2.74823 14.4377 3.14742 13.6394 3.94579L3.94579 13.6394C3.14742 14.4377 2.74823 14.8369 2.59867 15.2972C2.46711 15.7021 2.46711 16.1383 2.59867 16.5432C2.74823 17.0035 3.14742 17.4027 3.94579 18.201Z" stroke="currentColor" stroke-width="2"/ fill="none">
</svg>