<svg
  xmlns="http://www.w3.org/2000/svg"
  width="24"
  height="24"
  viewBox="0 0 24 24"
  fill="none"
  stroke="currentColor"
  stroke-width="2"
  stroke-linecap="round"
  stroke-linejoin="round"
>
  <path d="M13.5996 2C14.7032 2 15.5914 1.99903 16.3086 2.05762C17.0373 2.11716 17.6773 2.24327 18.2695 2.54492L18.4443 2.6377C19.3054 3.12016 20.0056 3.84841 20.4551 4.73047L20.5605 4.9541C20.7877 5.48344 20.8903 6.05359 20.9424 6.69141C21.001 7.40857 21 8.29681 21 9.40039V13C21 13.5523 20.5523 14 20 14H4C3.44772 14 3 13.5523 3 13V9.40039C3 8.29681 2.99903 7.40857 3.05762 6.69141C3.11716 5.9627 3.24327 5.32266 3.54492 4.73047L3.6377 4.55567C4.12016 3.6946 4.84841 2.99436 5.73047 2.54492L5.9541 2.43945C6.48344 2.21233 7.05359 2.10973 7.69141 2.05762C8.40857 1.99903 9.29681 2 10.4004 2H13.5996ZM10.4004 4C9.26396 4 8.47129 4.00041 7.85449 4.05078C7.32513 4.09403 6.99244 4.17016 6.74121 4.27832L6.6377 4.32715C6.14381 4.57888 5.73057 4.96166 5.44238 5.43164L5.32715 5.6377C5.19296 5.90105 5.10023 6.24933 5.05078 6.85449C5.00041 7.47129 5 8.26396 5 9.40039V12H11V4H10.4004ZM13 12H19V9.40039C19 8.26396 18.9996 7.47129 18.9492 6.85449C18.906 6.32513 18.8298 5.99244 18.7217 5.74121L18.6729 5.6377C18.4211 5.14381 18.0383 4.73057 17.5684 4.44238L17.3623 4.32715C17.099 4.19296 16.7507 4.10023 16.1455 4.05078C15.5287 4.00041 14.736 4 13.5996 4H13V12Z" fill="#111111" opacity="0.28" fill-rule="evenodd" clip-rule="evenodd"/ stroke="none">
  <path d="M20.1025 12.0049C20.6067 12.0562 21 12.4823 21 13V15.7998C21 16.3434 21.0011 16.8116 20.9697 17.1953C20.9415 17.5412 20.8835 17.8856 20.7402 18.2197L20.6729 18.3623C20.4211 18.8562 20.0383 19.2694 19.5684 19.5576L19.3623 19.6729C18.984 19.8656 18.5906 19.9374 18.1953 19.9697C18.09 19.9783 17.9782 19.9829 17.8604 19.9873L18.832 21.4453C19.1384 21.9048 19.0142 22.5257 18.5547 22.832C18.0952 23.1384 17.4743 23.0142 17.168 22.5547L15.4648 20H8.53516L6.83204 22.5547C6.52568 23.0142 5.90484 23.1384 5.44532 22.832C4.9858 22.5257 4.86163 21.9048 5.16797 21.4453L6.13868 19.9873C6.02116 19.9829 5.90972 19.9783 5.80469 19.9697C5.45882 19.9415 5.11438 19.8835 4.78028 19.7402L4.6377 19.6729C4.07348 19.3853 3.61473 18.9265 3.32715 18.3623C3.1344 17.984 3.06259 17.5906 3.03028 17.1953C2.99893 16.8116 3 16.3434 3 15.7998V13L3.00489 12.8975C3.05622 12.3933 3.48233 12 4 12H20L20.1025 12.0049ZM7 15C6.44772 15 6 15.4477 6 16C6 16.5523 6.44772 17 7 17H8C8.55229 17 9 16.5523 9 16C9 15.4477 8.55229 15 8 15H7ZM16 15C15.4477 15 15 15.4477 15 16C15 16.5523 15.4477 17 16 17H17C17.5523 17 18 16.5523 18 16C18 15.4477 17.5523 15 17 15H16Z" fill="currentColor" fill-rule="evenodd" clip-rule="evenodd"/ stroke="none">
</svg>