<svg width="24" height="24" viewBox="0 0 24 24" fill="none" xmlns="http://www.w3.org/2000/svg">
<path opacity="0.28" d="M2.5083 9.07952C2.5083 6.95149 2.5083 5.88748 2.92244 5.07467C3.28673 4.35971 3.86801 3.77843 4.58297 3.41414C5.39578 3 6.45979 3 8.58783 3H15.4273C17.5553 3 18.6193 3 19.4321 3.41414C20.1471 3.77843 20.7284 4.35971 21.0927 5.07467C21.5068 5.88748 21.5068 6.95149 21.5068 9.07952V13.6394C21.5068 14.3452 21.5068 14.698 21.4601 14.9933C21.2026 16.6193 19.9273 17.8946 18.3013 18.1521C17.7316 18.2423 17.1526 18.1539 16.5816 18.207C16.1082 18.251 15.6685 18.4709 15.3494 18.8233C15.0149 19.1925 14.7382 19.6249 14.4398 20.023C13.6147 21.1236 13.2022 21.674 12.6964 21.8707C12.2533 22.0431 11.7618 22.0431 11.3188 21.8707C10.8129 21.674 10.4004 21.1236 9.57532 20.023C9.27693 19.6249 9.00022 19.1925 8.66576 18.8233C8.3466 18.4709 7.90693 18.251 7.43355 18.207C6.86257 18.1539 6.28347 18.2423 5.71381 18.1521C4.08778 17.8946 2.81249 16.6193 2.55505 14.9933C2.5083 14.698 2.5083 14.3452 2.5083 13.6394V9.07952Z" fill="#111111"/>
<path d="M12.0005 10.501V14.501M11.9925 7H12.0025M16.5745 18.207C16.1009 18.2508 15.6609 18.4706 15.3415 18.823C15.0075 19.193 14.7315 19.625 14.4315 20.023C13.6075 21.123 13.1945 21.674 12.6885 21.871C12.2456 22.0432 11.7543 22.0432 11.3115 21.871C10.8055 21.674 10.3925 21.124 9.56749 20.023C9.26949 19.625 8.99249 19.193 8.65749 18.823C8.33857 18.471 7.89939 18.2513 7.42649 18.207C6.85549 18.154 6.27649 18.242 5.70649 18.152C4.91381 18.0265 4.18122 17.6532 3.61373 17.0858C3.04624 16.5183 2.67299 15.7857 2.54749 14.993C2.50049 14.698 2.50049 14.345 2.50049 13.639V9.08C2.50049 6.952 2.50049 5.888 2.91449 5.076C3.27901 4.36118 3.86045 3.78009 4.57549 3.416C5.38849 3 6.45249 3 8.58049 3H15.4205C17.5475 3 18.6115 3 19.4245 3.414C20.1392 3.77826 20.7202 4.35933 21.0845 5.074C21.4995 5.887 21.4995 6.951 21.4995 9.08V13.64C21.4995 14.345 21.4995 14.698 21.4525 14.993C21.3272 15.7859 20.954 16.5187 20.3865 17.0864C19.819 17.654 19.0863 18.0274 18.2935 18.153C17.7235 18.243 17.1455 18.153 16.5735 18.207H16.5745Z" stroke="#111111" stroke-width="2" stroke-linecap="round" stroke-linejoin="round"/>
</svg>
