<svg width="24" height="24" viewBox="0 0 24 24" fill="none" xmlns="http://www.w3.org/2000/svg">
<path opacity="0.28" fill-rule="evenodd" clip-rule="evenodd" d="M3 6.2C3 5.0799 3 4.51984 3.21799 4.09202C3.40973 3.71569 3.71569 3.40973 4.09202 3.21799C4.51984 3 5.0799 3 6.2 3H6.8C7.9201 3 8.48016 3 8.90798 3.21799C9.28431 3.40973 9.59027 3.71569 9.78201 4.09202C10 4.51984 10 5.0799 10 6.2V6.8C10 7.9201 10 8.48016 9.78201 8.90798C9.59027 9.28431 9.28431 9.59027 8.90798 9.78201C8.48016 10 7.9201 10 6.8 10H6.2C5.0799 10 4.51984 10 4.09202 9.78201C3.71569 9.59027 3.40973 9.28431 3.21799 8.90798C3 8.48016 3 7.9201 3 6.8V6.2ZM14 6.2C14 5.0799 14 4.51984 14.218 4.09202C14.4097 3.71569 14.7157 3.40973 15.092 3.21799C15.5198 3 16.0799 3 17.2 3H17.8C18.9201 3 19.4802 3 19.908 3.21799C20.2843 3.40973 20.5903 3.71569 20.782 4.09202C21 4.51984 21 5.0799 21 6.2V6.8C21 7.9201 21 8.48016 20.782 8.90798C20.5903 9.28431 20.2843 9.59027 19.908 9.78201C19.4802 10 18.9201 10 17.8 10H17.2C16.0799 10 15.5198 10 15.092 9.78201C14.7157 9.59027 14.4097 9.28431 14.218 8.90798C14 8.48016 14 7.9201 14 6.8V6.2ZM3.21799 15.092C3 15.5198 3 16.0799 3 17.2V17.8C3 18.9201 3 19.4802 3.21799 19.908C3.40973 20.2843 3.71569 20.5903 4.09202 20.782C4.51984 21 5.0799 21 6.2 21H6.8C7.9201 21 8.48016 21 8.90798 20.782C9.28431 20.5903 9.59027 20.2843 9.78201 19.908C10 19.4802 10 18.9201 10 17.8V17.2C10 16.0799 10 15.5198 9.78201 15.092C9.59027 14.7157 9.28431 14.4097 8.90798 14.218C8.48016 14 7.9201 14 6.8 14H6.2C5.0799 14 4.51984 14 4.09202 14.218C3.71569 14.4097 3.40973 14.7157 3.21799 15.092Z" fill="#111111"/>
<path d="M8 3H5C3.89543 3 3 3.89543 3 5V8C3 9.10457 3.89543 10 5 10H8C9.10457 10 10 9.10457 10 8V5C10 3.89543 9.10457 3 8 3Z" stroke="#111111" stroke-width="2" stroke-linecap="round" stroke-linejoin="round"/>
<path d="M7 7H6V6H7V7Z" stroke="#111111" stroke-width="2" stroke-linecap="round" stroke-linejoin="round"/>
<path d="M7 18H6V17H7V18Z" stroke="#111111" stroke-width="2" stroke-linecap="round" stroke-linejoin="round"/>
<path d="M18 7H17V6H18V7Z" stroke="#111111" stroke-width="2" stroke-linecap="round" stroke-linejoin="round"/>
<path d="M19 3H16C14.8954 3 14 3.89543 14 5V8C14 9.10457 14.8954 10 16 10H19C20.1046 10 21 9.10457 21 8V5C21 3.89543 20.1046 3 19 3Z" stroke="#111111" stroke-width="2" stroke-linecap="round" stroke-linejoin="round"/>
<path d="M8 14H5C3.89543 14 3 14.8954 3 16V19C3 20.1046 3.89543 21 5 21H8C9.10457 21 10 20.1046 10 19V16C10 14.8954 9.10457 14 8 14Z" stroke="#111111" stroke-width="2" stroke-linecap="round" stroke-linejoin="round"/>
<path d="M21 14H18.5C17.6716 14 17 14.6716 17 15.5V21" stroke="#111111" stroke-width="2" stroke-linecap="round" stroke-linejoin="round"/>
<path d="M14 20V21" stroke="#111111" stroke-width="2" stroke-linecap="round" stroke-linejoin="round"/>
<path d="M14 14V17" stroke="#111111" stroke-width="2" stroke-linecap="round" stroke-linejoin="round"/>
<path d="M20 20V21" stroke="#111111" stroke-width="2" stroke-linecap="round" stroke-linejoin="round"/>
<path d="M20 17V17.1" stroke="#111111" stroke-width="2" stroke-linecap="round" stroke-linejoin="round"/>
</svg>
