<svg width="24" height="24" viewBox="0 0 24 24" fill="none" xmlns="http://www.w3.org/2000/svg">
<path d="M2.8501 11.9996C2.8501 13.8093 3.38674 15.5784 4.39215 17.0831C5.39757 18.5878 6.8266 19.7606 8.49854 20.4531C10.1705 21.1456 12.0102 21.3268 13.7852 20.9738C15.5601 20.6207 17.1905 19.7493 18.4701 18.4696C19.7498 17.19 20.6212 15.5596 20.9743 13.7847C21.3273 12.0098 21.1461 10.17 20.4536 8.49806C19.7611 6.82611 18.5883 5.39708 17.0836 4.39166C15.5789 3.38625 13.8098 2.84961 12.0001 2.84961V5.99961M8.4641 8.46361L12.5721 11.2676C12.6867 11.3452 12.7827 11.4471 12.8532 11.5661C12.9238 11.6851 12.9672 11.8182 12.9804 11.956C12.9935 12.0937 12.9761 12.2326 12.9292 12.3628C12.8824 12.493 12.8074 12.6113 12.7096 12.7091C12.6118 12.8069 12.4935 12.8819 12.3633 12.9288C12.2331 12.9756 12.0942 12.993 11.9565 12.9799C11.8187 12.9668 11.6856 12.9233 11.5666 12.8528C11.4476 12.7822 11.3457 12.6862 11.2681 12.5716L8.4641 8.46361Z" stroke="#111111" stroke-width="2" stroke-linecap="round" stroke-linejoin="round"/>
</svg>
