<svg width="24" height="24" viewBox="0 0 24 24" fill="none" xmlns="http://www.w3.org/2000/svg">
<path fill-rule="evenodd" clip-rule="evenodd" d="M9.04292 3.9209C8.85014 3.94988 8.67003 4.03457 8.52475 4.16456C8.37947 4.29454 8.27535 4.46416 8.2252 4.65254C8.17505 4.84093 8.18106 5.03986 8.24248 5.22487C8.3039 5.40989 8.41806 5.57292 8.57092 5.6939C9.32792 6.2939 10.0709 6.91191 10.7969 7.54691L4.52992 13.8139L4.50692 13.8369C4.33809 14.0009 4.17563 14.1714 4.01992 14.3479C3.84139 14.5479 3.7044 14.7815 3.61692 15.0349C3.48642 15.4366 3.48642 15.8692 3.61692 16.2709C3.71192 16.5609 3.87092 16.7819 4.01992 16.9569C4.15492 17.1169 4.32892 17.2899 4.50692 17.4689L4.52992 17.4909L6.50992 19.4709L6.53192 19.4939C6.70992 19.6719 6.88392 19.8459 7.04292 19.9809C7.21792 20.1299 7.43992 20.2889 7.72992 20.3829C8.13192 20.5139 8.56392 20.5139 8.96592 20.3829C9.25592 20.2889 9.47792 20.1299 9.65192 19.9809C9.82877 19.8252 9.99956 19.6627 10.1639 19.4939L10.1859 19.4709L16.4539 13.2039C17.0895 13.9308 17.7073 14.673 18.3069 15.4299C18.428 15.5828 18.5911 15.6969 18.7762 15.7583C18.9613 15.8197 19.1603 15.8256 19.3487 15.7753C19.5371 15.7251 19.7067 15.6208 19.8366 15.4754C19.9665 15.33 20.0511 15.1498 20.0799 14.9569C20.5447 11.8599 20.6059 8.71566 20.2619 5.6029C20.2097 5.12636 19.9966 4.68186 19.6577 4.34279C19.3188 4.00371 18.8744 3.79034 18.3979 3.73791C15.2848 3.39473 12.1403 3.45625 9.04292 3.9209Z" fill="#111111"/>
</svg>
