<svg width="24" height="24" viewBox="0 0 24 24" fill="none" xmlns="http://www.w3.org/2000/svg">
<path d="M20 21C20.5523 21 21 20.5523 21 20C21 19.4477 20.5523 19 20 19H17C15.5834 19 14.581 18.9992 13.7974 18.9352C13.0255 18.8721 12.5544 18.7527 12.184 18.564C11.4314 18.1805 10.8195 17.5686 10.436 16.816C10.2473 16.4457 10.1279 15.9745 10.0648 15.2026C10.0008 14.419 10 13.4166 10 12L10 9.37309C10.6683 9.40217 11.3356 9.46041 12 9.54783C12.4433 9.60615 12.8886 9.68243 13.8307 9.84424C14.2332 9.91336 14.6373 9.73081 14.8515 9.3831C15.0656 9.03539 15.0468 8.59239 14.804 8.26406C13.4565 6.44203 11.8821 4.80519 10.1204 3.39411C9.79402 3.13266 9.39747 3 9 3C8.60253 3 8.20598 3.13266 7.87957 3.39411C6.11788 4.80519 4.54347 6.44203 3.19599 8.26406C2.95317 8.59239 2.93439 9.03539 3.14855 9.3831C3.36271 9.73081 3.76678 9.91336 4.16926 9.84424C5.11146 9.68243 5.55667 9.60615 6 9.54783C6.66444 9.46042 7.33174 9.40217 8 9.37309L8 12.0437C7.99999 13.4068 7.99999 14.4908 8.07144 15.3654C8.14462 16.261 8.29768 17.0247 8.65396 17.7239C9.2292 18.8529 10.1471 19.7708 11.2761 20.346C11.9753 20.7023 12.739 20.8554 13.6346 20.9286C14.5091 21 15.5931 21 16.9561 21L20 21Z" fill="#111111"/>
</svg>
