<svg width="24" height="24" viewBox="0 0 24 24" fill="none" xmlns="http://www.w3.org/2000/svg">
<path d="M4.80267 3.41896C5.15255 3.14023 5.57652 3 6.00001 3C6.42349 3 6.84746 3.14023 7.19734 3.41896C8.16316 4.18836 9.03306 5.06546 9.78827 6.03292C10.0345 6.34838 10.069 6.78027 9.87589 7.13078C9.68278 7.4813 9.2993 7.68294 8.90108 7.64335L8.2754 7.58114C7.85098 7.53895 7.42568 7.50859 7 7.49006V17C7 18.1046 7.89543 19 9 19C10.1046 19 11 18.1046 11 17V7C11 4.79086 12.7909 3 15 3C17.2091 3 19 4.79086 19 7V16.5099C19.4257 16.4914 19.851 16.4611 20.2754 16.4189L20.9011 16.3567C21.2993 16.3171 21.6828 16.5187 21.8759 16.8692C22.069 17.2197 22.0345 17.6516 21.7883 17.9671C21.0331 18.9345 20.1632 19.8116 19.1973 20.581C18.8475 20.8598 18.4235 21 18 21C17.5765 21 17.1526 20.8598 16.8027 20.581C15.8369 19.8116 14.967 18.9345 14.2117 17.9671C13.9655 17.6516 13.931 17.2197 14.1241 16.8692C14.3172 16.5187 14.7007 16.3171 15.0989 16.3567L15.7246 16.4189C16.149 16.4611 16.5743 16.4914 17 16.5099V7C17 5.89543 16.1046 5 15 5C13.8954 5 13 5.89543 13 7V17C13 19.2091 11.2091 21 9 21C6.79086 21 5 19.2091 5 17L5 7.49006C4.57432 7.50859 4.14903 7.53895 3.72462 7.58114L3.09894 7.64335C2.70071 7.68294 2.31723 7.4813 2.12413 7.13078C1.93102 6.78027 1.96549 6.34838 2.21174 6.03292C2.96695 5.06546 3.83686 4.18836 4.80267 3.41896Z" fill="#111111"/>
</svg>
