<svg width="24" height="24" viewBox="0 0 24 24" fill="none" xmlns="http://www.w3.org/2000/svg">
<path d="M3.70711 2.29289C3.31658 1.90237 2.68342 1.90237 2.29289 2.29289C1.90237 2.68342 1.90237 3.31658 2.29289 3.70711L5.09514 6.50935C4.83786 6.74518 4.57514 6.9752 4.30719 7.19924L3.3586 7.99235C3.05901 8.24283 2.93264 8.6448 3.03501 9.02165C3.13737 9.3985 3.44974 9.68129 3.83488 9.74578C5.40093 10.008 6.98519 10.0678 8.54812 9.92319C8.90832 9.88987 9.23754 9.73247 9.48501 9.485C9.73248 9.23754 9.88987 8.90832 9.92319 8.54812C10.0678 6.98519 10.008 5.40093 9.74579 3.83488C9.68129 3.44974 9.3985 3.13737 9.02165 3.03501C8.6448 2.93264 8.24284 3.05901 7.99235 3.3586L7.19924 4.30719C6.9752 4.57514 6.74518 4.83786 6.50935 5.09514L3.70711 2.29289Z" fill="#111111"/>
<path d="M21.7071 3.70711C22.0976 3.31658 22.0976 2.68342 21.7071 2.29289C21.3166 1.90237 20.6834 1.90237 20.2929 2.29289L17.4906 5.09514C17.2548 4.83786 17.0248 4.57514 16.8008 4.30719L16.0076 3.3586C15.7572 3.05901 15.3552 2.93264 14.9783 3.03501C14.6015 3.13737 14.3187 3.44974 14.2542 3.83488C13.992 5.40093 13.9322 6.98519 14.0768 8.54812C14.1101 8.90832 14.2675 9.23754 14.515 9.48501C14.7625 9.73247 15.0917 9.88987 15.4519 9.92319C17.0148 10.0678 18.5991 10.008 20.1651 9.74578C20.5503 9.68129 20.8626 9.3985 20.965 9.02165C21.0674 8.6448 20.941 8.24283 20.6414 7.99235L19.6928 7.19924C19.4249 6.9752 19.1621 6.74518 18.9049 6.50935L21.7071 3.70711Z" fill="#111111"/>
<path d="M5.09514 17.4906C4.83786 17.2548 4.57514 17.0248 4.30719 16.8008L3.3586 16.0077C3.05901 15.7572 2.93264 15.3552 3.03501 14.9784C3.13737 14.6015 3.44974 14.3187 3.83488 14.2542C5.40093 13.992 6.98519 13.9322 8.54812 14.0768C8.90832 14.1101 9.23754 14.2675 9.485 14.515C9.73248 14.7625 9.88987 15.0917 9.92319 15.4519C10.0678 17.0148 10.008 18.5991 9.74579 20.1651C9.68129 20.5503 9.3985 20.8626 9.02165 20.965C8.6448 21.0674 8.24284 20.941 7.99235 20.6414L7.19924 19.6928C6.9752 19.4249 6.74518 19.1621 6.50935 18.9049L3.70711 21.7071C3.31658 22.0976 2.68342 22.0976 2.29289 21.7071C1.90237 21.3166 1.90237 20.6834 2.29289 20.2929L5.09514 17.4906Z" fill="#111111"/>
<path d="M14.515 14.515C14.7625 14.2675 15.0917 14.1101 15.4519 14.0768C17.0148 13.9322 18.5991 13.992 20.1651 14.2542C20.5503 14.3187 20.8626 14.6015 20.965 14.9783C21.0674 15.3552 20.941 15.7572 20.6414 16.0077L19.6928 16.8008C19.4249 17.0248 19.1621 17.2548 18.9049 17.4906L21.7071 20.2929C22.0976 20.6834 22.0976 21.3166 21.7071 21.7071C21.3166 22.0976 20.6834 22.0976 20.2929 21.7071L17.4906 18.9049C17.2548 19.1621 17.0248 19.4249 16.8008 19.6928L16.0077 20.6414C15.7572 20.941 15.3552 21.0674 14.9783 20.965C14.6015 20.8626 14.3187 20.5503 14.2542 20.1651C13.992 18.5991 13.9322 17.0148 14.0768 15.4519C14.1101 15.0917 14.2675 14.7625 14.515 14.515Z" fill="#111111"/>
</svg>
