<svg width="24" height="24" viewBox="0 0 24 24" fill="none" xmlns="http://www.w3.org/2000/svg">
<path d="M17.5022 1.13272C17.8439 0.936566 18.269 0.959373 18.5878 1.19097C19.7551 2.03904 20.8016 3.03386 21.6996 4.14956C21.8999 4.39832 22 4.69916 22 5C22 5.26324 21.9233 5.52647 21.77 5.75482C21.7481 5.78744 21.7247 5.81935 21.6996 5.85045C20.8016 6.96614 19.7551 7.96096 18.5878 8.80903C18.269 9.04063 17.8439 9.06344 17.5022 8.86728C17.1604 8.67112 16.9658 8.29257 17.005 7.9005L17.0662 7.28859C17.109 6.8598 17.1398 6.4301 17.1585 6H11C9.58337 6 8.58104 6.00078 7.79744 6.0648C7.02552 6.12787 6.55435 6.24729 6.18404 6.43598C5.43139 6.81947 4.81947 7.43139 4.43597 8.18404C4.08902 8.86497 4.00898 9.78993 4.00111 12.0036C3.99914 12.5558 3.54983 13.002 2.99755 13C2.44527 12.998 1.99915 12.5487 2.00112 11.9964C2.00854 9.90993 2.0492 8.46297 2.65396 7.27606C3.2292 6.14709 4.14708 5.2292 5.27606 4.65396C5.9753 4.29768 6.73898 4.14462 7.63458 4.07144C8.50917 3.99999 9.5932 3.99999 10.9562 4L17.1585 4C17.1398 3.56991 17.109 3.14021 17.0662 2.71141L17.005 2.09951C16.9658 1.70743 17.1604 1.32888 17.5022 1.13272Z" fill="#111111"/>
<path d="M21.0024 11C21.5547 11.002 22.0008 11.4513 21.9989 12.0036C21.9915 14.0901 21.9508 15.537 21.346 16.7239C20.7708 17.8529 19.8529 18.7708 18.7239 19.346C18.0247 19.7023 17.261 19.8554 16.3654 19.9286C15.4909 20 14.4069 20 13.0439 20H6.84145C6.86017 20.4301 6.89097 20.8598 6.93385 21.2886L6.99504 21.9005C6.99749 21.925 6.99902 21.9495 6.99967 21.9738C7.00933 22.3392 6.8182 22.6834 6.49782 22.8673C6.15609 23.0634 5.73102 23.0406 5.41224 22.809C4.2449 21.961 3.19842 20.9661 2.30036 19.8504C1.89988 19.3529 1.89988 18.6471 2.30036 18.1496C3.19842 17.0339 4.2449 16.039 5.41224 15.191C5.73102 14.9594 6.15609 14.9366 6.49782 15.1327C6.54054 15.1572 6.58096 15.1846 6.61891 15.2145C6.88457 15.4237 7.02934 15.7564 6.99504 16.0995L6.93385 16.7114C6.89097 17.1402 6.86017 17.5699 6.84145 18H13C14.4166 18 15.419 17.9992 16.2026 17.9352C16.9745 17.8721 17.4457 17.7527 17.816 17.564C18.5686 17.1805 19.1805 16.5686 19.564 15.816C19.911 15.135 19.991 14.2101 19.9989 11.9964C20.0009 11.4442 20.4502 10.998 21.0024 11Z" fill="#111111"/>
</svg>
