<svg width="24" height="24" viewBox="0 0 24 24" fill="none" xmlns="http://www.w3.org/2000/svg">
<path d="M5.12437 7.36992C4.93556 7.0276 4.96353 6.60665 5.19599 6.29233C6.28421 4.82086 7.55575 3.49888 8.97863 2.35918C9.27597 2.12102 9.63753 2 10 2C10.5523 2 11 2.44772 11 3V18C11 18.5523 10.5523 19 10 19C9.44772 19 9 18.5523 9 18V7.67779C8.76563 7.68799 8.53137 7.70177 8.29732 7.71915L6.07403 7.88419C5.68417 7.91313 5.31319 7.71223 5.12437 7.36992Z" fill="#111111"/>
<path d="M18.804 17.7077C19.0365 17.3934 19.0644 16.9724 18.8756 16.6301C18.6868 16.2878 18.3158 16.0869 17.926 16.1158L15.7027 16.2809C15.4686 16.2982 15.2344 16.312 15 16.3222V6C15 5.44772 14.5523 5 14 5C13.4477 5 13 5.44772 13 6V21C13 21.5523 13.4477 22 14 22C14.3625 22 14.724 21.879 15.0214 21.6408C16.4443 20.5011 17.7158 19.1791 18.804 17.7077Z" fill="#111111"/>
</svg>
