<svg
  xmlns="http://www.w3.org/2000/svg"
  width="24"
  height="24"
  viewBox="0 0 24 24"
  fill="none"
  stroke="currentColor"
  stroke-width="2"
  stroke-linecap="round"
  stroke-linejoin="round"
>
  <path d="M16.2429 4.92971H19.0709V7.75771L16.9499 9.87871H15.3289C15.1963 9.87871 15.0691 9.93139 14.9753 10.0252C14.8816 10.1189 14.8289 10.2461 14.8289 10.3787V11.9997L12.3759 14.4517C12.6999 15.4135 12.6892 16.4567 12.3456 17.4117C12.002 18.3667 11.3457 19.1775 10.4832 19.7124C9.62068 20.2474 8.60266 20.4751 7.59444 20.3585C6.58622 20.2419 5.64702 19.7879 4.92935 19.0702C4.21169 18.3526 3.7577 17.4134 3.64112 16.4052C3.52454 15.3969 3.75221 14.3789 4.28716 13.5164C4.82211 12.6539 5.63292 11.9976 6.58793 11.654C7.54294 11.3104 8.58605 11.2997 9.54788 11.6237L16.2429 4.92971Z" fill="currentColor" opacity="0.28"/>
  <path d="M16.2429 4.92971H19.0709V7.75771L16.9499 9.87871H15.3289C15.1963 9.87871 15.0691 9.93139 14.9753 10.0252C14.8816 10.1189 14.8289 10.2461 14.8289 10.3787V11.9997L12.3759 14.4517C12.6999 15.4135 12.6892 16.4567 12.3456 17.4117C12.002 18.3667 11.3457 19.1775 10.4832 19.7124C9.62068 20.2474 8.60266 20.4751 7.59444 20.3585C6.58622 20.2419 5.64702 19.7879 4.92935 19.0702C4.21169 18.3526 3.7577 17.4134 3.64112 16.4052C3.52454 15.3969 3.75221 14.3789 4.28716 13.5164C4.82211 12.6539 5.63292 11.9976 6.58793 11.654C7.54294 11.3104 8.58605 11.2997 9.54788 11.6237L16.2429 4.92971Z" stroke="currentColor" stroke-width="2"/>
  <path d="M8.11012 17.3041L6.69712 15.8901C6.66968 16.0823 6.68738 16.2782 6.7488 16.4624C6.81023 16.6465 6.91369 16.8138 7.051 16.951C7.18831 17.0882 7.35568 17.1916 7.53987 17.2529C7.72405 17.3142 7.91997 17.3317 8.11212 17.3041H8.11012Z" stroke="currentColor" stroke-width="2"/>
</svg>