<svg width="24" height="24" viewBox="0 0 24 24" fill="none" xmlns="http://www.w3.org/2000/svg">
<path fill-rule="evenodd" clip-rule="evenodd" d="M10.8 1H10.759C9.954 1 9.289 1 8.749 1.044C8.186 1.09 7.669 1.189 7.184 1.436C6.43139 1.81949 5.81949 2.43139 5.436 3.184C5.189 3.669 5.09 4.186 5.044 4.748C5 5.29 5 5.954 5 6.758V17.241C5 18.046 5 18.711 5.044 19.251C5.09 19.814 5.189 20.331 5.436 20.816C5.81949 21.5686 6.43139 22.1805 7.184 22.564C7.669 22.811 8.186 22.91 8.748 22.956C9.289 23 9.954 23 10.758 23H13.242C14.047 23 14.712 23 15.252 22.956C15.815 22.91 16.332 22.811 16.817 22.564C17.5696 22.1805 18.1815 21.5686 18.565 20.816C18.812 20.331 18.911 19.814 18.957 19.252C19.001 18.711 19.001 18.046 19.001 17.242V6.758C19.001 5.953 19.001 5.288 18.957 4.748C18.911 4.185 18.812 3.668 18.565 3.183C18.1815 2.43039 17.5696 1.81849 16.817 1.435C16.332 1.188 15.815 1.089 15.253 1.043C14.71 1 14.046 1 13.242 1H10.8ZM12 3.9C11.5929 3.9 11.1898 3.98018 10.8137 4.13597C10.4376 4.29176 10.0958 4.52011 9.80797 4.80797C9.52011 5.09583 9.29176 5.43757 9.13597 5.81368C8.98018 6.18979 8.9 6.5929 8.9 7C8.9 7.4071 8.98018 7.81021 9.13597 8.18632C9.29176 8.56243 9.52011 8.90417 9.80797 9.19203C10.0958 9.47989 10.4376 9.70824 10.8137 9.86403C11.1898 10.0198 11.5929 10.1 12 10.1C12.8222 10.1 13.6107 9.77339 14.192 9.19203C14.7734 8.61067 15.1 7.82217 15.1 7C15.1 6.17783 14.7734 5.38933 14.192 4.80797C13.6107 4.22661 12.8222 3.9 12 3.9ZM15.1 15C15.1 14.7083 14.9841 14.4285 14.7778 14.2222C14.5715 14.0159 14.2917 13.9 14 13.9C13.7083 13.9 13.4285 14.0159 13.2222 14.2222C13.0159 14.4285 12.9 14.7083 12.9 15V18C12.9 18.2917 13.0159 18.5715 13.2222 18.7778C13.4285 18.9841 13.7083 19.1 14 19.1C14.2917 19.1 14.5715 18.9841 14.7778 18.7778C14.9841 18.5715 15.1 18.2917 15.1 18V15ZM14 10.9C14.2917 10.9 14.5715 11.0159 14.7778 11.2222C14.9841 11.4285 15.1 11.7083 15.1 12V12.01C15.1 12.3017 14.9841 12.5815 14.7778 12.7878C14.5715 12.9941 14.2917 13.11 14 13.11C13.7083 13.11 13.4285 12.9941 13.2222 12.7878C13.0159 12.5815 12.9 12.3017 12.9 12.01V12C12.9 11.7083 13.0159 11.4285 13.2222 11.2222C13.4285 11.0159 13.7083 10.9 14 10.9ZM11.1 12C11.1 11.7083 10.9841 11.4285 10.7778 11.2222C10.5715 11.0159 10.2917 10.9 10 10.9C9.70826 10.9 9.42847 11.0159 9.22218 11.2222C9.01589 11.4285 8.9 11.7083 8.9 12V12.01C8.9 12.3017 9.01589 12.5815 9.22218 12.7878C9.42847 12.9941 9.70826 13.11 10 13.11C10.2917 13.11 10.5715 12.9941 10.7778 12.7878C10.9841 12.5815 11.1 12.3017 11.1 12.01V12ZM10 13.9C10.2917 13.9 10.5715 14.0159 10.7778 14.2222C10.9841 14.4285 11.1 14.7083 11.1 15V15.01C11.1 15.3017 10.9841 15.5815 10.7778 15.7878C10.5715 15.9941 10.2917 16.11 10 16.11C9.70826 16.11 9.42847 15.9941 9.22218 15.7878C9.01589 15.5815 8.9 15.3017 8.9 15.01V15C8.9 14.7083 9.01589 14.4285 9.22218 14.2222C9.42847 14.0159 9.70826 13.9 10 13.9ZM11.1 18C11.1 17.7083 10.9841 17.4285 10.7778 17.2222C10.5715 17.0159 10.2917 16.9 10 16.9C9.70826 16.9 9.42847 17.0159 9.22218 17.2222C9.01589 17.4285 8.9 17.7083 8.9 18V18.01C8.9 18.3017 9.01589 18.5815 9.22218 18.7878C9.42847 18.9941 9.70826 19.11 10 19.11C10.2917 19.11 10.5715 18.9941 10.7778 18.7878C10.9841 18.5815 11.1 18.3017 11.1 18.01V18Z" fill="#111111"/>
</svg>
