<svg width="24" height="24" viewBox="0 0 24 24" fill="none" xmlns="http://www.w3.org/2000/svg">
<path opacity="0.28" d="M17.1883 3.91627C16.8573 3.58524 16.6918 3.41972 16.4904 3.29619C16.3176 3.19014 16.1108 3.10432 15.9137 3.05676C15.684 3.00135 15.4592 3.001 15.0095 3.00029C14.8279 3 14.6382 3 14.44 3H9.56C7.26378 3 6.11568 3 5.23864 3.44687C4.46717 3.83995 3.83995 4.46717 3.44687 5.23864C3 6.11568 3 7.26378 3 9.56V14.44C3 16.7362 3 17.8843 3.44687 18.7614C3.83995 19.5328 4.46717 20.16 5.23864 20.5531C6.11568 21 7.26378 21 9.56 21H14.44C16.7362 21 17.8843 21 18.7614 20.5531C19.5328 20.16 20.16 19.5328 20.5531 18.7614C21 17.8843 21 16.7362 21 14.44V9.56C21 9.36179 21 9.17214 20.9997 8.99048C20.999 8.54081 20.9986 8.31597 20.9432 8.08633C20.8957 7.88917 20.8099 7.68244 20.7038 7.50956C20.5803 7.3082 20.4148 7.14268 20.0837 6.81166L17.1883 3.91627Z" stroke="#111111" stroke-width="2" stroke-linecap="round" stroke-linejoin="round"/>
<path d="M13 3V5C13 5.83787 13 6.2568 12.8822 6.59359C12.6711 7.1968 12.1968 7.67108 11.5936 7.88215C11.2568 8 10.8379 8 10 8C9.16213 8 8.7432 8 8.40641 7.88215C7.8032 7.67108 7.32892 7.1968 7.11785 6.59359C7 6.2568 7 5.83787 7 5V3.04585M7 20.9542V16.36C7 15.1839 7 14.5958 7.22889 14.1466C7.43022 13.7515 7.75148 13.4302 8.14662 13.2289C8.59583 13 9.18389 13 10.36 13H13.64C14.8161 13 15.4042 13 15.8534 13.2289C16.2485 13.4302 16.5698 13.7515 16.7711 14.1466C17 14.5958 17 15.1839 17 16.36V20.9542" stroke="#111111" stroke-width="2" stroke-linecap="round" stroke-linejoin="round"/>
</svg>
