<svg width="24" height="24" viewBox="0 0 24 24" fill="none" xmlns="http://www.w3.org/2000/svg">
<path opacity="0.28" d="M9.00008 15L9.00008 9H3.00019C2.99873 10.8667 3.00009 12.7333 3.00009 14.6C3.00009 14.7375 3.00009 14.8708 3.00019 15M9.00008 15L9.00008 20.9999C7.02338 20.9984 5.98726 20.9732 5.18412 20.564C4.43147 20.1805 3.81955 19.5686 3.43606 18.816C3.02684 18.0128 3.00173 16.9767 3.00019 15M9.00008 15H3.00019" stroke="#111111" stroke-width="2" stroke-linejoin="round"/>
<path d="M20 13V18C20 18.5304 19.7893 19.0391 19.4142 19.4142C19.0391 19.7893 18.5304 20 18 20H13" stroke="#111111" stroke-width="2" stroke-linecap="round" stroke-linejoin="round"/>
<path d="M22 15C21.4718 14.272 20.8494 13.6173 20.149 13.053C20.1069 13.0187 20.0543 13 20 13C19.9457 13 19.8931 13.0187 19.851 13.053C19.1507 13.6173 18.5283 14.272 18 15M15.4 22C14.5445 21.4863 13.759 20.8641 13.063 20.149C13.0429 20.1297 13.0268 20.1066 13.0159 20.081C13.0049 20.0554 12.9993 20.0278 12.9993 20C12.9993 19.9721 13.0049 19.9446 13.0159 19.919C13.0268 19.8933 13.0429 19.8702 13.063 19.851C13.7592 19.1361 14.5447 18.514 15.4 18" stroke="#111111" stroke-width="2" stroke-linecap="round" stroke-linejoin="round"/>
<path d="M14.5999 3H9.3999C7.15969 3 6.03958 3 5.18394 3.43597C4.43129 3.81947 3.81937 4.43139 3.43587 5.18404C3.02666 5.98717 3.00154 7.0233 3 9H20.9998C20.9983 7.0233 20.9731 5.98717 20.5639 5.18404C20.1804 4.43139 19.5685 3.81947 18.8159 3.43597C17.9602 3 16.8401 3 14.5999 3Z" stroke="#111111" stroke-width="2" stroke-linejoin="round"/>
</svg>
