<svg width="24" height="24" viewBox="0 0 24 24" fill="none" xmlns="http://www.w3.org/2000/svg">
<path opacity="0.28" fill-rule="evenodd" clip-rule="evenodd" d="M17.0778 8.396C17.1638 8.522 17.0808 8.695 16.9308 8.723C16.3878 8.8268 15.8841 9.07915 15.4758 9.452C12.0308 12.589 10.3398 16.012 11.2198 19.26C11.3428 19.714 11.5098 20.136 11.7118 20.525C11.8208 20.735 11.6738 20.997 11.4378 20.978C5.83383 20.543 -0.584172 13.644 11.9958 3C14.2728 4.927 15.9278 6.731 17.0778 8.396ZM17.4998 11.67C23.7618 17.374 20.2518 21.003 17.4998 21.003C14.7478 21.003 11.2378 17.373 17.4998 11.67Z" fill="#111111"/>
<path d="M17.5 11.6699C23.762 17.3739 20.252 21.0029 17.5 21.0029C14.748 21.0029 11.238 17.3729 17.5 11.6699Z" stroke="#111111" stroke-width="2" stroke-linecap="round" stroke-linejoin="round"/>
<path d="M16.6199 7.755C15.5009 6.271 13.9869 4.682 11.9999 3C-0.0830712 13.224 5.35993 19.992 10.7749 20.896" stroke="#111111" stroke-width="2" stroke-linecap="round" stroke-linejoin="round"/>
</svg>
