<svg width="24" height="24" viewBox="0 0 24 24" fill="none" xmlns="http://www.w3.org/2000/svg">
<path opacity="0.28" d="M10.7217 12.4648C8.61538 14.8655 6.14843 16.8956 3.42885 18.61C1.49973 19.826 6.67752 20.513 7.1393 20.5817M18.9986 14.6096C19.0273 16.3789 18.617 18.0924 17.8313 19.7407C17.1743 21.119 14.135 21.0035 12.4946 20.9938M7.1393 20.5817C8.91234 20.8454 10.702 20.9831 12.4946 20.9938M7.1393 20.5817C8.27901 19.9946 10.2841 18.3126 11.7375 16.2739M12.4946 20.9938C13.1297 20.3066 14.471 18.6976 15.2145 17.2933" stroke="#111111" stroke-width="2" stroke-linecap="round" stroke-linejoin="round"/>
<path fill-rule="evenodd" clip-rule="evenodd" d="M19.5743 3.38078C19.7847 2.87015 19.5414 2.28563 19.0307 2.0752C18.5201 1.86478 17.9356 2.10814 17.7252 2.61877L15.016 9.19286C13.957 9.03574 13.0854 9.15182 12.2877 9.59788C11.5062 10.0349 10.8669 10.7721 10.2295 11.507C10.1431 11.6067 10.0567 11.7063 9.97002 11.8051C9.74109 12.066 9.66384 12.427 9.76593 12.7587C9.86801 13.0905 10.1349 13.3456 10.4709 13.4326L18.7477 15.5774C19.0501 15.6557 19.3716 15.5883 19.617 15.3952C19.8624 15.2021 20.0035 14.9054 19.9985 14.5931C19.9873 13.91 19.9164 13.221 19.7834 12.527C19.566 11.3934 18.8627 10.666 18.0949 10.2041C17.7357 9.98792 17.3497 9.82185 16.9745 9.68973L19.5743 3.38078Z" fill="#111111"/>
</svg>
