<svg width="24" height="24" viewBox="0 0 24 24" fill="none" xmlns="http://www.w3.org/2000/svg">
<path opacity="0.28" d="M10.9562 2C9.5932 1.99999 8.50917 1.99999 7.63458 2.07144C6.73898 2.14462 5.9753 2.29768 5.27606 2.65396C4.14708 3.2292 3.2292 4.14708 2.65396 5.27606C2.29768 5.9753 2.14462 6.73898 2.07144 7.63458C1.99999 8.50917 1.99999 9.5932 2 10.9562V13.0438C1.99999 14.4068 1.99999 15.4908 2.07144 16.3654C2.14462 17.261 2.29768 18.0247 2.65396 18.7239C3.2292 19.8529 4.14708 20.7708 5.27606 21.346C5.9753 21.7023 6.73898 21.8554 7.63458 21.9286C8.50914 22 9.59313 22 10.9561 22H13.0438C14.4068 22 15.4909 22 16.3654 21.9286C17.261 21.8554 18.0247 21.7023 18.7239 21.346C19.8529 20.7708 20.7708 19.8529 21.346 18.7239C21.7023 18.0247 21.8554 17.261 21.9286 16.3654C22 15.4909 22 14.4069 22 13.0439V10.9562C22 9.59322 22 8.50914 21.9286 7.63458C21.8554 6.73898 21.7023 5.9753 21.346 5.27606C20.7708 4.14708 19.8529 3.2292 18.7239 2.65396C18.0247 2.29768 17.261 2.14462 16.3654 2.07144C15.4908 1.99999 14.4068 1.99999 13.0438 2H10.9562Z" fill="#111111"/>
<path d="M10.3333 13.6667H8.66667C7.74619 13.6667 7 14.4129 7 15.3333C7 16.2538 7.74619 17 8.66667 17C9.58714 17 10.3333 16.2538 10.3333 15.3333V13.6667ZM10.3333 13.6667H13.6667M10.3333 13.6667V10.3333M13.6667 13.6667H15.3333C16.2538 13.6667 17 14.4129 17 15.3333C17 16.2538 16.2538 17 15.3333 17C14.4129 17 13.6667 16.2538 13.6667 15.3333V13.6667ZM13.6667 13.6667V10.3333M13.6667 10.3333V8.66667C13.6667 7.74619 14.4129 7 15.3333 7C16.2538 7 17 7.74619 17 8.66667C17 9.58714 16.2538 10.3333 15.3333 10.3333H13.6667ZM13.6667 10.3333H10.3333M10.3333 10.3333H8.66667C7.74619 10.3333 7 9.58714 7 8.66667C7 7.74619 7.74619 7 8.66667 7C9.58714 7 10.3333 7.74619 10.3333 8.66667V10.3333Z" stroke="#111111" stroke-width="2" stroke-linecap="round" stroke-linejoin="round"/>
</svg>
