<svg width="24" height="24" viewBox="0 0 24 24" fill="none" xmlns="http://www.w3.org/2000/svg">
<path fill-rule="evenodd" clip-rule="evenodd" d="M7.364 11.2231C7.414 11.6551 7.604 12.0751 7.936 12.4071L13.593 18.0641C13.925 18.3961 14.345 18.5871 14.778 18.6361L13 20.4151C12.6249 20.7899 12.1162 21.0003 11.586 21.0001H4C3.46957 21.0001 2.96086 20.7894 2.58579 20.4144C2.21071 20.0393 2 19.5306 2 19.0001V17.8301C2.00017 17.0346 2.31635 16.2716 2.879 15.7091L7.364 11.2241V11.2231Z" fill="#111111"/>
<path opacity="0.28" d="M17.1639 15.9074L15.7143 17.357C15.3238 17.7475 14.6906 17.7475 14.3001 17.357L8.64324 11.7001C8.25271 11.3096 8.25271 10.6764 8.64323 10.2859L10.0928 8.83634M17.1639 15.9074C18.1346 16.5505 19.4553 16.4444 20.3105 15.5892L22.7854 13.1143M17.1639 15.9074C17.0265 15.8164 16.896 15.7103 16.775 15.5892L10.411 9.22525C10.2899 9.10417 10.1839 8.97376 10.0928 8.83634M10.0928 8.83634C9.44971 7.86565 9.55577 6.54495 10.411 5.68972L12.8859 3.21484" stroke="#111111" stroke-width="2" stroke-linecap="round" stroke-linejoin="round"/>
</svg>
