<svg width="24" height="24" viewBox="0 0 24 24" fill="none" xmlns="http://www.w3.org/2000/svg">
<path opacity="0.28" d="M21 7.7998V15.1998C21 16.88 21 17.72 20.673 18.3618C20.3854 18.9263 19.9265 19.3852 19.362 19.6728C18.7202 19.9998 17.8802 19.9998 16.2 19.9998H7.8C6.11984 19.9998 5.27976 19.9998 4.63803 19.6728C4.07354 19.3852 3.6146 18.9263 3.32698 18.3618C3 17.72 3 16.88 3 15.1998V7.7998" stroke="#111111" stroke-width="2" stroke-linecap="round" stroke-linejoin="round"/>
<path fill-rule="evenodd" clip-rule="evenodd" d="M7.79998 3H7.75898C6.95398 3 6.28898 3 5.74898 3.044C5.18598 3.09 4.66898 3.189 4.18398 3.436C3.43136 3.81949 2.81947 4.43139 2.43598 5.184C2.03998 5.96 2.00998 6.872 2.00198 7.993C2.00105 8.12491 2.02624 8.2557 2.07608 8.37783C2.12592 8.49997 2.19943 8.61104 2.29238 8.70464C2.38533 8.79824 2.49589 8.87252 2.61767 8.92322C2.73945 8.97391 2.87006 9 3.00198 9H20.998C21.1299 9 21.2605 8.97391 21.3823 8.92322C21.5041 8.87252 21.6146 8.79824 21.7076 8.70464C21.8005 8.61104 21.874 8.49997 21.9239 8.37783C21.9737 8.2557 21.9989 8.12491 21.998 7.993C21.99 6.872 21.96 5.96 21.564 5.184C21.1805 4.43139 20.5686 3.81949 19.816 3.436C19.331 3.189 18.814 3.09 18.252 3.044C17.71 3 17.046 3 16.242 3H7.79998ZM5.99998 12C5.99998 11.7348 6.10533 11.4804 6.29287 11.2929C6.48041 11.1054 6.73476 11 6.99998 11H17C17.2652 11 17.5195 11.1054 17.7071 11.2929C17.8946 11.4804 18 11.7348 18 12C18 12.2652 17.8946 12.5196 17.7071 12.7071C17.5195 12.8946 17.2652 13 17 13H6.99998C6.73476 13 6.48041 12.8946 6.29287 12.7071C6.10533 12.5196 5.99998 12.2652 5.99998 12ZM6.99998 15C6.73476 15 6.48041 15.1054 6.29287 15.2929C6.10533 15.4804 5.99998 15.7348 5.99998 16C5.99998 16.2652 6.10533 16.5196 6.29287 16.7071C6.48041 16.8946 6.73476 17 6.99998 17H14C14.2652 17 14.5195 16.8946 14.7071 16.7071C14.8946 16.5196 15 16.2652 15 16C15 15.7348 14.8946 15.4804 14.7071 15.2929C14.5195 15.1054 14.2652 15 14 15H6.99998Z" fill="#111111"/>
</svg>
