<svg width="24" height="24" viewBox="0 0 24 24" fill="none" xmlns="http://www.w3.org/2000/svg">
<path opacity="0.28" fill-rule="evenodd" clip-rule="evenodd" d="M7 13C8.65685 13 10 11.6565 10 9.99969C10 8.34284 8.65685 7 7 7C5.34315 7 4 8.34315 4 10C4 11.6569 5.34315 13 7 13ZM17 13C18.6569 13 20 11.6565 20 9.99969C20 8.34284 18.6569 7 17 7C15.3431 7 14 8.34315 14 10C14 11.6569 15.3431 13 17 13Z" fill="#111111"/>
<path d="M10 9.99969C10 11.6565 8.65685 13 7 13C5.34315 13 4 11.6569 4 10C4 8.34315 5.34315 7 7 7C8.65685 7 10 8.34284 10 9.99969ZM10 9.99969C10 13.1823 8.41929 15.9958 6.00012 17.6978M20 9.99969C20 11.6565 18.6569 13 17 13C15.3431 13 14 11.6569 14 10C14 8.34315 15.3431 7 17 7C18.6569 7 20 8.34284 20 9.99969ZM20 9.99969C20 13.1823 18.4193 15.9958 16.0001 17.6978" stroke="#111111" stroke-width="2" stroke-linecap="round" stroke-linejoin="round"/>
</svg>
