<svg width="24" height="24" viewBox="0 0 24 24" fill="none" xmlns="http://www.w3.org/2000/svg">
<path opacity="0.28" d="M9.03005 3H13V15.058H9.03005C7.45007 15.0292 5.94453 14.3814 4.83736 13.2539C3.73019 12.1263 3.10986 10.6092 3.10986 9.029C3.10986 7.44876 3.73019 5.93167 4.83736 4.80415C5.94453 3.67663 7.45007 3.02878 9.03005 3Z" fill="#111111"/>
<path d="M13 3H18M13 3H9.02914C5.69934 3 3 5.69934 3 9.02914C3 12.3589 5.69934 15.0583 9.02914 15.0583H13M13 3V15.0583M18 3V21M18 3H21M13 21V15.0583" stroke="#111111" stroke-width="2" stroke-linecap="round" stroke-linejoin="round"/>
</svg>
