<svg
  xmlns="http://www.w3.org/2000/svg"
  width="24"
  height="24"
  viewBox="0 0 24 24"
  fill="none"
  stroke="currentColor"
  stroke-width="2"
  stroke-linecap="round"
  stroke-linejoin="round"
>
  <path d="M14.5 10.5H16C16.5523 10.5 17 10.9477 17 11.5C17 12.0523 16.5523 12.5 16 12.5H15.5C14.6716 12.5 14 11.8284 14 11V9.9C14 8.57452 15.0745 7.5 16.4 7.5" stroke="currentColor" stroke-width="2"/ fill="none">
  <path d="M16.2 3H7.8C6.11984 3 5.27976 3 4.63803 3.32698C4.07354 3.6146 3.6146 4.07354 3.32698 4.63803C3 5.27976 3 6.11984 3 7.8V12.2C3 13.8802 3 14.7202 3.32698 15.362C3.6146 15.9265 4.07354 16.3854 4.63803 16.673C5.27976 17 6.11984 17 7.8 17H8V21L13 17H16.2C17.8802 17 18.7202 17 19.362 16.673C19.9265 16.3854 20.3854 15.9265 20.673 15.362C21 14.7202 21 13.8802 21 12.2V7.8C21 6.11984 21 5.27976 20.673 4.63803C20.3854 4.07354 19.9265 3.6146 19.362 3.32698C18.7202 3 17.8802 3 16.2 3Z" stroke="currentColor" stroke-width="2"/ fill="none">
  <path d="M7.5 10.5H9C9.55228 10.5 10 10.9477 10 11.5C10 12.0523 9.55228 12.5 9 12.5H8.5C7.67157 12.5 7 11.8284 7 11V9.9C7 8.57452 8.07452 7.5 9.4 7.5" stroke="currentColor" stroke-width="2"/ fill="none">
</svg>