<svg
  xmlns="http://www.w3.org/2000/svg"
  width="24"
  height="24"
  viewBox="0 0 24 24"
  fill="none"
  stroke="currentColor"
  stroke-width="2"
  stroke-linecap="round"
  stroke-linejoin="round"
>
  <path d="M14 7.6C14 7.03995 14 6.75992 14.109 6.54601C14.2049 6.35785 14.3578 6.20487 14.546 6.10899C14.7599 6 15.0399 6 15.6 6H16.4C16.9601 6 17.2401 6 17.454 6.10899C17.6422 6.20487 17.7951 6.35785 17.891 6.54601C18 6.75992 18 7.03995 18 7.6V8.4C18 8.96005 18 9.24008 17.891 9.45399C17.7951 9.64215 17.6422 9.79513 17.454 9.89101C17.2401 10 16.9601 10 16.4 10H15.6C15.0399 10 14.7599 10 14.546 9.89101C14.3578 9.79513 14.2049 9.64215 14.109 9.45399C14 9.24008 14 8.96005 14 8.4V7.6Z" stroke="currentColor" stroke-width="2"/ fill="none">
  <path d="M17 17V17.1" stroke="currentColor" stroke-width="2"/ fill="none">
  <path d="M18 14H15.5C14.6716 14 14 14.6716 14 15.5V18" stroke="currentColor" stroke-width="2"/ fill="none">
  <path d="M6 15.6C6 15.0399 6 14.7599 6.10899 14.546C6.20487 14.3578 6.35785 14.2049 6.54601 14.109C6.75992 14 7.03995 14 7.6 14H8.4C8.96005 14 9.24008 14 9.45399 14.109C9.64215 14.2049 9.79513 14.3578 9.89101 14.546C10 14.7599 10 15.0399 10 15.6V16.4C10 16.9601 10 17.2401 9.89101 17.454C9.79513 17.6422 9.64215 17.7951 9.45399 17.891C9.24008 18 8.96005 18 8.4 18H7.6C7.03995 18 6.75992 18 6.54601 17.891C6.35785 17.7951 6.20487 17.6422 6.10899 17.454C6 17.2401 6 16.9601 6 16.4V15.6Z" stroke="currentColor" stroke-width="2"/ fill="none">
  <path d="M6 7.6C6 7.03995 6 6.75992 6.10899 6.54601C6.20487 6.35785 6.35785 6.20487 6.54601 6.10899C6.75992 6 7.03995 6 7.6 6H8.4C8.96005 6 9.24008 6 9.45399 6.10899C9.64215 6.20487 9.79513 6.35785 9.89101 6.54601C10 6.75992 10 7.03995 10 7.6V8.4C10 8.96005 10 9.24008 9.89101 9.45399C9.79513 9.64215 9.64215 9.79513 9.45399 9.89101C9.24008 10 8.96005 10 8.4 10H7.6C7.03995 10 6.75992 10 6.54601 9.89101C6.35785 9.79513 6.20487 9.64215 6.10899 9.45399C6 9.24008 6 8.96005 6 8.4V7.6Z" stroke="currentColor" stroke-width="2"/ fill="none">
  <path d="M9.4 21C7.15979 21 6.03968 21 5.18404 20.564C4.43139 20.1805 3.81947 19.5686 3.43597 18.816C3 17.9603 3 16.8402 3 14.6M21 14.6C21 16.8402 21 17.9603 20.564 18.816C20.1805 19.5686 19.5686 20.1805 18.816 20.564C17.9603 21 16.8402 21 14.6 21M14.6 3C16.8402 3 17.9603 3 18.816 3.43597C19.5686 3.81947 20.1805 4.43139 20.564 5.18404C21 6.03968 21 7.15979 21 9.4M9.4 3C7.15979 3 6.03968 3 5.18404 3.43597C4.43139 3.81947 3.81947 4.43139 3.43597 5.18404C3 6.03968 3 7.15979 3 9.4" stroke="currentColor" stroke-width="2"/ fill="none">
</svg>