<svg
  xmlns="http://www.w3.org/2000/svg"
  width="24"
  height="24"
  viewBox="0 0 24 24"
  fill="none"
  stroke="currentColor"
  stroke-width="2"
  stroke-linecap="round"
  stroke-linejoin="round"
>
  <path d="M12.0005 2C7.73203 2 4.17613 5.2719 3.82165 9.52563L3.46665 13.7856C3.43551 14.1593 3.31676 14.5205 3.14641 15.0315C2.62544 16.5944 3.67849 18.2394 5.31544 18.4213C6.27278 18.5276 7.23206 18.6111 8.19244 18.6716C8.44352 20.5507 10.0528 22 12.0005 22C13.9483 22 15.5576 20.5506 15.8086 18.6714C16.7687 18.6109 17.7277 18.5274 18.6848 18.421C20.3205 18.2392 21.3729 16.5965 20.8543 15.0345C20.6844 14.5228 20.5657 14.1618 20.5345 13.788L20.1793 9.52563C19.8249 5.2719 16.269 2 12.0005 2ZM12.0005 20C11.1964 20 10.5126 19.4848 10.2613 18.7665C11.3225 18.797 12.3844 18.7995 13.4457 18.7742C13.5437 18.7718 13.6417 18.7692 13.7397 18.7664C13.4884 19.4848 12.8046 20 12.0005 20ZM10.2321 8.29289L11.9999 10.0607L13.7677 8.29289C14.1582 7.90237 14.7914 7.90237 15.1819 8.29289C15.5724 8.68342 15.5724 9.31658 15.1819 9.70711L13.4141 11.4749L15.1819 13.2426C15.5724 13.6332 15.5724 14.2663 15.1819 14.6569C14.7914 15.0474 14.1582 15.0474 13.7677 14.6569L11.9999 12.8891L10.2321 14.6569C9.84161 15.0474 9.20844 15.0474 8.81792 14.6569C8.42739 14.2663 8.42739 13.6332 8.81792 13.2426L10.5857 11.4749L8.81792 9.70711C8.42739 9.31658 8.42739 8.68342 8.81792 8.29289C9.20844 7.90237 9.84161 7.90237 10.2321 8.29289Z" fill="currentColor"/ stroke="none">
</svg>