<svg width="24" height="24" viewBox="0 0 24 24" fill="none" xmlns="http://www.w3.org/2000/svg">
<path opacity="0.28" d="M10.6215 5.00009L10.0763 3.907C9.76962 3.292 9.05974 2.93644 8.34933 3.14011C7.66747 3.3356 6.16341 3.82466 4.92804 4.67699C4.91722 4.68445 4.90655 4.69213 4.89603 4.70002C2.66485 6.37297 1.7212 9.023 1.31471 11.2752C0.940387 13.3492 0.993499 15.2537 1.01643 16.0761C1.01864 16.1551 1.02056 16.2241 1.0218 16.2823C1.02688 16.5208 1.08795 16.7671 1.21595 16.993C2.3401 18.9771 3.89428 19.9874 5.17394 20.4927C5.80914 20.7435 6.37502 20.8698 6.78776 20.9336C6.99463 20.9657 7.16468 20.9822 7.28782 20.9908C7.34945 20.9951 7.39951 20.9974 7.43676 20.9987C7.4554 20.9993 7.47084 20.9997 7.48295 20.9999L7.4986 21L7.50451 21.0001L7.50699 21.0001L7.5081 21.0001C7.5081 21.0001 7.50914 21.0001 7.50914 20.0001V21.0001C7.8931 21.0001 8.24316 20.7802 8.40991 20.4344L9.21772 18.7589C11.1824 19.247 12.8209 19.2472 14.7853 18.7595L15.5899 20.4333C15.7565 20.7798 16.1068 21.0001 16.4912 21.0001V20.0001C16.4912 21.0001 16.4922 21.0001 16.4922 21.0001L16.4934 21.0001L16.4958 21.0001L16.5017 21L16.5174 20.9999C16.5295 20.9997 16.5449 20.9993 16.5636 20.9987C16.6008 20.9974 16.6509 20.9951 16.7125 20.9908C16.8357 20.9822 17.0057 20.9657 17.2126 20.9336C17.6253 20.8698 18.1912 20.7435 18.8264 20.4927C20.1061 19.9874 21.6602 18.9771 22.7844 16.993C22.9124 16.7671 22.9735 16.5208 22.9785 16.2823C22.9798 16.2241 22.9817 16.1551 22.9839 16.0761C23.0068 15.2537 23.06 13.3491 22.6856 11.2752C22.2791 9.023 21.3355 6.37297 19.1043 4.70002C19.0938 4.69213 19.0831 4.68445 19.0723 4.67699C17.8375 3.82503 16.3342 3.33604 15.652 3.14039C14.9403 2.93628 14.2293 3.29343 13.9234 3.91025L13.383 5.00009H10.6215Z" fill="#111111"/>
<path d="M7.00122 17C7.60089 17.2248 8.15561 17.4159 8.67887 17.5734C11.1231 18.3087 12.8807 18.3089 15.3247 17.5738C15.8484 17.4163 16.4036 17.225 17.0038 17M10.002 12C10.002 12.5523 9.55415 13 9.00172 13C8.4493 13 8.00146 12.5523 8.00146 12C8.00146 11.4477 8.4493 11 9.00172 11C9.55415 11 10.002 11.4477 10.002 12ZM16.0035 12C16.0035 12.5523 15.5557 13 15.0033 13C14.4508 13 14.003 12.5523 14.003 12C14.003 11.4477 14.4508 11 15.0033 11C15.5557 11 16.0035 11.4477 16.0035 12Z" stroke="#111111" stroke-width="2" stroke-linecap="round" stroke-linejoin="round"/>
</svg>
