<svg width="24" height="24" viewBox="0 0 24 24" fill="none" xmlns="http://www.w3.org/2000/svg">
<path opacity="0.28" d="M9.35742 2.5H14.6426C15.4609 2.49999 16.1442 2.49981 16.7227 2.52344L17.2676 2.55664C17.8781 2.60652 18.3889 2.70212 18.8486 2.89941L19.043 2.99023C19.7839 3.36778 20.4036 3.94244 20.8359 4.64746L21.0098 4.95703C21.2372 5.4034 21.3557 5.89348 21.4199 6.47656L21.4443 6.73242C21.5001 7.4153 21.5 8.26631 21.5 9.35742V14.6426C21.5 15.4609 21.5002 16.1442 21.4766 16.7227L21.4443 17.2676C21.3944 17.8781 21.2979 18.3889 21.1006 18.8486L21.0098 19.043C20.6323 19.7839 20.0576 20.4036 19.3525 20.8359L19.043 21.0098C18.5966 21.2372 18.1065 21.3557 17.5234 21.4199L17.2676 21.4443C16.5847 21.5001 15.7338 21.5 14.6426 21.5H9.35742C8.53917 21.5 7.85578 21.5002 7.27734 21.4766L6.73242 21.4443C6.12189 21.3944 5.61113 21.2979 5.15137 21.1006L4.95703 21.0098C4.21606 20.6323 3.59643 20.0576 3.16406 19.3525L2.99023 19.043C2.76282 18.5966 2.64428 18.1065 2.58008 17.5234L2.55664 17.2676C2.50086 16.5846 2.49999 15.7338 2.5 14.6426V9.35742L2.50684 7.8916C2.51037 7.67448 2.51556 7.4701 2.52344 7.27734L2.55664 6.73242C2.60652 6.12191 2.70211 5.61113 2.89941 5.15137L2.99023 4.95703C3.36778 4.21605 3.94244 3.59643 4.64746 3.16406L4.95703 2.99023C5.40341 2.76281 5.89349 2.64429 6.47656 2.58008L6.73242 2.55664C7.07386 2.52875 7.45719 2.5139 7.8916 2.50684L9.35742 2.5Z" fill="#111111" stroke="#111111" stroke-linecap="round"/>
<path d="M17 17V13.5C17 12.1193 15.8807 11 14.5 11C13.1193 11 12 12.1193 12 13.5M12 13.5V17V13.5ZM12 13.5V10.5V13.5ZM8 10.5V17V10.5ZM8 7V7.01V7Z" fill="#111111"/>
<path d="M17 17V13.5C17 12.1193 15.8807 11 14.5 11C13.1193 11 12 12.1193 12 13.5M12 13.5V17M12 13.5V10.5M8 10.5V17M8 7V7.01" stroke="#111111" stroke-width="2" stroke-linecap="round" stroke-linejoin="round"/>
</svg>
