<svg width="24" height="24" viewBox="0 0 24 24" fill="none" xmlns="http://www.w3.org/2000/svg">
<path opacity="0.28" d="M6.89161 2.20523C9.90847 0.782212 13.9947 0.646314 17.1126 1.65486C19.7422 2.5057 22.1266 4.90953 22.1307 8.00658C22.1355 11.4501 19.8619 14.0409 16.6436 14.8378C15.0081 15.2423 14.0057 15.5722 13.2039 16.6468C12.8592 17.1094 12.5544 17.766 12.1849 18.5888C11.9452 19.1224 11.6805 19.712 11.3814 20.253C10.6348 21.6037 9.46799 23.0262 7.33324 22.9996C5.93444 22.9819 4.86217 22.3307 4.0883 21.3896C3.33951 20.4791 2.86163 19.2941 2.54668 18.1112C1.91562 15.7412 1.85513 13.0469 1.87162 11.6049C1.91238 8.00868 3.01485 4.03429 6.89161 2.20523Z" fill="#111111"/>
<path d="M2.87158 11.6164C2.91075 8.15888 3.96408 4.69222 7.31825 3.10972C10.0849 1.80472 13.9066 1.66888 16.8049 2.60638C19.1383 3.36138 21.1274 5.45472 21.1307 8.00805C21.1349 10.9497 19.2166 13.1706 16.4032 13.8672" stroke="#111111" stroke-width="2" stroke-linecap="round" stroke-linejoin="round"/>
</svg>
