<svg width="24" height="24" viewBox="0 0 24 24" fill="none" xmlns="http://www.w3.org/2000/svg">
<path opacity="0.28" d="M20.0398 1.35352C19.2291 1.35352 18.5132 1.75528 18.0792 2.37048L15.354 1.87499C14.207 1.66645 13.0681 2.27835 12.6089 3.34987C12.6048 3.35947 12.6008 3.36914 12.597 3.37887L11.3095 6.66367C9.25915 6.77496 7.36164 7.37943 5.81896 8.34789C5.23933 7.61521 4.34263 7.14502 3.33508 7.14502C1.58647 7.14502 0.168945 8.56255 0.168945 10.3112C0.168945 11.6408 0.988544 12.779 2.15009 13.2481C2.05091 13.7012 1.99895 14.1681 1.99895 14.645C1.99895 19.2826 6.72454 22.645 11.9989 22.645C17.2733 22.645 21.9989 19.2826 21.9989 14.645C21.9989 14.1684 21.947 13.7018 21.848 13.2489C23.0106 12.7803 23.8312 11.6416 23.8312 10.3112C23.8312 8.56255 22.4137 7.14502 20.6651 7.14502C19.6571 7.14502 18.7601 7.61562 18.1805 8.34885C16.826 7.49824 15.198 6.92826 13.4331 6.72636L14.4518 4.12718C14.5465 3.91941 14.7706 3.80171 14.9962 3.84273L17.713 4.3367C17.974 5.37883 18.9168 6.15063 20.0398 6.15063C21.3645 6.15063 22.4384 5.07676 22.4384 3.75208C22.4384 2.42739 21.3645 1.35352 20.0398 1.35352Z" fill="#111111"/>
<path d="M15.5886 17.043C14.8716 17.7251 13.5313 18.1841 11.9963 18.1841C10.4613 18.1841 9.1211 17.7251 8.40405 17.043M15.4988 13.1455H15.5088M8.49878 13.1455H8.50878M8.99878 13.1455C8.99878 13.4217 8.77492 13.6455 8.49878 13.6455C8.22264 13.6455 7.99878 13.4217 7.99878 13.1455C7.99878 12.8694 8.22264 12.6455 8.49878 12.6455C8.77492 12.6455 8.99878 12.8694 8.99878 13.1455ZM15.9988 13.1455C15.9988 13.4217 15.7749 13.6455 15.4988 13.6455C15.2226 13.6455 14.9988 13.4217 14.9988 13.1455C14.9988 12.8694 15.2226 12.6455 15.4988 12.6455C15.7749 12.6455 15.9988 12.8694 15.9988 13.1455Z" stroke="#111111" stroke-width="2" stroke-linecap="round" stroke-linejoin="round"/>
</svg>
