<svg width="24" height="24" viewBox="0 0 24 24" fill="none" xmlns="http://www.w3.org/2000/svg">
<path opacity="0.28" d="M12.0001 1.8501C6.39441 1.8501 1.8501 6.39441 1.8501 12.0001C1.8501 17.6058 6.39441 22.1501 12.0001 22.1501C17.6058 22.1501 22.1501 17.6058 22.1501 12.0001C22.1501 6.39441 17.6058 1.8501 12.0001 1.8501Z" fill="#111111"/>
<path d="M15.0494 15.8755C13.7988 15.313 12.4116 15 10.9514 15C9.92406 15 8.9329 15.1549 8 15.4427M16.2461 13.1235C14.6288 12.4014 12.837 12 10.9514 12C9.75643 12 8.5991 12.1612 7.5 12.4631M17.5 10.3972C15.5012 9.49941 13.2846 9 10.9514 9C9.5877 9 8.26384 9.17061 7 9.49165" stroke="#111111" stroke-width="2" stroke-linecap="round" stroke-linejoin="round"/>
</svg>
