<svg width="24" height="24" viewBox="0 0 24 24" fill="none" xmlns="http://www.w3.org/2000/svg">
<path opacity="0.28" d="M5.40723 12.9741C6.72398 15.2054 8.52059 17.0432 10.7145 18.4048" stroke="#111111" stroke-width="2" stroke-linecap="round" stroke-linejoin="round"/>
<path d="M6.27746 2.03275C5.83702 1.99302 5.2517 1.97614 4.73589 2.06049C2.841 2.37036 1.85124 4.21145 2.04177 5.82633C2.37804 8.67659 3.23236 11.2561 4.54604 13.4822C4.69161 13.7289 4.93596 13.9013 5.21716 13.9558C5.49836 14.0102 5.78941 13.9415 6.01654 13.767C6.17533 13.6449 6.3497 13.516 6.53247 13.3809C7.02259 13.0184 7.57316 12.6113 8.04598 12.1732C9.77685 10.5692 10.4902 8.14596 9.90462 5.85989C9.70772 5.09122 9.40106 4.20911 8.85271 3.4823C8.27918 2.7221 7.44187 2.13777 6.27746 2.03275Z" fill="#111111"/>
<path d="M17.7479 13.9733C15.6954 13.5026 13.5426 14.067 11.9849 15.4841C11.4185 15.9993 10.8952 16.6297 10.4343 17.185C10.2676 17.3858 10.1089 17.5769 9.95946 17.7491C9.76738 17.9703 9.68198 18.2646 9.72581 18.5543C9.76965 18.844 9.9383 19.0998 10.1872 19.2543C12.486 20.681 15.1788 21.605 18.1701 21.9581C19.7857 22.1488 21.6259 21.158 21.9355 19.2635C22.0255 18.7127 22.0115 18.1168 21.9525 17.6186C21.8063 16.3839 21.121 15.537 20.2918 14.9792C19.4954 14.4435 18.5453 14.1561 17.7479 13.9733Z" fill="#111111"/>
</svg>
