<svg width="24" height="24" viewBox="0 0 24 24" fill="none" xmlns="http://www.w3.org/2000/svg">
<path opacity="0.28" d="M5.40723 12.9741C6.72398 15.2054 8.52059 17.0432 10.7145 18.4048" stroke="#111111" stroke-width="2" stroke-linecap="round" stroke-linejoin="round"/>
<path d="M4.73589 2.06049C5.2517 1.97614 5.83702 1.99302 6.27746 2.03275C7.44187 2.13777 8.27918 2.7221 8.85271 3.4823C9.40106 4.20911 9.70772 5.09122 9.90462 5.85989C10.4902 8.14596 9.77685 10.5692 8.04598 12.1732C7.57316 12.6113 7.0226 13.0184 6.53247 13.3809C6.3497 13.516 6.17533 13.6449 6.01654 13.767C5.78941 13.9415 5.49836 14.0102 5.21716 13.9558C4.93596 13.9013 4.69161 13.7289 4.54604 13.4822C3.23236 11.2561 2.37804 8.67659 2.04177 5.82633C1.85124 4.21145 2.841 2.37036 4.73589 2.06049Z" fill="#111111"/>
<path d="M11.9849 15.4841C13.5426 14.067 15.6954 13.5026 17.7479 13.9733C18.5453 14.1561 19.4954 14.4435 20.2918 14.9792C21.121 15.537 21.8063 16.3839 21.9525 17.6186C22.0115 18.1168 22.0255 18.7127 21.9355 19.2635C21.6259 21.158 19.7857 22.1488 18.1701 21.9581C15.1788 21.605 12.486 20.681 10.1872 19.2543C9.9383 19.0998 9.76965 18.844 9.72581 18.5543C9.68198 18.2646 9.76738 17.9703 9.95946 17.7491C10.1089 17.5769 10.2675 17.3859 10.4342 17.1851C10.8951 16.6298 11.4185 15.9993 11.9849 15.4841Z" fill="#111111"/>
<path d="M20.706 4.70735C21.0965 4.31682 21.0965 3.68366 20.706 3.29313C20.3155 2.90261 19.6823 2.90261 19.2918 3.29314L15.7406 6.84431C15.7342 6.23655 15.7681 5.6302 15.8425 5.0293C15.9104 4.4812 15.5211 3.98187 14.973 3.91401C14.4249 3.84616 13.9255 4.23547 13.8577 4.78357C13.6981 6.07285 13.7009 7.38124 13.8647 8.67855C13.9613 9.44328 14.5558 10.0379 15.3206 10.1345C16.6179 10.2983 17.9264 10.3011 19.2155 10.1415C19.7636 10.0737 20.153 9.57435 20.0851 9.02625C20.0173 8.47814 19.518 8.08881 18.9699 8.15665C18.369 8.23102 17.7626 8.26498 17.1549 8.25851L20.706 4.70735Z" fill="#111111"/>
</svg>
