<svg width="24" height="24" viewBox="0 0 24 24" fill="none" xmlns="http://www.w3.org/2000/svg">
<path d="M18.3446 2.24466C18.5844 2.03679 18.9121 1.9529 19.2265 2.02591C19.5857 2.10965 19.8701 2.38448 19.9657 2.74076L20.1073 3.28666C21.517 8.91571 21.2528 14.0114 18.8065 17.2124C16.3276 20.4551 11.9566 21.3642 6.0712 19.5122C6.02406 19.8331 5.99993 20.1623 5.99991 20.4995C5.99991 21.0518 5.55214 21.4995 4.99991 21.4995C4.44762 21.4995 3.99991 21.0518 3.99991 20.4995C3.99995 19.6973 4.10713 18.9385 4.29678 18.2251C4.32681 18.3215 4.3561 18.4195 4.3876 18.5171C4.48268 18.8118 4.70956 19.0459 5.00088 19.1509L5.59854 19.3589C5.75693 19.412 5.91493 19.4611 6.0712 19.5103C6.41798 17.1549 7.96297 15.2458 9.64346 13.8277C10.5851 13.0332 11.5328 12.4258 12.246 12.0171C12.6011 11.8137 12.8965 11.6607 13.0995 11.5601C13.2001 11.5102 13.2786 11.4727 13.33 11.4488C13.3551 11.4371 13.3748 11.4277 13.3866 11.4224C13.3919 11.42 13.3969 11.4185 13.3993 11.4175L13.4003 11.4165L13.3993 11.4156C13.9051 11.1943 14.1359 10.606 13.9149 10.1001C13.6936 9.59426 13.1045 9.36337 12.5985 9.58451C12.5697 9.59888 12.5398 9.61031 12.4882 9.63431C12.4225 9.66485 12.3277 9.7092 12.2108 9.76713C11.9765 9.88329 11.6458 10.0551 11.2519 10.2808C10.4653 10.7315 9.41194 11.4061 8.3544 12.2984C6.7201 13.6774 4.97817 15.6627 4.29678 18.2251C3.10495 14.3995 3.06637 11.5762 3.9501 9.47123C4.87121 7.27857 6.69355 6.09087 8.62686 5.35795C10.5192 4.64078 12.7232 4.29131 14.4716 3.90775C15.3757 3.70937 16.1705 3.50184 16.831 3.23783C17.4932 2.97294 17.9538 2.67606 18.247 2.34134L18.3446 2.24466Z" fill="#111111"/>
</svg>
