<svg width="24" height="24" viewBox="0 0 24 24" fill="none" xmlns="http://www.w3.org/2000/svg">
<path d="M12 12C15.3137 12 18 14.6863 18 18C18 18.6998 17.8789 19.3719 17.6582 19.9971L21.001 20C21.5532 20.0005 22.0005 20.4487 22 21.001C21.9995 21.5532 21.5513 22.0005 20.999 22L2.99902 21.9844L2.89648 21.9795C2.39232 21.9278 1.99955 21.5011 2 20.9834C2.00054 20.4312 2.44873 19.9839 3.00098 19.9844L6.33789 19.9863C6.11963 19.3642 6 18.6957 6 18C6 14.6863 8.68629 12 12 12Z" fill="#111111"/>
<path d="M3 16C3.55228 16 4 16.4477 4 17C4 17.5523 3.55228 18 3 18H2C1.44772 18 1 17.5523 1 17C1 16.4477 1.44772 16 2 16H3Z" fill="#111111"/>
<path d="M22.1025 16.0049C22.6067 16.0562 23 16.4823 23 17C23 17.5177 22.6067 17.9438 22.1025 17.9951L22 18H21C20.4477 18 20 17.5523 20 17C20 16.4477 20.4477 16 21 16H22L22.1025 16.0049Z" fill="#111111"/>
<path d="M3.71973 9.76465C4.08301 9.34881 4.71396 9.30582 5.12988 9.66895L5.88379 10.3271L5.95703 10.3984C6.30289 10.7688 6.31909 11.3484 5.97852 11.7383C5.63776 12.1281 5.06086 12.1899 4.64746 11.8965L4.56738 11.833L3.81445 11.1748C3.39871 10.8114 3.35644 10.1805 3.71973 9.76465Z" fill="#111111"/>
<path d="M18.876 9.66895C19.2918 9.30568 19.9237 9.34804 20.2871 9.76367C20.6504 10.1795 20.6081 10.8114 20.1924 11.1748L19.4395 11.833C19.0235 12.1964 18.3917 12.1532 18.0283 11.7373C17.6652 11.3215 17.7075 10.6905 18.123 10.3271L18.876 9.66895Z" fill="#111111"/>
<path d="M12.1318 9.99414C12.3944 9.97205 12.6526 9.88393 12.8799 9.73047L12.9912 9.64844L13.3027 9.3877C13.9191 8.85597 14.4854 8.26829 14.9941 7.63184L15.2432 7.31055L15.3008 7.22559C15.5625 6.79144 15.4572 6.22085 15.043 5.91016C14.6288 5.59975 14.0525 5.6588 13.709 6.03125L13.6436 6.11035L13.4316 6.38379C13.2928 6.55746 13.1487 6.72668 13 6.8916V3C13 2.44772 12.5523 2 12 2C11.4477 2 11 2.44772 11 3V6.8916C10.7742 6.64118 10.5592 6.3807 10.3564 6.11035L10.291 6.03125C9.94754 5.6588 9.37116 5.59975 8.95703 5.91016C8.5152 6.24153 8.42547 6.86872 8.75684 7.31055L9.00586 7.63184C9.59915 8.37413 10.2706 9.05026 11.0088 9.64844L11.1201 9.73047C11.3854 9.90959 11.6929 10 12 10L12.1318 9.99414Z" fill="#111111"/>
</svg>
