<svg
  xmlns="http://www.w3.org/2000/svg"
  width="24"
  height="24"
  viewBox="0 0 24 24"
  fill="none"
  stroke="currentColor"
  stroke-width="2"
  stroke-linecap="round"
  stroke-linejoin="round"
>
  <path d="M15 18.9983V3.64314C15 2.42323 16.2831 1.62981 17.3735 2.17536C19.5961 3.28727 21 5.56017 21 8.04647C21 9.46441 20.5985 10.8414 19.8189 12" stroke="currentColor" stroke-width="2" opacity="0.28"/>
  <path d="M7 3C7.55228 3 8 3.44772 8 4V6H10C10.5523 6 11 6.44772 11 7C11 7.55228 10.5523 8 10 8H8V10C8 10.5523 7.55228 11 7 11C6.44772 11 6 10.5523 6 10V8L4 8C3.44772 8 3 7.55228 3 7C3 6.44771 3.44772 6 4 6L6 6V4C6 3.44772 6.44772 3 7 3Z" fill="currentColor"/>
  <path d="M8 18.9983C8 16.7888 9.79032 14.9966 12 14.9966C14.2097 14.9966 16 16.7888 16 18.9983C16 21.2079 14.2097 23 12 23C9.79032 23 8 21.2079 8 18.9983Z" fill="currentColor"/>
</svg>