<svg
  xmlns="http://www.w3.org/2000/svg"
  width="24"
  height="24"
  viewBox="0 0 24 24"
  fill="none"
  stroke="currentColor"
  stroke-width="2"
  stroke-linecap="round"
  stroke-linejoin="round"
>
  <path d="M6.96 9H17.04C17.706 9 18.266 9 18.723 9.037C19.203 9.077 19.657 9.161 20.089 9.382C20.7476 9.71734 21.2832 10.2526 21.619 10.911C21.839 11.343 21.924 11.798 21.963 12.277C22 12.734 22 13.294 22 13.96V18.04C22 18.706 22 19.266 21.963 19.723C21.923 20.203 21.839 20.657 21.618 21.089C21.2827 21.7476 20.7474 22.2832 20.089 22.619C19.657 22.839 19.202 22.924 18.723 22.963C18.266 23 17.706 23 17.04 23H6.96C6.294 23 5.734 23 5.277 22.963C4.797 22.923 4.343 22.839 3.911 22.618C3.25235 22.2827 2.71677 21.7474 2.381 21.089C2.161 20.657 2.076 20.202 2.037 19.723C2 19.266 2 18.706 2 18.041V13.96C2 13.294 2 12.734 2.037 12.277C2.077 11.797 2.161 11.343 2.381 10.911C2.7166 10.2522 3.2522 9.7166 3.911 9.381C4.343 9.161 4.798 9.076 5.277 9.037C5.734 9 6.295 9 6.96 9ZM9.893 15.662C9.893 15.4436 9.93602 15.2274 10.0196 15.0256C10.1032 14.8238 10.2257 14.6405 10.3801 14.4861C10.5345 14.3317 10.7178 14.2092 10.9196 14.1256C11.1214 14.042 11.3376 13.999 11.556 13.999C11.7744 13.999 11.9906 14.042 12.1924 14.1256C12.3942 14.2092 12.5775 14.3317 12.7319 14.4861C12.8863 14.6405 13.0088 14.8238 13.0924 15.0256C13.176 15.2274 13.219 15.4436 13.219 15.662C13.219 16.1031 13.0438 16.526 12.7319 16.8379C12.42 17.1498 11.9971 17.325 11.556 17.325C11.1149 17.325 10.692 17.1498 10.3801 16.8379C10.0682 16.526 9.893 16.1031 9.893 15.662ZM11.556 12C10.9966 12.0004 10.4448 12.1289 9.94273 12.3756C9.4407 12.6223 9.00185 12.9808 8.65984 13.4234C8.31783 13.8661 8.08174 14.3812 7.96968 14.9292C7.85762 15.4772 7.87257 16.0437 8.01337 16.585C8.15418 17.1264 8.4171 17.6283 8.78198 18.0523C9.14686 18.4763 9.604 18.8111 10.1183 19.031C10.6327 19.251 11.1905 19.3502 11.7492 19.321C12.3078 19.2919 12.8523 19.1352 13.341 18.863L14.4 19.92C14.5886 20.1022 14.8412 20.203 15.1034 20.2007C15.3656 20.1984 15.6164 20.0932 15.8018 19.9078C15.9872 19.7224 16.0924 19.4716 16.0947 19.2094C16.097 18.9472 15.9962 18.6946 15.814 18.506L14.755 17.447C15.0662 16.8894 15.2262 16.2601 15.2191 15.6216C15.2121 14.983 15.0382 14.3574 14.7148 13.8068C14.3914 13.2562 13.9297 12.7997 13.3754 12.4826C12.8211 12.1655 12.1936 11.9988 11.555 11.999L11.556 12Z" fill="currentColor" fill-rule="evenodd" clip-rule="evenodd"/ stroke="none">
  <path d="M7 3.001L17 3C17.2652 3 17.5196 2.89464 17.7071 2.70711C17.8946 2.51957 18 2.26522 18 2C18 1.73478 17.8946 1.48043 17.7071 1.29289C17.5196 1.10536 17.2652 1 17 1L7 1.001C6.73478 1.001 6.48043 1.10636 6.29289 1.29389C6.10536 1.48143 6 1.73578 6 2.001C6 2.26622 6.10536 2.52057 6.29289 2.70811C6.48043 2.89564 6.73478 3.001 7 3.001ZM5 5C4.73478 5 4.48043 5.10536 4.29289 5.29289C4.10536 5.48043 4 5.73478 4 6C4 6.26522 4.10536 6.51957 4.29289 6.70711C4.48043 6.89464 4.73478 7 5 7H19C19.2652 7 19.5196 6.89464 19.7071 6.70711C19.8946 6.51957 20 6.26522 20 6C20 5.73478 19.8946 5.48043 19.7071 5.29289C19.5196 5.10536 19.2652 5 19 5H5Z" fill="#111111" opacity="0.28"/ stroke="none">
</svg>