<svg width="24" height="24" viewBox="0 0 24 24" fill="none" xmlns="http://www.w3.org/2000/svg">
<path opacity="0.28" fill-rule="evenodd" clip-rule="evenodd" d="M9.4 2H9.357C8.273 2 7.4 2 6.691 2.058C5.963 2.118 5.322 2.243 4.731 2.545C3.78949 3.02402 3.02388 3.78893 2.544 4.73C2.242 5.322 2.116 5.963 2.057 6.691C2 7.4 2 8.273 2 9.357V17C2 18.3261 2.52678 19.5979 3.46447 20.5355C4.40215 21.4732 5.67392 22 7 22H17C18.3261 22 19.5979 21.4732 20.5355 20.5355C21.4732 19.5979 22 18.3261 22 17V9.053C22 8.477 21.94 7.945 21.725 7.427C21.511 6.91 21.178 6.491 20.77 6.084L17.916 3.23C17.509 2.822 17.09 2.489 16.573 2.275C16.055 2.06 15.523 2 14.947 2H9.4Z" fill="#111111"/>
<path d="M11 7H7M17 21V17.8C17 16.12 17 15.28 16.673 14.638C16.3854 14.0735 15.9265 13.6146 15.362 13.327C14.72 13 13.88 13 12.2 13H11.8C10.12 13 9.28 13 8.638 13.327C8.07354 13.6146 7.61462 14.0735 7.327 14.638C7 15.28 7 16.12 7 17.8V21" stroke="#111111" stroke-width="2" stroke-linecap="round" stroke-linejoin="round"/>
</svg>
