<svg width="24" height="24" viewBox="0 0 24 24" fill="none" xmlns="http://www.w3.org/2000/svg">
<path opacity="0.28" d="M10.0002 3H14.0002M10.0002 3H9.00016M10.0002 3V8.523C10.0001 8.83361 9.90371 9.13655 9.72416 9.39L6.76416 13.569C12.3872 10.981 13.9222 16.641 18.0752 14.753L14.2762 9.39C14.0966 9.13655 14.0002 8.83361 14.0002 8.523V3M14.0002 3H15.0002" stroke="#111111" stroke-width="2" stroke-linecap="round" stroke-linejoin="round"/>
<path fill-rule="evenodd" clip-rule="evenodd" d="M13.766 13.1903C15.282 14.0053 16.21 14.5033 17.662 13.8433C17.8737 13.7471 18.1124 13.7277 18.3369 13.7885C18.5614 13.8493 18.7577 13.9864 18.892 14.1763L20.522 16.4773C22.163 18.7953 20.506 22.0003 17.666 22.0003H6.33399C3.49399 22.0003 1.83699 18.7953 3.47799 16.4773L5.94799 12.9913C6.04944 12.8483 6.18669 12.7345 6.34599 12.6613C7.90599 11.9433 9.24599 11.7713 10.456 11.9373C11.641 12.1003 12.621 12.5793 13.441 13.0173L13.766 13.1903ZM8.99999 15.0003C8.73478 15.0003 8.48042 15.1056 8.29289 15.2932C8.10535 15.4807 7.99999 15.7351 7.99999 16.0003C7.99999 16.2655 8.10535 16.5198 8.29289 16.7074C8.48042 16.8949 8.73478 17.0003 8.99999 17.0003H9.00999C9.27521 17.0003 9.52956 16.8949 9.7171 16.7074C9.90463 16.5198 10.01 16.2655 10.01 16.0003C10.01 15.7351 9.90463 15.4807 9.7171 15.2932C9.52956 15.1056 9.27521 15.0003 9.00999 15.0003H8.99999Z" fill="#111111"/>
</svg>
