<svg width="24" height="24" viewBox="0 0 24 24" fill="none" xmlns="http://www.w3.org/2000/svg">
<path opacity="0.28" fill-rule="evenodd" clip-rule="evenodd" d="M3.00001 12.0001C2.99855 9.76491 3.82885 7.60919 5.32929 5.95252C6.82973 4.29585 8.89294 3.25677 11.1173 3.03755C13.3417 2.81833 15.568 3.43466 17.363 4.76656C19.158 6.09846 20.3931 8.05062 20.828 10.2431L20.806 10.2591C18.972 11.5991 16.342 13.1751 13.348 14.6811C10.354 16.1871 7.52101 17.3591 5.35101 18.0321L5.32701 18.0391C3.82663 16.3859 2.99687 14.2325 3.00001 12.0001ZM7.11001 19.5561C8.42764 20.409 9.94543 20.9025 11.5127 20.9876C13.08 21.0726 14.6423 20.7464 16.0445 20.0411C17.4468 19.3358 18.6402 18.2761 19.5063 16.9671C20.3724 15.6581 20.8812 14.1454 20.982 12.5791C19.147 13.8221 16.812 15.1771 14.247 16.4681C11.681 17.7581 9.20201 18.8241 7.11001 19.5561Z" fill="#111111"/>
<path fill-rule="evenodd" clip-rule="evenodd" d="M3.17199 13.758C2.34899 14.361 1.66399 14.933 1.17699 15.444C0.883989 15.751 0.617989 16.081 0.447989 16.42C0.290989 16.732 0.104989 17.281 0.385989 17.841C0.644989 18.355 1.13299 18.546 1.46299 18.619C1.80799 18.695 2.19099 18.693 2.56299 18.659C3.31499 18.591 4.27399 18.365 5.35099 18.031C7.52099 17.358 10.354 16.186 13.348 14.681C16.342 13.174 18.972 11.599 20.806 10.258C21.716 9.59302 22.47 8.95802 22.973 8.39402C23.222 8.11602 23.452 7.80902 23.596 7.48702C23.735 7.17902 23.872 6.67202 23.614 6.15902C23.332 5.59902 22.78 5.42102 22.436 5.36102C22.062 5.29602 21.638 5.31202 21.218 5.36402C20.516 5.45102 19.648 5.66002 18.674 5.96102C19.1487 6.48574 19.5602 7.06437 19.9 7.68502C20.38 7.55202 20.801 7.45502 21.157 7.39502C20.787 7.74802 20.274 8.17002 19.626 8.64402C17.906 9.90102 15.376 11.421 12.449 12.894C9.52299 14.366 6.79399 15.489 4.75899 16.121C3.99099 16.359 3.34799 16.519 2.84299 16.605C3.10399 16.356 3.43299 16.076 3.82499 15.77C3.5284 15.1276 3.3092 14.4522 3.17199 13.758Z" fill="#111111"/>
</svg>
