<svg width="24" height="24" viewBox="0 0 24 24" fill="none" xmlns="http://www.w3.org/2000/svg">
<path opacity="0.28" d="M15.4098 17.4898C12.8269 16.717 10.4853 15.4571 8.58984 13.5098M15.41 6.50977C12.8271 7.28255 10.4855 8.54242 8.59 10.4898" stroke="#111111" stroke-width="2" stroke-linecap="round" stroke-linejoin="round"/>
<path d="M18 1C15.7909 1 14 2.79086 14 5C14 7.20914 15.7909 9 18 9C20.2091 9 22 7.20914 22 5C22 2.79086 20.2091 1 18 1Z" fill="#111111"/>
<path d="M6 8C3.79086 8 2 9.79086 2 12C2 14.2091 3.79086 16 6 16C8.20914 16 10 14.2091 10 12C10 9.79086 8.20914 8 6 8Z" fill="#111111"/>
<path d="M18 15C15.7909 15 14 16.7909 14 19C14 21.2091 15.7909 23 18 23C20.2091 23 22 21.2091 22 19C22 16.7909 20.2091 15 18 15Z" fill="#111111"/>
</svg>
