<svg width="24" height="24" viewBox="0 0 24 24" fill="none" xmlns="http://www.w3.org/2000/svg">
<g opacity="0.28">
<path d="M1.99991 10.4999C1.99995 10.2238 2.2238 10 2.49991 10H7.50014C7.77628 10 8.00014 10.2239 8.00014 10.5V14.5C8.00014 14.7761 7.77628 15 7.50014 15H2.49979C2.2238 15 2 14.7764 1.99986 14.5004C1.99928 13.4071 1.99954 12.3136 1.9998 11.2206L1.99991 10.4999Z" fill="#111111"/>
<path d="M2.06972 17.4426C2.04693 17.2027 2.23969 17 2.48068 17H7.50014C7.77628 17 8.00014 17.2239 8.00014 17.5V21.4878C8.00014 21.7666 7.77214 21.9923 7.49353 21.984C7.15358 21.974 6.84252 21.9574 6.55743 21.9304C5.88407 21.8664 5.28641 21.7385 4.73013 21.455C3.78932 20.9757 3.02442 20.2108 2.54505 19.27C2.26161 18.7137 2.1337 18.116 2.06972 17.4426Z" fill="#111111"/>
<path d="M10.5001 21.9999C10.224 21.9999 10.0001 21.776 10.0001 21.4999V17.5C10.0001 17.2239 10.224 17 10.5001 17H13.5001C13.7763 17 14.0001 17.2239 14.0001 17.5V21.4999C14.0001 21.776 13.7763 21.9999 13.5001 21.9999H10.5001Z" fill="#111111"/>
<path d="M16.5067 21.984C16.2281 21.9923 16.0001 21.7666 16.0001 21.4878V17.5C16.0001 17.2239 16.224 17 16.5001 17H21.5195C21.7605 17 21.9532 17.2027 21.9304 17.4426C21.8664 18.116 21.7385 18.7137 21.4551 19.27C20.9757 20.2108 20.2108 20.9757 19.27 21.455C18.7137 21.7385 18.1161 21.8664 17.4427 21.9304C17.1577 21.9574 16.8466 21.974 16.5067 21.984Z" fill="#111111"/>
<path d="M22.0003 14.5004C22.0001 14.7764 21.7763 15 21.5004 15H16.5001C16.224 15 16.0001 14.7761 16.0001 14.5V10.5C16.0001 10.2239 16.224 10 16.5001 10H21.5002C21.7764 10 22.0002 10.2238 22.0002 10.4999L22.0003 11.2206V11.227C22.0006 12.3179 22.0009 13.4092 22.0003 14.5004Z" fill="#111111"/>
<path d="M10.0001 14.5C10.0001 14.7761 10.224 15 10.5001 15H13.5001C13.7763 15 14.0001 14.7761 14.0001 14.5V10.5C14.0001 10.2239 13.7763 10 13.5001 10H10.5001C10.224 10 10.0001 10.2239 10.0001 10.5V14.5Z" fill="#111111"/>
</g>
<path fill-rule="evenodd" clip-rule="evenodd" d="M9.35702 2H14.6427C15.7265 1.99999 16.6006 1.99998 17.3085 2.05782C18.0373 2.11737 18.6775 2.24318 19.2698 2.54497C20.2106 3.02433 20.9755 3.78924 21.4549 4.73005C21.7567 5.32234 21.8825 5.96253 21.942 6.69138C21.9622 6.93791 21.9753 7.20463 21.9839 7.49335C21.9921 7.77198 21.7664 8 21.4876 8H14.9999H8.9999H2.51206C2.2333 8 2.00758 7.77198 2.01584 7.49335C2.02439 7.20464 2.03752 6.93792 2.05766 6.69138C2.11721 5.96253 2.24302 5.32234 2.54481 4.73005C3.02418 3.78924 3.78908 3.02434 4.72989 2.54497C5.32218 2.24318 5.96237 2.11737 6.69122 2.05782C7.39909 1.99998 8.27325 1.99999 9.35702 2Z" fill="#111111"/>
</svg>
