<svg width="24" height="24" viewBox="0 0 24 24" fill="none" xmlns="http://www.w3.org/2000/svg">
<path opacity="0.28" d="M15 1C17.2091 1 19 2.79086 19 5V15C19.6273 15.8355 20 16.8751 20 18C20 20.7614 17.7614 23 15 23C12.2386 23 10 20.7614 10 18C10 16.8751 10.3727 15.8355 11 15V5C11 2.79086 12.7909 1 15 1Z" fill="#111111"/>
<path d="M15 17C14.4477 17 14 17.4477 14 18C14 18.5523 14.4477 19 15 19C15.5523 19 16 18.5523 16 18C16 17.4477 15.5523 17 15 17ZM15 17V10" stroke="#111111" stroke-width="2" stroke-linecap="round" stroke-linejoin="round"/>
<path d="M2 7H7.99999" stroke="#111111" stroke-width="2" stroke-linecap="round" stroke-linejoin="round"/>
</svg>
