<svg width="24" height="24" viewBox="0 0 24 24" fill="none" xmlns="http://www.w3.org/2000/svg">
<path opacity="0.28" d="M15 1C17.2091 1 19 2.79086 19 5V15C19.6273 15.8355 20 16.8751 20 18C20 20.7614 17.7614 23 15 23C12.2386 23 10 20.7614 10 18C10 16.8751 10.3727 15.8355 11 15V5C11 2.79086 12.7909 1 15 1Z" fill="#111111"/>
<path d="M15 17C14.4477 17 14 17.4477 14 18C14 18.5523 14.4477 19 15 19C15.5523 19 16 18.5523 16 18C16 17.4477 15.5523 17 15 17ZM15 17V10" stroke="#111111" stroke-width="2" stroke-linecap="round" stroke-linejoin="round"/>
<path d="M7.5723 10.0188C6.9378 10.8648 6.20173 11.6288 5.38107 12.2938C5.27008 12.3837 5.13548 12.4287 5.00087 12.4287M5.00087 12.4287C4.86627 12.4287 4.73166 12.3837 4.62067 12.2938C3.80001 11.6288 3.06394 10.8648 2.42944 10.0188M5.00087 12.4287V6" stroke="#111111" stroke-width="2" stroke-linecap="round" stroke-linejoin="round"/>
</svg>
