<svg
  xmlns="http://www.w3.org/2000/svg"
  width="24"
  height="24"
  viewBox="0 0 24 24"
  fill="none"
  stroke="currentColor"
  stroke-width="2"
  stroke-linecap="round"
  stroke-linejoin="round"
>
  <path d="M10.5304 20H8.4C6.15979 20 5.03968 20 4.18404 19.564C3.43139 19.1805 2.81947 18.5686 2.43597 17.816C2 16.9603 2 15.8402 2 13.6V10.4C2 8.15979 2 7.03968 2.43597 6.18404C2.81947 5.43139 3.43139 4.81947 4.18404 4.43597C5.03968 4 6.15979 4 8.4 4H15.6C17.8402 4 18.9603 4 19.816 4.43597C20.5686 4.81947 21.1805 5.43139 21.564 6.18404C22 7.03968 22 8.15979 22 10.4V11.3477" stroke="#111111" stroke-width="2" opacity="0.28"/ fill="none">
  <path d="M2 9H22M5.8001 13H9.1001M18 18H18.01M18 14L19.1787 15.1545L20.8284 15.1716L20.8455 16.8213L22 18L20.8455 19.1787L20.8284 20.8284L19.1787 20.8455L18 22L16.8213 20.8455L15.1716 20.8284L15.1545 19.1787L14 18L15.1545 16.8213L15.1716 15.1716L16.8213 15.1545L18 14Z" stroke="currentColor" stroke-width="2"/ fill="none">
</svg>