<svg
  xmlns="http://www.w3.org/2000/svg"
  width="24"
  height="24"
  viewBox="0 0 24 24"
  fill="none"
  stroke="currentColor"
  stroke-width="2"
  stroke-linecap="round"
  stroke-linejoin="round"
>
  <path d="M12.0005 11.5V7.5M11.9925 15H12.0025M8.58049 3H15.4205C17.5475 3 18.6115 3 19.4245 3.414C20.1392 3.77826 20.7202 4.35933 21.0845 5.074C21.4995 5.887 21.4995 6.951 21.4995 9.08V13.64C21.4995 14.345 21.4995 14.698 21.4525 14.993C21.3272 15.7859 20.954 16.5187 20.3865 17.0864C19.819 17.654 19.0863 18.0274 18.2935 18.153C17.7235 18.243 17.1455 18.153 16.5735 18.207C16.1002 18.251 15.6607 18.4708 15.3415 18.823C15.0075 19.193 14.7315 19.625 14.4315 20.023C13.6075 21.123 13.1945 21.674 12.6885 21.871C12.2456 22.0432 11.7543 22.0432 11.3115 21.871C10.8055 21.674 10.3925 21.124 9.56749 20.023C9.26949 19.625 8.99249 19.193 8.65749 18.823C8.33857 18.471 7.89939 18.2513 7.42649 18.207C6.85549 18.154 6.27649 18.242 5.70649 18.152C4.91381 18.0265 4.18122 17.6532 3.61373 17.0858C3.04624 16.5183 2.67299 15.7857 2.54749 14.993C2.50049 14.698 2.50049 14.345 2.50049 13.639V9.08C2.50049 6.952 2.50049 5.888 2.91449 5.076C3.27901 4.36118 3.86045 3.78009 4.57549 3.416C5.38849 3 6.45249 3 8.58049 3Z" stroke="currentColor" stroke-width="2"/ fill="none">
</svg>