<svg
  xmlns="http://www.w3.org/2000/svg"
  width="24"
  height="24"
  viewBox="0 0 24 24"
  fill="none"
  stroke="currentColor"
  stroke-width="2"
  stroke-linecap="round"
  stroke-linejoin="round"
>
  <path d="M12 8.5H16.6C17.4401 8.5 17.8601 8.5 18.181 8.33651C18.4632 8.1927 18.6927 7.96323 18.8365 7.68099C19 7.36012 19 6.94008 19 6.1V4.4C19 3.55992 19 3.13988 18.8365 2.81901C18.6927 2.53677 18.4632 2.3073 18.181 2.16349C17.8601 2 17.4401 2 16.6 2H6.43567C5.75704 2 5.41772 2 5.27506 2.12856C5.15151 2.23989 5.0914 2.40536 5.1147 2.57003C5.1416 2.76018 5.40181 2.97796 5.92223 3.4135L12 8.5ZM12 8.5H7.4C6.55992 8.5 6.13988 8.5 5.81901 8.66349C5.53677 8.8073 5.3073 9.03677 5.16349 9.31901C5 9.63988 5 10.0599 5 10.9V15H17.5939C18.2747 15 18.6152 15 18.7579 14.8712C18.8815 14.7597 18.9415 14.5939 18.9179 14.4291C18.8906 14.2388 18.629 14.021 18.1059 13.5853L12 8.5Z" stroke="currentColor" stroke-width="2" opacity="0.28"/>
  <path d="M13.0001 15.9999L11.0001 15.9999V20.3385L7.20391 15.9999H5.00014C4.70192 15.9999 4.43419 15.8694 4.25098 15.6624L9.87061 22.0848C10.0657 22.3078 10.2531 22.522 10.4169 22.6795C10.5557 22.8129 10.8649 23.1011 11.3129 23.1575C11.8033 23.2192 12.2926 23.0353 12.6211 22.666C12.9211 22.3285 12.964 21.908 12.9806 21.7162C13.0002 21.4898 13.0002 21.2053 13.0001 20.9089L13.0001 15.9999Z" fill="currentColor"/>
</svg>