<svg
  xmlns="http://www.w3.org/2000/svg"
  width="24"
  height="24"
  viewBox="0 0 24 24"
  fill="none"
  stroke="currentColor"
  stroke-width="2"
  stroke-linecap="round"
  stroke-linejoin="round"
>
  <g opacity="0.28"><path d="M16.2134 18.6881C16.5917 17.7317 16.8 16.6893 16.8 15.6002C16.8 10.961 13.0392 7.2002 8.40001 7.2002C7.66581 7.2002 6.95287 7.29485 6.27318 7.47244L5.96964 7.17925C7.32557 4.68954 9.96548 3 13 3C17.4183 3 21 6.58172 21 11C21 11.3241 20.9807 11.6437 20.9433 11.9577C20.7836 13.2963 20.7037 13.9661 20.6949 14.1083C20.6914 14.1655 20.6888 14.2032 20.6869 14.2303C20.6846 14.2642 20.6834 14.2811 20.683 14.2981C20.6826 14.3151 20.683 14.3321 20.6837 14.3661C20.6843 14.3931 20.6851 14.4311 20.6859 14.4882C20.6879 14.6308 20.6979 14.7705 20.7179 15.0499L20.8422 16.7902C20.8966 17.5524 20.9238 17.9335 20.7887 18.2185C20.6701 18.4686 20.4687 18.6701 20.2185 18.7887C19.9335 18.9238 19.5524 18.8966 18.7903 18.8422L17.0499 18.7179C16.7705 18.6979 16.6308 18.6879 16.4882 18.6859C16.431 18.6851 16.3931 18.6843 16.3661 18.6837C16.3322 18.683 16.3151 18.6826 16.2981 18.683C16.2812 18.6834 16.2642 18.6846 16.2304 18.6869L16.2134 18.6881Z" fill="currentColor"/><path d="M12.4366 19.1869C11.4475 20.2992 10.0056 21 8.4 21C8.10869 21 7.82276 20.9769 7.54395 20.9325C6.94471 20.837 6.64482 20.7893 6.55232 20.781C6.4829 20.7748 6.45593 20.772 6.42889 20.7708C6.40185 20.7697 6.37474 20.7701 6.30504 20.7703C6.21216 20.7705 6.10057 20.7785 5.8774 20.7944L4.49158 20.8934C3.97712 20.9302 3.71989 20.9485 3.52753 20.8573C3.35867 20.7773 3.22268 20.6413 3.14262 20.4724C3.05142 20.2801 3.06979 20.0228 3.10654 19.5084L3.20553 18.1225C3.22147 17.8994 3.22944 17.7878 3.22967 17.6949C3.22985 17.6252 3.23027 17.5981 3.2291 17.5711C3.22793 17.544 3.22516 17.5171 3.21896 17.4476C3.21068 17.3551 3.16295 17.0554 3.06748 16.456C3.02307 16.1772 3 15.8913 3 15.6C3 13.9944 3.70072 12.5525 4.81303 11.5633C4.87722 11.5063 4.94279 11.4507 5.00966 11.3967C5.93648 10.6482 7.1159 10.2 8.4 10.2C11.3823 10.2 13.8 12.6176 13.8 15.6C13.8 16.8841 13.3518 18.0635 12.6032 18.9903C12.5493 19.0572 12.4937 19.1227 12.4366 19.1869Z" fill="currentColor"/></g>
  <path d="M17.0499 18.7179L18.7902 18.8422C19.5524 18.8966 19.9335 18.9238 20.2185 18.7887C20.4686 18.6701 20.6701 18.4686 20.7887 18.2185C20.9238 17.9335 20.8966 17.5524 20.8422 16.7902L20.7179 15.0499C20.6979 14.7705 20.6879 14.6308 20.6859 14.4882C20.6822 14.2301 20.679 14.366 20.6949 14.1083C20.7037 13.966 20.7835 13.2966 20.9433 11.9577C20.9807 11.6437 21 11.3241 21 11C21 6.58172 17.4183 3 13 3C10.2503 3 7.82466 4.38723 6.38468 6.5M13.8 15.6C13.8 12.6176 11.3823 10.2 8.4 10.2C7.1159 10.2 5.93648 10.6482 5.00966 11.3967C4.94279 11.4507 4.87722 11.5063 4.81303 11.5633C3.70072 12.5525 3 13.9944 3 15.6C3 15.8913 3.02307 16.1772 3.06748 16.456C3.16295 17.0554 3.21068 17.3551 3.21896 17.4476C3.23137 17.5865 3.23003 17.5555 3.22967 17.6949C3.22944 17.7878 3.22147 17.8994 3.20553 18.1225L3.10654 19.5084C3.06979 20.0228 3.05142 20.2801 3.14262 20.4724C3.22268 20.6413 3.35867 20.7773 3.52753 20.8573C3.71989 20.9485 3.97712 20.9302 4.49158 20.8934L5.8774 20.7944C6.10057 20.7785 6.21216 20.7705 6.30504 20.7703C6.44444 20.7699 6.41347 20.7686 6.55232 20.781C6.64482 20.7893 6.94471 20.837 7.54395 20.9325C7.82276 20.9769 8.10869 21 8.4 21C10.0056 21 11.4475 20.2992 12.4366 19.1869C12.4937 19.1227 12.5493 19.0572 12.6032 18.9903C13.3518 18.0635 13.8 16.8841 13.8 15.6Z" stroke="currentColor" stroke-width="2"/>
</svg>