<svg
  xmlns="http://www.w3.org/2000/svg"
  width="24"
  height="24"
  viewBox="0 0 24 24"
  fill="none"
  stroke="currentColor"
  stroke-width="2"
  stroke-linecap="round"
  stroke-linejoin="round"
>
  <path d="M13.9999 4H9.99993C7.19966 4 5.79953 4 4.72997 4.54497C3.78916 5.02433 3.02426 5.78924 2.54489 6.73005C2.24634 7.31599 2.56324 7.99484 3.11805 8.34789L7.70492 11.2668C9.26146 12.2573 10.0397 12.7526 10.8762 12.9455C11.6156 13.1161 12.3842 13.1161 13.1237 12.9455C13.9601 12.7526 14.7384 12.2573 16.2949 11.2668L21.8031 7.76159C21.7236 7.37332 21.6119 7.03798 21.455 6.73005C20.9756 5.78924 20.2107 5.02433 19.2699 4.54497C18.2003 4 16.8002 4 13.9999 4Z" fill="currentColor" opacity="0.28"/>
  <path d="M4 20H14C16.8003 20 18.2004 20 19.27 19.455C20.2108 18.9757 20.9757 18.2108 21.455 17.27C22 16.2004 22 14.8003 22 12C22 10.006 22 8.72189 21.8032 7.76159M21.8032 7.76159L16.295 11.2668C14.7385 12.2573 13.9602 12.7526 13.1238 12.9455C12.3843 13.1161 11.6157 13.1161 10.8762 12.9455C10.0398 12.7526 9.26153 12.2573 7.70499 11.2668L3.11812 8.34789C2.56331 7.99484 2.24641 7.31599 2.54497 6.73005C3.02433 5.78924 3.78924 5.02433 4.73005 4.54497C5.79961 4 7.19974 4 10 4H14C16.8003 4 18.2004 4 19.27 4.54497C20.2108 5.02433 20.9757 5.78924 21.455 6.73005C21.6119 7.03798 21.7237 7.37332 21.8032 7.76159ZM1 12H2M2 16H7" stroke="currentColor" stroke-width="2"/>
</svg>