<svg
  xmlns="http://www.w3.org/2000/svg"
  width="24"
  height="24"
  viewBox="0 0 24 24"
  fill="none"
  stroke="currentColor"
  stroke-width="2"
  stroke-linecap="round"
  stroke-linejoin="round"
>
  <path d="M14.1952 5C14.3495 6.33024 14.4596 7.6643 14.5256 9L4.60232 9C4.04227 9 3.76224 9 3.54833 9.109C3.36017 9.20487 3.20719 9.35785 3.11131 9.54601C3.00232 9.75992 3.00232 10.0399 3.00232 10.6V13.4C3.00232 13.9601 3.00232 14.2401 3.11131 14.454C3.20719 14.6422 3.36017 14.7951 3.54833 14.891C3.76224 15 4.04227 15 4.60232 15H14.5256C14.4596 16.3357 14.3495 17.6698 14.1952 19" stroke="#111111" stroke-width="2" opacity="0.28"/ fill="none">
  <path d="M14.1956 5C16.6495 6.81482 18.8536 8.93491 20.7532 11.3066C20.9162 11.5101 20.9977 11.755 20.9977 12C20.9977 12.245 20.9162 12.4899 20.7532 12.6934C18.8536 15.0651 16.6495 17.1852 14.1956 19" stroke="currentColor" stroke-width="2"/ fill="none">
</svg>