<svg
  xmlns="http://www.w3.org/2000/svg"
  width="24"
  height="24"
  viewBox="0 0 24 24"
  fill="none"
  stroke="currentColor"
  stroke-width="2"
  stroke-linecap="round"
  stroke-linejoin="round"
>
  <path d="M3 16H17M21 8H7" stroke="#111111" stroke-width="2" opacity="0.28"/ fill="none">
  <path d="M6.88693 12C5.48467 13.037 4.22522 14.2485 3.13968 15.6038C3.04656 15.72 3 15.86 3 16C3 16.14 3.04656 16.28 3.13968 16.3962C4.22522 17.7515 5.48467 18.963 6.88693 20M17.1131 4C18.5153 5.03704 19.7748 6.24852 20.8603 7.60379C20.9534 7.72005 21 7.86002 21 8C21 8.13998 20.9534 8.27995 20.8603 8.39621C19.7748 9.75148 18.5153 10.963 17.1131 12" stroke="currentColor" stroke-width="2"/ fill="none">
</svg>