<svg width="24" height="24" viewBox="0 0 24 24" fill="none" xmlns="http://www.w3.org/2000/svg">
<path d="M20 15.2405C18.5179 14.9923 17.0201 14.936 15.544 15.0726C15.4174 15.0843 15.3054 15.1388 15.2221 15.2221M15.2405 20C14.9923 18.5179 14.936 17.0201 15.0726 15.544C15.0843 15.4174 15.1388 15.3054 15.2221 15.2221M15.2221 15.2221L21 21M4 8.75952C5.48214 9.0077 6.97994 9.06399 8.45599 8.92744C8.58261 8.91573 8.69462 8.86118 8.7779 8.7779M8.75952 4C9.0077 5.48214 9.06399 6.97994 8.92744 8.456C8.91573 8.58262 8.86117 8.69462 8.7779 8.7779M8.7779 8.7779L3 3M4 15.2405C5.48214 14.9923 6.97994 14.936 8.45599 15.0726C8.58261 15.0843 8.69462 15.1388 8.7779 15.2221M8.75952 20C9.0077 18.5179 9.06399 17.0201 8.92744 15.544C8.91573 15.4174 8.86117 15.3054 8.7779 15.2221M8.7779 15.2221L3 21M20 8.75952C18.5179 9.0077 17.0201 9.06399 15.544 8.92744C15.4174 8.91573 15.3054 8.86118 15.2221 8.7779M15.2405 4C14.9923 5.48214 14.936 6.97994 15.0726 8.456C15.0843 8.58262 15.1388 8.69462 15.2221 8.7779M15.2221 8.7779L21 3" stroke="#111111" stroke-width="2" stroke-linecap="round" stroke-linejoin="round"/>
</svg>
