<svg width="24" height="24" viewBox="0 0 24 24" fill="none" xmlns="http://www.w3.org/2000/svg">
<g opacity="0.28">
<path d="M17.4595 19.4062C17.2058 19.089 17.0789 18.9304 17.0314 18.7475C16.9895 18.5866 16.9895 18.4134 17.0314 18.2525C17.0789 18.0696 17.2058 17.911 17.4595 17.5938L18.2751 16.5744C18.5288 16.2572 18.6557 16.0986 18.802 16.0392C18.9307 15.9869 19.0693 15.9869 19.198 16.0392C19.3443 16.0986 19.4712 16.2572 19.7249 16.5744L20.5405 17.5938C20.7942 17.911 20.9211 18.0696 20.9686 18.2525C21.0105 18.4134 21.0105 18.5866 20.9686 18.7475C20.9211 18.9304 20.7942 19.089 20.5405 19.4062L19.7249 20.4256C19.4712 20.7428 19.3443 20.9014 19.198 20.9608C19.0693 21.0131 18.9307 21.0131 18.802 20.9608C18.6557 20.9014 18.5288 20.7428 18.2751 20.4256L17.4595 19.4062Z" stroke="#111111" stroke-width="2" stroke-linecap="round" stroke-linejoin="round"/>
<path d="M18.2298 4.36247C18.1029 4.23559 18.0394 4.17215 18.0157 4.099C17.9948 4.03466 17.9948 3.96534 18.0157 3.901C18.0394 3.82785 18.1029 3.76441 18.2298 3.63753L18.6375 3.22976C18.7644 3.10289 18.8278 3.03945 18.901 3.01568C18.9653 2.99477 19.0347 2.99477 19.099 3.01568C19.1722 3.03945 19.2356 3.10289 19.3625 3.22976L19.7702 3.63753C19.8971 3.76441 19.9606 3.82785 19.9843 3.901C20.0052 3.96534 20.0052 4.03466 19.9843 4.099C19.9606 4.17215 19.8971 4.23559 19.7702 4.36247L19.3625 4.77024C19.2356 4.89711 19.1722 4.96055 19.099 4.98432C19.0347 5.00523 18.9653 5.00523 18.901 4.98432C18.8278 4.96055 18.7644 4.89711 18.6375 4.77024L18.2298 4.36247Z" stroke="#111111" stroke-width="2" stroke-linecap="round" stroke-linejoin="round"/>
</g>
<path d="M8.57731 5.7637C9.037 4.87066 9.26685 4.42414 9.57563 4.27947C9.84446 4.15351 10.1554 4.15351 10.4242 4.27947C10.733 4.42414 10.9628 4.87066 11.4225 5.76371L12.6142 8.0788C12.6938 8.23352 12.7337 8.31088 12.7852 8.3792C12.8309 8.43984 12.8834 8.49508 12.9416 8.54384C13.0072 8.59877 13.0824 8.64248 13.2329 8.72991L15.6193 10.1166C16.4012 10.571 16.7921 10.7982 16.9236 11.0943C17.0382 11.3526 17.0382 11.6474 16.9236 11.9057C16.7921 12.2019 16.4012 12.429 15.6193 12.8834L13.2329 14.2701C13.0824 14.3576 13.0072 14.4013 12.9416 14.4562C12.8834 14.505 12.8309 14.5602 12.7852 14.6209C12.7337 14.6892 12.6938 14.7665 12.6142 14.9213L11.4225 17.2364C10.9628 18.1294 10.733 18.5759 10.4242 18.7206C10.1554 18.8465 9.84446 18.8465 9.57563 18.7206C9.26685 18.5759 9.037 18.1294 8.57731 17.2363L7.38563 14.9213C7.30598 14.7665 7.26616 14.6892 7.21465 14.6209C7.16892 14.5602 7.11644 14.505 7.05821 14.4562C6.99261 14.4013 6.91738 14.3576 6.76692 14.2701L4.38054 12.8834C3.59863 12.429 3.20768 12.2019 3.07623 11.9057C2.96157 11.6474 2.96157 11.3526 3.07623 11.0943C3.20768 10.7982 3.59863 10.571 4.38054 10.1166L6.76692 8.72991C6.91738 8.64248 6.99261 8.59877 7.05821 8.54384C7.11644 8.49508 7.16892 8.43984 7.21465 8.3792C7.26616 8.31088 7.30598 8.23352 7.38563 8.0788L8.57731 5.7637Z" stroke="#111111" stroke-width="2" stroke-linecap="round" stroke-linejoin="round"/>
</svg>
