<svg width="24" height="24" viewBox="0 0 24 24" fill="none" xmlns="http://www.w3.org/2000/svg">
<path d="M11 20C11 20.5523 11.4477 21 12 21C12.5523 21 13 20.5523 13 20V12.8758C14.0018 12.896 15.0031 12.9466 16.0026 13.0276C16.553 13.0722 17.0355 12.6621 17.0801 12.1117C17.1003 11.8614 17.0267 11.6252 16.8885 11.4379C15.7802 9.91621 14.4851 8.54864 13.0356 7.36919C12.7361 7.12546 12.3695 7 12 7C11.6305 7 11.2639 7.12546 10.9644 7.36919C9.51489 8.54864 8.21981 9.9162 7.11148 11.4379C6.97334 11.6252 6.89965 11.8614 6.91993 12.1117C6.96454 12.6621 7.44696 13.0722 7.99744 13.0276C8.99691 12.9466 9.99822 12.896 11 12.8758V20Z" fill="#111111"/>
<path d="M19 5C19.5523 5 20 4.55228 20 4C20 3.44772 19.5523 3 19 3H5C4.44771 3 4 3.44772 4 4C4 4.55228 4.44771 5 5 5H19Z" fill="#111111"/>
</svg>
