<svg width="24" height="24" viewBox="0 0 24 24" fill="none" xmlns="http://www.w3.org/2000/svg">
<path d="M21 4C21 3.44771 20.5523 3 20 3C19.4477 3 19 3.44772 19 4L19 7C19 8.41663 18.9992 9.41896 18.9352 10.2026C18.8721 10.9745 18.7527 11.4457 18.564 11.816C18.1805 12.5686 17.5686 13.1805 16.816 13.564C16.4457 13.7527 15.9745 13.8721 15.2026 13.9352C14.419 13.9992 13.4166 14 12 14L9.37309 14C9.40217 13.3317 9.46041 12.6644 9.54783 12C9.60615 11.5567 9.68243 11.1114 9.84424 10.1693C9.91336 9.76678 9.73081 9.36271 9.3831 9.14855C9.03539 8.93438 8.59239 8.95316 8.26406 9.19598C6.44203 10.5435 4.80519 12.1179 3.39411 13.8796C3.13266 14.206 3 14.6025 3 15C3 15.3975 3.13266 15.794 3.39411 16.1204C4.80519 17.8821 6.44203 19.4565 8.26406 20.804C8.5924 21.0468 9.03539 21.0656 9.3831 20.8515C9.73081 20.6373 9.91336 20.2332 9.84424 19.8307C9.68243 18.8885 9.60615 18.4433 9.54783 18C9.46042 17.3356 9.40217 16.6683 9.37309 16L12.0437 16C13.4068 16 14.4908 16 15.3654 15.9286C16.261 15.8554 17.0247 15.7023 17.7239 15.346C18.8529 14.7708 19.7708 13.8529 20.346 12.7239C20.7023 12.0247 20.8554 11.261 20.9286 10.3654C21 9.49086 21 8.40687 21 7.04387L21 4Z" fill="#111111"/>
</svg>
