<svg width="24" height="24" viewBox="0 0 24 24" fill="none" xmlns="http://www.w3.org/2000/svg">
<path opacity="0.28" d="M4 5V19" stroke="#111111" stroke-width="2" stroke-linecap="round" stroke-linejoin="round"/>
<path d="M20 13C20.5523 13 21 12.5523 21 12C21 11.4477 20.5523 11 20 11L12.8758 11C12.896 9.99824 12.9466 8.99692 13.0276 7.99745C13.0722 7.44697 12.6621 6.96455 12.1117 6.91995C11.8614 6.89967 11.6252 6.97336 11.4379 7.11148C9.91621 8.21982 8.54864 9.5149 7.36919 10.9644C7.12546 11.2639 7 11.6305 7 12C7 12.3696 7.12546 12.7361 7.36919 13.0356C8.54864 14.4851 9.9162 15.7802 11.4379 16.8885C11.6252 17.0267 11.8614 17.1004 12.1117 17.0801C12.6621 17.0355 13.0722 16.5531 13.0276 16.0026C12.9466 15.0031 12.896 14.0018 12.8758 13L20 13Z" fill="#111111"/>
</svg>
