<svg width="24" height="24" viewBox="0 0 24 24" fill="none" xmlns="http://www.w3.org/2000/svg">
<path opacity="0.28" d="M5 12H19" stroke="#111111" stroke-width="2" stroke-linecap="round" stroke-linejoin="round"/>
<path d="M9.09825 5.68886C8.54864 5.63463 8.05913 6.03623 8.0049 6.58584C7.98141 6.82402 8.04351 7.05091 8.16616 7.23597C8.98773 8.49838 9.94966 9.63626 11.0294 10.62C11.2935 10.8607 11.6363 11 12.0001 11C12.3639 11 12.7066 10.8607 12.9707 10.62C14.0505 9.63626 15.0124 8.49837 15.834 7.23596C15.9566 7.0509 16.0187 6.82401 15.9952 6.58584C15.941 6.03623 15.4515 5.63463 14.9019 5.68886C14.2691 5.75128 13.6349 5.79324 13.0001 5.81473V3C13.0001 2.44772 12.5524 2 12.0001 2C11.4478 2 11.0001 2.44772 11.0001 3L11.0001 5.81473C10.3653 5.79324 9.73101 5.75128 9.09825 5.68886Z" fill="#111111"/>
<path d="M8.00491 17.4142C7.98141 17.176 8.0435 16.9491 8.16614 16.7641C8.98771 15.5016 9.94965 14.3637 11.0294 13.38C11.2935 13.1393 11.6363 13 12.0001 13C12.3639 13 12.7066 13.1393 12.9707 13.38C14.0505 14.3637 15.0124 15.5016 15.834 16.764C15.9566 16.9491 16.0187 17.176 15.9952 17.4142C15.941 17.9638 15.4515 18.3654 14.9019 18.3111C14.2691 18.2487 13.6349 18.2068 13.0001 18.1853L13.0001 21C13.0001 21.5523 12.5524 22 12.0001 22C11.4478 22 11.0001 21.5523 11.0001 21V18.1853C10.3653 18.2068 9.73101 18.2487 9.09826 18.3111C8.54864 18.3654 8.05913 17.9638 8.00491 17.4142Z" fill="#111111"/>
</svg>
