<svg width="24" height="24" viewBox="0 0 24 24" fill="none" xmlns="http://www.w3.org/2000/svg">
<path opacity="0.28" fill-rule="evenodd" clip-rule="evenodd" d="M4.52894 10.1851L4.50594 10.1621C4.33711 9.99803 4.17466 9.82757 4.01894 9.65105C3.84037 9.45105 3.70337 9.21752 3.61594 8.96406C3.48544 8.56239 3.48544 8.12972 3.61594 7.72805C3.71094 7.43805 3.86994 7.21706 4.01894 7.04206C4.15394 6.88206 4.32794 6.70905 4.50594 6.53005L4.52894 6.50805L6.50894 4.52806L6.53094 4.50505C6.70894 4.32705 6.88294 4.15306 7.04194 4.01806C7.21694 3.87006 7.43894 3.71005 7.72894 3.61605C8.13094 3.48605 8.56294 3.48605 8.96494 3.61605C9.25494 3.71005 9.47694 3.87006 9.65094 4.01806C9.81094 4.15306 9.98394 4.32705 10.1629 4.50505L10.1849 4.52806L17.2049 11.5481C17.3863 11.7295 17.491 11.9738 17.4973 12.2303C17.5036 12.4867 17.4111 12.7359 17.2389 12.9261C15.8735 14.4335 14.4344 15.8726 12.9269 17.2381C12.7367 17.4105 12.4874 17.5032 12.2306 17.4969C11.9739 17.4906 11.7295 17.3857 11.5479 17.2041L4.52794 10.1841L4.52894 10.1851Z" fill="#111111"/>
<path fill-rule="evenodd" clip-rule="evenodd" d="M9.04387 20.0808C8.85101 20.0519 8.67078 19.9674 8.52537 19.8374C8.37996 19.7075 8.27571 19.5379 8.22544 19.3495C8.17518 19.1611 8.1811 18.9621 8.24247 18.777C8.30384 18.5919 8.41799 18.4288 8.57086 18.3078C12.1807 15.4483 15.4481 12.1813 18.3079 8.57176C18.4289 8.4189 18.5919 8.30474 18.7769 8.24332C18.9619 8.18189 19.1608 8.17589 19.3492 8.22604C19.5376 8.27619 19.7072 8.38031 19.8372 8.52559C19.9672 8.67087 20.0519 8.85098 20.0809 9.04376C20.5449 12.1478 20.6069 15.2918 20.2629 18.3988C20.2106 18.8752 19.9975 19.3196 19.6586 19.6585C19.3197 19.9974 18.8753 20.2105 18.3989 20.2628C15.2858 20.6063 12.1413 20.5451 9.04387 20.0808Z" fill="#111111"/>
</svg>
