<svg width="24" height="24" viewBox="0 0 24 24" fill="none" xmlns="http://www.w3.org/2000/svg">
<path opacity="0.28" d="M8.35132 9H12C14.8002 9 16.2004 9 17.2699 9.54497C18.2107 10.0243 18.9756 10.7892 19.455 11.73C20 12.7996 20 14.1997 20 17L20 20" stroke="#111111" stroke-width="2" stroke-linecap="round" stroke-linejoin="round"/>
<path d="M9.84424 13.8307C9.91336 14.2332 9.73081 14.6373 9.3831 14.8515C9.03539 15.0656 8.59239 15.0468 8.26406 14.804C6.44203 13.4565 4.80519 11.8821 3.39411 10.1204C3.13266 9.79402 3 9.39747 3 9C3 8.60253 3.13266 8.20598 3.39411 7.87957C4.80519 6.11788 6.44203 4.54346 8.26406 3.19599C8.5924 2.95317 9.03539 2.93439 9.3831 3.14855C9.73081 3.36271 9.91336 3.76678 9.84424 4.16926C9.68243 5.11146 9.60615 5.55667 9.54783 6C9.41683 6.99571 9.35134 7.99786 9.35134 9C9.35134 10.0021 9.41683 11.0043 9.54783 12C9.60615 12.4433 9.68243 12.8886 9.84424 13.8307Z" fill="#111111"/>
</svg>
