<svg width="24" height="24" viewBox="0 0 24 24" fill="none" xmlns="http://www.w3.org/2000/svg">
<path opacity="0.28" fill-rule="evenodd" clip-rule="evenodd" d="M4.52894 13.8151L4.50594 13.8381C4.33711 14.0021 4.17466 14.1725 4.01894 14.3491C3.84037 14.5491 3.70337 14.7826 3.61594 15.0361C3.48544 15.4377 3.48544 15.8704 3.61594 16.2721C3.71094 16.5621 3.86994 16.7831 4.01894 16.9581C4.15394 17.1181 4.32794 17.2911 4.50594 17.4701L4.52894 17.4921L6.50894 19.4721L6.53094 19.4951C6.70894 19.6731 6.88294 19.8471 7.04194 19.9821C7.21694 20.1301 7.43894 20.2901 7.72894 20.3841C8.13094 20.5141 8.56294 20.5141 8.96494 20.3841C9.25494 20.2901 9.47694 20.1301 9.65094 19.9821C9.81094 19.8471 9.98394 19.6731 10.1629 19.4951L10.1849 19.4721L17.2049 12.4521C17.3863 12.2706 17.491 12.0263 17.4973 11.7699C17.5036 11.5134 17.4111 11.2643 17.2389 11.0741C15.8735 9.56662 14.4344 8.12754 12.9269 6.76206C12.7367 6.58958 12.4874 6.4969 12.2306 6.50323C11.9739 6.50956 11.7295 6.61442 11.5479 6.79606L4.52794 13.8161L4.52894 13.8151Z" fill="#111111"/>
<path fill-rule="evenodd" clip-rule="evenodd" d="M9.04387 3.91935C8.85101 3.94817 8.67078 4.03275 8.52537 4.16267C8.37996 4.29259 8.27571 4.4622 8.22544 4.65061C8.17518 4.83902 8.1811 5.03801 8.24247 5.2231C8.30384 5.40819 8.41799 5.5713 8.57086 5.69235C12.1807 8.55176 15.4481 11.8188 18.3079 15.4284C18.4289 15.5812 18.5919 15.6954 18.7769 15.7568C18.9619 15.8182 19.1608 15.8242 19.3492 15.7741C19.5376 15.7239 19.7072 15.6198 19.8372 15.4745C19.9672 15.3292 20.0519 15.1491 20.0809 14.9564C20.5449 11.8524 20.6069 8.70835 20.2629 5.60135C20.2106 5.12492 19.9975 4.68055 19.6586 4.34165C19.3197 4.00274 18.8753 3.78957 18.3989 3.73735C15.2858 3.39385 12.1413 3.45503 9.04387 3.91935Z" fill="#111111"/>
</svg>
