<svg width="24" height="24" viewBox="0 0 24 24" fill="none" xmlns="http://www.w3.org/2000/svg">
<path opacity="0.28" d="M14.6487 15L11 15C8.19974 15 6.79961 15 5.73005 14.455C4.78924 13.9757 4.02433 13.2108 3.54497 12.27C3 11.2004 3 9.80026 3 7V4" stroke="#111111" stroke-width="2" stroke-linecap="round" stroke-linejoin="round"/>
<path d="M13.1558 10.1693C13.0867 9.76678 13.2693 9.36271 13.617 9.14855C13.9647 8.93439 14.4077 8.95317 14.736 9.19599C16.558 10.5435 18.1949 12.1179 19.606 13.8796C19.8674 14.206 20.0001 14.6025 20.0001 15C20.0001 15.3975 19.8674 15.794 19.606 16.1204C18.1949 17.8821 16.558 19.4565 14.736 20.804C14.4077 21.0468 13.9647 21.0656 13.617 20.8515C13.2693 20.6373 13.0867 20.2332 13.1558 19.8307C13.3176 18.8885 13.3939 18.4433 13.4522 18C13.5832 17.0043 13.6487 16.0021 13.6487 15C13.6487 13.9979 13.5832 12.9957 13.4522 12C13.3939 11.5567 13.3176 11.1114 13.1558 10.1693Z" fill="#111111"/>
</svg>
