<svg width="24" height="24" viewBox="0 0 24 24" fill="none" xmlns="http://www.w3.org/2000/svg">
<path opacity="0.28" d="M9 15.6487V12C9 9.19974 9 7.79961 9.54497 6.73005C10.0243 5.78924 10.7892 5.02433 11.73 4.54497C12.7996 4 14.1997 4 17 4H20" stroke="#111111" stroke-width="2" stroke-linecap="round" stroke-linejoin="round"/>
<path d="M13.8307 14.1561C14.2332 14.087 14.6373 14.2695 14.8515 14.6172C15.0656 14.9649 15.0468 15.4079 14.804 15.7363C13.4565 17.5583 11.8821 19.1951 10.1204 20.6062C9.79402 20.8676 9.39747 21.0003 9 21.0003C8.60253 21.0003 8.20598 20.8676 7.87957 20.6062C6.11788 19.1951 4.54346 17.5583 3.19599 15.7363C2.95317 15.4079 2.93439 14.9649 3.14855 14.6172C3.36271 14.2695 3.76678 14.087 4.16926 14.1561C5.11146 14.3179 5.55667 14.3942 6 14.4525C6.99571 14.5835 7.99786 14.649 9 14.649C10.0021 14.649 11.0043 14.5835 12 14.4525C12.4433 14.3942 12.8886 14.3179 13.8307 14.1561Z" fill="#111111"/>
</svg>
