<svg width="24" height="24" viewBox="0 0 24 24" fill="none" xmlns="http://www.w3.org/2000/svg">
<path opacity="0.28" d="M14 15.6487V12C14 9.19974 14 7.79961 13.455 6.73005C12.9757 5.78924 12.2108 5.02433 11.27 4.54497C10.2004 4 8.80026 4 6 4H3" stroke="#111111" stroke-width="2" stroke-linecap="round" stroke-linejoin="round"/>
<path d="M9.16926 14.1561C8.76678 14.087 8.36271 14.2695 8.14855 14.6172C7.93439 14.9649 7.95317 15.4079 8.19599 15.7363C9.54347 17.5583 11.1179 19.1951 12.8796 20.6062C13.206 20.8676 13.6025 21.0003 14 21.0003C14.3975 21.0003 14.794 20.8676 15.1204 20.6062C16.8821 19.1951 18.4565 17.5583 19.804 15.7363C20.0468 15.4079 20.0656 14.9649 19.8515 14.6172C19.6373 14.2695 19.2332 14.087 18.8307 14.1561C17.8885 14.3179 17.4433 14.3942 17 14.4525C16.0043 14.5835 15.0021 14.649 14 14.649C12.9979 14.649 11.9957 14.5835 11 14.4525C10.5567 14.3942 10.1114 14.3179 9.16926 14.1561Z" fill="#111111"/>
</svg>
