<svg width="24" height="24" viewBox="0 0 24 24" fill="none" xmlns="http://www.w3.org/2000/svg">
<path opacity="0.28" d="M12 7.78174V12.9998L6 19.9998M18 19.9998L14.5714 15.9998" stroke="#111111" stroke-width="2" stroke-linecap="round" stroke-linejoin="round"/>
<path d="M12 3C11.6278 3 11.2615 3.12916 10.9648 3.37562C9.54244 4.55712 8.27227 5.9268 7.18583 7.45028C6.95977 7.76726 6.93825 8.18664 7.13066 8.5251C7.32307 8.86357 7.69443 9.05959 8.08244 9.02749L10.1038 8.86027C10.7348 8.80808 11.3674 8.78198 12 8.78198C12.6326 8.78198 13.2652 8.80808 13.8962 8.86027L15.9176 9.02749C16.3056 9.05959 16.6769 8.86357 16.8693 8.5251C17.0618 8.18664 17.0402 7.76726 16.8142 7.45028C15.7277 5.9268 14.4576 4.55712 13.0352 3.37562C12.7385 3.12916 12.3722 3 12 3Z" fill="#111111"/>
</svg>
