<svg width="24" height="24" viewBox="0 0 24 24" fill="none" xmlns="http://www.w3.org/2000/svg">
<path opacity="0.28" d="M15.2221 15.2221L21 21M8.7779 8.7779L3 3M8.7779 15.2221L3 21M15.2221 8.7779L21 3" stroke="#111111" stroke-width="2" stroke-linecap="round" stroke-linejoin="round"/>
<path d="M9.92319 8.54812C10.0678 6.98519 10.008 5.40093 9.74579 3.83488C9.68129 3.44974 9.3985 3.13737 9.02165 3.03501C8.6448 2.93264 8.24284 3.05901 7.99235 3.3586L7.19924 4.30719C6.32302 5.35517 5.35518 6.32302 4.30719 7.19924L3.3586 7.99235C3.05901 8.24283 2.93264 8.6448 3.03501 9.02165C3.13737 9.3985 3.44974 9.68129 3.83488 9.74578C5.40093 10.008 6.98519 10.0678 8.54812 9.92319C8.90832 9.88987 9.23754 9.73247 9.48501 9.485C9.73248 9.23754 9.88987 8.90832 9.92319 8.54812Z" fill="#111111"/>
<path d="M14.2542 3.83488C13.992 5.40093 13.9322 6.98519 14.0768 8.54812C14.1101 8.90832 14.2675 9.23754 14.515 9.485C14.7625 9.73247 15.0917 9.88987 15.4519 9.92319C17.0148 10.0678 18.5991 10.008 20.1651 9.74578C20.5503 9.68129 20.8626 9.3985 20.965 9.02165C21.0674 8.6448 20.941 8.24283 20.6414 7.99235L19.6928 7.19924C18.6448 6.32302 17.677 5.35517 16.8008 4.30719L16.0076 3.3586C15.7572 3.05901 15.3552 2.93264 14.9783 3.03501C14.6015 3.13737 14.3187 3.44974 14.2542 3.83488Z" fill="#111111"/>
<path d="M20.1651 14.2542C18.5991 13.992 17.0148 13.9322 15.4519 14.0768C15.0917 14.1101 14.7625 14.2675 14.515 14.515C14.2675 14.7625 14.1101 15.0917 14.0768 15.4519C13.9322 17.0148 13.992 18.5991 14.2542 20.1651C14.3187 20.5503 14.6015 20.8626 14.9783 20.965C15.3552 21.0674 15.7572 20.941 16.0077 20.6414L16.8008 19.6928C17.677 18.6448 18.6448 17.677 19.6928 16.8008L20.6414 16.0077C20.941 15.7572 21.0674 15.3552 20.965 14.9783C20.8626 14.6015 20.5503 14.3187 20.1651 14.2542Z" fill="#111111"/>
<path d="M9.74579 20.1651C10.008 18.5991 10.0678 17.0148 9.92319 15.4519C9.88987 15.0917 9.73248 14.7625 9.48501 14.515C9.23754 14.2675 8.90832 14.1101 8.54812 14.0768C6.98519 13.9322 5.40093 13.992 3.83488 14.2542C3.44974 14.3187 3.13737 14.6015 3.03501 14.9784C2.93264 15.3552 3.05901 15.7572 3.3586 16.0077L4.30719 16.8008C5.35518 17.677 6.32302 18.6448 7.19924 19.6928L7.99235 20.6414C8.24284 20.941 8.6448 21.0674 9.02165 20.965C9.3985 20.8626 9.68129 20.5503 9.74579 20.1651Z" fill="#111111"/>
</svg>
