<svg width="24" height="24" viewBox="0 0 24 24" fill="none" xmlns="http://www.w3.org/2000/svg">
<path opacity="0.28" d="M18.1804 5H11.0001C8.19985 5 6.79972 5 5.73016 5.54497C4.78935 6.02433 4.02444 6.78924 3.54508 7.73005C3.06922 8.66397 3.00887 9.84993 3.00122 12M5.81981 19H13.0001C15.8004 19 17.2005 19 18.2701 18.455C19.2109 17.9757 19.9758 17.2108 20.4551 16.27C20.931 15.336 20.9913 14.1501 20.999 12" stroke="#111111" stroke-width="2" stroke-linecap="round" stroke-linejoin="round"/>
<path d="M18.5878 1.19097C18.269 0.959373 17.8439 0.936566 17.5022 1.13272C17.1604 1.32888 16.9658 1.70743 17.005 2.09951L17.0662 2.71141C17.1423 3.47238 17.1803 4.23619 17.1803 5C17.1803 5.76381 17.1423 6.52762 17.0662 7.28859L17.005 7.9005C16.9658 8.29257 17.1604 8.67112 17.5022 8.86728C17.8439 9.06344 18.269 9.04063 18.5878 8.80903C19.7551 7.96096 20.8016 6.96614 21.6996 5.85045C21.8975 5.60466 22 5.30387 22 5C22 4.69614 21.8975 4.39535 21.6996 4.14956C20.8016 3.03386 19.7551 2.03904 18.5878 1.19097Z" fill="#111111"/>
<path d="M6.99504 16.0995C7.03424 15.7074 6.83956 15.3289 6.49782 15.1327C6.15609 14.9366 5.73102 14.9594 5.41224 15.191C4.2449 16.039 3.19842 17.0339 2.30036 18.1496C2.10251 18.3953 2 18.6961 2 19C2 19.3039 2.10251 19.6047 2.30036 19.8504C3.19842 20.9661 4.2449 21.961 5.41224 22.809C5.73102 23.0406 6.15609 23.0634 6.49782 22.8673C6.83956 22.6711 7.03425 22.2926 6.99504 21.9005L6.93385 21.2886C6.85775 20.5276 6.8197 19.7638 6.8197 19C6.8197 18.2362 6.85775 17.4724 6.93385 16.7114L6.99504 16.0995Z" fill="#111111"/>
</svg>
