<svg width="24" height="24" viewBox="0 0 24 24" fill="none" xmlns="http://www.w3.org/2000/svg">
<path opacity="0.28" d="M16 17.3437V6.99973M8 6.65576V16.9997" stroke="#111111" stroke-width="2" stroke-linecap="round" stroke-linejoin="round"/>
<path d="M3.19599 6.29233C2.96353 6.60665 2.93556 7.0276 3.12437 7.36992C3.31319 7.71223 3.68417 7.91313 4.07403 7.88419L6.29732 7.71915C6.8641 7.67707 7.43205 7.65604 8 7.65604C8.56796 7.65604 9.13591 7.67707 9.70269 7.71915L11.926 7.88419C12.3158 7.91313 12.6868 7.71223 12.8756 7.36992C13.0644 7.0276 13.0365 6.60665 12.804 6.29233C11.7158 4.82086 10.4443 3.49888 9.02138 2.35919C8.72403 2.12102 8.36247 2 8 2C7.63753 2 7.27597 2.12102 6.97863 2.35919C5.55575 3.49888 4.28421 4.82086 3.19599 6.29233Z" fill="#111111"/>
<path d="M12.074 16.1158C11.6842 16.0869 11.3132 16.2878 11.1244 16.6301C10.9356 16.9724 10.9635 17.3934 11.196 17.7077C12.2842 19.1791 13.5558 20.5011 14.9786 21.6408C15.276 21.879 15.6375 22 16 22C16.3625 22 16.724 21.879 17.0214 21.6408C18.4443 20.5011 19.7158 19.1791 20.804 17.7077C21.0365 17.3934 21.0644 16.9724 20.8756 16.6301C20.6868 16.2878 20.3158 16.0869 19.926 16.1158L17.7027 16.2809C17.1359 16.3229 16.568 16.344 16 16.344C15.4321 16.344 14.8641 16.3229 14.2973 16.2809L12.074 16.1158Z" fill="#111111"/>
</svg>
