<svg width="24" height="24" viewBox="0 0 24 24" fill="none" xmlns="http://www.w3.org/2000/svg">
<path opacity="0.28" d="M17.344 10H6M6.65604 14H18" stroke="#111111" stroke-width="2" stroke-linecap="round" stroke-linejoin="round"/>
<path d="M16.6301 5.12437C16.9724 4.93556 17.3934 4.96353 17.7077 5.19599C19.1792 6.28421 20.5011 7.55575 21.6408 8.97863C21.879 9.27598 22 9.63753 22 10C22 10.5523 21.5523 11 21 11H17.344C16.7917 11 16.344 10.5523 16.344 10C16.344 9.43205 16.3229 8.8641 16.2809 8.29732L16.1158 6.07403C16.0869 5.68417 16.2878 5.31319 16.6301 5.12437Z" fill="#111111"/>
<path d="M7.36992 18.8756C7.0276 19.0644 6.60665 19.0365 6.29233 18.804C4.82086 17.7158 3.49888 16.4443 2.35919 15.0214C2.12101 14.724 2 14.3625 2 14C2 13.4477 2.44772 13 3 13H6.65604C7.20832 13 7.65604 13.4477 7.65604 14C7.65604 14.568 7.67707 15.1359 7.71915 15.7027L7.88419 17.926C7.91313 18.3158 7.71223 18.6868 7.36992 18.8756Z" fill="#111111"/>
</svg>
