<svg width="24" height="24" viewBox="0 0 24 24" fill="none" xmlns="http://www.w3.org/2000/svg">
<path opacity="0.28" d="M16 4V15C16 17.7614 13.7614 20 11 20C8.23858 20 6 17.7614 6 15V12" stroke="#111111" stroke-width="2" stroke-linecap="round" stroke-linejoin="round"/>
<path d="M20.0097 9.02819C20.3981 9.05681 20.7678 8.85731 20.9571 8.51693C21.1464 8.17654 21.1209 7.75722 20.8916 7.44234C19.7826 5.91889 18.4864 4.5498 17.0355 3.36919C16.7359 3.12546 16.3694 3 15.9998 3C15.6303 3 15.2638 3.12546 14.9642 3.36919C13.5133 4.5498 12.2171 5.91889 11.108 7.44234C10.8788 7.75722 10.8533 8.17654 11.0426 8.51692C11.2319 8.85731 11.6016 9.05681 11.99 9.02819L14.3096 8.85726C14.8722 8.8158 15.436 8.79507 15.9998 8.79507C16.5636 8.79507 17.1274 8.8158 17.6901 8.85726L20.0097 9.02819Z" fill="#111111"/>
</svg>
