<svg width="24" height="24" viewBox="0 0 24 24" fill="none" xmlns="http://www.w3.org/2000/svg">
<path opacity="0.28" d="M20 8H9C6.23858 8 4 10.2386 4 13C4 15.7614 6.23858 18 9 18H12" stroke="#111111" stroke-width="2" stroke-linecap="round" stroke-linejoin="round"/>
<path d="M14.9717 3.99048C14.9431 3.60206 15.1426 3.23235 15.483 3.04305C15.8234 2.85375 16.2427 2.87931 16.5576 3.10854C18.081 4.21759 19.4501 5.51379 20.6307 6.96471C20.8744 7.26425 20.9999 7.63079 20.9999 8.00033C20.9999 8.36987 20.8744 8.73641 20.6307 9.03595C19.4501 10.4869 18.081 11.7831 16.5576 12.8921C16.2427 13.1214 15.8234 13.1469 15.483 12.9576C15.1426 12.7683 14.9431 12.3986 14.9717 12.0102L15.1426 9.69058C15.1841 9.12793 15.2048 8.56413 15.2048 8.00033C15.2048 7.43653 15.1841 6.87273 15.1426 6.31008L14.9717 3.99048Z" fill="#111111"/>
</svg>
