<svg width="24" height="24" viewBox="0 0 24 24" fill="none" xmlns="http://www.w3.org/2000/svg">
<path opacity="0.28" d="M4 7.8C4 6.12 4 5.28 4.327 4.638C4.61462 4.07354 5.07354 3.61462 5.638 3.327C6.28 3 7.12 3 8.8 3H15.2C16.88 3 17.72 3 18.362 3.327C18.9265 3.61462 19.3854 4.07354 19.673 4.638C20 5.28 20 6.12 20 7.8V16.2C20 17.88 20 18.72 19.673 19.362C19.3854 19.9265 18.9265 20.3854 18.362 20.673C17.72 21 16.88 21 15.2 21H8.8C7.12 21 6.28 21 5.638 20.673C5.07354 20.3854 4.61462 19.9265 4.327 19.362C4 18.72 4 17.88 4 16.2V7.8Z" fill="#111111"/>
<path d="M17 3H7C5.34315 3 4 4.34315 4 6V18C4 19.6569 5.34315 21 7 21H17C18.6569 21 20 19.6569 20 18V6C20 4.34315 18.6569 3 17 3Z" stroke="#111111" stroke-width="2" stroke-linecap="round" stroke-linejoin="round"/>
<path d="M7 6H13M7 10H10M15.667 16H12.333C11.597 16 11 16.597 11 17.333C11 17.702 11.299 18 11.667 18H16.333C16.4206 18 16.5073 17.9827 16.5882 17.9492C16.6692 17.9157 16.7427 17.8666 16.8046 17.8046C16.8666 17.7427 16.9157 17.6692 16.9492 17.5882C16.9827 17.5073 17 17.4206 17 17.333C17 16.597 16.403 16 15.667 16ZM15 12C15 12.2652 14.8946 12.5196 14.7071 12.7071C14.5196 12.8946 14.2652 13 14 13C13.7348 13 13.4804 12.8946 13.2929 12.7071C13.1054 12.5196 13 12.2652 13 12C13 11.7348 13.1054 11.4804 13.2929 11.2929C13.4804 11.1054 13.7348 11 14 11C14.2652 11 14.5196 11.1054 14.7071 11.2929C14.8946 11.4804 15 11.7348 15 12Z" stroke="#111111" stroke-width="2" stroke-linecap="round" stroke-linejoin="round"/>
</svg>
