<svg width="24" height="24" viewBox="0 0 24 24" fill="none" xmlns="http://www.w3.org/2000/svg">
<path opacity="0.28" fill-rule="evenodd" clip-rule="evenodd" d="M6 7C6.53043 7 7.03914 6.78929 7.41421 6.41421C7.78929 6.03914 8 5.53043 8 5C8 4.46957 7.78929 3.96086 7.41421 3.58579C7.03914 3.21071 6.53043 3 6 3C5.46957 3 4.96086 3.21071 4.58579 3.58579C4.21071 3.96086 4 4.46957 4 5C4 5.53043 4.21071 6.03914 4.58579 6.41421C4.96086 6.78929 5.46957 7 6 7ZM5.26 10C4.50755 9.99989 3.78254 10.2825 3.22872 10.7919C2.67489 11.3013 2.3327 12.0002 2.27 12.75L2 16H4L4.294 20.403C4.31981 20.8382 4.5109 21.2472 4.82819 21.5462C5.14548 21.8452 5.56501 22.0118 6.001 22.0118C6.43699 22.0118 6.85652 21.8452 7.17381 21.5462C7.4911 21.2472 7.68219 20.8382 7.708 20.403L8 16L10 16.047L9.728 12.753C9.66601 12.0026 9.32413 11.303 8.77023 10.793C8.21634 10.283 7.49092 9.99995 6.738 10H5.26ZM19.996 5C19.996 5.53043 19.7853 6.03914 19.4102 6.41421C19.0351 6.78929 18.5264 7 17.996 7C17.4656 7 16.9569 6.78929 16.5818 6.41421C16.2067 6.03914 15.996 5.53043 15.996 5C15.996 4.46957 16.2067 3.96086 16.5818 3.58579C16.9569 3.21071 17.4656 3 17.996 3C18.5264 3 19.0351 3.21071 19.4102 3.58579C19.7853 3.96086 19.996 4.46957 19.996 5ZM18.004 10C16.614 10 15.424 10.997 15.181 12.365L14 19H16L16.494 20.841C16.5831 21.1739 16.7797 21.4679 17.0532 21.6775C17.3267 21.8871 17.6618 22.0004 18.0064 21.9998C18.351 21.9992 18.6857 21.8848 18.9585 21.6743C19.2314 21.4639 19.427 21.1691 19.515 20.836L20 19H22L20.828 12.368C20.7107 11.7043 20.3633 11.1032 19.8469 10.6701C19.3305 10.2371 18.678 9.99982 18.004 10Z" fill="#111111"/>
<path d="M8 5C8 6.10457 7.10457 7 6 7C4.89543 7 4 6.10457 4 5C4 3.89543 4.89543 3 6 3C7.10457 3 8 3.89543 8 5Z" stroke="#111111" stroke-width="2" stroke-linecap="round" stroke-linejoin="round"/>
<path d="M2.27077 12.7509C2.40034 11.196 3.70014 10 5.2604 10H6.73781C8.29882 10 9.59898 11.1971 9.72761 12.7528L10 16.0471L8 15.9999L7.7082 20.4024C7.64862 21.3013 6.90211 22 6.00122 22C5.10069 22 4.35435 21.3019 4.29429 20.4033L4 16L2 16.0001L2.27077 12.7509Z" stroke="#111111" stroke-width="2" stroke-linecap="round" stroke-linejoin="round"/>
<path d="M20 5C20 6.10457 19.1046 7 18 7C16.8954 7 16 6.10457 16 5C16 3.89543 16.8954 3 18 3C19.1046 3 20 3.89543 20 5Z" stroke="#111111" stroke-width="2" stroke-linecap="round" stroke-linejoin="round"/>
<path d="M15.1813 12.3648C15.4249 10.9966 16.6145 10 18.0043 10C19.3953 10 20.5857 10.9985 20.8278 12.3683L22 19H20L19.5151 20.8358C19.3338 21.5219 18.7131 21.9999 18.0033 21.9998C17.2959 21.9997 16.6767 21.5246 16.4935 20.8412L16 19L14 18.9999L15.1813 12.3648Z" stroke="#111111" stroke-width="2" stroke-linecap="round" stroke-linejoin="round"/>
</svg>
