<svg width="24" height="24" viewBox="0 0 24 24" fill="none" xmlns="http://www.w3.org/2000/svg">
<path opacity="0.28" fill-rule="evenodd" clip-rule="evenodd" d="M12 7.03418C12.663 7.03418 13.2989 6.77079 13.7678 6.30195C14.2366 5.83311 14.5 5.19722 14.5 4.53418C14.5 3.87114 14.2366 3.23525 13.7678 2.76641C13.2989 2.29757 12.663 2.03418 12 2.03418C11.337 2.03418 10.7011 2.29757 10.2322 2.76641C9.76339 3.23525 9.5 3.87114 9.5 4.53418C9.5 5.19722 9.76339 5.83311 10.2322 6.30195C10.7011 6.77079 11.337 7.03418 12 7.03418ZM11.998 10.0002C11.1478 10.0002 10.323 10.2901 9.65975 10.822C8.99652 11.354 8.53451 12.0962 8.35 12.9262L7 19.0002H9.115L9.871 20.6382C10.0588 21.0448 10.359 21.3892 10.7363 21.6305C11.1136 21.8719 11.5521 22.0001 12 22.0001C12.4479 22.0001 12.8864 21.8719 13.2637 21.6305C13.641 21.3892 13.9412 21.0448 14.129 20.6382L14.885 19.0002H16.985L15.647 12.9322C15.4636 12.1008 15.0018 11.3569 14.3381 10.8238C13.6743 10.2906 12.8484 10 11.997 10.0002H11.998Z" fill="#111111"/>
<path d="M14.5 4.53467C14.5 5.91538 13.3807 7.03467 12 7.03467C10.6193 7.03467 9.5 5.91538 9.5 4.53467C9.5 3.15396 10.6193 2.03467 12 2.03467C13.3807 2.03467 14.5 3.15396 14.5 4.53467Z" stroke="#111111" stroke-width="2" stroke-linecap="round" stroke-linejoin="round"/>
<path d="M8.34971 12.9263C8.72967 11.2165 10.2462 10 11.9976 10C13.7513 10 15.269 11.2194 15.6468 12.9318L16.9856 19H14.8852L14.1289 20.638C13.7455 21.4683 12.9144 21.9999 11.9999 21.9998C11.0855 21.9997 10.2546 21.4681 9.87133 20.6379L9.11517 19L7 18.9999L8.34971 12.9263Z" stroke="#111111" stroke-width="2" stroke-linecap="round" stroke-linejoin="round"/>
</svg>
