<svg width="24" height="24" viewBox="0 0 24 24" fill="none" xmlns="http://www.w3.org/2000/svg">
<g opacity="0.28">
<path d="M12 13C13.6569 13 15 11.6569 15 10C15 8.34315 13.6569 7 12 7C10.3431 7 9 8.34315 9 10C9 11.6569 10.3431 13 12 13Z" fill="#111111"/>
<path d="M8.49998 16H15.5C17.3672 16 18.8929 17.3926 18.9946 19.1467C17.1913 20.9119 14.7227 22 12 22C9.27724 22 6.80865 20.9119 5.00537 19.1467C5.10701 17.3926 6.63274 16 8.49998 16Z" fill="#111111"/>
</g>
<path d="M12 2H12.01" stroke="#111111" stroke-width="2" stroke-linecap="round"/>
<path d="M15.8257 2.76123H15.8357" stroke="#111111" stroke-width="2" stroke-linecap="round"/>
<path d="M8.17041 2.76123H8.18041" stroke="#111111" stroke-width="2" stroke-linecap="round"/>
<path d="M19.0645 4.92383H19.0745" stroke="#111111" stroke-width="2" stroke-linecap="round"/>
<path d="M4.92871 4.92383H4.93871" stroke="#111111" stroke-width="2" stroke-linecap="round"/>
<path d="M21.2256 8.1543H21.2356" stroke="#111111" stroke-width="2" stroke-linecap="round"/>
<path d="M2.75684 8.1543H2.76684" stroke="#111111" stroke-width="2" stroke-linecap="round"/>
<path d="M22 12H22.01" stroke="#111111" stroke-width="2" stroke-linecap="round"/>
<path d="M2 12H2.01" stroke="#111111" stroke-width="2" stroke-linecap="round"/>
<path d="M21.2197 15.8721H21.2297" stroke="#111111" stroke-width="2" stroke-linecap="round"/>
<path d="M2.7666 15.8721H2.7766" stroke="#111111" stroke-width="2" stroke-linecap="round"/>
<path d="M15 10C15 11.6569 13.6569 13 12 13C10.3431 13 9 11.6569 9 10C9 8.34315 10.3431 7 12 7C13.6569 7 15 8.34315 15 10Z" stroke="#111111" stroke-width="2" stroke-linecap="round" stroke-linejoin="round"/>
<path d="M15.5 16H8.49998C6.63274 16 5.10701 17.3926 5.00537 19.1467C6.80865 20.9119 9.27724 22 12 22C14.7227 22 17.1913 20.9119 18.9946 19.1467C18.8929 17.3926 17.3672 16 15.5 16Z" stroke="#111111" stroke-width="2" stroke-linecap="round" stroke-linejoin="round"/>
</svg>
