<svg width="24" height="24" viewBox="0 0 24 24" fill="none" xmlns="http://www.w3.org/2000/svg">
<g opacity="0.28">
<path d="M16 15H8C5.79086 15 4 16.7909 4 19C4 20.1046 4.89543 21 6 21H18C19.1046 21 20 20.1046 20 19C20 16.7909 18.2091 15 16 15Z" fill="#111111"/>
<path d="M8 7C8 5.89543 8.89543 5 10 5H14C15.1046 5 16 5.89543 16 7V9C16 10.1046 15.1046 11 14 11H10C8.89543 11 8 10.1046 8 9V7Z" fill="#111111"/>
<path d="M16 15H8C5.79086 15 4 16.7909 4 19C4 20.1046 4.89543 21 6 21H18C19.1046 21 20 20.1046 20 19C20 16.7909 18.2091 15 16 15Z" fill="#111111"/>
</g>
<path d="M12 5H10C8.89543 5 8 5.89543 8 7V9C8 10.1046 8.89543 11 10 11H14C15.1046 11 16 10.1046 16 9V7C16 5.89543 15.1046 5 14 5H12ZM12 5V3M8 15C5.79086 15 4 16.7909 4 19C4 20.1046 4.89543 21 6 21H18C19.1046 21 20 20.1046 20 19C20 16.7909 18.2091 15 16 15H8Z" stroke="#111111" stroke-width="2" stroke-linecap="round" stroke-linejoin="round"/>
</svg>
