<svg width="24" height="24" viewBox="0 0 24 24" fill="none" xmlns="http://www.w3.org/2000/svg">
<path fill-rule="evenodd" clip-rule="evenodd" d="M13.5264 1.66602C17.6182 1.66621 20.9355 4.98337 20.9355 9.0752C20.9355 11.8414 19.4188 14.2503 17.1768 15.5215L16.957 15.6406C16.6091 15.8226 16.3663 15.9501 16.1963 16.0449C16.1488 16.0714 16.1121 16.094 16.083 16.1113C16.0771 16.1564 16.0692 16.216 16.0615 16.293L15.9785 17.3086C15.7741 19.982 13.5466 22.4002 10.5684 22.4004C7.56554 22.4004 5.13086 19.9657 5.13086 16.9629C5.13088 16.7426 5.14426 16.5247 5.16992 16.3105L5.29004 15.4297C5.42604 14.5191 5.60243 13.5351 5.75195 12.6006C5.95686 11.32 6.11718 10.1021 6.11719 9.0752C6.11719 4.98325 9.43442 1.66602 13.5264 1.66602ZM13.5557 5.08301C11.3602 5.08309 9.58008 6.86309 9.58008 9.05859C9.58007 9.81165 9.53727 10.5154 9.41016 11.3574C9.33418 11.8607 9.64806 12.3408 10.1396 12.4727C11.1738 12.7498 11.371 13.3916 11.3311 13.7285C11.3085 13.9182 11.2163 14.0782 11.0664 14.1865C10.9382 14.2791 10.7092 14.3749 10.334 14.3535L10.165 14.3369L10.0625 14.3281C9.55603 14.3107 9.10818 14.6794 9.03809 15.1924C8.96818 15.7052 9.30051 16.1807 9.79297 16.2998L9.89355 16.3184L10.2266 16.3506C10.9929 16.3925 11.6862 16.2066 12.2373 15.8086C12.8636 15.3563 13.231 14.6817 13.3164 13.9658C13.4634 12.7317 12.79 11.5131 11.4883 10.8584C11.5539 10.2338 11.5801 9.656 11.5801 9.05859C11.5801 7.96767 12.4648 7.08309 13.5557 7.08301C14.6466 7.08301 15.5312 7.96762 15.5312 9.05859C15.5314 9.61079 15.979 10.0586 16.5312 10.0586C17.0834 10.0586 17.5311 9.61077 17.5312 9.05859C17.5312 6.86305 15.7512 5.08301 13.5557 5.08301Z" fill="#111111"/>
</svg>
