<svg
  xmlns="http://www.w3.org/2000/svg"
  width="24"
  height="24"
  viewBox="0 0 24 24"
  fill="none"
  stroke="currentColor"
  stroke-width="2"
  stroke-linecap="round"
  stroke-linejoin="round"
>
  <path d="M5.23632 7.21659L7.21622 5.23669C7.61224 4.84067 7.81025 4.64266 8.03858 4.56847C8.23942 4.50322 8.45576 4.50322 8.65661 4.56848C8.88494 4.64266 9.08295 4.84067 9.47896 5.23669L16.4958 12.2535C17.3936 11.2624 18.259 10.2412 19.0906 9.19146C19.5425 12.21 19.6019 15.2676 19.2681 18.2879C19.2395 18.547 19.1239 18.7778 18.9507 18.951C18.7775 19.1243 18.5466 19.2399 18.2875 19.2685C15.2672 19.6023 12.2096 19.5429 9.19109 19.091C10.2408 18.2594 11.262 17.394 12.2532 16.4962L5.23632 9.47933C4.84031 9.08331 4.6423 8.8853 4.56811 8.65698C4.50285 8.45613 4.50285 8.23978 4.56811 8.03894C4.6423 7.81061 4.84031 7.6126 5.23632 7.21659Z" stroke="currentColor" stroke-width="2"/ fill="none">
</svg>