<svg
  xmlns="http://www.w3.org/2000/svg"
  width="24"
  height="24"
  viewBox="0 0 24 24"
  fill="none"
  stroke="currentColor"
  stroke-width="2"
  stroke-linecap="round"
  stroke-linejoin="round"
>
  <path d="M12 21C16.9706 21 21 16.9706 21 12C21 7.02944 16.9706 3 12 3C7.02944 3 3 7.02944 3 12C3 12.4317 3.03039 12.8563 3.08915 13.2717C3.2594 14.4754 3.34452 15.0773 3.35674 15.2357C3.37659 15.4931 3.37339 15.4008 3.37139 15.6589C3.37015 15.8179 3.35723 15.9988 3.33138 16.3607L3.17757 18.514C3.11632 19.3715 3.0857 19.8002 3.2377 20.1208C3.37113 20.4022 3.59778 20.6289 3.87922 20.7623C4.19982 20.9143 4.62856 20.8837 5.48597 20.8224L7.6393 20.6686C8.00069 20.6428 8.18225 20.6298 8.34105 20.6286C8.59919 20.6266 8.5069 20.6234 8.76429 20.6433C8.92265 20.6555 9.52401 20.7405 10.7265 20.9106L10.7283 20.9108C11.1437 20.9696 11.5683 21 12 21Z" fill="currentColor" opacity="0.28"/>
  <path d="M9.5 14.5L12 12M12 12L14.5 9.5M12 12L9.5 9.5M12 12L14.5 14.5M21 12C21 16.9706 16.9706 21 12 21C11.5683 21 11.1437 20.9696 10.7283 20.9108C9.52459 20.7406 8.92273 20.6555 8.76429 20.6433C8.5069 20.6234 8.59919 20.6266 8.34105 20.6286C8.18217 20.6298 8.00106 20.6428 7.6393 20.6686L5.48597 20.8224C4.62856 20.8837 4.19982 20.9143 3.87922 20.7623C3.59778 20.6289 3.37113 20.4022 3.2377 20.1208C3.0857 19.8002 3.11632 19.3715 3.17757 18.514L3.33138 16.3607C3.35723 15.9988 3.37015 15.8179 3.37139 15.6589C3.37339 15.4008 3.37659 15.4931 3.35674 15.2357C3.34452 15.0773 3.2594 14.4754 3.08915 13.2717C3.03039 12.8563 3 12.4317 3 12C3 7.02944 7.02944 3 12 3C16.9706 3 21 7.02944 21 12Z" stroke="currentColor" stroke-width="2"/>
</svg>