<svg
  xmlns="http://www.w3.org/2000/svg"
  width="24"
  height="24"
  viewBox="0 0 24 24"
  fill="none"
  stroke="currentColor"
  stroke-width="2"
  stroke-linecap="round"
  stroke-linejoin="round"
>
  <path d="M10 4H14C16.8003 4 18.2004 4 19.27 4.54497C20.2108 5.02433 20.9757 5.78924 21.455 6.73005C22 7.79961 22 9.19974 22 12C22 12.1339 22 12.2646 21.9999 12.3922H21.4809C21.0439 12.1436 20.5385 12.0017 19.9999 12.0017C18.343 12.0017 16.9999 13.3449 16.9999 15.0017V15.622C16.5177 15.6912 16.0456 15.879 15.6284 16.1918C14.5341 17.0126 14.1602 18.4375 14.6225 19.6554V19.9998C14.423 20 14.2156 20 14 20H10C7.19974 20 5.79961 20 4.73005 19.455C3.78924 18.9757 3.02433 18.2108 2.54497 17.27C2 16.2004 2 14.8003 2 12C2 9.19974 2 7.79961 2.54497 6.73005C3.02433 5.78924 3.78924 5.02433 4.73005 4.54497C5.79961 4 7.19974 4 10 4Z" fill="currentColor" opacity="0.28"/>
  <path d="M17.4284 18.5918C18.0629 19.4378 18.799 20.2018 19.6197 20.8668C19.7306 20.9567 19.8653 21.0017 19.9999 21.0017M22.5713 18.5918C21.9368 19.4378 21.2007 20.2018 20.3801 20.8668C20.2691 20.9567 20.1345 21.0017 19.9999 21.0017M19.9999 21.0017V15.0017M13.6864 20H10C7.19974 20 5.79961 20 4.73005 19.455C3.78924 18.9757 3.02433 18.2108 2.54497 17.27C2 16.2004 2 14.8003 2 12C2 10.006 2 8.72189 2.19678 7.76159M21.8032 7.76159L16.295 11.2668C14.7385 12.2573 13.9602 12.7526 13.1238 12.9455C12.3843 13.1161 11.6157 13.1161 10.8762 12.9455C10.0398 12.7526 9.26153 12.2573 7.70499 11.2668L2.19678 7.76159M21.8032 7.76159C21.7237 7.37332 21.6119 7.03798 21.455 6.73005C20.9757 5.78924 20.2108 5.02433 19.27 4.54497C18.2004 4 16.8003 4 14 4H10C7.19974 4 5.79961 4 4.73005 4.54497C3.78924 5.02433 3.02433 5.78924 2.54497 6.73005C2.38807 7.03798 2.27634 7.37332 2.19678 7.76159M21.8032 7.76159C21.9843 8.64511 21.9987 9.80271 21.9999 11.5352" stroke="currentColor" stroke-width="2"/>
</svg>