<svg width="24" height="24" viewBox="0 0 24 24" fill="none" xmlns="http://www.w3.org/2000/svg">
<path opacity="0.28" d="M14.18 2.22435C12.8544 1.36272 11.1456 1.36272 9.82005 2.22435L2.82005 6.77435C2.23435 7.15505 1.76843 7.67546 1.45478 8.27571C1.16052 8.83886 1 9.47283 1 10.1281V13.872C1 14.5273 1.16052 15.1613 1.45478 15.7244C1.76843 16.3247 2.23435 16.8451 2.82005 17.2258L9.82005 21.7758C11.1456 22.6374 12.8544 22.6374 14.18 21.7758L21.18 17.2258C21.7657 16.8451 22.2316 16.3247 22.5452 15.7244C22.8395 15.1613 23 14.5273 23 13.872V10.1281C23 9.47283 22.8395 8.83886 22.5452 8.27571C22.2316 7.67545 21.7656 7.15505 21.18 6.77435L14.18 2.22435Z" fill="#111111"/>
<path fill-rule="evenodd" clip-rule="evenodd" d="M2.1209 7.35112L7.00901 10.78L9.70605 8.88505C10.1063 8.60488 10.545 8.40613 10.9999 8.28879V1.70499C11.6555 1.53584 12.3443 1.53584 12.9999 1.70499V8.28879C13.4548 8.40613 13.8935 8.60488 14.2938 8.88505L16.9967 10.7796L21.8837 7.35611C22.1478 7.63087 22.3702 7.94087 22.5451 8.27571C22.683 8.5395 22.7914 8.81883 22.8678 9.10861L18.7391 12.0009L22.8671 14.8944C22.7907 15.1832 22.6825 15.4615 22.5451 15.7244C22.3697 16.0601 22.1467 16.3708 21.8817 16.6461L16.9963 13.2218L14.294 15.1148C13.8938 15.3949 13.4548 15.5939 12.9999 15.7112V22.2951C12.3443 22.4643 11.6555 22.4643 10.9999 22.2951V15.7112C10.545 15.5939 10.1063 15.3951 9.70606 15.115L7.00995 13.2237L2.12655 16.6549C1.85787 16.3774 1.63196 16.0637 1.45468 15.7244C1.31923 15.4652 1.21212 15.191 1.13596 14.9066L5.2691 12.0025L1.13379 9.10169C1.21008 8.81438 1.31794 8.5374 1.45468 8.27571C1.63071 7.93884 1.85469 7.62711 2.1209 7.35112ZM10.853 13.4765L8.74986 12.0012L10.853 10.5235C11.5415 10.0419 12.4582 10.0416 13.1466 10.5234L15.2539 12.0004L13.1468 13.4765C12.4583 13.9585 11.5416 13.9584 10.853 13.4765Z" fill="#111111"/>
</svg>
