<svg width="24" height="24" viewBox="0 0 24 24" fill="none" xmlns="http://www.w3.org/2000/svg">
<path opacity="0.28" d="M7.29998 2.60303C6.79617 1.12905 4.72488 1.1336 4.22693 2.60905L1.83495 9.69675C0.994621 12.1867 1.76836 14.9514 3.78688 16.6188L10.0562 21.7978C11.1872 22.7321 12.8109 22.7343 13.9444 21.8029L20.2006 16.6621C22.226 14.9978 23.0059 12.2306 22.1672 9.73648L19.7723 2.61399C19.2758 1.13717 17.2028 1.13131 16.6987 2.60625L14.9361 7.76314C14.9259 7.79303 14.9058 7.79734 14.9003 7.79734H9.09956C9.09404 7.79734 9.07394 7.79303 9.06372 7.76314L7.29998 2.60303Z" fill="#111111"/>
<path d="M20.7964 8.79734L18.8244 2.9327C18.6324 2.36156 17.8398 2.35953 17.6449 2.92967L15.8823 8.08656C15.7369 8.51213 15.3428 8.79734 14.9002 8.79734H9.09951C8.65695 8.79734 8.26289 8.51214 8.11742 8.08657L6.35368 2.92646C6.15892 2.35666 5.36694 2.35825 5.17438 2.92882L3.19385 8.79734" stroke="#111111" stroke-width="2" stroke-linecap="round" stroke-linejoin="round"/>
</svg>
