<svg width="24" height="24" viewBox="0 0 24 24" fill="none" xmlns="http://www.w3.org/2000/svg">
<path opacity="0.28" d="M3.96193 3.26034C4.52629 2.46954 5.43784 2 6.40941 2H17.5906C18.5622 2 19.4737 2.46954 20.0381 3.26034L22.9403 7.32698C23.2993 7.83002 23.4846 8.4146 23.4991 8.99994C23.517 9.72321 23.2741 10.451 22.7765 11.032L14.2837 20.9489C13.684 21.6492 12.8394 22 12 22C11.1606 22 10.316 21.6492 9.71626 20.9489L1.22346 11.032C0.72591 10.451 0.483008 9.72321 0.500923 8.99994C0.515422 8.4146 0.700707 7.83002 1.05971 7.32698L3.96193 3.26034Z" fill="#111111"/>
<path d="M6.48009 9.0247L10.622 18.4429L11.9999 21L13.3778 18.4429L17.5196 9.0247M6.48009 9.0247H17.5196M6.48009 9.0247H1.50049M6.48009 9.0247L11.9999 3L17.5196 9.0247M17.5196 9.0247H22.4993" stroke="#111111" stroke-width="2" stroke-linecap="round" stroke-linejoin="round"/>
</svg>
