<svg width="24" height="24" viewBox="0 0 24 24" fill="none" xmlns="http://www.w3.org/2000/svg">
<path opacity="0.28" fill-rule="evenodd" clip-rule="evenodd" d="M22 8.8V8.759C22 7.954 22 7.289 21.956 6.749C21.91 6.186 21.811 5.669 21.564 5.184C21.1805 4.43139 20.5686 3.81949 19.816 3.436C19.331 3.189 18.814 3.09 18.252 3.044C17.71 3 17.046 3 16.242 3H7.758C6.953 3 6.288 3 5.748 3.044C5.185 3.09 4.668 3.189 4.183 3.436C3.43039 3.81949 2.81849 4.43139 2.435 5.184C2.188 5.669 2.089 6.186 2.043 6.748C2 7.29 2 7.954 2 8.758V15.242C2 16.047 2 16.712 2.044 17.252C2.09 17.815 2.189 18.332 2.436 18.817C2.81949 19.5696 3.43139 20.1815 4.184 20.565C4.669 20.812 5.186 20.911 5.748 20.957C6.29 21 6.954 21 7.758 21H16.241C17.046 21 17.711 21 18.251 20.956C18.814 20.91 19.331 20.811 19.816 20.564C20.5686 20.1805 21.1805 19.5686 21.564 18.816C21.811 18.331 21.91 17.814 21.956 17.252C22 16.711 22 16.046 22 15.242V8.8Z" fill="#111111"/>
<path d="M13 10H18M15 14H18M9.667 14H7.333C6.597 14 6 14.597 6 15.333C6 15.701 6.298 16 6.667 16H10.333C10.5099 16 10.6796 15.9297 10.8046 15.8046C10.9297 15.6796 11 15.5099 11 15.333C11 14.597 10.403 14 9.667 14ZM9.5 10C9.5 10.2652 9.39464 10.5196 9.20711 10.7071C9.01957 10.8946 8.76522 11 8.5 11C8.23478 11 7.98043 10.8946 7.79289 10.7071C7.60536 10.5196 7.5 10.2652 7.5 10C7.5 9.73478 7.60536 9.48043 7.79289 9.29289C7.98043 9.10536 8.23478 9 8.5 9C8.76522 9 9.01957 9.10536 9.20711 9.29289C9.39464 9.48043 9.5 9.73478 9.5 10Z" stroke="#111111" stroke-width="2" stroke-linecap="round" stroke-linejoin="round"/>
</svg>
