<svg
  xmlns="http://www.w3.org/2000/svg"
  width="24"
  height="24"
  viewBox="0 0 24 24"
  fill="none"
  stroke="currentColor"
  stroke-width="2"
  stroke-linecap="round"
  stroke-linejoin="round"
>
  <path d="M14.5 4.53394C14.5 5.19698 14.2366 5.83286 13.7678 6.3017C13.2989 6.77054 12.663 7.03394 12 7.03394C11.337 7.03394 10.7011 6.77054 10.2322 6.3017C9.76339 5.83286 9.5 5.19698 9.5 4.53394C9.5 3.87089 9.76339 3.23501 10.2322 2.76617C10.7011 2.29733 11.337 2.03394 12 2.03394C12.663 2.03394 13.2989 2.29733 13.7678 2.76617C14.2366 3.23501 14.5 3.87089 14.5 4.53394ZM7.44 13.3839C7.59677 12.4512 8.07897 11.6042 8.80101 10.9933C9.52304 10.3824 10.4382 10.0471 11.384 10.0469H12.609C13.5563 10.0469 14.4729 10.3832 15.1955 10.9957C15.9181 11.6083 16.3999 12.4574 16.555 13.3919L16.995 16.0469L15 15.9999L14.329 20.0269C14.2386 20.5794 13.9547 21.0817 13.528 21.4442C13.1014 21.8067 12.5598 22.0057 12 22.0057C11.4402 22.0057 10.8986 21.8067 10.472 21.4442C10.0453 21.0817 9.76144 20.5794 9.671 20.0269L9 15.9999H7L7.44 13.3839Z" fill="currentColor" opacity="0.28"/>
  <path d="M14.5 4.53467C14.5 5.91538 13.3807 7.03467 12 7.03467C10.6193 7.03467 9.5 5.91538 9.5 4.53467C9.5 3.15396 10.6193 2.03467 12 2.03467C13.3807 2.03467 14.5 3.15396 14.5 4.53467Z" stroke="currentColor" stroke-width="2"/>
  <path d="M7.43938 13.3847C7.76299 11.4583 9.43069 10.0474 11.3841 10.0474H12.6092C14.5656 10.0474 16.2349 11.4624 16.5552 13.3924L16.9959 16.0473L15 16L14.3288 20.0272C14.1391 21.1656 13.1541 22 12 22C10.8459 22 9.86096 21.1656 9.67123 20.0272L9.00003 16L7 16.0003L7.43938 13.3847Z" stroke="currentColor" stroke-width="2"/>
</svg>