<svg
  xmlns="http://www.w3.org/2000/svg"
  width="24"
  height="24"
  viewBox="0 0 24 24"
  fill="none"
  stroke="currentColor"
  stroke-width="2"
  stroke-linecap="round"
  stroke-linejoin="round"
>
  <g opacity="0.28"><path d="M15 7C15 9.20914 13.2091 11 11 11C8.79086 11 7 9.20914 7 7C7 4.79086 8.79086 3 11 3C13.2091 3 15 4.79086 15 7Z" fill="currentColor"/><path d="M7 15C4.79086 15 3 16.7909 3 19C3 20.1046 3.89543 21 5 21H16.3516C16.3516 20.6949 16.2149 20.4217 15.9995 20.2383H16.0024C15.3873 19.6889 15 18.8897 15 18C13.3431 18 12 16.6569 12 15H7Z" fill="currentColor"/></g>
  <path d="M15.3516 21H5C3.89543 21 3 20.1046 3 19C3 16.7909 4.79086 15 7 15H11M18 18V15M18 15V12M18 15H15M18 15H21M15 7C15 9.20914 13.2091 11 11 11C8.79086 11 7 9.20914 7 7C7 4.79086 8.79086 3 11 3C13.2091 3 15 4.79086 15 7Z" stroke="currentColor" stroke-width="2"/>
</svg>