<svg
  xmlns="http://www.w3.org/2000/svg"
  width="24"
  height="24"
  viewBox="0 0 24 24"
  fill="none"
  stroke="currentColor"
  stroke-width="2"
  stroke-linecap="round"
  stroke-linejoin="round"
>
  <path d="M11.9632 22H12.0368C13.4034 22 14.4802 22 15.351 21.9406C16.2387 21.88 16.9853 21.7544 17.6788 21.4672C19.394 20.7567 20.7567 19.394 21.4672 17.6788C21.7544 16.9853 21.88 16.2387 21.9406 15.351C22 14.4802 22 13.4035 22 12.0369V11.9631C22 10.5965 22 9.51984 21.9406 8.649C21.88 7.76134 21.7544 7.01469 21.4672 6.32122C20.7567 4.60602 19.394 3.2433 17.6788 2.53284C16.9853 2.2456 16.2387 2.11997 15.351 2.05941C14.4801 1.99999 13.4035 1.99999 12.0369 2H11.9631C10.5965 1.99999 9.51986 1.99999 8.649 2.05941C7.76134 2.11997 7.01469 2.2456 6.32122 2.53284C4.60602 3.2433 3.2433 4.60602 2.53284 6.32122C2.2456 7.01469 2.11997 7.76134 2.05941 8.64899C1.99999 9.51985 1.99999 10.5965 2 11.9631V12.0369C1.99999 13.4035 1.99999 14.4801 2.05941 15.351C2.11997 16.2387 2.2456 16.9853 2.53284 17.6788C3.2433 19.394 4.60602 20.7567 6.32122 21.4672C7.01469 21.7544 7.76134 21.88 8.64899 21.9406C9.51984 22 10.5966 22 11.9632 22ZM13 8.31201C13 7.75973 12.5523 7.31201 12 7.31201C11.4477 7.31201 11 7.75973 11 8.31201V8.31314C11 8.86542 11.4477 9.31314 12 9.31314C12.5523 9.31314 13 8.86542 13 8.31314V8.31201ZM13 11.6881C13 11.1359 12.5523 10.6881 12 10.6881C11.4477 10.6881 11 11.1359 11 11.6881V15.6881C11 16.2404 11.4477 16.6881 12 16.6881C12.5523 16.6881 13 16.2404 13 15.6881V11.6881Z" fill="currentColor" fill-rule="evenodd" clip-rule="evenodd"/ stroke="none">
</svg>