<svg
  xmlns="http://www.w3.org/2000/svg"
  width="24"
  height="24"
  viewBox="0 0 24 24"
  fill="none"
  stroke="currentColor"
  stroke-width="2"
  stroke-linecap="round"
  stroke-linejoin="round"
>
  <path d="M15.8887 3.86754C17.0603 2.69588 18.9599 2.69584 20.1315 3.86745C21.303 5.03898 21.303 6.93841 20.1316 8.10999L10.8618 17.3806C10.3517 17.8907 9.67487 18.1999 8.95535 18.2516C7.13256 18.3826 5.61717 16.8671 5.74813 15.0443C5.79982 14.3249 6.109 13.6481 6.61902 13.138L15.8887 3.86754Z" fill="currentColor" opacity="0.28"/>
  <path d="M5.5 18.4999L7.69116 18.3425C8.57198 18.2792 9.01239 18.2475 9.42482 18.1263C9.79065 18.0188 10.1392 17.8596 10.4599 17.6534C10.8215 17.4209 11.1337 17.1087 11.7581 16.4842L20.1317 8.10999C21.3031 6.93841 21.3031 5.03898 20.1316 3.86745C18.96 2.69584 17.0604 2.69588 15.8888 3.86754L7.51532 12.2418C6.89099 12.8662 6.57882 13.1784 6.34642 13.5399C6.14028 13.8607 5.98105 14.2092 5.87356 14.575C5.75237 14.9874 5.72074 15.4277 5.65746 16.3084L5.5 18.4999ZM5.5 18.4999L3 20.9999M11.1508 13.8491L12.772 15.4703M13.8788 11.1211L15.5 12.7423M16.4999 8.49994L18.1212 10.1211" stroke="currentColor" stroke-width="2"/>
</svg>