<svg
  xmlns="http://www.w3.org/2000/svg"
  width="24"
  height="24"
  viewBox="0 0 24 24"
  fill="none"
  stroke="currentColor"
  stroke-width="2"
  stroke-linecap="round"
  stroke-linejoin="round"
>
  <path d="M13.3857 8.4375C13.9893 8.44599 14.5 8.93051 14.5 9.47949C14.4999 10.2297 13.9859 10.9969 13.2246 11.6592C12.8638 11.973 12.492 12.2229 12.1982 12.3906C12.1248 12.4325 12.0591 12.4682 12.002 12.4971H11.998C11.9409 12.4682 11.8752 12.4325 11.8018 12.3906C11.508 12.2229 11.1362 11.973 10.7754 11.6592C10.0141 10.9969 9.50008 10.2297 9.5 9.47949C9.5 8.91963 10.02 8.43772 10.5996 8.4375C10.7513 8.4375 10.8717 8.46312 10.96 8.50196C11.0398 8.53713 11.1107 8.59019 11.1748 8.6836C11.3613 8.95552 11.6703 9.11817 12 9.11817C12.3297 9.11817 12.6387 8.95552 12.8252 8.6836C12.8934 8.5842 12.9664 8.53077 13.042 8.49707C13.125 8.46019 13.2383 8.43545 13.3857 8.4375Z" fill="currentColor"/ stroke="none">
  <path d="M16.2002 2C17.0237 2 17.7016 1.99898 18.252 2.04395C18.814 2.08988 19.3311 2.18828 19.8164 2.43555L20.0918 2.58985C20.7183 2.97413 21.2289 3.52513 21.5645 4.1836L21.6504 4.36719C21.8356 4.79892 21.9159 5.2562 21.9561 5.74805C22.001 6.29843 22 6.97632 22 7.79981V12.2002C22 13.0237 22.001 13.7016 21.9561 14.252C21.9159 14.7438 21.8356 15.2011 21.6504 15.6328L21.5645 15.8164C21.2289 16.4749 20.7183 17.0259 20.0918 17.4102L19.8164 17.5645C19.3311 17.8117 18.814 17.9101 18.252 17.9561C17.7016 18.001 17.0237 18 16.2002 18H13.3516L8.625 21.7813C8.32483 22.0214 7.91287 22.0679 7.56641 21.9014C7.22012 21.7348 7 21.3843 7 21V17.9961C6.52455 17.9928 6.10885 17.9855 5.74805 17.9561C5.2562 17.9159 4.79892 17.8356 4.36719 17.6504L4.1836 17.5645C3.52513 17.2289 2.97413 16.7183 2.58985 16.0918L2.43555 15.8164C2.18828 15.3311 2.08988 14.814 2.04395 14.252C1.99898 13.7016 2 13.0237 2 12.2002V7.79981C2 6.97632 1.99898 6.29843 2.04395 5.74805C2.08988 5.18599 2.18827 4.6689 2.43555 4.1836L2.58985 3.90821C2.97414 3.2817 3.52513 2.7711 4.1836 2.43555L4.36719 2.34961C4.79892 2.16442 5.2562 2.08414 5.74805 2.04395C6.29843 1.99898 6.97632 2 7.79981 2H16.2002ZM13.4141 6.4375C12.954 6.43103 12.4516 6.52725 11.9961 6.78906C11.5385 6.52993 11.0392 6.4375 10.5996 6.4375C9.07952 6.43771 7.5 7.65779 7.5 9.47949C7.50008 11.111 8.56183 12.3852 9.46289 13.1689C9.93322 13.578 10.4144 13.9023 10.8096 14.1279C11.0068 14.2405 11.1931 14.3348 11.3555 14.4043C11.4359 14.4387 11.5224 14.4715 11.6084 14.498C11.67 14.517 11.8215 14.5625 12 14.5625C12.1785 14.5625 12.33 14.517 12.3916 14.498C12.4776 14.4715 12.5641 14.4387 12.6445 14.4043C12.8069 14.3348 12.9932 14.2405 13.1904 14.1279C13.5856 13.9023 14.0668 13.578 14.5371 13.1689C15.4382 12.3852 16.4999 11.111 16.5 9.47949C16.5 7.64663 14.9105 6.45855 13.4141 6.4375Z" fill="currentColor" fill-rule="evenodd" clip-rule="evenodd"/ stroke="none">
</svg>