<svg width="24" height="24" viewBox="0 0 24 24" fill="none" xmlns="http://www.w3.org/2000/svg">
<path opacity="0.28" d="M4.89962 7.39936C7.31131 3.2222 12.6042 1.76307 16.7217 4.1403C20.8392 6.51754 22.2221 11.8309 19.8104 16.0081C19.663 16.2634 19.5049 16.5085 19.3369 16.7432L19.0708 16.4395C18.0826 15.3119 16.7524 14.5439 15.2818 14.2519L14.8857 14.1733L13.5944 12.9132C12.7808 12.1192 11.7823 11.5427 10.6878 11.2351L8.95089 10.7468L8.68478 10.4432C7.69658 9.31555 6.36644 8.54759 4.89579 8.25559L4.49976 8.17696C4.61903 7.91414 4.75224 7.65463 4.89962 7.39936Z" fill="#111111"/>
<path d="M3 21H21" stroke="#111111" stroke-width="2" stroke-linecap="round" stroke-linejoin="round"/>
<path d="M16.7217 4.14006C12.6042 1.76282 7.31124 3.22196 4.89956 7.39912C4.75218 7.65438 4.61897 7.91389 4.49969 8.17671L4.89573 8.25535C6.36638 8.54734 7.69652 9.3153 8.68472 10.4429L8.95083 10.7466M16.7217 4.14006C20.8392 6.51729 22.222 11.8307 19.8103 16.0078C19.6629 16.2631 19.5048 16.5082 19.3368 16.7429L19.0707 16.4393C18.0825 15.3117 16.7524 14.5437 15.2817 14.2517L14.8857 14.1731M16.7217 4.14006C15.0747 3.18916 11.7845 5.80457 9.37278 9.98174C9.22541 10.237 9.08472 10.4922 8.95083 10.7466M16.7217 4.14006C18.3687 5.09095 17.7488 9.24806 15.3371 13.4252C15.1897 13.6805 15.039 13.9299 14.8857 14.1731M8.95083 10.7466L10.6878 11.2348C11.7822 11.5425 12.7807 12.119 13.5944 12.913L14.8857 14.1731M12.1411 12.0739L6.99995 20.9786" stroke="#111111" stroke-width="2" stroke-linecap="round" stroke-linejoin="round"/>
</svg>
