<svg
  xmlns="http://www.w3.org/2000/svg"
  width="24"
  height="24"
  viewBox="0 0 24 24"
  fill="none"
  stroke="currentColor"
  stroke-width="2"
  stroke-linecap="round"
  stroke-linejoin="round"
>
  <path d="M21 12C21 14.7957 21 16.1935 20.5433 17.2961C19.9343 18.7663 18.7663 19.9343 17.2961 20.5433C16.1935 21 14.7956 21 12 21C9.20435 21 7.80652 21 6.7039 20.5433C5.23373 19.9343 4.06569 18.7663 3.45672 17.2961C3 16.1935 3 14.7956 3 12C3 9.20435 3 7.80652 3.45672 6.7039C4.06569 5.23373 5.23373 4.06569 6.7039 3.45672C7.80653 3 9.20435 3 12 3C14.7957 3 16.1935 3 17.2961 3.45672C18.7663 4.06569 19.9343 5.23373 20.5433 6.7039C21 7.80653 21 9.20435 21 12Z" stroke="currentColor" stroke-width="2"/ fill="none">
  <path d="M8.78149 9.71853C8.78149 8.21713 9.99862 7 11.5 7C13.0014 7 14.2186 8.21713 14.2186 9.71853C14.2186 10.6748 13.7248 11.5157 12.9784 12.0003C12.2544 12.4704 11.5 13.1368 11.5 14M11.5 17H11.501" stroke="currentColor" stroke-width="2"/ fill="none">
</svg>