<svg
  xmlns="http://www.w3.org/2000/svg"
  width="24"
  height="24"
  viewBox="0 0 24 24"
  fill="none"
  stroke="currentColor"
  stroke-width="2"
  stroke-linecap="round"
  stroke-linejoin="round"
>
  <path d="M10.9366 5.23436C11.3333 4.83759 11.9766 4.83759 12.3734 5.23436L14.5002 7.36117C14.8907 7.7517 15.5239 7.7517 15.9144 7.36117C16.3049 6.97065 16.3049 6.33748 15.9144 5.94696L13.9266 3.95916C13.4532 3.4857 13.4374 2.69992 13.9479 2.26659C14.2523 2.00814 14.5825 1.77944 14.9882 1.64761C15.5939 1.45079 16.2464 1.4508 16.8522 1.64761C17.2579 1.77944 17.5881 2.00814 17.8925 2.26659C18.181 2.51153 18.5049 2.83545 18.8808 3.21133L20.7886 5.11916C21.1645 5.49503 21.4885 5.81895 21.7334 6.10749C21.9919 6.41193 22.2206 6.74211 22.3524 7.14781C22.5492 7.75356 22.5492 8.40606 22.3524 9.0118C22.2206 9.41751 21.9919 9.74769 21.7334 10.0521C21.4885 10.3407 21.1645 10.6646 20.7886 11.0405L11.0404 20.7886C10.6646 21.1645 10.3407 21.4885 10.0521 21.7334C9.74769 21.9919 9.41751 22.2206 9.0118 22.3524C8.40606 22.5492 7.75356 22.5492 7.14781 22.3524C6.74211 22.2206 6.41193 21.9919 6.10749 21.7334C5.819 21.4885 5.49497 21.1645 5.11917 20.7886L3.21139 18.8808C2.83549 18.505 2.51154 18.181 2.26659 17.8925C2.00814 17.5881 1.77944 17.2579 1.64761 16.8522C1.4508 16.2464 1.4508 15.5939 1.64761 14.9882C1.77944 14.5825 2.00814 14.2523 2.26659 13.9479C2.69997 13.4374 3.48585 13.4531 3.95937 13.9266L6.65982 16.6271C7.05035 17.0176 7.68351 17.0176 8.07404 16.6271C8.46456 16.2366 8.46456 15.6034 8.07403 15.2129L5.23447 12.3733C4.83769 11.9765 4.83769 11.3332 5.23447 10.9365C5.63124 10.5397 6.27453 10.5397 6.6713 10.9365L8.79811 13.0633C9.18863 13.4538 9.8218 13.4538 10.2123 13.0633C10.6028 12.6727 10.6028 12.0396 10.2123 11.6491L8.08551 9.52225C7.68874 9.12547 7.68874 8.48218 8.08552 8.08541C8.48229 7.68864 9.12558 7.68864 9.52235 8.08541L12.3619 10.925C12.7524 11.3155 13.3856 11.3155 13.7761 10.925C14.1667 10.5345 14.1667 9.90129 13.7761 9.51077L10.9366 6.6712C10.5398 6.27442 10.5398 5.63113 10.9366 5.23436Z" fill="currentColor"/ stroke="none">
  <path d="M19.9068 15.1758C20.1729 15.1764 20.4277 15.283 20.6149 15.472L21.2098 16.0726L21.2117 16.0745L21.2155 16.0783C21.2409 16.1039 21.2653 16.1284 21.2879 16.1522C22.1002 17.0096 22.2314 18.3085 21.6088 19.3116C21.593 19.337 21.5769 19.3616 21.5614 19.3854L21.5145 19.4568C20.9554 20.3096 20.2247 21.0358 19.3691 21.5886C18.3493 22.2475 17.0099 22.1026 16.1537 21.2426L16.152 21.2409L15.4954 20.5783C15.1079 20.1873 15.1094 19.5566 15.4987 19.1673L19.1973 15.4686C19.3855 15.2805 19.6408 15.1751 19.9068 15.1758Z" fill="currentColor"/ stroke="none">
  <path d="M3.09948 8.13102L3.05164 8.08305C2.83539 7.86641 2.624 7.65463 2.46542 7.39901C2.3266 7.17523 2.22263 6.93163 2.15699 6.67664C2.08207 6.38552 2.07507 6.08633 2.06789 5.77957L2.00006 3.02917C1.99342 2.76004 2.09557 2.49959 2.28342 2.30674C2.47127 2.11389 2.72894 2.00493 2.99816 2.0045L5.79746 1.99997C6.11384 1.99903 6.42427 1.99812 6.72714 2.07079C6.99229 2.13441 7.24564 2.23961 7.47787 2.38239C7.743 2.54541 7.96177 2.76572 8.18523 2.99077L8.23652 3.04238L8.23974 3.04563L8.57188 3.38229C8.95789 3.77357 8.95576 4.40304 8.5671 4.7917L4.86843 8.49038C4.68009 8.67871 4.42441 8.78413 4.15806 8.78326C3.89172 8.7824 3.63672 8.67531 3.44962 8.48575L3.09948 8.13102Z" fill="currentColor"/ stroke="none">
</svg>