<svg
  xmlns="http://www.w3.org/2000/svg"
  width="24"
  height="24"
  viewBox="0 0 24 24"
  fill="none"
  stroke="currentColor"
  stroke-width="2"
  stroke-linecap="round"
  stroke-linejoin="round"
>
  <path d="M8 15L11 12M11 12L14 9M11 12L8 9M11 12L14 15M17.3749 6.02049C19.0028 7.59456 20.4842 9.36639 21.794 11.3066C21.9313 11.5101 22 11.755 22 12C22 12.245 21.9313 12.4899 21.794 12.6934C20.4842 14.6336 19.0028 16.4054 17.3749 17.9795C17.0171 18.3255 16.8381 18.4985 16.5895 18.6468C16.383 18.7701 16.114 18.8789 15.8798 18.9338C15.598 19 15.319 19 14.7611 19H7C5.59987 19 4.8998 19 4.36502 18.7275C3.89462 18.4878 3.51217 18.1054 3.27248 17.635C3 17.1002 3 16.4001 3 15V9C3 7.59987 3 6.8998 3.27248 6.36502C3.51217 5.89462 3.89462 5.51217 4.36502 5.27248C4.8998 5 5.59987 5 7 5H14.7611C15.319 5 15.598 5 15.8798 5.06616C16.114 5.12112 16.383 5.22993 16.5895 5.35316C16.8381 5.50151 17.0171 5.6745 17.3749 6.02049Z" stroke="currentColor" stroke-width="2"/ fill="none">
</svg>