<svg
  xmlns="http://www.w3.org/2000/svg"
  width="24"
  height="24"
  viewBox="0 0 24 24"
  fill="none"
  stroke="currentColor"
  stroke-width="2"
  stroke-linecap="round"
  stroke-linejoin="round"
>
  <path d="M12 19H12.01M11.4 2H12.6C14.8402 2 15.9603 2 16.816 2.43597C17.5686 2.81947 18.1805 3.43139 18.564 4.18404C19 5.03968 19 6.15979 19 8.4V15.6C19 17.8402 19 18.9603 18.564 19.816C18.1805 20.5686 17.5686 21.1805 16.816 21.564C15.9603 22 14.8402 22 12.6 22H11.4C9.15979 22 8.03968 22 7.18404 21.564C6.43139 21.1805 5.81947 20.5686 5.43597 19.816C5 18.9603 5 17.8402 5 15.6V8.4C5 6.15979 5 5.03968 5.43597 4.18404C5.81947 3.43139 6.43139 2.81947 7.18404 2.43597C8.03968 2 9.15979 2 11.4 2Z" stroke="currentColor" stroke-width="2"/>
  <path d="M12.6 2H11.4C9.15979 2 8.03968 2 7.18404 2.43597C6.43139 2.81947 5.81947 3.43139 5.43597 4.18404C5 5.03968 5 6.15979 5 8.4V15.6C5 17.8402 5 18.9603 5.43597 19.816C5.81947 20.5686 6.43139 21.1805 7.18404 21.564C8.03968 22 9.15979 22 11.4 22H12.6C14.8402 22 15.9603 22 16.816 21.564C17.5686 21.1805 18.1805 20.5686 18.564 19.816C19 18.9603 19 17.8402 19 15.6V8.4C19 6.15979 19 5.03968 18.564 4.18404C18.1805 3.43139 17.5686 2.81947 16.816 2.43597C15.9603 2 14.8402 2 12.6 2Z" fill="currentColor" opacity="0.28"/>
</svg>