<svg
  xmlns="http://www.w3.org/2000/svg"
  width="24"
  height="24"
  viewBox="0 0 24 24"
  fill="none"
  stroke="currentColor"
  stroke-width="2"
  stroke-linecap="round"
  stroke-linejoin="round"
>
  <path d="M13.0391 2H4.4C3.55992 2 3.13988 2 2.81901 2.16349C2.53677 2.3073 2.3073 2.53677 2.16349 2.81901C2 3.13988 2 3.55992 2 4.4V14.6C2 15.4401 2 15.8601 2.16349 16.181C2.3073 16.4632 2.53677 16.6927 2.81901 16.8365C3.13988 17 3.55992 17 4.4 17H12M22 10.7658V14.6C22 15.4401 22 15.8601 21.8365 16.181C21.6927 16.4632 21.4632 16.6927 21.181 16.8365C20.8601 17 20.4401 17 19.6 17H12M12 20.875V17M12 20.875C10.25 20.875 8.5 21.25 7 22M12 20.875C13.75 20.875 15.5 21.25 17 22" stroke="currentColor" stroke-width="2"/>
  <path d="M14.073 2H4.4C3.56 2 3.14 2 2.819 2.163C2.53651 2.30685 2.30685 2.53651 2.163 2.819C2 3.139 2 3.559 2 4.4V14.6C2 15.44 2 15.86 2.163 16.181C2.30702 16.4631 2.53666 16.6924 2.819 16.836C3.139 17 3.559 17 4.4 17H19.6C20.44 17 20.86 17 21.181 16.837C21.4631 16.693 21.6924 16.4633 21.836 16.181C22 15.861 22 15.441 22 14.6V9.762C21.2101 9.75843 20.4537 9.44242 19.896 8.883L19.542 8.53L19.189 8.883C18.9104 9.1616 18.5797 9.3826 18.2156 9.53337C17.8516 9.68415 17.4615 9.76175 17.0675 9.76175C16.6735 9.76175 16.2834 9.68415 15.9194 9.53337C15.5553 9.3826 15.2246 9.1616 14.946 8.883C14.6674 8.6044 14.4464 8.27365 14.2956 7.90965C14.1448 7.54564 14.0672 7.1555 14.0672 6.7615C14.0672 6.3675 14.1448 5.97736 14.2956 5.61335C14.4464 5.24934 14.6674 4.9186 14.946 4.64L15.3 4.287L14.946 3.933C14.4285 3.41705 14.1179 2.72939 14.073 2Z" fill="currentColor" opacity="0.28" fill-rule="evenodd" clip-rule="evenodd"/>
  <path d="M17.0337 6.76225L19.5086 4.28737M19.5086 4.28737L21.9834 1.8125M19.5086 4.28737L17.0337 1.8125M19.5086 4.28737L21.9834 6.76225" stroke="currentColor" stroke-width="2"/>
</svg>