<svg
  xmlns="http://www.w3.org/2000/svg"
  width="24"
  height="24"
  viewBox="0 0 24 24"
  fill="none"
  stroke="currentColor"
  stroke-width="2"
  stroke-linecap="round"
  stroke-linejoin="round"
>
  <g opacity="0.28"><path d="M18.0079 11.7979L13.961 12.6045C13.9866 12.7323 14 12.8646 14 13C14 13.783 13.55 14.4607 12.8946 14.7891C12.6254 14.9239 12.3216 15 12 15C11.6785 15 11.3747 14.9239 11.1055 14.7891C10.5606 14.5161 10.1575 14.0015 10.0372 13.3857L3.83891 14.6221C3.32225 14.725 2.81436 14.4091 2.67778 13.9004L2.127 11.8467C1.99059 11.3376 2.27336 10.8098 2.7725 10.6406L16.4551 6.00195L18.0079 11.7979Z" fill="currentColor"/><path d="M22.3194 12.4326L20.3877 12.9502C19.3208 13.2361 18.2234 12.6021 17.9375 11.5352L16.5254 6.2627C16.2396 5.19579 16.8726 4.09935 17.9395 3.81348L19.8711 3.2959L22.3194 12.4326Z" fill="currentColor"/></g>
  <path d="M12.9012 14.8027L16 21.0003M8 21.0003L11.0988 14.8027" stroke="currentColor" stroke-width="2"/>
  <path d="M14 13C14 14.1046 13.1046 15 12 15C10.8954 15 10 14.1046 10 13C10 11.8954 10.8954 11 12 11C13.1046 11 14 11.8954 14 13Z" stroke="currentColor" stroke-width="2"/>
  <path d="M16.5247 6.26205C16.2388 5.19512 16.872 4.09844 17.9389 3.81256L19.8708 3.29492L22.3189 12.4314L20.387 12.949C19.3201 13.2349 18.2234 12.6017 17.9375 11.5348L16.5247 6.26205Z" stroke="currentColor" stroke-width="2"/>
  <path d="M4.51282 10.0503L2.77191 10.6405C2.27277 10.8097 1.99063 11.3372 2.12705 11.8463L2.6773 13.8999C2.81372 14.409 3.32184 14.7248 3.83872 14.6218L9.99299 13.3951M4.51282 10.0503L16.4546 6.00195M4.51282 10.0503L4.09766 8.50057M18.0076 11.7975L14.0003 12.5963" stroke="currentColor" stroke-width="2"/>
</svg>