<svg width="24" height="24" viewBox="0 0 24 24" fill="none" xmlns="http://www.w3.org/2000/svg">
<path d="M8.81799 14.364L15.182 8M9.06799 8.25H9.07799M14.932 14.1143H14.942M9.31799 8.25C9.31799 8.38807 9.20606 8.5 9.06799 8.5C8.92992 8.5 8.81799 8.38807 8.81799 8.25C8.81799 8.11193 8.92992 8 9.06799 8C9.20606 8 9.31799 8.11193 9.31799 8.25ZM15.182 14.1143C15.182 14.2524 15.0701 14.3643 14.932 14.3643C14.7939 14.3643 14.682 14.2524 14.682 14.1143C14.682 13.9762 14.7939 13.8643 14.932 13.8643C15.0701 13.8643 15.182 13.9762 15.182 14.1143ZM20 8.4V20.9323C20 21.1396 20 21.2432 19.9786 21.2978C19.9118 21.4682 19.7126 21.5439 19.5495 21.461C19.4972 21.4344 19.4284 21.3569 19.2907 21.202L19.1111 21C18.8515 20.708 18.7218 20.562 18.5977 20.4608C17.8617 19.8603 16.8049 19.8603 16.069 20.4608C15.9449 20.562 15.8151 20.708 15.5556 21C15.4258 21.146 15.3609 21.219 15.2988 21.2696C14.9309 21.5699 14.4025 21.5699 14.0345 21.2696C13.9725 21.219 13.9075 21.146 13.7778 21C13.5182 20.708 13.3884 20.562 13.2644 20.4608C12.5284 19.8603 11.4716 19.8603 10.7356 20.4608C10.4463 20.6968 10.2535 21.0346 9.96551 21.2696C9.59753 21.5699 9.06914 21.5699 8.70116 21.2696C8.41312 21.0346 8.22039 20.6968 7.93102 20.4608C7.19506 19.8603 6.13827 19.8603 5.40231 20.4608C5.06427 20.7366 4.83701 21.2644 4.45054 21.461C4.05533 21.662 4 21.1828 4 20.9323V8.4C4 6.15979 4 5.03969 4.43597 4.18404C4.81947 3.43139 5.43139 2.81947 6.18404 2.43597C7.03969 2 8.15979 2 10.4 2H13.6C15.8402 2 16.9603 2 17.816 2.43597C18.5686 2.81947 19.1805 3.43139 19.564 4.18404C20 5.03969 20 6.15979 20 8.4Z" stroke="#111111" stroke-width="2" stroke-linecap="round" stroke-linejoin="round"/>
</svg>
