<svg
  xmlns="http://www.w3.org/2000/svg"
  width="24"
  height="24"
  viewBox="0 0 24 24"
  fill="none"
  stroke="currentColor"
  stroke-width="2"
  stroke-linecap="round"
  stroke-linejoin="round"
>
  <path d="M2 12C2 6.47715 6.47715 2 12 2C17.5228 2 22 6.47715 22 12C22 17.5228 17.5228 22 12 22C11.5213 22 11.05 21.9663 10.5882 21.901L10.5866 21.9008C9.98465 21.8156 9.53616 21.7522 9.21813 21.7085C9.05889 21.6866 8.93528 21.67 8.843 21.6584C8.7969 21.6525 8.76059 21.6481 8.73278 21.645L8.70005 21.6415L8.69071 21.6406L8.68748 21.6403L8.54819 21.6293C8.51913 21.627 8.51635 21.6271 8.51836 21.6271C8.52038 21.6272 8.5176 21.627 8.48845 21.6272L8.34881 21.6286C8.22957 21.6295 8.08696 21.6392 7.71053 21.6661L5.51918 21.8226C5.12316 21.8509 4.76476 21.8765 4.46679 21.8722C4.14953 21.8676 3.7976 21.8303 3.45082 21.6659C2.96091 21.4336 2.56638 21.0391 2.33411 20.5492C2.1697 20.2024 2.13237 19.8505 2.12777 19.5332C2.12345 19.2353 2.14908 18.8769 2.17739 18.4809L2.33392 16.2895C2.36081 15.9129 2.37049 15.7705 2.37142 15.6512L2.37277 15.5115C2.37295 15.4909 2.37285 15.4816 2.37285 15.4816C2.37285 15.4816 2.3723 15.4723 2.3707 15.4518L2.3597 15.3126L2.35958 15.3112L2.35941 15.3093L2.35852 15.2999L2.35501 15.2672C2.35187 15.2394 2.34749 15.2031 2.34165 15.157C2.32996 15.0647 2.31341 14.9411 2.29152 14.7819C2.24776 14.4636 2.18426 14.0145 2.09901 13.4118C2.0337 12.95 2 12.4787 2 12ZM10.2071 8.79289C9.81658 8.40237 9.18342 8.40237 8.79289 8.79289C8.40237 9.18342 8.40237 9.81658 8.79289 10.2071L10.5858 12L8.79289 13.7929C8.40237 14.1834 8.40237 14.8166 8.79289 15.2071C9.18342 15.5976 9.81658 15.5976 10.2071 15.2071L12 13.4142L13.7929 15.2071C14.1834 15.5976 14.8166 15.5976 15.2071 15.2071C15.5976 14.8166 15.5976 14.1834 15.2071 13.7929L13.4142 12L15.2071 10.2071C15.5976 9.81658 15.5976 9.18342 15.2071 8.79289C14.8166 8.40237 14.1834 8.40237 13.7929 8.79289L12 10.5858L10.2071 8.79289Z" fill="currentColor" fill-rule="evenodd" clip-rule="evenodd"/ stroke="none">
</svg>