<svg width="24" height="24" viewBox="0 0 24 24" fill="none" xmlns="http://www.w3.org/2000/svg">
<path opacity="0.28" d="M14.5 4.53467C14.5 5.91538 13.3807 7.03467 12 7.03467C10.6193 7.03467 9.5 5.91538 9.5 4.53467C9.5 3.15396 10.6193 2.03467 12 2.03467C13.3807 2.03467 14.5 3.15396 14.5 4.53467Z" stroke="#111111" stroke-width="2" stroke-linecap="round" stroke-linejoin="round"/>
<path d="M7.43938 13.3847C7.76299 11.4583 9.43069 10.0474 11.3841 10.0474H12.6092C14.5656 10.0474 16.2349 11.4624 16.5552 13.3924L16.9959 16.0473L15 16L14.3288 20.0272C14.1391 21.1656 13.1541 22 12 22C10.8459 22 9.86096 21.1656 9.67123 20.0272L9.00003 16L7 16.0003L7.43938 13.3847Z" stroke="#111111" stroke-width="2" stroke-linecap="round" stroke-linejoin="round"/>
</svg>
