<svg
  xmlns="http://www.w3.org/2000/svg"
  width="24"
  height="24"
  viewBox="0 0 24 24"
  fill="none"
  stroke="currentColor"
  stroke-width="2"
  stroke-linecap="round"
  stroke-linejoin="round"
>
  <path d="M13 3V5C13 5.83787 13 6.2568 12.8822 6.59359C12.6711 7.1968 12.1968 7.67108 11.5936 7.88215C11.2568 8 10.8379 8 10 8C9.16213 8 8.7432 8 8.40641 7.88215C7.8032 7.67108 7.32892 7.1968 7.11785 6.59359C7 6.2568 7 5.83787 7 5V3.04585M7 20.9542V16.36C7 15.1839 7 14.5958 7.22889 14.1466C7.43022 13.7515 7.75148 13.4302 8.14662 13.2289C8.59583 13 9.18389 13 10.36 13H13.64C14.8161 13 15.4042 13 15.8534 13.2289C16.2485 13.4302 16.5698 13.7515 16.7711 14.1466C17 14.5958 17 15.1839 17 16.36V20.9542" stroke="currentColor" stroke-width="2"/>
  <path d="M9.56 2H9.525C8.479 2 7.627 2 6.931 2.048C6.124 2.104 5.425 2.229 4.785 2.556C3.82489 3.0448 3.04423 3.82511 2.555 4.785C2.249 5.388 2.12 6.04 2.059 6.785C2 7.51 2 8.406 2 9.518V14.484C2 15.596 2 16.491 2.06 17.215C2.12 17.961 2.249 18.613 2.556 19.216C3.0448 20.1761 3.82511 20.9568 4.785 21.446C5.425 21.772 6.124 21.896 6.931 21.953C7.627 22 8.479 22 9.525 22H14.475C15.521 22 16.373 22 17.069 21.952C17.876 21.896 18.575 21.771 19.215 21.444C20.1751 20.9552 20.9558 20.1749 21.445 19.215C21.751 18.612 21.88 17.96 21.941 17.215C22 16.49 22 15.595 22 14.483V8.916C22 8.536 22 8.199 21.915 7.852C21.8403 7.54699 21.7192 7.25525 21.556 6.987C21.369 6.682 21.123 6.437 20.846 6.16L20.791 6.105L17.895 3.209L17.84 3.154C17.564 2.877 17.318 2.631 17.013 2.444C16.7448 2.28035 16.4531 2.15893 16.148 2.084C15.801 2.001 15.463 2.001 15.084 2H9.56Z" fill="currentColor" opacity="0.28" fill-rule="evenodd" clip-rule="evenodd"/>
</svg>