<svg
  xmlns="http://www.w3.org/2000/svg"
  width="24"
  height="24"
  viewBox="0 0 24 24"
  fill="none"
  stroke="currentColor"
  stroke-width="2"
  stroke-linecap="round"
  stroke-linejoin="round"
>
  <path d="M15 17C14.4477 17 14 17.4477 14 18C14 18.5523 14.4477 19 15 19C15.5523 19 16 18.5523 16 18C16 17.4477 15.5523 17 15 17ZM15 17V10" stroke="currentColor" stroke-width="2"/>
  <path d="M15 1C17.2091 1 19 2.79086 19 5V15C19.6273 15.8355 20 16.8751 20 18C20 20.7614 17.7614 23 15 23C12.2386 23 10 20.7614 10 18C10 16.8751 10.3727 15.8355 11 15V5C11 2.79086 12.7909 1 15 1Z" fill="currentColor" opacity="0.28"/>
  <path d="M7.5723 8.40989C6.9378 7.56389 6.20173 6.7999 5.38107 6.13491C5.27008 6.04497 5.13548 6 5.00087 6M5.00087 6C4.86627 6 4.73166 6.04497 4.62067 6.13491C3.80001 6.7999 3.06394 7.56389 2.42944 8.40989M5.00087 6V12.4287" stroke="currentColor" stroke-width="2"/>
</svg>