<svg width="24" height="24" viewBox="0 0 24 24" fill="none" xmlns="http://www.w3.org/2000/svg">
<path fill-rule="evenodd" clip-rule="evenodd" d="M1.8501 12.0001C1.8501 6.3941 6.3941 1.8501 12.0001 1.8501C17.6061 1.8501 22.1501 6.3941 22.1501 12.0001C22.1501 17.6051 17.6061 22.1501 12.0001 22.1501C6.3941 22.1501 1.8501 17.6051 1.8501 12.0001ZM7.1971 15.4041C7.05267 15.5967 6.98255 15.8349 6.99961 16.075C7.01668 16.3151 7.11978 16.541 7.28999 16.7112C7.4602 16.8814 7.6861 16.9845 7.92621 17.0016C8.16632 17.0186 8.40453 16.9485 8.5971 16.8041L13.2201 13.3361C13.4293 13.1792 13.6023 12.9792 13.7275 12.7496C13.8526 12.5201 13.927 12.2663 13.9455 12.0055C13.964 11.7447 13.9263 11.4829 13.8349 11.2379C13.7435 10.993 13.6005 10.7705 13.4156 10.5856C13.2307 10.4007 13.0082 10.2577 12.7633 10.1663C12.5183 10.0749 12.2565 10.0372 11.9957 10.0557C11.7349 10.0742 11.4811 10.1486 11.2516 10.2737C11.022 10.3989 10.822 10.5719 10.6651 10.7811L7.1971 15.4041Z" fill="#111111"/>
</svg>
