<svg width="24" height="24" viewBox="0 0 24 24" fill="none" xmlns="http://www.w3.org/2000/svg">
<path opacity="0.28" d="M8.78282 18.5225L9.48992 19.2296L8.78282 18.5225ZM4.54018 14.2799L5.24728 14.987L4.54018 14.2799ZM3.20496 18.8458L4.15365 19.162H4.15365L3.20496 18.8458ZM3.69674 17.3705L4.64543 17.6867L4.64543 17.6867L3.69674 17.3705ZM5.69223 19.3659L6.00846 20.3146H6.00846L5.69223 19.3659ZM4.21689 19.8577L3.90066 18.909H3.90066L4.21689 19.8577ZM6.07607 19.342L6.27219 18.3615L6.27219 18.3615L6.07607 19.342ZM3.72064 16.9866L2.74006 17.1827L2.74006 17.1827L3.72064 16.9866ZM3.01862 19.7411L3.96052 19.4052L3.96052 19.4052L3.01862 19.7411ZM3.32163 20.0441L3.65751 19.1022L3.65751 19.1022L3.32163 20.0441ZM3.86228 15.0422L4.71973 15.5567H4.71973L3.86228 15.0422ZM3.57944 15.9763L4.57831 16.0238L4.57831 16.0238L3.57944 15.9763ZM8.02052 19.2004L8.53508 20.0579L8.53508 20.0579L8.02052 19.2004ZM7.08638 19.4832L7.03889 18.4844H7.03888L7.08638 19.4832ZM15.2599 12.0455L15.967 12.7526C16.3339 12.3856 16.3592 11.7989 16.0251 11.4018L15.2599 12.0455ZM11.011 7.80908L11.6524 7.04192C11.2552 6.70975 10.67 6.73581 10.3039 7.10198L11.011 7.80908ZM3.20496 18.8458L4.15365 19.162L4.64543 17.6867L3.69674 17.3705L2.74806 17.0542L2.25628 18.5296L3.20496 18.8458ZM5.69223 19.3659L5.376 18.4173L3.90066 18.909L4.21689 19.8577L4.53312 20.8064L6.00846 20.3146L5.69223 19.3659ZM3.20496 18.8458L2.25628 18.5296C2.18116 18.7549 2.10191 18.9895 2.05551 19.187C2.0126 19.3696 1.94631 19.7112 2.07671 20.0769L3.01862 19.7411L3.96052 19.4052C3.99887 19.5127 4.00119 19.5995 3.99967 19.6394C3.99834 19.6745 3.99363 19.6822 4.00248 19.6445C4.01091 19.6086 4.02608 19.5543 4.05287 19.4692C4.07945 19.3847 4.11214 19.2865 4.15365 19.162L3.20496 18.8458ZM4.21689 19.8577L3.90066 18.909C3.77615 18.9505 3.67798 18.9832 3.59353 19.0098C3.5084 19.0366 3.45408 19.0518 3.41822 19.0602C3.38053 19.0691 3.38823 19.0644 3.4233 19.063C3.46314 19.0615 3.54997 19.0638 3.65751 19.1022L3.32163 20.0441L2.98575 20.986C3.35144 21.1164 3.6931 21.0501 3.87573 21.0072C4.07319 20.9608 4.30776 20.8815 4.53312 20.8064L4.21689 19.8577ZM3.01862 19.7411L2.07671 20.0769C2.22794 20.501 2.56166 20.8348 2.98575 20.986L3.32163 20.0441L3.65751 19.1022C3.79887 19.1526 3.91011 19.2638 3.96052 19.4052L3.01862 19.7411ZM4.54018 14.2799L3.83307 13.5728C3.50187 13.904 3.20975 14.1861 3.00482 14.5276L3.86228 15.0422L4.71973 15.5567C4.7681 15.4761 4.84349 15.3908 5.24728 14.987L4.54018 14.2799ZM3.72064 16.9866L4.70122 16.7905C4.58923 16.2305 4.57385 16.1177 4.57831 16.0238L3.57944 15.9763L2.58057 15.9288C2.56166 16.3266 2.6482 16.7234 2.74006 17.1827L3.72064 16.9866ZM3.86228 15.0422L3.00482 14.5276C2.74986 14.9525 2.6041 15.4339 2.58057 15.9288L3.57944 15.9763L4.57831 16.0238C4.58616 15.8588 4.63474 15.6984 4.71973 15.5567L3.86228 15.0422ZM8.78282 18.5225L8.07571 17.8154C7.67191 18.2192 7.58657 18.2946 7.50596 18.343L8.02052 19.2004L8.53508 20.0579C8.87657 19.8529 9.15872 19.5608 9.48992 19.2296L8.78282 18.5225ZM6.07607 19.342L5.87996 20.3226C6.33925 20.4145 6.73606 20.501 7.13387 20.4821L7.08638 19.4832L7.03888 18.4844C6.94498 18.4888 6.83216 18.4735 6.27219 18.3615L6.07607 19.342ZM8.02052 19.2004L7.50596 18.343C7.36433 18.4279 7.20386 18.4765 7.03889 18.4844L7.08638 19.4832L7.13386 20.4821C7.62881 20.4586 8.11021 20.3128 8.53508 20.0579L8.02052 19.2004ZM15.2599 12.0455L14.5528 11.3384L8.07571 17.8154L8.78282 18.5225L9.48992 19.2296L15.967 12.7526L15.2599 12.0455ZM11.011 7.80908L10.3695 8.57624C11.862 9.82419 13.2423 11.2004 14.4946 12.6892L15.2599 12.0455L16.0251 11.4018C14.6977 9.82366 13.2345 8.36478 11.6524 7.04192L11.011 7.80908ZM4.54018 14.2799L5.24728 14.987L11.7181 8.51619L11.011 7.80908L10.3039 7.10198L3.83307 13.5728L4.54018 14.2799ZM3.69674 17.3705L4.64543 17.6867C4.74545 17.3866 4.76326 17.1007 4.70122 16.7905L3.72064 16.9866L2.74006 17.1827C2.74061 17.1855 2.73538 17.1595 2.73796 17.1181C2.74054 17.0767 2.74895 17.0516 2.74806 17.0542L3.69674 17.3705ZM6.07607 19.342L6.27219 18.3615C5.96203 18.2994 5.67608 18.3172 5.376 18.4173L5.69223 19.3659L6.00846 20.3146C6.01112 20.3137 5.98596 20.3222 5.94459 20.3247C5.90321 20.3273 5.87721 20.3221 5.87996 20.3226L6.07607 19.342Z" fill="#111111"/>
<path fill-rule="evenodd" clip-rule="evenodd" d="M14.3058 3.17157C15.8679 1.60948 18.4006 1.60948 19.9627 3.17157C21.5248 4.73367 21.5248 7.26633 19.9627 8.82843L19.2556 9.53553L19.3726 9.65258C20.4795 10.7595 20.4795 12.5542 19.3726 13.6611L18.0982 14.9355C17.5268 15.5069 16.579 15.4285 16.1093 14.7709C15.5981 14.0552 15.0594 13.3609 14.4946 12.6895C13.2424 11.2007 11.862 9.82446 10.3695 8.57652C9.72153 8.03469 9.05237 7.51706 8.36336 7.02491C7.70576 6.55519 7.62732 5.60742 8.19875 5.03599L9.47311 3.76164C10.58 2.6547 12.3747 2.6547 13.4817 3.76164L13.5987 3.87868L14.3058 3.17157Z" fill="#111111"/>
</svg>
