<svg width="24" height="24" viewBox="0 0 24 24" fill="none" xmlns="http://www.w3.org/2000/svg">
<path fill-rule="evenodd" clip-rule="evenodd" d="M7.75702 2H16.238C17.043 2 17.708 2 18.248 2.044C18.811 2.09 19.328 2.189 19.813 2.436C20.5656 2.81949 21.1775 3.43139 21.561 4.184C21.957 4.96 21.988 5.872 21.995 6.993C21.9959 7.12491 21.9708 7.2557 21.9209 7.37783C21.8711 7.49997 21.7976 7.61103 21.7046 7.70464C21.6117 7.79824 21.5011 7.87252 21.3793 7.92322C21.2575 7.97391 21.1269 8 20.995 8H3.00002C2.86811 8 2.7375 7.97391 2.61572 7.92322C2.49393 7.87252 2.38338 7.79824 2.29043 7.70464C2.19748 7.61103 2.12397 7.49997 2.07413 7.37783C2.02429 7.2557 1.9991 7.12491 2.00002 6.993C2.00802 5.872 2.03802 4.96 2.43402 4.184C2.81751 3.43139 3.42941 2.81949 4.18202 2.436C4.66702 2.189 5.18402 2.09 5.74602 2.044C6.28802 2 6.95302 2 7.75702 2ZM5.99802 11C5.99802 10.7348 6.10338 10.4804 6.29092 10.2929C6.47845 10.1054 6.73281 10 6.99802 10H16.998C17.2632 10 17.5176 10.1054 17.7051 10.2929C17.8927 10.4804 17.998 10.7348 17.998 11C17.998 11.2652 17.8927 11.5196 17.7051 11.7071C17.5176 11.8946 17.2632 12 16.998 12H6.99802C6.73281 12 6.47845 11.8946 6.29092 11.7071C6.10338 11.5196 5.99802 11.2652 5.99802 11ZM5.99802 15C5.99802 14.7348 6.10338 14.4804 6.29092 14.2929C6.47845 14.1054 6.73281 14 6.99802 14H13.998C14.2632 14 14.5176 14.1054 14.7051 14.2929C14.8927 14.4804 14.998 14.7348 14.998 15C14.998 15.2652 14.8927 15.5196 14.7051 15.7071C14.5176 15.8946 14.2632 16 13.998 16H6.99802C6.73281 16 6.47845 15.8946 6.29092 15.7071C6.10338 15.5196 5.99802 15.2652 5.99802 15ZM20.998 15C20.998 14.7348 20.8927 14.4804 20.7051 14.2929C20.5176 14.1054 20.2632 14 19.998 14C19.7328 14 19.4785 14.1054 19.2909 14.2929C19.1034 14.4804 18.998 14.7348 18.998 15V17H16.998C16.7328 17 16.4785 17.1054 16.2909 17.2929C16.1034 17.4804 15.998 17.7348 15.998 18C15.998 18.2652 16.1034 18.5196 16.2909 18.7071C16.4785 18.8946 16.7328 19 16.998 19H18.998V21C18.998 21.2652 19.1034 21.5196 19.2909 21.7071C19.4785 21.8946 19.7328 22 19.998 22C20.2632 22 20.5176 21.8946 20.7051 21.7071C20.8927 21.5196 20.998 21.2652 20.998 21V19H22.998C23.2632 19 23.5176 18.8946 23.7051 18.7071C23.8927 18.5196 23.998 18.2652 23.998 18C23.998 17.7348 23.8927 17.4804 23.7051 17.2929C23.5176 17.1054 23.2632 17 22.998 17H20.998V15Z" fill="#111111"/>
<path opacity="0.28" d="M21 12.1249V8.8C21 8.50929 21 8.24373 20.9983 8M13.125 20H7.8C6.11984 20 5.27976 20 4.63803 19.673C4.07354 19.3854 3.6146 18.9265 3.32698 18.362C3 17.7202 3 16.8802 3 15.2V8.8C3 8.50929 3 8.24373 3.00169 8" stroke="#111111" stroke-width="2" stroke-linecap="round" stroke-linejoin="round"/>
</svg>
