<svg width="24" height="24" viewBox="0 0 24 24" fill="none" xmlns="http://www.w3.org/2000/svg">
<path opacity="0.28" d="M20.998 8C21 8.244 21 8.51 21 8.8V15.2C21 16.88 21 17.72 20.673 18.362C20.3854 18.9265 19.9265 19.3854 19.362 19.673C18.72 20 17.88 20 16.2 20H7.8C6.12 20 5.28 20 4.638 19.673C4.07354 19.3854 3.61462 18.9265 3.327 18.362C3 17.72 3 16.88 3 15.2V8.8C3 8.51 3 8.244 3.002 8" stroke="#111111" stroke-width="2" stroke-linecap="round" stroke-linejoin="round"/>
<path fill-rule="evenodd" clip-rule="evenodd" d="M7.79998 3H7.75898C6.95398 3 6.28898 3 5.74898 3.044C5.18598 3.09 4.66898 3.189 4.18398 3.436C3.43136 3.81949 2.81947 4.43139 2.43598 5.184C2.03998 5.96 2.00998 6.872 2.00198 7.993C2.00105 8.12491 2.02624 8.2557 2.07608 8.37783C2.12592 8.49997 2.19943 8.61104 2.29238 8.70464C2.38533 8.79824 2.49589 8.87252 2.61767 8.92322C2.73945 8.97391 2.87006 9 3.00198 9H20.998C21.1299 9 21.2605 8.97391 21.3823 8.92322C21.5041 8.87252 21.6146 8.79824 21.7076 8.70464C21.8005 8.61104 21.874 8.49997 21.9239 8.37783C21.9737 8.2557 21.9989 8.12491 21.998 7.993C21.99 6.872 21.96 5.96 21.564 5.184C21.1805 4.43139 20.5686 3.81949 19.816 3.436C19.331 3.189 18.814 3.09 18.252 3.044C17.71 3 17.046 3 16.242 3H7.79998Z" fill="#111111"/>
</svg>
