<svg width="24" height="24" viewBox="0 0 24 24" fill="none" xmlns="http://www.w3.org/2000/svg">
<path fill-rule="evenodd" clip-rule="evenodd" d="M7.75898 3H16.24C17.045 3 17.71 3 18.25 3.044C18.813 3.09 19.33 3.189 19.815 3.436C20.5676 3.81949 21.1795 4.43139 21.563 5.184C21.959 5.96 21.99 6.872 21.997 7.993C21.9979 8.12491 21.9727 8.2557 21.9229 8.37783C21.873 8.49997 21.7995 8.61103 21.7066 8.70464C21.6136 8.79824 21.5031 8.87252 21.3813 8.92322C21.2595 8.97391 21.1289 9 20.997 9H3.00198C2.87006 9 2.73945 8.97391 2.61767 8.92322C2.49589 8.87252 2.38534 8.79824 2.29238 8.70464C2.19943 8.61103 2.12592 8.49997 2.07608 8.37783C2.02624 8.2557 2.00105 8.12491 2.00198 7.993C2.00998 6.872 2.03998 5.96 2.43598 5.184C2.81947 4.43139 3.43136 3.81949 4.18398 3.436C4.66898 3.189 5.18598 3.09 5.74798 3.044C6.28998 3 6.95498 3 7.75898 3ZM20 15C20.2652 15 20.5195 15.1054 20.7071 15.2929C20.8946 15.4804 21 15.7348 21 16V18H23C23.2652 18 23.5195 18.1054 23.7071 18.2929C23.8946 18.4804 24 18.7348 24 19C24 19.2652 23.8946 19.5196 23.7071 19.7071C23.5195 19.8946 23.2652 20 23 20H21V22C21 22.2652 20.8946 22.5196 20.7071 22.7071C20.5195 22.8946 20.2652 23 20 23C19.7348 23 19.4804 22.8946 19.2929 22.7071C19.1053 22.5196 19 22.2652 19 22V20H17C16.7348 20 16.4804 19.8946 16.2929 19.7071C16.1053 19.5196 16 19.2652 16 19C16 18.7348 16.1053 18.4804 16.2929 18.2929C16.4804 18.1054 16.7348 18 17 18H19V16C19 15.7348 19.1053 15.4804 19.2929 15.2929C19.4804 15.1054 19.7348 15 20 15Z" fill="#111111"/>
<path opacity="0.28" d="M21 12.1249V8.8C21 8.50929 21 8.24373 20.9983 8M13.125 20H7.8C6.11984 20 5.27976 20 4.63803 19.673C4.07354 19.3854 3.6146 18.9265 3.32698 18.362C3 17.7202 3 16.8802 3 15.2V8.8C3 8.50929 3 8.24373 3.00169 8" stroke="#111111" stroke-width="2" stroke-linecap="round" stroke-linejoin="round"/>
</svg>
