<svg width="24" height="24" viewBox="0 0 24 24" fill="none" xmlns="http://www.w3.org/2000/svg">
<g opacity="0.28">
<path d="M16.8522 1.64761C16.2465 1.4508 15.594 1.45079 14.9882 1.64761C14.5825 1.77944 14.2524 2.00814 13.9479 2.26659C13.6594 2.51154 13.3355 2.83549 12.9596 3.21139L12.9323 3.23868C12.9194 3.25159 12.9054 3.2652 12.8875 3.28261L12.8835 3.28643C12.8684 3.30114 12.847 3.32182 12.8278 3.34116C12.8124 3.35658 12.7684 3.40072 12.726 3.45323C12.7098 3.4732 12.6494 3.54798 12.5977 3.65385C12.5734 3.70378 12.5157 3.82994 12.4995 4.00325C12.4815 4.19568 12.5131 4.52888 12.7872 4.80413L19.1834 11.2284C19.3708 11.4166 19.6253 11.5226 19.8909 11.5229C20.1565 11.5232 20.4113 11.4178 20.5991 11.23L20.7887 11.0405C21.1645 10.6646 21.4885 10.3407 21.7335 10.0521C21.9919 9.7477 22.2206 9.41751 22.3524 9.0118C22.5492 8.40606 22.5492 7.75356 22.3524 7.14782C22.2206 6.74211 21.9919 6.41193 21.7335 6.10749C21.4885 5.81895 21.1646 5.49503 20.7887 5.11916L18.8808 3.21133C18.505 2.83549 18.1811 2.51151 17.8925 2.26659C17.5881 2.00814 17.2579 1.77944 16.8522 1.64761Z" fill="#111111"/>
<path d="M4.86039 12.7278C4.673 12.5396 4.41843 12.4337 4.15283 12.4334C3.88724 12.4331 3.63243 12.5385 3.44463 12.7263L3.21139 12.9595C2.83549 13.3354 2.51153 13.6593 2.26658 13.9479C2.00814 14.2523 1.77943 14.5825 1.64762 14.9882C1.45079 15.5939 1.45079 16.2463 1.64762 16.8521C1.77943 17.2578 2.00814 17.5881 2.26658 17.8925C2.51154 18.181 2.83548 18.505 3.21139 18.8808L5.11916 20.7886C5.49502 21.1645 5.81895 21.4885 6.10749 21.7334C6.41192 21.9918 6.7421 22.2206 7.14781 22.3524C7.75355 22.5492 8.40605 22.5492 9.0118 22.3524C9.4175 22.2206 9.74769 21.9918 10.0522 21.7334C10.3407 21.4885 10.6646 21.1645 11.0405 20.7886L11.0678 20.7612C11.0827 20.7465 11.1003 20.7291 11.1234 20.7066L11.125 20.705C11.1456 20.6849 11.1716 20.6595 11.1956 20.6355C11.216 20.615 11.2543 20.5765 11.2906 20.5345C11.304 20.519 11.3494 20.4664 11.3938 20.3953C11.4115 20.367 11.4698 20.2729 11.5086 20.1388C11.5303 20.0641 11.667 19.5643 11.2566 19.1521L4.86039 12.7278Z" fill="#111111"/>
</g>
<path d="M6.72739 2.07079C6.42452 1.99812 6.11408 1.99903 5.7977 1.99997L2.9984 2.0045C2.72919 2.00493 2.47151 2.11389 2.28367 2.30674C2.09582 2.49959 1.99366 2.76004 2.0003 3.02917L2.06813 5.77957C2.07531 6.08633 2.08231 6.38552 2.15724 6.67664C2.22287 6.93163 2.32684 7.17523 2.46567 7.39901C2.62424 7.65463 2.83563 7.86641 3.05188 8.08305L16.154 21.2426C17.0102 22.1026 18.3496 22.2475 19.3694 21.5886C20.2716 21.0057 21.0396 20.2289 21.609 19.3116C22.2317 18.3085 22.1004 17.0096 21.2881 16.1522C21.2657 16.1285 21.2414 16.1042 21.2161 16.0788L8.18548 2.99077C7.96201 2.76573 7.74325 2.5454 7.47811 2.38239C7.24588 2.23961 6.99253 2.13441 6.72739 2.07079Z" fill="#111111"/>
</svg>
