<svg width="24" height="24" viewBox="0 0 24 24" fill="none" xmlns="http://www.w3.org/2000/svg">
<path opacity="0.28" d="M16.4629 1.36851C15.8604 1.17274 15.2114 1.17274 14.6088 1.36851C14.2049 1.49974 13.8765 1.72736 13.5741 1.98407C13.2876 2.2273 12.966 2.54888 12.5933 2.92166L2.92212 12.5928C2.54936 12.9655 2.22778 13.2871 1.98456 13.5736C1.72785 13.876 1.50023 14.2045 1.369 14.6083C1.17322 15.2109 1.17322 15.8599 1.369 16.4624C1.50023 16.8663 1.72785 17.1948 1.98456 17.4972C2.22777 17.7837 2.54932 18.1052 2.92206 18.4779L5.52225 21.0781C5.89498 21.4509 6.21652 21.7724 6.50301 22.0156C6.8054 22.2724 7.13388 22.5 7.53776 22.6312C8.14029 22.827 8.78933 22.827 9.39186 22.6312C9.79574 22.5 10.1242 22.2724 10.4266 22.0156C10.7131 21.7724 11.0346 21.4509 11.4073 21.0781L21.0786 11.4069C21.4513 11.0342 21.7729 10.7126 22.0161 10.4261C22.2728 10.1237 22.5005 9.79525 22.6317 9.39137C22.8275 8.78884 22.8275 8.1398 22.6317 7.53727C22.5005 7.13339 22.2728 6.80491 22.0161 6.50252C21.7729 6.21603 21.4514 5.89449 21.0786 5.52177L18.4785 2.92163C18.1057 2.54887 17.7842 2.22729 17.4977 1.98407C17.1953 1.72736 16.8668 1.49974 16.4629 1.36851Z" fill="#111111"/>
<path d="M3.72168 12.7073L7.25721 16.2428M9.37902 7.05029L12.9146 10.5858M12.2072 4.22192L14.3285 6.34324M6.54988 9.87891L8.6712 12.0002" stroke="#111111" stroke-width="2" stroke-linecap="round" stroke-linejoin="round"/>
</svg>
