<svg width="24" height="24" viewBox="0 0 24 24" fill="none" xmlns="http://www.w3.org/2000/svg">
<path opacity="0.28" d="M20 13.7485V18.6059C20 19.446 20 19.866 19.8365 20.1869C19.6927 20.4691 19.4632 20.6986 19.181 20.8424C18.8601 21.0059 18.4401 21.0059 17.6 21.0059H6.4C5.55992 21.0059 5.13988 21.0059 4.81901 20.8424C4.53677 20.6986 4.3073 20.4691 4.16349 20.1869C4 19.866 4 19.446 4 18.6059V13.7466" stroke="#111111" stroke-width="2" stroke-linecap="round" stroke-linejoin="round"/>
<path d="M21.4322 7.32819C21.5494 8.4998 21.7695 9.67127 21.7695 10.8509C21.7695 12.1136 21.0507 13.2084 20 13.7485C19.5544 13.9775 19.0491 14.1068 18.5137 14.1068C16.7155 14.1068 15.2578 12.6491 15.2578 10.8509C15.2578 12.6491 13.8001 14.1068 12.0019 14.1068C10.2037 14.1068 8.74601 12.6491 8.74601 10.8509C8.74601 12.6491 7.28831 14.1068 5.49013 14.1068C4.95314 14.1068 4.44651 13.9768 4 13.7465C2.95132 13.2058 2.23425 12.1121 2.23425 10.8509C2.23425 9.67135 2.45061 8.49974 2.56776 7.32819C2.69208 6.08506 2.70345 4.69904 3.68487 3.79703C4.6824 2.8802 6.0765 3.00581 7.34394 3.00581H16.6561C17.9235 3.00581 19.3176 2.8802 20.3151 3.79703C21.2965 4.69904 21.3079 6.08506 21.4322 7.32819Z" stroke="#111111" stroke-width="2" stroke-linecap="round" stroke-linejoin="round"/>
</svg>
