<svg width="24" height="24" viewBox="0 0 24 24" fill="none" xmlns="http://www.w3.org/2000/svg">
<path fill-rule="evenodd" clip-rule="evenodd" d="M3 2C2.46957 2 1.96086 2.21071 1.58579 2.58579C1.21071 2.96086 1 3.46957 1 4V5C1 5.53043 1.21071 6.03914 1.58579 6.41421C1.96086 6.78929 2.46957 7 3 7H21C21.5304 7 22.0391 6.78929 22.4142 6.41421C22.7893 6.03914 23 5.53043 23 5V4C23 3.46957 22.7893 2.96086 22.4142 2.58579C22.0391 2.21071 21.5304 2 21 2H3ZM3 10C3 9.73478 3.10536 9.48043 3.29289 9.29289C3.48043 9.10536 3.73478 9 4 9H20C20.2652 9 20.5196 9.10536 20.7071 9.29289C20.8946 9.48043 21 9.73478 21 10V17C21 18.3261 20.4732 19.5979 19.5355 20.5355C18.5979 21.4732 17.3261 22 16 22H8C6.67392 22 5.40215 21.4732 4.46447 20.5355C3.52678 19.5979 3 18.3261 3 17V10ZM13 12.5C13 12.2348 12.8946 11.9804 12.7071 11.7929C12.5196 11.6054 12.2652 11.5 12 11.5C11.7348 11.5 11.4804 11.6054 11.2929 11.7929C11.1054 11.9804 11 12.2348 11 12.5V14.5H9C8.73478 14.5 8.48043 14.6054 8.29289 14.7929C8.10536 14.9804 8 15.2348 8 15.5C8 15.7652 8.10536 16.0196 8.29289 16.2071C8.48043 16.3946 8.73478 16.5 9 16.5H11V18.5C11 18.7652 11.1054 19.0196 11.2929 19.2071C11.4804 19.3946 11.7348 19.5 12 19.5C12.2652 19.5 12.5196 19.3946 12.7071 19.2071C12.8946 19.0196 13 18.7652 13 18.5V16.5H15C15.2652 16.5 15.5196 16.3946 15.7071 16.2071C15.8946 16.0196 16 15.7652 16 15.5C16 15.2348 15.8946 14.9804 15.7071 14.7929C15.5196 14.6054 15.2652 14.5 15 14.5H13V12.5Z" fill="#111111"/>
</svg>
